<svg xmlns="http://www.w3.org/2000/svg" xmlns:xlink="http://www.w3.org/1999/xlink" width="343.39" height="345.389" viewBox="0 0 343.39 345.389"><defs><style>.a{fill:#62a0a5;}.b{fill:#fff;}.c{fill:rgba(0,0,0,0.89);}.d{fill:#ededed;stroke:rgba(0,0,0,0);stroke-miterlimit:10;}.e{clip-path:url(#c);}.f{fill:#d3752e;}.g,.h{fill:#575a5c;}.h{font-size:15px;font-family:ProximaNova-Bold, Proxima Nova;font-weight:700;}.i{filter:url(#a);}</style><filter id="a" x="0" y="0" width="335.889" height="335.889" filterUnits="userSpaceOnUse"><feOffset dx="-4" dy="-6" input="SourceAlpha"/><feGaussianBlur stdDeviation="7" result="b"/><feFlood flood-color="#333e48" flood-opacity="0.353"/><feComposite operator="in" in2="b"/><feComposite in="SourceGraphic"/></filter><clipPath id="c"><circle class="a" cx="96" cy="96" r="96" transform="translate(1552 668)"/></clipPath></defs><g transform="translate(-982.869 -613.787)"><circle class="b" cx="121.338" cy="121.338" r="121.338" transform="translate(1036.193 671.552)"/><g class="i" transform="matrix(1, 0, 0, 1, 982.87, 613.79)"><path class="c" d="M-4061.055,293.889a148.033,148.033,0,0,1-29.615-2.985,146.208,146.208,0,0,1-27.583-8.562,146.944,146.944,0,0,1-24.96-13.548,147.973,147.973,0,0,1-21.747-17.943A147.987,147.987,0,0,1-4182.9,229.1a147.028,147.028,0,0,1-13.548-24.961,146.142,146.142,0,0,1-8.562-27.583A147.991,147.991,0,0,1-4208,146.944a147.988,147.988,0,0,1,2.986-29.614,146.141,146.141,0,0,1,8.562-27.583A147.031,147.031,0,0,1-4182.9,64.786a147.993,147.993,0,0,1,17.944-21.747A147.972,147.972,0,0,1-4143.213,25.1a146.942,146.942,0,0,1,24.96-13.548,146.215,146.215,0,0,1,27.583-8.562A148.032,148.032,0,0,1-4061.055,0a148.03,148.03,0,0,1,29.614,2.985,146.2,146.2,0,0,1,27.583,8.562A146.966,146.966,0,0,1-3978.9,25.1a147.975,147.975,0,0,1,21.747,17.943,148.005,148.005,0,0,1,17.943,21.747,146.961,146.961,0,0,1,13.548,24.961,146.24,146.24,0,0,1,8.562,27.583,148.027,148.027,0,0,1,2.985,29.614,148.03,148.03,0,0,1-2.985,29.615,146.24,146.24,0,0,1-8.562,27.583,146.958,146.958,0,0,1-13.548,24.961,148.011,148.011,0,0,1-17.943,21.747,147.986,147.986,0,0,1-21.747,17.943,146.965,146.965,0,0,1-24.96,13.548,146.21,146.21,0,0,1-27.583,8.562A148.027,148.027,0,0,1-4061.055,293.889Zm0-266.195a120.133,120.133,0,0,0-24.034,2.423,118.658,118.658,0,0,0-22.385,6.949A119.291,119.291,0,0,0-4127.73,48.06a120.207,120.207,0,0,0-17.649,14.562,120.124,120.124,0,0,0-14.561,17.649,119.266,119.266,0,0,0-11,20.257,118.607,118.607,0,0,0-6.949,22.385,120.1,120.1,0,0,0-2.423,24.033,120.1,120.1,0,0,0,2.423,24.033,118.608,118.608,0,0,0,6.949,22.384,119.267,119.267,0,0,0,11,20.256,120.116,120.116,0,0,0,14.561,17.649,120.2,120.2,0,0,0,17.649,14.561,119.281,119.281,0,0,0,20.257,10.995,118.656,118.656,0,0,0,22.385,6.949,120.139,120.139,0,0,0,24.034,2.423,120.128,120.128,0,0,0,24.032-2.423,118.645,118.645,0,0,0,22.384-6.949,119.235,119.235,0,0,0,20.256-10.995,120.105,120.105,0,0,0,17.649-14.561,120.14,120.14,0,0,0,14.562-17.649,119.258,119.258,0,0,0,10.995-20.256,118.7,118.7,0,0,0,6.949-22.384,120.137,120.137,0,0,0,2.423-24.033,120.139,120.139,0,0,0-2.423-24.033,118.7,118.7,0,0,0-6.949-22.385,119.256,119.256,0,0,0-10.995-20.257,120.145,120.145,0,0,0-14.562-17.649,120.111,120.111,0,0,0-17.649-14.562,119.247,119.247,0,0,0-20.256-10.995,118.648,118.648,0,0,0-22.384-6.949A120.125,120.125,0,0,0-4061.055,27.694Z" transform="translate(4233 27)"/></g><path class="d" d="M-4073.1,334.457a168.017,168.017,0,0,1-31.71-9.845,168.959,168.959,0,0,1-28.7-15.576,170.18,170.18,0,0,1-25-20.63,170.065,170.065,0,0,1-20.631-25,168.983,168.983,0,0,1-15.576-28.7,168.136,168.136,0,0,1-9.843-31.713A170.131,170.131,0,0,1-4208,168.945a170.133,170.133,0,0,1,3.434-34.049,168.16,168.16,0,0,1,9.843-31.713,169.023,169.023,0,0,1,15.576-28.7,170.12,170.12,0,0,1,20.631-25,170.24,170.24,0,0,1,25-20.629,168.958,168.958,0,0,1,28.7-15.576,168.018,168.018,0,0,1,31.71-9.845A170.187,170.187,0,0,1-4039.055,0a170.172,170.172,0,0,1,34.048,3.432,168.15,168.15,0,0,1,31.714,9.845,168.984,168.984,0,0,1,28.7,15.576,170.224,170.224,0,0,1,25,20.629,170.224,170.224,0,0,1,20.631,25,169.067,169.067,0,0,1,15.576,28.7,168.1,168.1,0,0,1,9.845,31.713,170.239,170.239,0,0,1,3.432,34.049,170.237,170.237,0,0,1-3.432,34.048,168.1,168.1,0,0,1-9.845,31.713,168.914,168.914,0,0,1-15.576,28.7,170.115,170.115,0,0,1-20.631,25,170.165,170.165,0,0,1-25,20.63,168.949,168.949,0,0,1-28.7,15.576,168.15,168.15,0,0,1-31.714,9.845,170.171,170.171,0,0,1-34.048,3.432A170.186,170.186,0,0,1-4073.1,334.457Zm10.834-278.364a114.571,114.571,0,0,0-21.623,6.712,115.056,115.056,0,0,0-19.567,10.62,116.023,116.023,0,0,0-17.049,14.066,116.122,116.122,0,0,0-14.064,17.048,115.14,115.14,0,0,0-10.622,19.568,114.594,114.594,0,0,0-6.711,21.622,116.109,116.109,0,0,0-2.341,23.216,116.109,116.109,0,0,0,2.341,23.216,114.6,114.6,0,0,0,6.711,21.623,115.09,115.09,0,0,0,10.622,19.567,116.067,116.067,0,0,0,14.064,17.048,116.008,116.008,0,0,0,17.049,14.066,115.062,115.062,0,0,0,19.567,10.621,114.647,114.647,0,0,0,21.623,6.712,116.079,116.079,0,0,0,23.216,2.34,116.062,116.062,0,0,0,23.215-2.34,114.6,114.6,0,0,0,21.623-6.712,115.156,115.156,0,0,0,19.568-10.621A116,116,0,0,0-3957.6,250.4a115.985,115.985,0,0,0,14.067-17.048,115.246,115.246,0,0,0,10.62-19.567,114.642,114.642,0,0,0,6.712-21.623,116.075,116.075,0,0,0,2.34-23.216,116.075,116.075,0,0,0-2.34-23.216,114.609,114.609,0,0,0-6.712-21.622,115.255,115.255,0,0,0-10.62-19.568A116.039,116.039,0,0,0-3957.6,87.491a116.067,116.067,0,0,0-17.047-14.066,115.151,115.151,0,0,0-19.568-10.62,114.521,114.521,0,0,0-21.623-6.712,115.986,115.986,0,0,0-23.215-2.34A116,116,0,0,0-4062.27,56.093Z" transform="translate(5195.869 620.787)"/><g transform="translate(1078.54 728.941)"><path class="f" d="M145.5,41.292c0-10.052-6.742-14.025-13.122-16.734-5.9-2.588-11.5-3.973-11.5-9.029,0-3.491,3.551-5.658,6.742-5.658a22.807,22.807,0,0,1,12.219,3.07l5-8.487A30.96,30.96,0,0,0,127.74,0C119.253,0,109.8,5.718,109.8,15.108c0,11.437,7.885,14.507,14.868,17.4,5.056,2.047,9.39,4.093,9.39,9.149,0,4.454-4.394,6.561-8.307,6.561-4.454,0-8.367-1.926-11.8-4.755l-6.8,7.885c5.658,5.237,11.376,6.742,18.961,6.742C135.625,58.026,145.5,51.646,145.5,41.292Zm-44.964,15.59L95.055.482h-13.6L67.366,39.968,53.823.482h-13.9L34.2,56.882l11.015,1.144,3.13-42.737,12.46,36.658H72.483l13.543-36.3,3.25,42.376Z" transform="translate(-13.614)"/><path class="g" d="M6.14,44.383h0c.06,0,.12.06.181,0C6.32,44.323,6.2,44.323,6.14,44.383ZM148.917,18.56a1.174,1.174,0,0,1,.482-.06c.12.06.3.181.12.361a2.863,2.863,0,0,0,.3,1.083c-.12.181-.421.181-.421.241a1.418,1.418,0,0,1-.421.9c-.06.06-.241.12-.241.181a1.506,1.506,0,0,1-.241.783c-.06.12-.181,0-.3,0a1.245,1.245,0,0,1-.843.6c0,.181,0,.361-.06.421l-1.625,1.144s-.12,0-.12.06a.47.47,0,0,1-.241.241,3.843,3.843,0,0,0-1.746.963.513.513,0,0,0-.722.3A.9.9,0,0,0,142,26.2a1.143,1.143,0,0,0-.542.181c-.12.241-.421.3-.662.361a1.769,1.769,0,0,1-.482.482,6.741,6.741,0,0,0-1.324.542,3.234,3.234,0,0,0-.963.6c-.06.12-.3.06-.421.181a.5.5,0,0,0-.241.361,2.607,2.607,0,0,1-.3-.06.923.923,0,0,0-.6.421.8.8,0,0,0-.722.421c-.482-.06-.6.241-.783.421-.3.06-.542,0-.783.181a.912.912,0,0,1-.783.421,1.391,1.391,0,0,1-1.023.3c-.421.241-.963.482-1.384.783a1.413,1.413,0,0,0-.963.3,1.43,1.43,0,0,0-.722.181.547.547,0,0,1-.662.181,1.778,1.778,0,0,1-.783.12.564.564,0,0,1-.542.3l-.542.12c-.06,0-.12.12-.181.181a2.607,2.607,0,0,1-.3-.06,2.733,2.733,0,0,0-.843.361c-.181.12-.542.06-.843.12a1.08,1.08,0,0,0-.421.3,2.7,2.7,0,0,1-.722.06,3.36,3.36,0,0,1-.482.3,1.781,1.781,0,0,0-.6.12c-.06.181-.3.241-.421.241a1.577,1.577,0,0,0-.783.361,1.844,1.844,0,0,0-1.384.542,1.994,1.994,0,0,0-1.144.3.821.821,0,0,0-.722.3,12.779,12.779,0,0,0-1.986.662l-.963.241a.57.57,0,0,1-.662.3c-.12-.06-.241.06-.361.12-.421.06-.843.241-1.324.3-.181,0-.241.3-.361.241a.54.54,0,0,0-.542.12c-.3.12-.662.241-.963.361h-.181a1.225,1.225,0,0,1-.963.181.572.572,0,0,1-.6.361c-.482.06-.843.361-1.324.421a1.467,1.467,0,0,1-.722,0c-.06,0-.241.241-.361.3a1.134,1.134,0,0,1-.482.12,2.253,2.253,0,0,1-1.083.3c-.06,0-.241,0-.241.06a1.266,1.266,0,0,1-.9.3c-.181,0-.361.241-.421.241a.891.891,0,0,0-.783.12c-.12.06-.361-.06-.482.06s-.3.06-.421.06c-.421.06-.843,0-1.264.06a1.053,1.053,0,0,1-1.023.12l-1.023.421a1.926,1.926,0,0,0-1.384.241,1.175,1.175,0,0,1-.421.06c-.06.12-.181.361-.3.361a2.029,2.029,0,0,0-1.023.3,4,4,0,0,0-.9.181,2.014,2.014,0,0,0-1.083.06.735.735,0,0,0-.662.361,8.815,8.815,0,0,0-1.264,0,1.781,1.781,0,0,1-1.264.181.957.957,0,0,0-.843.241,7.675,7.675,0,0,1-1.144.06,7.06,7.06,0,0,0-.662.3,1.164,1.164,0,0,0-.783,0,.713.713,0,0,0-.482.06,2.361,2.361,0,0,1-1.023.12.806.806,0,0,1-.9.06.481.481,0,0,1-.662.12,1.97,1.97,0,0,1-1.445.241.506.506,0,0,1-.662.241.828.828,0,0,1-.662-.06c-.12.06-.3.06-.421.12a1.438,1.438,0,0,1-.542.181.647.647,0,0,0-.843.12.487.487,0,0,0-.662.241,3.933,3.933,0,0,0-.843,0,.468.468,0,0,1-.482.12.69.69,0,0,0-.6.06.826.826,0,0,0-.6.3,7.313,7.313,0,0,1-1.625,0,1.04,1.04,0,0,1-.783.3,6.176,6.176,0,0,1-.843.241,1.306,1.306,0,0,0-.963,0,1.856,1.856,0,0,1-.6-.06c-.12.06-.241.241-.3.241a3.2,3.2,0,0,1-1.083.06c-.241.3-.783.3-1.264.181-.241-.06-.421.181-.6.3a2.51,2.51,0,0,0-1.625.06c-.241.12-.6,0-.843.12a3.43,3.43,0,0,1-1.926.181c-.06,0-.12-.06-.241-.06-.12.06-.181.181-.3.181a2.916,2.916,0,0,0-1.023,0c-.3-.12-.542,0-.843-.06-.06,0-.12.181-.241.181a2.56,2.56,0,0,1-.662-.12.64.64,0,0,1-.482.06c-.241-.06-.542,0-.843-.06a.6.6,0,0,1-.3.241,2.51,2.51,0,0,1-.361-.12,2.2,2.2,0,0,1-1.083,0,.629.629,0,0,1-.662.12,1.476,1.476,0,0,1-1.144.06c-.241-.12-.421.06-.542.181a4.3,4.3,0,0,0-1.264.12c-.181.12-.241.3-.421.421a.4.4,0,0,0-.6.12c-.12,0-.421-.06-.542-.06s-.3.181-.421.181c-.3-.06-.542-.241-.9-.181-.06,0-.181.181-.241.181a13.734,13.734,0,0,1-1.625-.12c-.12.12-.241.3-.421.3-.12,0-.3-.06-.421-.06a3.391,3.391,0,0,1-.783,0,.75.75,0,0,0-.662.241,3.682,3.682,0,0,0-.722-.3,8.067,8.067,0,0,1-1.2.06,2.3,2.3,0,0,1-1.144.181c-.3,0-.542-.06-.843-.06a1.019,1.019,0,0,1-.783.181c-.241.06-.542.241-.783.06a.512.512,0,0,1-.3.181,1.527,1.527,0,0,1-.963-.241c-.12-.06-.241.12-.3.06-.12-.06-.421,0-.6-.06-.06,0-.241.06-.361,0a.718.718,0,0,1-.783.12,2.983,2.983,0,0,1-1.264,0,.92.92,0,0,0-.963.06,2.123,2.123,0,0,1-1.083-.06c-.241-.06-.421,0-.482.181-.06.12-.3.06-.421,0s-.361.06-.421,0a.84.84,0,0,0-.662,0c-.12.06-.3,0-.482.06a2.123,2.123,0,0,1-1.083.06c-.361-.06-.542.12-.9-.06a.452.452,0,0,1-.6.12,15.862,15.862,0,0,1-1.685-.12.49.49,0,0,1-.662.12c-.181-.12-.3.06-.361.06l-1.384-.181a.965.965,0,0,1-.9.06,12.6,12.6,0,0,1-1.685-.241,3.258,3.258,0,0,1-1.144-.181.416.416,0,0,1-.482.181,9.444,9.444,0,0,0-2.468-.482,1.577,1.577,0,0,1-.9-.06c-.12.241-.361.241-.6.181a.98.98,0,0,0-.722-.06,9.636,9.636,0,0,1-2.709-.963c-.12-.06-.12-.241-.181-.3a8.945,8.945,0,0,1-2.588-1.023c-.06-.12-.06-.421-.241-.421s-.3.181-.421.181a.347.347,0,0,1-.361-.361.586.586,0,0,0-.783-.181,1.34,1.34,0,0,1-.783-.3c-.12-.06-.421.06-.482-.06-.181-.241-.482-.241-.843-.241-.241-.06-.482,0-.6-.181a.379.379,0,0,1,0-.361c-.06-.06-.181-.06-.241-.12s-.06-.241-.06-.3c-.181-.3-.6-.3-.963-.361a.987.987,0,0,1-.662-.421.456.456,0,0,1,.12-.241c-.181-.542.12-.542.421-.662a.554.554,0,0,0,.662-.421s.12,0,.06-.06a.463.463,0,0,0-.6.06c-.361.06-.662-.181-1.023-.241a1.756,1.756,0,0,0-.963-.06c-.12-.12-.181-.12-.181-.241.06-.241.3-.361.421-.542-.06-.12,0-.241,0-.361,0-.06-.12-.12-.181-.12-.3,0-.542-.12-.843-.12-.06,0-.3.181-.361.181a1.753,1.753,0,0,1-.482-.12c-.361,0-.662-.06-.963-.06a.7.7,0,0,1-.421-.6.6.6,0,0,1,.6-.3,1.026,1.026,0,0,1,.6,0,.624.624,0,0,0,.482-.361c0-.06.12.06.181.06a.325.325,0,0,0,.482-.12c0-.06.06-.12.12-.181a1.151,1.151,0,0,1,1.083,0c.12.06.241-.12.3-.181a2.739,2.739,0,0,1,2.287-.482.485.485,0,0,1,.542-.181c.12.06.241.12.181.241-.06.181.181.12.181.06a2.633,2.633,0,0,1,1.023-.482c.181-.06.181.181.241.3,0,.06,0,.181.12.181a.636.636,0,0,0,.542-.361.333.333,0,0,1,.361-.12,1.666,1.666,0,0,1,.783.181.486.486,0,0,1,.722-.06c.06.06.181.3.361.3.12,0,.181-.181.3-.241.06-.06.241-.06.3-.06a.221.221,0,0,0,.181.06,2.257,2.257,0,0,1,.662.06,2.164,2.164,0,0,0,.662.12.656.656,0,0,1,.722-.12,5.57,5.57,0,0,1,1.746.12,1.291,1.291,0,0,1,.963-.06,16.013,16.013,0,0,0,1.685.181l.542.181a1.574,1.574,0,0,1,1.2-.181,3.252,3.252,0,0,1,1.746.361c.241-.06.3-.3.482-.361a1.15,1.15,0,0,0,.783,0,3.194,3.194,0,0,1,.662.181.379.379,0,0,0,.361,0,.9.9,0,0,1,.6-.12,5.136,5.136,0,0,1,.963,0c.12,0,.181-.12.3-.12.241,0,.421,0,.542.181a6.913,6.913,0,0,1,1.083.06.572.572,0,0,1,.542,0c.06.06.241,0,.361-.06s.241-.181.3-.181a5.048,5.048,0,0,0,1.926-.12.814.814,0,0,0,.542,0,2.812,2.812,0,0,1,.843.241.645.645,0,0,0,.722-.361,1.167,1.167,0,0,0,1.083.181,5.247,5.247,0,0,1,1.806.241c.12,0,.241-.12.3-.12a5.508,5.508,0,0,1,.963-.06.835.835,0,0,1,1.023-.3l2.227-.181c.12.12.3.12.542.06.3-.06.482.06.783.06A.416.416,0,0,1,42.135,38a2.218,2.218,0,0,1,.9.06,1.041,1.041,0,0,0,.6.06.479.479,0,0,0,.6-.12,4,4,0,0,1,.9.181,2.47,2.47,0,0,1,1.324,0c.06,0,.181-.12.241-.12a12.823,12.823,0,0,1,1.5.181.83.83,0,0,0,.542,0,1.191,1.191,0,0,1,.662.12,2.245,2.245,0,0,0,.722-.12l.6.12a7.674,7.674,0,0,0,1.2.06.761.761,0,0,1,.6.421c.181,0,.421-.06.6-.06.06-.06-.06-.3,0-.3a1.558,1.558,0,0,1,1.144-.181c.241.06.421-.06.6-.06a10.147,10.147,0,0,1,1.986.181c.06.06.241-.12.3-.12a2.257,2.257,0,0,1,.662.06c.12.06.3-.12.421-.06.181.06.361-.06.482,0l.662.12c.12,0,.3-.12.421-.12s.3-.06.361.12c0,.06-.12.241,0,.3s.241-.06.361-.12c0-.12-.06-.361.06-.3.3.06.6.181.9.241a5.491,5.491,0,0,1,1.986-.3c.12,0,.241-.241.421-.181a1.164,1.164,0,0,0,.783,0,1.643,1.643,0,0,1,.722.542.649.649,0,0,1,.482-.12c.06-.181.12-.421.3-.421a4.031,4.031,0,0,1,1.445.12c.06-.181.3-.421.542-.3a2.059,2.059,0,0,1,1.2.06.989.989,0,0,1,.963-.181c.12,0,.3-.06.421-.06h.542a1.322,1.322,0,0,1,1.083-.12.993.993,0,0,1,.722,0,1.009,1.009,0,0,1,.722-.181c.241,0,.421.12.662.06a2.934,2.934,0,0,1,.421-.181,3.9,3.9,0,0,1,.843,0,1.372,1.372,0,0,1,.662-.181s.06-.12.12-.12H77.83c.181,0,.241-.241.361-.181a4.556,4.556,0,0,1,.9-.06c.181-.06.361-.06.482-.181.06-.06.12-.12.241-.06a3.5,3.5,0,0,0,1.986-.241.585.585,0,0,0,.542-.06c.181,0,.361.12.482.06.12,0,.181-.12.241-.12a1.534,1.534,0,0,0,.783-.12c0,.12.12.12.181.06.181-.06.181-.241.361-.241a2.292,2.292,0,0,0,.963-.181.451.451,0,0,0,.3-.06,1.163,1.163,0,0,1,1.083-.06,3.791,3.791,0,0,0,1.083-.361l.6.06.6-.181a10.656,10.656,0,0,0,1.384-.06,1.029,1.029,0,0,1,.722-.361c.6-.06,1.144-.181,1.746-.241a3.347,3.347,0,0,1,1.746-.181c.12,0,.3-.181.361-.181a2.347,2.347,0,0,0,.963-.12c.181-.06.3.06.482,0,.06,0,.12-.181.181-.181a2.448,2.448,0,0,0,1.144,0c.12-.06.3-.12.361-.241a7.778,7.778,0,0,0,1.746-.181,3.46,3.46,0,0,0,1.144-.06.684.684,0,0,1,.482-.181c.361,0,.662.06,1.023.06.241,0,.361-.181.542-.3a7.243,7.243,0,0,0,1.144,0c.12-.12.241-.3.421-.241a2.369,2.369,0,0,0,1.384-.3c.361,0,.662.12.843,0,.06-.06.181-.06.241-.241a.76.76,0,0,0,.722-.06c.181-.06.421.06.482,0,.241-.241.722-.241,1.083-.3.12,0,.241-.241.3-.241a1.352,1.352,0,0,0,.963-.06.609.609,0,0,1,.722-.181c.361,0,.6-.241.843-.3a2.194,2.194,0,0,1,.9-.12c.3-.12.6-.241.843-.361.3.06.482-.181.6-.421.181.06.421.181.6.06a5.183,5.183,0,0,0,2.287-.843c.12-.06.181-.241.3-.3.12-.12.3,0,.421,0a3.432,3.432,0,0,0,.783.06c.06-.181.12-.421.3-.482a1.144,1.144,0,0,0,.783.06h.181c.06,0,.12-.12.12-.12a4.3,4.3,0,0,1,1.264-.12.728.728,0,0,1,.783-.361c.06,0,.181.06.241-.06l.482-.722c.482,0,.843-.3,1.324-.241.06,0,.241-.3.361-.181a.832.832,0,0,0,.963-.241,1.34,1.34,0,0,1,.783-.241l.361-.181a1.677,1.677,0,0,0,.6-.06c.06-.181.241-.361.421-.3a.6.6,0,0,1,.3.241.958.958,0,0,0,.542-.542c0-.06.181-.12.241-.06s.181,0,.241-.06a3.569,3.569,0,0,1,1.866-.421,1.444,1.444,0,0,1,.722-.421.449.449,0,0,1,.542-.3,1.87,1.87,0,0,0,1.565-.3.415.415,0,0,1,.542-.361.5.5,0,0,0,.482-.12.725.725,0,0,0,.722-.241c.12-.12.3,0,.421-.12a1.31,1.31,0,0,1,.482-.3.725.725,0,0,0,.722-.241,2.812,2.812,0,0,0,.843-.241c.12-.06.3.06.3.06a.794.794,0,0,1,.843-.3,1.106,1.106,0,0,1,.9-.3,8.363,8.363,0,0,1,1.144-.361.113.113,0,0,0,.181,0c.181-.181.421-.421.722-.3a1.085,1.085,0,0,1,.6-.06,1.578,1.578,0,0,1,.542-.3.624.624,0,0,0,.662-.241,2.328,2.328,0,0,0,1.023-.241.865.865,0,0,0,.12-.181,3.791,3.791,0,0,0,1.083-.361c.06,0,.3,0,.361-.06a2.618,2.618,0,0,1,.421-.361c.3-.06.542-.06.783-.12.181-.3.6-.361.9-.421C148.677,18.741,148.857,18.62,148.917,18.56Z" transform="translate(0 -7.364)"/><path class="b" d="M237.406,38.742v3.07h-.6v-3.07h-1.2V38.2h2.949v.542Zm4.815,3.13L242.1,39.4l-1.023,2.227h-.542l-.963-2.227-.12,2.468h-.6l.241-3.672h.662l1.144,2.648,1.264-2.648h.6l.181,3.672Z" transform="translate(-93.785 -15.206)"/><text class="h" transform="translate(20.54 79.603)"><tspan x="0" y="0">National</tspan></text><text class="h" transform="translate(20.54 96.48)"><tspan x="0" y="0">Multiple Sclerosis</tspan></text><text class="h" transform="translate(20.54 113.354)"><tspan x="0" y="0">Society</tspan></text></g></g></svg>