<?xml version="1.0" encoding="UTF-8" standalone="no"?>
<!DOCTYPE svg PUBLIC "-//W3C//DTD SVG 1.1//EN" "http://www.w3.org/Graphics/SVG/1.1/DTD/svg11.dtd" >
<svg xmlns="http://www.w3.org/2000/svg">
<metadata>
Generated by SVGconv.
Copyright   : Copyright (c) Mark Simonson, 2005. All rights reserved.
Designer    : Mark Simonson
Foundry     : Mark Simonson Studio LLC
Foundry URL : http://www.marksimonson.com
</metadata>
<defs>
<font id="ProximaNovaACond-Semibold" horiz-adv-x="473" >
<font-face units-per-em="1000" ascent="1069" descent="349" >
<font-face-src>
<font-face-name/>
</font-face-src>
</font-face>
<missing-glyph horiz-adv-x="479" />
<glyph unicode="&#None;" horiz-adv-x="479" d="M64 752h351v-842h-351zM95 722v-782h288l0 782z" />
<glyph unicode="&#13;" horiz-adv-x="0" />
<glyph unicode="&#32;" horiz-adv-x="212" />
<glyph unicode="&#160;" horiz-adv-x="212" />
<glyph unicode="&#8201;" horiz-adv-x="125" />
<glyph unicode="&#8202;" horiz-adv-x="56" />
<glyph unicode="&#8193;" horiz-adv-x="1000" />
<glyph unicode="&#8195;" horiz-adv-x="1000" />
<glyph unicode="&#8192;" horiz-adv-x="500" />
<glyph unicode="&#8194;" horiz-adv-x="500" />
<glyph unicode="&#8197;" horiz-adv-x="250" />
<glyph unicode="&#8198;" horiz-adv-x="167" />
<glyph unicode="&#8196;" horiz-adv-x="333" />
<glyph unicode="&#8199;" horiz-adv-x="516" />
<glyph unicode="&#8200;" horiz-adv-x="242" />
<glyph unicode="&#48;" horiz-adv-x="526" d="M263 677q77 0 127.5 -49q50.5 -49 74 -127.5q23.5 -78.5 23.5 -167.5q0 -89 -23.5 -167.5q-23.5 -78.5 -74 -128q-50.5 -49.5 -127.5 -49.5q-76 0 -126.5 49.5q-50.5 49.5 -74 128q-23.5 78.5 -23.5 167.5q0 89 23.5 167.5q23.5 78.5 74 127.5q50.5 49 126.5 49zt0 0zM263 579q-111 0 -111 -246q0 -246 111 -246q112 0 112 246q0 246 -112 246z" />
<glyph unicode="&#None;" horiz-adv-x="526" d="M488 333q0 -89 -23.5 -167.5q-23.5 -78.5 -74 -128q-50.5 -49.5 -127.5 -49.5q-74 0 -125 48l-20 -36h-74l50 92q-28 48 -41.5 111q-13.5 63 -13.5 130q0 89 23.5 167.5q23.5 78.5 74 127.5q50.5 49 126.5 49q72 0 125 -47l20 37h74l-50 -92q28 -48 42 -111q14 -63 14 -131zt0 0zM161 214l176 323q-27 42 -74 42q-111 0 -111 -246q0 -73 9 -119zt0 0zM375 333q0 67 -9 121l-177 -323q27 -44 74 -44q112 0 112 246z" />
<glyph unicode="&#49;" horiz-adv-x="352" d="M178 523l-102 -107l-65 68l181 183h96v-667l-110 0z" />
<glyph unicode="&#50;" horiz-adv-x="507" d="M48 90q134 140 189.5 202q55.5 62 80 105.5q24.5 43.5 24.5 85.5q0 44 -28 70q-28 26 -68 26q-88 0 -142 -79l-68 69q38 53 91.5 80.5q53.5 27.5 119.5 27.5q59 0 106 -23.5q47 -23.5 74.5 -67q27.5 -43.5 27.5 -102.5q0 -52 -25 -104q-25 -52 -74.5 -114q-49.5 -62 -145.5 -168l248 0v-98l-410 0z" />
<glyph unicode="&#51;" horiz-adv-x="496" d="M92 166q26 -36 63 -57.5q37 -21.5 80 -21.5q55 0 82.5 28q27.5 28 27.5 77q0 100 -116 100q-49 0 -58 -2l0 100q10 -1 56 -1q49 0 79 23.5q30 23.5 30 68.5q0 48 -28.5 73q-28.5 25 -75.5 25q-80 0 -134 -72l-65 64q34 50 87 78q53 28 120 28q94 0 150 -46.5q56 -46.5 56 -132.5q0 -57 -36 -99.5q-36 -42.5 -87 -53.5q33 -5 63.5 -26.5q30.5 -21.5 49.5 -57q19 -35.5 19 -79.5q0 -57 -26 -101q-26 -44 -74.5 -68.5q-48.5 -24.5 -114.5 -24.5q-73 0 -129 30.5q-56 30.5 -87 78.5z" />
<glyph unicode="&#52;" horiz-adv-x="492" d="M290 155h-268v93l236 419h142v-415h70v-97h-70v-155h-110zM122 252h168l0 300z" />
<glyph unicode="&#53;" horiz-adv-x="512" d="M113 165q53 -78 140 -78q49 0 79 35.5q30 35.5 30 86.5q0 58 -27.5 90.5q-27.5 32.5 -76.5 32.5q-34 0 -61.5 -14q-27.5 -14 -52.5 -44l-81 23v370h374v-97h-263v-198q20 25 52 40.5q32 15.5 70 15.5q50 0 90.5 -25.5q40.5 -25.5 64 -74q23.5 -48.5 23.5 -116.5q0 -65 -27 -116q-27 -51 -76.5 -79.5q-49.5 -28.5 -114.5 -28.5q-73 0 -124.5 27.5q-51.5 27.5 -87.5 79.5z" />
<glyph unicode="&#54;" horiz-adv-x="511" d="M288 677q51 0 93.5 -20.5q42.5 -20.5 70.5 -56.5l-56 -81q-21 30 -45.5 45q-24.5 15 -61.5 15q-44 0 -75 -32q-31 -32 -47 -84q-16 -52 -16 -112v-15q19 37 58.5 63.5q39.5 26.5 85.5 26.5q51 0 92 -24.5q41 -24.5 65.5 -73q24.5 -48.5 24.5 -117.5q0 -61 -25.5 -112q-25.5 -51 -72.5 -81q-47 -30 -109 -30q-119 0 -175 97q-56 97 -56 248q0 97 28 175q28 78 84 123.5q56 45.5 137 45.5zt0 0zM262 331q-34 0 -62.5 -23.5q-28.5 -23.5 -47.5 -59.5q4 -64 30 -112.5q26 -48.5 82 -48.5q48 0 74 36q26 36 26 84q0 63 -29 93.5t-73 30.5z" />
<glyph unicode="&#55;" horiz-adv-x="448" d="M302 570h-279v97h404v-76l-210 -591l-119 0z" />
<glyph unicode="&#56;" horiz-adv-x="507" d="M167 344q-51 19 -85.5 60.5q-34.5 41.5 -34.5 100.5q0 57 29 96q29 39 76 57.5q47 18.5 102 18.5q54 0 101.5 -18.5q47.5 -18.5 76.5 -57.5q29 -39 29 -96q0 -59 -34.5 -100.5q-34.5 -41.5 -86.5 -60.5q54 -21 92 -68.5q38 -47.5 38 -107.5q0 -84 -60 -132q-60 -48 -156 -48q-97 0 -156.5 48q-59.5 48 -59.5 132q0 60 37.5 107.5q37.5 47.5 91.5 68.5zt0 0zM254 579q-44 0 -70 -25q-26 -25 -26 -67q0 -44 32.5 -69.5q32.5 -25.5 63.5 -32.5q31 7 63.5 32.5q32.5 25.5 32.5 69.5q0 42 -26.5 67q-26.5 25 -69.5 25zt0 0zM254 299q-17 -2 -42 -16.5q-25 -14.5 -44 -40q-19 -25.5 -19 -59.5q0 -45 29.5 -70.5q29.5 -25.5 75.5 -25.5q45 0 75 25.5q30 25.5 30 70.5q0 34 -19 59.5q-19 25.5 -44 40t-42 16.5z" />
<glyph unicode="&#57;" horiz-adv-x="511" d="M115 147q20 -30 45.5 -44.5q25.5 -14.5 61.5 -14.5q67 0 102.5 67q35.5 67 35.5 160v16q-20 -38 -59 -64.5q-39 -26.5 -85 -26.5q-51 0 -92 24.5q-41 24.5 -65.5 73q-24.5 48.5 -24.5 117.5q0 61 25.5 112q25.5 51 72.5 81q47 30 109 30q119 0 175 -97q56 -97 56 -248q0 -97 -28 -175q-28 -78 -84 -123.5q-56 -45.5 -137 -45.5q-51 0 -93.5 20.5q-42.5 20.5 -70.5 56.5zM248 580q-48 0 -74.5 -36.5q-26.5 -36.5 -26.5 -84.5q0 -63 28.5 -93q28.5 -30 72.5 -30q35 0 63.5 23q28.5 23 47.5 59q-4 65 -29.5 113.5t-81.5 48.5z" />
<glyph unicode="&#None;" horiz-adv-x="516" d="M257 677q77 0 127.5 -49q50.5 -49 74 -127.5q23.5 -78.5 23.5 -167.5q0 -89 -23.5 -167.5q-23.5 -78.5 -74 -128q-50.5 -49.5 -127.5 -49.5q-76 0 -126.5 49.5q-50.5 49.5 -74 128q-23.5 78.5 -23.5 167.5q0 89 23.5 167.5q23.5 78.5 74 127.5q50.5 49 126.5 49zt0 0zM257 579q-111 0 -111 -246q0 -246 111 -246q112 0 112 246q0 246 -112 246z" />
<glyph unicode="&#None;" horiz-adv-x="516" d="M482 333q0 -89 -23.5 -167.5q-23.5 -78.5 -74 -128q-50.5 -49.5 -127.5 -49.5q-72 0 -125 48l-19 -36h-75l50 92q-28 48 -41.5 111q-13.5 63 -13.5 130q0 89 23.5 167.5q23.5 78.5 74 127.5q50.5 49 126.5 49q74 0 125 -48l21 38h74l-51 -93q28 -48 42 -110.5q14 -62.5 14 -130.5zt0 0zM155 214l176 322q-27 43 -74 43q-111 0 -111 -246q0 -73 9 -119zt0 0zM369 333q0 74 -9 120l-176 -323q27 -43 73 -43q112 0 112 246z" />
<glyph unicode="&#None;" horiz-adv-x="516" d="M242 523l-102 -107l-65 68l181 183h96v-667l-110 0z" />
<glyph unicode="&#None;" horiz-adv-x="516" d="M120 98h114v425l-116 -121l-64 68l194 197h96v-569h115v-98l-339 0z" />
<glyph unicode="&#None;" horiz-adv-x="516" d="M59 90q134 140 189.5 202q55.5 62 80 105.5q24.5 43.5 24.5 85.5q0 44 -28 70q-28 26 -68 26q-88 0 -142 -79l-68 69q38 53 91.5 80.5q53.5 27.5 119.5 27.5q59 0 106 -23.5q47 -23.5 74.5 -67q27.5 -43.5 27.5 -102.5q0 -52 -25 -104q-25 -52 -74.5 -114q-49.5 -62 -145.5 -168l248 0v-98l-410 0z" />
<glyph unicode="&#None;" horiz-adv-x="516" d="M107 166q26 -36 63 -57.5q37 -21.5 80 -21.5q55 0 82.5 28q27.5 28 27.5 77q0 100 -116 100q-49 0 -58 -2l0 100q10 -1 56 -1q49 0 79 23.5q30 23.5 30 68.5q0 48 -28.5 73q-28.5 25 -75.5 25q-80 0 -134 -72l-65 64q34 50 87 78q53 28 120 28q94 0 150 -46.5q56 -46.5 56 -132.5q0 -57 -36 -99.5q-36 -42.5 -87 -53.5q33 -5 63.5 -26.5q30.5 -21.5 49.5 -57q19 -35.5 19 -79.5q0 -57 -26 -101q-26 -44 -74.5 -68.5q-48.5 -24.5 -114.5 -24.5q-73 0 -129 30.5q-56 30.5 -87 78.5z" />
<glyph unicode="&#None;" horiz-adv-x="516" d="M301 155h-268v93l236 419h142v-415h70v-97h-70v-155h-110zM133 252h168l0 300z" />
<glyph unicode="&#None;" horiz-adv-x="516" d="M114 165q53 -78 140 -78q49 0 79 35.5q30 35.5 30 86.5q0 58 -27.5 90.5q-27.5 32.5 -76.5 32.5q-34 0 -61.5 -14q-27.5 -14 -52.5 -44l-81 23v370h374v-97h-263v-198q20 25 52 40.5q32 15.5 70 15.5q50 0 90.5 -25.5q40.5 -25.5 64 -74q23.5 -48.5 23.5 -116.5q0 -65 -27 -116q-27 -51 -76.5 -79.5q-49.5 -28.5 -114.5 -28.5q-73 0 -124.5 27.5q-51.5 27.5 -87.5 79.5z" />
<glyph unicode="&#None;" horiz-adv-x="516" d="M292 677q51 0 93.5 -20.5q42.5 -20.5 70.5 -56.5l-56 -81q-21 30 -45.5 45q-24.5 15 -61.5 15q-44 0 -75 -32q-31 -32 -47 -84q-16 -52 -16 -112v-15q19 37 58.5 63.5q39.5 26.5 85.5 26.5q51 0 92 -24.5q41 -24.5 65.5 -73q24.5 -48.5 24.5 -117.5q0 -61 -25.5 -112q-25.5 -51 -72.5 -81q-47 -30 -109 -30q-119 0 -175 97q-56 97 -56 248q0 97 28 175q28 78 84 123.5q56 45.5 137 45.5zt0 0zM266 331q-34 0 -62.5 -23.5q-28.5 -23.5 -47.5 -59.5q4 -64 30 -112.5q26 -48.5 82 -48.5q48 0 74 36q26 36 26 84q0 63 -29 93.5t-73 30.5z" />
<glyph unicode="&#None;" horiz-adv-x="516" d="M335 570h-279v97h404v-76l-210 -591l-119 0z" />
<glyph unicode="&#None;" horiz-adv-x="516" d="M171 344q-51 19 -85.5 60.5q-34.5 41.5 -34.5 100.5q0 57 29 96q29 39 76 57.5q47 18.5 102 18.5q54 0 101.5 -18.5q47.5 -18.5 76.5 -57.5q29 -39 29 -96q0 -59 -34.5 -100.5q-34.5 -41.5 -86.5 -60.5q54 -21 92 -68.5q38 -47.5 38 -107.5q0 -84 -60 -132q-60 -48 -156 -48q-97 0 -156.5 48q-59.5 48 -59.5 132q0 60 37.5 107.5q37.5 47.5 91.5 68.5zt0 0zM258 579q-44 0 -70 -25q-26 -25 -26 -67q0 -44 32.5 -69.5q32.5 -25.5 63.5 -32.5q31 7 63.5 32.5q32.5 25.5 32.5 69.5q0 42 -26.5 67q-26.5 25 -69.5 25zt0 0zM258 299q-17 -2 -42 -16.5q-25 -14.5 -44 -40q-19 -25.5 -19 -59.5q0 -45 29.5 -70.5q29.5 -25.5 75.5 -25.5q45 0 75 25.5q30 25.5 30 70.5q0 34 -19 59.5q-19 25.5 -44 40t-42 16.5z" />
<glyph unicode="&#None;" horiz-adv-x="516" d="M117 147q20 -30 45.5 -44.5q25.5 -14.5 61.5 -14.5q67 0 102.5 67q35.5 67 35.5 160v16q-20 -38 -59 -64.5q-39 -26.5 -85 -26.5q-51 0 -92 24.5q-41 24.5 -65.5 73q-24.5 48.5 -24.5 117.5q0 61 25.5 112q25.5 51 72.5 81q47 30 109 30q119 0 175 -97q56 -97 56 -248q0 -97 -28 -175q-28 -78 -84 -123.5q-56 -45.5 -137 -45.5q-51 0 -93.5 20.5q-42.5 20.5 -70.5 56.5zM250 580q-48 0 -74.5 -36.5q-26.5 -36.5 -26.5 -84.5q0 -63 28.5 -93q28.5 -30 72.5 -30q35 0 63.5 23q28.5 23 47.5 59q-4 65 -29.5 113.5t-81.5 48.5z" />
<glyph unicode="&#None;" horiz-adv-x="516" d="M33 275q0 75 23.5 140.5q23.5 65.5 74 106q50.5 40.5 126.5 40.5q76 0 126.5 -40.5q50.5 -40.5 74.5 -106q24 -65.5 24 -140.5q0 -75 -23.5 -140q-23.5 -65 -74.5 -106q-51 -41 -127 -41q-76 0 -126.5 41q-50.5 41 -74 106.5q-23.5 65.5 -23.5 139.5zt0 0zM146 275q0 -79 26.5 -133.5q26.5 -54.5 84.5 -54.5q58 0 85 55q27 55 27 133q0 78 -27 133.5q-27 55.5 -85 55.5q-57 0 -84 -55.5t-27 -133.5z" />
<glyph unicode="&#None;" horiz-adv-x="516" d="M482 275q0 -75 -23.5 -140q-23.5 -65 -74.5 -106q-51 -41 -127 -41q-73 0 -124 40l-18 -28h-71l46 72q-29 40 -43 92.5q-14 52.5 -14 110.5q0 75 23.5 140.5q23.5 65.5 74 106q50.5 40.5 126.5 40.5q71 0 122 -37l16 25h72l-44 -69q30 -40 44.5 -93.5q14.5 -53.5 14.5 -112.5zt0 0zM158 179l164 257q-25 28 -65 28q-57 0 -84 -55.5q-27 -55.5 -27 -133.5q0 -52 12 -96zt0 0zM369 275q0 58 -14 101l-165 -259q25 -30 67 -30q58 0 85 55t27 133z" />
<glyph unicode="&#None;" horiz-adv-x="516" d="M262 406l-102 -107l-65 68l181 183h96v-550l-110 0z" />
<glyph unicode="&#None;" horiz-adv-x="516" d="M62 91q283 158 283 280q0 41 -26 67q-26 26 -67 26q-85 0 -139 -77l-68 67q37 52 91.5 80q54.5 28 120.5 28q90 0 145 -47.5q55 -47.5 55 -126.5q0 -68 -56.5 -143q-56.5 -75 -162.5 -147l209 0v-98l-385 0z" />
<glyph unicode="&#None;" horiz-adv-x="516" d="M107 51q26 -36 63 -57.5q37 -21.5 80 -21.5q55 0 82.5 28q27.5 28 27.5 77q0 100 -116 100q-49 0 -58 -2l0 100q10 -1 56 -1q49 0 79 23.5q30 23.5 30 68.5q0 48 -28.5 73q-28.5 25 -75.5 25q-80 0 -134 -72l-65 64q34 50 87 78q53 28 120 28q94 0 150 -46.5q56 -46.5 56 -132.5q0 -57 -36 -99.5q-36 -42.5 -87 -53.5q33 -5 63.5 -26.5q30.5 -21.5 49.5 -57q19 -35.5 19 -79.5q0 -57 -26 -101q-26 -44 -74.5 -68.5q-48.5 -24.5 -114.5 -24.5q-73 0 -129 30.5q-56 30.5 -87 78.5z" />
<glyph unicode="&#None;" horiz-adv-x="516" d="M411 -117h-110v159h-268v94l236 414h142v-410h70v-98h-70zM133 140h168l0 295z" />
<glyph unicode="&#None;" horiz-adv-x="516" d="M114 48q53 -78 140 -78q49 0 79 35.5q30 35.5 30 86.5q0 58 -27.5 90.5q-27.5 32.5 -76.5 32.5q-34 0 -61.5 -14q-27.5 -14 -52.5 -44l-81 23v370h374v-97h-263v-198q20 25 52 40.5q32 15.5 70 15.5q50 0 90.5 -25.5q40.5 -25.5 64 -74q23.5 -48.5 23.5 -116.5q0 -65 -27 -116q-27 -51 -76.5 -79.5q-49.5 -28.5 -114.5 -28.5q-73 0 -124.5 27.5q-51.5 27.5 -87.5 79.5z" />
<glyph unicode="&#None;" horiz-adv-x="516" d="M292 677q51 0 93.5 -20.5q42.5 -20.5 70.5 -56.5l-56 -81q-21 30 -45.5 45q-24.5 15 -61.5 15q-44 0 -75 -32q-31 -32 -47 -84q-16 -52 -16 -112v-15q19 37 58.5 63.5q39.5 26.5 85.5 26.5q51 0 92 -24.5q41 -24.5 65.5 -73q24.5 -48.5 24.5 -117.5q0 -61 -25.5 -112q-25.5 -51 -72.5 -81q-47 -30 -109 -30q-119 0 -175 97q-56 97 -56 248q0 97 28 175q28 78 84 123.5q56 45.5 137 45.5zt0 0zM266 331q-34 0 -62.5 -23.5q-28.5 -23.5 -47.5 -59.5q4 -64 30 -112.5q26 -48.5 82 -48.5q48 0 74 36q26 36 26 84q0 63 -29 93.5t-73 30.5z" />
<glyph unicode="&#None;" horiz-adv-x="516" d="M335 453h-279v97h404v-76l-210 -591l-119 0z" />
<glyph unicode="&#None;" horiz-adv-x="516" d="M171 344q-51 19 -85.5 60.5q-34.5 41.5 -34.5 100.5q0 57 29 96q29 39 76 57.5q47 18.5 102 18.5q54 0 101.5 -18.5q47.5 -18.5 76.5 -57.5q29 -39 29 -96q0 -59 -34.5 -100.5q-34.5 -41.5 -86.5 -60.5q54 -21 92 -68.5q38 -47.5 38 -107.5q0 -84 -60 -132q-60 -48 -156 -48q-97 0 -156.5 48q-59.5 48 -59.5 132q0 60 37.5 107.5q37.5 47.5 91.5 68.5zt0 0zM258 579q-44 0 -70 -25q-26 -25 -26 -67q0 -44 32.5 -69.5q32.5 -25.5 63.5 -32.5q31 7 63.5 32.5q32.5 25.5 32.5 69.5q0 42 -26.5 67q-26.5 25 -69.5 25zt0 0zM258 299q-17 -2 -42 -16.5q-25 -14.5 -44 -40q-19 -25.5 -19 -59.5q0 -45 29.5 -70.5q29.5 -25.5 75.5 -25.5q45 0 75 25.5q30 25.5 30 70.5q0 34 -19 59.5q-19 25.5 -44 40t-42 16.5z" />
<glyph unicode="&#None;" horiz-adv-x="516" d="M117 31q20 -30 45.5 -44.5q25.5 -14.5 61.5 -14.5q67 0 102.5 67q35.5 67 35.5 160v16q-20 -38 -59 -64.5q-39 -26.5 -85 -26.5q-51 0 -92 24.5q-41 24.5 -65.5 73q-24.5 48.5 -24.5 117.5q0 61 25.5 112q25.5 51 72.5 81q47 30 109 30q119 0 175 -97q56 -97 56 -248q0 -97 -28 -175q-28 -78 -84 -123.5q-56 -45.5 -137 -45.5q-51 0 -93.5 20.5q-42.5 20.5 -70.5 56.5zM250 464q-48 0 -74.5 -36.5q-26.5 -36.5 -26.5 -84.5q0 -63 28.5 -93q28.5 -30 72.5 -30q35 0 63.5 23q28.5 23 47.5 59q-4 65 -29.5 113.5t-81.5 48.5z" />
<glyph unicode="&#None;" horiz-adv-x="526" d="M39 275q0 75 23.5 140.5q23.5 65.5 74 106q50.5 40.5 126.5 40.5q76 0 126.5 -40.5q50.5 -40.5 74.5 -106q24 -65.5 24 -140.5q0 -75 -23.5 -140q-23.5 -65 -74.5 -106q-51 -41 -127 -41q-76 0 -126.5 41q-50.5 41 -74 106.5q-23.5 65.5 -23.5 139.5zt0 0zM152 275q0 -79 26.5 -133.5q26.5 -54.5 84.5 -54.5q58 0 85 55q27 55 27 133q0 78 -27 133.5q-27 55.5 -85 55.5q-57 0 -84 -55.5t-27 -133.5z" />
<glyph unicode="&#None;" horiz-adv-x="526" d="M488 275q0 -75 -23.5 -140q-23.5 -65 -74.5 -106q-51 -41 -127 -41q-72 0 -125 40l-18 -28h-71l46 73q-28 39 -42 92q-14 53 -14 110q0 75 23.5 140.5q23.5 65.5 74 106q50.5 40.5 126.5 40.5q71 0 122 -37l16 25h71l-44 -68q30 -40 45 -93.5q15 -53.5 15 -113.5zt0 0zM164 179l164 257q-25 28 -65 28q-57 0 -84 -55.5q-27 -55.5 -27 -133.5q0 -56 12 -96zt0 0zM375 275q0 59 -14 102l-166 -260q28 -30 68 -30q58 0 85 55t27 133z" />
<glyph unicode="&#None;" horiz-adv-x="352" d="M178 406l-102 -107l-65 68l181 183h96v-550l-110 0z" />
<glyph unicode="&#None;" horiz-adv-x="495" d="M50 91q283 158 283 280q0 41 -26 67q-26 26 -67 26q-85 0 -139 -77l-68 67q37 52 91.5 80q54.5 28 120.5 28q90 0 145 -47.5q55 -47.5 55 -126.5q0 -68 -56.5 -143q-56.5 -75 -162.5 -147l209 0v-98l-385 0z" />
<glyph unicode="&#None;" horiz-adv-x="496" d="M89 51q26 -36 63 -57.5q37 -21.5 80 -21.5q55 0 82.5 28q27.5 28 27.5 77q0 100 -116 100q-49 0 -58 -2l0 100q10 -1 56 -1q49 0 79 23.5q30 23.5 30 68.5q0 48 -28.5 73q-28.5 25 -75.5 25q-80 0 -134 -72l-65 64q34 50 87 78q53 28 120 28q94 0 150 -46.5q56 -46.5 56 -132.5q0 -57 -36 -99.5q-36 -42.5 -87 -53.5q33 -5 63.5 -26.5q30.5 -21.5 49.5 -57q19 -35.5 19 -79.5q0 -57 -26 -101q-26 -44 -74.5 -68.5q-48.5 -24.5 -114.5 -24.5q-73 0 -129 30.5q-56 30.5 -87 78.5z" />
<glyph unicode="&#None;" horiz-adv-x="492" d="M400 -117h-110v159h-268v94l236 414h142v-410h70v-98h-70zM122 140h168l0 295z" />
<glyph unicode="&#None;" horiz-adv-x="512" d="M113 48q53 -78 140 -78q49 0 79 35.5q30 35.5 30 86.5q0 58 -27.5 90.5q-27.5 32.5 -76.5 32.5q-34 0 -61.5 -14q-27.5 -14 -52.5 -44l-81 23v370h374v-97h-263v-198q20 25 52 40.5q32 15.5 70 15.5q50 0 90.5 -25.5q40.5 -25.5 64 -74q23.5 -48.5 23.5 -116.5q0 -65 -27 -116q-27 -51 -76.5 -79.5q-49.5 -28.5 -114.5 -28.5q-73 0 -124.5 27.5q-51.5 27.5 -87.5 79.5z" />
<glyph unicode="&#None;" horiz-adv-x="511" d="M288 677q51 0 93.5 -20.5q42.5 -20.5 70.5 -56.5l-56 -81q-21 30 -45.5 45q-24.5 15 -61.5 15q-44 0 -75 -32q-31 -32 -47 -84q-16 -52 -16 -112v-15q19 37 58.5 63.5q39.5 26.5 85.5 26.5q51 0 92 -24.5q41 -24.5 65.5 -73q24.5 -48.5 24.5 -117.5q0 -61 -25.5 -112q-25.5 -51 -72.5 -81q-47 -30 -109 -30q-119 0 -175 97q-56 97 -56 248q0 97 28 175q28 78 84 123.5q56 45.5 137 45.5zt0 0zM262 331q-34 0 -62.5 -23.5q-28.5 -23.5 -47.5 -59.5q4 -64 30 -112.5q26 -48.5 82 -48.5q48 0 74 36q26 36 26 84q0 63 -29 93.5t-73 30.5z" />
<glyph unicode="&#None;" horiz-adv-x="448" d="M302 453h-279v97h404v-76l-210 -591l-119 0z" />
<glyph unicode="&#None;" horiz-adv-x="507" d="M167 344q-51 19 -85.5 60.5q-34.5 41.5 -34.5 100.5q0 57 29 96q29 39 76 57.5q47 18.5 102 18.5q54 0 101.5 -18.5q47.5 -18.5 76.5 -57.5q29 -39 29 -96q0 -59 -34.5 -100.5q-34.5 -41.5 -86.5 -60.5q54 -21 92 -68.5q38 -47.5 38 -107.5q0 -84 -60 -132q-60 -48 -156 -48q-97 0 -156.5 48q-59.5 48 -59.5 132q0 60 37.5 107.5q37.5 47.5 91.5 68.5zt0 0zM254 579q-44 0 -70 -25q-26 -25 -26 -67q0 -44 32.5 -69.5q32.5 -25.5 63.5 -32.5q31 7 63.5 32.5q32.5 25.5 32.5 69.5q0 42 -26.5 67q-26.5 25 -69.5 25zt0 0zM254 299q-17 -2 -42 -16.5q-25 -14.5 -44 -40q-19 -25.5 -19 -59.5q0 -45 29.5 -70.5q29.5 -25.5 75.5 -25.5q45 0 75 25.5q30 25.5 30 70.5q0 34 -19 59.5q-19 25.5 -44 40t-42 16.5z" />
<glyph unicode="&#None;" horiz-adv-x="511" d="M115 31q20 -30 45.5 -44.5q25.5 -14.5 61.5 -14.5q67 0 102.5 67q35.5 67 35.5 160v16q-20 -38 -59 -64.5q-39 -26.5 -85 -26.5q-51 0 -92 24.5q-41 24.5 -65.5 73q-24.5 48.5 -24.5 117.5q0 61 25.5 112q25.5 51 72.5 81q47 30 109 30q119 0 175 -97q56 -97 56 -248q0 -97 -28 -175q-28 -78 -84 -123.5q-56 -45.5 -137 -45.5q-51 0 -93.5 20.5q-42.5 20.5 -70.5 56.5zM248 464q-48 0 -74.5 -36.5q-26.5 -36.5 -26.5 -84.5q0 -63 28.5 -93q28.5 -30 72.5 -30q35 0 63.5 23q28.5 23 47.5 59q-4 65 -29.5 113.5t-81.5 48.5z" />
<glyph unicode="&#65;" horiz-adv-x="536" d="M382 132h-229l-36 -132h-115l199 667h133l199 -667h-115zM176 230h184l-92 338z" />
<glyph unicode="&#66;" horiz-adv-x="540" d="M64 667h252q82 0 127 -48q45 -48 45 -122q0 -61 -29.5 -100.5q-29.5 -39.5 -75.5 -52.5q49 -7 82.5 -54.5q33.5 -47.5 33.5 -109.5q0 -81 -45 -130.5q-45 -49.5 -130 -49.5h-260zM292 389q41 0 61.5 24.5q20.5 24.5 20.5 65.5q0 41 -21 66q-21 25 -61 25h-117v-181zM296 98q44 0 66.5 25.5q22.5 25.5 22.5 71.5q0 42 -23 69q-23 27 -66 27h-121l0 -193z" />
<glyph unicode="&#67;" horiz-adv-x="547" d="M39 333q0 100 33 178.5q33 78.5 94 122.5q61 44 142 44q82 0 132.5 -40.5q50.5 -40.5 81.5 -106.5l-92 -41q-18 42 -49 66q-31 24 -73 24q-47 0 -82 -31.5q-35 -31.5 -54.5 -88q-19.5 -56.5 -19.5 -127.5q0 -71 19.5 -127q19.5 -56 54.5 -87.5q35 -31.5 82 -31.5q44 0 75 26.5q31 26.5 48 71.5l92 -41q-68 -156 -215 -156q-81 0 -142 44q-61 44 -94 122.5t-33 178.5z" />
<glyph unicode="&#68;" horiz-adv-x="583" d="M64 667h199q88 0 151.5 -42.5q63.5 -42.5 96.5 -118q33 -75.5 33 -173.5q0 -98 -33 -173q-33 -75 -96.5 -117.5q-63.5 -42.5 -151.5 -42.5h-199zM263 98q80 0 123.5 64.5q43.5 64.5 43.5 170.5q0 108 -43 172.5q-43 64.5 -124 64.5h-88l0 -472z" />
<glyph unicode="&#69;" horiz-adv-x="472" d="M64 667h365v-97h-254v-181h247v-98h-247v-193h254v-98l-365 0z" />
<glyph unicode="&#70;" horiz-adv-x="464" d="M64 667h365v-97h-254v-181h247v-98h-247v-291l-111 0z" />
<glyph unicode="&#71;" horiz-adv-x="590" d="M311 678q76 0 128.5 -39q52.5 -39 83.5 -103l-90 -42q-19 39 -50 62.5q-31 23.5 -72 23.5q-47 0 -83 -30q-36 -30 -56 -86q-20 -56 -20 -131q0 -75 20 -130.5q20 -55.5 56 -86q36 -30.5 83 -30.5q60 0 94 49q34 49 42 123l-165 0v98h279q0 -175 -65 -272q-65 -97 -192 -97q-78 0 -138 43.5q-60 43.5 -93.5 122q-33.5 78.5 -33.5 180.5q0 103 34 181q34 78 95.5 121t142.5 43z" />
<glyph unicode="&#None;" horiz-adv-x="576" d="M311 678q76 0 128.5 -39q52.5 -39 83.5 -103l-90 -42q-19 39 -50 62.5q-31 23.5 -72 23.5q-47 0 -83 -30q-36 -30 -56 -86q-20 -56 -20 -131q0 -75 20 -130.5q20 -55.5 56 -86q36 -30.5 83 -30.5q35 0 64 13.5q29 13.5 47 34.5l0 124h-140v97h245v-265q-87 -103 -216 -103q-81 0 -142.5 43.5q-61.5 43.5 -95.5 122q-34 78.5 -34 180.5q0 103 34 181q34 78 95.5 121t142.5 43z" />
<glyph unicode="&#72;" horiz-adv-x="593" d="M419 294h-244v-294h-111v667h111v-275h244v275h111v-667l-111 0z" />
<glyph unicode="&#73;" horiz-adv-x="239" d="M64 667h111v-667l-111 0z" />
<glyph unicode="&#74;" horiz-adv-x="409" d="M51 130q38 -43 89 -43q45 0 70 26q25 26 25 74v480h111v-483q0 -98 -53 -147q-53 -49 -143 -49q-87 0 -142 55z" />
<glyph unicode="&#75;" horiz-adv-x="535" d="M225 275l-50 -76v-199h-111v667h111v-321l207 321h130l-218 -315l234 -352l-131 0z" />
<glyph unicode="&#76;" horiz-adv-x="434" d="M64 667h111v-569h231v-98l-342 0z" />
<glyph unicode="&#77;" horiz-adv-x="713" d="M540 485l-162 -485h-43l-160 485v-485h-111v667h150l143 -431l144 431h149v-667l-110 0z" />
<glyph unicode="&#78;" horiz-adv-x="592" d="M175 461v-461h-111v667h112l241 -444v444h111v-667l-106 0z" />
<glyph unicode="&#79;" horiz-adv-x="612" d="M306 678q82 0 142.5 -45q60.5 -45 92.5 -123q32 -78 32 -177q0 -99 -32 -177q-32 -78 -92.5 -123q-60.5 -45 -142.5 -45q-82 0 -142.5 45q-60.5 45 -92.5 123q-32 78 -32 177q0 99 32 177q32 78 92.5 123q60.5 45 142.5 45zt0 0zM306 580q-73 0 -113.5 -69q-40.5 -69 -40.5 -178q0 -108 40.5 -177q40.5 -69 113.5 -69q72 0 113 69.5q41 69.5 41 176.5q0 108 -41 177.5t-113 69.5z" />
<glyph unicode="&#80;" horiz-adv-x="513" d="M64 667h227q63 0 107.5 -28q44.5 -28 67 -75q22.5 -47 22.5 -104q0 -57 -22.5 -104.5q-22.5 -47.5 -67 -75.5q-44.5 -28 -107.5 -28h-116v-252h-111zM278 570h-103v-220h103q44 0 70.5 30q26.5 30 26.5 80q0 50 -26.5 80t-70.5 30z" />
<glyph unicode="&#81;" horiz-adv-x="612" d="M490 71l37 -58l-77 -49l-31 50q-50 -26 -113 -26q-82 0 -142.5 45q-60.5 45 -92.5 123q-32 78 -32 177q0 99 32 177q32 78 92.5 123q60.5 45 142.5 45q82 0 142.5 -45q60.5 -45 92.5 -123q32 -78 32 -177q0 -80 -21.5 -147.5q-21.5 -67.5 -61.5 -114.5zt0 0zM364 101l-69 110l77 48l55 -88q33 65 33 162q0 108 -41 177.5q-41 69.5 -113 69.5q-73 0 -113.5 -69q-40.5 -69 -40.5 -178q0 -108 40.5 -177q40.5 -69 113.5 -69q32 0 58 14z" />
<glyph unicode="&#82;" horiz-adv-x="533" d="M257 252h-82v-252h-111v667h230q57 0 101 -26q44 -26 68.5 -72.5q24.5 -46.5 24.5 -107.5q0 -81 -36 -128.5q-36 -47.5 -87 -61.5l129 -271h-124zM278 570h-103v-220h103q44 0 70.5 30q26.5 30 26.5 80q0 50 -26.5 80t-70.5 30z" />
<glyph unicode="&#83;" horiz-adv-x="486" d="M78 159q28 -32 70 -52q42 -20 89 -20q49 0 76.5 25.5q27.5 25.5 27.5 62.5q0 28 -15.5 48.5q-15.5 20.5 -39.5 34q-24 13.5 -65 32.5q-57 25 -92.5 46.5q-35.5 21.5 -61 59.5q-25.5 38 -25.5 96q0 52 25.5 94.5q25.5 42.5 72.5 67q47 24.5 109 24.5q58 0 107 -18.5q49 -18.5 85 -53.5l-54 -84q-57 57 -141 57q-41 0 -66 -22q-25 -22 -25 -59q0 -34 27.5 -55q27.5 -21 87.5 -48q58 -26 95 -49q37 -23 63 -62.5q26 -39.5 26 -99.5q0 -56 -25 -100q-25 -44 -74 -70q-49 -26 -118 -26q-135 0 -215 85z" />
<glyph unicode="&#84;" horiz-adv-x="462" d="M176 570h-153v97h416v-97h-153v-570l-110 0z" />
<glyph unicode="&#85;" horiz-adv-x="592" d="M64 667h111v-444q0 -66 31.5 -101.5q31.5 -35.5 89.5 -35.5q58 0 89.5 35.5q31.5 35.5 31.5 101.5v444h111v-443q0 -112 -61.5 -174q-61.5 -62 -170.5 -62q-109 0 -170.5 62q-61.5 62 -61.5 174z" />
<glyph unicode="&#86;" horiz-adv-x="536" d="M2 667h120l146 -536l145 536h120l-199 -667l-133 0z" />
<glyph unicode="&#87;" horiz-adv-x="745" d="M372 479l-95 -479h-116l-151 667h119l96 -498l103 498h89l104 -498l95 498h119l-151 -667l-116 0z" />
<glyph unicode="&#88;" horiz-adv-x="535" d="M267 254l-137 -254h-128l197 341l-185 326h127l126 -240l126 240h128l-185 -325l197 -342l-128 0z" />
<glyph unicode="&#89;" horiz-adv-x="521" d="M206 278l-207 389h123l139 -285l139 285h122l-206 -389v-278l-110 0z" />
<glyph unicode="&#90;" horiz-adv-x="475" d="M38 92l258 478h-258v97h392v-90l-259 -479h266v-98l-399 0z" />
<glyph unicode="&#97;" horiz-adv-x="494" d="M335 64q-22 -36 -55 -56q-33 -20 -69 -20q-81 0 -128.5 68.5q-47.5 68.5 -47.5 184.5q0 116 47.5 185q47.5 69 128.5 69q37 0 70 -19.5q33 -19.5 54 -57.5l0 65h100v-483h-100zM335 340q-13 28 -39.5 47q-26.5 19 -54.5 19q-50 0 -76.5 -45.5q-26.5 -45.5 -26.5 -119.5q0 -72 26.5 -118.5q26.5 -46.5 76.5 -46.5q28 0 54.5 19q26.5 19 39.5 47z" />
<glyph unicode="&#None;" horiz-adv-x="467" d="M309 49q-21 -29 -55 -45q-34 -16 -72 -16q-40 0 -73.5 19q-33.5 19 -54 55.5q-20.5 36.5 -20.5 86.5q0 74 43 115.5q43 41.5 105 41.5q38 0 72.5 -15q34.5 -15 54.5 -43l0 70q0 44 -24.5 68q-24.5 24 -69.5 24q-66 0 -120 -55l-39 70q35 35 81.5 52.5q46.5 17.5 95.5 17.5q80 0 127.5 -40.5q47.5 -40.5 47.5 -124.5v-330h-99zM309 183q-14 25 -39 39.5q-25 14.5 -52 14.5q-38 0 -61 -25q-23 -25 -23 -65q0 -40 23 -65q23 -25 61 -25q27 0 52 14.5q25 14.5 39 38.5z" />
<glyph unicode="&#98;" horiz-adv-x="494" d="M59 667h100v-249q21 38 54 57.5q33 19.5 70 19.5q53 0 93 -31.5q40 -31.5 61.5 -89q21.5 -57.5 21.5 -133.5q0 -116 -47.5 -184.5q-47.5 -68.5 -128.5 -68.5q-37 0 -69.5 20q-32.5 20 -54.5 56l0 -64h-100zM253 76q50 0 76.5 46q26.5 46 26.5 119q0 74 -26.5 120q-26.5 46 -76.5 46q-28 0 -54.5 -19.5q-26.5 -19.5 -39.5 -47.5l0 -198q13 -28 39.5 -47t54.5 -19z" />
<glyph unicode="&#99;" horiz-adv-x="415" d="M247 495q95 0 147 -65l-51 -68q-35 45 -86 45q-55 0 -87 -47q-32 -47 -32 -118q0 -72 32 -119q32 -47 87 -47q50 0 86 45l51 -68q-52 -65 -147 -65q-63 0 -111.5 33q-48.5 33 -74.5 90.5q-26 57.5 -26 130.5q0 73 26 130.5q26 57.5 74.5 90t111.5 32.5z" />
<glyph unicode="&#100;" horiz-adv-x="494" d="M335 64q-22 -36 -55 -56q-33 -20 -69 -20q-81 0 -128.5 68.5q-47.5 68.5 -47.5 184.5q0 116 47.5 185q47.5 69 128.5 69q37 0 70 -19.5q33 -19.5 54 -57.5l0 249h100v-667h-100zM335 341q-13 28 -39.5 47q-26.5 19 -54.5 19q-50 0 -76.5 -46q-26.5 -46 -26.5 -120q0 -72 26.5 -118.5q26.5 -46.5 76.5 -46.5q28 0 54.5 19q26.5 19 39.5 47z" />
<glyph unicode="&#101;" horiz-adv-x="474" d="M242 495q95 0 148 -72q53 -72 53 -185v-29h-307q3 -62 36 -100.5q33 -38.5 90 -38.5q29 0 58.5 14q29.5 14 50.5 38l48 -60q-31 -35 -74.5 -54.5q-43.5 -19.5 -92.5 -19.5q-66 0 -115 32q-49 32 -75.5 89.5q-26.5 57.5 -26.5 132.5q0 70 25 128q25 58 72 91.5q47 33.5 110 33.5zt0 0zM135 280h211q-1 53 -26.5 93.5q-25.5 40.5 -78.5 40.5q-51 0 -77 -41t-29 -93z" />
<glyph unicode="&#102;" horiz-adv-x="274" d="M79 396h-63v87h63v45q0 71 36 110q36 39 95 39q43 0 73 -15l-20 -77q-14 7 -31 7q-25 0 -39 -16.5q-14 -16.5 -14 -47.5v-45h80v-87h-80v-396l-100 0z" />
<glyph unicode="&#None;" horiz-adv-x="274" d="M79 396h-63v87h63v45q0 71 36 110q36 39 95 39q44 0 73 -16l-21 -77q-10 9 -31 9q-24 0 -38 -17q-14 -17 -14 -48v-45h80v-87h-80v-396l-100 0z" />
<glyph unicode="&#103;" horiz-adv-x="493" d="M96 -58q50 -54 125 -54q50 0 82 29.5q32 29.5 32 91.5v69q-22 -37 -55 -58q-33 -21 -69 -21q-81 0 -128.5 66q-47.5 66 -47.5 182q0 115 47 181.5q47 66.5 129 66.5q37 0 69.5 -19.5q32.5 -19.5 54.5 -57.5l0 65h99v-466q0 -115 -59 -164q-59 -49 -149 -49q-54 0 -95 14q-41 14 -76 47zM335 341q-13 28 -39.5 47q-26.5 19 -54.5 19q-50 0 -76.5 -44q-26.5 -44 -26.5 -116q0 -72 26.5 -115.5q26.5 -43.5 76.5 -43.5q28 0 54.5 19q26.5 19 39.5 47z" />
<glyph unicode="&#104;" horiz-adv-x="485" d="M327 331q0 40 -18 58q-18 18 -52 18q-30 0 -56 -19.5q-26 -19.5 -42 -47.5l0 -340h-100v667h100v-249q21 32 59.5 54.5q38.5 22.5 81.5 22.5q126 0 126 -130v-365l-99 0z" />
<glyph unicode="&#105;" horiz-adv-x="218" d="M46 625q0 26 18.5 44.5q18.5 18.5 44.5 18.5q26 0 44 -18.5q18 -18.5 18 -44.5q0 -25 -18 -43.5q-18 -18.5 -44 -18.5q-26 0 -44.5 18.5q-18.5 18.5 -18.5 43.5zt0 0zM59 483h100v-483l-100 0z" />
<glyph unicode="&#106;" horiz-adv-x="218" d="M46 625q0 26 18.5 44.5q18.5 18.5 44.5 18.5q26 0 44 -18.5q18 -18.5 18 -44.5q0 -25 -18 -43.5q-18 -18.5 -44 -18.5q-26 0 -44.5 18.5q-18.5 18.5 -18.5 43.5zt0 0zM159 -47q0 -72 -34.5 -110.5q-34.5 -38.5 -100.5 -38.5q-28 0 -50 6l12 84q9 -3 23 -3q50 0 50 62v530l100 0z" />
<glyph unicode="&#107;" horiz-adv-x="456" d="M217 202l-58 -78v-124h-100v667h100v-421l170 237h116l-160 -217l163 -266l-117 0z" />
<glyph unicode="&#108;" horiz-adv-x="254" d="M59 108v559h100v-538q0 -53 37 -53q24 0 38 16l23 -75q-27 -29 -86 -29q-112 0 -112 120z" />
<glyph unicode="&#None;" horiz-adv-x="218" d="M59 667h100v-667l-100 0z" />
<glyph unicode="&#109;" horiz-adv-x="722" d="M563 336q0 71 -60 71q-28 0 -53.5 -20q-25.5 -20 -38.5 -47l0 -340h-100v336q0 71 -60 71q-28 0 -53 -20q-25 -20 -39 -47l0 -340h-100v483h100v-65q16 29 54 53q38 24 80 24q46 0 75.5 -22q29.5 -22 37.5 -63q18 34 57 59.5q39 25.5 82 25.5q56 0 87 -31.5q31 -31.5 31 -95.5v-368l-100 0z" />
<glyph unicode="&#110;" horiz-adv-x="485" d="M326 329q0 41 -17.5 59.5q-17.5 18.5 -51.5 18.5q-30 0 -56.5 -19.5q-26.5 -19.5 -41.5 -47.5l0 -340h-100v483h100v-65q21 32 59.5 54.5q38.5 22.5 80.5 22.5q64 0 95.5 -33.5q31.5 -33.5 31.5 -97.5v-364l-100 0z" />
<glyph unicode="&#111;" horiz-adv-x="488" d="M35 242q0 70 24 127.5q24 57.5 71.5 91.5q47.5 34 113.5 34q66 0 113.5 -34q47.5 -34 71.5 -91.5q24 -57.5 24 -127.5q0 -70 -24 -127.5q-24 -57.5 -71.5 -92q-47.5 -34.5 -113.5 -34.5q-66 0 -113.5 34.5q-47.5 34.5 -71.5 92q-24 57.5 -24 127.5zt0 0zM350 242q0 70 -27 117.5q-27 47.5 -79 47.5q-52 0 -79 -47.5q-27 -47.5 -27 -117.5q0 -70 27 -118q27 -48 79 -48q52 0 79 48t27 118z" />
<glyph unicode="&#112;" horiz-adv-x="493" d="M59 -184v667h100v-64q21 36 54 56q33 20 70 20q82 0 129 -68q47 -68 47 -185q0 -116 -47.5 -185q-47.5 -69 -128.5 -69q-37 0 -70 19.5q-33 19.5 -54 57.5l0 -249zM253 407q-28 0 -54.5 -19q-26.5 -19 -39.5 -47l0 -198q13 -28 39.5 -47.5q26.5 -19.5 54.5 -19.5q50 0 76.5 46.5q26.5 46.5 26.5 119.5q0 73 -26.5 119t-76.5 46z" />
<glyph unicode="&#113;" horiz-adv-x="493" d="M335 -184v249q-22 -38 -54.5 -57.5q-32.5 -19.5 -69.5 -19.5q-81 0 -128.5 69q-47.5 69 -47.5 185q0 117 47 185q47 68 129 68q36 0 69 -20q33 -20 55 -56l0 64h99v-667zM335 341q-13 28 -39.5 47q-26.5 19 -54.5 19q-50 0 -76.5 -46q-26.5 -46 -26.5 -119q0 -73 26.5 -119.5q26.5 -46.5 76.5 -46.5q28 0 54.5 19.5q26.5 19.5 39.5 47.5z" />
<glyph unicode="&#114;" horiz-adv-x="308" d="M59 483h100v-71q22 36 58 59q36 23 75 23l0 -99q-12 3 -26 3q-30 0 -61 -19.5q-31 -19.5 -46 -47.5l0 -331l-100 0z" />
<glyph unicode="&#115;" horiz-adv-x="401" d="M66 127q23 -25 58.5 -42.5q35.5 -17.5 71.5 -17.5q37 0 58.5 16q21.5 16 21.5 44q0 27 -23 43q-23 16 -68 33q-46 16 -76 32q-30 16 -51 45.5q-21 29.5 -21 76.5q0 38 19.5 69.5q19.5 31.5 57.5 50q38 18.5 89 18.5q48 0 88.5 -16.5q40.5 -16.5 70.5 -45.5l-42 -68q-19 23 -49.5 37q-30.5 14 -65.5 14q-33 0 -53.5 -15q-20.5 -15 -20.5 -38q0 -24 22 -39q22 -15 66 -31q48 -17 78 -33.5q30 -16.5 52 -47.5q22 -31 22 -80q0 -63 -47.5 -103.5q-47.5 -40.5 -125.5 -40.5q-55 0 -100.5 18q-45.5 18 -76.5 51z" />
<glyph unicode="&#116;" horiz-adv-x="283" d="M77 108v288h-63v87h63v132h100v-132h80v-87h-80v-267q0 -53 37 -53q12 0 22.5 4.5q10.5 4.5 15.5 11.5l24 -75q-29 -29 -87 -29q-112 0 -112 120z" />
<glyph unicode="&#117;" horiz-adv-x="485" d="M326 64q-22 -32 -59.5 -54q-37.5 -22 -81.5 -22q-126 0 -126 130v365h100v-330q0 -77 69 -77q30 0 56.5 19q26.5 19 41.5 47l0 341h100v-483l-100 0z" />
<glyph unicode="&#118;" horiz-adv-x="430" d="M2 483h106l107 -364l108 364h106l-160 -483l-108 0z" />
<glyph unicode="&#119;" horiz-adv-x="667" d="M334 355l-94 -355h-104l-129 483h103l84 -352l92 352h92l94 -352l85 352h103l-129 -483l-104 0z" />
<glyph unicode="&#120;" horiz-adv-x="424" d="M212 176l-97 -176h-109l144 246l-136 237h109l89 -166l89 166h109l-136 -237l144 -246l-109 0z" />
<glyph unicode="&#121;" horiz-adv-x="485" d="M97 -58q23 -27 55.5 -40.5q32.5 -13.5 66.5 -13.5q51 0 79 32q28 32 28 91v67q-22 -32 -59.5 -53.5q-37.5 -21.5 -81.5 -21.5q-126 0 -126 130v350h100v-316q0 -40 17.5 -58q17.5 -18 51.5 -18q30 0 56.5 19q26.5 19 41.5 46l0 327h100v-466q0 -103 -54 -158q-54 -55 -149 -55q-105 0 -167 61z" />
<glyph unicode="&#None;" horiz-adv-x="430" d="M89 -108q21 0 34 9q13 9 21 31l20 58l-162 493h106l107 -363l108 363h106l-191 -574q-19 -58 -53.5 -81.5q-34.5 -23.5 -88.5 -23.5q-13 0 -29 2q-16 2 -25 5l15 88q13 -7 32 -7z" />
<glyph unicode="&#122;" horiz-adv-x="399" d="M38 76l193 320h-193v87h318v-73l-193 -323h197v-87l-322 0z" />
<glyph unicode="&#None;" horiz-adv-x="467" d="M465 0h-108l-30 107h-187l-30 -107h-109l172 550h121zM162 197h143l-72 251z" />
<glyph unicode="&#None;" horiz-adv-x="471" d="M59 550h218q72 0 111.5 -39.5q39.5 -39.5 39.5 -101.5q0 -48 -23.5 -80q-23.5 -32 -61.5 -44q42 -10 68.5 -48.5q26.5 -38.5 26.5 -87.5q0 -67 -39.5 -108q-39.5 -41 -114.5 -41h-225zM260 460h-97v-134h97q31 0 47 18.5q16 18.5 16 48.5q0 29 -16 48q-16 19 -47 19zt0 0zM264 236h-101v-146h101q33 0 50.5 19q17.5 19 17.5 53q0 31 -17.5 52.5t-50.5 21.5z" />
<glyph unicode="&#None;" horiz-adv-x="478" d="M272 562q124 0 185 -128l-85 -35q-16 34 -41.5 53q-25.5 19 -58.5 19q-60 0 -95.5 -54.5q-35.5 -54.5 -35.5 -141.5q0 -85 35.5 -140.5q35.5 -55.5 95.5 -55.5q34 0 60 20q26 20 40 54h85q-60 -165 -185 -165q-72 0 -125.5 37q-53.5 37 -82 102q-28.5 65 -28.5 148q0 84 28.5 149q28.5 65 82 101.5t125.5 36.5z" />
<glyph unicode="&#None;" horiz-adv-x="515" d="M59 550h177q77 0 132 -35q55 -35 83.5 -97.5q28.5 -62.5 28.5 -143.5q0 -80 -28.5 -142q-28.5 -62 -83.5 -97q-55 -35 -131 -35h-178zM236 460h-73v-370h73q66 0 102 51q36 51 36 133q0 85 -35 135.5t-103 50.5z" />
<glyph unicode="&#None;" horiz-adv-x="421" d="M59 550h322v-90h-218v-134h212v-90h-212v-146h218v-90l-322 0z" />
<glyph unicode="&#None;" horiz-adv-x="413" d="M59 550h322v-90h-218v-134h212v-90h-212v-236l-104 0z" />
<glyph unicode="&#None;" horiz-adv-x="514" d="M272 562q64 0 109.5 -32.5q45.5 -32.5 73.5 -86.5l-83 -39q-36 67 -100 67q-60 0 -95 -53q-35 -53 -35 -143q0 -89 35 -142.5q35 -53.5 95 -53.5q46 0 76.5 38q30.5 38 36.5 94l-128 0v85h232q0 -142 -57 -225q-57 -83 -164 -83q-69 0 -121.5 36q-52.5 36 -81.5 101.5q-29 65.5 -29 149.5q0 85 29 150q29 65 82.5 101t124.5 36z" />
<glyph unicode="&#None;" horiz-adv-x="506" d="M272 562q64 0 109.5 -32.5q45.5 -32.5 73.5 -86.5l-83 -39q-37 67 -100 67q-60 0 -95 -53q-35 -53 -35 -143q0 -89 35.5 -142.5q35.5 -53.5 96.5 -53.5q28 0 51 10.5q23 10.5 37 26.5l0 95h-105v86h204v-223q-78 -86 -189 -86q-71 0 -124.5 36q-53.5 36 -82.5 101q-29 65 -29 150q0 85 29 150q29 65 82.5 101t124.5 36z" />
<glyph unicode="&#None;" horiz-adv-x="530" d="M367 237h-204v-237h-104v550h104v-223h204v223h103v-550l-103 0z" />
<glyph unicode="&#None;" horiz-adv-x="222" d="M59 550h104v-550l-104 0z" />
<glyph unicode="&#None;" horiz-adv-x="363" d="M43 117q31 -38 77 -38q37 0 58.5 21.5q21.5 21.5 21.5 60.5v389h104v-399q0 -82 -47 -122.5q-47 -40.5 -128 -40.5q-74 0 -123 50z" />
<glyph unicode="&#None;" horiz-adv-x="475" d="M201 221l-38 -57v-164h-104v550h104v-250l171 250h120l-189 -260l203 -290l-121 0z" />
<glyph unicode="&#None;" horiz-adv-x="388" d="M59 550h104v-460h198v-90l-302 0z" />
<glyph unicode="&#None;" horiz-adv-x="630" d="M471 369l-134 -369h-44l-133 369v-369h-101v550h132l124 -342l124 342h132v-550l-100 0z" />
<glyph unicode="&#None;" horiz-adv-x="525" d="M160 365v-365h-101v550h109l197 -354v354h101v-550l-103 0z" />
<glyph unicode="&#None;" horiz-adv-x="537" d="M268 562q73 0 125.5 -37.5q52.5 -37.5 80 -102.5q27.5 -65 27.5 -147q0 -82 -27.5 -147q-27.5 -65 -80 -102.5q-52.5 -37.5 -125.5 -37.5q-73 0 -125 37.5q-52 37.5 -79.5 102.5q-27.5 65 -27.5 147q0 82 27.5 147q27.5 65 79.5 102.5q52 37.5 125 37.5zt0 0zM268 471q-61 0 -94 -55q-33 -55 -33 -141q0 -85 33 -140.5q33 -55.5 94 -55.5q60 0 93.5 55.5q33.5 55.5 33.5 140.5q0 86 -33.5 141t-93.5 55z" />
<glyph unicode="&#None;" horiz-adv-x="452" d="M59 550h201q81 0 125.5 -49.5q44.5 -49.5 44.5 -123.5q0 -76 -44 -125.5q-44 -49.5 -126 -49.5h-97v-202h-104zM249 460h-86v-168h86q36 0 55.5 23.5q19.5 23.5 19.5 60.5q0 37 -19.5 60.5t-55.5 23.5z" />
<glyph unicode="&#None;" horiz-adv-x="537" d="M431 60l33 -52l-68 -41l-27 44q-46 -23 -101 -23q-73 0 -125 37.5q-52 37.5 -79.5 102.5q-27.5 65 -27.5 147q0 82 27.5 147q27.5 65 79.5 102.5q52 37.5 125 37.5q73 0 125.5 -37.5q52.5 -37.5 80 -102.5q27.5 -65 27.5 -147q0 -66 -18 -121q-18 -55 -52 -94zt0 0zM318 91l-51 81l68 41l37 -59q23 52 23 121q0 86 -33.5 141q-33.5 55 -93.5 55q-61 0 -94 -55q-33 -55 -33 -141q0 -85 33 -140.5q33 -55.5 94 -55.5q28 0 50 12z" />
<glyph unicode="&#None;" horiz-adv-x="471" d="M227 202h-64v-202h-104v550h202q79 0 124 -49q45 -49 45 -124q0 -66 -30.5 -107q-30.5 -41 -74.5 -52l112 -218h-116zM249 460h-86v-168h86q36 0 56 23.5q20 23.5 20 61.5q0 37 -20 60t-56 23z" />
<glyph unicode="&#None;" horiz-adv-x="423" d="M67 138q25 -27 61.5 -44q36.5 -17 76.5 -17q41 0 64 19.5q23 19.5 23 51.5q0 31 -23.5 48.5q-23.5 17.5 -76.5 41.5q-48 20 -78.5 38.5q-30.5 18.5 -52.5 50.5q-22 32 -22 80q0 43 22.5 78.5q22.5 35.5 63.5 56q41 20.5 94 20.5q102 0 169 -61l-45 -77q-24 24 -56.5 36.5q-32.5 12.5 -65.5 12.5q-33 0 -54.5 -17.5q-21.5 -17.5 -21.5 -46.5q0 -26 22.5 -42.5q22.5 -16.5 71.5 -37.5q50 -22 81.5 -41q31.5 -19 54.5 -52.5q23 -33.5 23 -84.5q0 -73 -50.5 -118q-50.5 -45 -140.5 -45q-114 0 -187 71z" />
<glyph unicode="&#None;" horiz-adv-x="387" d="M142 460h-123v90h349v-90h-123v-460l-103 0z" />
<glyph unicode="&#None;" horiz-adv-x="525" d="M59 550h104v-356q0 -55 25.5 -85q25.5 -30 74.5 -30q48 0 73.5 30q25.5 30 25.5 85v356h104v-342q0 -107 -52 -163.5q-52 -56.5 -151 -56.5q-100 0 -152 56.5q-52 56.5 -52 163.5z" />
<glyph unicode="&#None;" horiz-adv-x="467" d="M1 550h112l120 -422l121 422h111l-171 -550l-121 0z" />
<glyph unicode="&#None;" horiz-adv-x="649" d="M324 373l-80 -373h-107l-132 550h111l80 -387l87 387h83l87 -388l81 388h110l-133 -550l-106 0z" />
<glyph unicode="&#None;" horiz-adv-x="469" d="M234 204l-115 -204h-118l168 281l-159 269h118l106 -191l106 191h118l-158 -268l168 -282l-118 0z" />
<glyph unicode="&#None;" horiz-adv-x="458" d="M178 230l-179 320h114l117 -225l115 225h114l-178 -320v-230l-103 0z" />
<glyph unicode="&#None;" horiz-adv-x="415" d="M31 78l217 382h-217v90h346v-76l-216 -383h223v-91l-353 0z" />
<glyph unicode="&#193;" horiz-adv-x="536" d="M382 132h-229l-36 -132h-115l199 667h133l199 -667h-115zM176 230h184l-92 338zM232 723l110 144h92l-134 -144z" />
<glyph unicode="&#258;" horiz-adv-x="536" d="M382 132h-229l-36 -132h-115l199 667h133l199 -667h-115zM176 230h184l-92 338zM119 793l47 38q17 -25 44 -39q27 -14 58 -14q31 0 58 14q27 14 44 39l47 -38q-26 -35 -65 -55q-39 -20 -84 -20q-44 0 -83 20t-66 55z" />
<glyph unicode="&#194;" horiz-adv-x="536" d="M382 132h-229l-36 -132h-115l199 667h133l199 -667h-115zM176 230h184l-92 338zM268 820l-64 -97h-60l79 144h91l81 -144l-60 0z" />
<glyph unicode="&#196;" horiz-adv-x="536" d="M382 132h-229l-36 -132h-115l199 667h133l199 -667h-115zM176 230h184l-92 338zM122 789q0 23 16.5 39.5q16.5 16.5 39.5 16.5q23 0 39.5 -16.5q16.5 -16.5 16.5 -39.5q0 -23 -16.5 -39.5q-16.5 -16.5 -39.5 -16.5q-23 0 -39.5 16.5q-16.5 16.5 -16.5 39.5zt0 0zM303 789q0 23 16.5 39.5q16.5 16.5 39.5 16.5q23 0 40 -16.5q17 -16.5 17 -39.5q0 -23 -17 -39.5q-17 -16.5 -40 -16.5q-23 0 -39.5 16.5t-16.5 39.5z" />
<glyph unicode="&#192;" horiz-adv-x="536" d="M382 132h-229l-36 -132h-115l199 667h133l199 -667h-115zM176 230h184l-92 338zM101 867h93l109 -144l-68 0z" />
<glyph unicode="&#256;" horiz-adv-x="536" d="M382 132h-229l-36 -132h-115l199 667h133l199 -667h-115zM176 230h184l-92 338zM134 794h269v-60l-269 0z" />
<glyph unicode="&#260;" horiz-adv-x="536" d="M427 -83q0 -15 10.5 -23.5q10.5 -8.5 24.5 -8.5q16 0 30 7l24 -61q-28 -17 -78 -17q-42 0 -69.5 20q-27.5 20 -27.5 57q0 34 27 62q27 28 71 47l-21 0l-36 132h-229l-36 -132h-115l199 667h133l199 -667h-17q-89 -34 -89 -83zt0 0zM360 230l-92 338l-92 -338z" />
<glyph unicode="&#197;" horiz-adv-x="536" d="M382 132h-229l-36 -132h-115l199 667h133l199 -667h-115zM176 230h184l-92 338zM269 894q39 0 66.5 -28q27.5 -28 27.5 -66q0 -39 -27.5 -67q-27.5 -28 -66.5 -28q-38 0 -66 28q-28 28 -28 67q0 38 28 66q28 28 66 28zt0 0zM269 847q-19 0 -33 -14q-14 -14 -14 -33q0 -19 14 -33.5q14 -14.5 33 -14.5q20 0 33.5 14q13.5 14 13.5 34q0 20 -13.5 33.5t-33.5 13.5z" />
<glyph unicode="&#506;" horiz-adv-x="536" d="M382 132h-229l-36 -132h-115l199 667h133l199 -667h-115zM176 230h184l-92 338zM269 894q39 0 66.5 -28q27.5 -28 27.5 -66q0 -39 -27.5 -67q-27.5 -28 -66.5 -28q-38 0 -66 28q-28 28 -28 67q0 38 28 66q28 28 66 28zt0 0zM269 847q-19 0 -33 -14q-14 -14 -14 -33q0 -19 14 -33.5q14 -14.5 33 -14.5q20 0 33.5 14q13.5 14 13.5 34q0 20 -13.5 33.5q-13.5 13.5 -33.5 13.5zt0 0zM232 925l110 144h92l-134 -144z" />
<glyph unicode="&#195;" horiz-adv-x="536" d="M382 132h-229l-36 -132h-115l199 667h133l199 -667h-115zM176 230h184l-92 338zM216 802q-15 0 -24.5 -19q-9.5 -19 -9.5 -56l-54 0q0 61 24 97.5q24 36.5 68 36.5q23 0 37.5 -12.5q14.5 -12.5 29.5 -36.5q10 -16 18 -23.5q8 -7.5 18 -7.5q14 0 23.5 18.5q9.5 18.5 9.5 55.5l54 0q0 -61 -23.5 -97.5q-23.5 -36.5 -67.5 -36.5q-23 0 -38 13q-15 13 -30 36q-11 17 -18 24.5t-17 7.5z" />
<glyph unicode="&#7840;" horiz-adv-x="536" d="M382 132h-229l-36 -132h-115l199 667h133l199 -667h-115zM176 230h184l-92 338zM269 -63q23 0 39.5 -16.5q16.5 -16.5 16.5 -39.5q0 -24 -16.5 -40.5q-16.5 -16.5 -39.5 -16.5q-23 0 -40 16.5q-17 16.5 -17 40.5q0 23 17 39.5t40 16.5z" />
<glyph unicode="&#7842;" horiz-adv-x="536" d="M382 132h-229l-36 -132h-115l199 667h133l199 -667h-115zM176 230h184l-92 338zM265 883q39 0 63 -21.5q24 -21.5 24 -65.5q0 -20 -6 -37q-6 -17 -17 -35l-57 0q26 33 26 70q0 21 -9 31q-9 10 -24 10q-29 0 -39 -33l-52 12q10 32 33.5 50.5t57.5 18.5z" />
<glyph unicode="&#7844;" horiz-adv-x="536" d="M370 780l110 108h92l-134 -108zM268 778l-64 -73h-60l79 108h91l81 -108h-60zM382 132h-229l-36 -132h-115l199 667h133l199 -667h-115zM176 230h184l-92 338z" />
<glyph unicode="&#7852;" horiz-adv-x="536" d="M382 132h-229l-36 -132h-115l199 667h133l199 -667h-115zM176 230h184l-92 338zM268 820l-64 -97h-60l79 144h91l81 -144h-60zM269 -63q23 0 39.5 -16.5q16.5 -16.5 16.5 -39.5q0 -24 -16.5 -40.5q-16.5 -16.5 -39.5 -16.5q-23 0 -40 16.5q-17 16.5 -17 40.5q0 23 17 39.5t40 16.5z" />
<glyph unicode="&#7846;" horiz-adv-x="536" d="M-31 888h93l109 -108h-68zM268 778l-64 -73h-60l79 108h91l81 -108h-60zM382 132h-229l-36 -132h-115l199 667h133l199 -667h-115zM176 230h184l-92 338z" />
<glyph unicode="&#7848;" horiz-adv-x="536" d="M363 899q39 0 63 -16q24 -16 24 -49q0 -28 -23 -54l-57 0q26 25 26 52q0 16 -9 23.5q-9 7.5 -24 7.5q-29 0 -39 -25l-52 9q10 24 33.5 38q23.5 14 57.5 14zt0 0zM268 778l-64 -73h-60l79 108h91l81 -108h-60zM382 132h-229l-36 -132h-115l199 667h133l199 -667h-115zM176 230h184l-92 338z" />
<glyph unicode="&#7854;" horiz-adv-x="536" d="M232 795l110 108h92l-134 -108zM119 760l47 30q17 -20 44 -30.5q27 -10.5 58 -10.5q31 0 58 10.5q27 10.5 44 30.5l47 -30q-26 -27 -65 -42q-39 -15 -84 -15q-44 0 -83 15q-39 15 -66 42zt0 0zM382 132h-229l-36 -132h-115l199 667h133l199 -667h-115zM176 230h184l-92 338z" />
<glyph unicode="&#7850;" horiz-adv-x="536" d="M216 885q-15 0 -24.5 -14q-9.5 -14 -9.5 -42l-54 0q0 46 24 73.5q24 27.5 68 27.5q23 0 37 -9.5q14 -9.5 30 -27.5q10 -12 18 -17.5q8 -5.5 18 -5.5q15 0 24 13.5q9 13.5 9 41.5l54 0q0 -46 -23.5 -73q-23.5 -27 -67.5 -27q-23 0 -38 9.5q-15 9.5 -30 26.5q-11 13 -18 18.5q-7 5.5 -17 5.5zt0 0zM268 778l-64 -73h-60l79 108h91l81 -108h-60zM382 132h-229l-36 -132h-115l199 667h133l199 -667h-115zM176 230h184l-92 338z" />
<glyph unicode="&#7856;" horiz-adv-x="536" d="M101 901h93l109 -108h-68zM119 758l47 28q17 -19 44 -29.5q27 -10.5 58 -10.5q31 0 58 10.5q27 10.5 44 29.5l47 -28q-26 -27 -65 -42q-39 -15 -84 -15q-44 0 -83 15q-39 15 -66 42zt0 0zM382 132h-229l-36 -132h-115l199 667h133l199 -667h-115zM176 230h184l-92 338z" />
<glyph unicode="&#7858;" horiz-adv-x="536" d="M265 913q39 0 63 -16q24 -16 24 -49q0 -28 -23 -54l-57 0q26 25 26 52q0 16 -9 23.5q-9 7.5 -24 7.5q-29 0 -39 -25l-52 9q10 24 33.5 38q23.5 14 57.5 14zt0 0zM119 758l47 28q17 -19 44 -29.5q27 -10.5 58 -10.5q31 0 58 10.5q27 10.5 44 29.5l47 -28q-26 -27 -65 -42q-39 -15 -84 -15q-44 0 -83 15q-39 15 -66 42zt0 0zM382 132h-229l-36 -132h-115l199 667h133l199 -667h-115zM176 230h184l-92 338z" />
<glyph unicode="&#7860;" horiz-adv-x="536" d="M216 852q-15 0 -24.5 -14q-9.5 -14 -9.5 -42l-54 0q0 46 24 73.5q24 27.5 68 27.5q23 0 37 -9.5q14 -9.5 30 -27.5q10 -12 18 -17.5q8 -5.5 18 -5.5q15 0 24 13.5q9 13.5 9 41.5l54 0q0 -46 -23.5 -73q-23.5 -27 -67.5 -27q-23 0 -38 9.5q-15 9.5 -30 26.5q-11 13 -18 18.5q-7 5.5 -17 5.5zt0 0zM119 758l47 28q17 -19 44 -29.5q27 -10.5 58 -10.5q31 0 58 10.5q27 10.5 44 29.5l47 -28q-26 -27 -65 -42q-39 -15 -84 -15q-44 0 -83 15q-39 15 -66 42zt0 0zM382 132h-229l-36 -132h-115l199 667h133l199 -667h-115zM176 230h184l-92 338z" />
<glyph unicode="&#7862;" horiz-adv-x="536" d="M382 132h-229l-36 -132h-115l199 667h133l199 -667h-115zM176 230h184l-92 338zM119 793l47 38q17 -25 44 -39q27 -14 58 -14q31 0 58 14q27 14 44 39l47 -38q-26 -35 -65 -55q-39 -20 -84 -20q-44 0 -83 20q-39 20 -66 55zt0 0zM269 -63q23 0 39.5 -16.5q16.5 -16.5 16.5 -39.5q0 -24 -16.5 -40.5q-16.5 -16.5 -39.5 -16.5q-23 0 -40 16.5q-17 16.5 -17 40.5q0 23 17 39.5t40 16.5z" />
<glyph unicode="&#198;" horiz-adv-x="772" d="M365 132h-188l-59 -132h-114l315 667h411v-97h-254v-181h247v-98h-247v-193h254v-98h-365zM218 230h147l0 339z" />
<glyph unicode="&#508;" horiz-adv-x="772" d="M365 132h-188l-59 -132h-114l315 667h411v-97h-254v-181h247v-98h-247v-193h254v-98h-365zM218 230h147v339zM381 723l110 144h92l-134 -144z" />
<glyph unicode="&#7682;" horiz-adv-x="540" d="M64 667h252q82 0 127 -48q45 -48 45 -122q0 -61 -29.5 -100.5q-29.5 -39.5 -75.5 -52.5q49 -7 82.5 -54.5q33.5 -47.5 33.5 -109.5q0 -81 -45 -130.5q-45 -49.5 -130 -49.5h-260zM292 389q41 0 61.5 24.5q20.5 24.5 20.5 65.5q0 41 -21 66q-21 25 -61 25h-117v-181zM296 98q44 0 66.5 25.5q22.5 25.5 22.5 71.5q0 42 -23 69q-23 27 -66 27h-121v-193zM268 845q23 0 39.5 -17q16.5 -17 16.5 -40q0 -23 -16.5 -39.5q-16.5 -16.5 -39.5 -16.5q-23 0 -40 16.5q-17 16.5 -17 39.5q0 23 17 40t40 17z" />
<glyph unicode="&#262;" horiz-adv-x="547" d="M39 333q0 100 33 178.5q33 78.5 94 122.5q61 44 142 44q82 0 132.5 -40.5q50.5 -40.5 81.5 -106.5l-92 -41q-18 42 -49 66q-31 24 -73 24q-47 0 -82 -31.5q-35 -31.5 -54.5 -88q-19.5 -56.5 -19.5 -127.5q0 -71 19.5 -127q19.5 -56 54.5 -87.5q35 -31.5 82 -31.5q44 0 75 26.5q31 26.5 48 71.5l92 -41q-68 -156 -215 -156q-81 0 -142 44q-61 44 -94 122.5q-33 78.5 -33 178.5zt0 0zM272 723l110 144h92l-134 -144z" />
<glyph unicode="&#199;" horiz-adv-x="547" d="M330 -11l-17 -43q14 11 32 11q26 0 44 -19q18 -19 18 -47q0 -38 -29 -61.5q-29 -23.5 -72 -23.5q-27 0 -52.5 9q-25.5 9 -41.5 22l21 44q34 -28 71 -28q21 0 35.5 10q14.5 10 14.5 29q0 12 -8 20q-8 8 -22 8q-18 0 -30 -14l-39 22l23 62q-72 8 -126.5 53.5q-54.5 45.5 -83.5 120.5q-29 75 -29 169q0 100 33 178.5q33 78.5 94 122.5q61 44 142 44q82 0 132.5 -40.5q50.5 -40.5 81.5 -106.5l-92 -41q-18 42 -49 66q-31 24 -73 24q-47 0 -82 -31.5q-35 -31.5 -54.5 -88q-19.5 -56.5 -19.5 -127.5q0 -71 19.5 -127q19.5 -56 54.5 -87.5q35 -31.5 82 -31.5q44 0 75 26.5q31 26.5 48 71.5l92 -41q-63 -144 -193 -155z" />
<glyph unicode="&#264;" horiz-adv-x="547" d="M39 333q0 100 33 178.5q33 78.5 94 122.5q61 44 142 44q82 0 132.5 -40.5q50.5 -40.5 81.5 -106.5l-92 -41q-18 42 -49 66q-31 24 -73 24q-47 0 -82 -31.5q-35 -31.5 -54.5 -88q-19.5 -56.5 -19.5 -127.5q0 -71 19.5 -127q19.5 -56 54.5 -87.5q35 -31.5 82 -31.5q44 0 75 26.5q31 26.5 48 71.5l92 -41q-68 -156 -215 -156q-81 0 -142 44q-61 44 -94 122.5q-33 78.5 -33 178.5zt0 0zM308 820l-64 -97h-60l79 144h91l81 -144l-60 0z" />
<glyph unicode="&#266;" horiz-adv-x="547" d="M39 333q0 100 33 178.5q33 78.5 94 122.5q61 44 142 44q82 0 132.5 -40.5q50.5 -40.5 81.5 -106.5l-92 -41q-18 42 -49 66q-31 24 -73 24q-47 0 -82 -31.5q-35 -31.5 -54.5 -88q-19.5 -56.5 -19.5 -127.5q0 -71 19.5 -127q19.5 -56 54.5 -87.5q35 -31.5 82 -31.5q44 0 75 26.5q31 26.5 48 71.5l92 -41q-68 -156 -215 -156q-81 0 -142 44q-61 44 -94 122.5q-33 78.5 -33 178.5zt0 0zM309 845q23 0 39.5 -17q16.5 -17 16.5 -40q0 -23 -16.5 -39.5q-16.5 -16.5 -39.5 -16.5q-23 0 -40 16.5q-17 16.5 -17 39.5q0 23 17 40t40 17z" />
<glyph unicode="&#268;" horiz-adv-x="547" d="M39 333q0 100 33 178.5q33 78.5 94 122.5q61 44 142 44q82 0 132.5 -40.5q50.5 -40.5 81.5 -106.5l-92 -41q-18 42 -49 66q-31 24 -73 24q-47 0 -82 -31.5q-35 -31.5 -54.5 -88q-19.5 -56.5 -19.5 -127.5q0 -71 19.5 -127q19.5 -56 54.5 -87.5q35 -31.5 82 -31.5q44 0 75 26.5q31 26.5 48 71.5l92 -41q-68 -156 -215 -156q-81 0 -142 44q-61 44 -94 122.5q-33 78.5 -33 178.5zt0 0zM181 867h60l67 -97l64 97h60l-78 -144l-91 0z" />
<glyph unicode="&#270;" horiz-adv-x="583" d="M64 667h199q88 0 151.5 -42.5q63.5 -42.5 96.5 -118q33 -75.5 33 -173.5q0 -98 -33 -173q-33 -75 -96.5 -117.5q-63.5 -42.5 -151.5 -42.5h-199zM263 98q80 0 123.5 64.5q43.5 64.5 43.5 170.5q0 108 -43 172.5q-43 64.5 -124 64.5h-88v-472zM164 867h60l67 -97l64 97h60l-78 -144l-91 0z" />
<glyph unicode="&#272;" horiz-adv-x="606" d="M567 333q0 -98 -33 -173q-33 -75 -96 -117.5q-63 -42.5 -151 -42.5h-199v288h-74v81h74v298h198q88 0 151.5 -42.5q63.5 -42.5 96.5 -118q33 -75.5 33 -173.5zt0 0zM454 333q0 108 -43.5 172.5q-43.5 64.5 -124.5 64.5h-88v-201h116v-81h-116v-190h88q80 0 124 64.5t44 170.5z" />
<glyph unicode="&#7690;" horiz-adv-x="583" d="M64 667h199q88 0 151.5 -42.5q63.5 -42.5 96.5 -118q33 -75.5 33 -173.5q0 -98 -33 -173q-33 -75 -96.5 -117.5q-63.5 -42.5 -151.5 -42.5h-199zM263 98q80 0 123.5 64.5q43.5 64.5 43.5 170.5q0 108 -43 172.5q-43 64.5 -124 64.5h-88v-472zM292 845q23 0 39.5 -17q16.5 -17 16.5 -40q0 -23 -16.5 -39.5q-16.5 -16.5 -39.5 -16.5q-23 0 -40 16.5q-17 16.5 -17 39.5q0 23 17 40t40 17z" />
<glyph unicode="&#201;" horiz-adv-x="472" d="M64 667h365v-97h-254v-181h247v-98h-247v-193h254v-98h-365zM216 723l110 144h92l-134 -144z" />
<glyph unicode="&#276;" horiz-adv-x="472" d="M64 667h365v-97h-254v-181h247v-98h-247v-193h254v-98h-365zM103 793l47 38q17 -25 44 -39q27 -14 58 -14q31 0 58 14q27 14 44 39l47 -38q-26 -35 -65 -55q-39 -20 -84 -20q-44 0 -83 20t-66 55z" />
<glyph unicode="&#202;" horiz-adv-x="472" d="M64 667h365v-97h-254v-181h247v-98h-247v-193h254v-98h-365zM252 820l-64 -97h-60l79 144h91l81 -144l-60 0z" />
<glyph unicode="&#203;" horiz-adv-x="472" d="M64 667h365v-97h-254v-181h247v-98h-247v-193h254v-98h-365zM106 789q0 23 16.5 39.5q16.5 16.5 39.5 16.5q23 0 39.5 -16.5q16.5 -16.5 16.5 -39.5q0 -23 -16.5 -39.5q-16.5 -16.5 -39.5 -16.5q-23 0 -39.5 16.5q-16.5 16.5 -16.5 39.5zt0 0zM287 789q0 23 16.5 39.5q16.5 16.5 39.5 16.5q23 0 40 -16.5q17 -16.5 17 -39.5q0 -23 -17 -39.5q-17 -16.5 -40 -16.5q-23 0 -39.5 16.5t-16.5 39.5z" />
<glyph unicode="&#278;" horiz-adv-x="472" d="M64 667h365v-97h-254v-181h247v-98h-247v-193h254v-98h-365zM253 845q23 0 39.5 -17q16.5 -17 16.5 -40q0 -23 -16.5 -39.5q-16.5 -16.5 -39.5 -16.5q-23 0 -40 16.5q-17 16.5 -17 39.5q0 23 17 40t40 17z" />
<glyph unicode="&#200;" horiz-adv-x="472" d="M64 667h365v-97h-254v-181h247v-98h-247v-193h254v-98h-365zM85 867h93l109 -144l-68 0z" />
<glyph unicode="&#274;" horiz-adv-x="472" d="M64 667h365v-97h-254v-181h247v-98h-247v-193h254v-98h-365zM118 794h269v-60l-269 0z" />
<glyph unicode="&#280;" horiz-adv-x="472" d="M406 -108l24 -61q-28 -17 -78 -17q-42 0 -69.5 20q-27.5 20 -27.5 57q0 34 27 62q27 28 71 47l-289 0v667h365v-97h-254v-181h247v-98h-247v-193h254v-98h1q-89 -34 -89 -83q0 -15 10.5 -23.5q10.5 -8.5 24.5 -8.5q16 0 30 7z" />
<glyph unicode="&#282;" horiz-adv-x="472" d="M64 667h365v-97h-254v-181h247v-98h-247v-193h254v-98h-365zM125 867h60l67 -97l64 97h60l-78 -144l-91 0z" />
<glyph unicode="&#7864;" horiz-adv-x="472" d="M64 667h365v-97h-254v-181h247v-98h-247v-193h254v-98h-365zM253 -63q23 0 39.5 -16.5q16.5 -16.5 16.5 -39.5q0 -24 -16.5 -40.5q-16.5 -16.5 -39.5 -16.5q-23 0 -40 16.5q-17 16.5 -17 40.5q0 23 17 39.5t40 16.5z" />
<glyph unicode="&#7866;" horiz-adv-x="472" d="M64 667h365v-97h-254v-181h247v-98h-247v-193h254v-98h-365zM249 883q39 0 63 -21.5q24 -21.5 24 -65.5q0 -20 -6 -37q-6 -17 -17 -35l-57 0q26 33 26 70q0 21 -9 31q-9 10 -24 10q-29 0 -39 -33l-52 12q10 32 33.5 50.5t57.5 18.5z" />
<glyph unicode="&#7868;" horiz-adv-x="472" d="M64 667h365v-97h-254v-181h247v-98h-247v-193h254v-98h-365zM200 802q-15 0 -24.5 -19q-9.5 -19 -9.5 -56l-54 0q0 61 24 97.5q24 36.5 68 36.5q23 0 37.5 -12.5q14.5 -12.5 29.5 -36.5q10 -16 18 -23.5q8 -7.5 18 -7.5q14 0 23.5 18.5q9.5 18.5 9.5 55.5l54 0q0 -61 -23.5 -97.5q-23.5 -36.5 -67.5 -36.5q-23 0 -38 13q-15 13 -30 36q-11 17 -18 24.5t-17 7.5z" />
<glyph unicode="&#7870;" horiz-adv-x="472" d="M354 780l110 108h92l-134 -108zM252 778l-64 -73h-60l79 108h91l81 -108h-60zM64 667h365v-97h-254v-181h247v-98h-247v-193h254v-98l-365 0z" />
<glyph unicode="&#7872;" horiz-adv-x="472" d="M-47 888h93l109 -108h-68zM252 778l-64 -73h-60l79 108h91l81 -108h-60zM64 667h365v-97h-254v-181h247v-98h-247v-193h254v-98l-365 0z" />
<glyph unicode="&#7874;" horiz-adv-x="472" d="M347 899q39 0 63 -16q24 -16 24 -49q0 -28 -23 -54l-57 0q26 25 26 52q0 16 -9 23.5q-9 7.5 -24 7.5q-29 0 -39 -25l-52 9q10 24 33.5 38q23.5 14 57.5 14zt0 0zM252 778l-64 -73h-60l79 108h91l81 -108h-60zM64 667h365v-97h-254v-181h247v-98h-247v-193h254v-98l-365 0z" />
<glyph unicode="&#7876;" horiz-adv-x="472" d="M200 885q-15 0 -24.5 -14q-9.5 -14 -9.5 -42l-54 0q0 46 24 73.5q24 27.5 68 27.5q23 0 37 -9.5q14 -9.5 30 -27.5q10 -12 18 -17.5q8 -5.5 18 -5.5q15 0 24 13.5q9 13.5 9 41.5l54 0q0 -46 -23.5 -73q-23.5 -27 -67.5 -27q-23 0 -38 9.5q-15 9.5 -30 26.5q-11 13 -18 18.5q-7 5.5 -17 5.5zt0 0zM252 778l-64 -73h-60l79 108h91l81 -108h-60zM64 667h365v-97h-254v-181h247v-98h-247v-193h254v-98l-365 0z" />
<glyph unicode="&#7878;" horiz-adv-x="472" d="M64 667h365v-97h-254v-181h247v-98h-247v-193h254v-98h-365zM252 820l-64 -97h-60l79 144h91l81 -144h-60zM253 -63q23 0 39.5 -16.5q16.5 -16.5 16.5 -39.5q0 -24 -16.5 -40.5q-16.5 -16.5 -39.5 -16.5q-23 0 -40 16.5q-17 16.5 -17 40.5q0 23 17 39.5t40 16.5z" />
<glyph unicode="&#7710;" horiz-adv-x="464" d="M64 667h365v-97h-254v-181h247v-98h-247v-291h-111zM254 845q23 0 39.5 -17q16.5 -17 16.5 -40q0 -23 -16.5 -39.5q-16.5 -16.5 -39.5 -16.5q-23 0 -40 16.5q-17 16.5 -17 39.5q0 23 17 40t40 17z" />
<glyph unicode="&#284;" horiz-adv-x="590" d="M311 678q76 0 128.5 -39q52.5 -39 83.5 -103l-90 -42q-19 39 -50 62.5q-31 23.5 -72 23.5q-47 0 -83 -30q-36 -30 -56 -86q-20 -56 -20 -131q0 -75 20 -130.5q20 -55.5 56 -86q36 -30.5 83 -30.5q60 0 94 49q34 49 42 123l-165 0v98h279q0 -175 -65 -272q-65 -97 -192 -97q-78 0 -138 43.5q-60 43.5 -93.5 122q-33.5 78.5 -33.5 180.5q0 103 34 181q34 78 95.5 121q61.5 43 142.5 43zt0 0zM311 820l-64 -97h-60l79 144h91l81 -144l-60 0z" />
<glyph unicode="&#286;" horiz-adv-x="590" d="M311 678q76 0 128.5 -39q52.5 -39 83.5 -103l-90 -42q-19 39 -50 62.5q-31 23.5 -72 23.5q-47 0 -83 -30q-36 -30 -56 -86q-20 -56 -20 -131q0 -75 20 -130.5q20 -55.5 56 -86q36 -30.5 83 -30.5q60 0 94 49q34 49 42 123l-165 0v98h279q0 -175 -65 -272q-65 -97 -192 -97q-78 0 -138 43.5q-60 43.5 -93.5 122q-33.5 78.5 -33.5 180.5q0 103 34 181q34 78 95.5 121q61.5 43 142.5 43zt0 0zM162 793l47 38q17 -25 44 -39q27 -14 58 -14q31 0 58 14q27 14 44 39l47 -38q-26 -35 -65 -55q-39 -20 -84 -20q-44 0 -83 20t-66 55z" />
<glyph unicode="&#288;" horiz-adv-x="590" d="M311 678q76 0 128.5 -39q52.5 -39 83.5 -103l-90 -42q-19 39 -50 62.5q-31 23.5 -72 23.5q-47 0 -83 -30q-36 -30 -56 -86q-20 -56 -20 -131q0 -75 20 -130.5q20 -55.5 56 -86q36 -30.5 83 -30.5q60 0 94 49q34 49 42 123l-165 0v98h279q0 -175 -65 -272q-65 -97 -192 -97q-78 0 -138 43.5q-60 43.5 -93.5 122q-33.5 78.5 -33.5 180.5q0 103 34 181q34 78 95.5 121q61.5 43 142.5 43zt0 0zM312 845q23 0 39.5 -17q16.5 -17 16.5 -40q0 -23 -16.5 -39.5q-16.5 -16.5 -39.5 -16.5q-23 0 -40 16.5q-17 16.5 -17 39.5q0 23 17 40t40 17z" />
<glyph unicode="&#290;" horiz-adv-x="590" d="M311 678q76 0 128.5 -39q52.5 -39 83.5 -103l-90 -42q-19 39 -50 62.5q-31 23.5 -72 23.5q-47 0 -83 -30q-36 -30 -56 -86q-20 -56 -20 -131q0 -75 20 -130.5q20 -55.5 56 -86q36 -30.5 83 -30.5q60 0 94 49q34 49 42 123l-165 0v98h279q0 -175 -65 -272q-65 -97 -192 -97q-78 0 -138 43.5q-60 43.5 -93.5 122q-33.5 78.5 -33.5 180.5q0 103 34 181q34 78 95.5 121q61.5 43 142.5 43zt0 0zM258 -250q22 14 39.5 37.5q17.5 23.5 21.5 45.5q-3 -1 -13 -1q-20 0 -33.5 13.5q-13.5 13.5 -13.5 35.5q0 23 15.5 38.5q15.5 15.5 37.5 15.5q25 0 43 -19.5q18 -19.5 18 -53.5q0 -42 -21.5 -79.5q-21.5 -37.5 -55.5 -62.5z" />
<glyph unicode="&#486;" horiz-adv-x="590" d="M311 678q76 0 128.5 -39q52.5 -39 83.5 -103l-90 -42q-19 39 -50 62.5q-31 23.5 -72 23.5q-47 0 -83 -30q-36 -30 -56 -86q-20 -56 -20 -131q0 -75 20 -130.5q20 -55.5 56 -86q36 -30.5 83 -30.5q60 0 94 49q34 49 42 123l-165 0v98h279q0 -175 -65 -272q-65 -97 -192 -97q-78 0 -138 43.5q-60 43.5 -93.5 122q-33.5 78.5 -33.5 180.5q0 103 34 181q34 78 95.5 121q61.5 43 142.5 43zt0 0zM184 867h60l67 -97l64 97h60l-78 -144l-91 0z" />
<glyph unicode="&#None;" horiz-adv-x="576" d="M311 678q76 0 128.5 -39q52.5 -39 83.5 -103l-90 -42q-19 39 -50 62.5q-31 23.5 -72 23.5q-47 0 -83 -30q-36 -30 -56 -86q-20 -56 -20 -131q0 -75 20 -130.5q20 -55.5 56 -86q36 -30.5 83 -30.5q35 0 64 13.5q29 13.5 47 34.5l0 124h-140v97h245v-265q-87 -103 -216 -103q-81 0 -142.5 43.5q-61.5 43.5 -95.5 122q-34 78.5 -34 180.5q0 103 34 181q34 78 95.5 121q61.5 43 142.5 43zt0 0zM311 820l-64 -97h-60l79 144h91l81 -144l-60 0z" />
<glyph unicode="&#None;" horiz-adv-x="576" d="M311 678q76 0 128.5 -39q52.5 -39 83.5 -103l-90 -42q-19 39 -50 62.5q-31 23.5 -72 23.5q-47 0 -83 -30q-36 -30 -56 -86q-20 -56 -20 -131q0 -75 20 -130.5q20 -55.5 56 -86q36 -30.5 83 -30.5q35 0 64 13.5q29 13.5 47 34.5l0 124h-140v97h245v-265q-87 -103 -216 -103q-81 0 -142.5 43.5q-61.5 43.5 -95.5 122q-34 78.5 -34 180.5q0 103 34 181q34 78 95.5 121q61.5 43 142.5 43zt0 0zM162 793l47 38q17 -25 44 -39q27 -14 58 -14q31 0 58 14q27 14 44 39l47 -38q-26 -35 -65 -55q-39 -20 -84 -20q-44 0 -83 20t-66 55z" />
<glyph unicode="&#None;" horiz-adv-x="576" d="M311 678q76 0 128.5 -39q52.5 -39 83.5 -103l-90 -42q-19 39 -50 62.5q-31 23.5 -72 23.5q-47 0 -83 -30q-36 -30 -56 -86q-20 -56 -20 -131q0 -75 20 -130.5q20 -55.5 56 -86q36 -30.5 83 -30.5q35 0 64 13.5q29 13.5 47 34.5l0 124h-140v97h245v-265q-87 -103 -216 -103q-81 0 -142.5 43.5q-61.5 43.5 -95.5 122q-34 78.5 -34 180.5q0 103 34 181q34 78 95.5 121q61.5 43 142.5 43zt0 0zM312 845q23 0 39.5 -17q16.5 -17 16.5 -40q0 -23 -16.5 -39.5q-16.5 -16.5 -39.5 -16.5q-23 0 -40 16.5q-17 16.5 -17 39.5q0 23 17 40t40 17z" />
<glyph unicode="&#None;" horiz-adv-x="576" d="M311 678q76 0 128.5 -39q52.5 -39 83.5 -103l-90 -42q-19 39 -50 62.5q-31 23.5 -72 23.5q-47 0 -83 -30q-36 -30 -56 -86q-20 -56 -20 -131q0 -75 20 -130.5q20 -55.5 56 -86q36 -30.5 83 -30.5q35 0 64 13.5q29 13.5 47 34.5l0 124h-140v97h245v-265q-87 -103 -216 -103q-81 0 -142.5 43.5q-61.5 43.5 -95.5 122q-34 78.5 -34 180.5q0 103 34 181q34 78 95.5 121q61.5 43 142.5 43zt0 0zM258 -250q22 14 39.5 37.5q17.5 23.5 21.5 45.5q-3 -1 -13 -1q-20 0 -33.5 13.5q-13.5 13.5 -13.5 35.5q0 23 15.5 38.5q15.5 15.5 37.5 15.5q25 0 43 -19.5q18 -19.5 18 -53.5q0 -42 -21.5 -79.5q-21.5 -37.5 -55.5 -62.5z" />
<glyph unicode="&#None;" horiz-adv-x="576" d="M311 678q76 0 128.5 -39q52.5 -39 83.5 -103l-90 -42q-19 39 -50 62.5q-31 23.5 -72 23.5q-47 0 -83 -30q-36 -30 -56 -86q-20 -56 -20 -131q0 -75 20 -130.5q20 -55.5 56 -86q36 -30.5 83 -30.5q35 0 64 13.5q29 13.5 47 34.5l0 124h-140v97h245v-265q-87 -103 -216 -103q-81 0 -142.5 43.5q-61.5 43.5 -95.5 122q-34 78.5 -34 180.5q0 103 34 181q34 78 95.5 121q61.5 43 142.5 43zt0 0zM184 867h60l67 -97l64 97h60l-78 -144l-91 0z" />
<glyph unicode="&#294;" horiz-adv-x="620" d="M606 499h-63v-499h-111v294h-244v-294h-110v499h-64v59h64v109h110v-109h244v109h111v-109h63zM432 499h-244v-107l244 0z" />
<glyph unicode="&#292;" horiz-adv-x="593" d="M419 294h-244v-294h-111v667h111v-275h244v275h111v-667h-111zM297 820l-64 -97h-60l79 144h91l81 -144l-60 0z" />
<glyph unicode="&#7714;" horiz-adv-x="593" d="M419 294h-244v-294h-111v667h111v-275h244v275h111v-667h-111zM298 845q23 0 39.5 -17q16.5 -17 16.5 -40q0 -23 -16.5 -39.5q-16.5 -16.5 -39.5 -16.5q-23 0 -40 16.5q-17 16.5 -17 39.5q0 23 17 40t40 17z" />
<glyph unicode="&#205;" horiz-adv-x="239" d="M64 667h111v-667h-111zM84 723l110 144h92l-134 -144z" />
<glyph unicode="&#300;" horiz-adv-x="239" d="M64 667h111v-667h-111zM-29 793l47 38q17 -25 44 -39q27 -14 58 -14q31 0 58 14q27 14 44 39l47 -38q-26 -35 -65 -55q-39 -20 -84 -20q-44 0 -83 20t-66 55z" />
<glyph unicode="&#206;" horiz-adv-x="239" d="M64 667h111v-667h-111zM120 820l-64 -97h-60l79 144h91l81 -144l-60 0z" />
<glyph unicode="&#207;" horiz-adv-x="239" d="M64 667h111v-667h-111zM-27 789q0 23 16.5 39.5q16.5 16.5 39.5 16.5q23 0 39.5 -16.5q16.5 -16.5 16.5 -39.5q0 -23 -16.5 -39.5q-16.5 -16.5 -39.5 -16.5q-23 0 -39.5 16.5q-16.5 16.5 -16.5 39.5zt0 0zM154 789q0 23 16.5 39.5q16.5 16.5 39.5 16.5q23 0 40 -16.5q17 -16.5 17 -39.5q0 -23 -17 -39.5q-17 -16.5 -40 -16.5q-23 0 -39.5 16.5t-16.5 39.5z" />
<glyph unicode="&#304;" horiz-adv-x="239" d="M64 667h111v-667h-111zM121 845q23 0 39.5 -17q16.5 -17 16.5 -40q0 -23 -16.5 -39.5q-16.5 -16.5 -39.5 -16.5q-23 0 -40 16.5q-17 16.5 -17 39.5q0 23 17 40t40 17z" />
<glyph unicode="&#204;" horiz-adv-x="239" d="M64 667h111v-667h-111zM-48 867h93l109 -144l-68 0z" />
<glyph unicode="&#298;" horiz-adv-x="239" d="M64 667h111v-667h-111zM-15 794h269v-60l-269 0z" />
<glyph unicode="&#302;" horiz-adv-x="239" d="M86 -83q0 -15 10.5 -23.5q10.5 -8.5 24.5 -8.5q16 0 30 7l24 -61q-28 -17 -78 -17q-42 0 -69.5 20q-27.5 20 -27.5 57q0 34 27 62q27 28 71 47l-34 0v667h111v-667q-89 -34 -89 -83z" />
<glyph unicode="&#296;" horiz-adv-x="239" d="M64 667h111v-667h-111zM67 802q-15 0 -24.5 -19q-9.5 -19 -9.5 -56l-54 0q0 61 24 97.5q24 36.5 68 36.5q23 0 37.5 -12.5q14.5 -12.5 29.5 -36.5q10 -16 18 -23.5q8 -7.5 18 -7.5q14 0 23.5 18.5q9.5 18.5 9.5 55.5l54 0q0 -61 -23.5 -97.5q-23.5 -36.5 -67.5 -36.5q-23 0 -38 13q-15 13 -30 36q-11 17 -18 24.5t-17 7.5z" />
<glyph unicode="&#7880;" horiz-adv-x="239" d="M64 667h111v-667h-111zM117 883q39 0 63 -21.5q24 -21.5 24 -65.5q0 -20 -6 -37q-6 -17 -17 -35l-57 0q26 33 26 70q0 21 -9 31q-9 10 -24 10q-29 0 -39 -33l-52 12q10 32 33.5 50.5t57.5 18.5z" />
<glyph unicode="&#7882;" horiz-adv-x="239" d="M64 667h111v-667h-111zM121 -63q23 0 39.5 -16.5q16.5 -16.5 16.5 -39.5q0 -24 -16.5 -40.5q-16.5 -16.5 -39.5 -16.5q-23 0 -40 16.5q-17 16.5 -17 40.5q0 23 17 39.5t40 16.5z" />
<glyph unicode="&#306;" horiz-adv-x="648" d="M64 667h111v-667h-111zM290 130q38 -43 89 -43q45 0 70 26q25 26 25 74v480h111v-483q0 -98 -53 -147q-53 -49 -143 -49q-87 0 -142 55z" />
<glyph unicode="&#None;" horiz-adv-x="648" d="M64 667h111v-667h-111zM84 723l110 144h92l-134 -144zM290 130q38 -43 89 -43q45 0 70 26q25 26 25 74v480h111v-483q0 -98 -53 -147q-53 -49 -143 -49q-87 0 -142 55zM494 723l110 144h92l-134 -144z" />
<glyph unicode="&#308;" horiz-adv-x="409" d="M51 130q38 -43 89 -43q45 0 70 26q25 26 25 74v480h111v-483q0 -98 -53 -147q-53 -49 -143 -49q-87 0 -142 55zM291 820l-64 -97h-60l79 144h91l81 -144l-60 0z" />
<glyph unicode="&#310;" horiz-adv-x="535" d="M225 275l-50 -76v-199h-111v667h111v-321l207 321h130l-218 -315l234 -352h-131zM221 -250q22 14 39.5 37.5q17.5 23.5 21.5 45.5q-3 -1 -13 -1q-20 0 -33.5 13.5q-13.5 13.5 -13.5 35.5q0 23 15.5 38.5q15.5 15.5 37.5 15.5q25 0 43 -19.5q18 -19.5 18 -53.5q0 -42 -21.5 -79.5q-21.5 -37.5 -55.5 -62.5z" />
<glyph unicode="&#313;" horiz-adv-x="434" d="M64 667h111v-569h231v-98h-342zM200 723l110 144h92l-134 -144z" />
<glyph unicode="&#317;" horiz-adv-x="434" d="M64 667h111v-569h231v-98h-342zM243 495q22 14 39.5 37.5q17.5 23.5 21.5 45.5q-3 -1 -13 -1q-20 0 -33.5 13.5q-13.5 13.5 -13.5 35.5q0 23 15.5 38.5q15.5 15.5 37.5 15.5q25 0 43 -19.5q18 -19.5 18 -53.5q0 -42 -21.5 -79.5q-21.5 -37.5 -55.5 -62.5z" />
<glyph unicode="&#315;" horiz-adv-x="434" d="M64 667h111v-569h231v-98h-342zM183 -250q22 14 39.5 37.5q17.5 23.5 21.5 45.5q-3 -1 -13 -1q-20 0 -33.5 13.5q-13.5 13.5 -13.5 35.5q0 23 15.5 38.5q15.5 15.5 37.5 15.5q25 0 43 -19.5q18 -19.5 18 -53.5q0 -42 -21.5 -79.5q-21.5 -37.5 -55.5 -62.5z" />
<glyph unicode="&#319;" horiz-adv-x="459" d="M64 667h111v-569h231v-98h-342zM281 342q0 27 19.5 47q19.5 20 47.5 20q28 0 47.5 -20q19.5 -20 19.5 -47q0 -27 -19.5 -47q-19.5 -20 -47.5 -20q-28 0 -47.5 20t-19.5 47z" />
<glyph unicode="&#321;" horiz-adv-x="448" d="M420 98v-98h-342v255l-64 -37v92l64 37v320h111v-255l71 41v-93l-71 -41l0 -221z" />
<glyph unicode="&#323;" horiz-adv-x="592" d="M175 461v-461h-111v667h112l241 -444v444h111v-667h-106zM260 723l110 144h92l-134 -144z" />
<glyph unicode="&#327;" horiz-adv-x="592" d="M175 461v-461h-111v667h112l241 -444v444h111v-667h-106zM169 867h60l67 -97l64 97h60l-78 -144l-91 0z" />
<glyph unicode="&#325;" horiz-adv-x="592" d="M175 461v-461h-111v667h112l241 -444v444h111v-667h-106zM249 -250q22 14 39.5 37.5q17.5 23.5 21.5 45.5q-3 -1 -13 -1q-20 0 -33.5 13.5q-13.5 13.5 -13.5 35.5q0 23 15.5 38.5q15.5 15.5 37.5 15.5q25 0 43 -19.5q18 -19.5 18 -53.5q0 -42 -21.5 -79.5q-21.5 -37.5 -55.5 -62.5z" />
<glyph unicode="&#209;" horiz-adv-x="592" d="M175 461v-461h-111v667h112l241 -444v444h111v-667h-106zM244 802q-15 0 -24.5 -19q-9.5 -19 -9.5 -56l-54 0q0 61 24 97.5q24 36.5 68 36.5q23 0 37.5 -12.5q14.5 -12.5 29.5 -36.5q10 -16 18 -23.5q8 -7.5 18 -7.5q14 0 23.5 18.5q9.5 18.5 9.5 55.5l54 0q0 -61 -23.5 -97.5q-23.5 -36.5 -67.5 -36.5q-23 0 -38 13q-15 13 -30 36q-11 17 -18 24.5t-17 7.5z" />
<glyph unicode="&#413;" horiz-adv-x="592" d="M528 667v-667h-106l-247 461v-462q0 -97 -53.5 -146q-53.5 -49 -142.5 -49q-30 0 -55 7l12 96q15 -5 33 -5q45 0 70 26.5q25 26.5 25 74.5v664h112l241 -444l0 444z" />
<glyph unicode="&#330;" horiz-adv-x="592" d="M528 667v-668q0 -98 -52.5 -146.5q-52.5 -48.5 -142.5 -48.5q-89 0 -143 55l43 86q39 -44 90 -44q44 0 69 26q25 26 25 74v3l-242 457v-461h-111v667h112l241 -444l0 444z" />
<glyph unicode="&#211;" horiz-adv-x="612" d="M306 678q82 0 142.5 -45q60.5 -45 92.5 -123q32 -78 32 -177q0 -99 -32 -177q-32 -78 -92.5 -123q-60.5 -45 -142.5 -45q-82 0 -142.5 45q-60.5 45 -92.5 123q-32 78 -32 177q0 99 32 177q32 78 92.5 123q60.5 45 142.5 45zt0 0zM306 580q-73 0 -113.5 -69q-40.5 -69 -40.5 -178q0 -108 40.5 -177q40.5 -69 113.5 -69q72 0 113 69.5q41 69.5 41 176.5q0 108 -41 177.5q-41 69.5 -113 69.5zt0 0zM269 723l110 144h92l-134 -144z" />
<glyph unicode="&#334;" horiz-adv-x="612" d="M306 678q82 0 142.5 -45q60.5 -45 92.5 -123q32 -78 32 -177q0 -99 -32 -177q-32 -78 -92.5 -123q-60.5 -45 -142.5 -45q-82 0 -142.5 45q-60.5 45 -92.5 123q-32 78 -32 177q0 99 32 177q32 78 92.5 123q60.5 45 142.5 45zt0 0zM306 580q-73 0 -113.5 -69q-40.5 -69 -40.5 -178q0 -108 40.5 -177q40.5 -69 113.5 -69q72 0 113 69.5q41 69.5 41 176.5q0 108 -41 177.5q-41 69.5 -113 69.5zt0 0zM156 793l47 38q17 -25 44 -39q27 -14 58 -14q31 0 58 14q27 14 44 39l47 -38q-26 -35 -65 -55q-39 -20 -84 -20q-44 0 -83 20t-66 55z" />
<glyph unicode="&#212;" horiz-adv-x="612" d="M306 678q82 0 142.5 -45q60.5 -45 92.5 -123q32 -78 32 -177q0 -99 -32 -177q-32 -78 -92.5 -123q-60.5 -45 -142.5 -45q-82 0 -142.5 45q-60.5 45 -92.5 123q-32 78 -32 177q0 99 32 177q32 78 92.5 123q60.5 45 142.5 45zt0 0zM306 580q-73 0 -113.5 -69q-40.5 -69 -40.5 -178q0 -108 40.5 -177q40.5 -69 113.5 -69q72 0 113 69.5q41 69.5 41 176.5q0 108 -41 177.5q-41 69.5 -113 69.5zt0 0zM305 820l-64 -97h-60l79 144h91l81 -144l-60 0z" />
<glyph unicode="&#214;" horiz-adv-x="612" d="M306 678q82 0 142.5 -45q60.5 -45 92.5 -123q32 -78 32 -177q0 -99 -32 -177q-32 -78 -92.5 -123q-60.5 -45 -142.5 -45q-82 0 -142.5 45q-60.5 45 -92.5 123q-32 78 -32 177q0 99 32 177q32 78 92.5 123q60.5 45 142.5 45zt0 0zM306 580q-73 0 -113.5 -69q-40.5 -69 -40.5 -178q0 -108 40.5 -177q40.5 -69 113.5 -69q72 0 113 69.5q41 69.5 41 176.5q0 108 -41 177.5q-41 69.5 -113 69.5zt0 0zM159 789q0 23 16.5 39.5q16.5 16.5 39.5 16.5q23 0 39.5 -16.5q16.5 -16.5 16.5 -39.5q0 -23 -16.5 -39.5q-16.5 -16.5 -39.5 -16.5q-23 0 -39.5 16.5q-16.5 16.5 -16.5 39.5zt0 0zM340 789q0 23 16.5 39.5q16.5 16.5 39.5 16.5q23 0 40 -16.5q17 -16.5 17 -39.5q0 -23 -17 -39.5q-17 -16.5 -40 -16.5q-23 0 -39.5 16.5t-16.5 39.5z" />
<glyph unicode="&#210;" horiz-adv-x="612" d="M306 678q82 0 142.5 -45q60.5 -45 92.5 -123q32 -78 32 -177q0 -99 -32 -177q-32 -78 -92.5 -123q-60.5 -45 -142.5 -45q-82 0 -142.5 45q-60.5 45 -92.5 123q-32 78 -32 177q0 99 32 177q32 78 92.5 123q60.5 45 142.5 45zt0 0zM306 580q-73 0 -113.5 -69q-40.5 -69 -40.5 -178q0 -108 40.5 -177q40.5 -69 113.5 -69q72 0 113 69.5q41 69.5 41 176.5q0 108 -41 177.5q-41 69.5 -113 69.5zt0 0zM138 867h93l109 -144l-68 0z" />
<glyph unicode="&#336;" horiz-adv-x="612" d="M306 678q82 0 142.5 -45q60.5 -45 92.5 -123q32 -78 32 -177q0 -99 -32 -177q-32 -78 -92.5 -123q-60.5 -45 -142.5 -45q-82 0 -142.5 45q-60.5 45 -92.5 123q-32 78 -32 177q0 99 32 177q32 78 92.5 123q60.5 45 142.5 45zt0 0zM306 580q-73 0 -113.5 -69q-40.5 -69 -40.5 -178q0 -108 40.5 -177q40.5 -69 113.5 -69q72 0 113 69.5q41 69.5 41 176.5q0 108 -41 177.5q-41 69.5 -113 69.5zt0 0zM207 723l73 144h81l-97 -144zM342 723l72 144h81l-97 -144z" />
<glyph unicode="&#332;" horiz-adv-x="612" d="M306 678q82 0 142.5 -45q60.5 -45 92.5 -123q32 -78 32 -177q0 -99 -32 -177q-32 -78 -92.5 -123q-60.5 -45 -142.5 -45q-82 0 -142.5 45q-60.5 45 -92.5 123q-32 78 -32 177q0 99 32 177q32 78 92.5 123q60.5 45 142.5 45zt0 0zM306 580q-73 0 -113.5 -69q-40.5 -69 -40.5 -178q0 -108 40.5 -177q40.5 -69 113.5 -69q72 0 113 69.5q41 69.5 41 176.5q0 108 -41 177.5q-41 69.5 -113 69.5zt0 0zM171 794h269v-60l-269 0z" />
<glyph unicode="&#216;" horiz-adv-x="612" d="M573 333q0 -99 -32 -177q-32 -78 -92.5 -123q-60.5 -45 -142.5 -45q-81 0 -142 44l-19 -32h-76l46 79q-37 47 -56.5 112.5q-19.5 65.5 -19.5 141.5q0 99 32 177q32 78 92.5 123q60.5 45 142.5 45q78 0 138 -41l18 30h75l-44 -75q39 -47 59.5 -113.5q20.5 -66.5 20.5 -145.5zt0 0zM178 185l213 361q-36 34 -85 34q-73 0 -113.5 -69q-40.5 -69 -40.5 -178q0 -85 26 -148zt0 0zM460 333q0 90 -29 154l-213 -363q35 -37 88 -37q72 0 113 69.5t41 176.5z" />
<glyph unicode="&#510;" horiz-adv-x="612" d="M573 333q0 -99 -32 -177q-32 -78 -92.5 -123q-60.5 -45 -142.5 -45q-81 0 -142 44l-19 -32h-76l46 79q-37 47 -56.5 112.5q-19.5 65.5 -19.5 141.5q0 99 32 177q32 78 92.5 123q60.5 45 142.5 45q78 0 138 -41l18 30h75l-44 -75q39 -47 59.5 -113.5q20.5 -66.5 20.5 -145.5zt0 0zM178 185l213 361q-36 34 -85 34q-73 0 -113.5 -69q-40.5 -69 -40.5 -178q0 -85 26 -148zt0 0zM460 333q0 90 -29 154l-213 -363q35 -37 88 -37q72 0 113 69.5q41 69.5 41 176.5zt0 0zM269 723l110 144h92l-134 -144z" />
<glyph unicode="&#213;" horiz-adv-x="612" d="M306 678q82 0 142.5 -45q60.5 -45 92.5 -123q32 -78 32 -177q0 -99 -32 -177q-32 -78 -92.5 -123q-60.5 -45 -142.5 -45q-82 0 -142.5 45q-60.5 45 -92.5 123q-32 78 -32 177q0 99 32 177q32 78 92.5 123q60.5 45 142.5 45zt0 0zM306 580q-73 0 -113.5 -69q-40.5 -69 -40.5 -178q0 -108 40.5 -177q40.5 -69 113.5 -69q72 0 113 69.5q41 69.5 41 176.5q0 108 -41 177.5q-41 69.5 -113 69.5zt0 0zM253 802q-15 0 -24.5 -19q-9.5 -19 -9.5 -56l-54 0q0 61 24 97.5q24 36.5 68 36.5q23 0 37.5 -12.5q14.5 -12.5 29.5 -36.5q10 -16 18 -23.5q8 -7.5 18 -7.5q14 0 23.5 18.5q9.5 18.5 9.5 55.5l54 0q0 -61 -23.5 -97.5q-23.5 -36.5 -67.5 -36.5q-23 0 -38 13q-15 13 -30 36q-11 17 -18 24.5t-17 7.5z" />
<glyph unicode="&#490;" horiz-adv-x="612" d="M292 -83q0 -15 10.5 -23.5q10.5 -8.5 24.5 -8.5q16 0 30 7l24 -61q-28 -17 -78 -17q-42 0 -69.5 20q-27.5 20 -27.5 57q0 29 20.5 54q20.5 25 55.5 44q-75 7 -130 53q-55 46 -84 122q-29 76 -29 169q0 99 32 177q32 78 92.5 123q60.5 45 142.5 45q82 0 142.5 -45q60.5 -45 92.5 -123q32 -78 32 -177q0 -129 -53.5 -221q-53.5 -92 -148.5 -116q-79 -32 -79 -79zt0 0zM306 87q72 0 113 69.5q41 69.5 41 176.5q0 108 -41 177.5q-41 69.5 -113 69.5q-73 0 -113.5 -69q-40.5 -69 -40.5 -178q0 -108 40.5 -177t113.5 -69z" />
<glyph unicode="&#7884;" horiz-adv-x="612" d="M306 678q82 0 142.5 -45q60.5 -45 92.5 -123q32 -78 32 -177q0 -99 -32 -177q-32 -78 -92.5 -123q-60.5 -45 -142.5 -45q-82 0 -142.5 45q-60.5 45 -92.5 123q-32 78 -32 177q0 99 32 177q32 78 92.5 123q60.5 45 142.5 45zt0 0zM306 580q-73 0 -113.5 -69q-40.5 -69 -40.5 -178q0 -108 40.5 -177q40.5 -69 113.5 -69q72 0 113 69.5q41 69.5 41 176.5q0 108 -41 177.5q-41 69.5 -113 69.5zt0 0zM306 -63q23 0 39.5 -16.5q16.5 -16.5 16.5 -39.5q0 -24 -16.5 -40.5q-16.5 -16.5 -39.5 -16.5q-23 0 -40 16.5q-17 16.5 -17 40.5q0 23 17 39.5t40 16.5z" />
<glyph unicode="&#7886;" horiz-adv-x="612" d="M306 678q82 0 142.5 -45q60.5 -45 92.5 -123q32 -78 32 -177q0 -99 -32 -177q-32 -78 -92.5 -123q-60.5 -45 -142.5 -45q-82 0 -142.5 45q-60.5 45 -92.5 123q-32 78 -32 177q0 99 32 177q32 78 92.5 123q60.5 45 142.5 45zt0 0zM306 580q-73 0 -113.5 -69q-40.5 -69 -40.5 -178q0 -108 40.5 -177q40.5 -69 113.5 -69q72 0 113 69.5q41 69.5 41 176.5q0 108 -41 177.5q-41 69.5 -113 69.5zt0 0zM302 883q39 0 63 -21.5q24 -21.5 24 -65.5q0 -20 -6 -37q-6 -17 -17 -35l-57 0q26 33 26 70q0 21 -9 31q-9 10 -24 10q-29 0 -39 -33l-52 12q10 32 33.5 50.5t57.5 18.5z" />
<glyph unicode="&#7888;" horiz-adv-x="612" d="M407 780l110 108h92l-134 -108zM305 778l-64 -73h-60l79 108h91l81 -108h-60zM306 678q82 0 142.5 -45q60.5 -45 92.5 -123q32 -78 32 -177q0 -99 -32 -177q-32 -78 -92.5 -123q-60.5 -45 -142.5 -45q-82 0 -142.5 45q-60.5 45 -92.5 123q-32 78 -32 177q0 99 32 177q32 78 92.5 123q60.5 45 142.5 45zt0 0zM306 580q-73 0 -113.5 -69q-40.5 -69 -40.5 -178q0 -108 40.5 -177q40.5 -69 113.5 -69q72 0 113 69.5q41 69.5 41 176.5q0 108 -41 177.5t-113 69.5z" />
<glyph unicode="&#7890;" horiz-adv-x="612" d="M6 888h93l109 -108h-68zM305 778l-64 -73h-60l79 108h91l81 -108h-60zM306 678q82 0 142.5 -45q60.5 -45 92.5 -123q32 -78 32 -177q0 -99 -32 -177q-32 -78 -92.5 -123q-60.5 -45 -142.5 -45q-82 0 -142.5 45q-60.5 45 -92.5 123q-32 78 -32 177q0 99 32 177q32 78 92.5 123q60.5 45 142.5 45zt0 0zM306 580q-73 0 -113.5 -69q-40.5 -69 -40.5 -178q0 -108 40.5 -177q40.5 -69 113.5 -69q72 0 113 69.5q41 69.5 41 176.5q0 108 -41 177.5t-113 69.5z" />
<glyph unicode="&#7892;" horiz-adv-x="612" d="M400 899q39 0 63 -16q24 -16 24 -49q0 -28 -23 -54l-57 0q26 25 26 52q0 16 -9 23.5q-9 7.5 -24 7.5q-29 0 -39 -25l-52 9q10 24 33.5 38q23.5 14 57.5 14zt0 0zM305 778l-64 -73h-60l79 108h91l81 -108h-60zM306 678q82 0 142.5 -45q60.5 -45 92.5 -123q32 -78 32 -177q0 -99 -32 -177q-32 -78 -92.5 -123q-60.5 -45 -142.5 -45q-82 0 -142.5 45q-60.5 45 -92.5 123q-32 78 -32 177q0 99 32 177q32 78 92.5 123q60.5 45 142.5 45zt0 0zM306 580q-73 0 -113.5 -69q-40.5 -69 -40.5 -178q0 -108 40.5 -177q40.5 -69 113.5 -69q72 0 113 69.5q41 69.5 41 176.5q0 108 -41 177.5t-113 69.5z" />
<glyph unicode="&#7894;" horiz-adv-x="612" d="M253 885q-15 0 -24.5 -14q-9.5 -14 -9.5 -42l-54 0q0 46 24 73.5q24 27.5 68 27.5q23 0 37 -9.5q14 -9.5 30 -27.5q10 -12 18 -17.5q8 -5.5 18 -5.5q15 0 24 13.5q9 13.5 9 41.5l54 0q0 -46 -23.5 -73q-23.5 -27 -67.5 -27q-23 0 -38 9.5q-15 9.5 -30 26.5q-11 13 -18 18.5q-7 5.5 -17 5.5zt0 0zM305 778l-64 -73h-60l79 108h91l81 -108h-60zM306 678q82 0 142.5 -45q60.5 -45 92.5 -123q32 -78 32 -177q0 -99 -32 -177q-32 -78 -92.5 -123q-60.5 -45 -142.5 -45q-82 0 -142.5 45q-60.5 45 -92.5 123q-32 78 -32 177q0 99 32 177q32 78 92.5 123q60.5 45 142.5 45zt0 0zM306 580q-73 0 -113.5 -69q-40.5 -69 -40.5 -178q0 -108 40.5 -177q40.5 -69 113.5 -69q72 0 113 69.5q41 69.5 41 176.5q0 108 -41 177.5t-113 69.5z" />
<glyph unicode="&#7896;" horiz-adv-x="612" d="M306 678q82 0 142.5 -45q60.5 -45 92.5 -123q32 -78 32 -177q0 -99 -32 -177q-32 -78 -92.5 -123q-60.5 -45 -142.5 -45q-82 0 -142.5 45q-60.5 45 -92.5 123q-32 78 -32 177q0 99 32 177q32 78 92.5 123q60.5 45 142.5 45zt0 0zM306 580q-73 0 -113.5 -69q-40.5 -69 -40.5 -178q0 -108 40.5 -177q40.5 -69 113.5 -69q72 0 113 69.5q41 69.5 41 176.5q0 108 -41 177.5q-41 69.5 -113 69.5zt0 0zM305 820l-64 -97h-60l79 144h91l81 -144h-60zM306 -63q23 0 39.5 -16.5q16.5 -16.5 16.5 -39.5q0 -24 -16.5 -40.5q-16.5 -16.5 -39.5 -16.5q-23 0 -40 16.5q-17 16.5 -17 40.5q0 23 17 39.5t40 16.5z" />
<glyph unicode="&#416;" horiz-adv-x="612" d="M529 536q44 -85 44 -203q0 -99 -32 -177q-32 -78 -92.5 -123q-60.5 -45 -142.5 -45q-82 0 -142.5 45q-60.5 45 -92.5 123q-32 78 -32 177q0 99 32 177q32 78 92.5 123q60.5 45 142.5 45q64 0 115 -27.5q51 -27.5 86 -77.5q16 15 27 33q11 18 13 34q-2 -2 -12 -2q-19 0 -31 13q-12 13 -12 33q0 20 14 34.5q14 14.5 35 14.5q23 0 39 -18.5q16 -18.5 16 -49.5q0 -37 -18.5 -71.5q-18.5 -34.5 -48.5 -57.5zt0 0zM460 333q0 108 -41 177.5q-41 69.5 -113 69.5q-73 0 -113.5 -69q-40.5 -69 -40.5 -178q0 -108 40.5 -177q40.5 -69 113.5 -69q72 0 113 69.5t41 176.5z" />
<glyph unicode="&#7898;" horiz-adv-x="612" d="M529 536q44 -85 44 -203q0 -99 -32 -177q-32 -78 -92.5 -123q-60.5 -45 -142.5 -45q-82 0 -142.5 45q-60.5 45 -92.5 123q-32 78 -32 177q0 99 32 177q32 78 92.5 123q60.5 45 142.5 45q64 0 115 -27.5q51 -27.5 86 -77.5q16 15 27 33q11 18 13 34q-2 -2 -12 -2q-19 0 -31 13q-12 13 -12 33q0 20 14 34.5q14 14.5 35 14.5q23 0 39 -18.5q16 -18.5 16 -49.5q0 -37 -18.5 -71.5q-18.5 -34.5 -48.5 -57.5zt0 0zM460 333q0 108 -41 177.5q-41 69.5 -113 69.5q-73 0 -113.5 -69q-40.5 -69 -40.5 -178q0 -108 40.5 -177q40.5 -69 113.5 -69q72 0 113 69.5q41 69.5 41 176.5zt0 0zM269 723l110 144h92l-134 -144z" />
<glyph unicode="&#7900;" horiz-adv-x="612" d="M529 536q44 -85 44 -203q0 -99 -32 -177q-32 -78 -92.5 -123q-60.5 -45 -142.5 -45q-82 0 -142.5 45q-60.5 45 -92.5 123q-32 78 -32 177q0 99 32 177q32 78 92.5 123q60.5 45 142.5 45q64 0 115 -27.5q51 -27.5 86 -77.5q16 15 27 33q11 18 13 34q-2 -2 -12 -2q-19 0 -31 13q-12 13 -12 33q0 20 14 34.5q14 14.5 35 14.5q23 0 39 -18.5q16 -18.5 16 -49.5q0 -37 -18.5 -71.5q-18.5 -34.5 -48.5 -57.5zt0 0zM460 333q0 108 -41 177.5q-41 69.5 -113 69.5q-73 0 -113.5 -69q-40.5 -69 -40.5 -178q0 -108 40.5 -177q40.5 -69 113.5 -69q72 0 113 69.5q41 69.5 41 176.5zt0 0zM138 867h93l109 -144l-68 0z" />
<glyph unicode="&#7902;" horiz-adv-x="612" d="M529 536q44 -85 44 -203q0 -99 -32 -177q-32 -78 -92.5 -123q-60.5 -45 -142.5 -45q-82 0 -142.5 45q-60.5 45 -92.5 123q-32 78 -32 177q0 99 32 177q32 78 92.5 123q60.5 45 142.5 45q64 0 115 -27.5q51 -27.5 86 -77.5q16 15 27 33q11 18 13 34q-2 -2 -12 -2q-19 0 -31 13q-12 13 -12 33q0 20 14 34.5q14 14.5 35 14.5q23 0 39 -18.5q16 -18.5 16 -49.5q0 -37 -18.5 -71.5q-18.5 -34.5 -48.5 -57.5zt0 0zM460 333q0 108 -41 177.5q-41 69.5 -113 69.5q-73 0 -113.5 -69q-40.5 -69 -40.5 -178q0 -108 40.5 -177q40.5 -69 113.5 -69q72 0 113 69.5q41 69.5 41 176.5zt0 0zM302 883q39 0 63 -21.5q24 -21.5 24 -65.5q0 -20 -6 -37q-6 -17 -17 -35l-57 0q26 33 26 70q0 21 -9 31q-9 10 -24 10q-29 0 -39 -33l-52 12q10 32 33.5 50.5t57.5 18.5z" />
<glyph unicode="&#7904;" horiz-adv-x="612" d="M529 536q44 -85 44 -203q0 -99 -32 -177q-32 -78 -92.5 -123q-60.5 -45 -142.5 -45q-82 0 -142.5 45q-60.5 45 -92.5 123q-32 78 -32 177q0 99 32 177q32 78 92.5 123q60.5 45 142.5 45q64 0 115 -27.5q51 -27.5 86 -77.5q16 15 27 33q11 18 13 34q-2 -2 -12 -2q-19 0 -31 13q-12 13 -12 33q0 20 14 34.5q14 14.5 35 14.5q23 0 39 -18.5q16 -18.5 16 -49.5q0 -37 -18.5 -71.5q-18.5 -34.5 -48.5 -57.5zt0 0zM460 333q0 108 -41 177.5q-41 69.5 -113 69.5q-73 0 -113.5 -69q-40.5 -69 -40.5 -178q0 -108 40.5 -177q40.5 -69 113.5 -69q72 0 113 69.5q41 69.5 41 176.5zt0 0zM253 802q-15 0 -24.5 -19q-9.5 -19 -9.5 -56l-54 0q0 61 24 97.5q24 36.5 68 36.5q23 0 37.5 -12.5q14.5 -12.5 29.5 -36.5q10 -16 18 -23.5q8 -7.5 18 -7.5q14 0 23.5 18.5q9.5 18.5 9.5 55.5l54 0q0 -61 -23.5 -97.5q-23.5 -36.5 -67.5 -36.5q-23 0 -38 13q-15 13 -30 36q-11 17 -18 24.5t-17 7.5z" />
<glyph unicode="&#7906;" horiz-adv-x="612" d="M529 536q44 -85 44 -203q0 -99 -32 -177q-32 -78 -92.5 -123q-60.5 -45 -142.5 -45q-82 0 -142.5 45q-60.5 45 -92.5 123q-32 78 -32 177q0 99 32 177q32 78 92.5 123q60.5 45 142.5 45q64 0 115 -27.5q51 -27.5 86 -77.5q16 15 27 33q11 18 13 34q-2 -2 -12 -2q-19 0 -31 13q-12 13 -12 33q0 20 14 34.5q14 14.5 35 14.5q23 0 39 -18.5q16 -18.5 16 -49.5q0 -37 -18.5 -71.5q-18.5 -34.5 -48.5 -57.5zt0 0zM460 333q0 108 -41 177.5q-41 69.5 -113 69.5q-73 0 -113.5 -69q-40.5 -69 -40.5 -178q0 -108 40.5 -177q40.5 -69 113.5 -69q72 0 113 69.5q41 69.5 41 176.5zt0 0zM306 -63q23 0 39.5 -16.5q16.5 -16.5 16.5 -39.5q0 -24 -16.5 -40.5q-16.5 -16.5 -39.5 -16.5q-23 0 -40 16.5q-17 16.5 -17 40.5q0 23 17 39.5t40 16.5z" />
<glyph unicode="&#338;" horiz-adv-x="855" d="M448 77q-25 -45 -68 -67q-43 -22 -89 -22q-78 0 -135 45q-57 45 -87 123q-30 78 -30 177q0 99 30 177q30 78 87 122.5q57 44.5 135 44.5q46 0 89 -21.5q43 -21.5 68 -65.5l0 77h365v-97h-254v-181h247v-98h-247v-193h254v-98h-365zM308 579q-75 0 -115.5 -68.5q-40.5 -68.5 -40.5 -177.5q0 -109 40.5 -177.5q40.5 -68.5 115.5 -68.5q48 0 84.5 31q36.5 31 55.5 88l0 254q-18 58 -55 88.5t-85 30.5z" />
<glyph unicode="&#7766;" horiz-adv-x="513" d="M64 667h227q63 0 107.5 -28q44.5 -28 67 -75q22.5 -47 22.5 -104q0 -57 -22.5 -104.5q-22.5 -47.5 -67 -75.5q-44.5 -28 -107.5 -28h-116v-252h-111zM278 570h-103v-220h103q44 0 70.5 30q26.5 30 26.5 80q0 50 -26.5 80q-26.5 30 -70.5 30zt0 0zM266 845q23 0 39.5 -17q16.5 -17 16.5 -40q0 -23 -16.5 -39.5q-16.5 -16.5 -39.5 -16.5q-23 0 -40 16.5q-17 16.5 -17 39.5q0 23 17 40t40 17z" />
<glyph unicode="&#340;" horiz-adv-x="533" d="M257 252h-82v-252h-111v667h230q57 0 101 -26q44 -26 68.5 -72.5q24.5 -46.5 24.5 -107.5q0 -81 -36 -128.5q-36 -47.5 -87 -61.5l129 -271h-124zM278 570h-103v-220h103q44 0 70.5 30q26.5 30 26.5 80q0 50 -26.5 80q-26.5 30 -70.5 30zt0 0zM229 723l110 144h92l-134 -144z" />
<glyph unicode="&#344;" horiz-adv-x="533" d="M257 252h-82v-252h-111v667h230q57 0 101 -26q44 -26 68.5 -72.5q24.5 -46.5 24.5 -107.5q0 -81 -36 -128.5q-36 -47.5 -87 -61.5l129 -271h-124zM278 570h-103v-220h103q44 0 70.5 30q26.5 30 26.5 80q0 50 -26.5 80q-26.5 30 -70.5 30zt0 0zM138 867h60l67 -97l64 97h60l-78 -144l-91 0z" />
<glyph unicode="&#342;" horiz-adv-x="533" d="M257 252h-82v-252h-111v667h230q57 0 101 -26q44 -26 68.5 -72.5q24.5 -46.5 24.5 -107.5q0 -81 -36 -128.5q-36 -47.5 -87 -61.5l129 -271h-124zM278 570h-103v-220h103q44 0 70.5 30q26.5 30 26.5 80q0 50 -26.5 80q-26.5 30 -70.5 30zt0 0zM212 -250q22 14 39.5 37.5q17.5 23.5 21.5 45.5q-3 -1 -13 -1q-20 0 -33.5 13.5q-13.5 13.5 -13.5 35.5q0 23 15.5 38.5q15.5 15.5 37.5 15.5q25 0 43 -19.5q18 -19.5 18 -53.5q0 -42 -21.5 -79.5q-21.5 -37.5 -55.5 -62.5z" />
<glyph unicode="&#346;" horiz-adv-x="486" d="M78 159q28 -32 70 -52q42 -20 89 -20q49 0 76.5 25.5q27.5 25.5 27.5 62.5q0 28 -15.5 48.5q-15.5 20.5 -39.5 34q-24 13.5 -65 32.5q-57 25 -92.5 46.5q-35.5 21.5 -61 59.5q-25.5 38 -25.5 96q0 52 25.5 94.5q25.5 42.5 72.5 67q47 24.5 109 24.5q58 0 107 -18.5q49 -18.5 85 -53.5l-54 -84q-57 57 -141 57q-41 0 -66 -22q-25 -22 -25 -59q0 -34 27.5 -55q27.5 -21 87.5 -48q58 -26 95 -49q37 -23 63 -62.5q26 -39.5 26 -99.5q0 -56 -25 -100q-25 -44 -74 -70q-49 -26 -118 -26q-135 0 -215 85zM205 723l110 144h92l-134 -144z" />
<glyph unicode="&#352;" horiz-adv-x="486" d="M78 159q28 -32 70 -52q42 -20 89 -20q49 0 76.5 25.5q27.5 25.5 27.5 62.5q0 28 -15.5 48.5q-15.5 20.5 -39.5 34q-24 13.5 -65 32.5q-57 25 -92.5 46.5q-35.5 21.5 -61 59.5q-25.5 38 -25.5 96q0 52 25.5 94.5q25.5 42.5 72.5 67q47 24.5 109 24.5q58 0 107 -18.5q49 -18.5 85 -53.5l-54 -84q-57 57 -141 57q-41 0 -66 -22q-25 -22 -25 -59q0 -34 27.5 -55q27.5 -21 87.5 -48q58 -26 95 -49q37 -23 63 -62.5q26 -39.5 26 -99.5q0 -56 -25 -100q-25 -44 -74 -70q-49 -26 -118 -26q-135 0 -215 85zM114 867h60l67 -97l64 97h60l-78 -144l-91 0z" />
<glyph unicode="&#348;" horiz-adv-x="486" d="M78 159q28 -32 70 -52q42 -20 89 -20q49 0 76.5 25.5q27.5 25.5 27.5 62.5q0 28 -15.5 48.5q-15.5 20.5 -39.5 34q-24 13.5 -65 32.5q-57 25 -92.5 46.5q-35.5 21.5 -61 59.5q-25.5 38 -25.5 96q0 52 25.5 94.5q25.5 42.5 72.5 67q47 24.5 109 24.5q58 0 107 -18.5q49 -18.5 85 -53.5l-54 -84q-57 57 -141 57q-41 0 -66 -22q-25 -22 -25 -59q0 -34 27.5 -55q27.5 -21 87.5 -48q58 -26 95 -49q37 -23 63 -62.5q26 -39.5 26 -99.5q0 -56 -25 -100q-25 -44 -74 -70q-49 -26 -118 -26q-135 0 -215 85zM241 820l-64 -97h-60l79 144h91l81 -144l-60 0z" />
<glyph unicode="&#350;" horiz-adv-x="486" d="M265 -11l-17 -43q14 11 32 11q26 0 44 -19q18 -19 18 -47q0 -38 -29 -61.5q-29 -23.5 -72 -23.5q-27 0 -52.5 9q-25.5 9 -41.5 22l21 44q34 -28 71 -28q21 0 35.5 10q14.5 10 14.5 29q0 12 -8 20q-8 8 -22 8q-18 0 -30 -14l-39 22l23 61q-117 7 -191 84l56 86q28 -32 70 -52q42 -20 89 -20q49 0 76.5 25.5q27.5 25.5 27.5 62.5q0 28 -15.5 48.5q-15.5 20.5 -39.5 34q-24 13.5 -65 32.5q-57 25 -92.5 46.5q-35.5 21.5 -61 59.5q-25.5 38 -25.5 96q0 52 25.5 94.5q25.5 42.5 72.5 67q47 24.5 109 24.5q58 0 107 -18.5q49 -18.5 85 -53.5l-54 -84q-57 57 -141 57q-41 0 -66 -22q-25 -22 -25 -59q0 -34 27.5 -55q27.5 -21 87.5 -48q58 -26 95 -49q37 -23 63 -62.5q26 -39.5 26 -99.5q0 -79 -49 -133t-140 -62z" />
<glyph unicode="&#536;" horiz-adv-x="486" d="M78 159q28 -32 70 -52q42 -20 89 -20q49 0 76.5 25.5q27.5 25.5 27.5 62.5q0 28 -15.5 48.5q-15.5 20.5 -39.5 34q-24 13.5 -65 32.5q-57 25 -92.5 46.5q-35.5 21.5 -61 59.5q-25.5 38 -25.5 96q0 52 25.5 94.5q25.5 42.5 72.5 67q47 24.5 109 24.5q58 0 107 -18.5q49 -18.5 85 -53.5l-54 -84q-57 57 -141 57q-41 0 -66 -22q-25 -22 -25 -59q0 -34 27.5 -55q27.5 -21 87.5 -48q58 -26 95 -49q37 -23 63 -62.5q26 -39.5 26 -99.5q0 -56 -25 -100q-25 -44 -74 -70q-49 -26 -118 -26q-135 0 -215 85zM188 -250q22 14 39.5 37.5q17.5 23.5 21.5 45.5q-3 -1 -13 -1q-20 0 -33.5 13.5q-13.5 13.5 -13.5 35.5q0 23 15.5 38.5q15.5 15.5 37.5 15.5q25 0 43 -19.5q18 -19.5 18 -53.5q0 -42 -21.5 -79.5q-21.5 -37.5 -55.5 -62.5z" />
<glyph unicode="&#7776;" horiz-adv-x="486" d="M78 159q28 -32 70 -52q42 -20 89 -20q49 0 76.5 25.5q27.5 25.5 27.5 62.5q0 28 -15.5 48.5q-15.5 20.5 -39.5 34q-24 13.5 -65 32.5q-57 25 -92.5 46.5q-35.5 21.5 -61 59.5q-25.5 38 -25.5 96q0 52 25.5 94.5q25.5 42.5 72.5 67q47 24.5 109 24.5q58 0 107 -18.5q49 -18.5 85 -53.5l-54 -84q-57 57 -141 57q-41 0 -66 -22q-25 -22 -25 -59q0 -34 27.5 -55q27.5 -21 87.5 -48q58 -26 95 -49q37 -23 63 -62.5q26 -39.5 26 -99.5q0 -56 -25 -100q-25 -44 -74 -70q-49 -26 -118 -26q-135 0 -215 85zM242 845q23 0 39.5 -17q16.5 -17 16.5 -40q0 -23 -16.5 -39.5q-16.5 -16.5 -39.5 -16.5q-23 0 -40 16.5q-17 16.5 -17 39.5q0 23 17 40t40 17z" />
<glyph unicode="&#7838;" horiz-adv-x="569" d="M544 198q0 -60 -26 -108q-26 -48 -73 -75q-47 -27 -108 -27q-83 0 -131 41l49 86q38 -29 82 -29q44 0 69.5 29.5q25.5 29.5 25.5 82.5q0 110 -139 110h-40v96l117 154q-29 22 -74 22q-58 0 -89.5 -35q-31.5 -35 -31.5 -102v-443h-111v443q0 112 61.5 173.5q61.5 61.5 170.5 61.5q66 0 119.5 -25.5q53.5 -25.5 82.5 -83.5l-130 -172q78 -9 127 -60.5t49 -138.5z" />
<glyph unicode="&#358;" horiz-adv-x="462" d="M286 570v-231h106v-59h-106v-280h-110v280h-107v59h107v231h-153v97h416l0 -97z" />
<glyph unicode="&#356;" horiz-adv-x="462" d="M176 570h-153v97h416v-97h-153v-570h-110zM104 867h60l67 -97l64 97h60l-78 -144l-91 0z" />
<glyph unicode="&#354;" horiz-adv-x="462" d="M176 570h-153v97h416v-97h-153v-570h-110zM178 -250q22 14 39.5 37.5q17.5 23.5 21.5 45.5q-3 -1 -13 -1q-20 0 -33.5 13.5q-13.5 13.5 -13.5 35.5q0 23 15.5 38.5q15.5 15.5 37.5 15.5q25 0 43 -19.5q18 -19.5 18 -53.5q0 -42 -21.5 -79.5q-21.5 -37.5 -55.5 -62.5z" />
<glyph unicode="&#538;" horiz-adv-x="462" d="M176 570h-153v97h416v-97h-153v-570h-110zM178 -250q22 14 39.5 37.5q17.5 23.5 21.5 45.5q-3 -1 -13 -1q-20 0 -33.5 13.5q-13.5 13.5 -13.5 35.5q0 23 15.5 38.5q15.5 15.5 37.5 15.5q25 0 43 -19.5q18 -19.5 18 -53.5q0 -42 -21.5 -79.5q-21.5 -37.5 -55.5 -62.5z" />
<glyph unicode="&#7786;" horiz-adv-x="462" d="M176 570h-153v97h416v-97h-153v-570h-110zM232 845q23 0 39.5 -17q16.5 -17 16.5 -40q0 -23 -16.5 -39.5q-16.5 -16.5 -39.5 -16.5q-23 0 -40 16.5q-17 16.5 -17 39.5q0 23 17 40t40 17z" />
<glyph unicode="&#218;" horiz-adv-x="592" d="M64 667h111v-444q0 -66 31.5 -101.5q31.5 -35.5 89.5 -35.5q58 0 89.5 35.5q31.5 35.5 31.5 101.5v444h111v-443q0 -112 -61.5 -174q-61.5 -62 -170.5 -62q-109 0 -170.5 62q-61.5 62 -61.5 174zM260 723l110 144h92l-134 -144z" />
<glyph unicode="&#364;" horiz-adv-x="592" d="M64 667h111v-444q0 -66 31.5 -101.5q31.5 -35.5 89.5 -35.5q58 0 89.5 35.5q31.5 35.5 31.5 101.5v444h111v-443q0 -112 -61.5 -174q-61.5 -62 -170.5 -62q-109 0 -170.5 62q-61.5 62 -61.5 174zM147 793l47 38q17 -25 44 -39q27 -14 58 -14q31 0 58 14q27 14 44 39l47 -38q-26 -35 -65 -55q-39 -20 -84 -20q-44 0 -83 20t-66 55z" />
<glyph unicode="&#219;" horiz-adv-x="592" d="M64 667h111v-444q0 -66 31.5 -101.5q31.5 -35.5 89.5 -35.5q58 0 89.5 35.5q31.5 35.5 31.5 101.5v444h111v-443q0 -112 -61.5 -174q-61.5 -62 -170.5 -62q-109 0 -170.5 62q-61.5 62 -61.5 174zM296 820l-64 -97h-60l79 144h91l81 -144l-60 0z" />
<glyph unicode="&#220;" horiz-adv-x="592" d="M64 667h111v-444q0 -66 31.5 -101.5q31.5 -35.5 89.5 -35.5q58 0 89.5 35.5q31.5 35.5 31.5 101.5v444h111v-443q0 -112 -61.5 -174q-61.5 -62 -170.5 -62q-109 0 -170.5 62q-61.5 62 -61.5 174zM150 789q0 23 16.5 39.5q16.5 16.5 39.5 16.5q23 0 39.5 -16.5q16.5 -16.5 16.5 -39.5q0 -23 -16.5 -39.5q-16.5 -16.5 -39.5 -16.5q-23 0 -39.5 16.5q-16.5 16.5 -16.5 39.5zt0 0zM331 789q0 23 16.5 39.5q16.5 16.5 39.5 16.5q23 0 40 -16.5q17 -16.5 17 -39.5q0 -23 -17 -39.5q-17 -16.5 -40 -16.5q-23 0 -39.5 16.5t-16.5 39.5z" />
<glyph unicode="&#217;" horiz-adv-x="592" d="M64 667h111v-444q0 -66 31.5 -101.5q31.5 -35.5 89.5 -35.5q58 0 89.5 35.5q31.5 35.5 31.5 101.5v444h111v-443q0 -112 -61.5 -174q-61.5 -62 -170.5 -62q-109 0 -170.5 62q-61.5 62 -61.5 174zM129 867h93l109 -144l-68 0z" />
<glyph unicode="&#368;" horiz-adv-x="592" d="M64 667h111v-444q0 -66 31.5 -101.5q31.5 -35.5 89.5 -35.5q58 0 89.5 35.5q31.5 35.5 31.5 101.5v444h111v-443q0 -112 -61.5 -174q-61.5 -62 -170.5 -62q-109 0 -170.5 62q-61.5 62 -61.5 174zM198 723l73 144h81l-97 -144zM333 723l72 144h81l-97 -144z" />
<glyph unicode="&#362;" horiz-adv-x="592" d="M64 667h111v-444q0 -66 31.5 -101.5q31.5 -35.5 89.5 -35.5q58 0 89.5 35.5q31.5 35.5 31.5 101.5v444h111v-443q0 -112 -61.5 -174q-61.5 -62 -170.5 -62q-109 0 -170.5 62q-61.5 62 -61.5 174zM162 794h269v-60l-269 0z" />
<glyph unicode="&#370;" horiz-adv-x="592" d="M64 667h111v-444q0 -66 31.5 -101.5q31.5 -35.5 89.5 -35.5q58 0 89.5 35.5q31.5 35.5 31.5 101.5v444h111v-443q0 -79 -31.5 -133.5q-31.5 -54.5 -89.5 -78.5q-51 -26 -74.5 -48.5q-23.5 -22.5 -23.5 -46.5q0 -15 10.5 -23.5q10.5 -8.5 24.5 -8.5q16 0 30 7l24 -61q-28 -17 -77 -17q-42 0 -69.5 20q-27.5 20 -27.5 57q0 30 20.5 55q20.5 25 55.5 42l-4 0q-109 0 -170.5 62q-61.5 62 -61.5 174z" />
<glyph unicode="&#366;" horiz-adv-x="592" d="M64 667h111v-444q0 -66 31.5 -101.5q31.5 -35.5 89.5 -35.5q58 0 89.5 35.5q31.5 35.5 31.5 101.5v444h111v-443q0 -112 -61.5 -174q-61.5 -62 -170.5 -62q-109 0 -170.5 62q-61.5 62 -61.5 174zM297 894q39 0 66.5 -28q27.5 -28 27.5 -66q0 -39 -27.5 -67q-27.5 -28 -66.5 -28q-38 0 -66 28q-28 28 -28 67q0 38 28 66q28 28 66 28zt0 0zM297 847q-19 0 -33 -14q-14 -14 -14 -33q0 -19 14 -33.5q14 -14.5 33 -14.5q20 0 33.5 14q13.5 14 13.5 34q0 20 -13.5 33.5t-33.5 13.5z" />
<glyph unicode="&#360;" horiz-adv-x="592" d="M64 667h111v-444q0 -66 31.5 -101.5q31.5 -35.5 89.5 -35.5q58 0 89.5 35.5q31.5 35.5 31.5 101.5v444h111v-443q0 -112 -61.5 -174q-61.5 -62 -170.5 -62q-109 0 -170.5 62q-61.5 62 -61.5 174zM244 802q-15 0 -24.5 -19q-9.5 -19 -9.5 -56l-54 0q0 61 24 97.5q24 36.5 68 36.5q23 0 37.5 -12.5q14.5 -12.5 29.5 -36.5q10 -16 18 -23.5q8 -7.5 18 -7.5q14 0 23.5 18.5q9.5 18.5 9.5 55.5l54 0q0 -61 -23.5 -97.5q-23.5 -36.5 -67.5 -36.5q-23 0 -38 13q-15 13 -30 36q-11 17 -18 24.5t-17 7.5z" />
<glyph unicode="&#7908;" horiz-adv-x="592" d="M64 667h111v-444q0 -66 31.5 -101.5q31.5 -35.5 89.5 -35.5q58 0 89.5 35.5q31.5 35.5 31.5 101.5v444h111v-443q0 -112 -61.5 -174q-61.5 -62 -170.5 -62q-109 0 -170.5 62q-61.5 62 -61.5 174zM297 -63q23 0 39.5 -16.5q16.5 -16.5 16.5 -39.5q0 -24 -16.5 -40.5q-16.5 -16.5 -39.5 -16.5q-23 0 -40 16.5q-17 16.5 -17 40.5q0 23 17 39.5t40 16.5z" />
<glyph unicode="&#431;" horiz-adv-x="592" d="M528 577v-353q0 -112 -61.5 -174q-61.5 -62 -170.5 -62q-109 0 -170.5 62q-61.5 62 -61.5 174v443h111v-444q0 -66 31.5 -101.5q31.5 -35.5 89.5 -35.5q58 0 89.5 35.5q31.5 35.5 31.5 101.5v444h111v-42q21 14 36.5 36q15.5 22 17.5 42q-4 -2 -12 -2q-19 0 -31 13q-12 13 -12 33q0 20 14 34q14 14 34 14q24 0 40 -18q16 -18 16 -49q0 -44 -27 -85t-76 -66z" />
<glyph unicode="&#7910;" horiz-adv-x="592" d="M64 667h111v-444q0 -66 31.5 -101.5q31.5 -35.5 89.5 -35.5q58 0 89.5 35.5q31.5 35.5 31.5 101.5v444h111v-443q0 -112 -61.5 -174q-61.5 -62 -170.5 -62q-109 0 -170.5 62q-61.5 62 -61.5 174zM293 883q39 0 63 -21.5q24 -21.5 24 -65.5q0 -20 -6 -37q-6 -17 -17 -35l-57 0q26 33 26 70q0 21 -9 31q-9 10 -24 10q-29 0 -39 -33l-52 12q10 32 33.5 50.5t57.5 18.5z" />
<glyph unicode="&#7912;" horiz-adv-x="592" d="M528 577v-353q0 -112 -61.5 -174q-61.5 -62 -170.5 -62q-109 0 -170.5 62q-61.5 62 -61.5 174v443h111v-444q0 -66 31.5 -101.5q31.5 -35.5 89.5 -35.5q58 0 89.5 35.5q31.5 35.5 31.5 101.5v444h111v-42q21 14 36.5 36q15.5 22 17.5 42q-4 -2 -12 -2q-19 0 -31 13q-12 13 -12 33q0 20 14 34q14 14 34 14q24 0 40 -18q16 -18 16 -49q0 -44 -27 -85q-27 -41 -76 -66zt0 0zM260 723l110 144h92l-134 -144z" />
<glyph unicode="&#7914;" horiz-adv-x="592" d="M528 577v-353q0 -112 -61.5 -174q-61.5 -62 -170.5 -62q-109 0 -170.5 62q-61.5 62 -61.5 174v443h111v-444q0 -66 31.5 -101.5q31.5 -35.5 89.5 -35.5q58 0 89.5 35.5q31.5 35.5 31.5 101.5v444h111v-42q21 14 36.5 36q15.5 22 17.5 42q-4 -2 -12 -2q-19 0 -31 13q-12 13 -12 33q0 20 14 34q14 14 34 14q24 0 40 -18q16 -18 16 -49q0 -44 -27 -85q-27 -41 -76 -66zt0 0zM129 867h93l109 -144l-68 0z" />
<glyph unicode="&#7916;" horiz-adv-x="592" d="M528 577v-353q0 -112 -61.5 -174q-61.5 -62 -170.5 -62q-109 0 -170.5 62q-61.5 62 -61.5 174v443h111v-444q0 -66 31.5 -101.5q31.5 -35.5 89.5 -35.5q58 0 89.5 35.5q31.5 35.5 31.5 101.5v444h111v-42q21 14 36.5 36q15.5 22 17.5 42q-4 -2 -12 -2q-19 0 -31 13q-12 13 -12 33q0 20 14 34q14 14 34 14q24 0 40 -18q16 -18 16 -49q0 -44 -27 -85q-27 -41 -76 -66zt0 0zM293 883q39 0 63 -21.5q24 -21.5 24 -65.5q0 -20 -6 -37q-6 -17 -17 -35l-57 0q26 33 26 70q0 21 -9 31q-9 10 -24 10q-29 0 -39 -33l-52 12q10 32 33.5 50.5t57.5 18.5z" />
<glyph unicode="&#7918;" horiz-adv-x="592" d="M528 577v-353q0 -112 -61.5 -174q-61.5 -62 -170.5 -62q-109 0 -170.5 62q-61.5 62 -61.5 174v443h111v-444q0 -66 31.5 -101.5q31.5 -35.5 89.5 -35.5q58 0 89.5 35.5q31.5 35.5 31.5 101.5v444h111v-42q21 14 36.5 36q15.5 22 17.5 42q-4 -2 -12 -2q-19 0 -31 13q-12 13 -12 33q0 20 14 34q14 14 34 14q24 0 40 -18q16 -18 16 -49q0 -44 -27 -85q-27 -41 -76 -66zt0 0zM244 802q-15 0 -24.5 -19q-9.5 -19 -9.5 -56l-54 0q0 61 24 97.5q24 36.5 68 36.5q23 0 37.5 -12.5q14.5 -12.5 29.5 -36.5q10 -16 18 -23.5q8 -7.5 18 -7.5q14 0 23.5 18.5q9.5 18.5 9.5 55.5l54 0q0 -61 -23.5 -97.5q-23.5 -36.5 -67.5 -36.5q-23 0 -38 13q-15 13 -30 36q-11 17 -18 24.5t-17 7.5z" />
<glyph unicode="&#7920;" horiz-adv-x="592" d="M528 577v-353q0 -112 -61.5 -174q-61.5 -62 -170.5 -62q-109 0 -170.5 62q-61.5 62 -61.5 174v443h111v-444q0 -66 31.5 -101.5q31.5 -35.5 89.5 -35.5q58 0 89.5 35.5q31.5 35.5 31.5 101.5v444h111v-42q21 14 36.5 36q15.5 22 17.5 42q-4 -2 -12 -2q-19 0 -31 13q-12 13 -12 33q0 20 14 34q14 14 34 14q24 0 40 -18q16 -18 16 -49q0 -44 -27 -85q-27 -41 -76 -66zt0 0zM297 -63q23 0 39.5 -16.5q16.5 -16.5 16.5 -39.5q0 -24 -16.5 -40.5q-16.5 -16.5 -39.5 -16.5q-23 0 -40 16.5q-17 16.5 -17 40.5q0 23 17 39.5t40 16.5z" />
<glyph unicode="&#7810;" horiz-adv-x="745" d="M372 479l-95 -479h-116l-151 667h119l96 -498l103 498h89l104 -498l95 498h119l-151 -667h-116zM336 723l110 144h92l-134 -144z" />
<glyph unicode="&#372;" horiz-adv-x="745" d="M372 479l-95 -479h-116l-151 667h119l96 -498l103 498h89l104 -498l95 498h119l-151 -667h-116zM372 820l-64 -97h-60l79 144h91l81 -144l-60 0z" />
<glyph unicode="&#7812;" horiz-adv-x="745" d="M372 479l-95 -479h-116l-151 667h119l96 -498l103 498h89l104 -498l95 498h119l-151 -667h-116zM226 789q0 23 16.5 39.5q16.5 16.5 39.5 16.5q23 0 39.5 -16.5q16.5 -16.5 16.5 -39.5q0 -23 -16.5 -39.5q-16.5 -16.5 -39.5 -16.5q-23 0 -39.5 16.5q-16.5 16.5 -16.5 39.5zt0 0zM407 789q0 23 16.5 39.5q16.5 16.5 39.5 16.5q23 0 40 -16.5q17 -16.5 17 -39.5q0 -23 -17 -39.5q-17 -16.5 -40 -16.5q-23 0 -39.5 16.5t-16.5 39.5z" />
<glyph unicode="&#7808;" horiz-adv-x="745" d="M372 479l-95 -479h-116l-151 667h119l96 -498l103 498h89l104 -498l95 498h119l-151 -667h-116zM205 867h93l109 -144l-68 0z" />
<glyph unicode="&#221;" horiz-adv-x="521" d="M206 278l-207 389h123l139 -285l139 285h122l-206 -389v-278h-110zM225 723l110 144h92l-134 -144z" />
<glyph unicode="&#374;" horiz-adv-x="521" d="M206 278l-207 389h123l139 -285l139 285h122l-206 -389v-278h-110zM261 820l-64 -97h-60l79 144h91l81 -144l-60 0z" />
<glyph unicode="&#376;" horiz-adv-x="521" d="M206 278l-207 389h123l139 -285l139 285h122l-206 -389v-278h-110zM115 789q0 23 16.5 39.5q16.5 16.5 39.5 16.5q23 0 39.5 -16.5q16.5 -16.5 16.5 -39.5q0 -23 -16.5 -39.5q-16.5 -16.5 -39.5 -16.5q-23 0 -39.5 16.5q-16.5 16.5 -16.5 39.5zt0 0zM296 789q0 23 16.5 39.5q16.5 16.5 39.5 16.5q23 0 40 -16.5q17 -16.5 17 -39.5q0 -23 -17 -39.5q-17 -16.5 -40 -16.5q-23 0 -39.5 16.5t-16.5 39.5z" />
<glyph unicode="&#7922;" horiz-adv-x="521" d="M206 278l-207 389h123l139 -285l139 285h122l-206 -389v-278h-110zM94 867h93l109 -144l-68 0z" />
<glyph unicode="&#562;" horiz-adv-x="521" d="M206 278l-207 389h123l139 -285l139 285h122l-206 -389v-278h-110zM127 794h269v-60l-269 0z" />
<glyph unicode="&#7924;" horiz-adv-x="521" d="M206 278l-207 389h123l139 -285l139 285h122l-206 -389v-278h-110zM262 -63q23 0 39.5 -16.5q16.5 -16.5 16.5 -39.5q0 -24 -16.5 -40.5q-16.5 -16.5 -39.5 -16.5q-23 0 -40 16.5q-17 16.5 -17 40.5q0 23 17 39.5t40 16.5z" />
<glyph unicode="&#7926;" horiz-adv-x="521" d="M206 278l-207 389h123l139 -285l139 285h122l-206 -389v-278h-110zM258 883q39 0 63 -21.5q24 -21.5 24 -65.5q0 -20 -6 -37q-6 -17 -17 -35l-57 0q26 33 26 70q0 21 -9 31q-9 10 -24 10q-29 0 -39 -33l-52 12q10 32 33.5 50.5t57.5 18.5z" />
<glyph unicode="&#7928;" horiz-adv-x="521" d="M206 278l-207 389h123l139 -285l139 285h122l-206 -389v-278h-110zM209 802q-15 0 -24.5 -19q-9.5 -19 -9.5 -56l-54 0q0 61 24 97.5q24 36.5 68 36.5q23 0 37.5 -12.5q14.5 -12.5 29.5 -36.5q10 -16 18 -23.5q8 -7.5 18 -7.5q14 0 23.5 18.5q9.5 18.5 9.5 55.5l54 0q0 -61 -23.5 -97.5q-23.5 -36.5 -67.5 -36.5q-23 0 -38 13q-15 13 -30 36q-11 17 -18 24.5t-17 7.5z" />
<glyph unicode="&#377;" horiz-adv-x="475" d="M38 92l258 478h-258v97h392v-90l-259 -479h266v-98h-399zM202 723l110 144h92l-134 -144z" />
<glyph unicode="&#381;" horiz-adv-x="475" d="M38 92l258 478h-258v97h392v-90l-259 -479h266v-98h-399zM111 867h60l67 -97l64 97h60l-78 -144l-91 0z" />
<glyph unicode="&#379;" horiz-adv-x="475" d="M38 92l258 478h-258v97h392v-90l-259 -479h266v-98h-399zM239 845q23 0 39.5 -17q16.5 -17 16.5 -40q0 -23 -16.5 -39.5q-16.5 -16.5 -39.5 -16.5q-23 0 -40 16.5q-17 16.5 -17 39.5q0 23 17 40t40 17z" />
<glyph unicode="&#208;" horiz-adv-x="606" d="M567 333q0 -98 -33 -173q-33 -75 -96 -117.5q-63 -42.5 -151 -42.5h-199v288h-74v81h74v298h198q88 0 151.5 -42.5q63.5 -42.5 96.5 -118q33 -75.5 33 -173.5zt0 0zM454 333q0 108 -43.5 172.5q-43.5 64.5 -124.5 64.5h-88v-201h116v-81h-116v-190h88q80 0 124 64.5t44 170.5z" />
<glyph unicode="&#222;" horiz-adv-x="513" d="M64 667h111v-114h116q63 0 107.5 -28q44.5 -28 67 -75.5q22.5 -47.5 22.5 -104.5q0 -57 -22.5 -104q-22.5 -47 -67 -74.5q-44.5 -27.5 -107.5 -27.5h-116v-139h-111zM278 456h-103v-220h103q44 0 70.5 30q26.5 30 26.5 79q0 50 -26.5 80.5t-70.5 30.5z" />
<glyph unicode="&#225;" horiz-adv-x="494" d="M335 64q-22 -36 -55 -56q-33 -20 -69 -20q-81 0 -128.5 68.5q-47.5 68.5 -47.5 184.5q0 116 47.5 185q47.5 69 128.5 69q37 0 70 -19.5q33 -19.5 54 -57.5l0 65h100v-483h-100zM335 340q-13 28 -39.5 47q-26.5 19 -54.5 19q-50 0 -76.5 -45.5q-26.5 -45.5 -26.5 -119.5q0 -72 26.5 -118.5q26.5 -46.5 76.5 -46.5q28 0 54.5 19q26.5 19 39.5 47zM215 556l110 144h92l-134 -144z" />
<glyph unicode="&#259;" horiz-adv-x="494" d="M335 64q-22 -36 -55 -56q-33 -20 -69 -20q-81 0 -128.5 68.5q-47.5 68.5 -47.5 184.5q0 116 47.5 185q47.5 69 128.5 69q37 0 70 -19.5q33 -19.5 54 -57.5l0 65h100v-483h-100zM335 340q-13 28 -39.5 47q-26.5 19 -54.5 19q-50 0 -76.5 -45.5q-26.5 -45.5 -26.5 -119.5q0 -72 26.5 -118.5q26.5 -46.5 76.5 -46.5q28 0 54.5 19q26.5 19 39.5 47zM102 626l47 38q17 -25 44 -39q27 -14 58 -14q31 0 58 14q27 14 44 39l47 -38q-26 -35 -65 -55q-39 -20 -84 -20q-44 0 -83 20t-66 55z" />
<glyph unicode="&#226;" horiz-adv-x="494" d="M335 64q-22 -36 -55 -56q-33 -20 -69 -20q-81 0 -128.5 68.5q-47.5 68.5 -47.5 184.5q0 116 47.5 185q47.5 69 128.5 69q37 0 70 -19.5q33 -19.5 54 -57.5l0 65h100v-483h-100zM335 340q-13 28 -39.5 47q-26.5 19 -54.5 19q-50 0 -76.5 -45.5q-26.5 -45.5 -26.5 -119.5q0 -72 26.5 -118.5q26.5 -46.5 76.5 -46.5q28 0 54.5 19q26.5 19 39.5 47zM251 653l-64 -97h-60l79 144h91l81 -144l-60 0z" />
<glyph unicode="&#228;" horiz-adv-x="494" d="M335 64q-22 -36 -55 -56q-33 -20 -69 -20q-81 0 -128.5 68.5q-47.5 68.5 -47.5 184.5q0 116 47.5 185q47.5 69 128.5 69q37 0 70 -19.5q33 -19.5 54 -57.5l0 65h100v-483h-100zM335 340q-13 28 -39.5 47q-26.5 19 -54.5 19q-50 0 -76.5 -45.5q-26.5 -45.5 -26.5 -119.5q0 -72 26.5 -118.5q26.5 -46.5 76.5 -46.5q28 0 54.5 19q26.5 19 39.5 47zM105 622q0 23 16.5 39.5q16.5 16.5 39.5 16.5q23 0 39.5 -16.5q16.5 -16.5 16.5 -39.5q0 -23 -16.5 -39.5q-16.5 -16.5 -39.5 -16.5q-23 0 -39.5 16.5q-16.5 16.5 -16.5 39.5zt0 0zM286 622q0 23 16.5 39.5q16.5 16.5 39.5 16.5q23 0 40 -16.5q17 -16.5 17 -39.5q0 -23 -17 -39.5q-17 -16.5 -40 -16.5q-23 0 -39.5 16.5t-16.5 39.5z" />
<glyph unicode="&#224;" horiz-adv-x="494" d="M335 64q-22 -36 -55 -56q-33 -20 -69 -20q-81 0 -128.5 68.5q-47.5 68.5 -47.5 184.5q0 116 47.5 185q47.5 69 128.5 69q37 0 70 -19.5q33 -19.5 54 -57.5l0 65h100v-483h-100zM335 340q-13 28 -39.5 47q-26.5 19 -54.5 19q-50 0 -76.5 -45.5q-26.5 -45.5 -26.5 -119.5q0 -72 26.5 -118.5q26.5 -46.5 76.5 -46.5q28 0 54.5 19q26.5 19 39.5 47zM84 700h93l109 -144l-68 0z" />
<glyph unicode="&#257;" horiz-adv-x="494" d="M335 64q-22 -36 -55 -56q-33 -20 -69 -20q-81 0 -128.5 68.5q-47.5 68.5 -47.5 184.5q0 116 47.5 185q47.5 69 128.5 69q37 0 70 -19.5q33 -19.5 54 -57.5l0 65h100v-483h-100zM335 340q-13 28 -39.5 47q-26.5 19 -54.5 19q-50 0 -76.5 -45.5q-26.5 -45.5 -26.5 -119.5q0 -72 26.5 -118.5q26.5 -46.5 76.5 -46.5q28 0 54.5 19q26.5 19 39.5 47zM117 627h269v-60l-269 0z" />
<glyph unicode="&#261;" horiz-adv-x="494" d="M346 -83q0 -15 10.5 -23.5q10.5 -8.5 24.5 -8.5q16 0 30 7l24 -61q-28 -17 -78 -17q-42 0 -69.5 20q-27.5 20 -27.5 57q0 34 27 62q27 28 71 47l-23 0v64q-22 -36 -55 -56q-33 -20 -69 -20q-81 0 -128.5 68.5q-47.5 68.5 -47.5 184.5q0 116 47.5 185q47.5 69 128.5 69q37 0 70 -19.5q33 -19.5 54 -57.5l0 65h100v-483q-89 -34 -89 -83zt0 0zM335 340q-13 28 -39.5 47q-26.5 19 -54.5 19q-50 0 -76.5 -45.5q-26.5 -45.5 -26.5 -119.5q0 -72 26.5 -118.5q26.5 -46.5 76.5 -46.5q28 0 54.5 19q26.5 19 39.5 47z" />
</font>
</defs>
</svg>
