<svg xmlns="http://www.w3.org/2000/svg" xmlns:xlink="http://www.w3.org/1999/xlink" width="343.39" height="345.389" viewBox="0 0 343.39 345.389"><defs><style>.a{fill:#62a0a5;}.b{fill:#fff;}.c{fill:rgba(0,0,0,0.89);}.d{fill:#ededed;stroke:rgba(0,0,0,0);stroke-miterlimit:10;}.e{clip-path:url(#c);}.f{fill:#434244;}.g{fill:#ffc629;}.h{fill:#a32035;}.i{fill:#424143;}.j{filter:url(#a);}</style><filter id="a" x="0" y="0" width="335.889" height="335.889" filterUnits="userSpaceOnUse"><feOffset dx="-4" dy="-6" input="SourceAlpha"/><feGaussianBlur stdDeviation="7" result="b"/><feFlood flood-color="#333e48" flood-opacity="0.353"/><feComposite operator="in" in2="b"/><feComposite in="SourceGraphic"/></filter><clipPath id="c"><circle class="a" cx="96" cy="96" r="96" transform="translate(1552 668)"/></clipPath></defs><g transform="translate(-982.869 -613.787)"><circle class="b" cx="121.338" cy="121.338" r="121.338" transform="translate(1036.193 671.552)"/><g class="j" transform="matrix(1, 0, 0, 1, 982.87, 613.79)"><path class="c" d="M-4061.055,293.889a148.033,148.033,0,0,1-29.615-2.985,146.208,146.208,0,0,1-27.583-8.562,146.944,146.944,0,0,1-24.96-13.548,147.973,147.973,0,0,1-21.747-17.943A147.987,147.987,0,0,1-4182.9,229.1a147.028,147.028,0,0,1-13.548-24.961,146.142,146.142,0,0,1-8.562-27.583A147.991,147.991,0,0,1-4208,146.944a147.988,147.988,0,0,1,2.986-29.614,146.141,146.141,0,0,1,8.562-27.583A147.031,147.031,0,0,1-4182.9,64.786a147.993,147.993,0,0,1,17.944-21.747A147.972,147.972,0,0,1-4143.213,25.1a146.942,146.942,0,0,1,24.96-13.548,146.215,146.215,0,0,1,27.583-8.562A148.032,148.032,0,0,1-4061.055,0a148.03,148.03,0,0,1,29.614,2.985,146.2,146.2,0,0,1,27.583,8.562A146.966,146.966,0,0,1-3978.9,25.1a147.975,147.975,0,0,1,21.747,17.943,148.005,148.005,0,0,1,17.943,21.747,146.961,146.961,0,0,1,13.548,24.961,146.24,146.24,0,0,1,8.562,27.583,148.027,148.027,0,0,1,2.985,29.614,148.03,148.03,0,0,1-2.985,29.615,146.24,146.24,0,0,1-8.562,27.583,146.958,146.958,0,0,1-13.548,24.961,148.011,148.011,0,0,1-17.943,21.747,147.986,147.986,0,0,1-21.747,17.943,146.965,146.965,0,0,1-24.96,13.548,146.21,146.21,0,0,1-27.583,8.562A148.027,148.027,0,0,1-4061.055,293.889Zm0-266.195a120.133,120.133,0,0,0-24.034,2.423,118.658,118.658,0,0,0-22.385,6.949A119.291,119.291,0,0,0-4127.73,48.06a120.207,120.207,0,0,0-17.649,14.562,120.124,120.124,0,0,0-14.561,17.649,119.266,119.266,0,0,0-11,20.257,118.607,118.607,0,0,0-6.949,22.385,120.1,120.1,0,0,0-2.423,24.033,120.1,120.1,0,0,0,2.423,24.033,118.608,118.608,0,0,0,6.949,22.384,119.267,119.267,0,0,0,11,20.256,120.116,120.116,0,0,0,14.561,17.649,120.2,120.2,0,0,0,17.649,14.561,119.281,119.281,0,0,0,20.257,10.995,118.656,118.656,0,0,0,22.385,6.949,120.139,120.139,0,0,0,24.034,2.423,120.128,120.128,0,0,0,24.032-2.423,118.645,118.645,0,0,0,22.384-6.949,119.235,119.235,0,0,0,20.256-10.995,120.105,120.105,0,0,0,17.649-14.561,120.14,120.14,0,0,0,14.562-17.649,119.258,119.258,0,0,0,10.995-20.256,118.7,118.7,0,0,0,6.949-22.384,120.137,120.137,0,0,0,2.423-24.033,120.139,120.139,0,0,0-2.423-24.033,118.7,118.7,0,0,0-6.949-22.385,119.256,119.256,0,0,0-10.995-20.257,120.145,120.145,0,0,0-14.562-17.649,120.111,120.111,0,0,0-17.649-14.562,119.247,119.247,0,0,0-20.256-10.995,118.648,118.648,0,0,0-22.384-6.949A120.125,120.125,0,0,0-4061.055,27.694Z" transform="translate(4233 27)"/></g><path class="d" d="M-4073.1,334.457a168.017,168.017,0,0,1-31.71-9.845,168.959,168.959,0,0,1-28.7-15.576,170.18,170.18,0,0,1-25-20.63,170.065,170.065,0,0,1-20.631-25,168.983,168.983,0,0,1-15.576-28.7,168.136,168.136,0,0,1-9.843-31.713A170.131,170.131,0,0,1-4208,168.945a170.133,170.133,0,0,1,3.434-34.049,168.16,168.16,0,0,1,9.843-31.713,169.023,169.023,0,0,1,15.576-28.7,170.12,170.12,0,0,1,20.631-25,170.24,170.24,0,0,1,25-20.629,168.958,168.958,0,0,1,28.7-15.576,168.018,168.018,0,0,1,31.71-9.845A170.187,170.187,0,0,1-4039.055,0a170.172,170.172,0,0,1,34.048,3.432,168.15,168.15,0,0,1,31.714,9.845,168.984,168.984,0,0,1,28.7,15.576,170.224,170.224,0,0,1,25,20.629,170.224,170.224,0,0,1,20.631,25,169.067,169.067,0,0,1,15.576,28.7,168.1,168.1,0,0,1,9.845,31.713,170.239,170.239,0,0,1,3.432,34.049,170.237,170.237,0,0,1-3.432,34.048,168.1,168.1,0,0,1-9.845,31.713,168.914,168.914,0,0,1-15.576,28.7,170.115,170.115,0,0,1-20.631,25,170.165,170.165,0,0,1-25,20.63,168.949,168.949,0,0,1-28.7,15.576,168.15,168.15,0,0,1-31.714,9.845,170.171,170.171,0,0,1-34.048,3.432A170.186,170.186,0,0,1-4073.1,334.457Zm10.834-278.364a114.571,114.571,0,0,0-21.623,6.712,115.056,115.056,0,0,0-19.567,10.62,116.023,116.023,0,0,0-17.049,14.066,116.122,116.122,0,0,0-14.064,17.048,115.14,115.14,0,0,0-10.622,19.568,114.594,114.594,0,0,0-6.711,21.622,116.109,116.109,0,0,0-2.341,23.216,116.109,116.109,0,0,0,2.341,23.216,114.6,114.6,0,0,0,6.711,21.623,115.09,115.09,0,0,0,10.622,19.567,116.067,116.067,0,0,0,14.064,17.048,116.008,116.008,0,0,0,17.049,14.066,115.062,115.062,0,0,0,19.567,10.621,114.647,114.647,0,0,0,21.623,6.712,116.079,116.079,0,0,0,23.216,2.34,116.062,116.062,0,0,0,23.215-2.34,114.6,114.6,0,0,0,21.623-6.712,115.156,115.156,0,0,0,19.568-10.621A116,116,0,0,0-3957.6,250.4a115.985,115.985,0,0,0,14.067-17.048,115.246,115.246,0,0,0,10.62-19.567,114.642,114.642,0,0,0,6.712-21.623,116.075,116.075,0,0,0,2.34-23.216,116.075,116.075,0,0,0-2.34-23.216,114.609,114.609,0,0,0-6.712-21.622,115.255,115.255,0,0,0-10.62-19.568A116.039,116.039,0,0,0-3957.6,87.491a116.067,116.067,0,0,0-17.047-14.066,115.151,115.151,0,0,0-19.568-10.62,114.521,114.521,0,0,0-21.623-6.712,115.986,115.986,0,0,0-23.215-2.34A116,116,0,0,0-4062.27,56.093Z" transform="translate(5195.869 620.787)"/><g transform="translate(783.813 633.974)"><g transform="translate(317.671 101.169)"><path class="f" d="M459.934,184.6a17.928,17.928,0,0,1-2.456-4.639,18.712,18.712,0,0,1-.221-5.468c.151-3.033.307-6.167-1.251-8.858-1.58-2.732-4.4-4.17-7.12-5.559a18.358,18.358,0,0,1-4.557-2.866,18.422,18.422,0,0,1-2.867-4.555c-1.391-2.724-2.826-5.541-5.557-7.122a12.119,12.119,0,0,0-6.143-1.339c-.9,0-1.811.044-2.692.088h-.027c-.838.043-1.7.086-2.525.086a11.331,11.331,0,0,1-2.938-.307h0a18.019,18.019,0,0,1-4.64-2.457c-2.469-1.605-5.266-3.424-8.5-3.424s-6.032,1.819-8.5,3.424a17.971,17.971,0,0,1-4.639,2.457,11.35,11.35,0,0,1-2.939.307c-.823,0-1.688-.043-2.522-.086H389.8c-.879-.043-1.788-.088-2.686-.088a12.113,12.113,0,0,0-6.143,1.339c-2.732,1.581-4.17,4.4-5.559,7.122a18.389,18.389,0,0,1-2.867,4.556,18.384,18.384,0,0,1-4.555,2.865c-2.724,1.389-5.541,2.826-7.121,5.559-1.558,2.691-1.4,5.826-1.251,8.858a18.728,18.728,0,0,1-.222,5.468,17.888,17.888,0,0,1-2.457,4.639c-1.6,2.47-3.424,5.269-3.424,8.5s1.82,6.033,3.424,8.5a17.893,17.893,0,0,1,2.457,4.639,18.711,18.711,0,0,1,.222,5.468c-.151,3.032-.307,6.169,1.251,8.858,1.581,2.732,4.4,4.169,7.121,5.558a12.13,12.13,0,0,1,7.422,7.421c1.389,2.724,2.827,5.541,5.558,7.122a12.1,12.1,0,0,0,6.142,1.341c.909,0,1.828-.047,2.716-.091.839-.041,1.7-.085,2.526-.085a11.344,11.344,0,0,1,2.942.308,17.891,17.891,0,0,1,4.638,2.455c2.47,1.607,5.269,3.424,8.5,3.424s6.032-1.818,8.5-3.424a17.977,17.977,0,0,1,4.64-2.456,11.409,11.409,0,0,1,2.94-.307c.808,0,1.631.041,2.5.085h.021c.885.044,1.8.091,2.719.091a12.1,12.1,0,0,0,6.143-1.341c2.732-1.581,4.167-4.4,5.557-7.122a12.126,12.126,0,0,1,7.422-7.421c2.724-1.389,5.542-2.826,7.122-5.558,1.558-2.689,1.4-5.826,1.251-8.858a18.716,18.716,0,0,1,.221-5.468,17.9,17.9,0,0,1,2.456-4.639c1.606-2.468,3.424-5.269,3.424-8.5S461.54,187.066,459.934,184.6Z" transform="translate(-353.515 -138.178)"/><g transform="translate(13.537 58.187)"><path class="g" d="M423.149,415.1c.031-.075.04-.131.079-.136.062-.008.083.03.1.146.013.1-.019.827-.043,1.1a.737.737,0,0,1-.067.3.1.1,0,0,1-.09.042.468.468,0,0,1-.187-.041,6.138,6.138,0,0,1-1.157-.86c-.055-.055-.133-.118-.138-.157a.045.045,0,0,1,.041-.052,1.218,1.218,0,0,1,.177.026,1.975,1.975,0,0,0,.715.018A.625.625,0,0,0,423.149,415.1Z" transform="translate(-420.705 -414.337)"/><g transform="translate(0 6.53)"><path class="g" d="M417.811,444.7c.016-.136.046-.171.211-.222.413-.128.872-.238,1-.268s.2-.031.222.029-.044.1-.1.114a1.717,1.717,0,0,0-.362.187,1.084,1.084,0,0,0-.426,1.309.956.956,0,0,0,1.169.741c.368-.114.678-.334.973-1.109l.163-.428c.39-1.027.828-1.475,1.435-1.664a1.6,1.6,0,0,1,1.958,1.3,3.82,3.82,0,0,1,.182,1.038c.006.071-.005.117-.057.133-.1.031-.325.068-.912.25-.165.051-.232.046-.251-.013s.022-.089.112-.116a.966.966,0,0,0,.435-.351,1,1,0,0,0,.114-.933.828.828,0,0,0-1.051-.653c-.345.107-.554.362-.834,1.132l-.093.259c-.4,1.12-.82,1.6-1.533,1.825a1.59,1.59,0,0,1-1.526-.3,2.268,2.268,0,0,1-.677-1.1A2.728,2.728,0,0,1,417.811,444.7Z" transform="translate(-417.675 -443.205)"/><path class="g" d="M419.2,447.007a1.693,1.693,0,0,1-1.1-.4,2.366,2.366,0,0,1-.716-1.158,2.819,2.819,0,0,1-.15-1.206h0c.024-.206.111-.266.3-.323.417-.129.873-.239,1-.27.206-.05.33-.012.366.113a.183.183,0,0,1-.012.144.268.268,0,0,1-.174.12,1.629,1.629,0,0,0-.329.172.964.964,0,0,0-.377,1.172.832.832,0,0,0,1.018.661c.35-.108.622-.319.9-1.037l.163-.428c.382-1.006.835-1.526,1.512-1.736a1.719,1.719,0,0,1,2.109,1.375,3.96,3.96,0,0,1,.187,1.07c.014.169-.07.232-.143.254-.029.009-.071.019-.131.034-.138.033-.368.089-.779.216-.1.032-.339.105-.4-.092a.184.184,0,0,1,.012-.145.288.288,0,0,1,.181-.123.849.849,0,0,0,.369-.3.877.877,0,0,0,.1-.83.894.894,0,0,0-.368-.519.635.635,0,0,0-.532-.055c-.278.086-.471.274-.756,1.058l-.092.259c-.412,1.149-.849,1.664-1.611,1.9A1.845,1.845,0,0,1,419.2,447.007Zm-1.722-2.741a2.6,2.6,0,0,0,.14,1.107,2.133,2.133,0,0,0,.64,1.043,1.478,1.478,0,0,0,1.412.277c.678-.21,1.072-.685,1.455-1.751l.093-.259c.283-.778.513-1.082.912-1.206a.884.884,0,0,1,.728.078,1.13,1.13,0,0,1,.474.655,1.111,1.111,0,0,1-.129,1.037,1.055,1.055,0,0,1-.21.229c.283-.084.458-.126.572-.153l.091-.022s0-.009,0-.015a3.749,3.749,0,0,0-.177-1.012c-.3-.968-1.028-1.456-1.807-1.215-.607.188-1,.65-1.358,1.591l-.164.428c-.307.806-.642,1.055-1.05,1.182a1.079,1.079,0,0,1-1.32-.821,1.207,1.207,0,0,1,.474-1.445l.075-.048c-.2.05-.469.122-.724.2-.117.036-.117.036-.127.12Zm6.2,1.026h0Z" transform="translate(-417.226 -442.756)"/></g><g transform="translate(2.193 10.314)"><path class="g" d="M433.331,463.18l-.536-1.043c-.211-.4-.329-.557-.536-.589a.922.922,0,0,0-.306,0c-.064.013-.1.006-.123-.038s0-.08.082-.117c.114-.054.823-.231.887-.244.1-.023.155-.022.175.02a1.761,1.761,0,0,0,.062.346c.077.215.193.491.3.726l1.35,2.8a3.859,3.859,0,0,0,.27.472,1.5,1.5,0,0,1,.127.174c.024.05-.014.077-.12.128-.15.072-.648.286-.833.374-.074.026-.124.034-.144-.008-.028-.058,0-.089.1-.148l.074-.042c.178-.1.284-.391,0-1.029l-.408-.9-2.906,1.4c-.652.313-1.211.582-1.5.764-.188.117-.324.234-.249.461a3.1,3.1,0,0,0,.146.374c.037.078.033.124,0,.141s-.1-.024-.136-.1c-.225-.467-.418-.925-.514-1.122-.079-.163-.314-.6-.451-.882-.044-.093-.047-.152,0-.176.035-.017.07,0,.112.087a1.224,1.224,0,0,0,.15.24c.1.129.273.1.488.02.314-.109.875-.378,1.526-.691Z" transform="translate(-427.992 -461.013)"/><path class="g" d="M428.775,466.881c-.063,0-.149-.032-.218-.176-.135-.279-.258-.556-.356-.776-.065-.146-.119-.267-.157-.346s-.1-.189-.167-.325c-.1-.183-.206-.395-.284-.557-.108-.225,0-.311.058-.337s.177-.058.274.142a1.116,1.116,0,0,0,.136.218c.033.043.1.072.353-.019.318-.11.926-.4,1.514-.686l2.793-1.343-.479-.932c-.2-.389-.3-.5-.447-.524a.784.784,0,0,0-.262,0,.2.2,0,0,1-.257-.105.177.177,0,0,1-.01-.138.262.262,0,0,1,.149-.14c.132-.063.866-.243.916-.253.077-.017.24-.053.308.085a.334.334,0,0,1,.025.138.6.6,0,0,0,.041.218c.079.221.194.494.3.718l1.35,2.8a3.8,3.8,0,0,0,.263.459l.033.042a.854.854,0,0,1,.1.148c.078.163-.095.247-.178.287s-.22.1-.377.169c-.174.077-.359.159-.456.205-.16.058-.259.034-.306-.066-.081-.169.077-.26.153-.3l.075-.043c.17-.1.151-.419-.055-.874l-.357-.79-2.794,1.345c-.617.3-1.2.576-1.487.757-.2.123-.241.192-.2.321a3.069,3.069,0,0,0,.14.359c.1.21-.03.289-.057.3A.2.2,0,0,1,428.775,466.881Zm-.772-1.9.088.169c.072.139.136.26.17.331s.094.2.161.353l.1.222a.6.6,0,0,1,.323-.377c.3-.189.887-.471,1.511-.77l3.017-1.452.459,1.015c.25.554.213.861.11,1.031l.161-.071c.154-.068.3-.133.37-.166l.03-.015-.042-.054-.039-.05a4.018,4.018,0,0,1-.284-.494l-1.35-2.8c-.11-.23-.229-.513-.31-.738a.833.833,0,0,1-.056-.294v0l-.041.008c-.051.011-.368.089-.6.155l.055.007c.265.041.408.235.626.652l.593,1.154-3.017,1.45c-.621.3-1.209.582-1.538.7A.713.713,0,0,1,428,464.979Z" transform="translate(-427.547 -460.565)"/></g><g transform="translate(4.409 17.8)"><path class="g" d="M438.787,496.426a.473.473,0,0,1,.657.166.453.453,0,0,1-.145.646.479.479,0,0,1-.682-.16A.458.458,0,0,1,438.787,496.426Z" transform="translate(-438.422 -496.239)"/><path class="g" d="M438.575,496.995a.584.584,0,0,1-.511-.3.579.579,0,0,1-.074-.444.618.618,0,0,1,.286-.372.6.6,0,0,1,.823.208.613.613,0,0,1,.076.466.564.564,0,0,1-.264.345A.66.66,0,0,1,438.575,496.995Zm.02-.958a.392.392,0,0,0-.194.052h0a.38.38,0,0,0-.175.224.337.337,0,0,0,.047.261.352.352,0,0,0,.231.173.4.4,0,0,0,.286-.055.319.319,0,0,0,.153-.2.373.373,0,0,0-.05-.283A.335.335,0,0,0,438.595,496.036Z" transform="translate(-437.974 -495.796)"/></g><g transform="translate(7.308 18.89)"><path class="g" d="M454.966,505.146c-.772.645-1.187.995-1.19,1.211-.005.179.085.37.478.841.268.319.47.55.759.564a.982.982,0,0,0,.494-.146c.059-.039.105-.058.146-.009s.01.074-.063.134a6.5,6.5,0,0,1-.769.49c-.163.074-.218.069-.481-.245-.363-.434-.613-.758-.834-1.034s-.391-.5-.6-.751c-.055-.067-.166-.2-.293-.339s-.259-.286-.36-.407c-.065-.078-.082-.136-.041-.171s.068-.016.129.055a1.31,1.31,0,0,0,.206.2c.126.1.283.02.478-.1.279-.181.755-.581,1.31-1.045l1.062-.888c.917-.766,1.086-.907,1.268-1.081s.252-.314.127-.547a1.158,1.158,0,0,0-.148-.214c-.055-.066-.074-.114-.031-.149s.09,0,.165.088c.237.284.537.68.674.841.12.145.507.57.7.805.071.085.094.137.052.172s-.085.01-.145-.063a2.179,2.179,0,0,0-.215-.22c-.166-.138-.309-.1-.53.064-.2.149-.373.291-1.289,1.057Z" transform="translate(-452.07 -501.378)"/><path class="g" d="M454.234,507.943c-.138,0-.249-.1-.437-.327-.275-.329-.484-.592-.667-.824l-.168-.212c-.214-.281-.392-.5-.6-.749-.068-.081-.171-.2-.289-.334-.064-.077-.131-.15-.2-.221s-.119-.131-.168-.19c-.16-.192-.072-.3-.026-.341s.158-.1.3.07a1.212,1.212,0,0,0,.187.18c.055.044.141.016.341-.109.259-.168.709-.545,1.231-.98l1.127-.943c.917-.766,1.082-.9,1.262-1.076s.193-.235.1-.4a1.064,1.064,0,0,0-.134-.194.277.277,0,0,1-.082-.2.177.177,0,0,1,.066-.123.172.172,0,0,1,.128-.041.325.325,0,0,1,.207.144c.13.156.28.346.411.512.107.136.2.256.263.328s.159.184.277.317c.149.168.317.358.427.489a.322.322,0,0,1,.1.224.184.184,0,0,1-.195.162.288.288,0,0,1-.184-.121,2.074,2.074,0,0,0-.2-.206c-.083-.069-.152-.1-.379.069-.2.147-.377.295-1.284,1.053l-1.062.888c-.64.535-1.145.957-1.147,1.12,0,.137.068.3.45.762.264.315.438.509.672.52a.891.891,0,0,0,.42-.125c.156-.1.253-.05.306.014a.169.169,0,0,1,.043.127.272.272,0,0,1-.122.178,6.5,6.5,0,0,1-.8.507A.457.457,0,0,1,454.234,507.943Zm-2.047-2.688.071.082c.118.128.224.255.283.326.218.26.4.486.612.768l.167.21c.183.231.39.493.664.819.222.266.237.259.337.213a4.163,4.163,0,0,0,.432-.258.812.812,0,0,1-.2.019c-.352-.017-.592-.3-.846-.607-.389-.468-.512-.692-.506-.923,0-.272.389-.595,1.233-1.3l1.062-.888c.929-.777,1.089-.91,1.3-1.062a.6.6,0,0,1,.484-.162l-.088-.1c-.12-.135-.228-.257-.282-.322s-.158-.2-.267-.334l-.115-.146a.542.542,0,0,1-.228.471c-.185.176-.351.315-1.274,1.085l-1.127.943c-.527.441-.982.821-1.256,1A.772.772,0,0,1,452.188,505.255Zm-.418-.315Z" transform="translate(-451.62 -500.93)"/></g><g transform="translate(12.35 23.891)"><path class="g" d="M476.693,526.157a3.028,3.028,0,0,1,4.469-.261,2.851,2.851,0,0,1,.531,4.3,3.108,3.108,0,0,1-4.566.364A3,3,0,0,1,476.693,526.157Zm3.972,3.548c1.135-1.347,1.065-2.837.08-3.667-.691-.583-1.8-.864-3.066.632-1.055,1.25-1.2,2.825-.047,3.8C478.053,530.823,479.2,531.441,480.665,529.705Z" transform="translate(-475.803 -524.913)"/><path class="g" d="M478.814,531.066a3.444,3.444,0,0,1-2.222-.865,3.111,3.111,0,0,1-.448-4.57h0a3.149,3.149,0,0,1,4.64-.276,2.986,2.986,0,0,1,.545,4.467A3.28,3.28,0,0,1,478.814,531.066Zm-2.485-5.279a2.879,2.879,0,0,0,.419,4.229,2.983,2.983,0,0,0,4.4-.349,2.732,2.732,0,0,0-.516-4.126,2.908,2.908,0,0,0-4.3.247Zm1.918,4.755a1.814,1.814,0,0,1-1.149-.428c-1.14-.963-1.127-2.6.032-3.969,1.5-1.781,2.764-1.045,3.237-.647a2.223,2.223,0,0,1,.8,1.733,3.315,3.315,0,0,1-.864,2.1h0A2.766,2.766,0,0,1,478.247,530.542Zm.858-5.3a2.418,2.418,0,0,0-1.79,1.057c-1.067,1.265-1.093,2.757-.061,3.628.392.33,1.455.918,2.862-.749h0a3.076,3.076,0,0,0,.807-1.95,1.985,1.985,0,0,0-.712-1.547A1.73,1.73,0,0,0,479.1,525.244Z" transform="translate(-475.347 -524.466)"/></g><g transform="translate(19.498 27.578)"><path class="g" d="M510.587,544.736c.569-1.052.675-1.245.78-1.473s.118-.384-.084-.555a1.618,1.618,0,0,0-.258-.167c-.076-.041-.11-.078-.084-.126s.082-.036.186.021c.366.2.791.456,1,.568.166.09.613.3.861.439.1.056.145.1.119.145s-.075.039-.144,0a1.1,1.1,0,0,0-.212-.087c-.205-.068-.324.02-.469.255-.133.214-.238.407-.807,1.458l-.525.968c-.543,1-.571,1.533-.381,1.992a1.449,1.449,0,0,0,.71.752,1.542,1.542,0,0,0,1.157.144c.586-.173.944-.784,1.329-1.5l.469-.863c.569-1.05.673-1.246.78-1.474s.118-.384-.084-.555a1.5,1.5,0,0,0-.238-.155c-.076-.042-.11-.077-.084-.126s.082-.037.18.017c.353.19.777.447.783.451.083.045.529.26.8.406.1.05.138.092.111.14s-.074.04-.158-.006a1.207,1.207,0,0,0-.212-.087c-.2-.066-.324.021-.469.256-.134.214-.239.407-.808,1.458l-.4.739a2.974,2.974,0,0,1-1.784,1.724,2.342,2.342,0,0,1-1.708-.28,2.528,2.528,0,0,1-1.276-1.308,2.584,2.584,0,0,1,.378-2.166Z" transform="translate(-509.44 -542.264)"/><path class="g" d="M511.691,549.228a2.568,2.568,0,0,1-1.256-.351A2.646,2.646,0,0,1,509.1,547.5a2.741,2.741,0,0,1,.385-2.264l.646-1.193c.48-.887.58-1.072.677-1.283s.092-.29-.052-.412a1.525,1.525,0,0,0-.238-.153.275.275,0,0,1-.149-.152.176.176,0,0,1,.016-.138.17.17,0,0,1,.1-.085.326.326,0,0,1,.247.058c.21.114.439.247.636.361.146.085.273.159.362.207s.208.107.354.18c.176.088.371.185.507.259.064.034.258.139.168.308a.178.178,0,0,1-.107.09.269.269,0,0,1-.2-.039.979.979,0,0,0-.192-.078c-.1-.035-.179-.038-.328.2-.131.21-.23.392-.8,1.452l-.525.968c-.544,1.005-.544,1.482-.376,1.888a1.33,1.33,0,0,0,.656.692,1.437,1.437,0,0,0,1.064.134c.528-.156.868-.719,1.257-1.439l.469-.863c.561-1.036.67-1.239.776-1.467s.092-.289-.052-.411a1.37,1.37,0,0,0-.217-.141c-.184-.1-.174-.214-.133-.29a.172.172,0,0,1,.1-.087.321.321,0,0,1,.24.056c.281.152.607.345.776.446.035.02.11.057.206.1.177.088.425.211.6.305a.317.317,0,0,1,.175.169.184.184,0,0,1-.122.224.283.283,0,0,1-.216-.046,1.026,1.026,0,0,0-.181-.075c-.115-.037-.189-.041-.338.2-.132.21-.231.392-.8,1.452l-.4.739a3.055,3.055,0,0,1-1.865,1.785A2.511,2.511,0,0,1,511.691,549.228Zm-.622-6.883a.545.545,0,0,1-.039.52c-.1.217-.2.4-.684,1.3l-.646,1.193a2.524,2.524,0,0,0-.37,2.068,2.427,2.427,0,0,0,1.22,1.242,2.239,2.239,0,0,0,1.625.268,2.856,2.856,0,0,0,1.7-1.663l.4-.739c.577-1.066.677-1.249.812-1.465a.6.6,0,0,1,.39-.33l-.209-.1c-.1-.05-.178-.088-.208-.1-.077-.046-.2-.123-.35-.207a.543.543,0,0,1-.04.52c-.109.234-.218.438-.783,1.48l-.469.863c-.416.77-.784,1.373-1.4,1.556a1.662,1.662,0,0,1-1.248-.153,1.574,1.574,0,0,1-.765-.813,2.374,2.374,0,0,1,.387-2.095l.525-.968c.577-1.066.676-1.249.811-1.465a.6.6,0,0,1,.391-.33l-.139-.07c-.149-.074-.285-.142-.361-.184s-.219-.124-.368-.21Z" transform="translate(-508.992 -541.816)"/></g><g transform="translate(25.62 30.936)"><path class="g" d="M540.235,560.541c.406-1.125.481-1.332.553-1.573.076-.257.047-.409-.1-.505a1.03,1.03,0,0,0-.255-.125c-.074-.028-.112-.059-.091-.118s.08-.038.2.007c.281.1.739.293.953.37.185.067.629.2.91.3.1.035.15.07.134.116s-.072.058-.145.031a1.208,1.208,0,0,0-.23-.058c-.213-.035-.317.068-.426.323-.1.231-.176.438-.582,1.562l-.471,1.3c-.26.718-.471,1.3-.556,1.631-.05.208-.046.359.165.468a3.1,3.1,0,0,0,.367.166c.081.03.11.065.1.1s-.087.053-.168.022c-.488-.176-.946-.365-1.146-.44-.169-.061-.643-.207-.939-.314-.1-.036-.14-.076-.122-.128s.052-.049.14-.017a1.339,1.339,0,0,0,.277.067c.159.023.248-.085.348-.293.15-.3.361-.879.621-1.6Z" transform="translate(-538.254 -558.068)"/><path class="g" d="M540.231,564.255a.387.387,0,0,1-.137-.028c-.318-.115-.626-.236-.857-.327-.121-.048-.22-.087-.289-.113s-.192-.065-.333-.11c-.2-.064-.432-.14-.6-.2-.235-.088-.214-.227-.194-.282s.09-.164.3-.09a1.229,1.229,0,0,0,.252.061c.062.01.116,0,.223-.226.149-.294.365-.893.616-1.586l.516-1.425c.363-1,.438-1.213.506-1.443.077-.26.017-.325-.052-.369a.906.906,0,0,0-.23-.113c-.2-.078-.19-.2-.165-.273a.163.163,0,0,1,.085-.094.355.355,0,0,1,.269.028c.15.054.353.135.541.21.161.064.312.124.41.16.083.03.22.074.371.123.183.059.385.125.539.18.178.064.248.155.208.27-.022.058-.093.18-.3.1a1.115,1.115,0,0,0-.209-.053c-.117-.019-.186,0-.293.252-.1.229-.178.445-.579,1.556l-.471,1.3c-.252.7-.469,1.3-.553,1.62-.047.2-.025.264.1.331a3.039,3.039,0,0,0,.352.16c.213.079.184.216.17.256a.181.181,0,0,1-.1.1A.219.219,0,0,1,540.231,564.255Zm-1.726-.868.185.06c.144.047.27.088.341.113s.172.066.295.115l.279.11a.536.536,0,0,1-.047-.458c.088-.337.3-.913.56-1.644l.471-1.3c.4-1.116.482-1.334.585-1.569a.6.6,0,0,1,.335-.384l-.131-.043c-.153-.049-.293-.095-.378-.125-.1-.036-.254-.1-.418-.163l-.147-.059a.624.624,0,0,1,.02.513c-.07.236-.146.446-.51,1.456l-.516,1.425c-.253.7-.472,1.305-.626,1.61A.619.619,0,0,1,538.5,563.387Z" transform="translate(-537.804 -557.62)"/></g><g transform="translate(29.992 32.443)"><path class="g" d="M559.054,570.733c-.111-.083-.124-.126-.085-.295.1-.421.236-.873.273-.995s.077-.191.139-.176.06.087.046.147a1.632,1.632,0,0,0-.023.407,1.084,1.084,0,0,0,.914,1.03.955.955,0,0,0,1.23-.634c.088-.373.056-.753-.462-1.4l-.288-.359a2.332,2.332,0,0,1-.709-2.079,1.6,1.6,0,0,1,2.108-1.033,3.823,3.823,0,0,1,.987.369c.066.031.1.063.086.117-.023.1-.106.315-.246.911-.04.169-.077.225-.139.21s-.066-.063-.044-.154a.954.954,0,0,0-.08-.554,1,1,0,0,0-.747-.569.828.828,0,0,0-1.1.575c-.082.352.031.661.553,1.292l.177.211c.763.913.968,1.52.8,2.246a1.587,1.587,0,0,1-1.032,1.165,2.28,2.28,0,0,1-1.291.028A2.717,2.717,0,0,1,559.054,570.733Z" transform="translate(-558.828 -565.157)"/><path class="g" d="M560.313,570.949a2.907,2.907,0,0,1-.665-.083,2.806,2.806,0,0,1-1.115-.481.33.33,0,0,1-.13-.419c.064-.276.156-.61.273-.993.064-.211.159-.3.285-.268.057.013.187.069.136.292a1.513,1.513,0,0,0-.02.372.977.977,0,0,0,.821.92.965.965,0,0,0,.753-.093.736.736,0,0,0,.331-.45c.084-.357.04-.7-.439-1.3l-.288-.359a2.469,2.469,0,0,1-.732-2.182,1.718,1.718,0,0,1,2.254-1.124,3.927,3.927,0,0,1,1.017.38.213.213,0,0,1,.147.251c-.007.032-.02.074-.038.134-.041.135-.11.362-.207.777-.025.1-.082.35-.284.3-.058-.013-.187-.07-.135-.3a.836.836,0,0,0-.071-.474.877.877,0,0,0-.665-.5.893.893,0,0,0-.635.054.638.638,0,0,0-.316.431c-.067.284,0,.545.529,1.188l.177.21a2.532,2.532,0,0,1,.824,2.352,1.715,1.715,0,0,1-1.109,1.251A2.081,2.081,0,0,1,560.313,570.949Zm-1.481-1.654q-.121.415-.193.726c-.028.12-.028.12.039.17h0a2.587,2.587,0,0,0,1.025.439,2.144,2.144,0,0,0,1.223-.024,1.478,1.478,0,0,0,.955-1.078c.162-.692-.048-1.272-.774-2.141l-.177-.21c-.528-.638-.674-.99-.579-1.4a.884.884,0,0,1,.436-.589,1.129,1.129,0,0,1,.805-.077,1.116,1.116,0,0,1,.828.635,1.036,1.036,0,0,1,.09.3c.071-.285.123-.457.157-.568.012-.038.021-.068.027-.092l-.013-.007a3.722,3.722,0,0,0-.963-.36c-.987-.231-1.776.148-1.963.943a2.233,2.233,0,0,0,.685,1.976l.288.359a1.616,1.616,0,0,1,.486,1.5.978.978,0,0,1-.439.6,1.321,1.321,0,0,1-1.943-1.018C558.834,569.354,558.833,569.324,558.832,569.295Z" transform="translate(-558.38 -564.712)"/></g><path class="g" d="M598.539,579.8c-.068-.042-.123-.061-.12-.1,0-.063.044-.076.161-.071.1.006.81.161,1.074.231a.786.786,0,0,1,.286.116.113.113,0,0,1,.026.1.516.516,0,0,1-.072.177,6.138,6.138,0,0,1-1.045.993c-.065.044-.139.111-.178.109a.046.046,0,0,1-.045-.05,1.148,1.148,0,0,1,.056-.17,1.945,1.945,0,0,0,.139-.7A.629.629,0,0,0,598.539,579.8Z" transform="translate(-559.919 -544.015)"/><g transform="translate(44.936 32.342)"><path class="g" d="M629.691,565.858c0-.136.034-.214.1-.225s.116.02.253.2l2.9,3.987,1.312-4.8c.039-.135.067-.2.136-.216s.13.056.182.214l1.562,4.657c.157.475.275.687.519.715a1.612,1.612,0,0,0,.494-.01c.07-.012.126-.014.133.032.012.063-.077.1-.185.121-.194.035-1.266.2-1.58.235-.18.017-.23,0-.24-.044s.02-.068.071-.1.05-.13-.021-.34l-1.076-3.322-.03,0-1.057,3.817c-.114.395-.139.472-.21.484s-.174-.129-.339-.339c-.249-.322-1.074-1.4-1.205-1.6-.1-.15-.737-1.043-1.113-1.574l-.031.005.15,3.152a3,3,0,0,0,.041.368c.026.148.139.2.277.206a1.44,1.44,0,0,0,.332-.02c.062-.011.119,0,.126.034.013.069-.054.1-.171.118-.326.058-.677.1-.817.122s-.514.117-.764.161c-.076.014-.141.009-.153-.06-.007-.038.037-.063.114-.077a.991.991,0,0,0,.228-.065c.209-.085.216-.4.208-.668Z" transform="translate(-629.158 -564.687)"/><path class="g" d="M628.924,571.588a.228.228,0,0,1-.131-.037.193.193,0,0,1-.081-.129.16.16,0,0,1,.026-.121.276.276,0,0,1,.186-.1.888.888,0,0,0,.2-.058c.13-.052.139-.308.131-.551l-.139-5.187c0-.268.121-.331.194-.345.151-.028.254.092.372.249l2.749,3.784,1.246-4.554c.038-.131.081-.277.233-.3.137-.026.244.075.317.294l1.562,4.657c.154.466.252.614.418.633a1.5,1.5,0,0,0,.46-.009.265.265,0,0,1,.207.025.162.162,0,0,1,.066.108.177.177,0,0,1-.03.132.371.371,0,0,1-.254.127c-.2.036-1.274.2-1.589.237-.134.013-.335.031-.371-.14a.215.215,0,0,1,.1-.211.686.686,0,0,0-.047-.215l-.967-2.988-.964,3.481c-.124.43-.157.545-.306.571s-.23-.1-.421-.341l-.034-.043c-.207-.268-1.072-1.393-1.212-1.6-.066-.1-.383-.547-.69-.979l-.214-.3.133,2.792a2.864,2.864,0,0,0,.039.352c.006.037.017.1.164.107a1.258,1.258,0,0,0,.3-.018c.175-.031.253.051.268.13.037.2-.193.246-.268.26-.2.035-.4.063-.569.086-.106.014-.194.026-.249.036s-.158.033-.27.058c-.16.035-.347.077-.494.1A.436.436,0,0,1,628.924,571.588Zm.439-6.183.139,5.183a1.067,1.067,0,0,1-.13.668l.075-.017c.116-.026.217-.048.279-.06s.149-.023.259-.038l.106-.015a.345.345,0,0,1-.21-.268,3.1,3.1,0,0,1-.043-.381l-.155-3.262.212-.035.463.653c.323.454.627.883.7.986.125.191.924,1.231,1.2,1.589l.033.042c.067.085.14.179.188.226.03-.072.074-.224.116-.373l1.078-3.892.209-.03,1.107,3.419a.621.621,0,0,1,.038.4l.026,0c.193-.02.677-.092,1.063-.152-.29-.075-.416-.387-.547-.784L634,564.611a.488.488,0,0,0-.052-.118c-.01.03-.029.092-.035.116l-1.379,5.038-3.044-4.19a1,1,0,0,0-.121-.142A.37.37,0,0,0,629.363,565.405Zm5.463,4.672,0,0Z" transform="translate(-628.71 -564.236)"/></g><g transform="translate(52.822 30.902)"><path class="g" d="M667.814,560.708c-.409-1.122-.486-1.329-.587-1.56s-.226-.344-.4-.322a1.073,1.073,0,0,0-.276.069c-.073.026-.124.027-.146-.031s.038-.082.156-.125c.28-.1.755-.249.97-.328.184-.067.611-.249.89-.352.1-.035.162-.042.177,0,.023.06-.016.09-.09.117a1.349,1.349,0,0,0-.213.1c-.187.111-.2.257-.12.522.071.242.146.448.557,1.57l.474,1.3c.262.716.475,1.3.621,1.606.095.192.195.306.427.255a3.532,3.532,0,0,0,.388-.109c.08-.029.126-.02.139.017s-.033.1-.113.126c-.489.177-.961.325-1.16.4-.171.062-.629.254-.924.362-.095.034-.156.031-.174-.02s.009-.071.1-.1a1.277,1.277,0,0,0,.254-.126c.137-.084.136-.226.079-.449-.076-.323-.289-.906-.55-1.622Z" transform="translate(-666.278 -557.91)"/><path class="g" d="M668.028,564.025a.217.217,0,0,1-.092-.019.18.18,0,0,1-.093-.1c-.019-.053-.038-.182.17-.257a1.13,1.13,0,0,0,.231-.114c.052-.032.089-.077.027-.317-.072-.306-.268-.845-.516-1.528l-.506-1.384c-.413-1.132-.486-1.33-.584-1.553-.107-.249-.2-.26-.276-.25a.949.949,0,0,0-.249.063c-.211.075-.281-.047-.3-.1-.063-.175.148-.252.228-.281.147-.053.346-.119.534-.181.172-.057.334-.11.437-.147.087-.031.228-.089.382-.151.172-.07.36-.146.508-.2a.333.333,0,0,1,.25-.018.164.164,0,0,1,.084.095.184.184,0,0,1,0,.146.257.257,0,0,1-.161.124,1.243,1.243,0,0,0-.193.094c-.1.061-.144.119-.064.382.07.236.135.416.555,1.563l.487,1.337c.258.707.462,1.265.6,1.56.089.181.149.22.292.189a3.427,3.427,0,0,0,.373-.1.263.263,0,0,1,.207-.006.168.168,0,0,1,.087.1c.011.031.053.19-.185.279-.294.106-.581.2-.807.278-.151.05-.275.092-.354.121s-.209.081-.358.141c-.188.075-.4.161-.565.221A.431.431,0,0,1,668.028,564.025Zm-.552-3.807.507,1.384c.251.69.449,1.236.524,1.553a.621.621,0,0,1-.009.454l.151-.061c.153-.061.289-.116.366-.144s.207-.072.361-.123l.221-.074a.535.535,0,0,1-.33-.322c-.147-.307-.353-.87-.614-1.583l-.487-1.337c-.406-1.11-.486-1.327-.559-1.577a.6.6,0,0,1,.012-.511l-.109.044c-.158.064-.3.123-.391.154-.1.038-.269.092-.443.15l-.133.044a.615.615,0,0,1,.344.381c.1.239.185.455.59,1.567Z" transform="translate(-665.826 -557.462)"/></g><g transform="translate(57.05 28.933)"><path class="g" d="M688.44,555.266c-.136.007-.176-.017-.255-.172-.193-.386-.378-.821-.428-.937s-.062-.2-.007-.225.1.028.13.084a1.71,1.71,0,0,0,.244.327,1.083,1.083,0,0,0,1.36.2.955.955,0,0,0,.538-1.275c-.173-.344-.441-.613-1.254-.777l-.45-.09a2.331,2.331,0,0,1-1.877-1.141,1.594,1.594,0,0,1,.952-2.143,3.839,3.839,0,0,1,.993-.351c.071-.016.117-.014.141.035.046.092.12.309.4.856.077.156.085.222.029.25s-.091-.006-.133-.091a.955.955,0,0,0-.416-.371,1,1,0,0,0-.939.041.828.828,0,0,0-.471,1.144c.163.324.448.487,1.254.636l.271.05c1.172.21,1.718.542,2.054,1.209a1.586,1.586,0,0,1-.044,1.555,2.273,2.273,0,0,1-.971.849A2.742,2.742,0,0,1,688.44,555.266Z" transform="translate(-686.169 -548.639)"/><path class="g" d="M687.965,554.942c-.18,0-.25-.076-.333-.239-.174-.348-.34-.732-.411-.9l-.021-.048c-.1-.243-.03-.341.05-.381a.185.185,0,0,1,.145-.013.271.271,0,0,1,.147.151,1.613,1.613,0,0,0,.224.3.976.976,0,0,0,1.217.177.831.831,0,0,0,.485-1.112c-.165-.328-.419-.561-1.17-.712l-.45-.091a2.467,2.467,0,0,1-1.961-1.2,1.482,1.482,0,0,1-.038-1.279,2.149,2.149,0,0,1,1.044-1.027,3.978,3.978,0,0,1,1.023-.362.218.218,0,0,1,.274.1c.014.028.031.067.054.122.055.13.147.347.343.734.052.1.159.321-.025.413-.043.021-.188.071-.3-.145a.833.833,0,0,0-.358-.315.877.877,0,0,0-.834.039.711.711,0,0,0-.418.981c.131.26.348.42,1.167.571l.271.05c1.2.215,1.781.56,2.14,1.273a1.71,1.71,0,0,1-.047,1.67,2.372,2.372,0,0,1-1.021.9,2.835,2.835,0,0,1-1.166.348h-.035Zm-.435-1.03c.083.188.2.444.317.682.056.109.055.11.14.106a2.61,2.61,0,0,0,1.069-.322,2.14,2.14,0,0,0,.922-.8,1.474,1.474,0,0,0,.04-1.438c-.32-.635-.853-.945-1.968-1.144l-.271-.05c-.813-.15-1.151-.327-1.339-.7a.946.946,0,0,1,.524-1.306,1.111,1.111,0,0,1,1.043-.043,1.041,1.041,0,0,1,.26.169c-.13-.268-.2-.434-.247-.542-.014-.034-.026-.061-.035-.083l-.019,0a3.755,3.755,0,0,0-.965.341,1.912,1.912,0,0,0-.931.907,1.227,1.227,0,0,0,.033,1.074,2.23,2.23,0,0,0,1.792,1.076l.45.09c.845.17,1.146.459,1.338.841a1.077,1.077,0,0,1-.592,1.437,1.2,1.2,0,0,1-1.5-.228Zm.979-4.551Z" transform="translate(-685.723 -548.193)"/></g><g transform="translate(61.388 26.291)"><path class="g" d="M709.457,542.781c-.136.025-.177.006-.274-.137-.244-.358-.484-.766-.548-.873s-.09-.187-.037-.222.1.013.14.066a1.625,1.625,0,0,0,.285.291,1.081,1.081,0,0,0,1.375.023.953.953,0,0,0,.366-1.333c-.217-.319-.518-.551-1.345-.606l-.458-.031a2.335,2.335,0,0,1-2.011-.883,1.6,1.6,0,0,1,.664-2.251,3.857,3.857,0,0,1,.938-.479c.067-.026.113-.029.144.017.058.085.159.29.505.8.1.143.113.208.06.244s-.091,0-.144-.073a.957.957,0,0,0-.461-.314,1,1,0,0,0-.925.166.826.826,0,0,0-.317,1.2c.2.3.508.425,1.327.467l.274.012c1.189.055,1.774.312,2.195.93a1.589,1.589,0,0,1,.16,1.547,2.284,2.284,0,0,1-.851.971A2.74,2.74,0,0,1,709.457,542.781Z" transform="translate(-706.584 -536.205)"/><path class="g" d="M708.933,542.462c-.134,0-.206-.067-.3-.2-.159-.233-.342-.526-.546-.87-.046-.079-.167-.287-.006-.394a.184.184,0,0,1,.144-.03.273.273,0,0,1,.165.131,1.514,1.514,0,0,0,.26.263,1.082,1.082,0,0,0,1.672-.6.731.731,0,0,0-.108-.547c-.207-.3-.488-.5-1.254-.554l-.458-.031a2.471,2.471,0,0,1-2.1-.936,1.718,1.718,0,0,1,.7-2.419,3.98,3.98,0,0,1,.966-.493.214.214,0,0,1,.285.063c.018.026.039.063.07.115.071.121.191.325.435.682a.421.421,0,0,1,.108.3.18.18,0,0,1-.08.117.178.178,0,0,1-.136.03.29.29,0,0,1-.175-.135.834.834,0,0,0-.4-.267.881.881,0,0,0-.821.151.87.87,0,0,0-.4.54.64.64,0,0,0,.112.487c.165.241.4.372,1.233.414l.273.012a2.529,2.529,0,0,1,2.29.983,1.714,1.714,0,0,1,.172,1.661,2.383,2.383,0,0,1-.894,1.024,2.831,2.831,0,0,1-1.11.5h0A.585.585,0,0,1,708.933,542.462Zm-.5-.969q.225.37.4.635c.069.1.07.1.152.086h0a2.611,2.611,0,0,0,1.018-.46,2.15,2.15,0,0,0,.808-.918,1.477,1.477,0,0,0-.149-1.431c-.4-.587-.969-.825-2.1-.877l-.274-.012c-.826-.042-1.185-.173-1.422-.519a.876.876,0,0,1-.15-.668,1.1,1.1,0,0,1,.5-.7,1.117,1.117,0,0,1,1.028-.182,1.059,1.059,0,0,1,.279.135c-.164-.248-.255-.4-.314-.5l-.047-.079-.015.005a3.762,3.762,0,0,0-.914.467,1.474,1.474,0,0,0-.632,2.083,2.234,2.234,0,0,0,1.919.83l.458.031a1.614,1.614,0,0,1,1.437.659.976.976,0,0,1,.146.727,1.323,1.323,0,0,1-2.063.744C708.48,541.534,708.457,541.515,708.433,541.493Z" transform="translate(-706.138 -535.758)"/></g><g transform="translate(65.817 21.939)"><path class="g" d="M728.455,521.331a3.029,3.029,0,0,1,.184-4.473,2.851,2.851,0,0,1,4.329-.1,3.109,3.109,0,0,1-.09,4.58A3,3,0,0,1,728.455,521.331Zm3.925-3.6c-1.227-1.264-2.715-1.342-3.64-.443-.65.63-1.038,1.709.325,3.113,1.14,1.173,2.692,1.475,3.776.423C733.235,520.44,733.962,519.361,732.38,517.731Z" transform="translate(-727.435 -515.697)"/><path class="g" d="M730.232,522.012q-.134,0-.27-.013a3.336,3.336,0,0,1-2.043-1h0a3.147,3.147,0,0,1,.186-4.644,2.986,2.986,0,0,1,4.5-.1,3.229,3.229,0,0,1-.093,4.751A3.257,3.257,0,0,1,730.232,522.012Zm-2.14-1.184a3.091,3.091,0,0,0,1.892.93,2.958,2.958,0,0,0,2.359-.928,2.988,2.988,0,0,0,.088-4.409,2.732,2.732,0,0,0-4.158.1,2.928,2.928,0,0,0-.181,4.3Zm2.745.339a3.287,3.287,0,0,1-2.309-1.1,2.8,2.8,0,0,1-.952-1.933,1.935,1.935,0,0,1,.629-1.351,2.226,2.226,0,0,1,1.8-.623,3.308,3.308,0,0,1,2.007,1.069c1.72,1.772.786,2.946.458,3.264A2.316,2.316,0,0,1,730.836,521.166Zm-1.068-4.778a1.979,1.979,0,0,0-1.394.567,1.7,1.7,0,0,0-.556,1.181,2.581,2.581,0,0,0,.884,1.761c1.172,1.206,2.62,1.375,3.6.42.367-.356,1.057-1.355-.463-2.922h0a3.072,3.072,0,0,0-1.859-1A2.124,2.124,0,0,0,729.768,516.388Z" transform="translate(-726.985 -515.278)"/></g><g transform="translate(70.044 14.765)"><path class="g" d="M749.745,487.891c-.989-.673-1.171-.795-1.388-.924s-.37-.155-.56.028a1.5,1.5,0,0,0-.193.241c-.049.071-.088.1-.134.071s-.026-.085.039-.184c.234-.344.532-.741.664-.936.105-.155.365-.579.524-.814.066-.1.11-.134.156-.1s.032.079-.013.143a1.372,1.372,0,0,0-.108.2c-.087.2-.012.325.206.492.2.155.382.278,1.372.949l.911.619c.943.641,1.468.72,1.944.578a1.457,1.457,0,0,0,.818-.632,1.545,1.545,0,0,0,.259-1.135c-.115-.6-.688-1.019-1.358-1.474l-.813-.552c-.988-.671-1.17-.795-1.387-.922s-.369-.156-.561.028a1.574,1.574,0,0,0-.179.221c-.048.071-.087.1-.133.071s-.028-.085.034-.177c.225-.332.522-.728.527-.734.052-.078.312-.5.483-.756.063-.091.107-.127.151-.1s.033.078-.02.156a1.25,1.25,0,0,0-.108.2c-.088.2-.012.325.207.493.2.154.381.279,1.37.949l.7.472a2.98,2.98,0,0,1,1.539,1.948,2.353,2.353,0,0,1-.451,1.67,2.525,2.525,0,0,1-1.429,1.14,2.581,2.581,0,0,1-2.117-.591Z" transform="translate(-747.324 -481.965)"/><path class="g" d="M751.936,488.85a3.194,3.194,0,0,1-1.759-.664l-.95-.644c-.975-.663-1.165-.791-1.381-.92s-.278-.12-.414.012a1.409,1.409,0,0,0-.176.221c-.126.182-.243.143-.3.1-.156-.109-.038-.285.006-.352.135-.2.291-.414.424-.6.1-.136.184-.255.24-.338s.122-.188.207-.322c.108-.17.228-.36.317-.492a.324.324,0,0,1,.191-.164.173.173,0,0,1,.133.029.177.177,0,0,1,.077.116.267.267,0,0,1-.06.2,1.2,1.2,0,0,0-.09.169c-.051.114-.061.188.163.361.2.154.4.29,1.366.945l.911.619c1,.679,1.475.671,1.841.562a1.328,1.328,0,0,0,.753-.583,1.444,1.444,0,0,0,.24-1.045c-.1-.542-.63-.937-1.307-1.4l-.871-.591c-.943-.641-1.114-.756-1.323-.879s-.279-.12-.416.011a1.447,1.447,0,0,0-.164.2c-.123.181-.241.142-.3.1a.171.171,0,0,1-.076-.112.315.315,0,0,1,.077-.233c.218-.321.522-.729.537-.746l.1-.165c.106-.168.258-.411.372-.579a.327.327,0,0,1,.19-.158.17.17,0,0,1,.13.03.173.173,0,0,1,.076.112.285.285,0,0,1-.066.211,1.146,1.146,0,0,0-.1.182c-.05.112-.049.182.169.349.193.15.367.269,1.365.946l.7.472a3.061,3.061,0,0,1,1.592,2.034,2.477,2.477,0,0,1-.471,1.751,2.6,2.6,0,0,1-1.5,1.189A1.9,1.9,0,0,1,751.936,488.85Zm-2.572-1.508.949.644a2.521,2.521,0,0,0,2.02.574,2.423,2.423,0,0,0,1.358-1.09,2.22,2.22,0,0,0,.431-1.589,2.862,2.862,0,0,0-1.487-1.861l-.7-.471c-1-.681-1.179-.8-1.377-.954a.6.6,0,0,1-.289-.422l-.133.212c-.055.088-.1.156-.116.184s-.115.154-.242.329a.542.542,0,0,1,.515.09c.215.127.386.243,1.335.887l.871.591c.724.491,1.287.917,1.409,1.551a1.663,1.663,0,0,1-.278,1.226,1.572,1.572,0,0,1-.884.68,2.373,2.373,0,0,1-2.046-.594l-.911-.619c-.97-.658-1.172-.795-1.377-.953a.6.6,0,0,1-.288-.423l-.092.145c-.086.136-.164.258-.211.328s-.145.205-.245.343l-.126.175a.541.541,0,0,1,.515.089c.222.132.414.262,1.394.928Z" transform="translate(-746.876 -481.516)"/></g><g transform="translate(74.127 10.101)"><path class="g" d="M769.033,463.842c-1.095-.477-1.3-.566-1.534-.653s-.392-.085-.545.131a1.57,1.57,0,0,0-.144.27c-.034.079-.069.117-.118.095s-.044-.078,0-.187c.166-.383.386-.827.452-.978.106-.246.325-.8.421-1.025a2.52,2.52,0,0,1,.89-1.189,1.36,1.36,0,0,1,1.2-.061,2.209,2.209,0,0,1,1.2,1.656c1.086-.289,1.945-.505,2.576-.736a1.564,1.564,0,0,0,.841-.593,1.08,1.08,0,0,0,.11-.193c.026-.058.06-.077.1-.06.058.024.05.081.012.167l-.3.685a1.6,1.6,0,0,1-.473.711,3.775,3.775,0,0,1-1.491.525c-.521.115-1.156.232-1.305.279a.164.164,0,0,0-.107.108l-.289.621a.055.055,0,0,0,.034.082l.1.044c.67.292,1.239.541,1.558.638.218.069.4.095.519-.108a3.656,3.656,0,0,0,.182-.341c.025-.058.06-.076.1-.062s.05.083.01.175c-.182.418-.437.942-.484,1.05-.06.138-.236.6-.362.889-.042.094-.084.135-.135.114s-.045-.055-.007-.142a1.445,1.445,0,0,0,.085-.271c.034-.157-.11-.262-.306-.383-.287-.168-.856-.416-1.519-.705Zm.941-.6c.079.034.114.032.157-.009a2.079,2.079,0,0,0,.311-.516.78.78,0,0,0,.1-.565,1.38,1.38,0,0,0-.895-.9,1.256,1.256,0,0,0-1.8.527,1.726,1.726,0,0,0-.138.394c-.007.058.015.084.072.109Z" transform="translate(-766.536 -460.014)"/><path class="g" d="M771.631,465.576a.194.194,0,0,1-.074-.015c-.054-.024-.161-.1-.072-.3a1.306,1.306,0,0,0,.077-.249c.014-.065-.049-.129-.251-.254-.285-.167-.877-.424-1.5-.7l-1.268-.554c-1.1-.478-1.293-.564-1.527-.65s-.3-.067-.4.088a1.515,1.515,0,0,0-.132.248.28.28,0,0,1-.14.163.176.176,0,0,1-.138,0c-.175-.078-.087-.279-.058-.346.1-.236.226-.5.321-.7.059-.123.106-.223.131-.281.055-.127.14-.338.223-.542s.152-.376.2-.484a2.633,2.633,0,0,1,.937-1.244,1.478,1.478,0,0,1,1.313-.069,2.264,2.264,0,0,1,1.234,1.62l.337-.089c.882-.233,1.578-.417,2.114-.613a1.463,1.463,0,0,0,.779-.541.966.966,0,0,0,.1-.177.225.225,0,0,1,.124-.13.173.173,0,0,1,.136.008.177.177,0,0,1,.1.1.291.291,0,0,1-.026.226l-.3.684a1.714,1.714,0,0,1-.509.758,3.827,3.827,0,0,1-1.539.548c-.224.049-.468.1-.687.143-.272.055-.529.108-.608.132-.011,0-.017,0-.033.041l-.264.568.047.02c.66.289,1.23.538,1.545.633.228.072.31.061.38-.055a3.514,3.514,0,0,0,.174-.326.192.192,0,0,1,.252-.127c.047.021.178.1.075.336-.119.273-.269.592-.373.811-.054.114-.094.2-.11.238-.025.057-.069.167-.12.3-.075.19-.167.421-.242.592C771.781,465.537,771.7,465.576,771.631,465.576Zm-4.827-3.012a.865.865,0,0,1,.292.064c.24.088.439.175,1.54.655l1.268.554c.633.276,1.231.536,1.532.712a.766.766,0,0,1,.355.343l.075-.19c.053-.134.1-.247.123-.3.016-.037.058-.126.113-.244.042-.089.092-.2.144-.308a.612.612,0,0,1-.506,0c-.327-.1-.9-.351-1.57-.643l-.1-.044a.174.174,0,0,1-.1-.239l.291-.627a.278.278,0,0,1,.184-.173c.088-.028.327-.076.629-.138.217-.044.46-.094.682-.143a3.68,3.68,0,0,0,1.442-.5,1.5,1.5,0,0,0,.437-.665l.121-.278a2.02,2.02,0,0,1-.729.433c-.547.2-1.248.385-2.136.62l-.567.15-.032-.115a2.123,2.123,0,0,0-1.131-1.578,1.243,1.243,0,0,0-1.087.052,2.419,2.419,0,0,0-.844,1.136c-.046.106-.12.289-.2.478-.084.206-.17.419-.225.547-.026.059-.074.162-.135.289l-.106.224A.4.4,0,0,1,766.8,462.564Zm2.81.374a.339.339,0,0,1-.133-.033h0l-2.191-.957a.21.21,0,0,1-.144-.235,1.747,1.747,0,0,1,.147-.427,1.3,1.3,0,0,1,.7-.676,1.61,1.61,0,0,1,1.256.087,1.473,1.473,0,0,1,.964.981.894.894,0,0,1-.108.64,2.177,2.177,0,0,1-.331.548A.231.231,0,0,1,769.614,462.937Zm-.037-.255.029.011a1.978,1.978,0,0,0,.281-.473c.122-.278.123-.355.093-.491-.041-.186-.2-.539-.825-.811a1.378,1.378,0,0,0-1.071-.084,1.052,1.052,0,0,0-.569.548,1.961,1.961,0,0,0-.126.343Z" transform="translate(-766.092 -459.566)"/></g><g transform="translate(76.487 5.504)"><path class="g" d="M780.124,440.68c-1.151-.325-1.364-.382-1.609-.436-.262-.057-.412-.017-.5.139a1.219,1.219,0,0,0-.106.265c-.02.075-.049.116-.109.1-.044-.013-.043-.078-.009-.2.081-.288.237-.758.3-.978.052-.19.156-.643.236-.931.028-.1.06-.155.1-.142.061.018.063.067.042.142a1.34,1.34,0,0,0-.041.233c-.02.215.093.313.353.4.238.082.45.142,1.6.465l1.333.374c.734.206,1.333.373,1.666.435.212.034.362.02.457-.2a3.372,3.372,0,0,0,.139-.377c.023-.085.057-.116.093-.1.053.015.059.081.036.166-.141.5-.3.97-.354,1.174-.05.174-.16.656-.246.962-.028.1-.066.145-.118.129s-.052-.047-.027-.139a1.243,1.243,0,0,0,.046-.28c.013-.162-.1-.242-.316-.326-.308-.128-.906-.3-1.641-.5Z" transform="translate(-777.647 -438.376)"/><path class="g" d="M782.967,441.975a.187.187,0,0,1-.053-.008c-.052-.015-.169-.074-.109-.287a1.126,1.126,0,0,0,.042-.253c0-.064-.01-.117-.239-.208-.306-.126-.919-.3-1.629-.5l-1.332-.373c-1.151-.324-1.36-.381-1.6-.435-.266-.058-.326.007-.365.078a1.084,1.084,0,0,0-.1.24c-.058.212-.2.2-.257.184-.178-.052-.117-.267-.095-.348.044-.157.11-.367.171-.562.051-.164.1-.316.128-.416.023-.082.055-.215.092-.362.047-.191.1-.4.144-.568a.329.329,0,0,1,.131-.212.164.164,0,0,1,.125-.014c.056.016.183.077.125.29a1.238,1.238,0,0,0-.037.214c-.01.109,0,.183.272.275.234.08.433.137,1.593.463l1.333.373c.795.223,1.339.374,1.655.432.2.033.266.007.324-.127a3.344,3.344,0,0,0,.134-.363.264.264,0,0,1,.115-.173.166.166,0,0,1,.129-.014c.03.008.184.066.118.313-.083.3-.172.579-.242.8-.049.157-.089.286-.112.37s-.057.22-.1.379c-.048.195-.1.416-.15.584a.314.314,0,0,1-.129.2A.18.18,0,0,1,782.967,441.975Zm-3.256-1.859,1.332.373c.718.2,1.337.374,1.655.506a.615.615,0,0,1,.362.272l.038-.154c.04-.162.076-.306.1-.387s.064-.215.114-.376l.065-.208a.535.535,0,0,1-.454.078c-.329-.061-.879-.213-1.68-.438l-1.333-.373c-1.166-.328-1.366-.385-1.606-.467a.6.6,0,0,1-.409-.31l-.038.153c-.037.15-.07.286-.093.37-.029.1-.078.258-.13.424l-.049.157a.623.623,0,0,1,.512-.058c.248.055.46.112,1.617.438Zm-2.375.087Z" transform="translate(-777.202 -437.928)"/></g><path class="g" d="M794.3,413.439c-.046.066-.067.12-.107.115-.063-.006-.074-.047-.063-.164s.2-.8.282-1.062a.738.738,0,0,1,.131-.279.1.1,0,0,1,.1-.023.46.46,0,0,1,.173.082,6.135,6.135,0,0,1,.942,1.091c.04.067.1.145.1.183a.045.045,0,0,1-.052.042,1.111,1.111,0,0,1-.168-.064,1.933,1.933,0,0,0-.694-.174A.624.624,0,0,0,794.3,413.439Z" transform="translate(-714.04 -412.025)"/></g><g transform="translate(13.659 58.187)"><path class="g" d="M423.149,415.1c.031-.075.04-.131.079-.136.062-.008.083.03.1.146.013.1-.019.827-.043,1.1a.737.737,0,0,1-.067.3.1.1,0,0,1-.09.042.468.468,0,0,1-.187-.041,6.138,6.138,0,0,1-1.157-.86c-.055-.055-.133-.118-.138-.157a.045.045,0,0,1,.041-.052,1.218,1.218,0,0,1,.177.026,1.975,1.975,0,0,0,.715.018A.625.625,0,0,0,423.149,415.1Z" transform="translate(-420.827 -414.337)"/><path class="h" d="M417.811,444.7c.016-.136.046-.171.211-.222.413-.128.872-.238,1-.268s.2-.031.222.029-.044.1-.1.114a1.717,1.717,0,0,0-.362.187,1.084,1.084,0,0,0-.426,1.309.956.956,0,0,0,1.169.741c.368-.114.678-.334.973-1.109l.163-.428c.39-1.027.828-1.475,1.435-1.664a1.6,1.6,0,0,1,1.958,1.3,3.82,3.82,0,0,1,.182,1.038c.006.071-.005.117-.057.133-.1.031-.325.068-.912.25-.165.051-.232.046-.251-.013s.022-.089.112-.116a.966.966,0,0,0,.435-.351,1,1,0,0,0,.114-.933.828.828,0,0,0-1.051-.653c-.345.107-.554.362-.834,1.132l-.093.259c-.4,1.12-.82,1.6-1.533,1.825a1.59,1.59,0,0,1-1.526-.3,2.268,2.268,0,0,1-.677-1.1A2.728,2.728,0,0,1,417.811,444.7Z" transform="translate(-417.797 -436.675)"/><path class="h" d="M433.331,463.18l-.536-1.043c-.211-.4-.329-.557-.536-.589a.922.922,0,0,0-.306,0c-.064.013-.1.006-.123-.038s0-.08.082-.117c.114-.054.823-.231.887-.244.1-.023.155-.022.175.02a1.761,1.761,0,0,0,.062.346c.077.215.193.491.3.726l1.35,2.8a3.859,3.859,0,0,0,.27.472,1.5,1.5,0,0,1,.127.174c.024.05-.014.077-.12.128-.15.072-.648.286-.833.374-.074.026-.124.034-.144-.008-.028-.058,0-.089.1-.148l.074-.042c.178-.1.284-.391,0-1.029l-.408-.9-2.906,1.4c-.652.313-1.211.582-1.5.764-.188.117-.324.234-.249.461a3.1,3.1,0,0,0,.146.374c.037.078.033.124,0,.141s-.1-.024-.136-.1c-.225-.467-.418-.925-.514-1.122-.079-.163-.314-.6-.451-.882-.044-.093-.047-.152,0-.176.035-.017.07,0,.112.087a1.224,1.224,0,0,0,.15.24c.1.129.273.1.488.02.314-.109.875-.378,1.526-.691Z" transform="translate(-425.921 -450.7)"/><path class="h" d="M438.787,496.426a.473.473,0,0,1,.657.166.453.453,0,0,1-.145.646.479.479,0,0,1-.682-.16A.458.458,0,0,1,438.787,496.426Z" transform="translate(-434.135 -478.439)"/><path class="h" d="M454.966,505.146c-.772.645-1.187.995-1.19,1.211-.005.179.085.37.478.841.268.319.47.55.759.564a.982.982,0,0,0,.494-.146c.059-.039.105-.058.146-.009s.01.074-.063.134a6.5,6.5,0,0,1-.769.49c-.163.074-.218.069-.481-.245-.363-.434-.613-.758-.834-1.034s-.391-.5-.6-.751c-.055-.067-.166-.2-.293-.339s-.259-.286-.36-.407c-.065-.078-.082-.136-.041-.171s.068-.016.129.055a1.31,1.31,0,0,0,.206.2c.126.1.283.02.478-.1.279-.181.755-.581,1.31-1.045l1.062-.888c.917-.766,1.086-.907,1.268-1.081s.252-.314.127-.547a1.158,1.158,0,0,0-.148-.214c-.055-.066-.074-.114-.031-.149s.09,0,.165.088c.237.284.537.68.674.841.12.145.507.57.7.805.071.085.094.137.052.172s-.085.01-.145-.063a2.179,2.179,0,0,0-.215-.22c-.166-.138-.309-.1-.53.064-.2.149-.373.291-1.289,1.057Z" transform="translate(-444.883 -482.487)"/><path class="h" d="M476.693,526.157a3.028,3.028,0,0,1,4.469-.261,2.851,2.851,0,0,1,.531,4.3,3.108,3.108,0,0,1-4.566.364A3,3,0,0,1,476.693,526.157Zm3.972,3.548c1.135-1.347,1.065-2.837.08-3.667-.691-.583-1.8-.864-3.066.632-1.055,1.25-1.2,2.825-.047,3.8C478.053,530.823,479.2,531.441,480.665,529.705Z" transform="translate(-463.575 -501.022)"/><path class="h" d="M510.587,544.736c.569-1.052.675-1.245.78-1.473s.118-.384-.084-.555a1.618,1.618,0,0,0-.258-.167c-.076-.041-.11-.078-.084-.126s.082-.036.186.021c.366.2.791.456,1,.568.166.09.613.3.861.439.1.056.145.1.119.145s-.075.039-.144,0a1.1,1.1,0,0,0-.212-.087c-.205-.068-.324.02-.469.255-.133.214-.238.407-.807,1.458l-.525.968c-.543,1-.571,1.533-.381,1.992a1.449,1.449,0,0,0,.71.752,1.542,1.542,0,0,0,1.157.144c.586-.173.944-.784,1.329-1.5l.469-.863c.569-1.05.673-1.246.78-1.474s.118-.384-.084-.555a1.5,1.5,0,0,0-.238-.155c-.076-.042-.11-.077-.084-.126s.082-.037.18.017c.353.19.777.447.783.451.083.045.529.26.8.406.1.05.138.092.111.14s-.074.04-.158-.006a1.207,1.207,0,0,0-.212-.087c-.2-.066-.324.021-.469.256-.134.214-.239.407-.808,1.458l-.4.739a2.974,2.974,0,0,1-1.784,1.724,2.342,2.342,0,0,1-1.708-.28,2.528,2.528,0,0,1-1.276-1.308,2.584,2.584,0,0,1,.378-2.166Z" transform="translate(-490.062 -514.686)"/><path class="h" d="M540.235,560.541c.406-1.125.481-1.332.553-1.573.076-.257.047-.409-.1-.505a1.03,1.03,0,0,0-.255-.125c-.074-.028-.112-.059-.091-.118s.08-.038.2.007c.281.1.739.293.953.37.185.067.629.2.91.3.1.035.15.07.134.116s-.072.058-.145.031a1.208,1.208,0,0,0-.23-.058c-.213-.035-.317.068-.426.323-.1.231-.176.438-.582,1.562l-.471,1.3c-.26.718-.471,1.3-.556,1.631-.05.208-.046.359.165.468a3.1,3.1,0,0,0,.367.166c.081.03.11.065.1.1s-.087.053-.168.022c-.488-.176-.946-.365-1.146-.44-.169-.061-.643-.207-.939-.314-.1-.036-.14-.076-.122-.128s.052-.049.14-.017a1.339,1.339,0,0,0,.277.067c.159.023.248-.085.348-.293.15-.3.361-.879.621-1.6Z" transform="translate(-512.754 -527.133)"/><path class="h" d="M559.054,570.733c-.111-.083-.124-.126-.085-.295.1-.421.236-.873.273-.995s.077-.191.139-.176.06.087.046.147a1.632,1.632,0,0,0-.023.407,1.084,1.084,0,0,0,.914,1.03.955.955,0,0,0,1.23-.634c.088-.373.056-.753-.462-1.4l-.288-.359a2.332,2.332,0,0,1-.709-2.079,1.6,1.6,0,0,1,2.108-1.033,3.823,3.823,0,0,1,.987.369c.066.031.1.063.086.117-.023.1-.106.315-.246.911-.04.169-.077.225-.139.21s-.066-.063-.044-.154a.954.954,0,0,0-.08-.554,1,1,0,0,0-.747-.569.828.828,0,0,0-1.1.575c-.082.352.031.661.553,1.292l.177.211c.763.913.968,1.52.8,2.246a1.587,1.587,0,0,1-1.032,1.165,2.28,2.28,0,0,1-1.291.028A2.717,2.717,0,0,1,559.054,570.733Z" transform="translate(-528.957 -532.714)"/><path class="g" d="M598.539,579.8c-.068-.042-.123-.061-.12-.1,0-.063.044-.076.161-.071.1.006.81.161,1.074.231a.786.786,0,0,1,.286.116.113.113,0,0,1,.026.1.516.516,0,0,1-.072.177,6.138,6.138,0,0,1-1.045.993c-.065.044-.139.111-.178.109a.046.046,0,0,1-.045-.05,1.148,1.148,0,0,1,.056-.17,1.945,1.945,0,0,0,.139-.7A.629.629,0,0,0,598.539,579.8Z" transform="translate(-560.04 -544.015)"/><path class="h" d="M629.691,565.858c0-.136.034-.214.1-.225s.116.02.253.2l2.9,3.987,1.312-4.8c.039-.135.067-.2.136-.216s.13.056.182.214l1.562,4.657c.157.475.275.687.519.715a1.612,1.612,0,0,0,.494-.01c.07-.012.126-.014.133.032.012.063-.077.1-.185.121-.194.035-1.266.2-1.58.235-.18.017-.23,0-.24-.044s.02-.068.071-.1.05-.13-.021-.34l-1.076-3.322-.03,0-1.057,3.817c-.114.395-.139.472-.21.484s-.174-.129-.339-.339c-.249-.322-1.074-1.4-1.205-1.6-.1-.15-.737-1.043-1.113-1.574l-.031.005.15,3.152a3,3,0,0,0,.041.368c.026.148.139.2.277.206a1.44,1.44,0,0,0,.332-.02c.062-.011.119,0,.126.034.013.069-.054.1-.171.118-.326.058-.677.1-.817.122s-.514.117-.764.161c-.076.014-.141.009-.153-.06-.007-.038.037-.063.114-.077a.991.991,0,0,0,.228-.065c.209-.085.216-.4.208-.668Z" transform="translate(-584.344 -532.345)"/><path class="h" d="M667.814,560.708c-.409-1.122-.486-1.329-.587-1.56s-.226-.344-.4-.322a1.073,1.073,0,0,0-.276.069c-.073.026-.124.027-.146-.031s.038-.082.156-.125c.28-.1.755-.249.97-.328.184-.067.611-.249.89-.352.1-.035.162-.042.177,0,.023.06-.016.09-.09.117a1.349,1.349,0,0,0-.213.1c-.187.111-.2.257-.12.522.071.242.146.448.557,1.57l.474,1.3c.262.716.475,1.3.621,1.606.095.192.195.306.427.255a3.532,3.532,0,0,0,.388-.109c.08-.029.126-.02.139.017s-.033.1-.113.126c-.489.177-.961.325-1.16.4-.171.062-.629.254-.924.362-.095.034-.156.031-.174-.02s.009-.071.1-.1a1.277,1.277,0,0,0,.254-.126c.137-.084.136-.226.079-.449-.076-.323-.289-.906-.55-1.622Z" transform="translate(-613.577 -527.007)"/><path class="h" d="M688.44,555.266c-.136.007-.176-.017-.255-.172-.193-.386-.378-.821-.428-.937s-.062-.2-.007-.225.1.028.13.084a1.71,1.71,0,0,0,.244.327,1.083,1.083,0,0,0,1.36.2.955.955,0,0,0,.538-1.275c-.173-.344-.441-.613-1.254-.777l-.45-.09a2.331,2.331,0,0,1-1.877-1.141,1.594,1.594,0,0,1,.952-2.143,3.839,3.839,0,0,1,.993-.351c.071-.016.117-.014.141.035.046.092.12.309.4.856.077.156.085.222.029.25s-.091-.006-.133-.091a.955.955,0,0,0-.416-.371,1,1,0,0,0-.939.041.828.828,0,0,0-.471,1.144c.163.324.448.487,1.254.636l.271.05c1.172.21,1.718.542,2.054,1.209a1.586,1.586,0,0,1-.044,1.555,2.273,2.273,0,0,1-.971.849A2.742,2.742,0,0,1,688.44,555.266Z" transform="translate(-629.24 -519.706)"/><path class="h" d="M709.457,542.781c-.136.025-.177.006-.274-.137-.244-.358-.484-.766-.548-.873s-.09-.187-.037-.222.1.013.14.066a1.625,1.625,0,0,0,.285.291,1.081,1.081,0,0,0,1.375.023.953.953,0,0,0,.366-1.333c-.217-.319-.518-.551-1.345-.606l-.458-.031a2.335,2.335,0,0,1-2.011-.883,1.6,1.6,0,0,1,.664-2.251,3.857,3.857,0,0,1,.938-.479c.067-.026.113-.029.144.017.058.085.159.29.505.8.1.143.113.208.06.244s-.091,0-.144-.073a.957.957,0,0,0-.461-.314,1,1,0,0,0-.925.166.826.826,0,0,0-.317,1.2c.2.3.508.425,1.327.467l.274.012c1.189.055,1.774.312,2.195.93a1.589,1.589,0,0,1,.16,1.547,2.284,2.284,0,0,1-.851.971A2.74,2.74,0,0,1,709.457,542.781Z" transform="translate(-645.318 -509.915)"/><path class="h" d="M728.455,521.331a3.029,3.029,0,0,1,.184-4.473,2.851,2.851,0,0,1,4.329-.1,3.109,3.109,0,0,1-.09,4.58A3,3,0,0,1,728.455,521.331Zm3.925-3.6c-1.227-1.264-2.715-1.342-3.64-.443-.65.63-1.038,1.709.325,3.113,1.14,1.173,2.692,1.475,3.776.423C733.235,520.44,733.962,519.361,732.38,517.731Z" transform="translate(-661.739 -493.758)"/><path class="h" d="M749.745,487.891c-.989-.673-1.171-.795-1.388-.924s-.37-.155-.56.028a1.5,1.5,0,0,0-.193.241c-.049.071-.088.1-.134.071s-.026-.085.039-.184c.234-.344.532-.741.664-.936.105-.155.365-.579.524-.814.066-.1.11-.134.156-.1s.032.079-.013.143a1.372,1.372,0,0,0-.108.2c-.087.2-.012.325.206.492.2.155.382.278,1.372.949l.911.619c.943.641,1.468.72,1.944.578a1.457,1.457,0,0,0,.818-.632,1.545,1.545,0,0,0,.259-1.135c-.115-.6-.688-1.019-1.358-1.474l-.813-.552c-.988-.671-1.17-.795-1.387-.922s-.369-.156-.561.028a1.574,1.574,0,0,0-.179.221c-.048.071-.087.1-.133.071s-.028-.085.034-.177c.225-.332.522-.728.527-.734.052-.078.312-.5.483-.756.063-.091.107-.127.151-.1s.033.078-.02.156a1.25,1.25,0,0,0-.108.2c-.088.2-.012.325.207.493.2.154.381.279,1.37.949l.7.472a2.98,2.98,0,0,1,1.539,1.948,2.353,2.353,0,0,1-.451,1.67,2.525,2.525,0,0,1-1.429,1.14,2.581,2.581,0,0,1-2.117-.591Z" transform="translate(-677.402 -467.199)"/><path class="h" d="M769.033,463.842c-1.095-.477-1.3-.566-1.534-.653s-.392-.085-.545.131a1.57,1.57,0,0,0-.144.27c-.034.079-.069.117-.118.095s-.044-.078,0-.187c.166-.383.386-.827.452-.978.106-.246.325-.8.421-1.025a2.52,2.52,0,0,1,.89-1.189,1.36,1.36,0,0,1,1.2-.061,2.209,2.209,0,0,1,1.2,1.656c1.086-.289,1.945-.505,2.576-.736a1.564,1.564,0,0,0,.841-.593,1.08,1.08,0,0,0,.11-.193c.026-.058.06-.077.1-.06.058.024.05.081.012.167l-.3.685a1.6,1.6,0,0,1-.473.711,3.775,3.775,0,0,1-1.491.525c-.521.115-1.156.232-1.305.279a.164.164,0,0,0-.107.108l-.289.621a.055.055,0,0,0,.034.082l.1.044c.67.292,1.239.541,1.558.638.218.069.4.095.519-.108a3.656,3.656,0,0,0,.182-.341c.025-.058.06-.076.1-.062s.05.083.01.175c-.182.418-.437.942-.484,1.05-.06.138-.236.6-.362.889-.042.094-.084.135-.135.114s-.045-.055-.007-.142a1.445,1.445,0,0,0,.085-.271c.034-.157-.11-.262-.306-.383-.287-.168-.856-.416-1.519-.705Zm.941-.6c.079.034.114.032.157-.009a2.079,2.079,0,0,0,.311-.516.78.78,0,0,0,.1-.565,1.38,1.38,0,0,0-.895-.9,1.256,1.256,0,0,0-1.8.527,1.726,1.726,0,0,0-.138.394c-.007.058.015.084.072.109Z" transform="translate(-692.531 -449.912)"/><path class="h" d="M780.124,440.68c-1.151-.325-1.364-.382-1.609-.436-.262-.057-.412-.017-.5.139a1.219,1.219,0,0,0-.106.265c-.02.075-.049.116-.109.1-.044-.013-.043-.078-.009-.2.081-.288.237-.758.3-.978.052-.19.156-.643.236-.931.028-.1.06-.155.1-.142.061.018.063.067.042.142a1.34,1.34,0,0,0-.041.233c-.02.215.093.313.353.4.238.082.45.142,1.6.465l1.333.374c.734.206,1.333.373,1.666.435.212.034.362.02.457-.2a3.372,3.372,0,0,0,.139-.377c.023-.085.057-.116.093-.1.053.015.059.081.036.166-.141.5-.3.97-.354,1.174-.05.174-.16.656-.246.962-.028.1-.066.145-.118.129s-.052-.047-.027-.139a1.243,1.243,0,0,0,.046-.28c.013-.162-.1-.242-.316-.326-.308-.128-.906-.3-1.641-.5Z" transform="translate(-701.281 -432.872)"/><path class="g" d="M794.3,413.439c-.046.066-.067.12-.107.115-.063-.006-.074-.047-.063-.164s.2-.8.282-1.062a.738.738,0,0,1,.131-.279.1.1,0,0,1,.1-.023.46.46,0,0,1,.173.082,6.135,6.135,0,0,1,.942,1.091c.04.067.1.145.1.183a.045.045,0,0,1-.052.042,1.111,1.111,0,0,1-.168-.064,1.933,1.933,0,0,0-.694-.174A.624.624,0,0,0,794.3,413.439Z" transform="translate(-714.161 -412.025)"/></g><g transform="translate(8.347 8.346)"><path class="h" d="M439.375,270.606a46.575,46.575,0,1,1,32.933-13.641A46.269,46.269,0,0,1,439.375,270.606Zm0-92.086a45.512,45.512,0,1,0,45.511,45.513A45.564,45.564,0,0,0,439.375,178.519Z" transform="translate(-392.8 -177.457)"/><path class="h" d="M486.108,304.734a33.966,33.966,0,1,1,33.966-33.966A34,34,0,0,1,486.108,304.734Zm0-66.869a32.9,32.9,0,1,0,32.9,32.9A32.939,32.939,0,0,0,486.108,237.865Z" transform="translate(-439.533 -224.192)"/></g><g transform="translate(11.916 11.877)"><g transform="translate(0 35.963)"><path class="h" d="M416.53,366.113l-.437-.05.166-1.476,1.423.159-.575,5.11-.984-.111.066-.586-4.282-.481-.066.586-.984-.11.293-2.614.984.111-.062.551,4.281.48Z" transform="translate(-410.589 -364.321)"/><path class="h" d="M416.329,369.134l-1.465-.165.066-.586-3.8-.426-.066.585-1.465-.164.347-3.095,1.465.165-.062.551,3.8.427.123-1.089-.437-.05.219-1.956,1.9.213Zm-.93-.592.5.057.521-4.629-.942-.105-.112,1,.438.05-.231,2.05-4.762-.535.062-.551-.5-.057-.239,2.133.5.056.066-.586,4.763.535Z" transform="translate(-409.598 -363.33)"/></g><g transform="translate(0.951 31.04)"><path class="h" d="M422.2,343.066l-.646,2.587-.962-.24.144-.572-4.181-1.044-.142.571-.961-.239.646-2.587.96.24-.142.572,4.18,1.045.143-.572Z" transform="translate(-415.161 -341.249)"/><path class="h" d="M420.646,344.859l-1.431-.357.144-.572L415.647,343l-.142.571-1.431-.356.763-3.056,1.429.357-.142.572,3.711.928.143-.572,1.431.356Zm-.844-.709.492.123.529-2.117-.492-.122-.143.573-4.649-1.162.142-.572-.491-.123-.529,2.117.491.122.142-.571,4.651,1.162Z" transform="translate(-414.074 -340.162)"/></g><g transform="translate(2.111 24.334)"><path class="h" d="M427.831,314.771l-.987,2.437-.918-.371.222-.547-3.994-1.618-.222.546-.917-.371,1.93-4.767,1.326.537L423.712,312l-.408-.166-.594,1.465,1.6.645.513-1.267.8.325-.513,1.268,1.6.646.208-.515Z" transform="translate(-420.699 -309.766)"/><path class="h" d="M425.809,316.356l-1.366-.552.222-.547-3.546-1.437-.222.546-1.366-.552,2.112-5.216,1.774.718-.739,1.827-.408-.165-.412,1.016,1.148.464.514-1.267,1.25.506-.513,1.268,1.148.464.208-.515,1.366.556Zm-.736-.82.47.19.806-1.989-.47-.191-.208.515-2.045-.828.513-1.268-.353-.143-.513,1.266-2.045-.827.775-1.914.408.165.376-.93-.877-.355-1.749,4.318.469.19.222-.546,4.442,1.8Z" transform="translate(-419.531 -308.599)"/></g><g transform="translate(4.674 18.598)"><path class="h" d="M435.8,283.165l1.228.735-.763,1.275-.378-.225-.175.293,3.7,2.213.3-.506.851.509-1.351,2.257-.85-.509.285-.476-3.7-2.212-.175.293.378.225-.763,1.276-1.227-.735Z" transform="translate(-432.825 -282.833)"/><path class="h" d="M438.062,288.816l-1.266-.758.285-.475-2.9-1.737-.938,1.568-1.642-.984,2.888-4.828,1.643.984-.938,1.569,2.9,1.738.3-.506,1.266.758Zm-.6-.924.435.26,1.1-1.842-.436-.26-.3.506-4.112-2.461.423-.708.379.225.515-.86-.813-.487-2.391,4,.812.487.515-.86-.377-.225.423-.709,4.113,2.46Z" transform="translate(-431.596 -281.603)"/></g><g transform="translate(10.184 11.14)"><path class="h" d="M465.483,254.3l-1.83,1.889-.711-.69.41-.424-3.095-3-.41.424-.712-.691,3.579-3.692,1.027,1-1.034,1.067-.317-.307-1.1,1.136,1.237,1.2.952-.982.621.6-.952.983,1.236,1.2.387-.4Z" transform="translate(-458.794 -247.772)"/><path class="h" d="M462.391,255.259l-1.058-1.027.41-.424L459,251.147l-.41.424-1.059-1.028,3.916-4.039,1.375,1.333-1.37,1.414-.317-.307-.764.788.889.861.952-.982.968.938-.951.983.889.862.387-.4,1.058,1.026Zm-.374-1.037.364.353,1.494-1.541-.364-.353-.387.4-1.583-1.535.952-.983-.273-.265-.952.982-1.584-1.534,1.437-1.484.317.307.7-.719-.68-.659-3.242,3.345.364.354.41-.423,3.443,3.335Z" transform="translate(-457.527 -246.504)"/></g><g transform="translate(15.453 7.797)"><path class="h" d="M490.453,235.807l-.428,1.232-2.2,1.666-1.3.079-2.924-3.861.429-1.232,2.2-1.666,1.3-.078Zm-5.508-1.57,2.6,3.435,1.56-1.181-2.6-3.435Z" transform="translate(-483.328 -231.697)"/><path class="h" d="M485.4,238.109l-3.081-4.068.5-1.423,2.316-1.755,1.5-.09,3.081,4.068-.495,1.423-2.318,1.754Zm-2.538-4.153,2.768,3.655,1.1-.066,2.084-1.577.361-1.04-2.768-3.655-1.1.066-2.083,1.578Zm3.63,3.132-2.893-3.821,1.946-1.472,2.893,3.82Zm-2.216-3.727,2.309,3.05,1.175-.889-2.309-3.049Z" transform="translate(-482.324 -230.773)"/></g><g transform="translate(20.627 4.236)"><path class="h" d="M514.1,217.243l-.666,1.084,1.751,1.081.526-.27.452.881-1.385.711-2.509-1.761-.577.3.786,1.532.493-.253.453.881-2.339,1.2-.453-.882.525-.269-1.969-3.833-.524.27-.453-.882,3.61-1.853,1.284.127Zm-3.589-.279.787,1.533,1.4-.723-.785-1.531Z" transform="translate(-507.884 -214.93)"/><path class="h" d="M509.771,222.034l-.674-1.312.525-.269-1.748-3.4-.524.27-.674-1.312,3.888-2,1.486.147,1.117,2.177-.611.995,1.429.882.62-.318.673,1.311-1.73.888-2.509-1.761-.232.119.565,1.1.493-.253.674,1.311Zm-.023-1.1.232.451,1.909-.981-.232-.451-.493.253-1.007-1.963.922-.473,2.509,1.761,1.04-.534-.231-.451-.432.222-2.072-1.279.721-1.174-.872-1.7-1.082-.107-3.331,1.71.232.451.524-.27,2.19,4.264Zm.235-3.028-1.008-1.964,1.836-.942,1.006,1.962Zm-.357-1.754.566,1.1.974-.5-.565-1.1Z" transform="translate(-506.677 -214.012)"/></g><g transform="translate(30.686 1.089)"><path class="h" d="M560.12,205.5l-.1-.43,1.45-.33.316,1.4-5.014,1.141-.219-.966.575-.13-.955-4.2-.575.131-.219-.967,2.564-.583.22.965-.54.123.956,4.2Z" transform="translate(-555.09 -200.272)"/><path class="h" d="M555.519,206.495l-.327-1.438.575-.131-.848-3.73-.575.131-.327-1.439,3.036-.69.328,1.437-.541.123.849,3.729,1.069-.243-.1-.429,1.922-.437.423,1.867Zm.252-1.074.112.494,4.543-1.034-.21-.924-.978.222.1.429-2.012.458-1.063-4.673.54-.123-.113-.494-2.093.476.112.5.575-.131,1.063,4.674Z" transform="translate(-554.017 -199.199)"/></g><g transform="translate(37.394 0.122)"><path class="h" d="M590.071,202.153l-2.653.25-.094-.986.587-.055-.4-4.291-.588.057-.093-.987,2.654-.251.093.986-.587.056.4,4.289.587-.055Z" transform="translate(-586.562 -195.627)"/><path class="h" d="M586.223,201.69l-.14-1.467.587-.055-.358-3.809-.588.057-.139-1.469,3.135-.3.139,1.467-.587.056.359,3.808.587-.055.139,1.468Zm.388-1.031.048.5,2.171-.2-.048-.505-.587.055-.45-4.77.587-.056-.048-.5-2.172.205.048.5.588-.057.449,4.773Z" transform="translate(-585.585 -194.65)"/></g><g transform="translate(41.758)"><path class="h" d="M609.942,201.659l-2.627-.112.042-.991.589.025.184-4.3-.589-.025.043-.99,5.137.221-.061,1.429-1.485-.064.019-.44-1.579-.067-.074,1.72,1.367.059-.037.864-1.368-.058-.074,1.72.555.023Z" transform="translate(-607.063 -195.01)"/><path class="h" d="M609.239,200.977l-3.111-.132.063-1.475.589.026.164-3.821-.589-.025.064-1.474,5.62.242-.081,1.913-1.968-.084.019-.44-1.1-.047-.053,1.236,1.367.059-.058,1.347-1.368-.058-.053,1.237.555.023Zm-2.607-.595,2.144.091.022-.506-.555-.023.094-2.2,1.368.058.016-.381-1.367-.059.094-2.2,2.063.088-.019.44,1,.043.04-.946-4.654-.2-.022.507.589.025-.205,4.788-.589-.026Z" transform="translate(-606.128 -194.076)"/></g><g transform="translate(47.124 0.325)"><path class="h" d="M637.764,204.087l-5.05-.974.189-.973.579.112.815-4.231-.579-.112.188-.973,5.049.973-.271,1.405-1.46-.282.084-.432-1.587-.306-.326,1.691,1.378.265-.163.849-1.379-.265-.326,1.69,1.587.306.084-.433,1.458.282Z" transform="translate(-632.43 -196.654)"/><path class="h" d="M636.9,203.32l-5.525-1.065.281-1.448.579.112.724-3.756-.579-.112.28-1.448,5.524,1.065-.363,1.88-1.935-.373.084-.432-1.112-.214-.235,1.216,1.378.265-.254,1.325-1.379-.265-.235,1.215,1.112.215.084-.433,1.934.374Zm-4.958-1.448,4.575.882.18-.93-.984-.19-.084.433-2.061-.4.418-2.165,1.379.265.072-.374-1.378-.266.417-2.166,2.062.4-.084.432.985.19.18-.93-4.574-.882-.1.5.579.112-.907,4.706-.579-.112Z" transform="translate(-631.379 -195.604)"/></g><g transform="translate(55.287 3.641)"><path class="h" d="M677.3,213.228l-.734,5.5.536.247-.415.9-2.389-1.1.416-.9.5.233.066-.455-1.381-.637-.292.35.5.233-.416.9-2.387-1.1.416-.9.535.247,3.679-4.138Zm-2.907,3.256.868.4.327-1.72Z" transform="translate(-670.986 -212.305)"/><path class="h" d="M675.611,219.1l-2.828-1.305.6-1.3-.161-.074-.6,1.3-2.827-1.3.619-1.339.591.273,3.679-4.138,1.685.778-.734,5.5.594.274Zm-2.186-1.542,1.949.9.212-.46-.479-.221.734-5.5-1.035-.478-3.679,4.138-.478-.221-.213.461,1.948.9.213-.46-.57-.263.612-.735,1.714.791-.139.955-.578-.268Zm.821-1.418-1.448-.668,1.993-2.2Zm-.647-.831.288.133.108-.57Z" transform="translate(-669.796 -211.212)"/></g><g transform="translate(61.717 6.77)"><path class="h" d="M701.347,231.085l2.731-4,1.3.015,1.4.957.117.6.242-.357,1.239.844-.807,1.182-1.237-.844.247-.363-1.431-.978-2.429,3.559,1.432.977.248-.363,1.237.844-.4.584h-1.285l-2.123-1.45Z" transform="translate(-701.074 -226.84)"/><path class="h" d="M704.36,233.084h-1.487l-2.245-1.533-.566-1.4,2.877-4.216,1.506.018,1.546,1.055.025.129.051-.075,1.64,1.116-1.08,1.582-1.636-1.117.247-.363-1.033-.705-2.156,3.16,1.032.7.248-.363,1.637,1.116Zm-1.338-.484H704.1l.19-.279-.838-.571-.248.363-1.832-1.25,2.7-3.959,1.613,1.1-.137-.709-1.26-.86-1.1-.013-2.585,3.788.413,1.02Zm2.641-4.081.838.572.534-.782-.838-.571-.433.638v0Z" transform="translate(-700.062 -225.938)"/></g><g transform="translate(65.757 11.395)"><path class="h" d="M727.7,250.145l-2.484,4.961.426.408-.685.715-1.9-1.819.685-.715.4.383.211-.408-1.1-1.052-.39.236.4.384-.686.715-1.9-1.819.686-.715.424.408,4.826-2.715Zm-3.808,2.133.689.661.868-1.521Z" transform="translate(-720.34 -248.81)"/><path class="h" d="M723.7,255.463l-2.247-2.154.99-1.034-.127-.122-.991,1.032-2.247-2.154,1.021-1.065.469.451,4.826-2.715,1.339,1.283-2.484,4.961.472.452Zm-1.563-2.169,1.549,1.485.351-.366-.38-.364,2.484-4.961-.822-.788-4.826,2.715-.379-.364-.351.366,1.549,1.485.351-.366-.453-.435.819-.494,1.362,1.306-.443.855-.458-.439Zm1.237-1.074-1.15-1.1,2.6-1.433Zm-.341-1,.228.219.288-.5Z" transform="translate(-719.073 -247.703)"/></g><g transform="translate(70.697 15.605)"><path class="h" d="M747.4,276.367l-1.223-.452-2.261-3.109.8-.583.347.477,3.485-2.534-.346-.476.8-.583,2.261,3.109.053,1.3Zm1.989-5.046-3.486,2.533.84,1.155,3.485-2.533Z" transform="translate(-743.575 -268.769)"/><path class="h" d="M746.182,275.387l-1.413-.522-2.446-3.364,1.192-.867.347.477,3.094-2.25-.346-.476,1.192-.867,2.447,3.364.062,1.506Zm-1.108-.925,1.033.382,3.709-2.7-.045-1.1-2.076-2.854-.41.3.347.476-3.876,2.818-.347-.477-.41.3Zm.36-.367-1.125-1.546,3.878-2.817,1.123,1.546Zm-.449-1.44.555.764,3.094-2.249-.554-.763Z" transform="translate(-742.323 -267.517)"/></g><g transform="translate(74.166 21.397)"><path class="h" d="M762.464,303.707l-2.29-4.6.888-.441.262.528,3.856-1.921-.263-.526.888-.441,2.29,4.6-1.281.637-.661-1.331.394-.2-.719-1.446-1.542.767.625,1.257-.775.384-.625-1.256-1.542.768.72,1.447.394-.2.663,1.331Z" transform="translate(-759.85 -295.978)"/><path class="h" d="M761.152,302.83l-2.505-5.037,1.321-.657.262.528,3.423-1.7-.263-.527,1.322-.656,2.505,5.036-1.715.853-.877-1.764.394-.2-.5-1.013-1.108.552.625,1.258-1.208.6-.625-1.256-1.109.552.5,1.014.394-.2.879,1.764Zm-1.856-4.819,2.074,4.171.848-.421-.447-.9-.394.2-.936-1.88,1.975-.984.625,1.257.341-.169-.624-1.257,1.975-.983.934,1.879-.394.2.446.9.848-.422-2.074-4.171-.455.226.262.526-4.289,2.136-.262-.528Z" transform="translate(-758.647 -294.777)"/></g><g transform="translate(76.895 28.039)"><path class="h" d="M780.032,331.231l.571,2-.951.273-.162-.567-4.143,1.187.162.567-.952.273-.729-2.54.953-.273.156.545,2.706-.775-1.609-.508,1.087-1.318-2.707.774.163.567-.952.273-.725-2.529.953-.273.163.567,4.14-1.187-.162-.566.952-.273.562,1.962-1.146,1.334Z" transform="translate(-772.601 -327.145)"/><path class="h" d="M773.281,334.149l-.862-3,1.418-.406.156.545,1.7-.487-1.185-.374.82-.994-1.725.494.163.567-1.417.407-.858-2.994,1.419-.406.163.567,3.675-1.054-.162-.566,1.417-.407.664,2.32-.988,1.149,1.438.423.674,2.356-1.417.406-.162-.567-3.678,1.054.162.567Zm-.263-2.673.6,2.075.487-.14-.162-.567,4.608-1.321.162.568.486-.14-.468-1.635-1.9-.559,1.305-1.52-.459-1.6-.487.14.162.567-4.605,1.321-.163-.568-.488.14.591,2.064.487-.14-.163-.568,3.688-1.055-1.355,1.642,2.033.642-3.71,1.063-.156-.545Z" transform="translate(-771.491 -326.035)"/></g><g transform="translate(78.821 35.287)"><path class="h" d="M784.974,363.9l2-1.8-.063-.586.986-.1.273,2.557-.987.105-.054-.525-1.125,1,1.309.734-.061-.562.986-.1.279,2.627-.984.1-.063-.586-2.337-1.376-2.119.225.063.586-.984.106-.281-2.627.986-.106.059.564Z" transform="translate(-781.543 -361.137)"/><path class="h" d="M786.329,366.616l-.076-.706-2.164-1.274-1.8.191.063.586-1.466.157-.332-3.108,1.468-.157.059.564,1.8-.192,1.848-1.667-.076-.7,1.467-.156.324,3.038-1.469.156-.03-.3-.518.459.6.338-.036-.336,1.467-.156.33,3.108Zm-2.131-2.478,2.511,1.478.05.467.5-.054-.228-2.146-.5.054.084.787L784.6,363.6l1.732-1.537.077.753.5-.054-.221-2.076-.5.054.051.468-2.148,1.938-2.439.26-.059-.563-.5.054.229,2.145.5-.054-.063-.587Z" transform="translate(-780.556 -360.15)"/></g></g><g transform="translate(12.134 12.082)"><g transform="translate(0 35.975)"><path class="g" d="M416.53,366.113l-.437-.05.166-1.476,1.423.159-.575,5.11-.984-.111.066-.586-4.282-.481-.066.586-.984-.11.293-2.614.984.111-.062.551,4.281.48Z" transform="translate(-410.806 -364.538)"/><path class="f" d="M416.96,369.722l-1.075-.121.066-.586-4.192-.47-.066.586-1.075-.12.3-2.7,1.074.121-.062.551,4.191.47.167-1.48-.437-.05.176-1.566,1.513.169Zm-.974-.2.894.1.565-5.02-1.333-.149-.156,1.386.438.05-.187,1.66-4.371-.491.062-.551-.894-.1-.283,2.524.894.1.066-.586,4.372.491Z" transform="translate(-410.62 -364.352)"/></g><g transform="translate(0.972 31.074)"><path class="g" d="M422.2,343.066l-.646,2.587-.962-.24.144-.572-4.181-1.044-.142.571-.961-.239.646-2.587.96.24-.142.572,4.18,1.045.143-.572Z" transform="translate(-415.399 -341.487)"/><path class="f" d="M421.386,345.5l-1.05-.262.144-.572-4.092-1.022-.142.571-1.049-.261.668-2.675,1.048.262-.142.572,4.092,1.023.143-.572,1.049.261Zm-.94-.328.874.218.624-2.5-.873-.217-.143.572-4.268-1.067.142-.572-.872-.218-.624,2.5.873.217.142-.571,4.269,1.066Z" transform="translate(-415.196 -341.283)"/></g><g transform="translate(2.149 24.385)"><path class="g" d="M427.831,314.771l-.987,2.437-.918-.371.222-.547-3.994-1.618-.222.546-.917-.371,1.93-4.767,1.326.537L423.712,312l-.408-.166-.594,1.465,1.6.645.513-1.267.8.325-.513,1.268,1.6.646.208-.515Z" transform="translate(-420.955 -310.022)"/><path class="f" d="M426.649,317.049l-1-.405.222-.547-3.91-1.584-.222.546-1-.4L422.7,309.8l1.41.571-.592,1.462-.408-.166-.56,1.381,1.512.611.513-1.267.885.358-.514,1.268,1.512.612.208-.515,1,.408Zm-.884-.455.834.337.953-2.353-.834-.339-.208.515-1.681-.68.513-1.268-.717-.291-.513,1.267-1.68-.679.627-1.549.408.166.524-1.294-1.242-.5-1.9,4.683.833.337.222-.546,4.078,1.652Z" transform="translate(-420.736 -309.804)"/></g><g transform="translate(4.726 18.662)"><path class="g" d="M435.8,283.165l1.228.735-.763,1.275-.378-.225-.175.293,3.7,2.213.3-.506.851.509-1.351,2.257-.85-.509.285-.476-3.7-2.212-.175.293.378.225-.763,1.276-1.227-.735Z" transform="translate(-433.095 -283.103)"/><path class="f" d="M438.993,289.546l-.928-.556.285-.475-3.62-2.165-.129.215.378.225-.81,1.353-1.305-.782,2.686-4.49,1.306.781-.809,1.353-.378-.225-.129.215,3.619,2.166.3-.506.929.556Zm-.8-.587.772.462,1.3-2.179-.773-.462-.3.506-3.775-2.259.221-.371.378.225.716-1.2-1.15-.688-2.593,4.335,1.15.688.717-1.2-.378-.225.222-.371.039.023,3.737,2.235Z" transform="translate(-432.864 -282.872)"/></g><g transform="translate(10.244 11.213)"><path class="g" d="M465.483,254.3l-1.83,1.889-.711-.69.41-.424-3.095-3-.41.424-.712-.691,3.579-3.692,1.027,1-1.034,1.067-.317-.307-1.1,1.136,1.237,1.2.952-.982.621.6-.952.983,1.236,1.2.387-.4Z" transform="translate(-459.072 -248.05)"/><path class="f" d="M463.416,256.011l-.776-.753.41-.424-3.03-2.935-.41.424-.777-.754,3.642-3.757,1.093,1.059-1.1,1.132-.317-.307-1.037,1.071,1.172,1.134.952-.982.686.665-.951.983,1.171,1.135.387-.4.776.753Zm-.648-.755.646.627,1.767-1.824-.646-.627-.386.4-1.3-1.261.952-.983-.555-.538-.952.982-1.3-1.26,1.164-1.2.317.307.971-1-.962-.933-3.516,3.627.647.627.41-.424,3.16,3.061Z" transform="translate(-458.834 -247.813)"/></g><g transform="translate(15.456 7.795)"><path class="g" d="M490.453,235.807l-.428,1.232-2.2,1.666-1.3.079-2.924-3.861.429-1.232,2.2-1.666,1.3-.078Zm-5.508-1.57,2.6,3.435,1.56-1.181-2.6-3.435Z" transform="translate(-483.548 -231.899)"/><path class="f" d="M486.313,238.657l-2.953-3.9.441-1.268.011-.008,2.21-1.675,1.339-.08,2.954,3.9-.441,1.267-.011.008-2.212,1.674Zm-2.852-3.916,2.895,3.822,1.263-.076,2.179-1.649.415-1.2-2.895-3.822-1.264.076-2.177,1.65Zm3.887,2.822-2.656-3.508,1.633-1.235,2.656,3.507Zm-2.529-3.49,2.546,3.363,1.488-1.127-2.546-3.362Z" transform="translate(-483.36 -231.727)"/></g><g transform="translate(20.675 4.232)"><path class="g" d="M514.1,217.243l-.666,1.084,1.751,1.081.526-.27.452.881-1.385.711-2.509-1.761-.577.3.786,1.532.493-.253.453.881-2.339,1.2-.453-.882.525-.269-1.969-3.833-.524.27-.453-.882,3.61-1.853,1.284.127Zm-3.589-.279.787,1.533,1.4-.723-.785-1.531Z" transform="translate(-508.149 -215.131)"/><path class="f" d="M510.837,222.515l-.494-.962.525-.269-1.927-3.753-.523.27-.494-.962,3.662-1.88,1.322.131,1.018,1.983-.655,1.068,1.691,1.044.543-.279.493.962-1.449.744-2.509-1.761-.512.263.745,1.451.493-.253.494.961Zm-.372-.923.411.8,2.259-1.16-.411-.8-.493.253-.827-1.613.641-.329,2.509,1.761,1.32-.678-.411-.8-.508.261-1.811-1.118.676-1.1-.972-1.894-1.246-.123-3.557,1.826.411.8.524-.27,2.01,3.914Zm.585-3.207-.828-1.614,1.487-.763.827,1.612Zm-.706-1.574.745,1.452,1.324-.681-.744-1.451Z" transform="translate(-507.922 -214.959)"/></g><g transform="translate(30.704 1.119)"><path class="g" d="M560.12,205.5l-.1-.43,1.45-.33.316,1.4-5.014,1.141-.219-.966.575-.13-.955-4.2-.575.131-.219-.967,2.564-.583.22.965-.54.123.956,4.2Z" transform="translate(-555.325 -200.507)"/><path class="f" d="M556.539,207.131l-.24-1.055.575-.131-.935-4.113-.575.131-.239-1.056,2.652-.6.24,1.054-.54.123.936,4.113,1.453-.331-.1-.429,1.538-.35.337,1.484Zm-.131-.986.2.878,4.926-1.121-.3-1.307-1.361.31.1.429-1.629.371-.976-4.289.54-.123-.2-.877-2.476.562.2.879.575-.131.975,4.29Z" transform="translate(-555.124 -200.306)"/></g><g transform="translate(37.391 0.131)"><path class="g" d="M590.071,202.153l-2.653.25-.094-.986.587-.055-.4-4.291-.588.057-.093-.987,2.654-.251.093.986-.587.056.4,4.289.587-.055Z" transform="translate(-586.776 -195.841)"/><path class="f" d="M587.194,202.269l-.1-1.076.587-.055-.4-4.2-.588.057-.1-1.077,2.744-.259.1,1.076-.587.056.4,4.2.587-.055.1,1.077Zm0-.994.085.9,2.563-.242-.085-.9-.587.055-.413-4.379.587-.056-.085-.9-2.564.242.085.9.588-.057.412,4.381Z" transform="translate(-586.593 -195.658)"/></g><g transform="translate(41.746)"><path class="g" d="M609.942,201.659l-2.627-.112.042-.991.589.025.184-4.3-.589-.025.043-.99,5.137.221-.061,1.429-1.485-.064.019-.44-1.579-.067-.074,1.72,1.367.059-.037.864-1.368-.058-.074,1.72.555.023Z" transform="translate(-607.268 -195.215)"/><path class="f" d="M609.81,201.531l-2.718-.115.046-1.082.589.026.181-4.214-.589-.025.047-1.081.046,0,5.182.223-.064,1.52-1.575-.067.019-.44-1.489-.063-.07,1.629,1.367.059-.041.955-1.368-.058-.07,1.63.555.023Zm-2.623-.2,2.537.108.039-.9-.555-.023.077-1.811,1.368.058.033-.774-1.367-.059.077-1.81,1.67.071-.019.44,1.394.059.057-1.339-5.046-.217-.039.9.589.025,0,.045-.186,4.35-.589-.026Z" transform="translate(-607.092 -195.04)"/></g><g transform="translate(47.137 0.35)"><path class="g" d="M637.764,204.087l-5.05-.974.189-.973.579.112.815-4.231-.579-.112.188-.973,5.049.973-.271,1.405-1.46-.282.084-.432-1.587-.306-.326,1.691,1.378.265-.163.849-1.379-.265-.326,1.69,1.587.306.084-.433,1.458.282Z" transform="translate(-632.661 -196.884)"/><path class="f" d="M637.6,203.943l-.044-.009-5.094-.982.206-1.062.579.112.8-4.142-.579-.112.205-1.062,5.138.991-.289,1.494-1.549-.3.084-.432-1.5-.288-.309,1.6,1.378.266-.18.939-1.379-.265-.309,1.6,1.5.289.084-.433,1.547.3Zm-5.032-1.063,4.961.956.254-1.315-1.37-.265-.084.433-1.676-.324.343-1.779,1.379.265.146-.76-1.378-.265.343-1.78,1.676.323-.084.432,1.371.264.254-1.316-4.96-.956-.171.884.579.112-.008.045-.824,4.275-.579-.112Z" transform="translate(-632.464 -196.687)"/></g><g transform="translate(55.33 3.676)"><path class="g" d="M677.3,213.228l-.734,5.5.536.247-.415.9-2.389-1.1.416-.9.5.233.066-.455-1.381-.637-.292.35.5.233-.416.9-2.387-1.1.416-.9.535.247,3.679-4.138Zm-2.907,3.256.868.4.327-1.72Z" transform="translate(-671.247 -212.545)"/><path class="f" d="M676.481,219.728l-2.471-1.141.454-.982.489.227.053-.361-1.319-.609-.232.278.491.227-.454.981-2.47-1.14.454-.982.545.252,3.679-4.138,1.421.656,0,.033-.73,5.465.547.252Zm-2.351-1.185,2.307,1.065.377-.817-.525-.242,0-.033.73-5.465-1.3-.6-3.679,4.138-.524-.242-.378.817,2.3,1.064.378-.817-.516-.238.352-.422,1.443.666-.08.549-.517-.24Zm.936-1.8-.977-.45,1.344-1.485Zm-.827-.481.759.35.286-1.5Z" transform="translate(-671.023 -212.34)"/></g><g transform="translate(61.722 6.763)"><path class="g" d="M701.347,231.085l2.731-4,1.3.015,1.4.957.117.6.242-.357,1.239.844-.807,1.182-1.237-.844.247-.363-1.431-.978-2.429,3.559,1.432.977.248-.363,1.237.844-.4.584h-1.285l-2.123-1.45Z" transform="translate(-701.296 -227.037)"/><path class="f" d="M705.077,233.62h-1.323l-.011-.008-2.134-1.458-.5-1.243,2.758-4.042,1.342.016.011.008,1.418.968.1.514.206-.3,1.314.895-.858,1.257-1.311-.9.247-.363-1.357-.927-2.378,3.484,1.357.926.248-.363,1.312.895Zm-1.295-.091h1.247l.36-.527-1.163-.793-.248.363-1.507-1.028,2.48-3.634,1.506,1.029-.247.363,1.162.793.756-1.107-1.164-.793-.278.409-.134-.692-1.376-.939-1.266-.015-2.7,3.962.475,1.173Z" transform="translate(-701.105 -226.868)"/></g><g transform="translate(65.818 11.433)"><path class="g" d="M727.7,250.145l-2.484,4.961.426.408-.685.715-1.9-1.819.685-.715.4.383.211-.408-1.1-1.052-.39.236.4.384-.686.715-1.9-1.819.686-.715.424.408,4.826-2.715Zm-3.808,2.133.689.661.868-1.521Z" transform="translate(-720.618 -249.053)"/><path class="f" d="M724.72,256.085l-1.964-1.882.747-.781.389.372.168-.324-1.048-1-.31.187.39.375-.749.78-1.964-1.882.749-.781.433.416,4.826-2.715,1.129,1.082-.015.03-2.469,4.931.435.416Zm-1.836-1.885,1.833,1.757.623-.65-.417-.4.015-.03,2.469-4.931-1.032-.989-4.826,2.715-.416-.4-.623.65,1.833,1.757.623-.649-.41-.394.47-.284,1.147,1.1-.255.491-.411-.393Zm1.469-1.4-.776-.744,1.753-.967Zm-.624-.724.6.579.76-1.33Z" transform="translate(-720.381 -248.846)"/></g><g transform="translate(70.754 15.674)"><path class="g" d="M747.4,276.367l-1.223-.452-2.261-3.109.8-.583.347.477,3.485-2.534-.346-.476.8-.583,2.261,3.109.053,1.3Zm1.989-5.046-3.486,2.533.84,1.155,3.485-2.533Z" transform="translate(-743.85 -269.044)"/><path class="f" d="M747.169,276.183l-1.258-.465-2.3-3.157.874-.636.347.477,3.412-2.481-.347-.476.874-.636,2.3,3.157v.014l.054,1.327Zm-1.2-.541,1.187.439,3.879-2.819L750.982,272l-2.226-3.061-.728.529.347.476-.036.027-3.522,2.56-.347-.477-.728.529Zm.527-.805-.893-1.229,3.56-2.586.892,1.228-.036.027Zm-.767-1.209.787,1.082,3.412-2.48-.785-1.081Z" transform="translate(-743.615 -268.809)"/></g><g transform="translate(74.212 21.455)"><path class="g" d="M762.464,303.707l-2.29-4.6.888-.441.262.528,3.856-1.921-.263-.526.888-.441,2.29,4.6-1.281.637-.661-1.331.394-.2-.719-1.446-1.542.767.625,1.257-.775.384-.625-1.256-1.542.768.72,1.447.394-.2.663,1.331Z" transform="translate(-760.113 -296.241)"/><path class="f" d="M762.218,303.543l-.02-.041-2.31-4.644.969-.482.262.528,3.774-1.88-.262-.527.969-.481.02.041,2.31,4.644-1.362.678-.7-1.412.394-.2-.678-1.365-1.46.727.625,1.257-.856.424-.625-1.256-1.461.727.68,1.366.394-.2.7,1.412ZM760.01,298.9l2.249,4.522,1.2-.6-.622-1.25-.394.2-.761-1.528,1.624-.809.625,1.257.693-.343L764,299.091l1.623-.808.759,1.527-.394.2.621,1.25,1.2-.6-2.249-4.522-.807.4.263.526-3.937,1.961-.262-.528Z" transform="translate(-759.888 -296.016)"/></g><g transform="translate(76.921 28.077)"><path class="g" d="M780.032,331.231l.571,2-.951.273-.162-.567-4.143,1.187.162.567-.952.273-.729-2.54.953-.273.156.545,2.706-.775-1.609-.508,1.087-1.318-2.707.774.163.567-.952.273-.725-2.529.953-.273.163.567,4.14-1.187-.162-.566.952-.273.562,1.962-1.146,1.334Z" transform="translate(-772.844 -327.388)"/><path class="f" d="M774.318,334.808l-.753-2.627,1.04-.3.156.545,2.517-.721-1.53-.483,1.037-1.257-2.523.722.163.567-1.039.3-.75-2.616,1.04-.3.163.567,4.053-1.162-.162-.567,1.04-.3.581,2.029-1.117,1.3,1.627.478.59,2.064-1.039.3-.162-.567-4.056,1.162.162.567Zm-.641-2.565.7,2.453.864-.248-.162-.567,4.23-1.212.162.568.865-.248-.552-1.928-1.713-.5,1.176-1.369-.542-1.894-.865.248.162.567-4.227,1.212-.163-.568-.866.248.7,2.442.865-.248-.163-.568,2.891-.827-1.137,1.378,1.689.534-2.894.829-.156-.545Z" transform="translate(-772.636 -327.18)"/></g><g transform="translate(78.82 35.299)"><path class="g" d="M784.974,363.9l2-1.8-.063-.586.986-.1.273,2.557-.987.105-.054-.525-1.125,1,1.309.734-.061-.562.986-.1.279,2.627-.984.1-.063-.586-2.337-1.376-2.119.225.063.586-.984.106-.281-2.627.986-.106.059.564Z" transform="translate(-781.759 -361.353)"/><path class="f" d="M787.3,367.2l-.065-.609-2.3-1.357-2.059.219.063.586-1.075.115-.29-2.717,1.077-.115.059.564,2.06-.22,1.97-1.777-.066-.608,1.076-.115.282,2.647-1.077.115-.049-.482-1.011.9,1.177.66-.056-.519,1.076-.115.289,2.717Zm-2.35-2.059,2.37,1.4.06.564.894-.1-.27-2.536-.9.1.065.6-1.441-.808,1.239-1.1.058.568.9-.1-.263-2.466-.9.1.061.564-2.026,1.828-2.18.232-.059-.564-.9.1.271,2.537.894-.1-.063-.586Z" transform="translate(-781.573 -361.168)"/></g></g><g transform="translate(29.863 25.169)"><path class="g" d="M519.119,256.632l2.4,17.011,8.109-15.153-3.516,16.954,11.815-12.225L529.593,278.7l14.584-8.56L519.119,295.13,494.06,270.138l14.584,8.56-8.328-15.479,11.815,12.225-3.516-16.954,8.108,15.153Z" transform="translate(-494.06 -256.632)"/><path class="h" d="M519.119,366.194l25.059-46-25.059,24.992L494.06,320.2Z" transform="translate(-494.06 -306.69)"/><path class="h" d="M587.876,376.63a5.068,5.068,0,1,1,5.068,5.068,5.068,5.068,0,0,1-5.068-5.068Z" transform="translate(-567.942 -347.142)"/></g></g><g transform="translate(308 91.184)"><g transform="translate(0)"><g transform="translate(102.897 15.023)"><path class="f" d="M793.261,165.21l2.17,1.887,2.313-2.66.763.663-2.174,2.5c-.535.616-.872.6-1.487.069l-2.069-1.8c-.616-.535-.675-.865-.14-1.482l2.175-2.5.761.663Z" transform="translate(-792.271 -161.886)"/><path class="f" d="M819.547,186.751l2.509,2.745c.448.491.484.879.037,1.288l-.713.653c-.448.408-.832.338-1.28-.153l-1.839-2.013-1.248,1.14-.67-.733Zm.117,1.237-.852.778,1.533,1.676c.21.23.35.3.561.1l.341-.312c.211-.193.158-.338-.051-.568Z" transform="translate(-811.227 -181.468)"/><path class="f" d="M840.86,212.638l.595.816-2.845,2.078,1.919,2.628-.658.482-2.517-3.444Z" transform="translate(-827.776 -201.854)"/><path class="f" d="M857.863,238.4l.525.862-3.707,2.258-.526-.862Z" transform="translate(-841.006 -222.146)"/><path class="f" d="M867,255.184l1.967,3.927-.678.339-1.514-3.024-1.022.512.817,1.633-.707.354-.817-1.633-1.474.739-.452-.9Z" transform="translate(-848.065 -235.36)"/><path class="f" d="M877.606,283.436l-.361-.943,3.333-1.273-.712-1.862.723-.276,1.787,4.676-.724.276-.715-1.869Z" transform="translate(-859.19 -254.18)"/><path class="f" d="M888.99,311.176l1.142,4.291-.715.191-.883-3.316-.934.248.515,1.935-.716.19-.515-1.935-1.04.277.893,3.357-.788.21-1.154-4.333Z" transform="translate(-865.136 -279.455)"/><path class="f" d="M896.8,345.156l.389,2.765c.228,1.609-.443,2.571-1.777,2.759a2.1,2.1,0,0,1-1.976-.69,3.426,3.426,0,0,1-.582-1.719l-.354-2.508Zm-3.169,2.783c.179,1.267.585,1.855,1.651,1.7a1.24,1.24,0,0,0,1.142-1.6l-.25-1.775-2.725.384Z" transform="translate(-871.206 -306.215)"/></g><g transform="translate(0 12.096)"><path class="f" d="M308,353.552l.521-4.411.735.086-.4,3.409.96.113.235-1.988.735.087-.234,1.989,1.069.126.408-3.451.81.1-.525,4.453Z" transform="translate(-308 -306.427)"/><path class="f" d="M312.921,317.847l.66-2.714c.383-1.578,1.362-2.223,2.67-1.9a2.1,2.1,0,0,1,1.58,1.371,3.417,3.417,0,0,1-.095,1.813l-.6,2.46Zm3.971-1.416c.3-1.242.142-1.938-.9-2.193a1.241,1.241,0,0,0-1.654,1.07l-.423,1.741,2.673.65Z" transform="translate(-311.875 -278.082)"/><path class="f" d="M326.708,281.2l1.031-2.686-3.291-1.263.363-.943L327.9,277.5c.762.292.865.611.573,1.372l-.984,2.56c-.292.762-.582.93-1.344.637l-3.093-1.188.362-.941Z" transform="translate(-319.857 -249.072)"/><path class="f" d="M339.851,247.459l2.425,1.3,1.286-2.4-.823-.441.662-.79.452.241c.72.385.782.715.4,1.434l-1.222,2.284c-.386.719-.694.849-1.413.465l-2.018-1.08c-.719-.384-.781-.715-.4-1.433l1.222-2.285c.385-.72.694-.85,1.413-.464l.363.193-.335.966-.726-.389Z" transform="translate(-332.387 -223.684)"/><path class="f" d="M359.984,221.593l.556-.8,4.986.433-.648.933-1.078-.114-1.571,2.258.493.957-.576.829Zm2.933.349-1.983-.242.9,1.8Z" transform="translate(-348.939 -205.349)"/><path class="f" d="M376.881,194.638l-.652.771-2.724-2.3-1.287,1.523-.591-.5,3.232-3.822.591.5-1.293,1.529Z" transform="translate(-358.108 -181.341)"/><path class="f" d="M394.17,171.284l3.208-3.073.512.535-2.479,2.374.669.7,1.445-1.384.513.535-1.446,1.385.745.778,2.509-2.4.564.589-3.238,3.1Z" transform="translate(-375.861 -163.941)"/><path class="f" d="M420,150.445l2.237-1.673c1.3-.973,2.467-.847,3.273.232a2.1,2.1,0,0,1,.346,2.063,3.425,3.425,0,0,1-1.227,1.337l-2.029,1.517Zm3.964,1.437c1.024-.766,1.345-1.405.7-2.267a1.241,1.241,0,0,0-1.957-.229l-1.434,1.074,1.647,2.2Z" transform="translate(-396.204 -148.113)"/></g><g transform="translate(34.258)"><path class="f" d="M469.23,119.5l3.992-1.945.324.665-3.085,1.5.424.871,1.8-.877.324.666-1.8.876.471.968,3.123-1.522.357.734-4.03,1.964Z" transform="translate(-469.23 -111.955)"/><path class="f" d="M501.1,105.3l.773-.262,2.78,1.829,1.053-3.127.765-.26,1.394,4.111-.885.3-.862-2.541a4.61,4.61,0,0,1-.116-.45,3.068,3.068,0,0,1-.094.512l-.849,2.579-.191.066-2.246-1.54a1.927,1.927,0,0,1-.389-.338c.073.162.126.294.172.43l.862,2.541-.773.262Z" transform="translate(-494.328 -100.866)"/><path class="f" d="M541.14,96.829l3.643-.745c.652-.133,1,.035,1.125.629l.193.948c.121.594-.137.887-.788,1.02l-2.67.546.338,1.657-.972.2Zm1.122.535.231,1.13,2.226-.455c.3-.063.433-.149.375-.43L545,97.157c-.058-.28-.209-.31-.514-.247Z" transform="translate(-525.861 -95.01)"/><path class="f" d="M576,92.247l3.185-.256c.814-.066,1.09.122,1.156.936l.183,2.28c.067.813-.177,1.043-.99,1.109l-3.185.255c-.815.066-1.091-.122-1.156-.936l-.183-2.28C574.948,92.543,575.19,92.313,576,92.247Zm3.535,3.25-.219-2.74-3.32.267.22,2.742Z" transform="translate(-552.529 -91.81)"/><path class="f" d="M611.519,91.184l1.041.058.943,2.966,1.309-2.843.705.038,1.019,2.97,1.208-2.85.9.05-1.908,4.243-.68-.037-1.03-3.064-1.373,2.933-.7-.038Z" transform="translate(-581.286 -91.184)"/><path class="f" d="M654.041,94.853l4.37.8-.133.729-3.376-.617-.174.953,1.97.358-.133.729-1.971-.36L654.4,98.5l3.419.623-.147.8-4.412-.8Z" transform="translate(-614.159 -94.073)"/><path class="f" d="M686.371,101.971l3.554,1.1c.635.195.863.512.684,1.091l-.3.972c-.179.58-.546.712-1.181.517l-.547-.168,1.431,2.157-1.383-.427-1.19-2.082-.915-.283-.484,1.568-.948-.292Zm.728,1.007-.356,1.158,2.17.669c.3.091.452.077.535-.2l.153-.5c.085-.273-.035-.371-.332-.463Z" transform="translate(-639.227 -99.679)"/><path class="f" d="M719.446,113.726l4.062,1.8-.3.678-3.137-1.392-.394.885,1.831.812-.3.677-1.83-.812-.436.984,3.175,1.41-.33.745-4.1-1.819Z" transform="translate(-664.894 -108.936)"/><path class="f" d="M749.358,128.675l2.4,1.434c1.393.833,1.721,1.959,1.03,3.115a2.1,2.1,0,0,1-1.778,1.1,3.424,3.424,0,0,1-1.7-.626l-2.174-1.3Zm.177,4.213c1.1.656,1.811.71,2.363-.214a1.241,1.241,0,0,0-.532-1.9l-1.539-.919-1.412,2.361Z" transform="translate(-688.081 -120.709)"/></g><g transform="translate(0.334 71.272)"><path class="f" d="M313.839,427.931l.633,4.366-.728.106-.489-3.374-.951.138.285,1.969-.727.1-.286-1.966-1.059.152.5,3.414-.8.117-.639-4.408Z" transform="translate(-309.572 -427.651)"/><path class="f" d="M326.97,486.268l-.871.32.925,2.526c.279.761.175,1.083-.586,1.363l-.557.2c-.761.281-1.049.1-1.327-.661l-.917-2.5c-.279-.761-.175-1.084.586-1.362l.11-.041.477.769-.478.176,1.049,2.864.926-.338-.926-2.527c-.279-.761-.172-1.076.589-1.355l.448-.163c.761-.281,1.046-.108,1.325.653l.842,2.3c.265.721.179,1.073-.519,1.328l-.085.032-.5-.76.463-.171Z" transform="translate(-320.537 -472.918)"/><path class="f" d="M351.579,539.275l-.522-.855,3.024-1.846-1.032-1.69.656-.4,2.589,4.243-.656.4-1.035-1.7Z" transform="translate(-342.242 -511.563)"/><path class="f" d="M381.069,584.377l.646.723-1.563,4.717-.751-.841.358-1.015-1.822-2.035-1.038.255-.669-.747Zm-1.011,2.756.689-1.862-1.948.455Z" transform="translate(-362.067 -550.856)"/><path class="f" d="M425.991,619.356l2.971,2.194c.532.393.64.764.283,1.249l-.313.424a.72.72,0,0,1-1.029.142.8.8,0,0,1,.133,1.127l-.327.444c-.343.463-.844.424-1.523-.076l-2.756-2.036Zm-.656,2.548-.651.881,1.842,1.36c.276.2.429.235.617-.021l.194-.262c.189-.257.114-.395-.162-.6Zm1.032-1.4-.61.826,1.841,1.36c.249.184.4.225.553.025l.244-.33c.149-.2.063-.339-.186-.521Z" transform="translate(-399.238 -578.403)"/><path class="f" d="M478.351,651.036l.908.425-1.481,3.171L480.707,656l-.343.734-3.838-1.791Z" transform="translate(-441.052 -603.351)"/><path class="f" d="M531.07,670.423l.967.264-1.138,4.159-.968-.266Z" transform="translate(-483.109 -618.619)"/><path class="f" d="M575.892,680.181l-.083.923,2.68.238c.807.071,1.055.3.984,1.11l-.052.591c-.071.808-.357.992-1.164.922l-2.654-.237c-.807-.071-1.055-.3-.983-1.11l.01-.118.9-.1-.045.507,3.037.269.087-.982-2.679-.237c-.807-.072-1.047-.3-.975-1.109l.042-.474c.071-.808.347-.993,1.155-.921l2.438.216c.765.068,1.046.295.981,1.035l-.007.091-.9.13.044-.492Z" transform="translate(-518.293 -625.716)"/><path class="f" d="M636.466,678.054l1-.125.207,1.659,3.109-.388-.207-1.658,1-.125.534,4.278-1,.125-.228-1.841-3.111.388.231,1.841-.995.124Z" transform="translate(-567.008 -624.127)"/><path class="f" d="M697.85,663.017l4.164-1.455.243.694-3.217,1.124.316.906,1.878-.655.243.694-1.877.655.353,1.01,3.257-1.139.267.765-4.2,1.47Z" transform="translate(-615.349 -611.641)"/><path class="f" d="M750.829,638.628l2.372-1.44c1.378-.839,2.519-.6,3.213.541a2.086,2.086,0,0,1,.145,2.073,3.4,3.4,0,0,1-1.341,1.205l-2.15,1.307Zm3.782,1.8c1.086-.66,1.464-1.26.909-2.175a1.234,1.234,0,0,0-1.913-.413l-1.521.924,1.42,2.334Z" transform="translate(-657.071 -592.051)"/><path class="f" d="M814.7,588.225l1.524-1.607c.505-.534.793-.606,1.291-.135l.2.19c.364.345.351.54.252,1.009l-.626,2.9,1.724-1.819-.461-.437.71-.422.249.236c.5.47.44.763-.066,1.3L817,592.064l-.287-.269c-.211-.2-.316-.347-.195-.935l.717-3.43-.407-.386-1.689,1.784.642.61-.743.467-.407-.384C814.134,589.05,814.192,588.76,814.7,588.225Z" transform="translate(-707.046 -552.267)"/><path class="f" d="M850.656,540.713l1.536-2.479c.4-.647.712-.719,1.387-.3l1.932,1.2c.675.417.747.729.347,1.375l-1.536,2.479c-.4.646-.713.719-1.386.3l-1.933-1.2C850.328,541.67,850.255,541.36,850.656,540.713Zm4.585-.687-2.38-1.475-1.625,2.62,2.38,1.477Z" transform="translate(-735.494 -514.075)"/><path class="f" d="M877.794,487.521l1-2.74c.261-.715.55-.849,1.3-.578l2.134.779c.747.271.881.561.622,1.276l-1,2.74c-.261.715-.55.849-1.3.577l-2.135-.778C877.668,488.525,877.533,488.236,877.794,487.521Zm4.348-1.609-2.63-.958-1.056,2.9,2.63.96Z" transform="translate(-756.962 -471.864)"/><path class="f" d="M893.71,430.361l.419-2.887c.108-.751.365-.942,1.15-.828l2.25.326c.786.114.976.369.868,1.122l-.419,2.885c-.109.753-.365.944-1.151.83l-2.25-.326C893.793,431.369,893.6,431.113,893.71,430.361Zm3.928-2.462-2.769-.4-.443,3.051,2.77.4Z" transform="translate(-769.571 -426.615)"/></g></g><g transform="translate(1.566 10.665)"><path class="i" d="M316.862,393.078c.031-.074.04-.13.079-.136.062-.007.082.03.1.146.012.1-.02.819-.042,1.088a.754.754,0,0,1-.065.3.106.106,0,0,1-.09.042.508.508,0,0,1-.185-.04,6.14,6.14,0,0,1-1.146-.852c-.053-.056-.132-.117-.136-.157a.044.044,0,0,1,.041-.051,1.136,1.136,0,0,1,.176.026,1.938,1.938,0,0,0,.709.018A.619.619,0,0,0,316.862,393.078Z" transform="translate(-315.37 -339.49)"/><path class="i" d="M459.106,142.458c.079-.012.132-.033.156,0,.038.049.017.086-.074.157s-.71.409-.952.53a.754.754,0,0,1-.29.1.1.1,0,0,1-.082-.054.489.489,0,0,1-.061-.179,6.062,6.062,0,0,1,.132-1.422c.02-.074.032-.174.063-.2a.044.044,0,0,1,.065.007.99.99,0,0,1,.069.164,1.943,1.943,0,0,0,.354.615A.617.617,0,0,0,459.106,142.458Z" transform="translate(-427.533 -141.377)"/><path class="i" d="M782.058,157.463c.043.069.083.109.064.143-.031.054-.072.049-.174-.008s-.651-.5-.855-.674c-.146-.136-.194-.2-.2-.229a.106.106,0,0,1,.018-.1.5.5,0,0,1,.143-.126,6.1,6.1,0,0,1,1.362-.426c.076-.01.173-.037.207-.018a.043.043,0,0,1,.017.063,1.037,1.037,0,0,1-.124.127,1.92,1.92,0,0,0-.43.563A.62.62,0,0,0,782.058,157.463Z" transform="translate(-681.972 -152.91)"/><path class="i" d="M905.836,394.487c-.046.066-.067.119-.1.115-.063-.007-.074-.047-.063-.163s.2-.795.279-1.052a.75.75,0,0,1,.13-.278.11.11,0,0,1,.1-.02.488.488,0,0,1,.172.08,6.218,6.218,0,0,1,.932,1.081c.039.066.1.144.1.183a.044.044,0,0,1-.052.041,1,1,0,0,1-.166-.064,1.948,1.948,0,0,0-.687-.171A.621.621,0,0,0,905.836,394.487Z" transform="translate(-780.239 -339.604)"/></g></g></g></g></svg>