<svg xmlns="http://www.w3.org/2000/svg" xmlns:xlink="http://www.w3.org/1999/xlink" width="343.39" height="345.389" viewBox="0 0 343.39 345.389"><defs><style>.a{fill:#62a0a5;}.b{fill:#fff;}.c{fill:rgba(0,0,0,0.89);}.d{fill:#ededed;stroke:rgba(0,0,0,0);stroke-miterlimit:10;}.e{clip-path:url(#c);}.f{fill:#6d6e71;}.g{fill:#8cc540;fill-rule:evenodd;}.h{filter:url(#a);}</style><filter id="a" x="0" y="0" width="335.889" height="335.889" filterUnits="userSpaceOnUse"><feOffset dx="-4" dy="-6" input="SourceAlpha"/><feGaussianBlur stdDeviation="7" result="b"/><feFlood flood-color="#333e48" flood-opacity="0.353"/><feComposite operator="in" in2="b"/><feComposite in="SourceGraphic"/></filter><clipPath id="c"><circle class="a" cx="96" cy="96" r="96" transform="translate(1552 668)"/></clipPath></defs><g transform="translate(-982.869 -613.787)"><circle class="b" cx="121.338" cy="121.338" r="121.338" transform="translate(1036.193 671.552)"/><g class="h" transform="matrix(1, 0, 0, 1, 982.87, 613.79)"><path class="c" d="M-4061.055,293.889a148.033,148.033,0,0,1-29.615-2.985,146.208,146.208,0,0,1-27.583-8.562,146.944,146.944,0,0,1-24.96-13.548,147.973,147.973,0,0,1-21.747-17.943A147.987,147.987,0,0,1-4182.9,229.1a147.028,147.028,0,0,1-13.548-24.961,146.142,146.142,0,0,1-8.562-27.583A147.991,147.991,0,0,1-4208,146.944a147.988,147.988,0,0,1,2.986-29.614,146.141,146.141,0,0,1,8.562-27.583A147.031,147.031,0,0,1-4182.9,64.786a147.993,147.993,0,0,1,17.944-21.747A147.972,147.972,0,0,1-4143.213,25.1a146.942,146.942,0,0,1,24.96-13.548,146.215,146.215,0,0,1,27.583-8.562A148.032,148.032,0,0,1-4061.055,0a148.03,148.03,0,0,1,29.614,2.985,146.2,146.2,0,0,1,27.583,8.562A146.966,146.966,0,0,1-3978.9,25.1a147.975,147.975,0,0,1,21.747,17.943,148.005,148.005,0,0,1,17.943,21.747,146.961,146.961,0,0,1,13.548,24.961,146.24,146.24,0,0,1,8.562,27.583,148.027,148.027,0,0,1,2.985,29.614,148.03,148.03,0,0,1-2.985,29.615,146.24,146.24,0,0,1-8.562,27.583,146.958,146.958,0,0,1-13.548,24.961,148.011,148.011,0,0,1-17.943,21.747,147.986,147.986,0,0,1-21.747,17.943,146.965,146.965,0,0,1-24.96,13.548,146.21,146.21,0,0,1-27.583,8.562A148.027,148.027,0,0,1-4061.055,293.889Zm0-266.195a120.133,120.133,0,0,0-24.034,2.423,118.658,118.658,0,0,0-22.385,6.949A119.291,119.291,0,0,0-4127.73,48.06a120.207,120.207,0,0,0-17.649,14.562,120.124,120.124,0,0,0-14.561,17.649,119.266,119.266,0,0,0-11,20.257,118.607,118.607,0,0,0-6.949,22.385,120.1,120.1,0,0,0-2.423,24.033,120.1,120.1,0,0,0,2.423,24.033,118.608,118.608,0,0,0,6.949,22.384,119.267,119.267,0,0,0,11,20.256,120.116,120.116,0,0,0,14.561,17.649,120.2,120.2,0,0,0,17.649,14.561,119.281,119.281,0,0,0,20.257,10.995,118.656,118.656,0,0,0,22.385,6.949,120.139,120.139,0,0,0,24.034,2.423,120.128,120.128,0,0,0,24.032-2.423,118.645,118.645,0,0,0,22.384-6.949,119.235,119.235,0,0,0,20.256-10.995,120.105,120.105,0,0,0,17.649-14.561,120.14,120.14,0,0,0,14.562-17.649,119.258,119.258,0,0,0,10.995-20.256,118.7,118.7,0,0,0,6.949-22.384,120.137,120.137,0,0,0,2.423-24.033,120.139,120.139,0,0,0-2.423-24.033,118.7,118.7,0,0,0-6.949-22.385,119.256,119.256,0,0,0-10.995-20.257,120.145,120.145,0,0,0-14.562-17.649,120.111,120.111,0,0,0-17.649-14.562,119.247,119.247,0,0,0-20.256-10.995,118.648,118.648,0,0,0-22.384-6.949A120.125,120.125,0,0,0-4061.055,27.694Z" transform="translate(4233 27)"/></g><path class="d" d="M-4073.1,334.457a168.017,168.017,0,0,1-31.71-9.845,168.959,168.959,0,0,1-28.7-15.576,170.18,170.18,0,0,1-25-20.63,170.065,170.065,0,0,1-20.631-25,168.983,168.983,0,0,1-15.576-28.7,168.136,168.136,0,0,1-9.843-31.713A170.131,170.131,0,0,1-4208,168.945a170.133,170.133,0,0,1,3.434-34.049,168.16,168.16,0,0,1,9.843-31.713,169.023,169.023,0,0,1,15.576-28.7,170.12,170.12,0,0,1,20.631-25,170.24,170.24,0,0,1,25-20.629,168.958,168.958,0,0,1,28.7-15.576,168.018,168.018,0,0,1,31.71-9.845A170.187,170.187,0,0,1-4039.055,0a170.172,170.172,0,0,1,34.048,3.432,168.15,168.15,0,0,1,31.714,9.845,168.984,168.984,0,0,1,28.7,15.576,170.224,170.224,0,0,1,25,20.629,170.224,170.224,0,0,1,20.631,25,169.067,169.067,0,0,1,15.576,28.7,168.1,168.1,0,0,1,9.845,31.713,170.239,170.239,0,0,1,3.432,34.049,170.237,170.237,0,0,1-3.432,34.048,168.1,168.1,0,0,1-9.845,31.713,168.914,168.914,0,0,1-15.576,28.7,170.115,170.115,0,0,1-20.631,25,170.165,170.165,0,0,1-25,20.63,168.949,168.949,0,0,1-28.7,15.576,168.15,168.15,0,0,1-31.714,9.845,170.171,170.171,0,0,1-34.048,3.432A170.186,170.186,0,0,1-4073.1,334.457Zm10.834-278.364a114.571,114.571,0,0,0-21.623,6.712,115.056,115.056,0,0,0-19.567,10.62,116.023,116.023,0,0,0-17.049,14.066,116.122,116.122,0,0,0-14.064,17.048,115.14,115.14,0,0,0-10.622,19.568,114.594,114.594,0,0,0-6.711,21.622,116.109,116.109,0,0,0-2.341,23.216,116.109,116.109,0,0,0,2.341,23.216,114.6,114.6,0,0,0,6.711,21.623,115.09,115.09,0,0,0,10.622,19.567,116.067,116.067,0,0,0,14.064,17.048,116.008,116.008,0,0,0,17.049,14.066,115.062,115.062,0,0,0,19.567,10.621,114.647,114.647,0,0,0,21.623,6.712,116.079,116.079,0,0,0,23.216,2.34,116.062,116.062,0,0,0,23.215-2.34,114.6,114.6,0,0,0,21.623-6.712,115.156,115.156,0,0,0,19.568-10.621A116,116,0,0,0-3957.6,250.4a115.985,115.985,0,0,0,14.067-17.048,115.246,115.246,0,0,0,10.62-19.567,114.642,114.642,0,0,0,6.712-21.623,116.075,116.075,0,0,0,2.34-23.216,116.075,116.075,0,0,0-2.34-23.216,114.609,114.609,0,0,0-6.712-21.622,115.255,115.255,0,0,0-10.62-19.568A116.039,116.039,0,0,0-3957.6,87.491a116.067,116.067,0,0,0-17.047-14.066,115.151,115.151,0,0,0-19.568-10.62,114.521,114.521,0,0,0-21.623-6.712,115.986,115.986,0,0,0-23.215-2.34A116,116,0,0,0-4062.27,56.093Z" transform="translate(5195.869 620.787)"/><g transform="translate(963.129 554.783)"><g transform="translate(108.713 249.399)"><path class="f" d="M568.965,528.189h3.025v2.988h-3.025Zm0,7.023h3.025V538.2h-3.025Z" transform="translate(-490.826 -526.433)"/><g transform="translate(0 0)"><path class="f" d="M108.713,519.172h3.1l3.437,5.528,3.436-5.528h3.1v13.073h-2.857V523.71l-3.679,5.584h-.075l-3.641-5.528v8.479h-2.819Z" transform="translate(-108.713 -518.947)"/><path class="f" d="M201.108,519.172h2.875v13.073h-2.875Z" transform="translate(-185.422 -518.947)"/><path class="f" d="M227.662,529.421l1.7-2.035a6,6,0,0,0,3.9,1.588c1.177,0,1.887-.468,1.887-1.233V527.7c0-.728-.449-1.1-2.634-1.662-2.633-.672-4.333-1.4-4.333-4v-.037c0-2.373,1.9-3.943,4.575-3.943a7.56,7.56,0,0,1,4.856,1.664l-1.495,2.165a6.124,6.124,0,0,0-3.4-1.289c-1.1,0-1.681.505-1.681,1.14v.037c0,.858.56,1.138,2.82,1.718,2.652.691,4.146,1.643,4.146,3.922v.037c0,2.6-1.98,4.054-4.8,4.054A8.326,8.326,0,0,1,227.662,529.421Z" transform="translate(-207.468 -518.029)"/><path class="f" d="M293.525,529.421l1.7-2.035a6,6,0,0,0,3.9,1.588c1.176,0,1.886-.468,1.886-1.233V527.7c0-.728-.447-1.1-2.633-1.662-2.633-.672-4.332-1.4-4.332-4v-.037c0-2.373,1.9-3.943,4.575-3.943a7.558,7.558,0,0,1,4.856,1.664l-1.494,2.165a6.124,6.124,0,0,0-3.4-1.289c-1.1,0-1.681.505-1.681,1.14v.037c0,.858.56,1.138,2.82,1.718,2.652.691,4.146,1.643,4.146,3.922v.037c0,2.6-1.979,4.054-4.8,4.054A8.326,8.326,0,0,1,293.525,529.421Z" transform="translate(-262.149 -518.029)"/><path class="f" d="M365.727,519.172H368.6v13.073h-2.876Z" transform="translate(-322.093 -518.947)"/><path class="f" d="M393.919,524.645v-.037a6.951,6.951,0,0,1,13.895-.037v.037a6.951,6.951,0,0,1-13.895.037Zm10.889,0v-.037a3.973,3.973,0,0,0-3.959-4.11,3.912,3.912,0,0,0-3.923,4.072v.037a3.973,3.973,0,0,0,3.959,4.109A3.912,3.912,0,0,0,404.808,524.645Z" transform="translate(-345.498 -517.847)"/><path class="f" d="M486.668,519.172h2.653l6.126,8.05v-8.05h2.839v13.073h-2.448l-6.331-8.312v8.312h-2.839Z" transform="translate(-422.501 -518.947)"/><path class="f" d="M616.185,529.421l1.7-2.035a6,6,0,0,0,3.9,1.588c1.175,0,1.885-.468,1.885-1.233V527.7c0-.728-.447-1.1-2.633-1.662-2.632-.672-4.331-1.4-4.331-4v-.037c0-2.373,1.9-3.943,4.574-3.943a7.557,7.557,0,0,1,4.856,1.664l-1.494,2.165a6.126,6.126,0,0,0-3.4-1.289c-1.1,0-1.682.505-1.682,1.14v.037c0,.858.56,1.138,2.82,1.718,2.651.691,4.146,1.643,4.146,3.922v.037c0,2.6-1.978,4.054-4.8,4.054A8.326,8.326,0,0,1,616.185,529.421Z" transform="translate(-530.029 -518.029)"/><path class="f" d="M685.7,521.824h-3.977v-2.652h10.831v2.652h-3.977v10.421H685.7Z" transform="translate(-584.441 -518.947)"/><path class="f" d="M745.522,578.574h3.025v2.988h-3.025Z" transform="translate(-637.408 -568.264)"/><path class="f" d="M796.227,519.172H799.1V529.63h6.518v2.615h-9.394Z" transform="translate(-679.505 -518.947)"/><path class="f" d="M854.421,524.645v-.037a6.951,6.951,0,0,1,13.9-.037v.037a6.951,6.951,0,0,1-13.9.037Zm10.889,0v-.037a3.972,3.972,0,0,0-3.959-4.11,3.911,3.911,0,0,0-3.923,4.072v.037a3.973,3.973,0,0,0,3.96,4.109A3.911,3.911,0,0,0,865.31,524.645Z" transform="translate(-727.819 -517.847)"/><path class="f" d="M946.1,526.642v-7.47h2.875v7.4c0,2.128,1.064,3.229,2.82,3.229s2.821-1.064,2.821-3.136v-7.489H957.5v7.375c0,3.961-2.223,5.9-5.733,5.9S946.1,530.49,946.1,526.642Z" transform="translate(-803.938 -518.947)"/><path class="f" d="M1027.788,519.172h2.875v13.073h-2.875Z" transform="translate(-871.753 -518.947)"/><path class="f" d="M1054.342,529.421l1.7-2.035a6,6,0,0,0,3.9,1.588c1.176,0,1.886-.468,1.886-1.233V527.7c0-.728-.45-1.1-2.633-1.662-2.634-.672-4.334-1.4-4.334-4v-.037c0-2.373,1.905-3.943,4.577-3.943a7.553,7.553,0,0,1,4.854,1.664L1062.8,521.9a6.124,6.124,0,0,0-3.4-1.289c-1.1,0-1.682.505-1.682,1.14v.037c0,.858.562,1.138,2.822,1.718,2.653.691,4.145,1.643,4.145,3.922v.037c0,2.6-1.979,4.054-4.8,4.054A8.328,8.328,0,0,1,1054.342,529.421Z" transform="translate(-893.799 -518.029)"/></g></g><path class="g" d="M297.751,239.335V225.144l-7.758-4.849-7.659,4.674v9.645h-3.7v-9.646l-7.758-4.85-7.658,4.675v9.82h-3.8V222.541h-14.6c-3.393-14.838-9.4-28-20.027-28.037-10.625.034-16.631,13.2-20.025,28.037h-6.78v12.073h-3.8V222.541H171v12.073h-3.705v-9.646l-7.758-4.85-7.659,4.675v14.542h-6.266v2.874H303.972v-2.874Zm-139.974,0H155.4v-4.721h2.379Zm0-9.028H155.4v-3.558h2.379Zm5.9,6.293H161.3v-3.56h2.379Zm0-6.293H161.3v-3.558h2.379Zm14.2,6.293H175.5v-3.56h2.38Zm0-6.293H175.5v-3.558h2.379Zm5.9,9.028H181.4v-4.721h2.377Zm0-9.028H181.4v-3.558h2.379Zm5.9,6.293H187.3v-3.56h2.38Zm0-6.293H187.3v-3.558h2.38Zm14.205,6.293H201.5v-3.56h2.381Zm0-6.293H201.5v-3.558h2.381Zm5.9,9.028h-2.376v-4.721h2.376Zm0-9.028h-2.379v-3.558h2.379ZM223,239.335h-2.379v-4.721H223Zm0-9.028h-2.381v-3.558H223Zm5.9,6.293h-2.381v-3.56h2.381Zm0-6.293h-2.381v-3.558h2.381Zm7.321,4.307h-3.8V222.539l-3.837-.03-3.822-2.391-3.933,2.423h-3.726v12.073h-3.8V222.541h-5.114c3.512-17.287,9.163-26.329,16.6-26.33s13.089,9.043,16.6,26.33h-5.164Zm6.883,1.986h-2.38v-3.56h2.38Zm0-6.293h-2.38v-3.558h2.38Zm5.9,6.293H246.63v-3.56h2.382Zm0-6.293H246.63v-3.558h2.382Zm5.9,9.028h-2.376v-4.721h2.376Zm0-9.028H252.53v-3.558h2.379Zm14.2,6.293h-2.377v-3.56h2.377Zm0-6.293h-2.377v-3.558h2.377Zm5.9,9.028h-2.376v-4.721h2.376Zm0-9.028h-2.378v-3.558h2.378Zm13.217,9.028h-2.376v-4.721h2.376Zm2.951-8.592h-2.376v-3.557h2.376Zm2.952,5.857h-2.378v-3.56h2.378Z" transform="translate(-30.634)"/></g></g></svg>