<svg xmlns="http://www.w3.org/2000/svg" xmlns:xlink="http://www.w3.org/1999/xlink" width="390.704" height="117.035" viewBox="0 0 390.704 117.035"><defs><style>.a{fill:#fff;}.b{filter:url(#a);}</style><filter id="a" x="0" y="0" width="390.704" height="117.035" filterUnits="userSpaceOnUse"><feOffset dx="-11" dy="-5" input="SourceAlpha"/><feGaussianBlur stdDeviation="5.5" result="b"/><feFlood flood-opacity="0.161"/><feComposite operator="in" in2="b"/><feComposite in="SourceGraphic"/></filter></defs><g class="b" transform="matrix(1, 0, 0, 1, 0, 0)"><path class="a" d="M357.883,54.327,346.944,52.1,313.013,58.22,332.667,3.337,317.834,0s-28,26.329-37.454,35.229a24.14,24.14,0,0,1-16.5,7.231C256.461,42.645,234.4,45.8,234.4,45.8l31.15-12.237h0c.185-.371-.742-2.781-7.231-4.079-3.152-.556-5.748-1.112-12.979.742h0c-4.079.742-30.223,8.715-30.223,8.715s-9.085,1.3-14.462-.185c0,0-174.661-41.162-182.448-15.946,0,0-17.244,1.483-17.985,7.787,0,0-2.04,6.86,23.548,16.873A171.746,171.746,0,0,0,42.678,53.4c12.608,3.152,50.989,9.085,50.989,9.085s-4.635,12.237,1.669,14.833c7.231,2.967,16.687,5.006,30.779,6.119,3.337.185,8.715-3.337,7.787-10.939l71.57,9.085s60.26,8.344,109.024-5.748c0,0,5.748-4.45,5.377-8.9Z" transform="translate(27.32 21.5)"/></g></svg>