<svg xmlns="http://www.w3.org/2000/svg" xmlns:xlink="http://www.w3.org/1999/xlink" width="199.079" height="199.079" viewBox="0 0 199.079 199.079"><defs><style>.a{fill:#fff;}.b{fill:#231f20;}.c{fill:url(#a);}</style><linearGradient id="a" x1="0.965" y1="0.198" x2="-0.032" y2="0.634" gradientUnits="objectBoundingBox"><stop offset="0" stop-color="#e63e2f"/><stop offset="1" stop-color="#f15e3e"/></linearGradient></defs><g transform="translate(-605 -804.7)"><circle class="a" cx="76.67" cy="76.67" r="76.67" transform="translate(627.869 827.569)"/><circle class="b" cx="70.385" cy="70.385" r="70.385" transform="translate(605 904.24) rotate(-45)"/><path class="c" d="M458.777,174.009a55.618,55.618,0,0,0-51.065,33.815l93.646-14.091A55.482,55.482,0,0,0,458.777,174.009Z" transform="translate(245.657 674.627)"/><path class="a" d="M410.933,442.7a55.613,55.613,0,0,0,105.431-15.864Z" transform="translate(243.243 485.127)"/><g transform="translate(674.326 918.581)"><path class="b" d="M501.768,485.289l-5.542.822a13.184,13.184,0,0,1-4.848,4.855l1.941,3.218,2.9-1.914,1.7,11.461-3.113.462.609,4.109,12.452-1.847-.609-4.109-2.9.429Z" transform="translate(-491.379 -477.265)"/><path class="b" d="M554.254,476.85c-5.168.767-8.106,5.844-7.134,12.393,1.127,7.6,5.408,10.722,10.607,9.951,5.635-.836,8.156-5.5,7.139-12.361C563.852,480,560.355,475.945,554.254,476.85Zm2.762,17.556c-1.246.185-3.142-2.091-3.733-6.076-.559-3.769.52-6.36,1.677-6.5,1.525-.226,3.1,2.255,3.647,5.931C559.166,491.529,558.448,494.193,557.016,494.406Z" transform="translate(-533.019 -470.846)"/><path class="b" d="M637.214,479.549l1.65-.245-.494-3.336-1.65.245-1.8-12.172L628.47,465l-7.321,12.42.655,4.417,8.966-1.33.3,2.009-1.961.291.6,4.078,10.087-1.5-.6-4.078-1.681.249Zm-6.939-2.38-4.608.683,3.76-6.4Z" transform="translate(-588.644 -461.339)"/><path class="b" d="M698.483,530.453a2.285,2.285,0,0,0-1.917,2.587,2.259,2.259,0,0,0,2.567,1.8,2.1,2.1,0,0,0,1.974-2.474A2.322,2.322,0,0,0,698.483,530.453Z" transform="translate(-645.154 -511.096)"/><path class="b" d="M725.034,461.711c-1.1-6.151-5.6-9.21-10.68-8.3-5.051.907-7.518,4.872-6.9,9.013a6.857,6.857,0,0,0,8.306,5.808,5.806,5.806,0,0,0,3.564-2.138c.434,2.713-.88,4.361-3.175,4.764a9.162,9.162,0,0,1-4.779-.9l-1.521,4.331a12.894,12.894,0,0,0,7.709,1.351C725.705,474.177,725.855,466.388,725.034,461.711Zm-9.128,1.954a2.551,2.551,0,0,1-2.929-2.376,2.735,2.735,0,0,1,2.439-3.077c1.993-.3,2.926,1.713,3.155,3.258A4.17,4.17,0,0,1,715.906,463.665Z" transform="translate(-653.259 -453.254)"/></g><g transform="translate(649.393 875.279)"><path class="a" d="M431.549,349.935a5.506,5.506,0,0,1-2.039-1.108,20.446,20.446,0,0,1-2.7-2.994l-12.836-16.261-8.07,1.2-7.5,19.551q-.5,1.265-1.017,2.4a11.687,11.687,0,0,1-1.142,1.846,4.832,4.832,0,0,1-1.571,1.2,9.053,9.053,0,0,1-2.836.818l.822,5.523,16.914-2.516-.822-5.523-1.229.139a5.386,5.386,0,0,1-2.807-.111,1.583,1.583,0,0,1-1.074-1.34,3.069,3.069,0,0,1,.524-1.8l12.716-1.892a5.2,5.2,0,0,1,.941,1.845,1.36,1.36,0,0,1-.732,1.52,12.169,12.169,0,0,1-3.732.952l.822,5.523,21.112-3.142-.822-5.522a3.663,3.663,0,0,1-1.453.039A11.619,11.619,0,0,1,431.549,349.935Zm-25.55-4,2.651-7.1,4.848,5.982Z" transform="translate(-391.839 -317.251)"/><path class="a" d="M584.587,326.81c-.624.843-1.952,1.437-3.99,1.74l-7.377,1.1L571.531,318.3a22.462,22.462,0,0,1-.355-3.783,2.773,2.773,0,0,1,.678-1.6,4.088,4.088,0,0,1,1.59-1.075,9.932,9.932,0,0,1,2.448-.629l.931-.182L576,305.507l-22.05,3.281.822,5.523.985-.1a12.77,12.77,0,0,1,2.559-.16,4.861,4.861,0,0,1,1.8.614,2.563,2.563,0,0,1,1.143,1.241,24.9,24.9,0,0,1,.734,3.815l.745,5.005a22.859,22.859,0,0,1,.348,3.74,2.735,2.735,0,0,1-.672,1.644,3.684,3.684,0,0,1-1.549,1.068,10.512,10.512,0,0,1-2.488.635l-.972.189.822,5.523,34.114-5.075-1.657-11.132-5.38.8C585.435,324.39,585.212,325.966,584.587,326.81Z" transform="translate(-513.345 -299.213)"/><path class="a" d="M670.3,285.617l1.683,11.3,5.217-.776a11.467,11.467,0,0,1-.166-2.8,4.624,4.624,0,0,1,.886-2.161q.762-1.171,3.881-1.636l2.16-.321,1.689,11.347a22.406,22.406,0,0,1,.355,3.784,2.775,2.775,0,0,1-.678,1.6,4.306,4.306,0,0,1-1.59,1.074,10.425,10.425,0,0,1-2.447.628l-1.135.213.822,5.523,22.417-3.335-.822-5.523-1.188.133a9.586,9.586,0,0,1-2.484.1,4.237,4.237,0,0,1-1.8-.614,2.343,2.343,0,0,1-1.1-1.247,22.635,22.635,0,0,1-.769-3.766L693.537,287.8l2.12-.316c2.037-.3,3.434-.158,4.236.472a4.974,4.974,0,0,1,1.465,1.723,14.45,14.45,0,0,1,.621,2.774l5.217-.776-1.683-11.3Z" transform="translate(-600.549 -280.378)"/></g></g></svg>