<svg xmlns="http://www.w3.org/2000/svg" xmlns:xlink="http://www.w3.org/1999/xlink" width="434.864" height="433.498" viewBox="0 0 434.864 433.498"><defs><style>.a{fill:url(#a);}.b{filter:url(#b);}</style><linearGradient id="a" x1="0.5" x2="0.5" y2="0.692" gradientUnits="objectBoundingBox"><stop offset="0" stop-color="#5bb65b"/><stop offset="0.549" stop-color="#62a0a5"/><stop offset="1" stop-color="#333e48"/></linearGradient><filter id="b" x="0" y="0" width="434.864" height="433.498" filterUnits="userSpaceOnUse"><feOffset dx="-16" dy="-5" input="SourceAlpha"/><feGaussianBlur stdDeviation="5" result="c"/><feFlood flood-color="#342e2e" flood-opacity="0.149"/><feComposite operator="in" in2="c"/><feComposite in="SourceGraphic"/></filter></defs><g class="b" transform="matrix(1, 0, 0, 1, 0, 0)"><path class="a" d="M0,400.62C-.479,357.572,24.7,245.7,37.533,197.732,71.947,69.188,117.513,0,198.812,0s133.94,84.777,165.236,197.732c13.31,47.964,38.131,149.528,39.81,202.408L374.84,403.5c-1.439-52.76-22.543-146.171-33.935-194.135C314.046,96.408,268.84,11.631,199.172,11.631S90.533,80.819,61.035,209.363C50,257.327,34.176,345.1,29.139,403.5Z" transform="translate(31.01 20)"/></g></svg>