<svg xmlns="http://www.w3.org/2000/svg" width="783.537" height="90.278" viewBox="0 0 783.537 90.278"><defs><style>.a{fill:#333e48;}</style></defs><g transform="translate(-180.924 -377.602)"><path class="a" d="M215.051,734.254q10.022,0,15.163,3.283a10.682,10.682,0,0,1,5.141,9.59,11.861,11.861,0,0,1-1.382,5.745,12.08,12.08,0,0,1-4.061,4.32,18.3,18.3,0,0,1-6.566,2.549q7.343.865,11.232,4.493A12.713,12.713,0,0,1,238.465,774a15.314,15.314,0,0,1-6.394,12.917q-6.395,4.8-17.193,4.8H188.7a2.922,2.922,0,0,1-2.2-.691,3.37,3.37,0,0,1-.648-2.333V744.1a10.457,10.457,0,0,0-.346-3.154,4.6,4.6,0,0,0-1.21-1.814,23.791,23.791,0,0,0-2.938-2.2.847.847,0,0,1-.432-.778v-1.037q0-.863,1.037-.864ZM209,758.014h1.123a1.909,1.909,0,0,0,2.16-2.16V740.561a2.618,2.618,0,0,0-.432-1.555,1.4,1.4,0,0,0-1.21-.6,1.918,1.918,0,0,0-1.642.691Zm0,3.888v24.969a1.915,1.915,0,0,0,1.642.691,1.4,1.4,0,0,0,1.21-.6,2.613,2.613,0,0,0,.432-1.555v-21.34q0-2.159-2.419-2.16Z" transform="translate(0 -324.898)"/><path class="a" d="M874.392,920.925q-12.182,0-18.533-5.875t-6.35-17.107q0-11.231,6.35-17.107t18.533-5.875q12.182,0,18.532,5.875t6.35,17.107q0,11.232-6.35,17.107T874.392,920.925Zm0-3.974q1.555,0,1.555-2.333v-33.35q0-2.333-1.555-2.333t-1.555,2.333v33.35Q872.837,916.951,874.392,916.951Z" transform="translate(-609.057 -453.077)"/><path class="a" d="M1477.174,920.925q-8.728,0-12.441-7.171a12.352,12.352,0,0,1-12.009,7.171q-5.961,0-9.59-2.937a9.5,9.5,0,0,1-3.629-7.776,8.226,8.226,0,0,1,2.981-6.7q2.981-2.462,9.2-3.326,15.9-2.074,15.9-12.009a9.611,9.611,0,0,0-2.765-6.869,8.781,8.781,0,0,0-6.566-2.894q-1.814,0-1.814,1.21a1.664,1.664,0,0,0,.259.864,8.434,8.434,0,0,1,5.962,2.16,7.2,7.2,0,0,1,2.333,5.53,7.99,7.99,0,0,1-3.326,6.566,13.438,13.438,0,0,1-8.51,2.592,12.535,12.535,0,0,1-8.381-2.635,8.666,8.666,0,0,1-3.11-6.955q0-5.787,5.616-9.288t14.86-3.5q11.058,0,16.8,5.357t5.745,15.724v10.8a5.064,5.064,0,0,0,.259,1.987.893.893,0,0,0,.864.518,1.168,1.168,0,0,0,1.123-.691,9.736,9.736,0,0,0,.6-2.678,6.547,6.547,0,0,1,.346-1.771.727.727,0,0,1,.691-.3h1.469a.767.767,0,0,1,.734.6A6.528,6.528,0,0,1,1491,906.5q0,6.913-3.585,10.67T1477.174,920.925Zm-13.91-18.662a1.644,1.644,0,0,0-1.382-.691q-1.47,0-1.469,1.728v5.53q0,1.729,1.469,1.728a1.64,1.64,0,0,0,1.382-.691Z" transform="translate(-1146.522 -453.077)"/><path class="a" d="M2013.374,876q7.429,0,10.108,4.406a16.235,16.235,0,0,1,5.616-4.1,18,18,0,0,1,7.171-1.339,15.445,15.445,0,0,1,10.368,3.456,11.063,11.063,0,0,1,4.061,8.813,9.152,9.152,0,0,1-3.283,7.3,12.568,12.568,0,0,1-8.467,2.808,12.931,12.931,0,0,1-8.337-2.592,8.06,8.06,0,0,1-3.24-6.566,7.2,7.2,0,0,1,2.333-5.53,8.433,8.433,0,0,1,5.961-2.16,1.663,1.663,0,0,0,.259-.864q0-1.209-1.814-1.21a8.777,8.777,0,0,0-6.566,2.894,9.71,9.71,0,0,0-2.765,6.955,9.984,9.984,0,0,0,1.944,6.091,13.155,13.155,0,0,0,5.573,4.19,3.333,3.333,0,0,1,1.6,1.167,4.543,4.543,0,0,1,.389,2.2v15.206q0,2.766-2.937,2.765h-17.539q-2.679,0-2.678-2.765v-30.5a9.937,9.937,0,0,0-.864-4.622,8.3,8.3,0,0,0-3.2-2.981,2.178,2.178,0,0,1-.734-.562,1.077,1.077,0,0,1-.13-.562v-1.037q0-.863,1.037-.864Z" transform="translate(-1662.766 -453.077)"/><path class="a" d="M2549.849,692.48a9.933,9.933,0,0,0-.864-4.622,8.3,8.3,0,0,0-3.2-2.981,2.167,2.167,0,0,1-.734-.562,1.079,1.079,0,0,1-.13-.562v-1.037q0-.863,1.037-.864h22.377a3.2,3.2,0,0,1,2.29.648,2.912,2.912,0,0,1,.648,2.117v46.31a5.068,5.068,0,0,0,.259,1.987.893.893,0,0,0,.864.518,1.168,1.168,0,0,0,1.123-.691,9.755,9.755,0,0,0,.6-2.678,6.548,6.548,0,0,1,.345-1.771.728.728,0,0,1,.691-.3h1.469a.767.767,0,0,1,.734.6,6.535,6.535,0,0,1,.216,1.987q0,6.913-3.586,10.67t-10.238,3.758q-8.64,0-12.441-7.171-3.8,7.172-11.75,7.171a13.654,13.654,0,0,1-11.88-6.178q-4.277-6.176-4.277-17.15,0-10.712,4.32-16.675a14.08,14.08,0,0,1,12.1-5.961q6.393,0,10.022,3.629Zm-3.11,40.175q0,2.073,1.642,2.074a1.726,1.726,0,0,0,1.469-.691v-26.7a1.729,1.729,0,0,0-1.469-.691q-1.642,0-1.642,2.074Z" transform="translate(-2133.924 -277.162)"/><path class="a" d="M3390.566,920.925q-12.182,0-18.532-5.875t-6.35-17.107q0-11.231,6.35-17.107t18.532-5.875q12.182,0,18.532,5.875t6.35,17.107q0,11.232-6.35,17.107T3390.566,920.925Zm0-3.974q1.555,0,1.555-2.333v-33.35q0-2.333-1.555-2.333t-1.555,2.333v33.35Q3389.011,916.951,3390.566,916.951Z" transform="translate(-2901.204 -453.077)"/><path class="a" d="M3915.925,673.563V669.33a15.109,15.109,0,0,1,5.27-12.053q5.269-4.536,14-4.536,6.911,0,11.232,2.851t4.32,7.43a7.135,7.135,0,0,1-3.154,6.134q-3.155,2.248-8.51,2.246-5.1,0-7.948-1.987a6.286,6.286,0,0,1-2.851-5.443,5.21,5.21,0,0,1,1.9-4.19,7.8,7.8,0,0,1,5.184-1.6.781.781,0,0,0,.216-.432,2.758,2.758,0,0,0,.043-.432q0-1.209-1.814-1.21a8.112,8.112,0,0,0-8.122,8.121q0,6.308,7.776,9.331h11.75q1.037,0,1.037.864v1.555q0,.865-1.037.864h-8.64a4.3,4.3,0,0,1,1.3,1.6,6.7,6.7,0,0,1,.346,2.462v33.782a2.909,2.909,0,0,1-.648,2.117,3.2,3.2,0,0,1-2.29.648h-16.416a3.2,3.2,0,0,1-2.29-.648,2.907,2.907,0,0,1-.648-2.117V676.846h-5.789q-1.037,0-1.037-.864v-1.555q0-.863,1.037-.864Z" transform="translate(-3396.237 -250.642)"/><path class="a" d="M4521.226,777.108h-3.2l2.506,9.677a13.132,13.132,0,0,1,.519,2.765q0,2.161-2.678,2.16h-22.55a3.8,3.8,0,0,1-2.635-.821,2.929,2.929,0,0,1-.907-2.29q0-1.986,3.974-12.1t13.478-32.227a5.572,5.572,0,0,0,.519-2.16,4.229,4.229,0,0,0-.734-2.506,10.22,10.22,0,0,0-2.722-2.333q-.864-.518-.863-1.123v-1.037q0-.863,1.036-.864h20.044a8.526,8.526,0,0,1,4.623,1.123,7.092,7.092,0,0,1,2.722,3.629l16.675,43.89a19.82,19.82,0,0,1,1.642,6.048q0,2.766-2.852,2.765h-21.686a3.742,3.742,0,0,1-2.635-.778,6.776,6.776,0,0,1-1.426-3.11Zm-4.233-4.061h3.2l-6.048-23.241a1.523,1.523,0,0,0-1.124-.432,1.613,1.613,0,0,0-1.123.389,1.274,1.274,0,0,0-.432.994,3.992,3.992,0,0,0,.086.778q.085.433.26,1.037Z" transform="translate(-3927.497 -324.898)"/><path class="a" d="M5202.84,692.48a9.933,9.933,0,0,0-.864-4.622,8.3,8.3,0,0,0-3.2-2.981,2.163,2.163,0,0,1-.735-.562,1.082,1.082,0,0,1-.129-.562v-1.037q0-.863,1.037-.864h22.377a3.2,3.2,0,0,1,2.289.648,2.91,2.91,0,0,1,.648,2.117v46.31a5.064,5.064,0,0,0,.259,1.987.894.894,0,0,0,.865.518,1.168,1.168,0,0,0,1.123-.691,9.75,9.75,0,0,0,.6-2.678,6.54,6.54,0,0,1,.346-1.771.726.726,0,0,1,.691-.3h1.469a.767.767,0,0,1,.734.6,6.51,6.51,0,0,1,.216,1.987q0,6.913-3.586,10.67t-10.238,3.758q-8.641,0-12.441-7.171-3.8,7.172-11.75,7.171a13.655,13.655,0,0,1-11.88-6.178q-4.276-6.176-4.276-17.15,0-10.712,4.32-16.675a14.08,14.08,0,0,1,12.1-5.961q6.393,0,10.022,3.629Zm-3.11,40.175q0,2.073,1.642,2.074a1.725,1.725,0,0,0,1.469-.691v-26.7a1.729,1.729,0,0,0-1.469-.691q-1.643,0-1.642,2.074Z" transform="translate(-4550.706 -277.162)"/><path class="a" d="M5757.811,894.122a6.663,6.663,0,0,0-1.425-2.419,14.075,14.075,0,0,0-2.722-2.073c-.575-.346-.864-.72-.864-1.123v-1.037q0-.863,1.037-.864h13.478a30.491,30.491,0,0,1,8.684.907,8.418,8.418,0,0,1,4.406,3.154,26.023,26.023,0,0,1,3.067,6.653l8.294,25.056a1.409,1.409,0,0,0,1.037.432q1.3,0,1.3-1.469a11.147,11.147,0,0,0-.691-2.851l-7.776-23.76a28.175,28.175,0,0,0-1.037-2.851,8.867,8.867,0,0,0-.951-1.642c-.518-.633-.851-1.05-.993-1.253a1.224,1.224,0,0,1-.216-.734v-.778q0-.863,1.037-.864h24.451q3.111,0,3.11,2.246,0,3.8-11.4,32.4a37.008,37.008,0,0,1-3.067,6.437,5.867,5.867,0,0,1-2.591,2.246,12.309,12.309,0,0,1-4.277.562h-12.96a8.575,8.575,0,0,1-4.579-.994,6.87,6.87,0,0,1-2.505-3.586Z" transform="translate(-5075.784 -463.684)"/><path class="a" d="M6854.449,909.952a5.026,5.026,0,0,1-1.555,3.758,6.437,6.437,0,0,1-4.233,1.685,1.752,1.752,0,0,0-.345.95q0,1.124,1.555,1.123a6.638,6.638,0,0,0,4.968-2.376,7.828,7.828,0,0,0,2.2-5.486,6.89,6.89,0,0,0-2.419-5.573q-2.421-2.029-8.381-3.413-11.319-2.592-11.318-11.059,0-6.739,6.523-10.67t17.668-3.931q9.157,0,14.256,2.808t5.1,7.819a6.527,6.527,0,0,1-2.679,5.486q-2.679,2.031-7.431,2.03a13.3,13.3,0,0,1-7.6-1.987,6.017,6.017,0,0,1-2.937-5.184,5.031,5.031,0,0,1,1.555-3.758,6.447,6.447,0,0,1,4.233-1.685,1.761,1.761,0,0,0,.345-.95q0-1.122-1.555-1.123a6.641,6.641,0,0,0-4.968,2.376,7.829,7.829,0,0,0-2.2,5.486,6.764,6.764,0,0,0,2.635,5.616q2.635,2.074,8.769,3.37,7.258,1.47,10.368,4.1a9.258,9.258,0,0,1,3.11,7.473,11.508,11.508,0,0,1-6.091,10.454q-6.092,3.629-17.5,3.629-10.368,0-16.546-2.937t-6.178-7.776a6.379,6.379,0,0,1,2.722-5.443,12.286,12.286,0,0,1,7.387-1.987,13.315,13.315,0,0,1,7.6,1.987A6.023,6.023,0,0,1,6854.449,909.952Z" transform="translate(-6060.537 -453.077)"/><path class="a" d="M7408.889,920.925q-12.182,0-18.533-5.875t-6.351-17.107q0-11.231,6.351-17.107t18.533-5.875q12.182,0,18.533,5.875t6.35,17.107q0,11.232-6.35,17.107T7408.889,920.925Zm0-3.974q1.555,0,1.555-2.333v-33.35q0-2.333-1.555-2.333t-1.555,2.333v33.35Q7407.333,916.951,7408.889,916.951Z" transform="translate(-6561.755 -453.077)"/><path class="a" d="M7954.972,876q7.429,0,10.108,4.406a16.236,16.236,0,0,1,5.616-4.1,18,18,0,0,1,7.171-1.339,15.446,15.446,0,0,1,10.368,3.456,11.062,11.062,0,0,1,4.061,8.813,9.152,9.152,0,0,1-3.284,7.3,12.568,12.568,0,0,1-8.467,2.808,12.93,12.93,0,0,1-8.337-2.592,8.059,8.059,0,0,1-3.24-6.566,7.2,7.2,0,0,1,2.333-5.53,8.433,8.433,0,0,1,5.961-2.16,1.659,1.659,0,0,0,.26-.864q0-1.209-1.814-1.21a8.777,8.777,0,0,0-6.567,2.894,9.709,9.709,0,0,0-2.765,6.955,9.986,9.986,0,0,0,1.944,6.091,13.154,13.154,0,0,0,5.573,4.19,3.329,3.329,0,0,1,1.6,1.167,4.536,4.536,0,0,1,.389,2.2v15.206q0,2.766-2.937,2.765H7955.4q-2.679,0-2.678-2.765v-30.5a9.927,9.927,0,0,0-.864-4.622,8.3,8.3,0,0,0-3.2-2.981,2.184,2.184,0,0,1-.734-.562,1.077,1.077,0,0,1-.129-.562v-1.037q0-.863,1.037-.864Z" transform="translate(-7075.353 -453.077)"/><path class="a" d="M8481.777,909.952a5.029,5.029,0,0,1-1.555,3.758,6.443,6.443,0,0,1-4.234,1.685,1.753,1.753,0,0,0-.346.95q0,1.124,1.556,1.123a6.64,6.64,0,0,0,4.968-2.376,7.828,7.828,0,0,0,2.2-5.486,6.892,6.892,0,0,0-2.419-5.573q-2.42-2.029-8.381-3.413-11.319-2.592-11.318-11.059,0-6.739,6.523-10.67t17.668-3.931q9.157,0,14.256,2.808t5.1,7.819a6.526,6.526,0,0,1-2.678,5.486q-2.679,2.031-7.431,2.03a13.3,13.3,0,0,1-7.6-1.987,6.02,6.02,0,0,1-2.937-5.184,5.03,5.03,0,0,1,1.556-3.758,6.449,6.449,0,0,1,4.232-1.685,1.76,1.76,0,0,0,.347-.95q0-1.122-1.555-1.123a6.642,6.642,0,0,0-4.969,2.376,7.829,7.829,0,0,0-2.2,5.486,6.764,6.764,0,0,0,2.635,5.616q2.635,2.074,8.77,3.37,7.258,1.47,10.368,4.1a9.258,9.258,0,0,1,3.11,7.473,11.508,11.508,0,0,1-6.091,10.454q-6.092,3.629-17.5,3.629-10.368,0-16.546-2.937t-6.177-7.776a6.379,6.379,0,0,1,2.722-5.443,12.285,12.285,0,0,1,7.387-1.987,13.316,13.316,0,0,1,7.6,1.987A6.023,6.023,0,0,1,8481.777,909.952Z" transform="translate(-7542.977 -453.077)"/><g transform="translate(734.169 377.602)"><path class="a" d="M6421.844,422.952a3.2,3.2,0,0,1,2.289.648,2.91,2.91,0,0,1,.648,2.117V453.8a5.073,5.073,0,0,0,.259,1.987.893.893,0,0,0,.864.518,1.1,1.1,0,0,0,1.08-.6,11.987,11.987,0,0,0,.648-2.765,6.539,6.539,0,0,1,.346-1.771.727.727,0,0,1,.691-.3h1.469a.767.767,0,0,1,.734.6,6.906,6.906,0,0,1,.217,2.074q0,6.913-3.715,10.627t-10.627,3.715q-6.654,0-10.238-3.758t-3.586-10.757V433.579a9.934,9.934,0,0,0-.864-4.622,8.3,8.3,0,0,0-3.2-2.981,2.184,2.184,0,0,1-.734-.562,1.077,1.077,0,0,1-.129-.562v-1.037q0-.863,1.037-.864Zm6.417-38.345c-.913-2.855-4.053-4.96-7.787-4.96a8.588,8.588,0,0,0-6.708,2.978c-7.164-10.025-19.364-3.693-19.041,7.133a10.671,10.671,0,0,0,2.556,6.466h0l.014.018q.1.125.2.248l.015.018q.111.132.225.263l.071.08c.053.06.1.119.159.179l.092.1.145.157.1.106.143.149.1.107.149.15.1.1.165.161.091.088q.129.123.26.245a64.534,64.534,0,0,0,6.327,4.909l.168.121.392.281.337.243.229.165.486.354.084.061.574.424a26.757,26.757,0,0,1,6.661,6.492c1.784-6.752,14.046-13.428,14.288-23.579A7.983,7.983,0,0,0,6428.262,384.607Z" transform="translate(-6394.72 -377.602)"/></g></g></svg>