<svg xmlns="http://www.w3.org/2000/svg" width="562.857" height="64.851" viewBox="0 0 562.857 64.851"><defs><style>.a{fill:#62a0a5;}</style></defs><path class="a" d="M205.439,734.254q7.2,0,10.892,2.358a7.673,7.673,0,0,1,3.693,6.889,8.521,8.521,0,0,1-.993,4.127,8.678,8.678,0,0,1-2.917,3.1,13.148,13.148,0,0,1-4.717,1.831q5.275.621,8.068,3.227a9.132,9.132,0,0,1,2.793,7.013,11,11,0,0,1-4.593,9.279q-4.594,3.444-12.351,3.445H186.51a2.1,2.1,0,0,1-1.583-.5,2.421,2.421,0,0,1-.465-1.676V741.329a7.512,7.512,0,0,0-.248-2.265,3.3,3.3,0,0,0-.869-1.3,17.092,17.092,0,0,0-2.11-1.583.608.608,0,0,1-.31-.559v-.745q0-.62.745-.621Zm-4.345,17.068h.807a1.372,1.372,0,0,0,1.552-1.552V738.785a1.881,1.881,0,0,0-.31-1.117,1.009,1.009,0,0,0-.869-.434,1.378,1.378,0,0,0-1.179.5Zm0,2.793v17.937a1.376,1.376,0,0,0,1.179.5,1.007,1.007,0,0,0,.869-.434,1.877,1.877,0,0,0,.31-1.117v-15.33q0-1.551-1.738-1.552Z" transform="translate(-180.924 -711.443)"/><path class="a" d="M867.384,907.979q-8.751,0-13.313-4.22t-4.562-12.289q0-8.068,4.562-12.289t13.313-4.22q8.751,0,13.313,4.22t4.562,12.289q0,8.069-4.562,12.289T867.384,907.979Zm0-2.855q1.117,0,1.117-1.676V879.492q0-1.676-1.117-1.676t-1.117,1.676v23.957Q866.266,905.124,867.384,905.124Z" transform="translate(-806.747 -843.151)"/><path class="a" d="M1466.564,907.979q-6.27,0-8.937-5.151a8.873,8.873,0,0,1-8.627,5.151,10.62,10.62,0,0,1-6.889-2.11,6.828,6.828,0,0,1-2.607-5.586,5.91,5.91,0,0,1,2.141-4.81,13.229,13.229,0,0,1,6.61-2.39q11.419-1.49,11.42-8.627a6.9,6.9,0,0,0-1.986-4.934,6.308,6.308,0,0,0-4.717-2.079q-1.3,0-1.3.869a1.2,1.2,0,0,0,.186.621,6.059,6.059,0,0,1,4.282,1.552,5.173,5.173,0,0,1,1.676,3.972,5.74,5.74,0,0,1-2.39,4.717,9.653,9.653,0,0,1-6.113,1.862,9.005,9.005,0,0,1-6.02-1.893,6.225,6.225,0,0,1-2.234-5q0-4.157,4.034-6.672t10.675-2.514q7.944,0,12.072,3.848t4.127,11.3v7.758a3.636,3.636,0,0,0,.186,1.428.641.641,0,0,0,.621.372.839.839,0,0,0,.807-.5,7,7,0,0,0,.435-1.924,4.7,4.7,0,0,1,.248-1.272.522.522,0,0,1,.5-.217h1.055a.551.551,0,0,1,.528.435,4.688,4.688,0,0,1,.155,1.427q0,4.966-2.576,7.665T1466.564,907.979Zm-9.993-13.406a1.181,1.181,0,0,0-.993-.5q-1.056,0-1.055,1.241v3.972q0,1.242,1.055,1.241a1.178,1.178,0,0,0,.993-.5Z" transform="translate(-1359.007 -843.151)"/><path class="a" d="M2011.354,875.706q5.337,0,7.261,3.165a11.661,11.661,0,0,1,4.034-2.948,12.928,12.928,0,0,1,5.151-.962,11.1,11.1,0,0,1,7.448,2.482,7.947,7.947,0,0,1,2.917,6.331,6.575,6.575,0,0,1-2.358,5.244,9.029,9.029,0,0,1-6.083,2.017,9.289,9.289,0,0,1-5.989-1.862,5.789,5.789,0,0,1-2.328-4.717,5.172,5.172,0,0,1,1.676-3.972,6.058,6.058,0,0,1,4.282-1.552,1.194,1.194,0,0,0,.186-.621q0-.868-1.3-.869a6.305,6.305,0,0,0-4.717,2.079,6.975,6.975,0,0,0-1.986,5,7.172,7.172,0,0,0,1.4,4.376,9.451,9.451,0,0,0,4,3.01,2.4,2.4,0,0,1,1.148.838,3.263,3.263,0,0,1,.279,1.583v10.923q0,1.987-2.11,1.986h-12.6a1.728,1.728,0,0,1-1.924-1.986V883.34a7.137,7.137,0,0,0-.621-3.32,5.964,5.964,0,0,0-2.3-2.141,1.564,1.564,0,0,1-.528-.4.774.774,0,0,1-.093-.4v-.745q0-.62.745-.621Z" transform="translate(-1889.461 -843.151)"/><path class="a" d="M2542.4,689.487a7.134,7.134,0,0,0-.621-3.32,5.964,5.964,0,0,0-2.3-2.141,1.56,1.56,0,0,1-.528-.4.777.777,0,0,1-.093-.4v-.745q0-.62.745-.621h16.075a2.3,2.3,0,0,1,1.645.465,2.092,2.092,0,0,1,.466,1.521v33.267a3.64,3.64,0,0,0,.186,1.428.642.642,0,0,0,.621.372.839.839,0,0,0,.807-.5,7,7,0,0,0,.435-1.924,4.705,4.705,0,0,1,.248-1.272.523.523,0,0,1,.5-.217h1.055a.551.551,0,0,1,.528.434,4.7,4.7,0,0,1,.155,1.428q0,4.966-2.576,7.665t-7.355,2.7q-6.207,0-8.937-5.151a8.961,8.961,0,0,1-8.441,5.151,9.808,9.808,0,0,1-8.534-4.438q-3.072-4.437-3.072-12.32,0-7.7,3.1-11.978a10.115,10.115,0,0,1,8.689-4.282,9.73,9.73,0,0,1,7.2,2.607Zm-2.234,28.86q0,1.489,1.179,1.49a1.24,1.24,0,0,0,1.055-.5V700.162a1.243,1.243,0,0,0-1.055-.5q-1.18,0-1.179,1.49Z" transform="translate(-2373.589 -662.394)"/><path class="a" d="M3383.558,907.979q-8.751,0-13.313-4.22t-4.562-12.289q0-8.068,4.562-12.289t13.313-4.22q8.751,0,13.313,4.22t4.562,12.289q0,8.069-4.562,12.289T3383.558,907.979Zm0-2.855q1.117,0,1.117-1.676V879.492q0-1.676-1.117-1.676t-1.117,1.676v23.957Q3382.441,905.124,3383.558,905.124Z" transform="translate(-3161.991 -843.151)"/><path class="a" d="M3914,667.7v-3.041a10.854,10.854,0,0,1,3.786-8.658q3.785-3.258,10.055-3.258a14.407,14.407,0,0,1,8.068,2.048,6.171,6.171,0,0,1,3.1,5.338,5.126,5.126,0,0,1-2.266,4.407,10.343,10.343,0,0,1-6.113,1.614,9.866,9.866,0,0,1-5.71-1.427,4.516,4.516,0,0,1-2.048-3.91,3.742,3.742,0,0,1,1.365-3.01,5.605,5.605,0,0,1,3.724-1.148.564.564,0,0,0,.155-.31,1.96,1.96,0,0,0,.031-.31q0-.868-1.3-.869a5.828,5.828,0,0,0-5.834,5.834q0,4.531,5.586,6.7h8.441q.745,0,.745.621v1.117q0,.621-.745.621h-6.207a3.091,3.091,0,0,1,.931,1.148,4.808,4.808,0,0,1,.249,1.769v24.267a2.09,2.09,0,0,1-.465,1.521,2.3,2.3,0,0,1-1.645.466h-11.792a2.3,2.3,0,0,1-1.645-.466,2.09,2.09,0,0,1-.465-1.521V670.057h-4.158q-.745,0-.745-.621v-1.117q0-.62.745-.621Z" transform="translate(-3670.65 -635.143)"/><path class="a" d="M4513.074,765.038h-2.3l1.8,6.951a9.443,9.443,0,0,1,.372,1.986q0,1.552-1.924,1.552h-16.2a2.726,2.726,0,0,1-1.893-.59,2.1,2.1,0,0,1-.652-1.645q0-1.427,2.855-8.689t9.682-23.15a4,4,0,0,0,.373-1.552,3.038,3.038,0,0,0-.527-1.8,7.344,7.344,0,0,0-1.955-1.676q-.621-.372-.62-.807v-.745q0-.62.744-.621h14.4a6.126,6.126,0,0,1,3.321.807,5.1,5.1,0,0,1,1.955,2.607l11.979,31.529a14.243,14.243,0,0,1,1.179,4.344,1.783,1.783,0,0,1-2.049,1.986h-15.578a2.688,2.688,0,0,1-1.893-.559,4.869,4.869,0,0,1-1.024-2.234Zm-3.041-2.917h2.3l-4.345-16.7a1.094,1.094,0,0,0-.807-.31,1.159,1.159,0,0,0-.807.279.916.916,0,0,0-.31.714,2.862,2.862,0,0,0,.062.559q.061.311.187.745Z" transform="translate(-4216.534 -711.443)"/><path class="a" d="M5195.394,689.487a7.13,7.13,0,0,0-.621-3.32,5.962,5.962,0,0,0-2.3-2.141,1.551,1.551,0,0,1-.528-.4.779.779,0,0,1-.093-.4v-.745q0-.62.745-.621h16.075a2.3,2.3,0,0,1,1.645.465,2.092,2.092,0,0,1,.466,1.521v33.267a3.643,3.643,0,0,0,.186,1.428.643.643,0,0,0,.622.372.839.839,0,0,0,.807-.5,7.012,7.012,0,0,0,.434-1.924,4.7,4.7,0,0,1,.249-1.272.522.522,0,0,1,.5-.217h1.055a.55.55,0,0,1,.527.434,4.662,4.662,0,0,1,.156,1.428q0,4.966-2.576,7.665t-7.354,2.7q-6.207,0-8.937-5.151a8.962,8.962,0,0,1-8.441,5.151,9.809,9.809,0,0,1-8.534-4.438q-3.072-4.437-3.072-12.32,0-7.7,3.1-11.978a10.114,10.114,0,0,1,8.689-4.282,9.731,9.731,0,0,1,7.2,2.607Zm-2.234,28.86q0,1.489,1.179,1.49a1.239,1.239,0,0,0,1.055-.5V700.162a1.242,1.242,0,0,0-1.055-.5q-1.18,0-1.179,1.49Z" transform="translate(-4856.898 -662.394)"/><path class="a" d="M5756.4,892a4.789,4.789,0,0,0-1.024-1.738,10.126,10.126,0,0,0-1.955-1.49q-.62-.372-.621-.807v-.745q0-.62.745-.621h9.682a21.9,21.9,0,0,1,6.238.652,6.046,6.046,0,0,1,3.165,2.265,18.681,18.681,0,0,1,2.2,4.779l5.958,18a1.012,1.012,0,0,0,.745.31q.931,0,.931-1.055a8,8,0,0,0-.5-2.048l-5.586-17.068a20.156,20.156,0,0,0-.745-2.048,6.372,6.372,0,0,0-.683-1.179c-.372-.455-.611-.755-.713-.9a.878.878,0,0,1-.155-.528v-.559q0-.62.745-.621H5792.4q2.235,0,2.234,1.614,0,2.732-8.193,23.274a26.566,26.566,0,0,1-2.2,4.624,4.213,4.213,0,0,1-1.861,1.614,8.843,8.843,0,0,1-3.072.4h-9.31a6.16,6.16,0,0,1-3.29-.714,4.935,4.935,0,0,1-1.8-2.576Z" transform="translate(-5396.431 -854.05)"/><path class="a" d="M6848.633,900.1a3.61,3.61,0,0,1-1.117,2.7,4.624,4.624,0,0,1-3.041,1.21,1.255,1.255,0,0,0-.248.683q0,.807,1.117.807a4.768,4.768,0,0,0,3.568-1.707,5.621,5.621,0,0,0,1.583-3.941,4.949,4.949,0,0,0-1.738-4,14.964,14.964,0,0,0-6.021-2.452q-8.131-1.862-8.13-7.944,0-4.841,4.686-7.665t12.692-2.824q6.579,0,10.24,2.017t3.662,5.617a4.689,4.689,0,0,1-1.924,3.941,8.659,8.659,0,0,1-5.338,1.458,9.556,9.556,0,0,1-5.461-1.427,4.323,4.323,0,0,1-2.11-3.724,3.612,3.612,0,0,1,1.117-2.7,4.631,4.631,0,0,1,3.041-1.21,1.269,1.269,0,0,0,.248-.683q0-.806-1.117-.807a4.768,4.768,0,0,0-3.568,1.707,5.622,5.622,0,0,0-1.583,3.941,4.857,4.857,0,0,0,1.894,4.034,15.768,15.768,0,0,0,6.3,2.421q5.213,1.056,7.448,2.948a6.651,6.651,0,0,1,2.234,5.369,8.267,8.267,0,0,1-4.376,7.51q-4.375,2.607-12.567,2.607-7.449,0-11.886-2.11t-4.438-5.586a4.582,4.582,0,0,1,1.956-3.91,8.823,8.823,0,0,1,5.307-1.427,9.566,9.566,0,0,1,5.461,1.427A4.328,4.328,0,0,1,6848.633,900.1Z" transform="translate(-6408.291 -843.151)"/><path class="a" d="M7401.88,907.979q-8.751,0-13.312-4.22T7384,891.47q0-8.068,4.563-12.289t13.313-4.22q8.751,0,13.313,4.22t4.562,12.289q0,8.069-4.562,12.289T7401.88,907.979Zm0-2.855q1.118,0,1.117-1.676V879.492q0-1.676-1.117-1.676t-1.117,1.676v23.957Q7400.763,905.124,7401.88,905.124Z" transform="translate(-6923.307 -843.151)"/><path class="a" d="M7952.952,875.706q5.336,0,7.262,3.165a11.661,11.661,0,0,1,4.034-2.948,12.928,12.928,0,0,1,5.151-.962,11.1,11.1,0,0,1,7.447,2.482,7.945,7.945,0,0,1,2.918,6.331,6.575,6.575,0,0,1-2.359,5.244,9.027,9.027,0,0,1-6.082,2.017,9.288,9.288,0,0,1-5.989-1.862,5.789,5.789,0,0,1-2.327-4.717,5.173,5.173,0,0,1,1.676-3.972,6.057,6.057,0,0,1,4.282-1.552,1.2,1.2,0,0,0,.187-.621q0-.868-1.3-.869a6.3,6.3,0,0,0-4.717,2.079,6.973,6.973,0,0,0-1.986,5,7.175,7.175,0,0,0,1.4,4.376,9.447,9.447,0,0,0,4,3.01,2.4,2.4,0,0,1,1.147.838,3.26,3.26,0,0,1,.279,1.583v10.923q0,1.987-2.11,1.986h-12.6a1.728,1.728,0,0,1-1.924-1.986V883.34a7.137,7.137,0,0,0-.621-3.32,5.959,5.959,0,0,0-2.3-2.141,1.567,1.567,0,0,1-.527-.4.779.779,0,0,1-.093-.4v-.745q0-.62.745-.621Z" transform="translate(-7451.042 -843.151)"/><path class="a" d="M8475.961,900.1a3.61,3.61,0,0,1-1.117,2.7,4.626,4.626,0,0,1-3.041,1.21,1.255,1.255,0,0,0-.248.683q0,.807,1.117.807a4.768,4.768,0,0,0,3.568-1.707,5.625,5.625,0,0,0,1.583-3.941,4.954,4.954,0,0,0-1.737-4,14.976,14.976,0,0,0-6.021-2.452q-8.13-1.862-8.13-7.944,0-4.841,4.687-7.665t12.691-2.824q6.577,0,10.24,2.017t3.662,5.617a4.687,4.687,0,0,1-1.924,3.941,8.659,8.659,0,0,1-5.338,1.458,9.552,9.552,0,0,1-5.461-1.427,4.324,4.324,0,0,1-2.111-3.724,3.613,3.613,0,0,1,1.118-2.7,4.632,4.632,0,0,1,3.04-1.21,1.265,1.265,0,0,0,.25-.683q0-.806-1.117-.807a4.772,4.772,0,0,0-3.57,1.707,5.625,5.625,0,0,0-1.582,3.941,4.859,4.859,0,0,0,1.893,4.034,15.779,15.779,0,0,0,6.3,2.421q5.213,1.056,7.448,2.948a6.651,6.651,0,0,1,2.234,5.369,8.268,8.268,0,0,1-4.375,7.51q-4.377,2.607-12.568,2.607-7.449,0-11.887-2.11t-4.437-5.586a4.582,4.582,0,0,1,1.956-3.91,8.823,8.823,0,0,1,5.306-1.427,9.57,9.57,0,0,1,5.463,1.427A4.327,4.327,0,0,1,8475.961,900.1Z" transform="translate(-7931.538 -843.151)"/><g transform="translate(397.425)"><path class="a" d="M6414.2,410.18a2.3,2.3,0,0,1,1.645.465,2.09,2.09,0,0,1,.466,1.521v20.171a3.64,3.64,0,0,0,.186,1.427.641.641,0,0,0,.62.372.791.791,0,0,0,.776-.434,8.594,8.594,0,0,0,.466-1.986,4.685,4.685,0,0,1,.248-1.272.523.523,0,0,1,.5-.217h1.055a.551.551,0,0,1,.528.434,4.964,4.964,0,0,1,.156,1.49q0,4.966-2.669,7.634t-7.634,2.669q-4.781,0-7.355-2.7t-2.576-7.727V417.814a7.137,7.137,0,0,0-.621-3.32,5.964,5.964,0,0,0-2.3-2.141,1.577,1.577,0,0,1-.528-.4.774.774,0,0,1-.093-.4V410.8q0-.62.745-.621Zm4.61-27.545a5.71,5.71,0,0,0-5.594-3.563,6.169,6.169,0,0,0-4.818,2.139c-5.146-7.2-13.91-2.653-13.678,5.124a7.668,7.668,0,0,0,1.836,4.645h0l.01.013q.072.089.146.178l.011.013c.053.063.107.126.162.189l.051.058.114.128.066.072.1.113.073.076.1.107.075.077.107.107.074.073.119.115.065.063.187.176a46.358,46.358,0,0,0,4.545,3.526l.121.087.281.2.242.175.165.119.35.254.06.044.413.3a19.224,19.224,0,0,1,4.785,4.663c1.282-4.85,10.09-9.646,10.264-16.938A5.741,5.741,0,0,0,6418.815,382.634Z" transform="translate(-6394.72 -377.602)"/></g></svg>