<svg xmlns="http://www.w3.org/2000/svg" xmlns:xlink="http://www.w3.org/1999/xlink" width="1953" height="421.272" viewBox="0 0 1953 421.272"><defs><style>.a{fill:#fff;}.b{filter:url(#a);}</style><filter id="a" x="0" y="0" width="1953" height="421.272" filterUnits="userSpaceOnUse"><feOffset dx="-16" dy="-5" input="SourceAlpha"/><feGaussianBlur stdDeviation="5.5" result="b"/><feFlood flood-opacity="0.161"/><feComposite operator="in" in2="b"/><feComposite in="SourceGraphic"/></filter></defs><g class="b" transform="matrix(1, 0, 0, 1, 0, 0)"><path class="a" d="M0,401V315.615H3.09v-19H8.65v19H24.56V304.958h4.634v10.657h4.943v-21.16h9.422V262.328H81.712V250.9h8.341v-5.715h36.454V250.9h4.634v52.514h9.886v29.656h36.917V318.24l9.732-9.73h35.063V230.356h5.406V211.513h6.178v18.843h15.6V219.081h4.634v11.275h36.762V311.29h5.251V294.3H323.45v16.99h6.332V273.912h17.455V25.24h5.87V12.729h50.2V25.24h8.5v10.04h33.982v7.105h12.974V273.449h7.415v40.93h4.943V295.69h4.633V282.1h4.634V295.69h21.162V273.449h6.025v22.4h4.788V283.8h2.935v12.047h3.862v18.689H529.2V297.7l13.9-13.9V250.9h9.577v-33.98H621.1V250.9h27.958v42.629l24.25,24.095h8.5V162.859h2.317V148.34h8.187v-3.861H711V97.061h9.731V66.016H724.6V97.061h5.715v47.417h4.479v18.38H740.5v25.794h11.276V338.165h11.894v-9.576l7.105-7.105V289.666h10.5V282.1h13.284v-3.861h60.241v30.427L866.7,320.557v11.12h7.26V316.7h3.244V303.259h3.552V316.7h5.252V296.463h3.861V316.7h16.991V300.787h4.171V316.7H915.2v14.982h3.09V305.884h6.333v-69.2h39.7V226.8h5.715v-11.43h39.389V226.8h6.178v72.748h10.813v15.136h38.616V303.413h41.706V257.848h2.935V226.8h18.381v31.045h42.324v56.84h5.715V303.413h17.455v13.593h19.771V276.538h16.528V125.789H1248.7V92.582h15.6v33.207h21.162v43.556h18.382v49.889h35.373v63.172h9.422v28.265h4.479v-13.9h4.48V282.406h4.943v14.365h19.771V274.066h6.025v22.705h6.487V285.033h2.78v11.739h4.634v13.9h6.8V268.351h19.616V208.269h4.171v-40h69.818v22.4h6.333v72.131h21.47V228.5h20.081V48.717h39.852V262.946h5.251v-27.03h1.7V215.682h6.8v20.234h4.171v27.03h9.576v52.205h9.268V291.983h6.642v23.168h14.056V300.479h6.178v14.673h6.488V304.8h6.642V262.328h32.592V247.346h7.723v-9.886h40.934v9.886h7.723V304.8h8.5v31.509h50.046V310.518H1847.4V230.356h48.657V208.732h9.886v21.624h4.634V196.067H1920V401Zm1094.848-53.413h3.244V331.833h-3.244Zm-6.8,0h3.244V331.833h-3.244Zm-11.276,0h3.245V331.833h-3.245Zm-191.536-1.236h17.455v-4.943H885.239Zm509.58-.155h3.862v-4.633h-3.862Zm-5.87,0h3.862v-4.633h-3.862Zm-5.561,0h3.862v-4.633h-3.862Zm-5.869,0h3.861v-4.633h-3.861Zm-11.122,0h3.862v-4.633H1366.4Zm-5.869,0h3.861v-4.633h-3.861ZM1114,340.637h15.909v-4.479H1114ZM1055.46,339.4h4.788V332.45h-4.788Zm-10.5,0h4.788V332.45h-4.788Zm-16.219,0h4.325V332.45h-4.325Zm812.641-.464h6.024v-7.259h-6.024Zm-8.65,0h6.024v-7.259h-6.024Zm-9.268,0h6.024v-7.259h-6.024Zm-88.509,0h4.017v-9.885h-4.017Zm-34.6,0h4.016v-9.885h-4.016Zm-13.594,0h3.862v-9.885h-3.862Zm-7.105,0h4.017v-9.885h-4.017Zm-1472.206-.309h5.87v-7.1h-5.87Zm-8.5,0h5.869v-7.1h-5.869Zm-9.113,0h5.869v-7.1h-5.869Zm695.4-1.391h17.455v-5.1H885.239Zm508.808-.154h3.861V332.45h-3.861Zm-6.025,0h3.862V332.45h-3.862Zm-16.528,0h3.862V332.45h-3.862Zm-5.87,0h3.862V332.45h-3.862Zm11.894-.155h3.861V332.3h-3.861Zm516.685-1.081h4.789v-17.3H1894.2Zm-10.194,0h4.788v-17.3h-4.788Zm-10.349,0h4.789v-17.3h-4.789ZM1114,331.214h47.73v-4.479H1114ZM939.3,330.6h5.252v-8.5H939.3Zm117.086-.772h4.788v-6.951h-4.788Zm-13.439,0h4.788v-6.951h-4.788Zm-8.5,0h4.789v-6.951h-4.789Zm-5.715,0h3.862v-6.951h-3.862Zm-143.5-1.7h17.455v-5.1H885.239Zm504.019-.309h3.862v-4.634h-3.862Zm-5.87,0h3.862v-4.634h-3.862Zm-5.869,0h3.861v-4.634h-3.861Zm-6.025,0h3.862v-4.634h-3.862Zm-10.967,0h3.861v-4.634h-3.861Zm-264.908-1.7h3.089V310.363h-3.089Zm-8.959,0h3.089V310.363h-3.089Zm-5.716,0h3.09V310.363h-3.09Zm-4.479,0h3.244V310.363h-3.244Zm-869.02-1.544h5.87v-7.105h-5.87Zm-8.5,0h5.869v-7.105h-5.869Zm-9.113,0h5.869v-7.105h-5.869Zm1651.54-.155h6.024v-7.259h-6.024Zm-8.65,0h6.024v-7.259h-6.024Zm-9.268,0h6.024v-7.259h-6.024Zm-583.259-.154h3.244V308.51H1240.2Zm-6.952,0h3.245V308.51h-3.245Zm-11.121,0h3.244V308.51h-3.244Zm-920.612-2.471h16.219v-4.634H301.515ZM1114,321.021h47.73V316.7H1114Zm-121.874-1.236h5.1v-8.65h-5.1Zm-6.642,0h5.1v-8.65h-5.1Zm-7.414,0h5.1v-8.65h-5.1Zm-8.5,0h5.1v-8.65h-5.1Zm-14.366,0h5.1v-8.65h-5.1Zm-7.414,0h5.1v-8.65h-5.1Zm-8.5,0h5.252v-8.65H939.3Zm455.518-.464h3.862v-4.634h-3.862Zm-5.87,0h3.862v-4.634h-3.862Zm-6.025,0h3.862v-4.634h-3.862Zm-10.658,0h3.862v-4.634h-3.862Zm-5.87,0h3.862v-4.634H1366.4Zm-5.869,0h3.861v-4.634h-3.861Zm339.823-2.008h4.016v-9.886h-4.016Zm-6.8,0h4.016v-9.886h-4.016Zm-6.8,0h3.862v-9.886h-3.862Zm-7.105,0h4.017v-9.886h-4.017Zm-490.735-.309h3.09V313.3h-3.09Zm-4.479,0h3.089V313.3h-3.089Zm-4.943,0h3.089v-3.862h-3.089Zm-341.677-2.163h5.87v-5.251h-5.87Zm-8.186,0h5.87v-5.251h-5.87Zm-8.187,0h5.87v-5.251h-5.87Zm-10.039,0h5.869v-5.251H811.4Zm-8.032,0h5.87v-5.251h-5.87Zm-8.186,0h5.87v-5.251h-5.87Zm-8.187,0h5.87v-5.251H787Zm1116.473-.464h4.789V296.925h-4.789Zm-9.268,0h4.789V296.925H1894.2Zm-10.194,0h4.788V296.925h-4.788Zm-19.926,0h4.788v-17.3h-4.788ZM301.515,313.3h16.219V308.51H301.515ZM230,312.989h4.479V305.73H230Zm884-1.391h47.73V307.12H1114Zm274.484-1.081h3.862v-4.634h-3.862Zm-5.87,0h3.862v-4.634h-3.862Zm-6.024,0h3.862v-4.634h-3.862Zm-10.967,0h3.862v-4.634h-3.862Zm-5.87,0h3.862v-4.634h-3.862Zm-170.838-1.082h3.09v-3.861h-3.09Zm-4.479,0h3.089v-3.861h-3.089Zm-4.943,0h3.089v-3.861h-3.089Zm-180.416-.772h5.1v-8.649h-5.1Zm-7.414,0h5.1v-8.649h-5.1Zm-7.106,0h5.1v-8.649h-5.1Zm-7.723,0h5.1v-8.649h-5.1Zm-14.674,0h5.1v-8.5h-5.1Zm-14.365,0h5.1v-8.5h-5.1Zm7.105-.154h5.252v-8.5H954.9Zm367.935-.155h4.017v-9.885h-4.017Zm-6.951,0h4.017v-9.885h-4.017Zm-6.951,0h4.016v-9.885h-4.016Zm-6.8,0h4.016v-9.885h-4.016Zm422-.927h4.017v-9.885h-4.017ZM301.515,304.8h16.219v-4.634H301.515Zm-26.568-1.081h4.325v-7.259h-4.325Zm-5.715,0h4.479v-7.259h-4.479Zm-6.487,0h4.479v-7.259h-4.479Zm-7.106,0h4.479v-7.259H255.64Zm-12.2,0h4.48v-7.259h-4.48Zm-6.332,0h4.479v-7.259H237.1Zm-7.105,0h4.479v-7.259H230Zm1010.974-.927h3.244V287.041h-3.244Zm-8.96,0h3.244V287.041h-3.244Zm-5.715,0h3.089V287.041H1226.3Zm-4.479,0h3.244V287.041h-3.244ZM838.9,302.177h5.87v-5.252H838.9Zm-8.186,0h5.87v-5.252h-5.87Zm-19.308,0h5.869v-5.252H811.4Zm-8.032,0h5.87v-5.252h-5.87Zm-8.186,0h5.87v-5.252h-5.87Zm-8.187,0h5.87v-5.252H787Zm-9.267,0h5.87v-5.252h-5.87ZM1114,301.559h47.73V297.08H1114Zm-114.923-4.016h5.1v-8.65h-5.1Zm-22.551,0h5.251v-8.65h-5.251Zm-7.26,0h5.1v-8.65h-5.1Zm-7.106,0h5.1v-8.65h-5.1Zm-7.259,0h5.252v-8.65H954.9Zm-15.6,0h5.252v-8.65H939.3Zm52.364-.155h5.1v-8.5h-5.1Zm704.206-2.008h2.163v-2.625h-2.163Zm-3.4,0h2.163v-2.625h-2.163Zm-3.09,0h2.163v-2.625h-2.163Zm-3.4,0h2.163v-2.625h-2.163Zm-6.178,0h2.163v-2.625h-2.163Zm-3.4,0h2.163v-2.625h-2.163Zm-78.931,0h6.8v-6.024h-6.8Zm-9.578,0h6.8v-6.024h-6.8Zm-9.422,0h6.8v-6.024h-6.8Zm-11.585,0h6.8v-6.024h-6.8Zm-9.577,0h6.8v-6.024h-6.8Zm-9.577,0h6.8v-6.024h-6.8Zm-9.576,0h6.8v-6.024h-6.8ZM280.817,294.3H285.3v-7.259h-4.479Zm-31.511,0h4.325v-7.259h-4.325Zm-12.2,0h4.479v-7.259H237.1Zm37.535-.155h4.479v-7.259h-4.479Zm-6.178,0h4.479v-7.259H268.46Zm-6.642,0H266.3v-7.259h-4.479Zm-18.536,0h4.479v-7.259h-4.479Zm1660.19-1.544h4.789V275.147h-4.789Zm-9.268,0h4.789V275.147H1894.2Zm-10.194,0h4.788V275.147h-4.788Zm-10.349,0h4.789V275.147h-4.789ZM1114,291.983h47.73V287.5H1114Zm581.406-1.854h2.162V287.5h-2.162Zm-3.4,0h2.163V287.5h-2.163Zm-6.025,0h2.163V287.5h-2.163Zm-3.4,0h2.163V287.5h-2.163Zm-3.4,0h2.162V287.5h-2.162Zm-1564.422-2.78h6.488v-5.715h-6.488Zm-9.113,0h6.488v-5.715h-6.488Zm-8.959,0h6.487v-5.715H96.7Zm-10.967,0h6.488v-5.715H85.728Zm-9.113,0H83.1v-5.715H76.614Zm-9.113,0h6.488v-5.715H67.5Zm-8.959,0H65.03v-5.715H58.542Zm913.043-1.236h5.1v-8.649h-5.1Zm-8.033,0h5.1v-8.649h-5.1Zm-8.032,0h5.1v-8.649h-5.1Zm-8.032,0h5.252v-8.649h-5.252Zm-8.187,0h5.252v-8.649H939.3Zm48.348-.154h5.1v-8.5h-5.1Zm-8.033,0h5.1v-8.5h-5.1Zm713.165-1.082h2.163v-2.625h-2.163Zm-3.4,0h2.163v-2.625h-2.163Zm-3.4,0h2.163v-2.625h-2.163Zm-3.4,0h2.163v-2.625h-2.163Zm-6.178,0h2.163v-2.625h-2.163Zm-1395.591-.154H285.3v-7.259h-4.479Zm-6.178,0h4.479v-7.259h-4.479Zm-12.975,0h4.325v-7.259h-4.325Zm-6.178,0h4.325v-7.259h-4.325Zm-6.178,0h4.325v-7.259h-4.325Zm-6.024,0h4.479v-7.259h-4.479Zm-13.284,0h4.479v-7.259H230ZM1319.9,282.716h4.016v-9.886H1319.9Zm-205.9-.772h47.73v-4.479H1114ZM1443.63,280.4l2.935.155.309-10.194h-2.934Zm155.237,0h6.8v-6.024h-6.8Zm-9.577,0h6.8v-6.024h-6.8Zm-22.4,0h6.8v-6.024h-6.8Zm-9.577,0h6.8v-6.024h-6.8Zm-9.577,0h6.8v-6.024h-6.8Zm-9.576,0h6.8v-6.024h-6.8Zm-10.813,0h6.8v-6.178h-6.8Zm168.521-.309h2.163v-2.625h-2.163Zm-3.4,0h2.163v-2.625h-2.163Zm-3.4,0h2.163v-2.625h-2.163Zm-6.025,0h2.163v-2.625h-2.163Zm-3.244,0h2.163v-2.625h-2.163Zm-3.4,0h2.163v-2.625h-2.163Zm60.551-.309h4.016V269.9h-4.016Zm-6.952,0h4.017V269.9h-4.017Zm-6.8,0h4.016V269.9h-4.016Zm-6.952,0h4.017V269.9h-4.017ZM605.348,276.846h4.479v-5.405h-4.479Zm-6.8,0h4.479v-5.405h-4.479Zm-6.488,0h4.479v-5.405h-4.479Zm-6.951,0h4.479v-5.405h-4.479Zm-12.666,0h4.479v-5.405h-4.479Zm-6.952,0h4.479v-5.405H565.5Zm433.738-1.39h5.1v-8.5h-5.1Zm-7.569,0h5.1v-8.5h-5.1Zm-7.414,0h5.1v-8.5h-5.1Zm-7.414,0h5.1v-8.5h-5.1Zm-7.569,0h5.1v-8.5h-5.1Zm-7.414,0h5.252v-8.5h-5.252Zm-7.569,0h5.252v-8.5h-5.252Zm-14.983,0h5.252v-8.5H939.3Zm752.863-.464h2.163v-2.626h-2.163Zm-3.244,0h2.163v-2.626h-2.163Zm-3.4,0h2.162v-2.626h-2.162Zm-6.333,0h2.162v-2.626h-2.162Zm-3.245,0h2.163v-2.626h-2.163Zm-1404.7,0h4.48v-7.259h-4.48Zm-6.951,0h4.479v-7.259H264.29Zm-6.8,0h4.48v-7.259h-4.48Zm-6.951,0h4.479v-7.259h-4.479Zm-6.8,0h4.479v-7.259h-4.479Zm-6.952,0h4.48v-7.259h-4.48Zm-6.8,0h4.479v-7.259H230Zm-113.841-1.7h6.487v-5.715h-6.487Zm-9.113,0h6.487v-5.715h-6.487Zm-21.317,0h6.488v-5.715H85.728Zm-9.113,0H83.1v-5.715H76.614Zm-9.113,0h6.488v-5.715H67.5Zm-8.959,0H65.03v-5.715H58.542Zm-10.349,0H54.68v-5.715H48.193Zm1219.347-.309,2.78.155.309-11.121h-2.78ZM1114,272.522h47.73v-4.479H1114Zm749.773-3.089h45.567v-3.4h-45.567Zm-1259.354-3.4h4.48v-5.405h-4.48Zm-6.8,0H602.1v-5.405h-4.479Zm-12.512,0h4.479v-5.405h-4.479Zm-6.642,0H582.8v-5.405h-4.325Zm-6.951,0H576v-5.405h-4.479Zm-290.549,0h4.479v-7.259h-4.479Zm-6.333,0h4.479v-7.259h-4.479Zm-6.333,0h4.48v-7.259h-4.48Zm-6.487,0H266.3v-7.259h-4.479Zm-6.333,0h4.325v-7.259h-4.325Zm-6.332,0h4.479v-7.259h-4.479Zm-6.488,0h4.479v-7.259h-4.479Zm-12.666,0h4.479v-7.259H230Zm717.335-.927h5.251v-8.649h-5.251Zm-8.033,0h5.252v-8.649H939.3Zm59.315-.154h5.1v-8.5h-5.1Zm-13.747,0h5.1v-8.5h-5.1Zm-8.033,0h5.1v-8.5h-5.1Zm-8.032,0h5.1v-8.5h-5.1Zm-13.284,0h5.1v-8.5h-5.1Zm580.325-3.09h18.073v-5.251h-18.073Zm367.627-.772h4.789v-17.3h-4.789Zm-19.926,0h4.789v-17.3h-4.789Zm-9.577,0h4.789v-17.3h-4.789Zm-9.886,0h4.788v-17.3h-4.788ZM261.818,257.076H266.3v-7.259h-4.479Zm-18.072,0h4.479v-7.259h-4.479Zm-13.747,0h4.479v-7.259H230Zm50.51-.154h4.325v-7.259h-4.325Zm-11.74,0h4.48v-7.259h-4.48Zm-13.747,0h4.48v-7.259h-4.48Zm-18.227,0h4.48v-7.259h-4.48Zm1249.931-1.236h2.935l.309-9.886-2.934-.154Zm-887.711-.309h4.48v-5.406h-4.48Zm-6.951,0h4.479v-5.406h-4.479Zm-6.951,0h4.479v-5.406h-4.479Zm-6.642,0h4.479v-5.406h-4.479Zm-12.975,0h4.479v-5.406H565.5Zm750.391-.155h4.016v-9.885h-4.016Zm145.2-.309,2.935.154.309-10.039-2.934-.154Zm-138.246.154h4.017v-9.885h-4.017Zm-13.9,0h4.016v-9.885h-4.016Zm-6.8,0h4.016v-9.885h-4.016Zm148.75-.464,2.935.155.309-10.194H1451.2Zm-5.1-.154,2.935.155.309-10.194H1446.1Zm-450.111-.309h5.1v-8.5h-5.1Zm-8.032,0h5.1v-8.5h-5.1Zm-8.033,0h5.1v-8.5h-5.1Zm-8.032,0h5.1v-8.5h-5.1Zm-8.033,0h5.1v-8.5h-5.1Zm-8.032,0h5.1v-8.5h-5.1Zm-8.032,0h5.1v-8.5h-5.1Zm-8.187,0h5.252v-8.5H939.3Zm596.544-1.7h18.073v-5.252h-18.073Zm-1292.1-4.634h4.479v-7.259h-4.479Zm-13.747,0h4.324v-7.259H230Zm48.038-.154h4.479V240.4h-4.479Zm-6.8,0h4.48V240.4h-4.48Zm-6.951,0h4.479V240.4H264.29Zm-6.8,0h4.48V240.4h-4.48Zm-6.951,0h4.479V240.4h-4.479Zm-13.747,0h4.48V240.4h-4.48Zm328.7-2.008h4.479v-5.406H565.5Zm39.852-.155h4.479v-5.405h-4.479Zm-6.8,0h4.479v-5.405h-4.479Zm-6.952,0h4.48v-5.405H591.6Zm-12.357,0h4.479v-5.405h-4.479Zm-6.8,0h4.479v-5.405h-4.479Zm963.4-2.471h18.073v-5.251h-18.073Zm-815.576-.309h15.91v-4.479H720.27Zm602.568-2.317h4.017V230.51h-4.017Zm-6.951,0h4.016V230.51h-4.016Zm-6.951,0h4.016V230.51h-4.016Zm-6.8,0h4.016V230.51h-4.016Zm-31.666-1.544h2.781l.309-10.813-2.78-.154ZM1249,235.607h2.781l.309-10.812-2.78-.155Zm-650.915-.31h4.479v-5.405h-4.479Zm-6.951,0h4.479v-5.405h-4.479Zm-6.952,0h4.479v-5.405h-4.479Zm-12.82,0h4.479v-5.405h-4.479Zm-6.8,0h4.479v-5.405H564.57Zm124.035-2.008h47.73v-4.478h-47.73Zm773.1-.463,2.935.154.309-10.039-2.935-.154Zm-5.1.154h2.935l.309-9.885-2.935-.155Zm-5.251-.154h2.935l.309-9.886-2.935-.154Zm-5.1-.31,2.935.155.309-10.039-2.935-.155Zm33.21-8.958h2.935l.309-10.04h-2.935ZM688.605,223.1h47.73v-4.479h-47.73Zm0-9.422h47.73V209.2h-47.73Zm0-10.04h47.73V199.31h-47.73Zm553.139-4.943,4.016.155.464-15.909-4.016-.154Zm21.316-.772,4.017.155.464-15.909-4.017-.154Zm226.6-2.008h2.935l.31-9.885-2.936-.155Zm-5.252-.309,2.935.155.309-10.04h-2.935Zm-5.1.155h2.935l.309-10.04-2.934-.155Zm-5.1-.464,2.935.154.309-10.193h-2.935ZM1284.84,193.9l2.78.155.309-11.121h-2.78Zm-596.235.155h47.73V189.58h-47.73Zm590.056-.155h2.78l.309-10.966h-2.78Zm-6.025-.309,2.781.155.309-11.121h-2.78Zm172.383-1.7h2.935l.309-10.04-2.935-.154ZM414.893,186.954h7.26v-26.1h-7.26Zm-15.447,0h7.26v-26.1h-7.26Zm-15.446,0h7.259v-26.1H384Zm304.605-2.935h47.73V179.54h-47.73Zm0-9.422h47.73v-4.479h-47.73Zm885.084-6.332h2.935l.309-9.886-2.935-.154Zm-5.252,0h2.934l.31-10.04-2.935-.155Zm-4.944-.309h2.935l.31-10.04H1563.8Zm-5.251,0h2.935l.309-10.04-2.935-.155ZM429.413,154.673h7.26v-26.1h-7.26Zm-29.966,0h7.26v-26.1h-7.26Zm-15.292,0h7.26v-26.1h-7.26Zm-14.056,0h7.26v-26.1H370.1Zm1202.046-12.357h2.936l.309-10.04h-2.935ZM414.893,121.928h7.26v-26.1h-7.26Zm-15.447,0h7.26v-26.1h-7.26Zm-15.446,0h7.259v-26.1H384Zm-13.9,0h7.26v-26.1H370.1Zm1204.982-7.723,2.934.155.31-10.194h-2.935Zm-5.252-.154,2.935.154.309-10.04h-2.934Zm-5.1.154h2.935l.309-10.04-2.935-.155Zm-5.1-.309,2.935.155.309-10.04h-2.935Zm15.755-14.519h2.935l.309-10.04H1575.7Zm-5.1-.309,2.935.154.309-10.04H1570.6Zm-5.1.154h2.935l.31-10.04-2.935-.154Zm-5.251-.154h2.935l.309-10.04h-2.935ZM368.554,87.176h68.583v-5.1H368.554Zm60.859-12.2h7.26v-26.1h-7.26Zm-14.983,0h7.26v-26.1h-7.26Zm-14.365,0h7.259v-26.1h-7.259Zm-29.966,0h7.26v-26.1H370.1Zm1540.48,121.092v0Z" transform="translate(32.5 8.77)"/></g></svg>