<svg xmlns="http://www.w3.org/2000/svg" xmlns:xlink="http://www.w3.org/1999/xlink" width="273.525" height="116.15" viewBox="0 0 273.525 116.15"><defs><style>.a{fill:#fff;}.b{filter:url(#a);}</style><filter id="a" x="0" y="0" width="273.525" height="116.15" filterUnits="userSpaceOnUse"><feOffset dx="-4" dy="-1" input="SourceAlpha"/><feGaussianBlur stdDeviation="2" result="b"/><feFlood flood-opacity="0.161"/><feComposite operator="in" in2="b"/><feComposite in="SourceGraphic"/></filter></defs><g class="b" transform="matrix(1, 0, 0, 1, 0, 0)"><path class="a" d="M356.441,168.319c.966-7.243-4.346-13.762-11.831-14.728a14.076,14.076,0,0,0-9.416,2.173,11.573,11.573,0,0,0,1.69-4.829c.966-7.243-4.346-13.762-11.831-14.728a15.809,15.809,0,0,0-6.76.724,23.354,23.354,0,0,0,2.9-8.451c1.69-12.314-7.485-23.661-20.04-25.352a26.172,26.172,0,0,0-10.623.966c-1.932-9.175-9.658-16.418-19.8-17.867a22.762,22.762,0,0,0-21.971,9.416,18.211,18.211,0,0,0-7-2.173c-10.141-1.449-19.8,4.829-22.454,14h-.241a20.446,20.446,0,0,0-22.7,14.969,19.877,19.877,0,0,0-11.589-5.312,19.407,19.407,0,0,0-10.624,1.449,23.641,23.641,0,0,0-18.591-14c-11.348-1.449-21.971,5.312-25.11,15.694a13.644,13.644,0,0,0-23.179,6.519A19.959,19.959,0,0,0,95.2,142.485c-1.449,11.106,6.519,21.006,17.867,22.7a21.378,21.378,0,0,0,5.553,0,21.055,21.055,0,0,0,32.595,7.726A22.918,22.918,0,0,0,168.6,184.255a23.537,23.537,0,0,0,21.971-9.175A13.625,13.625,0,0,0,198.3,178.7a13.163,13.163,0,0,0,12.314-4.829,20.988,20.988,0,0,0,33.319-1.69,24.318,24.318,0,0,0,14.969,8.209,23.732,23.732,0,0,0,20.281-7.243,14.966,14.966,0,0,0,12.072,9.416,4.938,4.938,0,0,0,2.656,0,14.746,14.746,0,0,0,11.106,7.485,15.12,15.12,0,0,0,14.728-7,15.719,15.719,0,0,0,8.692,4.346,15.12,15.12,0,0,0,14.728-7C349.681,179.667,355.476,174.838,356.441,168.319Z" transform="translate(-85.03 -79.01)"/></g></svg>