<svg xmlns="http://www.w3.org/2000/svg" xmlns:xlink="http://www.w3.org/1999/xlink" width="187.041" height="97.224" viewBox="0 0 187.041 97.224"><defs><style>.a{fill:#fff;}.b{filter:url(#a);}</style><filter id="a" x="0" y="0" width="187.041" height="97.224" filterUnits="userSpaceOnUse"><feOffset dx="-16" dy="-5" input="SourceAlpha"/><feGaussianBlur stdDeviation="5.5" result="b"/><feFlood flood-opacity="0.161"/><feComposite operator="in" in2="b"/><feComposite in="SourceGraphic"/></filter></defs><g class="b" transform="matrix(1, 0, 0, 1, 0, 0)"><path class="a" d="M145.59,47.268v-.483a8.092,8.092,0,0,0-8.209-7.968,4.707,4.707,0,0,0-1.932.241,14.118,14.118,0,0,0-12.8-7.968,14.742,14.742,0,0,0-11.831,6.036,11.684,11.684,0,0,0-7-2.414,11.323,11.323,0,0,0-7.485,2.656,11.319,11.319,0,0,0-10.382-9.416A11.428,11.428,0,0,0,74.365,17.329a9.8,9.8,0,0,0-4.587.966A14.644,14.644,0,0,0,58.429,12.5a13.922,13.922,0,0,0-12.8,8.209,8.063,8.063,0,0,0-3.622-.724,8.8,8.8,0,0,0-7,3.622A11.186,11.186,0,0,0,24.144,34.713a5.316,5.316,0,0,0,.241,1.932h-.724a7.923,7.923,0,0,0-7.726,5.312H14.728A7.88,7.88,0,0,0,7.485,46.3,8.306,8.306,0,0,0,0,54.27a8.092,8.092,0,0,0,8.209,7.968,7.143,7.143,0,0,0,2.414-.483,8.421,8.421,0,0,0,7.243,4.1,7.955,7.955,0,0,0,5.312-1.932A8.292,8.292,0,0,0,30.9,69a8.82,8.82,0,0,0,6.76-3.38,12.119,12.119,0,0,0,2.9.483,8.118,8.118,0,0,0,7.968-5.795,11.456,11.456,0,0,0,9.9,5.553A11.688,11.688,0,0,0,67.121,62a11.376,11.376,0,0,0,10.865,7.243,12.123,12.123,0,0,0,9.9-5.312A8.06,8.06,0,0,0,95.853,70.2h.724a14.222,14.222,0,0,0,11.831,6.519,14.59,14.59,0,0,0,10.382-4.346,14.763,14.763,0,0,0,7.968,2.414,13.7,13.7,0,0,0,11.831-6.278,10.935,10.935,0,0,0,3.863.724c6.278,0,11.589-5.07,11.589-11.106A11.16,11.16,0,0,0,145.59,47.268Z" transform="translate(32.5 9)"/></g></svg>