<svg xmlns="http://www.w3.org/2000/svg" xmlns:xlink="http://www.w3.org/1999/xlink" width="260.204" height="104.956" viewBox="0 0 260.204 104.956"><defs><style>.a{fill:#fff;}.b{filter:url(#a);}</style><filter id="a" x="0" y="0" width="260.204" height="104.956" filterUnits="userSpaceOnUse"><feOffset dx="-4" dy="-1" input="SourceAlpha"/><feGaussianBlur stdDeviation="2" result="b"/><feFlood flood-opacity="0.161"/><feComposite operator="in" in2="b"/><feComposite in="SourceGraphic"/></filter></defs><g class="b" transform="matrix(1, 0, 0, 1, 0, 0)"><path class="a" d="M854.971,141.742a12.61,12.61,0,0,0,.966-5.07,14.529,14.529,0,0,0-14.487-14.487h-.241a22.1,22.1,0,0,0,.241-4.1,30.12,30.12,0,0,0-58.671-9.658,16.353,16.353,0,0,0-9.9-3.38,16.693,16.693,0,0,0-16.66,16.66v.483a18.756,18.756,0,0,0-11.589-4.1,18.164,18.164,0,0,0-15.452,8.451,16.6,16.6,0,0,0-15.694-11.589,15.927,15.927,0,0,0-7.726,1.932,30.09,30.09,0,0,0-57.705,9.416,16.3,16.3,0,0,0-3.38-.483,14.529,14.529,0,0,0-14.487,14.487,14.487,14.487,0,0,0,0,28.973,13.954,13.954,0,0,0,7.726-2.414,20.275,20.275,0,0,0,36.7,4.1,30.424,30.424,0,0,0,14.728,3.863,29.613,29.613,0,0,0,19.557-7.243,18.385,18.385,0,0,0,26.076.724,16.394,16.394,0,0,0,16.177,12.555A16.678,16.678,0,0,0,766.6,170.474a17.174,17.174,0,0,0,11.348,4.587,17.454,17.454,0,0,0,11.831-4.829,18.812,18.812,0,0,0,10.382,3.139,18.528,18.528,0,0,0,17.384-12.314,16.352,16.352,0,0,0,11.106,4.346,15.4,15.4,0,0,0,8.692-2.656A14.469,14.469,0,0,0,863.9,154.78,14.936,14.936,0,0,0,854.971,141.742Z" transform="translate(-605.7 -80.9)"/></g></svg>