<svg xmlns="http://www.w3.org/2000/svg" width="855.979" height="105.522" viewBox="0 0 855.979 105.522"><defs><style>.a{fill:#333e48;}</style></defs><g transform="translate(409.382 -821.551)"><g transform="translate(-60.834 821.551)"><path class="a" d="M3701.862,865.009a3.067,3.067,0,0,1,2.194.621,2.79,2.79,0,0,1,.621,2.029v26.907a4.852,4.852,0,0,0,.249,1.9.855.855,0,0,0,.828.5,1.055,1.055,0,0,0,1.035-.58,11.512,11.512,0,0,0,.621-2.649,6.265,6.265,0,0,1,.331-1.7.7.7,0,0,1,.663-.29h1.407a.735.735,0,0,1,.7.58,6.645,6.645,0,0,1,.207,1.987q0,6.625-3.56,10.183t-10.184,3.56q-6.376,0-9.811-3.6t-3.436-10.308V875.192a9.517,9.517,0,0,0-.828-4.429,7.956,7.956,0,0,0-3.064-2.856,2.094,2.094,0,0,1-.7-.538,1.037,1.037,0,0,1-.124-.538v-.994q0-.827.994-.828Zm6.15-36.745c-.875-2.736-3.884-4.753-7.462-4.753a8.231,8.231,0,0,0-6.428,2.854c-6.865-9.607-18.555-3.539-18.246,6.836a10.233,10.233,0,0,0,2.449,6.2h0l.014.017q.1.119.194.238l.014.017c.071.085.143.169.216.253l.068.077.153.171.088.1.139.15.1.1.137.143.1.1.143.143.1.1.159.154.087.084c.082.079.165.157.249.235a61.743,61.743,0,0,0,6.063,4.7l.162.116.375.269.323.233.22.158.465.339.081.058q.276.2.55.407a25.645,25.645,0,0,1,6.384,6.221c1.709-6.47,13.46-12.868,13.692-22.6A7.653,7.653,0,0,0,3708.012,828.264Z" transform="translate(-3675.87 -821.551)"/></g><path class="a" d="M-378.832,1166.823a12.406,12.406,0,0,0-9.024,3.56,11.785,11.785,0,0,0-3.643,8.776,13.745,13.745,0,0,0,4.761,10.763q4.76,4.222,12.212,4.222a20.615,20.615,0,0,0,8.238-1.656,17.049,17.049,0,0,0,6.334-4.554,7.569,7.569,0,0,1,.745-.786.882.882,0,0,1,.58-.207h1.242a.966.966,0,0,1,.869.455,5.715,5.715,0,0,1,.538,1.78,19.156,19.156,0,0,1,.331,3.725,29.94,29.94,0,0,1-3.229,13.951,25.389,25.389,0,0,1-9.107,9.977,24.67,24.67,0,0,1-13.5,3.725,27.644,27.644,0,0,1-14.033-3.643,26.632,26.632,0,0,1-10.1-10.432A31.358,31.358,0,0,1-409.382,1191a30.584,30.584,0,0,1,3.395-14.53,25.091,25.091,0,0,1,9.687-10.1,28.31,28.31,0,0,1,14.571-3.684,29.34,29.34,0,0,1,11.177,2.028,18.947,18.947,0,0,1,7.907,5.754,13.4,13.4,0,0,1,2.939,8.527,11.063,11.063,0,0,1-3.974,8.9q-3.974,3.353-10.515,3.353a16.851,16.851,0,0,1-7.244-1.532,12.9,12.9,0,0,1-5.216-4.3,10.753,10.753,0,0,1-1.946-6.334,8.935,8.935,0,0,1,3.063-7.12,12.225,12.225,0,0,1,8.279-2.649,1.5,1.5,0,0,0,.5-1.076,1.17,1.17,0,0,0-.58-1.035A2.714,2.714,0,0,0-378.832,1166.823Z" transform="translate(0 -312.028)"/><path class="a" d="M269.469,1363.932q-11.674,0-17.759-5.63t-6.085-16.393q0-10.762,6.085-16.393t17.759-5.63q11.674,0,17.759,5.63t6.085,16.393q0,10.764-6.085,16.393T269.469,1363.932Zm0-3.808q1.49,0,1.49-2.236v-31.958q0-2.235-1.49-2.235t-1.49,2.235v31.958Q267.979,1360.124,269.469,1360.124Z" transform="translate(-599.123 -455.818)"/><path class="a" d="M822.666,1320.88a12.68,12.68,0,0,1,6.5,1.449,7.484,7.484,0,0,1,3.353,4.512,13.577,13.577,0,0,1,5.092-5.133,14.017,14.017,0,0,1,7.079-1.821,12.16,12.16,0,0,1,6.541,1.7,10.142,10.142,0,0,1,4.057,4.926,12.166,12.166,0,0,1,4.926-4.885,14.7,14.7,0,0,1,7.161-1.739q5.794,0,8.817,3.477t3.022,10.183v26.742a2.787,2.787,0,0,1-.621,2.029,3.067,3.067,0,0,1-2.194.621H862.323a3.065,3.065,0,0,1-2.194-.621,2.786,2.786,0,0,1-.621-2.029v-28.48a2.508,2.508,0,0,0-.414-1.49,1.346,1.346,0,0,0-1.159-.579,1.529,1.529,0,0,0-1.407.662v29.888a2.787,2.787,0,0,1-.621,2.029,3.067,3.067,0,0,1-2.194.621H839.638a3.065,3.065,0,0,1-2.194-.621,2.787,2.787,0,0,1-.621-2.029v-28.48a2.508,2.508,0,0,0-.414-1.49,1.346,1.346,0,0,0-1.159-.579,1.529,1.529,0,0,0-1.408.662v29.888a2.787,2.787,0,0,1-.621,2.029,3.067,3.067,0,0,1-2.194.621H816.953a3.065,3.065,0,0,1-2.194-.621,2.787,2.787,0,0,1-.621-2.029v-29.226a9.518,9.518,0,0,0-.828-4.429,7.957,7.957,0,0,0-3.063-2.856,2.088,2.088,0,0,1-.7-.538,1.032,1.032,0,0,1-.124-.538v-.993q0-.827.993-.828Z" transform="translate(-1114.815 -455.818)"/><path class="a" d="M1664.959,1320.88a12.679,12.679,0,0,1,6.5,1.449,7.484,7.484,0,0,1,3.353,4.512,13.579,13.579,0,0,1,5.092-5.133,14.017,14.017,0,0,1,7.079-1.821,12.159,12.159,0,0,1,6.541,1.7,10.141,10.141,0,0,1,4.057,4.926,12.166,12.166,0,0,1,4.926-4.885,14.7,14.7,0,0,1,7.161-1.739q5.794,0,8.817,3.477t3.022,10.183v26.742a2.788,2.788,0,0,1-.621,2.029,3.068,3.068,0,0,1-2.194.621h-14.075a3.065,3.065,0,0,1-2.194-.621,2.787,2.787,0,0,1-.621-2.029v-28.48a2.508,2.508,0,0,0-.414-1.49,1.346,1.346,0,0,0-1.159-.579,1.529,1.529,0,0,0-1.407.662v29.888a2.788,2.788,0,0,1-.621,2.029,3.068,3.068,0,0,1-2.194.621h-14.074a3.065,3.065,0,0,1-2.194-.621,2.787,2.787,0,0,1-.621-2.029v-28.48a2.508,2.508,0,0,0-.414-1.49,1.346,1.346,0,0,0-1.159-.579,1.529,1.529,0,0,0-1.407.662v29.888a2.787,2.787,0,0,1-.621,2.029,3.067,3.067,0,0,1-2.194.621h-14.075a3.065,3.065,0,0,1-2.194-.621,2.787,2.787,0,0,1-.621-2.029v-29.226a9.519,9.519,0,0,0-.828-4.429,7.959,7.959,0,0,0-3.063-2.856,2.09,2.09,0,0,1-.7-.538,1.033,1.033,0,0,1-.124-.538v-.993q0-.827.993-.828Z" transform="translate(-1885.244 -455.818)"/><path class="a" d="M2512.56,1331.532a3.067,3.067,0,0,1,2.194.621,2.79,2.79,0,0,1,.621,2.028v28.48a2.492,2.492,0,0,0,.414,1.49,1.341,1.341,0,0,0,1.159.58,1.527,1.527,0,0,0,1.407-.662v-29.888a2.787,2.787,0,0,1,.621-2.028,3.064,3.064,0,0,1,2.194-.621h14.9a3.087,3.087,0,0,1,2.153.621,2.678,2.678,0,0,1,.662,2.028v26.908a4.849,4.849,0,0,0,.248,1.9.856.856,0,0,0,.828.5,1.119,1.119,0,0,0,1.076-.662,9.324,9.324,0,0,0,.58-2.567,6.288,6.288,0,0,1,.331-1.7.7.7,0,0,1,.662-.29h1.408a.735.735,0,0,1,.7.579,6.259,6.259,0,0,1,.207,1.9q0,6.458-3.56,10.142t-9.852,3.684a13.791,13.791,0,0,1-7.037-1.821,11.978,11.978,0,0,1-4.8-5.133,12.768,12.768,0,0,1-5.133,5.133,15.211,15.211,0,0,1-7.451,1.821q-5.961,0-9.107-3.56t-3.146-10.1v-19.208a9.518,9.518,0,0,0-.828-4.429,7.956,7.956,0,0,0-3.063-2.856,2.078,2.078,0,0,1-.7-.538,1.028,1.028,0,0,1-.125-.538v-.993q0-.827.994-.828Z" transform="translate(-2652.124 -466.47)"/><path class="a" d="M3134.947,1320.88a12.68,12.68,0,0,1,6.5,1.449,7.482,7.482,0,0,1,3.353,4.512,12.969,12.969,0,0,1,5.175-5.175,15.25,15.25,0,0,1,7.41-1.78q5.961,0,9.107,3.56t3.146,10.1v26.742a2.786,2.786,0,0,1-.621,2.029,3.068,3.068,0,0,1-2.194.621h-14.9a3.066,3.066,0,0,1-2.194-.621,2.786,2.786,0,0,1-.621-2.029v-28.48a2.508,2.508,0,0,0-.414-1.49,1.346,1.346,0,0,0-1.159-.579,1.529,1.529,0,0,0-1.408.662v29.888a2.788,2.788,0,0,1-.621,2.029,3.066,3.066,0,0,1-2.194.621h-14.9a3.065,3.065,0,0,1-2.194-.621,2.788,2.788,0,0,1-.621-2.029v-29.226a9.517,9.517,0,0,0-.828-4.429,7.955,7.955,0,0,0-3.063-2.856,2.091,2.091,0,0,1-.7-.538,1.035,1.035,0,0,1-.124-.538v-.993q0-.827.994-.828Z" transform="translate(-3229.058 -455.818)"/><path class="a" d="M4074.945,1198.326a3.506,3.506,0,0,1,1.035-2.111,3.448,3.448,0,0,1,2.111-.538h9.024a3.066,3.066,0,0,1,2.194.621,2.788,2.788,0,0,1,.621,2.028v8.942h8.2q.993,0,.993.828v1.49q0,.829-.993.828h-8.2v26a3.846,3.846,0,0,0,.455,2.235,2.059,2.059,0,0,0,1.7.58,1.632,1.632,0,0,0,1.449-.662,7.205,7.205,0,0,0,.787-2.567,5.141,5.141,0,0,1,.373-1.656.764.764,0,0,1,.7-.331h1.325a.736.736,0,0,1,.7.58,6.638,6.638,0,0,1,.207,1.987q0,6.625-3.643,10.183t-10.35,3.56q-6.954,0-10.8-3.808t-3.85-10.68v-25.417H4064.1q-.993,0-.994-.828v-1.49q0-.827.994-.828h.331a16.152,16.152,0,0,0,5.713-.745,5.732,5.732,0,0,0,2.856-2.566A22.717,22.717,0,0,0,4074.945,1198.326Z" transform="translate(-4090.901 -342.206)"/><path class="a" d="M4435.684,1338.735a6.374,6.374,0,0,0-1.366-2.318,13.48,13.48,0,0,0-2.607-1.987q-.827-.5-.828-1.076v-.993q0-.827.994-.828h12.916a29.206,29.206,0,0,1,8.32.869,8.066,8.066,0,0,1,4.223,3.022,24.929,24.929,0,0,1,2.939,6.375l7.948,24.01a1.35,1.35,0,0,0,.993.414q1.242,0,1.242-1.407a9.76,9.76,0,0,0-.663-2.732l-7.451-22.768a14.876,14.876,0,0,0-1.9-4.305q-.745-.91-.952-1.2a1.172,1.172,0,0,1-.207-.7v-.745q0-.827.994-.828H4483.7q2.979,0,2.98,2.152,0,1.987-4.223,13.578t-11.508,29.474a50.708,50.708,0,0,1-5.216,10.142,15.61,15.61,0,0,1-5.671,5.133,16.389,16.389,0,0,1-7.327,1.532q-6.128,0-9.894-2.732a8.487,8.487,0,0,1-3.767-7.2,7.611,7.611,0,0,1,3.063-6.292,12.5,12.5,0,0,1,7.949-2.4,12,12,0,0,1,7.451,2.194,6.8,6.8,0,0,1,2.9,5.671,4.985,4.985,0,0,1-1.78,4.1,7.741,7.741,0,0,1-5.009,1.449,1.625,1.625,0,0,0-.165.745q0,1.159,1.9,1.159a7.233,7.233,0,0,0,5.381-2.194,7.544,7.544,0,0,0,2.152-5.505,8.351,8.351,0,0,0-2.732-6.416,15.373,15.373,0,0,0-7.948-3.436,8.305,8.305,0,0,1-3.891-1.324,9.6,9.6,0,0,1-1.9-3.643Z" transform="translate(-4427.3 -466.47)"/><path class="a" d="M5378.646,1179.181q10.6,0,16.021,4.926t5.423,14.53q0,8.776-5.381,13.992t-14.654,5.216a23.915,23.915,0,0,1-7.2-.993v14.489a3.4,3.4,0,0,1-.58,2.235,2.784,2.784,0,0,1-2.152.663H5353.4a2.781,2.781,0,0,1-2.152-.663,3.39,3.39,0,0,1-.58-2.235v-42.721a10,10,0,0,0-.331-3.022,4.394,4.394,0,0,0-1.159-1.739,22.658,22.658,0,0,0-2.814-2.111.812.812,0,0,1-.414-.745v-.994q0-.827.993-.828Zm-5.8,33.034a1.836,1.836,0,0,0,1.573.662,1.345,1.345,0,0,0,1.16-.579,2.508,2.508,0,0,0,.414-1.49v-25.583a2.513,2.513,0,0,0-.414-1.49,1.348,1.348,0,0,0-1.16-.579,1.839,1.839,0,0,0-1.573.662Z" transform="translate(-5264.29 -327.117)"/><path class="a" d="M6035.1,1363.932q-8.362,0-11.922-6.872a12.984,12.984,0,0,1-4.678,5.216,13.119,13.119,0,0,1-6.83,1.656,14.168,14.168,0,0,1-9.19-2.815,9.109,9.109,0,0,1-3.477-7.451,7.883,7.883,0,0,1,2.857-6.416q2.855-2.359,8.817-3.187,15.233-1.987,15.234-11.508a9.21,9.21,0,0,0-2.65-6.582,8.413,8.413,0,0,0-6.292-2.773q-1.739,0-1.739,1.159a1.6,1.6,0,0,0,.248.828,8.084,8.084,0,0,1,5.713,2.07,6.9,6.9,0,0,1,2.235,5.3,7.658,7.658,0,0,1-3.187,6.292,12.88,12.88,0,0,1-8.156,2.484,12.012,12.012,0,0,1-8.03-2.525,8.3,8.3,0,0,1-2.981-6.665q0-5.546,5.382-8.9t14.24-3.353q10.6,0,16.1,5.133t5.505,15.068v10.349a4.851,4.851,0,0,0,.249,1.9.855.855,0,0,0,.828.5,1.12,1.12,0,0,0,1.076-.662,9.305,9.305,0,0,0,.58-2.567,6.293,6.293,0,0,1,.331-1.7.7.7,0,0,1,.662-.29h1.408a.735.735,0,0,1,.7.579,6.231,6.231,0,0,1,.208,1.9q0,6.625-3.437,10.225T6035.1,1363.932Zm-13.329-17.883a1.575,1.575,0,0,0-1.325-.662q-1.409,0-1.407,1.656v5.3q0,1.657,1.407,1.656a1.572,1.572,0,0,0,1.325-.662Z" transform="translate(-5861.635 -455.818)"/><path class="a" d="M6572.579,1320.88q7.119,0,9.687,4.222a15.553,15.553,0,0,1,5.381-3.933,17.25,17.25,0,0,1,6.872-1.283,14.8,14.8,0,0,1,9.935,3.312,10.6,10.6,0,0,1,3.892,8.445,8.772,8.772,0,0,1-3.146,7,12.045,12.045,0,0,1-8.114,2.691,12.392,12.392,0,0,1-7.99-2.484,7.723,7.723,0,0,1-3.1-6.292,6.9,6.9,0,0,1,2.235-5.3,8.084,8.084,0,0,1,5.713-2.07,1.594,1.594,0,0,0,.249-.828q0-1.158-1.739-1.159a8.412,8.412,0,0,0-6.292,2.773,9.307,9.307,0,0,0-2.649,6.665,9.57,9.57,0,0,0,1.863,5.837,12.6,12.6,0,0,0,5.34,4.015,3.19,3.19,0,0,1,1.531,1.118,4.352,4.352,0,0,1,.373,2.111v14.571q0,2.651-2.815,2.65h-16.807q-2.566,0-2.566-2.65v-29.226a9.517,9.517,0,0,0-.828-4.429,7.955,7.955,0,0,0-3.063-2.856,2.094,2.094,0,0,1-.7-.538,1.03,1.03,0,0,1-.124-.538v-.993q0-.827.993-.828Z" transform="translate(-6379.985 -455.818)"/><path class="a" d="M7054,1198.326a3.512,3.512,0,0,1,1.035-2.111,3.45,3.45,0,0,1,2.111-.538h9.024a3.068,3.068,0,0,1,2.195.621,2.79,2.79,0,0,1,.621,2.028v8.942h8.2q.995,0,.995.828v1.49q0,.829-.995.828h-8.2v26a3.841,3.841,0,0,0,.456,2.235,2.056,2.056,0,0,0,1.7.58,1.63,1.63,0,0,0,1.448-.662,7.211,7.211,0,0,0,.788-2.567,5.164,5.164,0,0,1,.372-1.656.767.767,0,0,1,.7-.331h1.325a.735.735,0,0,1,.7.58,6.651,6.651,0,0,1,.207,1.987q0,6.625-3.643,10.183t-10.349,3.56q-6.955,0-10.805-3.808t-3.85-10.68v-25.417h-4.884q-.993,0-.994-.828v-1.49q0-.827.994-.828h.332a16.144,16.144,0,0,0,5.712-.745,5.733,5.733,0,0,0,2.857-2.566A22.737,22.737,0,0,0,7054,1198.326Z" transform="translate(-6815.787 -342.206)"/><path class="a" d="M7444.39,1320.88a12.677,12.677,0,0,1,6.5,1.449,7.479,7.479,0,0,1,3.353,4.512,12.977,12.977,0,0,1,5.175-5.175,15.248,15.248,0,0,1,7.41-1.78q5.962,0,9.108,3.56t3.145,10.1v26.742a2.786,2.786,0,0,1-.621,2.029,3.064,3.064,0,0,1-2.194.621h-14.9a3.066,3.066,0,0,1-2.194-.621,2.789,2.789,0,0,1-.621-2.029v-28.48a2.513,2.513,0,0,0-.414-1.49,1.348,1.348,0,0,0-1.159-.579,1.527,1.527,0,0,0-1.407.662v29.888a2.786,2.786,0,0,1-.622,2.029,3.065,3.065,0,0,1-2.193.621h-14.9a3.064,3.064,0,0,1-2.194-.621,2.786,2.786,0,0,1-.621-2.029v-29.226a9.524,9.524,0,0,0-.828-4.429,7.962,7.962,0,0,0-3.063-2.856,2.067,2.067,0,0,1-.7-.538,1.03,1.03,0,0,1-.125-.538v-.993q0-.827.994-.828Z" transform="translate(-7170.826 -455.818)"/><path class="a" d="M8077.363,1343.814q0,1.906,3.228,3.519a15.886,15.886,0,0,0,7.2,1.614,17.062,17.062,0,0,0,12.916-5.3,4.753,4.753,0,0,1,.7-.621,1.226,1.226,0,0,1,.621-.124h.993a.8.8,0,0,1,.786.414,3.724,3.724,0,0,1,.207,1.49,17.275,17.275,0,0,1-2.774,9.48,20.056,20.056,0,0,1-7.864,7,24.294,24.294,0,0,1-11.384,2.649,26.315,26.315,0,0,1-12.087-2.732,21.377,21.377,0,0,1-8.569-7.782,21.1,21.1,0,0,1-3.187-11.508,21.612,21.612,0,0,1,2.98-11.342,20.8,20.8,0,0,1,8.486-7.824,27.581,27.581,0,0,1,12.873-2.856,27.116,27.116,0,0,1,9.977,1.739,16.325,16.325,0,0,1,7,4.967,11.647,11.647,0,0,1,2.566,7.451,11.479,11.479,0,0,1-3.892,8.9,14.132,14.132,0,0,1-9.853,3.519,12.671,12.671,0,0,1-9.687-3.974,1.189,1.189,0,0,0-.869.373A1.291,1.291,0,0,0,8077.363,1343.814Zm2.483-5.713a1.57,1.57,0,0,0,1.324.662q1.491,0,1.49-1.656v-11.756q0-1.655-1.49-1.656a1.574,1.574,0,0,0-1.324.662Z" transform="translate(-7745.099 -455.818)"/><path class="a" d="M8596.792,1320.88q7.121,0,9.688,4.222a15.541,15.541,0,0,1,5.382-3.933,17.242,17.242,0,0,1,6.872-1.283,14.8,14.8,0,0,1,9.934,3.312,10.6,10.6,0,0,1,3.892,8.445,8.769,8.769,0,0,1-3.146,7,12.039,12.039,0,0,1-8.112,2.691,12.392,12.392,0,0,1-7.99-2.484,7.723,7.723,0,0,1-3.1-6.292,6.9,6.9,0,0,1,2.234-5.3,8.08,8.08,0,0,1,5.712-2.07,1.589,1.589,0,0,0,.248-.828q0-1.158-1.737-1.159a8.408,8.408,0,0,0-6.292,2.773,9.3,9.3,0,0,0-2.65,6.665,9.573,9.573,0,0,0,1.863,5.837,12.609,12.609,0,0,0,5.341,4.015,3.186,3.186,0,0,1,1.53,1.118,4.343,4.343,0,0,1,.374,2.111v14.571q0,2.651-2.815,2.65h-16.807q-2.569,0-2.567-2.65v-29.226a9.538,9.538,0,0,0-.827-4.429,7.965,7.965,0,0,0-3.062-2.856,2.069,2.069,0,0,1-.7-.538,1.02,1.02,0,0,1-.125-.538v-.993c0-.551.33-.828.994-.828Z" transform="translate(-8231.496 -455.818)"/><path class="a" d="M9123.034,1353.418a4.815,4.815,0,0,1-1.49,3.6,6.169,6.169,0,0,1-4.058,1.614,1.679,1.679,0,0,0-.33.911q0,1.077,1.49,1.077a6.364,6.364,0,0,0,4.761-2.277,7.5,7.5,0,0,0,2.111-5.257,6.6,6.6,0,0,0-2.318-5.34q-2.319-1.944-8.031-3.27-10.847-2.484-10.847-10.6,0-6.458,6.252-10.225t16.931-3.767q8.776,0,13.66,2.691t4.886,7.493a6.254,6.254,0,0,1-2.567,5.257,11.549,11.549,0,0,1-7.12,1.946,12.746,12.746,0,0,1-7.285-1.9,5.77,5.77,0,0,1-2.815-4.968,4.826,4.826,0,0,1,1.49-3.6,6.185,6.185,0,0,1,4.058-1.614,1.686,1.686,0,0,0,.331-.911q0-1.075-1.489-1.076a6.364,6.364,0,0,0-4.762,2.277,7.5,7.5,0,0,0-2.111,5.257,6.483,6.483,0,0,0,2.524,5.381q2.527,1.987,8.4,3.229,6.954,1.409,9.935,3.933a8.867,8.867,0,0,1,2.98,7.161,11.028,11.028,0,0,1-5.836,10.018q-5.836,3.477-16.766,3.477-9.936,0-15.854-2.815t-5.92-7.451a6.109,6.109,0,0,1,2.608-5.216,11.771,11.771,0,0,1,7.078-1.9,12.762,12.762,0,0,1,7.286,1.9A5.774,5.774,0,0,1,9123.034,1353.418Z" transform="translate(-8701.026 -455.818)"/></g></svg>