<svg xmlns="http://www.w3.org/2000/svg" width="576.282" height="52.967" viewBox="0 0 576.282 52.967"><defs><style>.a{fill:#62a0a5;}</style></defs><path class="a" d="M494.078,2555.9a8.887,8.887,0,0,0-6.465,2.551,8.443,8.443,0,0,0-2.61,6.287,9.847,9.847,0,0,0,3.411,7.71,12.691,12.691,0,0,0,8.749,3.025,14.766,14.766,0,0,0,5.9-1.186,12.213,12.213,0,0,0,4.537-3.262,5.385,5.385,0,0,1,.534-.563.632.632,0,0,1,.415-.148h.89a.691.691,0,0,1,.623.326,4.093,4.093,0,0,1,.385,1.275,13.725,13.725,0,0,1,.237,2.669,21.45,21.45,0,0,1-2.313,9.994,18.192,18.192,0,0,1-6.524,7.147,17.676,17.676,0,0,1-9.668,2.669,19.807,19.807,0,0,1-10.054-2.61,19.082,19.082,0,0,1-7.236-7.474,22.465,22.465,0,0,1-2.7-11.092,21.911,21.911,0,0,1,2.432-10.409,17.974,17.974,0,0,1,6.94-7.236A20.278,20.278,0,0,1,492,2552.938a21.014,21.014,0,0,1,8.007,1.453,13.572,13.572,0,0,1,5.664,4.122,9.6,9.6,0,0,1,2.106,6.109,7.925,7.925,0,0,1-2.847,6.376,11.291,11.291,0,0,1-7.533,2.4,12.071,12.071,0,0,1-5.19-1.1,9.239,9.239,0,0,1-3.737-3.084,7.7,7.7,0,0,1-1.394-4.538,6.4,6.4,0,0,1,2.195-5.1,8.758,8.758,0,0,1,5.931-1.9,1.077,1.077,0,0,0,.356-.771.838.838,0,0,0-.415-.741A1.942,1.942,0,0,0,494.078,2555.9Z" transform="translate(-472.191 -2552.938)"/><path class="a" d="M1144.28,2741.7q-8.363,0-12.723-4.033t-4.359-11.744q0-7.71,4.359-11.744t12.723-4.033q8.363,0,12.723,4.033t4.359,11.744q0,7.711-4.359,11.744T1144.28,2741.7Zm0-2.729q1.068,0,1.068-1.6v-22.9q0-1.6-1.068-1.6t-1.068,1.6v22.9Q1143.213,2738.968,1144.28,2738.968Z" transform="translate(-1087.162 -2700.533)"/><path class="a" d="M1695.915,2710.853q5.1,0,6.94,3.025a11.151,11.151,0,0,1,3.855-2.818,12.363,12.363,0,0,1,4.923-.919,10.6,10.6,0,0,1,7.118,2.372,7.6,7.6,0,0,1,2.788,6.05,6.284,6.284,0,0,1-2.254,5.012,8.628,8.628,0,0,1-5.812,1.927,8.877,8.877,0,0,1-5.724-1.779,5.533,5.533,0,0,1-2.224-4.508,4.944,4.944,0,0,1,1.6-3.8,5.79,5.79,0,0,1,4.093-1.483,1.143,1.143,0,0,0,.178-.593q0-.83-1.245-.831a6.026,6.026,0,0,0-4.508,1.987,6.665,6.665,0,0,0-1.9,4.775,6.856,6.856,0,0,0,1.334,4.182,9.03,9.03,0,0,0,3.826,2.877,2.287,2.287,0,0,1,1.1.8,3.118,3.118,0,0,1,.267,1.512v10.439q0,1.9-2.017,1.9h-12.041a1.652,1.652,0,0,1-1.839-1.9v-20.937a6.82,6.82,0,0,0-.593-3.173,5.7,5.7,0,0,0-2.194-2.047,1.49,1.49,0,0,1-.5-.385.739.739,0,0,1-.089-.385v-.712q0-.593.712-.593Z" transform="translate(-1616.495 -2700.533)"/><path class="a" d="M2187.231,2710.853a8.889,8.889,0,0,1,4.656,1.038,5.416,5.416,0,0,1,2.343,3.173,8.563,8.563,0,0,1,8.066-4.923,9.376,9.376,0,0,1,8.156,4.241q2.936,4.241,2.936,11.773,0,7.356-2.966,11.448a9.667,9.667,0,0,1-8.3,4.093,9.3,9.3,0,0,1-6.881-2.432V2751.6a2,2,0,0,1-.445,1.453,2.2,2.2,0,0,1-1.572.445h-10.676a2.2,2.2,0,0,1-1.572-.445,2,2,0,0,1-.445-1.453v-33.452a6.817,6.817,0,0,0-.593-3.173,5.7,5.7,0,0,0-2.194-2.047,1.488,1.488,0,0,1-.5-.385.739.739,0,0,1-.089-.385v-.712q0-.593.712-.593Zm10.143,7.77q0-1.423-1.127-1.423a1.187,1.187,0,0,0-1.009.474V2736a1.184,1.184,0,0,0,1.009.474q1.126,0,1.127-1.423Z" transform="translate(-2072.935 -2700.533)"/><path class="a" d="M2823.033,2741.7q-8.364,0-12.723-4.033t-4.359-11.744q0-7.71,4.359-11.744t12.723-4.033q8.363,0,12.722,4.033t4.359,11.744q0,7.711-4.359,11.744T2823.033,2741.7Zm0-2.729q1.067,0,1.067-1.6v-22.9q0-1.6-1.067-1.6t-1.068,1.6v22.9Q2821.965,2738.968,2823.033,2738.968Z" transform="translate(-2663.303 -2700.533)"/><path class="a" d="M3374.667,2710.853q5.1,0,6.939,3.025a11.154,11.154,0,0,1,3.855-2.818,12.363,12.363,0,0,1,4.923-.919,10.606,10.606,0,0,1,7.118,2.372,7.6,7.6,0,0,1,2.788,6.05,6.284,6.284,0,0,1-2.254,5.012,8.628,8.628,0,0,1-5.813,1.927,8.876,8.876,0,0,1-5.724-1.779,5.533,5.533,0,0,1-2.224-4.508,4.944,4.944,0,0,1,1.6-3.8,5.79,5.79,0,0,1,4.093-1.483,1.142,1.142,0,0,0,.178-.593q0-.83-1.246-.831a6.027,6.027,0,0,0-4.508,1.987,6.666,6.666,0,0,0-1.9,4.775,6.856,6.856,0,0,0,1.334,4.182,9.031,9.031,0,0,0,3.826,2.877,2.286,2.286,0,0,1,1.1.8,3.114,3.114,0,0,1,.267,1.512v10.439q0,1.9-2.017,1.9h-12.041a1.652,1.652,0,0,1-1.839-1.9v-20.937a6.824,6.824,0,0,0-.593-3.173,5.7,5.7,0,0,0-2.195-2.047,1.492,1.492,0,0,1-.5-.385.739.739,0,0,1-.089-.385v-.712q0-.593.711-.593Z" transform="translate(-3192.636 -2700.533)"/><path class="a" d="M3907.962,2741.7q-5.992,0-8.541-4.923a8.479,8.479,0,0,1-8.245,4.923,10.146,10.146,0,0,1-6.584-2.017,6.525,6.525,0,0,1-2.491-5.338,5.649,5.649,0,0,1,2.046-4.6,12.648,12.648,0,0,1,6.317-2.283q10.913-1.423,10.914-8.245a6.6,6.6,0,0,0-1.9-4.715,6.029,6.029,0,0,0-4.508-1.987q-1.245,0-1.246.831a1.146,1.146,0,0,0,.178.593,5.789,5.789,0,0,1,4.093,1.483,4.945,4.945,0,0,1,1.6,3.8,5.485,5.485,0,0,1-2.284,4.508,9.224,9.224,0,0,1-5.842,1.779,8.606,8.606,0,0,1-5.753-1.809,5.948,5.948,0,0,1-2.135-4.774,7.253,7.253,0,0,1,3.855-6.376q3.855-2.4,10.2-2.4,7.592,0,11.537,3.677t3.944,10.795v7.414a3.485,3.485,0,0,0,.178,1.364.613.613,0,0,0,.593.356.8.8,0,0,0,.771-.475,6.7,6.7,0,0,0,.415-1.839,4.5,4.5,0,0,1,.237-1.216.5.5,0,0,1,.475-.208h1.008a.527.527,0,0,1,.5.415,4.486,4.486,0,0,1,.148,1.364q0,4.746-2.461,7.325T3907.962,2741.7Zm-9.55-12.812a1.128,1.128,0,0,0-.949-.474q-1.009,0-1.008,1.186v3.8q0,1.187,1.008,1.187a1.125,1.125,0,0,0,.949-.475Z" transform="translate(-3673.676 -2700.533)"/><path class="a" d="M4447.578,2587.829a2.513,2.513,0,0,1,.742-1.512,2.469,2.469,0,0,1,1.512-.386h6.466a2.2,2.2,0,0,1,1.572.445,2,2,0,0,1,.444,1.453v6.406h5.873c.475,0,.711.2.711.593v1.068q0,.593-.711.593h-5.873v18.625a2.75,2.75,0,0,0,.327,1.6,1.474,1.474,0,0,0,1.216.415,1.168,1.168,0,0,0,1.038-.475,5.156,5.156,0,0,0,.564-1.839,3.679,3.679,0,0,1,.267-1.187.549.549,0,0,1,.5-.237h.949a.529.529,0,0,1,.5.415,4.782,4.782,0,0,1,.147,1.424q0,4.746-2.61,7.3t-7.414,2.551q-4.983,0-7.74-2.729t-2.758-7.651v-18.209h-3.5q-.712,0-.712-.593v-1.068c0-.395.237-.593.712-.593h.237a11.569,11.569,0,0,0,4.093-.534,4.1,4.1,0,0,0,2.046-1.839A16.259,16.259,0,0,0,4447.578,2587.829Z" transform="translate(-4196.626 -2583.915)"/><path class="a" d="M4873.035,2727.283q0,1.365,2.313,2.521a11.373,11.373,0,0,0,5.16,1.157,12.223,12.223,0,0,0,9.253-3.8,3.4,3.4,0,0,1,.5-.445.884.884,0,0,1,.445-.089h.712a.571.571,0,0,1,.563.3,2.665,2.665,0,0,1,.148,1.068,12.383,12.383,0,0,1-1.987,6.792,14.375,14.375,0,0,1-5.635,5.012,17.409,17.409,0,0,1-8.156,1.9,18.851,18.851,0,0,1-8.66-1.958,15.318,15.318,0,0,1-6.139-5.575,15.116,15.116,0,0,1-2.284-8.244,15.487,15.487,0,0,1,2.135-8.126,14.9,14.9,0,0,1,6.08-5.6,19.757,19.757,0,0,1,9.223-2.046,19.435,19.435,0,0,1,7.147,1.245,11.692,11.692,0,0,1,5.012,3.559,8.339,8.339,0,0,1,1.838,5.338,8.223,8.223,0,0,1-2.788,6.376,10.122,10.122,0,0,1-7.058,2.521,9.079,9.079,0,0,1-6.94-2.847.851.851,0,0,0-.622.267A.924.924,0,0,0,4873.035,2727.283Zm1.779-4.092a1.124,1.124,0,0,0,.949.474q1.068,0,1.068-1.186v-8.423q0-1.185-1.068-1.186a1.127,1.127,0,0,0-.949.475Z" transform="translate(-4591.121 -2700.533)"/><path class="a" d="M5646.377,2569.434q7.592,0,11.477,3.529t3.885,10.409q0,6.288-3.855,10.024t-10.5,3.737a17.126,17.126,0,0,1-5.16-.712v10.38a2.434,2.434,0,0,1-.416,1.6,2,2,0,0,1-1.542.474h-11.981a1.992,1.992,0,0,1-1.542-.474,2.429,2.429,0,0,1-.416-1.6V2576.2a7.169,7.169,0,0,0-.238-2.165,3.151,3.151,0,0,0-.83-1.245,16.291,16.291,0,0,0-2.017-1.513.581.581,0,0,1-.3-.534v-.712q0-.593.711-.593Zm-4.152,23.666a1.315,1.315,0,0,0,1.127.474.962.962,0,0,0,.83-.415,1.8,1.8,0,0,0,.3-1.068v-18.328a1.8,1.8,0,0,0-.3-1.068.964.964,0,0,0-.83-.415,1.318,1.318,0,0,0-1.127.474Z" transform="translate(-5308.117 -2568.426)"/><path class="a" d="M6301.874,2741.7q-5.991,0-8.54-4.923a8.481,8.481,0,0,1-8.246,4.923,10.147,10.147,0,0,1-6.583-2.017,6.527,6.527,0,0,1-2.491-5.338,5.651,5.651,0,0,1,2.046-4.6,12.656,12.656,0,0,1,6.317-2.283q10.913-1.423,10.914-8.245a6.6,6.6,0,0,0-1.9-4.715,6.029,6.029,0,0,0-4.508-1.987q-1.245,0-1.245.831a1.137,1.137,0,0,0,.178.593,5.787,5.787,0,0,1,4.092,1.483,4.941,4.941,0,0,1,1.6,3.8,5.483,5.483,0,0,1-2.283,4.508,9.224,9.224,0,0,1-5.842,1.779,8.607,8.607,0,0,1-5.754-1.809,5.948,5.948,0,0,1-2.136-4.774,7.253,7.253,0,0,1,3.856-6.376q3.854-2.4,10.2-2.4,7.591,0,11.536,3.677t3.943,10.795v7.414a3.48,3.48,0,0,0,.179,1.364.612.612,0,0,0,.593.356.8.8,0,0,0,.771-.475,6.718,6.718,0,0,0,.415-1.839,4.5,4.5,0,0,1,.236-1.216.5.5,0,0,1,.476-.208h1.008a.528.528,0,0,1,.5.415,4.506,4.506,0,0,1,.147,1.364q0,4.746-2.461,7.325T6301.874,2741.7Zm-9.549-12.812a1.13,1.13,0,0,0-.949-.474q-1.009,0-1.008,1.186v3.8q0,1.187,1.008,1.187a1.128,1.128,0,0,0,.949-.475Z" transform="translate(-5921.264 -2700.533)"/><path class="a" d="M6847.636,2710.853q5.1,0,6.94,3.025a11.136,11.136,0,0,1,3.855-2.818,12.359,12.359,0,0,1,4.922-.919,10.6,10.6,0,0,1,7.118,2.372,7.6,7.6,0,0,1,2.788,6.05,6.284,6.284,0,0,1-2.254,5.012,8.626,8.626,0,0,1-5.812,1.927,8.875,8.875,0,0,1-5.724-1.779,5.53,5.53,0,0,1-2.225-4.508,4.944,4.944,0,0,1,1.6-3.8,5.79,5.79,0,0,1,4.093-1.483,1.142,1.142,0,0,0,.178-.593q0-.83-1.245-.831a6.027,6.027,0,0,0-4.509,1.987,6.664,6.664,0,0,0-1.9,4.775,6.856,6.856,0,0,0,1.334,4.182,9.031,9.031,0,0,0,3.826,2.877,2.291,2.291,0,0,1,1.1.8,3.134,3.134,0,0,1,.266,1.512v10.439q0,1.9-2.017,1.9h-12.041a1.652,1.652,0,0,1-1.838-1.9v-20.937a6.829,6.829,0,0,0-.593-3.173,5.7,5.7,0,0,0-2.195-2.047,1.492,1.492,0,0,1-.5-.385.742.742,0,0,1-.089-.385v-.712q0-.593.712-.593Z" transform="translate(-6453.325 -2700.533)"/><path class="a" d="M7327.647,2587.829a2.513,2.513,0,0,1,.741-1.512,2.469,2.469,0,0,1,1.512-.386h6.465a2.2,2.2,0,0,1,1.572.445,2,2,0,0,1,.445,1.453v6.406h5.872c.475,0,.711.2.711.593v1.068q0,.593-.711.593h-5.872v18.625a2.758,2.758,0,0,0,.326,1.6,1.475,1.475,0,0,0,1.216.415,1.17,1.17,0,0,0,1.039-.475,5.18,5.18,0,0,0,.563-1.839,3.67,3.67,0,0,1,.268-1.187.547.547,0,0,1,.5-.237h.948a.526.526,0,0,1,.5.415,4.745,4.745,0,0,1,.148,1.424q0,4.746-2.609,7.3t-7.415,2.551q-4.982,0-7.741-2.729t-2.758-7.651v-18.209h-3.5q-.713,0-.712-.593v-1.068c0-.395.237-.593.712-.593h.237a11.563,11.563,0,0,0,4.092-.534,4.1,4.1,0,0,0,2.047-1.839A16.32,16.32,0,0,0,7327.647,2587.829Z" transform="translate(-6900.655 -2583.915)"/><path class="a" d="M7717.4,2710.853a9.087,9.087,0,0,1,4.656,1.038,5.361,5.361,0,0,1,2.4,3.232,9.3,9.3,0,0,1,3.708-3.707,10.923,10.923,0,0,1,5.309-1.275,8.247,8.247,0,0,1,6.523,2.55q2.254,2.551,2.254,7.236v19.158a2,2,0,0,1-.444,1.453,2.2,2.2,0,0,1-1.571.445h-10.677a2.2,2.2,0,0,1-1.572-.445,2,2,0,0,1-.444-1.453v-20.4a1.8,1.8,0,0,0-.3-1.068.965.965,0,0,0-.83-.415,1.1,1.1,0,0,0-1.009.474v21.412a2,2,0,0,1-.444,1.453,2.2,2.2,0,0,1-1.572.445h-10.677a2.194,2.194,0,0,1-1.571-.445,2,2,0,0,1-.444-1.453v-20.937a6.81,6.81,0,0,0-.594-3.173,5.7,5.7,0,0,0-2.194-2.047,1.467,1.467,0,0,1-.5-.385.737.737,0,0,1-.09-.385v-.712c0-.4.238-.593.712-.593Z" transform="translate(-7265.084 -2700.533)"/><path class="a" d="M8348.92,2727.283q0,1.365,2.313,2.521a11.373,11.373,0,0,0,5.16,1.157,12.219,12.219,0,0,0,9.253-3.8,3.374,3.374,0,0,1,.5-.445.885.885,0,0,1,.445-.089h.712a.57.57,0,0,1,.563.3,2.656,2.656,0,0,1,.148,1.068,12.382,12.382,0,0,1-1.986,6.792,14.375,14.375,0,0,1-5.635,5.012,17.41,17.41,0,0,1-8.156,1.9,18.848,18.848,0,0,1-8.658-1.958,15.312,15.312,0,0,1-6.14-5.575,15.117,15.117,0,0,1-2.284-8.244,15.482,15.482,0,0,1,2.136-8.126,14.9,14.9,0,0,1,6.079-5.6,19.76,19.76,0,0,1,9.224-2.046,19.45,19.45,0,0,1,7.148,1.245,11.69,11.69,0,0,1,5.011,3.559,8.336,8.336,0,0,1,1.839,5.338,8.226,8.226,0,0,1-2.787,6.376,10.124,10.124,0,0,1-7.06,2.521,9.076,9.076,0,0,1-6.938-2.847.852.852,0,0,0-.623.267A.922.922,0,0,0,8348.92,2727.283Zm1.779-4.092a1.125,1.125,0,0,0,.949.474q1.068,0,1.067-1.186v-8.423q0-1.185-1.067-1.186a1.128,1.128,0,0,0-.949.475Z" transform="translate(-7854.548 -2700.533)"/><path class="a" d="M8871.85,2710.853q5.1,0,6.939,3.025a11.167,11.167,0,0,1,3.855-2.818,12.366,12.366,0,0,1,4.924-.919,10.6,10.6,0,0,1,7.117,2.372,7.591,7.591,0,0,1,2.787,6.05,6.284,6.284,0,0,1-2.253,5.012,8.628,8.628,0,0,1-5.812,1.927,8.875,8.875,0,0,1-5.724-1.779,5.532,5.532,0,0,1-2.225-4.508,4.941,4.941,0,0,1,1.6-3.8,5.79,5.79,0,0,1,4.092-1.483,1.13,1.13,0,0,0,.179-.593q0-.83-1.245-.831a6.024,6.024,0,0,0-4.508,1.987,6.659,6.659,0,0,0-1.9,4.775,6.861,6.861,0,0,0,1.334,4.182,9.036,9.036,0,0,0,3.826,2.877,2.286,2.286,0,0,1,1.1.8,3.119,3.119,0,0,1,.268,1.512v10.439q0,1.9-2.018,1.9h-12.041a1.651,1.651,0,0,1-1.838-1.9v-20.937a6.823,6.823,0,0,0-.594-3.173,5.707,5.707,0,0,0-2.194-2.047,1.506,1.506,0,0,1-.5-.385.747.747,0,0,1-.088-.385v-.712q0-.593.711-.593Z" transform="translate(-8353.813 -2700.533)"/><path class="a" d="M9394.429,2734.163a3.454,3.454,0,0,1-1.067,2.58,4.424,4.424,0,0,1-2.906,1.156,1.194,1.194,0,0,0-.236.652q0,.772,1.066.771a4.558,4.558,0,0,0,3.411-1.631,5.371,5.371,0,0,0,1.512-3.766,4.731,4.731,0,0,0-1.66-3.826,14.3,14.3,0,0,0-5.754-2.343q-7.771-1.779-7.771-7.592,0-4.626,4.479-7.325t12.131-2.7q6.286,0,9.786,1.927t3.5,5.368a4.48,4.48,0,0,1-1.838,3.766,8.277,8.277,0,0,1-5.1,1.394,9.134,9.134,0,0,1-5.22-1.364,4.134,4.134,0,0,1-2.017-3.559,3.457,3.457,0,0,1,1.067-2.58,4.431,4.431,0,0,1,2.905-1.156,1.206,1.206,0,0,0,.239-.652q0-.771-1.067-.771a4.559,4.559,0,0,0-3.411,1.631,5.373,5.373,0,0,0-1.513,3.766,4.641,4.641,0,0,0,1.81,3.856,15.071,15.071,0,0,0,6.02,2.313q4.983,1.009,7.118,2.817a6.357,6.357,0,0,1,2.135,5.131,7.9,7.9,0,0,1-4.182,7.177q-4.181,2.491-12.011,2.491-7.118,0-11.358-2.017t-4.24-5.338a4.379,4.379,0,0,1,1.867-3.737,8.435,8.435,0,0,1,5.07-1.364,9.145,9.145,0,0,1,5.221,1.364A4.136,4.136,0,0,1,9394.429,2734.163Z" transform="translate(-8835.763 -2700.533)"/></svg>