<svg xmlns="http://www.w3.org/2000/svg" width="802.226" height="73.733" viewBox="0 0 802.226 73.733"><defs><style>.a{fill:#333e48;}</style></defs><g transform="translate(-472.191 -2552.938)"><path class="a" d="M502.659,2557.067a12.371,12.371,0,0,0-9,3.55,11.753,11.753,0,0,0-3.633,8.752,13.707,13.707,0,0,0,4.748,10.734q4.747,4.212,12.179,4.211a20.555,20.555,0,0,0,8.215-1.651,17.005,17.005,0,0,0,6.317-4.541,7.515,7.515,0,0,1,.743-.784.881.881,0,0,1,.578-.206h1.239a.963.963,0,0,1,.867.454,5.7,5.7,0,0,1,.537,1.775,19.108,19.108,0,0,1,.33,3.716,29.859,29.859,0,0,1-3.22,13.913,25.321,25.321,0,0,1-9.083,9.95,24.6,24.6,0,0,1-13.459,3.715,27.571,27.571,0,0,1-14-3.633,26.562,26.562,0,0,1-10.073-10.4,31.272,31.272,0,0,1-3.757-15.44,30.5,30.5,0,0,1,3.385-14.491,25.021,25.021,0,0,1,9.661-10.073,28.23,28.23,0,0,1,14.532-3.674,29.256,29.256,0,0,1,11.147,2.023,18.9,18.9,0,0,1,7.885,5.738,13.361,13.361,0,0,1,2.931,8.5,11.033,11.033,0,0,1-3.963,8.876q-3.963,3.345-10.486,3.344a16.8,16.8,0,0,1-7.225-1.528,12.862,12.862,0,0,1-5.2-4.293,10.724,10.724,0,0,1-1.94-6.317,8.911,8.911,0,0,1,3.055-7.1,12.191,12.191,0,0,1,8.257-2.642,1.5,1.5,0,0,0,.5-1.074,1.166,1.166,0,0,0-.578-1.032A2.7,2.7,0,0,0,502.659,2557.067Z" transform="translate(0 0)"/><path class="a" d="M1150.978,2754.068q-11.642,0-17.711-5.615T1127.2,2732.1q0-10.733,6.069-16.349t17.711-5.614q11.642,0,17.711,5.614t6.069,16.349q0,10.734-6.069,16.349T1150.978,2754.068Zm0-3.8q1.486,0,1.486-2.229v-31.872q0-2.229-1.486-2.229t-1.486,2.229v31.872Q1149.492,2750.27,1150.978,2750.27Z" transform="translate(-599.274 -143.827)"/><path class="a" d="M1697.845,2711.132q7.1,0,9.66,4.211a15.519,15.519,0,0,1,5.367-3.922,17.206,17.206,0,0,1,6.853-1.279,14.762,14.762,0,0,1,9.908,3.3,10.573,10.573,0,0,1,3.88,8.422,8.747,8.747,0,0,1-3.138,6.977,12.01,12.01,0,0,1-8.092,2.683,12.357,12.357,0,0,1-7.968-2.477,7.7,7.7,0,0,1-3.1-6.275,6.882,6.882,0,0,1,2.229-5.284,8.06,8.06,0,0,1,5.7-2.064,1.592,1.592,0,0,0,.248-.826q0-1.155-1.734-1.156a8.388,8.388,0,0,0-6.275,2.766,9.279,9.279,0,0,0-2.642,6.647,9.544,9.544,0,0,0,1.858,5.821,12.573,12.573,0,0,0,5.326,4,3.183,3.183,0,0,1,1.527,1.115,4.339,4.339,0,0,1,.372,2.105v14.532q0,2.643-2.807,2.643h-16.761q-2.56,0-2.56-2.643v-29.146a9.493,9.493,0,0,0-.826-4.417,7.936,7.936,0,0,0-3.055-2.849,2.078,2.078,0,0,1-.7-.537,1.028,1.028,0,0,1-.124-.537v-.991q0-.824.991-.825Z" transform="translate(-1115.095 -143.827)"/><path class="a" d="M2191.185,2711.132a12.374,12.374,0,0,1,6.482,1.445,7.54,7.54,0,0,1,3.261,4.417,11.921,11.921,0,0,1,11.229-6.853,13.053,13.053,0,0,1,11.353,5.9q4.087,5.9,4.087,16.39,0,10.239-4.129,15.936a13.458,13.458,0,0,1-11.56,5.7q-6.193,0-9.578-3.385v17.174a2.78,2.78,0,0,1-.619,2.023,3.059,3.059,0,0,1-2.188.619h-14.862a3.057,3.057,0,0,1-2.188-.619,2.782,2.782,0,0,1-.619-2.023v-46.568a9.49,9.49,0,0,0-.826-4.417,7.935,7.935,0,0,0-3.055-2.849,2.074,2.074,0,0,1-.7-.537,1.03,1.03,0,0,1-.124-.537v-.991q0-.824.99-.825Zm14.119,10.816q0-1.982-1.569-1.981a1.652,1.652,0,0,0-1.4.66v25.514a1.648,1.648,0,0,0,1.4.66q1.567,0,1.569-1.981Z" transform="translate(-1559.885 -143.827)"/><path class="a" d="M2829.73,2754.068q-11.643,0-17.711-5.615t-6.069-16.349q0-10.733,6.069-16.349t17.711-5.614q11.642,0,17.711,5.614t6.069,16.349q0,10.734-6.069,16.349T2829.73,2754.068Zm0-3.8q1.486,0,1.486-2.229v-31.872q0-2.229-1.486-2.229t-1.487,2.229v31.872Q2828.244,2750.27,2829.73,2750.27Z" transform="translate(-2135.183 -143.827)"/><path class="a" d="M3376.6,2711.132q7.1,0,9.66,4.211a15.52,15.52,0,0,1,5.367-3.922,17.207,17.207,0,0,1,6.853-1.279,14.762,14.762,0,0,1,9.908,3.3,10.573,10.573,0,0,1,3.881,8.422,8.748,8.748,0,0,1-3.138,6.977,12.01,12.01,0,0,1-8.092,2.683,12.357,12.357,0,0,1-7.968-2.477,7.7,7.7,0,0,1-3.1-6.275,6.882,6.882,0,0,1,2.229-5.284,8.059,8.059,0,0,1,5.7-2.064,1.589,1.589,0,0,0,.248-.826q0-1.155-1.734-1.156a8.388,8.388,0,0,0-6.275,2.766,9.279,9.279,0,0,0-2.642,6.647,9.543,9.543,0,0,0,1.858,5.821,12.572,12.572,0,0,0,5.326,4,3.183,3.183,0,0,1,1.527,1.115,4.339,4.339,0,0,1,.372,2.105v14.532q0,2.643-2.807,2.643H3377.01q-2.56,0-2.559-2.643v-29.146a9.5,9.5,0,0,0-.826-4.417,7.937,7.937,0,0,0-3.055-2.849,2.078,2.078,0,0,1-.7-.537,1.03,1.03,0,0,1-.124-.537v-.991q0-.824.99-.825Z" transform="translate(-2651.006 -143.827)"/><path class="a" d="M3918.1,2754.068q-8.34,0-11.89-6.853a11.8,11.8,0,0,1-11.477,6.853,14.127,14.127,0,0,1-9.165-2.808,9.084,9.084,0,0,1-3.468-7.431,7.863,7.863,0,0,1,2.848-6.4q2.849-2.353,8.794-3.178,15.192-1.982,15.193-11.477a9.187,9.187,0,0,0-2.642-6.564,8.392,8.392,0,0,0-6.275-2.766q-1.734,0-1.734,1.156a1.594,1.594,0,0,0,.248.826,8.06,8.06,0,0,1,5.7,2.064,6.883,6.883,0,0,1,2.229,5.284,7.636,7.636,0,0,1-3.179,6.275,12.841,12.841,0,0,1-8.133,2.477,11.98,11.98,0,0,1-8.009-2.518,8.281,8.281,0,0,1-2.972-6.646q0-5.531,5.366-8.876t14.2-3.344q10.568,0,16.06,5.119t5.491,15.027v10.321a4.84,4.84,0,0,0,.248,1.9.854.854,0,0,0,.826.5,1.116,1.116,0,0,0,1.073-.661,9.314,9.314,0,0,0,.578-2.56,6.261,6.261,0,0,1,.33-1.692.7.7,0,0,1,.661-.289h1.4a.733.733,0,0,1,.7.578,6.24,6.24,0,0,1,.206,1.9q0,6.607-3.426,10.2T3918.1,2754.068Zm-13.294-17.835a1.571,1.571,0,0,0-1.321-.661q-1.4,0-1.4,1.651v5.284q0,1.653,1.4,1.651a1.567,1.567,0,0,0,1.321-.661Z" transform="translate(-3119.767 -143.827)"/><path class="a" d="M4450.9,2588.573a3.5,3.5,0,0,1,1.032-2.1,3.438,3.438,0,0,1,2.105-.537h9a3.059,3.059,0,0,1,2.188.619,2.78,2.78,0,0,1,.619,2.023v8.918h8.175q.99,0,.99.826v1.486q0,.826-.99.825h-8.175v25.927a3.83,3.83,0,0,0,.455,2.23,2.052,2.052,0,0,0,1.692.578,1.627,1.627,0,0,0,1.445-.661,7.188,7.188,0,0,0,.785-2.56,5.123,5.123,0,0,1,.371-1.652.764.764,0,0,1,.7-.33h1.321a.735.735,0,0,1,.7.578,6.641,6.641,0,0,1,.206,1.982q0,6.607-3.633,10.156t-10.321,3.551q-6.936,0-10.775-3.8t-3.839-10.651v-25.349h-4.872q-.991,0-.991-.825v-1.486q0-.824.991-.826h.33a16.106,16.106,0,0,0,5.7-.743,5.709,5.709,0,0,0,2.848-2.56A22.64,22.64,0,0,0,4450.9,2588.573Z" transform="translate(-3629.369 -30.186)"/><path class="a" d="M4878.431,2734q0,1.9,3.22,3.509a15.832,15.832,0,0,0,7.183,1.61,17.014,17.014,0,0,0,12.88-5.284,4.728,4.728,0,0,1,.7-.619,1.229,1.229,0,0,1,.62-.124h.991a.8.8,0,0,1,.784.413,3.7,3.7,0,0,1,.207,1.486,17.239,17.239,0,0,1-2.766,9.454,20.008,20.008,0,0,1-7.844,6.977,24.233,24.233,0,0,1-11.354,2.642,26.246,26.246,0,0,1-12.055-2.725,21.325,21.325,0,0,1-8.546-7.761,21.046,21.046,0,0,1-3.179-11.477,21.558,21.558,0,0,1,2.973-11.312,20.751,20.751,0,0,1,8.463-7.8,27.505,27.505,0,0,1,12.839-2.848,27.046,27.046,0,0,1,9.949,1.733,16.269,16.269,0,0,1,6.978,4.954,11.607,11.607,0,0,1,2.56,7.431,11.448,11.448,0,0,1-3.881,8.876,14.088,14.088,0,0,1-9.825,3.509,12.637,12.637,0,0,1-9.661-3.963,1.187,1.187,0,0,0-.866.372A1.286,1.286,0,0,0,4878.431,2734Zm2.477-5.7a1.565,1.565,0,0,0,1.32.66q1.487,0,1.487-1.651v-11.725q0-1.651-1.487-1.651a1.568,1.568,0,0,0-1.32.661Z" transform="translate(-4013.794 -143.827)"/><path class="a" d="M5655.563,2569.434q10.569,0,15.977,4.913t5.408,14.491q0,8.753-5.367,13.954t-14.615,5.2a23.841,23.841,0,0,1-7.183-.991v14.45a3.387,3.387,0,0,1-.579,2.229,2.777,2.777,0,0,1-2.146.66H5630.38a2.774,2.774,0,0,1-2.146-.66,3.379,3.379,0,0,1-.578-2.229v-42.605a9.994,9.994,0,0,0-.331-3.014,4.393,4.393,0,0,0-1.156-1.734,22.7,22.7,0,0,0-2.807-2.106.809.809,0,0,1-.413-.743v-.991q0-.825.991-.826Zm-5.78,32.945a1.829,1.829,0,0,0,1.568.66,1.341,1.341,0,0,0,1.156-.578,2.5,2.5,0,0,0,.413-1.487v-25.514a2.5,2.5,0,0,0-.413-1.486,1.342,1.342,0,0,0-1.156-.578,1.833,1.833,0,0,0-1.568.66Z" transform="translate(-4712.489 -15.092)"/><path class="a" d="M6312.014,2754.068q-8.34,0-11.889-6.853a11.805,11.805,0,0,1-11.478,6.853,14.127,14.127,0,0,1-9.165-2.808,9.085,9.085,0,0,1-3.468-7.431,7.864,7.864,0,0,1,2.849-6.4q2.849-2.353,8.793-3.178,15.192-1.982,15.193-11.477a9.184,9.184,0,0,0-2.642-6.564,8.391,8.391,0,0,0-6.275-2.766q-1.734,0-1.734,1.156a1.6,1.6,0,0,0,.247.826,8.058,8.058,0,0,1,5.7,2.064,6.88,6.88,0,0,1,2.229,5.284,7.635,7.635,0,0,1-3.179,6.275,12.842,12.842,0,0,1-8.133,2.477,11.98,11.98,0,0,1-8.009-2.518,8.28,8.28,0,0,1-2.973-6.646q0-5.531,5.367-8.876t14.2-3.344q10.568,0,16.06,5.119t5.49,15.027v10.321a4.849,4.849,0,0,0,.248,1.9.854.854,0,0,0,.826.5,1.115,1.115,0,0,0,1.073-.661,9.321,9.321,0,0,0,.578-2.56,6.279,6.279,0,0,1,.33-1.692.7.7,0,0,1,.662-.289h1.4a.733.733,0,0,1,.7.578,6.238,6.238,0,0,1,.207,1.9q0,6.607-3.427,10.2T6312.014,2754.068Zm-13.293-17.835a1.571,1.571,0,0,0-1.321-.661q-1.4,0-1.4,1.651v5.284q0,1.653,1.4,1.651a1.567,1.567,0,0,0,1.321-.661Z" transform="translate(-5309.985 -143.827)"/><path class="a" d="M6849.566,2711.132q7.1,0,9.661,4.211a15.5,15.5,0,0,1,5.367-3.922,17.2,17.2,0,0,1,6.852-1.279,14.761,14.761,0,0,1,9.909,3.3,10.573,10.573,0,0,1,3.88,8.422,8.747,8.747,0,0,1-3.138,6.977,12.009,12.009,0,0,1-8.091,2.683,12.356,12.356,0,0,1-7.968-2.477,7.7,7.7,0,0,1-3.1-6.275,6.883,6.883,0,0,1,2.229-5.284,8.06,8.06,0,0,1,5.7-2.064,1.592,1.592,0,0,0,.248-.826q0-1.155-1.734-1.156a8.389,8.389,0,0,0-6.276,2.766,9.279,9.279,0,0,0-2.642,6.647,9.545,9.545,0,0,0,1.858,5.821,12.571,12.571,0,0,0,5.326,4,3.187,3.187,0,0,1,1.528,1.115,4.356,4.356,0,0,1,.371,2.105v14.532q0,2.643-2.807,2.643h-16.761q-2.56,0-2.559-2.643v-29.146a9.5,9.5,0,0,0-.826-4.417,7.938,7.938,0,0,0-3.055-2.849,2.081,2.081,0,0,1-.7-.537,1.03,1.03,0,0,1-.124-.537v-.991q0-.824.991-.825Z" transform="translate(-5828.465 -143.827)"/><path class="a" d="M7330.974,2588.573a3.5,3.5,0,0,1,1.031-2.1,3.438,3.438,0,0,1,2.105-.537h9a3.057,3.057,0,0,1,2.188.619,2.78,2.78,0,0,1,.62,2.023v8.918h8.174q.991,0,.99.826v1.486q0,.826-.99.825h-8.174v25.927a3.843,3.843,0,0,0,.454,2.23,2.055,2.055,0,0,0,1.693.578,1.627,1.627,0,0,0,1.445-.661,7.192,7.192,0,0,0,.784-2.56,5.114,5.114,0,0,1,.372-1.652.762.762,0,0,1,.7-.33h1.32a.733.733,0,0,1,.7.578,6.608,6.608,0,0,1,.206,1.982q0,6.607-3.632,10.156t-10.321,3.551q-6.935,0-10.775-3.8t-3.839-10.651v-25.349h-4.871q-.992,0-.991-.825v-1.486q0-.824.991-.826h.33a16.1,16.1,0,0,0,5.7-.743,5.714,5.714,0,0,0,2.85-2.56A22.7,22.7,0,0,0,7330.974,2588.573Z" transform="translate(-6264.377 -30.186)"/><path class="a" d="M7721.357,2711.132a12.65,12.65,0,0,1,6.482,1.445,7.463,7.463,0,0,1,3.344,4.5,12.934,12.934,0,0,1,5.161-5.16,15.2,15.2,0,0,1,7.39-1.775q5.945,0,9.082,3.55t3.138,10.073v26.67a2.778,2.778,0,0,1-.62,2.023,3.055,3.055,0,0,1-2.187.62h-14.862a3.056,3.056,0,0,1-2.188-.62,2.778,2.778,0,0,1-.62-2.023v-28.4a2.508,2.508,0,0,0-.412-1.486,1.344,1.344,0,0,0-1.156-.578,1.525,1.525,0,0,0-1.4.66v29.807a2.778,2.778,0,0,1-.619,2.023,3.055,3.055,0,0,1-2.187.62h-14.863a3.055,3.055,0,0,1-2.188-.62,2.78,2.78,0,0,1-.619-2.023v-29.146a9.483,9.483,0,0,0-.826-4.417,7.933,7.933,0,0,0-3.055-2.849,2.061,2.061,0,0,1-.7-.537,1.029,1.029,0,0,1-.124-.537v-.991q0-.824.991-.825Z" transform="translate(-6619.505 -143.827)"/><path class="a" d="M8354.315,2734q0,1.9,3.221,3.509a15.835,15.835,0,0,0,7.184,1.61,17.008,17.008,0,0,0,12.88-5.284,4.7,4.7,0,0,1,.7-.619,1.227,1.227,0,0,1,.62-.124h.991a.792.792,0,0,1,.782.413,3.688,3.688,0,0,1,.207,1.486,17.234,17.234,0,0,1-2.766,9.454,20,20,0,0,1-7.844,6.977,24.231,24.231,0,0,1-11.354,2.642,26.243,26.243,0,0,1-12.054-2.725,21.312,21.312,0,0,1-8.546-7.761,21.038,21.038,0,0,1-3.181-11.477,21.549,21.549,0,0,1,2.974-11.312,20.746,20.746,0,0,1,8.463-7.8,27.509,27.509,0,0,1,12.84-2.848,27.063,27.063,0,0,1,9.95,1.733,16.269,16.269,0,0,1,6.976,4.954,11.605,11.605,0,0,1,2.561,7.431,11.451,11.451,0,0,1-3.881,8.876,14.088,14.088,0,0,1-9.826,3.509,12.633,12.633,0,0,1-9.659-3.963,1.185,1.185,0,0,0-.867.372A1.283,1.283,0,0,0,8354.315,2734Zm2.478-5.7a1.565,1.565,0,0,0,1.321.66q1.485,0,1.485-1.651v-11.725q0-1.651-1.485-1.651a1.569,1.569,0,0,0-1.321.661Z" transform="translate(-7193.922 -143.827)"/><path class="a" d="M8873.78,2711.132q7.1,0,9.66,4.211a15.528,15.528,0,0,1,5.367-3.922,17.208,17.208,0,0,1,6.854-1.279,14.76,14.76,0,0,1,9.908,3.3,10.568,10.568,0,0,1,3.88,8.422,8.748,8.748,0,0,1-3.137,6.977,12.011,12.011,0,0,1-8.092,2.683,12.357,12.357,0,0,1-7.968-2.477,7.7,7.7,0,0,1-3.1-6.275,6.881,6.881,0,0,1,2.229-5.284,8.062,8.062,0,0,1,5.7-2.064,1.583,1.583,0,0,0,.248-.826q0-1.155-1.734-1.156a8.386,8.386,0,0,0-6.274,2.766,9.274,9.274,0,0,0-2.643,6.647,9.544,9.544,0,0,0,1.857,5.821,12.576,12.576,0,0,0,5.326,4,3.178,3.178,0,0,1,1.527,1.115,4.347,4.347,0,0,1,.372,2.105v14.532q0,2.643-2.809,2.643h-16.761q-2.561,0-2.56-2.643v-29.146a9.515,9.515,0,0,0-.825-4.417,7.944,7.944,0,0,0-3.056-2.849,2.11,2.11,0,0,1-.7-.537,1.044,1.044,0,0,1-.122-.537v-.991q0-.824.99-.825Z" transform="translate(-7680.443 -143.827)"/><path class="a" d="M9399.986,2743.582a4.806,4.806,0,0,1-1.485,3.592,6.158,6.158,0,0,1-4.046,1.61,1.662,1.662,0,0,0-.329.908q0,1.074,1.485,1.073a6.346,6.346,0,0,0,4.748-2.271,7.481,7.481,0,0,0,2.1-5.243,6.587,6.587,0,0,0-2.312-5.326q-2.313-1.939-8.01-3.261-10.818-2.477-10.816-10.569,0-6.441,6.233-10.2t16.887-3.756q8.751,0,13.624,2.683t4.871,7.472a6.237,6.237,0,0,1-2.56,5.243,11.519,11.519,0,0,1-7.1,1.941,12.713,12.713,0,0,1-7.266-1.9,5.754,5.754,0,0,1-2.808-4.954,4.81,4.81,0,0,1,1.486-3.592,6.167,6.167,0,0,1,4.045-1.61,1.681,1.681,0,0,0,.332-.908q0-1.072-1.486-1.073a6.346,6.346,0,0,0-4.748,2.271,7.48,7.48,0,0,0-2.105,5.243,6.463,6.463,0,0,0,2.519,5.367q2.515,1.982,8.38,3.22,6.938,1.4,9.909,3.922a8.851,8.851,0,0,1,2.971,7.143,11,11,0,0,1-5.82,9.991q-5.82,3.467-16.72,3.468-9.908,0-15.812-2.808t-5.9-7.431a6.1,6.1,0,0,1,2.6-5.2,11.746,11.746,0,0,1,7.059-1.9,12.728,12.728,0,0,1,7.267,1.9A5.755,5.755,0,0,1,9399.986,2743.582Z" transform="translate(-8150.091 -143.827)"/></g></svg>