<?xml version="1.0" encoding="utf-8"?>
<!-- Generator: Adobe Illustrator 24.2.1, SVG Export Plug-In . SVG Version: 6.00 Build 0)  -->
<svg version="1.1" id="Layer_1" xmlns="http://www.w3.org/2000/svg" xmlns:xlink="http://www.w3.org/1999/xlink" x="0px" y="0px"
	 viewBox="0 0 1920 546" style="enable-background:new 0 0 1920 546;" xml:space="preserve">
<style type="text/css">
	.st0{fill:url(#Union_3-2_1_);}
</style>
<linearGradient id="Union_3-2_1_" gradientUnits="userSpaceOnUse" x1="650.1561" y1="665.5699" x2="650.1561" y2="664.7839" gradientTransform="matrix(1920 0 0 -546.038 -1247339.625 363543.3125)">
	<stop  offset="0" style="stop-color:#333E48"/>
	<stop  offset="1" style="stop-color:#1B2026"/>
</linearGradient>
<path id="Union_3-2" class="st0" d="M0,546V156.9h21.6V57.3h98v8.9h24.5v5.1h13.4v22.9h12.8V69.5h6.7V60h22.6V46H298V12.9h80v42h26
	v10.2h30.2V119h36V66.8h62.4v59.7h38.7V84.9h31.4V147h32.5v-9.2h47.9v-8.5h30.2V117h42.5V91h21.4V72.6h26.8V91h21.1v36.2h20.7v-14.7
	h48.6v12.4h37.4v-15.5h29.6v17.7h22.5v-17.7h56.7v7.5h34.7V94.8h56.1V33h45.4v22.7h34.7v39h61v16.6h29v10h16.3v-54h25.8v4.5h37.6
	V58.7h32.1v13.1h16.7v61.8h13.2V145h13.2v7.9h6.2v-13.1h15.9v13.1h4.6v-13.1h8.1v-36.2h32.1v10.4h6.2v-7.1h11.8V79.7h6.5v-6.8h16.1
	V61.4h14.3v11.5h8.5V58.7h10.5v21h5.4v92.4h8.5V65.4h29v37.3h8.7V76.3h15.1V61.4h41.8v14.8h4.6V82h8.7v13.3h10.5v11.5h13.9V87.2h9.3
	V71.8h19.2v68.8h9.3V19.7h13.6V0h26.4v140.6h9.3v20.3h10.8v-20.3h10.7V44.7h8.1V19.3h10.6V0h17v19.3h7.7v25.5h4.6v81h5.4v-14.6h14.1
	v185.4l0,0V546L0,546z"/>
</svg>
