<svg xmlns="http://www.w3.org/2000/svg" width="481.769" height="55.783" viewBox="0 0 481.769 55.783"><defs><style>.a{fill:#333e48;}</style></defs><g transform="translate(-14.4)"><path class="a" d="M50.361,53.534a25.453,25.453,0,0,1-4.312,1.058,36.133,36.133,0,0,1-4.475.244c-8.705,0-15.377-2.441-20.1-7.241S14.4,35.879,14.4,26.93a28.928,28.928,0,0,1,3.336-13.994A23.649,23.649,0,0,1,27.58,3.417,32.387,32.387,0,0,1,42.876,0a26.819,26.819,0,0,1,10.5,1.953A18.725,18.725,0,0,1,60.938,7.4,12.574,12.574,0,0,1,63.7,15.458a10.49,10.49,0,0,1-3.743,8.461,14.98,14.98,0,0,1-9.926,3.173A15.592,15.592,0,0,1,43.2,25.628a12.884,12.884,0,0,1-4.963-4.068,10.356,10.356,0,0,1-1.871-6.021A8.461,8.461,0,0,1,39.3,8.787a11.42,11.42,0,0,1,7.81-2.522,1.432,1.432,0,0,0,.488-1.058,1.062,1.062,0,0,0-.57-.976,2.493,2.493,0,0,0-1.383-.325A11.931,11.931,0,0,0,35.391,9.519a10.978,10.978,0,0,0-1.627,6.021,12.872,12.872,0,0,0,1.3,6.021,15.855,15.855,0,0,0,4.312,4.963,3.253,3.253,0,0,1,1.383,3.01V48.653c0,1.383.488,2.115,1.383,2.115.976,0,1.383-.732,1.383-2.115V31.73a3,3,0,0,1,.57-2.115,2.761,2.761,0,0,1,2.034-.651H68.1c.651,0,.976.244.976.814v.976c0,.244,0,.407-.081.488a1.487,1.487,0,0,1-.651.488,7.457,7.457,0,0,0-3.01,2.441,6.958,6.958,0,0,0-.814,3.661V50.768a3,3,0,0,1-.57,2.115,2.761,2.761,0,0,1-2.034.651Z" transform="translate(0)"/><path class="a" d="M102.506,38.3c0,1.22,1.058,2.278,3.092,3.336a14.568,14.568,0,0,0,6.834,1.546,16.132,16.132,0,0,0,12.2-5.044c.325-.325.57-.488.651-.57a1.206,1.206,0,0,1,.57-.081h.976a.763.763,0,0,1,.732.407,3,3,0,0,1,.163,1.383,16.428,16.428,0,0,1-2.6,8.95,18.519,18.519,0,0,1-7.485,6.59,22.817,22.817,0,0,1-10.821,2.522,25.313,25.313,0,0,1-11.472-2.6A20.076,20.076,0,0,1,84.2,36.428a20.352,20.352,0,0,1,2.848-10.739,19.749,19.749,0,0,1,8.055-7.4,28.685,28.685,0,0,1,21.642-1.058,15.469,15.469,0,0,1,6.59,4.719,11,11,0,0,1,2.441,7.078,11.028,11.028,0,0,1-3.661,8.461,13.434,13.434,0,0,1-9.356,3.336,12.023,12.023,0,0,1-9.194-3.743,1.045,1.045,0,0,0-.814.325A1.462,1.462,0,0,0,102.506,38.3Zm2.359-5.451a1.545,1.545,0,0,0,1.22.651c.976,0,1.383-.488,1.383-1.546V20.807c0-1.058-.488-1.546-1.383-1.546a1.434,1.434,0,0,0-1.22.651Z" transform="translate(-13.011 -2.908)"/><path class="a" d="M147.39,5.822a4.3,4.3,0,0,1,.976-2.034A3.4,3.4,0,0,1,150.4,3.3h8.543a3,3,0,0,1,2.115.57,2.673,2.673,0,0,1,.57,1.953v8.461h7.729c.651,0,.976.244.976.814V16.48c0,.488-.325.814-.976.814h-7.729V41.946a3.946,3.946,0,0,0,.407,2.115,1.887,1.887,0,0,0,1.627.57,1.627,1.627,0,0,0,1.383-.651,5.377,5.377,0,0,0,.732-2.441,5.667,5.667,0,0,1,.325-1.546.66.66,0,0,1,.651-.325h1.22a.62.62,0,0,1,.651.57,5.59,5.59,0,0,1,.163,1.871c0,4.149-1.139,7.4-3.417,9.682s-5.532,3.336-9.844,3.336c-4.393,0-7.811-1.22-10.251-3.58-2.441-2.441-3.661-5.777-3.661-10.089V17.212h-4.637c-.651,0-.976-.244-.976-.814V15.016c0-.488.325-.814.976-.814h.325a15.349,15.349,0,0,0,5.451-.732,5.569,5.569,0,0,0,2.685-2.441A16.619,16.619,0,0,0,147.39,5.822Z" transform="translate(-22.667 -0.615)"/><path class="a" d="M223.945,52.258a3.067,3.067,0,0,1-.583,2.166,2.827,2.827,0,0,1-2.083.667H205.032a2.827,2.827,0,0,1-2.083-.667,3.067,3.067,0,0,1-.583-2.166V10.765a8.389,8.389,0,0,0-.333-2.916,4.351,4.351,0,0,0-1.166-1.666,22.3,22.3,0,0,0-2.75-2.083.875.875,0,0,1-.417-.75V2.433c0-.5.333-.833,1-.833h22.5a2.827,2.827,0,0,1,2.083.667,3.067,3.067,0,0,1,.583,2.166V52.258Z" transform="translate(-36.307 -0.338)"/><path class="a" d="M246.231,16.617a12.724,12.724,0,0,1,6.332,1.416,7.185,7.185,0,0,1,3.249,4.416,13.1,13.1,0,0,1,5-5,14.489,14.489,0,0,1,7.165-1.75c3.833,0,6.832,1.166,8.832,3.416,2,2.333,3.083,5.582,3.083,9.832v26a2.737,2.737,0,0,1-.583,2,2.936,2.936,0,0,1-2.166.583h-14.5a3.067,3.067,0,0,1-2.166-.583,2.737,2.737,0,0,1-.583-2V27.2a2.383,2.383,0,0,0-.417-1.416,1.458,1.458,0,0,0-1.166-.583,1.42,1.42,0,0,0-1.333.667V54.86a2.737,2.737,0,0,1-.583,2,2.936,2.936,0,0,1-2.166.583h-14.5a3.067,3.067,0,0,1-2.166-.583,2.737,2.737,0,0,1-.583-2V26.531a8.9,8.9,0,0,0-.833-4.333,6.974,6.974,0,0,0-3-2.75c-.333-.25-.583-.417-.667-.5a1.057,1.057,0,0,1-.083-.5v-1c0-.5.333-.833,1-.833h12.831Z" transform="translate(-42.096 -2.69)"/><path class="a" d="M19.89,121.913a1.624,1.624,0,0,0-1.337-.669c-.919,0-1.337.585-1.337,1.755v19.556a3.064,3.064,0,0,1-.669,2.173,3.064,3.064,0,0,1-2.173.669H8.859c-3.009,0-5.265-.836-6.686-2.424C.752,141.3,0,138.794,0,135.451v-15.21a3.077,3.077,0,0,1,.585-2.173,2.836,2.836,0,0,1,2.089-.669H58.751a2.836,2.836,0,0,1,2.089.669,3.077,3.077,0,0,1,.585,2.173v15.21c0,3.426-.752,5.934-2.173,7.521-1.421,1.671-3.677,2.424-6.686,2.424H47.051a2.429,2.429,0,0,1-2.841-2.841V123c0-1.17-.418-1.755-1.337-1.755a1.518,1.518,0,0,0-1.337.669v46.3a3.077,3.077,0,0,1-.585,2.173,2.836,2.836,0,0,1-2.089.669h-16.3a2.836,2.836,0,0,1-2.089-.669,3.077,3.077,0,0,1-.585-2.173Z" transform="translate(251.576 -116.138)"/><path class="a" d="M96.234,171.855q-10.77,0-16.333-5.207c-3.708-3.472-5.6-8.442-5.6-15.07s1.894-11.6,5.6-15.07,9.153-5.207,16.333-5.207,12.624,1.736,16.333,5.207,5.6,8.442,5.6,15.07-1.894,11.6-5.6,15.07S103.414,171.855,96.234,171.855Zm0-3.551c.947,0,1.341-.71,1.341-2.051V136.9c0-1.341-.473-2.051-1.341-2.051-.947,0-1.341.71-1.341,2.051v29.351C94.893,167.673,95.367,168.3,96.234,168.3Z" transform="translate(239.845 -116.072)"/><path class="a" d="M150.614,132.5a2.9,2.9,0,0,1,2.051.552,2.592,2.592,0,0,1,.552,1.894v26.2a2.257,2.257,0,0,0,.395,1.341,1.194,1.194,0,0,0,1.1.552,1.344,1.344,0,0,0,1.262-.631V134.946a2.592,2.592,0,0,1,.552-1.894,2.781,2.781,0,0,1,2.051-.552h13.729a2.685,2.685,0,0,1,1.973.552,2.6,2.6,0,0,1,.631,1.894v24.775a4.252,4.252,0,0,0,.237,1.736.792.792,0,0,0,.789.473,1.137,1.137,0,0,0,1.026-.631,7.33,7.33,0,0,0,.552-2.367,5.578,5.578,0,0,1,.316-1.578c.079-.158.316-.237.631-.237h1.262a.6.6,0,0,1,.631.552,5.15,5.15,0,0,1,.158,1.736c0,3.945-1.1,7.1-3.235,9.31-2.209,2.288-5.207,3.393-9.074,3.393a12.738,12.738,0,0,1-6.47-1.657,11.155,11.155,0,0,1-4.418-4.734,11.409,11.409,0,0,1-4.734,4.734,14.244,14.244,0,0,1-6.864,1.657c-3.629,0-6.47-1.1-8.364-3.235-1.894-2.209-2.919-5.286-2.919-9.31V141.889a8.428,8.428,0,0,0-.789-4.1,6.6,6.6,0,0,0-2.84-2.6c-.316-.237-.552-.395-.631-.473a1,1,0,0,1-.079-.473v-.947c0-.473.316-.789.947-.789h19.567Z" transform="translate(228.072 -116.325)"/><path class="a" d="M212.211,143.077a11.3,11.3,0,0,0,1.5,5.839,11.055,11.055,0,0,0,4.261,4.261,11.962,11.962,0,0,0,6.312,1.657,13.527,13.527,0,0,0,5.523-1.026,15.114,15.114,0,0,0,4.734-3.472c.316-.316.552-.473.631-.552a1.17,1.17,0,0,1,.552-.079h1.026c.552,0,.868.473.868,1.5a21.253,21.253,0,0,1-2.6,10.415,19.888,19.888,0,0,1-7.417,7.5,21.979,21.979,0,0,1-10.967,2.762,22.224,22.224,0,0,1-10.573-2.446A19.094,19.094,0,0,1,195.8,151.835a20.14,20.14,0,0,1,2.762-10.415,19.226,19.226,0,0,1,7.89-7.338,24.71,24.71,0,0,1,11.835-2.683,23.52,23.52,0,0,1,8.521,1.42,14.375,14.375,0,0,1,6,4.024,9.6,9.6,0,0,1-.71,13.019,10.58,10.58,0,0,1-7.5,2.762,10.211,10.211,0,0,1-7.18-2.762,8.844,8.844,0,0,1-2.919-6.785,6.486,6.486,0,0,1,2.051-4.892,7.487,7.487,0,0,1,5.286-1.894,1.333,1.333,0,0,0,.237-.789c0-.71-.552-1.1-1.578-1.1a7.776,7.776,0,0,0-5.76,2.525A8.338,8.338,0,0,0,212.211,143.077Z" transform="translate(214.21 -116.093)"/><path class="a" d="M252.44,121.489a8.428,8.428,0,0,0-.789-4.1,6.6,6.6,0,0,0-2.84-2.6c-.316-.237-.552-.395-.631-.473a1,1,0,0,1-.079-.473v-.947c0-.473.316-.789.947-.789h19.725a2.9,2.9,0,0,1,2.051.552,2.592,2.592,0,0,1,.552,1.894V131.9a12.511,12.511,0,0,1,10.336-4.655c3.629,0,6.47,1.1,8.364,3.235,1.894,2.209,2.919,5.286,2.919,9.31v24.617a2.592,2.592,0,0,1-.552,1.894,2.78,2.78,0,0,1-2.051.552H276.662a2.9,2.9,0,0,1-2.051-.552,2.592,2.592,0,0,1-.552-1.894v-26.2a2.257,2.257,0,0,0-.395-1.341,1.38,1.38,0,0,0-1.1-.552,1.344,1.344,0,0,0-1.262.631v27.458a2.592,2.592,0,0,1-.552,1.894,2.781,2.781,0,0,1-2.051.552H254.964a2.9,2.9,0,0,1-2.051-.552,2.592,2.592,0,0,1-.552-1.894V121.489Z" transform="translate(203.175 -112.021)"/></g></svg>