<svg xmlns="http://www.w3.org/2000/svg" xmlns:xlink="http://www.w3.org/1999/xlink" width="615.776" height="234.252" viewBox="0 0 615.776 234.252"><defs><style>.a,.d{fill:#333e48;}.b{fill:#62a0a5;}.b,.c,.d,.e,.f,.g,.h,.i,.l,.m,.n{fill-rule:evenodd;}.c{fill:#528c8e;}.e{fill:url(#a);}.f{fill:url(#b);}.g{fill:#5bb75b;}.h,.n{fill:#4da04d;}.i{fill:url(#c);}.j{clip-path:url(#d);}.k{clip-path:url(#e);}.l{fill:#fff;}.m{fill:none;}.n{opacity:0.21;}</style><linearGradient id="a" x1="1.785" y1="0.5" x2="0.053" y2="0.5" gradientUnits="objectBoundingBox"><stop offset="0" stop-color="#fff"/><stop offset="1" stop-color="#fff" stop-opacity="0"/></linearGradient><linearGradient id="b" x1="2.08" y1="0.5" x2="0.407" y2="0.5" xlink:href="#a"/><linearGradient id="c" x1="0.5" y1="-0.529" x2="0.5" y2="0.637" xlink:href="#a"/><clipPath id="d"><path d="M1084.3,24.259c-33.231-47.906-90.7-18.407-89.189,32.266.486,16.2,9.221,28.873,21.377,40.171,17.47-36.4,60.154-30.513,89.822-59.042a30.659,30.659,0,0,0,4.484-5.35C1101.646,41.778,1090.743,33.557,1084.3,24.259Z" transform="translate(-995.084 0.012)"/></clipPath><clipPath id="e"><path d="M1414.328,350.946c-.7-43.218-16.661-72.246-36.264-72.246s-35.553,29.035-36.264,72.246Zm-36.264-67.439c15.985,0,25.34,26.867,25.952,67.439h-53.129C1351.507,310.375,1362.086,283.507,1378.064,283.507Z" transform="translate(-1341.8 -278.7)"/></clipPath></defs><g transform="translate(0 149.907)"><path class="a" d="M24.961,2231.6a2.86,2.86,0,0,1,2.168.682,3.346,3.346,0,0,1,.641,2.3V2283.3a1.784,1.784,0,0,0,1.534.683c.964,0,1.45-.626,1.45-1.873v-16.266a3.18,3.18,0,0,1,.683-2.3,3.168,3.168,0,0,1,2.3-.683H44.212q4.772,0,7.067,2.6t2.3,7.961v11.846a3.321,3.321,0,0,1-.641,2.3,2.876,2.876,0,0,1-2.175.683H7.758a2.887,2.887,0,0,1-2.175-.683,3.308,3.308,0,0,1-.641-2.3v-43.95A10.368,10.368,0,0,0,4.6,2238.2a4.481,4.481,0,0,0-1.19-1.788,23.5,23.5,0,0,0-2.893-2.175.834.834,0,0,1-.422-.767v-1.021c0-.57.338-.852,1.021-.852Z" transform="translate(-0.1 -2224.427)"/><path class="a" d="M776.31,2421.414a3.122,3.122,0,0,1,2.252.641,2.89,2.89,0,0,1,.641,2.09v27.677a5.015,5.015,0,0,0,.253,1.957.883.883,0,0,0,.852.507,1.081,1.081,0,0,0,1.063-.6,12.08,12.08,0,0,0,.641-2.725,6.53,6.53,0,0,1,.338-1.745.716.716,0,0,1,.683-.3h1.45a.761.761,0,0,1,.725.6,6.842,6.842,0,0,1,.211,2.041q0,6.809-3.66,10.474t-10.474,3.66q-6.557,0-10.094-3.7t-3.534-10.608v-19.5a9.739,9.739,0,0,0-.852-4.554,8.257,8.257,0,0,0-3.153-2.942,2.092,2.092,0,0,1-.725-.556,1.067,1.067,0,0,1-.127-.556v-1.021c0-.57.338-.851,1.021-.851H776.31Z" transform="translate(-699.819 -2400.868)"/><path class="a" d="M1273.058,2178.352a.763.763,0,0,0-.725-.6h-1.45a.723.723,0,0,0-.683.3,6.538,6.538,0,0,0-.338,1.745,11.694,11.694,0,0,1-.64,2.725,1.082,1.082,0,0,1-1.063.6.877.877,0,0,1-.852-.507,5.014,5.014,0,0,1-.253-1.957v-27.677a2.869,2.869,0,0,0-.641-2.09,3.151,3.151,0,0,0-2.252-.641H1234.5v-9.2a2.842,2.842,0,0,0-.64-2.083,3.177,3.177,0,0,0-2.26-.64h-7.75a3.864,3.864,0,0,0-2.386.6,3.574,3.574,0,0,0-1.1,2.125,12.244,12.244,0,0,1-3.111,5.877l-.162.162a11.217,11.217,0,0,1-7.862,3.16h-6.11a11.046,11.046,0,0,1-7.271-2.688,8.286,8.286,0,0,1-2.991-6.511,8,8,0,0,1,8.01-8.01c1.189,0,1.788.4,1.788,1.19a2.652,2.652,0,0,1-.042.422.757.757,0,0,1-.211.423,7.7,7.7,0,0,0-5.11,1.576,5.124,5.124,0,0,0-1.872,4.132,6.187,6.187,0,0,0,2.808,5.363q2.808,1.964,7.834,1.957,5.279,0,8.39-2.217a7.044,7.044,0,0,0,3.111-6.046c0-3.013-1.422-5.448-4.259-7.328s-6.532-2.808-11.072-2.808q-8.6,0-13.8,4.469a14.9,14.9,0,0,0-5.195,11.882v4.173h-5.716c-.683,0-1.021.282-1.021.852v1.535c0,.57.338.852,1.021.852h5.708v37.305a2.841,2.841,0,0,0,.64,2.084,3.13,3.13,0,0,0,2.26.641h16.182a3.153,3.153,0,0,0,2.259-.641,2.871,2.871,0,0,0,.641-2.084v-33.3a6.652,6.652,0,0,0-.338-2.428,4.259,4.259,0,0,0-1.274-1.576h9.369v26.148q0,7.074,3.963,10.988t11.115,3.92q6.894,0,10.643-3.66t3.745-10.474a6.825,6.825,0,0,0-.211-2.042.756.756,0,0,0-.725-.6h-1.365a.791.791,0,0,0-.725.337,5.34,5.34,0,0,0-.38,1.7,7.455,7.455,0,0,1-.894,2.724,1.874,1.874,0,0,1-1.577.6,1.814,1.814,0,0,1-1.577-.64,4.011,4.011,0,0,1-.472-2.26v-26.74h5.561a5.217,5.217,0,0,1,4.378,2.33c.077.12.148.232.211.353a9.738,9.738,0,0,1,.852,4.554v19.5q0,6.9,3.533,10.608t10.094,3.7q6.81,0,10.474-3.66t3.66-10.474A6.849,6.849,0,0,0,1273.058,2178.352Z" transform="translate(-1093.695 -2129.7)"/><path class="a" d="M2551.286,2408.12a13.056,13.056,0,0,1,6.687,1.492,7.692,7.692,0,0,1,3.448,4.639,13.307,13.307,0,0,1,5.322-5.321,15.732,15.732,0,0,1,7.623-1.83q6.135,0,9.369,3.661t3.238,10.389v27.508a2.84,2.84,0,0,1-.64,2.083,3.154,3.154,0,0,1-2.26.641h-15.331a3.153,3.153,0,0,1-2.259-.641,2.87,2.87,0,0,1-.641-2.083v-29.3a2.556,2.556,0,0,0-.429-1.534,1.388,1.388,0,0,0-1.19-.6,1.573,1.573,0,0,0-1.45.683v30.746a2.84,2.84,0,0,1-.641,2.083,3.153,3.153,0,0,1-2.26.641h-15.316a3.153,3.153,0,0,1-2.259-.641,2.84,2.84,0,0,1-.641-2.083v-30.063a9.749,9.749,0,0,0-.852-4.554,8.259,8.259,0,0,0-3.154-2.942,2.086,2.086,0,0,1-.725-.556,1.062,1.062,0,0,1-.127-.556v-1.021c0-.57.338-.852,1.021-.852h13.465Z" transform="translate(-2358.246 -2387.574)"/><path class="a" d="M3349.463,2177.043a5.26,5.26,0,0,1,1.745-4.005,6.205,6.205,0,0,1,4.385-1.619,5.9,5.9,0,0,1,2.978.683,1.4,1.4,0,0,0,.422-1.021c0-.507-.338-.922-1.021-1.232a6.661,6.661,0,0,0-2.724-.472,8.308,8.308,0,0,0-5.877,2.217,7.238,7.238,0,0,0-2.386,5.532,7.445,7.445,0,0,0,1.619,4.6,12.3,12.3,0,0,0,4.687,3.576q6.727,3.241,9.623,6.982a14.744,14.744,0,0,1,2.893,9.284,17.662,17.662,0,0,1-2.766,9.756,18.45,18.45,0,0,1-7.961,6.729,28.294,28.294,0,0,1-12.092,2.428q-8.69,0-14.648-3.745a2.027,2.027,0,0,0-.683,1.45q0,1.194,2,2.3a19.876,19.876,0,0,0,5.575,1.83,38.889,38.889,0,0,0,7.75.725c2.267-.056,4.4-.2,6.384-.422s3.8-.366,5.455-.422q5.618,0,8.813,2.809a9.9,9.9,0,0,1,3.2,7.834,11.99,11.99,0,0,1-2.942,8.046,18.937,18.937,0,0,1-8.475,5.364,39.958,39.958,0,0,1-13.029,1.914q-9.027,0-14.563-2.428t-5.533-6.342a5.88,5.88,0,0,1,1.534-3.921,12.839,12.839,0,0,1-3.92-9.706,13.5,13.5,0,0,1,1.492-6.3,12.9,12.9,0,0,1,4.216-4.772,16.56,16.56,0,0,1-5.624-12.775,16.838,16.838,0,0,1,2.724-9.326,19.138,19.138,0,0,1,7.75-6.729,25.162,25.162,0,0,1,11.41-2.513c.507,0,1.021.014,1.535.043a9.536,9.536,0,0,1,1.534.211,12.069,12.069,0,0,1-1.105-2.64,13.374,13.374,0,0,1-.513-3.659,9.845,9.845,0,0,1,3.576-7.835,13.4,13.4,0,0,1,9.031-3.069,12.867,12.867,0,0,1,8.263,2.513,7.934,7.934,0,0,1,3.154,6.511,7.324,7.324,0,0,1-2.64,5.835,9.989,9.989,0,0,1-6.729,2.259,9.838,9.838,0,0,1-6.088-1.83A5.6,5.6,0,0,1,3349.463,2177.043Zm3.744,62.512a30.418,30.418,0,0,1-11.494,2.126,27.436,27.436,0,0,1-14.563-3.745,1.7,1.7,0,0,0-.683,1.45c0,1.245,1.577,2.372,4.73,3.364a35.853,35.853,0,0,0,10.776,1.492,32.687,32.687,0,0,0,8.264-.936q3.579-.94,3.576-2.555A1.414,1.414,0,0,0,3353.208,2239.555Zm-10.3-23q1.531,0,1.534-2.3v-24.7q0-2.3-1.534-2.3c-1.021,0-1.535.767-1.535,2.3v24.7C3341.368,2215.792,3341.882,2216.559,3342.9,2216.559Z" transform="translate(-3086.225 -2163.817)"/><path class="a" d="M4243.762,2254.924a3.6,3.6,0,0,1,1.063-2.167,3.558,3.558,0,0,1,2.176-.557h9.284a3.15,3.15,0,0,1,2.259.641,2.867,2.867,0,0,1,.641,2.083v9.2h8.433c.683,0,1.021.282,1.021.852v1.535c0,.57-.338.852-1.021.852h-8.433v26.74a3.948,3.948,0,0,0,.472,2.3,2.1,2.1,0,0,0,1.746.6,1.671,1.671,0,0,0,1.492-.683,7.452,7.452,0,0,0,.81-2.64,5.344,5.344,0,0,1,.38-1.7.792.792,0,0,1,.726-.338h1.365a.755.755,0,0,1,.726.6,6.878,6.878,0,0,1,.21,2.041q0,6.81-3.744,10.474t-10.643,3.661q-7.159,0-11.114-3.92t-3.963-10.988v-26.149h-5.026c-.683,0-1.021-.282-1.021-.852v-1.535c0-.57.338-.852,1.021-.852h.338a16.526,16.526,0,0,0,5.877-.767,5.937,5.937,0,0,0,2.941-2.64A23.813,23.813,0,0,0,4243.762,2254.924Z" transform="translate(-3933.752 -2243.577)"/><path class="a" d="M4720.357,2176.681a9.735,9.735,0,0,0-.853-4.554,8.263,8.263,0,0,0-3.152-2.942,2.092,2.092,0,0,1-.726-.556,1.059,1.059,0,0,1-.127-.556v-1.021c0-.57.338-.852,1.021-.852h22.06a3.153,3.153,0,0,1,2.26.641,2.868,2.868,0,0,1,.641,2.083v19.42q4.17-5.194,11.587-5.194,6.133,0,9.368,3.661t3.238,10.389v27.508a2.844,2.844,0,0,1-.641,2.083,3.154,3.154,0,0,1-2.26.641h-15.331a3.152,3.152,0,0,1-2.26-.641,2.874,2.874,0,0,1-.641-2.083v-29.3a2.554,2.554,0,0,0-.429-1.534,1.388,1.388,0,0,0-1.189-.6,1.572,1.572,0,0,0-1.45.683v30.746a2.84,2.84,0,0,1-.641,2.083,3.149,3.149,0,0,1-2.259.641h-15.331a3.152,3.152,0,0,1-2.26-.641,2.844,2.844,0,0,1-.64-2.083v-48.026Z" transform="translate(-4383.592 -2163.631)"/><path class="a" d="M5518.357,2431.529q0,1.964,3.322,3.618a16.392,16.392,0,0,0,7.412,1.661,17.551,17.551,0,0,0,13.289-5.455,5.127,5.127,0,0,1,.726-.641,1.274,1.274,0,0,1,.642-.127h1.02a.822.822,0,0,1,.81.422,3.834,3.834,0,0,1,.211,1.534,17.771,17.771,0,0,1-2.85,9.749,20.615,20.615,0,0,1-8.1,7.194,25.028,25.028,0,0,1-11.713,2.724,27.125,27.125,0,0,1-12.437-2.808,21.973,21.973,0,0,1-8.813-8,21.752,21.752,0,0,1-3.28-11.84,22.207,22.207,0,0,1,3.069-11.67,21.39,21.39,0,0,1,8.728-8.045,28.41,28.41,0,0,1,13.247-2.942,27.969,27.969,0,0,1,10.263,1.788,16.694,16.694,0,0,1,7.194,5.11,11.981,11.981,0,0,1,2.639,7.665,11.821,11.821,0,0,1-4,9.157,14.53,14.53,0,0,1-10.136,3.618,13.04,13.04,0,0,1-9.966-4.09,1.212,1.212,0,0,0-.894.387A1.364,1.364,0,0,0,5518.357,2431.529Zm2.555-5.877a1.611,1.611,0,0,0,1.366.683c1.021,0,1.534-.57,1.534-1.7v-12.093c0-1.133-.514-1.7-1.534-1.7a1.619,1.619,0,0,0-1.366.683Z" transform="translate(-5111.57 -2387.388)"/><path class="a" d="M6476.161,2231.6a2.861,2.861,0,0,1,2.168.682,3.348,3.348,0,0,1,.64,2.3V2283.3a1.786,1.786,0,0,0,1.535.683c.965,0,1.45-.626,1.45-1.873v-16.266a2.518,2.518,0,0,1,2.984-2.985h10.474q4.772,0,7.067,2.6t2.3,7.961v11.846a3.319,3.319,0,0,1-.641,2.3,2.878,2.878,0,0,1-2.175.683h-43.008a2.886,2.886,0,0,1-2.175-.683,3.307,3.307,0,0,1-.641-2.3v-43.95a10.428,10.428,0,0,0-.337-3.111,4.493,4.493,0,0,0-1.19-1.788,23.526,23.526,0,0,0-2.893-2.175.832.832,0,0,1-.422-.767v-1.021c0-.57.338-.852,1.02-.852Z" transform="translate(-5997.212 -2224.427)"/><path class="a" d="M7273.423,2452.315q-12.016,0-18.268-5.792t-6.256-16.865q0-11.076,6.256-16.865t18.268-5.793q12,0,18.266,5.793t6.257,16.865q0,11.076-6.257,16.865T7273.423,2452.315Zm0-3.914c1.02,0,1.533-.767,1.533-2.3v-32.879c0-1.534-.514-2.3-1.533-2.3s-1.534.768-1.534,2.3V2446.1C7271.889,2447.635,7272.4,2448.4,7273.423,2448.4Z" transform="translate(-6738.669 -2387.481)"/><path class="a" d="M7970.37,2421.507a3.15,3.15,0,0,1,2.259.641,2.888,2.888,0,0,1,.642,2.091v29.3a2.6,2.6,0,0,0,.422,1.535,1.377,1.377,0,0,0,1.2.6,1.574,1.574,0,0,0,1.451-.683v-30.745a2.873,2.873,0,0,1,.64-2.091,3.164,3.164,0,0,1,2.26-.641h15.33a3.175,3.175,0,0,1,2.218.641,2.749,2.749,0,0,1,.683,2.091v27.677a4.991,4.991,0,0,0,.254,1.957.882.882,0,0,0,.851.507,1.145,1.145,0,0,0,1.1-.683,9.876,9.876,0,0,0,.6-2.639,6.516,6.516,0,0,1,.339-1.746.712.712,0,0,1,.682-.3h1.449a.761.761,0,0,1,.726.6,6.431,6.431,0,0,1,.211,1.957q0,6.641-3.659,10.432t-10.137,3.787a14.237,14.237,0,0,1-7.242-1.873,12.392,12.392,0,0,1-4.941-5.279,13.135,13.135,0,0,1-5.28,5.279,15.682,15.682,0,0,1-7.665,1.873q-6.133,0-9.368-3.661t-3.237-10.389v-19.758a9.732,9.732,0,0,0-.853-4.554,8.252,8.252,0,0,0-3.152-2.942,2.072,2.072,0,0,1-.726-.556,1.064,1.064,0,0,1-.127-.557v-1.021c0-.57.338-.852,1.021-.852h22.053Z" transform="translate(-7387.908 -2400.961)"/></g><g transform="translate(70.035 0)"><g transform="translate(92.266 13.789)"><path class="b" d="M2317.394,196.6a60.439,60.439,0,0,0-11.494,7.229,36.3,36.3,0,0,0,7.687,7.679c8.707-8.827,15.647-8.5,18.709-3.956C2333.907,199.616,2328.41,193.809,2317.394,196.6Z" transform="translate(-2305.9 -195.892)"/><path class="c" d="M2469.2,196.6c7.918-.816,11.7,4.146,12.212,8.552a6.979,6.979,0,0,1,2.688,2.4C2485.713,199.616,2480.216,193.809,2469.2,196.6Z" transform="translate(-2457.706 -195.892)"/></g><g transform="translate(61.38 10.056)"><path class="d" d="M1909.481,147.293c35.434-11.438,37.4,19.336,31.942,33.857-12.712,33.807-57.388,44.626-74.323,78.849,12.226,9.115,23.573,18.723,30.978,30.19,8.292-31.4,65.32-62.448,66.447-109.651C1965.144,154.607,1938.959,133.279,1909.481,147.293Z" transform="translate(-1867.1 -142.848)"/><path class="e" d="M2176.593,222.9c15.464,9.707,15.689,33.28,8.918,48.124-13.55,29.7-46.323,46.7-64.511,73.7a103.436,103.436,0,0,1,12.135,12.916c7.792-17.794,28.367-36.363,40.931-51.7,12.043-14.7,22.777-31.471,23.242-51.067A33.624,33.624,0,0,0,2176.593,222.9Z" transform="translate(-2103.128 -217.265)"/></g><g transform="translate(21.399 12.005)"><path class="b" d="M1381.461,173.044c16.323-4.139,20.518,10.615,7.461,23.165-29.669,28.528-72.352,22.637-89.822,59.042,11.614,10.8,26.346,20.342,39.98,30.5,16.935-34.223,61.611-45.041,74.323-78.849C1418.865,192.38,1416.895,161.606,1381.461,173.044Z" transform="translate(-1299.1 -170.549)"/><path class="c" d="M1784.786,176.8c16.766,5.075,14.845,26.241,9.432,37.081-15.964,31.984-60.752,38.355-81.418,69.79,3.646,2.611,7.292,5.23,10.861,7.891,16.936-34.223,61.611-45.041,74.323-78.849C1802.249,201.365,1801.982,180.115,1784.786,176.8Z" transform="translate(-1683.68 -176.36)"/><path class="f" d="M1607.716,218c13.55,6.089,5.765,26.163-2.055,34.73-21.99,24.08-61.977,27.656-80.461,55.628,4.09,3.1,8.271,6.1,12.424,9.066,8.418-11.487,19.962-19.638,31.942-27.064,13.606-8.432,29.549-16.682,40.114-28.873,6.187-7.137,10.3-15.035,10.713-24.636C1620.759,228.467,1617.289,218.859,1607.716,218Z" transform="translate(-1509.285 -214.66)"/></g><g transform="translate(0 0)"><path class="g" d="M1084.3,24.259c-33.231-47.906-90.7-18.407-89.189,32.266.486,16.2,9.221,28.873,21.377,40.171,17.47-36.4,60.154-30.513,89.822-59.042a30.659,30.659,0,0,0,4.484-5.35C1101.646,41.778,1090.743,33.557,1084.3,24.259Z" transform="translate(-995.084 0.012)"/><path class="h" d="M1263.083,463.957c-31.435,24.516-75.4,16.365-98.783,49.434a94.9,94.9,0,0,0,9.488,10.1c17.47-36.4,60.154-30.513,89.823-59.042a30.643,30.643,0,0,0,4.483-5.349A30.042,30.042,0,0,1,1263.083,463.957Z" transform="translate(-1152.389 -426.784)"/><path class="i" d="M1051.024,64.664c-12.93,17.491-14.331,41.438-1.745,59.471a60.759,60.759,0,0,1,11.438-10.755c-17.815-32.259.218-67.439,33.026-66.362C1077.131,43.477,1060.949,51.248,1051.024,64.664Z" transform="translate(-1037.347 -42.913)"/></g><g transform="translate(0 0)"><g class="j"><g transform="translate(24.405 19.618)"><g class="k"><path class="l" d="M1326.644,164.3H1249.9v96h85.05v-96Z" transform="translate(-1256.369 -172.352)"/></g></g><path class="m" d="M1084.3,24.259c-33.231-47.906-90.7-18.407-89.189,32.266.486,16.2,9.221,28.873,21.377,40.171,17.47-36.4,60.154-30.513,89.822-59.042a30.659,30.659,0,0,0,4.484-5.35C1101.646,41.778,1090.743,33.557,1084.3,24.259Z" transform="translate(-995.084 0.012)"/><path class="n" d="M1263.083,463.957c-31.435,24.516-75.4,16.365-98.783,49.434a94.9,94.9,0,0,0,9.488,10.1c17.47-36.4,60.154-30.513,89.823-59.042a30.643,30.643,0,0,0,4.483-5.349A30.042,30.042,0,0,1,1263.083,463.957Z" transform="translate(-1152.389 -426.784)"/></g></g></g><path class="d" d="M771.851,1876.71c-.725-2.26-3.2-3.921-6.159-3.921a6.8,6.8,0,0,0-5.3,2.351c-5.666-7.926-15.309-2.921-15.056,5.638a8.414,8.414,0,0,0,2.02,5.11h0l.014.014c.049.063.105.134.162.2l.014.014c.056.07.12.141.176.211.021.021.035.042.056.063.042.049.084.091.127.141a.8.8,0,0,0,.07.077c.035.042.078.084.113.127a.9.9,0,0,1,.077.084c.035.042.077.077.113.12l.084.084.12.12a.868.868,0,0,0,.084.077c.042.042.084.084.134.127l.07.07c.07.063.134.127.2.2a50.569,50.569,0,0,0,5,3.878c.042.035.092.063.134.1l.31.225c.091.063.176.127.267.19.063.042.12.084.183.134.127.092.253.183.387.282.021.014.042.035.063.049.155.112.3.225.458.338a21.165,21.165,0,0,1,5.265,5.131c1.408-5.335,11.107-10.615,11.3-18.639A6.585,6.585,0,0,0,771.851,1876.71Z" transform="translate(-692.875 -1739.459)"/></svg>