<svg xmlns="http://www.w3.org/2000/svg" height="38.911" viewBox="0 0 38.91 38.911" width="38.91"><path d="m26.175 20.1a6.08 6.08 0 0 1 -12.16 0 5.443 5.443 0 0 1 .1-1.013h-2.126v8.1a1.019 1.019 0 0 0 1.02 1.02h14.176a1.018 1.018 0 0 0 1.017-1.02v-8.1h-2.125a5.338 5.338 0 0 1 .098 1.013zm-6.075 4.049a4.053 4.053 0 1 0 -4.058-4.049 4.055 4.055 0 0 0 4.058 4.049zm4.864-8.309h2.429a.61.61 0 0 0 .607-.608v-2.432a.611.611 0 0 0 -.611-.611h-2.43a.611.611 0 0 0 -.611.611v2.429a.614.614 0 0 0 .611.611zm-4.864-15.2a19.455 19.455 0 1 0 19.451 19.46 19.456 19.456 0 0 0 -19.451-19.46zm10.129 27.336a2.259 2.259 0 0 1 -2.252 2.252h-15.764a2.259 2.259 0 0 1 -2.252-2.252v-15.763a2.259 2.259 0 0 1 2.252-2.252h15.764a2.259 2.259 0 0 1 2.252 2.252z" fill="#fff" transform="translate(-.64 -.64)"/></svg>