<svg xmlns="http://www.w3.org/2000/svg" height="38.911" viewBox="0 0 38.91 38.911" width="38.91"><path d="m20.1.64a19.455 19.455 0 1 0 19.451 19.46 19.456 19.456 0 0 0 -19.451-19.46zm-4.767 27.519h-3.939v-12.679h3.939zm-1.994-14.235a1.973 1.973 0 1 1 .051-3.94 1.974 1.974 0 1 1 -.051 3.94zm16.383 14.235h-3.939v-7.026c0-1.635-.571-2.746-2-2.746a2.164 2.164 0 0 0 -2.02 1.476 2.794 2.794 0 0 0 -.132.985v7.31h-3.938v-8.634c0-1.583-.051-2.906-.1-4.046h3.422l.18 1.761h.079a4.561 4.561 0 0 1 3.915-2.047c2.592 0 4.536 1.737 4.536 5.469v7.5z" fill="#fff" transform="translate(-.64 -.64)"/></svg>