<svg xmlns="http://www.w3.org/2000/svg" width="65.814" height="66.396" viewBox="0 0 65.814 66.396">
  <path id="Union_1" data-name="Union 1" d="M25.436,53.661c7.018-14.437,25.532-19,30.8-33.262C58.5,14.274,57.683,1.292,43,6.117,55.215.205,66.067,9.2,65.81,20.141,65.343,40.053,41.71,53.15,38.274,66.4,35.2,61.559,30.5,57.506,25.436,53.661Zm-4.927-3.638A119.345,119.345,0,0,1,8.868,40.8q.435-.923.92-1.763L9.807,39l.007-.012.008-.014h0a21.947,21.947,0,0,1,4.513-5.5l.006-.006h0c.186-.164.374-.325.563-.482l.156-.128q-.182.149-.359.3c3.919-3.317,8.747-5.224,13.749-7.2.866-.342,1.736-.686,2.607-1.039.946-.383,1.912-.786,2.879-1.212l.012-.005h0l.069-.03.025-.011.009,0,.055-.025.04-.018.006,0,.035-.016.048-.021q-.438.2-.877.385c1.455-.628,2.9-1.3,4.329-2.054h0c.3-.157.6-.32.893-.486-.283.159-.583.322-.893.486h0a37.306,37.306,0,0,0,6.439-4.243h0c.5-.416,1-.851,1.47-1.3l.07-.065q.212-.2.422-.405A13.527,13.527,0,0,0,47.559,14.2c.136-.187.265-.375.385-.563l0,0h0a9.3,9.3,0,0,0,.966-1.949,5.187,5.187,0,0,0,.1-3.619,3.3,3.3,0,0,0-1.378-1.639,4.673,4.673,0,0,0-2.464-.614,8.743,8.743,0,0,0-2.163.3A6.915,6.915,0,0,1,43.7,6.08a4.417,4.417,0,0,1,3.161,1.177,4.1,4.1,0,0,1,1.2,2.468,2.951,2.951,0,0,0-1.347-.308c-1.092,0-2.9.519-5.292,2.989h0a15.158,15.158,0,0,1-3.185-3.239A25.066,25.066,0,0,1,43,6.117,18.74,18.74,0,0,1,48.75,5.065a10.509,10.509,0,0,1,2.023.187,7.5,7.5,0,0,1,2.946,1.67,7.4,7.4,0,0,1,1.747,2.546c1.531,3.621.663,8.46-.791,11.425a22.877,22.877,0,0,1-3.141,4.765,31.172,31.172,0,0,1-4.064,3.95,87.241,87.241,0,0,1-9.739,6.585,99.97,99.97,0,0,0-9.215,6.131,38.529,38.529,0,0,0-4.108,3.659,28.41,28.41,0,0,0-3.473,4.35c.674.491,1.238.9,1.807,1.321h0C21.993,51.1,21.238,50.555,20.509,50.024ZM4.936,36.533A26.766,26.766,0,0,1,2.628,33.1,21.013,21.013,0,0,1,.773,28.709a19.466,19.466,0,0,1-.76-4.86,25.957,25.957,0,0,1,1.625-10,23.7,23.7,0,0,1,2.08-4.2A22.408,22.408,0,0,1,6.474,6.1a20.144,20.144,0,0,1,6.259-4.489A17.583,17.583,0,0,1,20.037,0a17.094,17.094,0,0,1,4.44.59,18.438,18.438,0,0,1,4.4,1.836,25.155,25.155,0,0,1,8.1,7.812,15.627,15.627,0,0,0,3.3,3.593,6.629,6.629,0,0,0,3.977,1.575,5.049,5.049,0,0,0,3.689-1.756,11.936,11.936,0,0,1-1.2,1.3l0,0,0,0-.026.024-.009.008-.022.021,0,0-.009.008-.018.016-.018.016-.013.011-.024.022,0,0-.006.006-.027.024,0,0,0,0-.03.027v0l0,0-.032.029,0,0c-.191.168-.391.336-.6.5l-.051.041-.011.009-.107.084,0,0A35.138,35.138,0,0,1,37.256,20.6a32.547,32.547,0,0,0-1.925-4.425,20.791,20.791,0,0,0-2.958-4.283,12.169,12.169,0,0,0-3.437-2.686,8.374,8.374,0,0,0-3.795-.931,8.995,8.995,0,0,0-5.706,2.177,18.7,18.7,0,0,0-4.7,6.146,39.233,39.233,0,0,0-3.254,9.536c-.313,1.452-.577,2.977-.784,4.533A24,24,0,0,0,5.144,36.24l-.012.017-.012.017c-.061.086-.122.173-.182.259h0Zm9.7-8.24a54.235,54.235,0,0,1,1.274-6.446,31.649,31.649,0,0,1,1.837-5.194,14.05,14.05,0,0,1,3.294-4.7,6.157,6.157,0,0,1,4.1-1.65c2.139,0,4.031,1.176,5.624,3.5a24.847,24.847,0,0,1,3.261,8.006c-.3.1-.6.2-.9.3l-.016,0-.039.013-.005,0-.032.011-.093.03c-1.967.639-3.96,1.205-5.887,1.753a71.745,71.745,0,0,0-12.1,4.218l-.068.033-.04.02-.039.019-.062.03-.022.011-.07.035-.006,0-.006,0h0ZM34.253,23.56h0l-.014.006Zm.006,0,.007,0,.11-.05.01,0-.133.06Zm.15-.067-.018.008,0,0Z" transform="translate(0)" fill="#fff"/>
</svg>
