<svg xmlns="http://www.w3.org/2000/svg" width="523.175" height="90.388" viewBox="0 0 523.175 90.388"><defs><style>.a{fill:#333e48;}</style></defs><g transform="translate(-1466.114 -989.896)"><path class="a" d="M1495.644,1390.585q-14.12,0-21.824-7.877t-7.705-22.255q0-14.377,7.705-22.212t21.824-7.834q14.119,0,21.824,7.834t7.705,22.212q0,14.379-7.705,22.255T1495.644,1390.585Zm0-4.391q1.635,0,1.636-2.325v-46.748q0-2.325-1.636-2.324t-1.636,2.324v46.748Q1494.008,1386.195,1495.644,1386.195Z" transform="translate(0 -310.301)"/><path class="a" d="M2158.039,1499.255a3.188,3.188,0,0,1,2.281.646,2.9,2.9,0,0,1,.646,2.109v29.615a2.6,2.6,0,0,0,.43,1.55,1.4,1.4,0,0,0,1.206.6,1.589,1.589,0,0,0,1.464-.689V1502.01a2.9,2.9,0,0,1,.646-2.109,3.186,3.186,0,0,1,2.281-.646h15.5a3.21,3.21,0,0,1,2.238.646,2.786,2.786,0,0,1,.689,2.109v27.98a5.047,5.047,0,0,0,.258,1.98.89.89,0,0,0,.861.517,1.164,1.164,0,0,0,1.119-.689,9.7,9.7,0,0,0,.6-2.669,6.534,6.534,0,0,1,.344-1.765.725.725,0,0,1,.689-.3h1.463a.765.765,0,0,1,.732.6,6.5,6.5,0,0,1,.215,1.98q0,6.715-3.7,10.546t-10.245,3.831a14.344,14.344,0,0,1-7.318-1.894,12.455,12.455,0,0,1-4.993-5.338,13.276,13.276,0,0,1-5.337,5.338,15.822,15.822,0,0,1-7.749,1.894q-6.2,0-9.47-3.7t-3.271-10.5v-19.974a9.9,9.9,0,0,0-.861-4.606,8.271,8.271,0,0,0-3.186-2.97,2.167,2.167,0,0,1-.731-.56,1.069,1.069,0,0,1-.129-.56v-1.033q0-.86,1.033-.861Z" transform="translate(-609.277 -464.169)"/><path class="a" d="M2772.6,1488.643q7.4,0,10.073,4.391a16.178,16.178,0,0,1,5.6-4.089,17.937,17.937,0,0,1,7.146-1.334,15.389,15.389,0,0,1,10.331,3.444,11.023,11.023,0,0,1,4.046,8.781,9.12,9.12,0,0,1-3.271,7.275,12.523,12.523,0,0,1-8.437,2.8,12.885,12.885,0,0,1-8.308-2.583,8.03,8.03,0,0,1-3.228-6.543,7.176,7.176,0,0,1,2.324-5.51,8.4,8.4,0,0,1,5.94-2.152,1.656,1.656,0,0,0,.258-.861q0-1.2-1.808-1.205a8.746,8.746,0,0,0-6.543,2.884,9.676,9.676,0,0,0-2.755,6.931,9.947,9.947,0,0,0,1.937,6.069,13.108,13.108,0,0,0,5.553,4.176,3.322,3.322,0,0,1,1.593,1.162,4.529,4.529,0,0,1,.387,2.2v15.152q0,2.756-2.927,2.755h-17.477q-2.67,0-2.669-2.755v-30.391a9.9,9.9,0,0,0-.861-4.606,8.271,8.271,0,0,0-3.186-2.97,2.169,2.169,0,0,1-.731-.56,1.07,1.07,0,0,1-.129-.56V1489.5q0-.86,1.033-.861Z" transform="translate(-1184.065 -453.557)"/><path class="a" d="M3525.332,1362.4a2.069,2.069,0,0,0-1.205-.43,1.489,1.489,0,0,0-1.033.387,1.18,1.18,0,0,0-.43.9,10.711,10.711,0,0,0,.43,2.239l8.178,33.748a13.639,13.639,0,0,1,.345,2.152q0,2.756-2.841,2.755h-15.239a3.729,3.729,0,0,1-2.626-.775,6.743,6.743,0,0,1-1.42-3.1l-9.47-37.88a2.314,2.314,0,0,0-1.377-.43,1.323,1.323,0,0,0-.9.344,1.2,1.2,0,0,0-.388.947,10.717,10.717,0,0,0,.431,2.239l8.179,33.748a13.091,13.091,0,0,1,.516,2.755q0,2.153-2.669,2.152H3482.2a3.783,3.783,0,0,1-2.626-.818,2.918,2.918,0,0,1-.9-2.281q0-1.893,3.917-12.1t13.043-32.069a5.559,5.559,0,0,0,.516-2.152,4.213,4.213,0,0,0-.732-2.5,10.184,10.184,0,0,0-2.712-2.325q-.862-.517-.861-1.119v-1.033q0-.859,1.033-.861h16.53a10.661,10.661,0,0,1,5.295,1.076,7.478,7.478,0,0,1,2.97,3.659l3.357,7.748,1.464-3.186a7.781,7.781,0,0,0,.775-2.669,3.207,3.207,0,0,0-.56-1.851,7.521,7.521,0,0,0-1.937-1.765q-.862-.517-.861-1.119v-1.033q0-.859,1.033-.861h15.5q5.6,0,7.318,4.735l15.324,43.735a24.955,24.955,0,0,1,1.636,6.026q0,2.756-2.841,2.755h-19.026a3.728,3.728,0,0,1-2.626-.775,6.743,6.743,0,0,1-1.421-3.1Z" transform="translate(-1834.003 -325.334)"/><g transform="translate(1720.862 989.896)"><path class="a" d="M4364.541,1035.086a3.189,3.189,0,0,1,2.281.646,2.9,2.9,0,0,1,.646,2.109v27.98a5.043,5.043,0,0,0,.258,1.98.89.89,0,0,0,.861.517,1.1,1.1,0,0,0,1.076-.6,12.035,12.035,0,0,0,.646-2.755,6.493,6.493,0,0,1,.345-1.765.723.723,0,0,1,.688-.3h1.464a.765.765,0,0,1,.731.6,6.9,6.9,0,0,1,.215,2.066q0,6.889-3.7,10.589t-10.59,3.7q-6.63,0-10.2-3.745t-3.572-10.719v-19.715a9.9,9.9,0,0,0-.861-4.606,8.271,8.271,0,0,0-3.186-2.97,2.174,2.174,0,0,1-.731-.56,1.075,1.075,0,0,1-.129-.56v-1.033q0-.86,1.033-.861Zm6.4-38.209c-.91-2.845-4.039-4.942-7.76-4.942a8.558,8.558,0,0,0-6.684,2.967c-7.139-9.989-19.3-3.68-18.973,7.108a10.644,10.644,0,0,0,2.547,6.443h0l.015.018c.066.083.133.165.2.247l.015.017c.073.088.148.176.224.263l.071.08c.053.06.105.119.159.178l.091.1.145.156.1.106.143.149.1.107.148.149.1.1.164.16.091.088q.127.123.259.244a64.189,64.189,0,0,0,6.3,4.891l.168.12.39.28.336.243.229.165.484.353.083.061q.288.211.572.423a26.661,26.661,0,0,1,6.638,6.469c1.777-6.728,14-13.38,14.237-23.5A7.969,7.969,0,0,0,4370.936,996.877Z" transform="translate(-4337.512 -989.896)"/></g><g transform="translate(1850.784 989.896)"><path class="a" d="M5828.958,1035.086a3.19,3.19,0,0,1,2.281.646,2.9,2.9,0,0,1,.646,2.109v27.98a5.041,5.041,0,0,0,.258,1.98.889.889,0,0,0,.861.517,1.1,1.1,0,0,0,1.076-.6,11.981,11.981,0,0,0,.646-2.755,6.513,6.513,0,0,1,.345-1.765.724.724,0,0,1,.688-.3h1.464a.764.764,0,0,1,.731.6,6.9,6.9,0,0,1,.215,2.066q0,6.889-3.7,10.589t-10.589,3.7q-6.631,0-10.2-3.745t-3.573-10.719v-19.715a9.9,9.9,0,0,0-.861-4.606,8.273,8.273,0,0,0-3.185-2.97,2.172,2.172,0,0,1-.732-.56,1.075,1.075,0,0,1-.129-.56v-1.033q0-.86,1.033-.861Zm6.4-38.209c-.91-2.845-4.039-4.942-7.76-4.942a8.558,8.558,0,0,0-6.685,2.967c-7.139-9.989-19.295-3.68-18.973,7.108a10.644,10.644,0,0,0,2.547,6.443h0l.014.018q.1.124.2.247l.015.017q.111.132.225.263l.07.08c.053.06.105.119.159.178l.092.1.145.156.1.106.143.149.1.107.148.149.1.1.165.16.091.088c.085.082.171.163.259.244a64.138,64.138,0,0,0,6.3,4.891l.168.12.39.28.337.243.228.165.484.353.083.061q.288.211.573.423a26.659,26.659,0,0,1,6.638,6.469c1.777-6.728,14-13.38,14.237-23.5A7.977,7.977,0,0,0,5835.353,996.877Z" transform="translate(-5801.929 -989.896)"/></g><path class="a" d="M4796.639,1522.477a5.009,5.009,0,0,1-1.55,3.745,6.414,6.414,0,0,1-4.218,1.679,1.741,1.741,0,0,0-.345.947q0,1.12,1.55,1.119a6.615,6.615,0,0,0,4.95-2.368,7.8,7.8,0,0,0,2.2-5.467,6.866,6.866,0,0,0-2.41-5.553q-2.411-2.022-8.352-3.4-11.279-2.583-11.278-11.02,0-6.715,6.5-10.632t17.606-3.917q9.125,0,14.205,2.8t5.08,7.791a6.5,6.5,0,0,1-2.669,5.467,12.01,12.01,0,0,1-7.4,2.023,13.256,13.256,0,0,1-7.576-1.98,6,6,0,0,1-2.927-5.166,5.015,5.015,0,0,1,1.55-3.745,6.425,6.425,0,0,1,4.218-1.679,1.753,1.753,0,0,0,.345-.947q0-1.118-1.55-1.119a6.616,6.616,0,0,0-4.95,2.367,7.8,7.8,0,0,0-2.2,5.467,6.739,6.739,0,0,0,2.626,5.6q2.624,2.066,8.738,3.358,7.231,1.465,10.331,4.089a9.222,9.222,0,0,1,3.1,7.447,11.467,11.467,0,0,1-6.069,10.417q-6.07,3.616-17.434,3.616-10.331,0-16.486-2.927t-6.156-7.748a6.355,6.355,0,0,1,2.712-5.424,12.244,12.244,0,0,1,7.361-1.98,13.269,13.269,0,0,1,7.576,1.98A6,6,0,0,1,4796.639,1522.477Z" transform="translate(-3016.293 -453.557)"/><path class="a" d="M5341.994,1522.477a5.008,5.008,0,0,1-1.55,3.745,6.412,6.412,0,0,1-4.218,1.679,1.741,1.741,0,0,0-.345.947q0,1.12,1.55,1.119a6.615,6.615,0,0,0,4.95-2.368,7.8,7.8,0,0,0,2.2-5.467,6.866,6.866,0,0,0-2.41-5.553q-2.412-2.022-8.352-3.4-11.279-2.583-11.278-11.02,0-6.715,6.5-10.632t17.606-3.917q9.125,0,14.205,2.8t5.08,7.791a6.5,6.5,0,0,1-2.669,5.467,12.007,12.007,0,0,1-7.4,2.023,13.255,13.255,0,0,1-7.576-1.98,6,6,0,0,1-2.927-5.166,5.013,5.013,0,0,1,1.55-3.745,6.426,6.426,0,0,1,4.218-1.679,1.753,1.753,0,0,0,.345-.947q0-1.118-1.55-1.119a6.616,6.616,0,0,0-4.95,2.367,7.8,7.8,0,0,0-2.2,5.467,6.739,6.739,0,0,0,2.626,5.6q2.624,2.066,8.738,3.358,7.231,1.465,10.332,4.089a9.223,9.223,0,0,1,3.1,7.447,11.467,11.467,0,0,1-6.069,10.417q-6.069,3.616-17.434,3.616-10.331,0-16.486-2.927t-6.156-7.748a6.355,6.355,0,0,1,2.712-5.424,12.244,12.244,0,0,1,7.361-1.98,13.269,13.269,0,0,1,7.576,1.98A6,6,0,0,1,5341.994,1522.477Z" transform="translate(-3513.264 -453.557)"/><path class="a" d="M6252.54,1533.411q-12.139,0-18.467-5.854t-6.328-17.046q0-11.191,6.328-17.046t18.467-5.854q12.139,0,18.467,5.854t6.328,17.046q0,11.193-6.328,17.046T6252.54,1533.411Zm0-3.96q1.55,0,1.549-2.324v-33.232q0-2.324-1.549-2.324t-1.55,2.324v33.232Q6250.99,1529.451,6252.54,1529.451Z" transform="translate(-4339.183 -453.557)"/><path class="a" d="M6806.176,1488.643a13.189,13.189,0,0,1,6.759,1.507,7.788,7.788,0,0,1,3.486,4.692,13.483,13.483,0,0,1,5.38-5.381,15.859,15.859,0,0,1,7.706-1.851q6.2,0,9.47,3.7t3.271,10.5v27.808a2.9,2.9,0,0,1-.646,2.109,3.191,3.191,0,0,1-2.281.646h-15.5a3.187,3.187,0,0,1-2.281-.646,2.9,2.9,0,0,1-.646-2.109v-29.616a2.6,2.6,0,0,0-.431-1.55,1.4,1.4,0,0,0-1.205-.6,1.59,1.59,0,0,0-1.464.689v31.079a2.9,2.9,0,0,1-.646,2.109,3.191,3.191,0,0,1-2.281.646h-15.5a3.187,3.187,0,0,1-2.281-.646,2.9,2.9,0,0,1-.646-2.109v-30.391a9.884,9.884,0,0,0-.861-4.606,8.271,8.271,0,0,0-3.186-2.97,2.174,2.174,0,0,1-.731-.56,1.075,1.075,0,0,1-.129-.56V1489.5q0-.86,1.033-.861Z" transform="translate(-4852.958 -453.557)"/></g></svg>