<svg xmlns="http://www.w3.org/2000/svg" width="493.991" height="56.245" viewBox="0 0 493.991 56.245"><defs><style>.a{fill:#333e48;}</style></defs><g transform="translate(471.107 -9249.234)"><path class="a" d="M-438.29,9249.234q10.634,0,16.076,4.943t5.442,14.581q0,8.807-5.4,14.04t-14.705,5.234a24.047,24.047,0,0,1-7.228-1v14.538a3.408,3.408,0,0,1-.582,2.243,2.8,2.8,0,0,1-2.16.665H-463.63a2.793,2.793,0,0,1-2.16-.665,3.4,3.4,0,0,1-.582-2.243v-42.869a10.048,10.048,0,0,0-.332-3.032,4.419,4.419,0,0,0-1.163-1.745,22.817,22.817,0,0,0-2.825-2.118.815.815,0,0,1-.415-.748v-1c0-.553.332-.831,1-.831Zm-5.816,33.149a1.84,1.84,0,0,0,1.579.664,1.346,1.346,0,0,0,1.163-.581,2.511,2.511,0,0,0,.415-1.5V9255.3a2.514,2.514,0,0,0-.415-1.494,1.349,1.349,0,0,0-1.163-.582,1.846,1.846,0,0,0-1.579.664Z"/><path class="a" d="M218.181,9434.14q-8.392,0-11.964-6.895a11.873,11.873,0,0,1-11.548,6.895,14.218,14.218,0,0,1-9.222-2.824,9.14,9.14,0,0,1-3.489-7.478,7.911,7.911,0,0,1,2.866-6.438q2.866-2.367,8.848-3.2,15.286-1.994,15.287-11.548a9.246,9.246,0,0,0-2.659-6.605,8.442,8.442,0,0,0-6.314-2.783q-1.745,0-1.745,1.163a1.6,1.6,0,0,0,.249.831,8.11,8.11,0,0,1,5.733,2.077,6.923,6.923,0,0,1,2.243,5.317,7.687,7.687,0,0,1-3.2,6.314,12.925,12.925,0,0,1-8.183,2.492,12.053,12.053,0,0,1-8.059-2.534,8.334,8.334,0,0,1-2.991-6.688q0-5.565,5.4-8.932t14.29-3.364q10.634,0,16.159,5.15t5.525,15.121V9420.6a4.872,4.872,0,0,0,.249,1.911.859.859,0,0,0,.831.5,1.124,1.124,0,0,0,1.08-.665,9.36,9.36,0,0,0,.582-2.575,6.282,6.282,0,0,1,.332-1.7.7.7,0,0,1,.665-.291h1.412a.737.737,0,0,1,.706.582,6.275,6.275,0,0,1,.208,1.911q0,6.646-3.448,10.26T218.181,9434.14ZM204.805,9416.2a1.58,1.58,0,0,0-1.329-.665q-1.414,0-1.412,1.661v5.318q0,1.661,1.412,1.662a1.578,1.578,0,0,0,1.329-.666Z" transform="translate(-597.152 -128.66)"/><path class="a" d="M810.239,9423.589a4.834,4.834,0,0,1-1.5,3.614,6.192,6.192,0,0,1-4.071,1.62,1.686,1.686,0,0,0-.332.914q0,1.08,1.5,1.08a6.386,6.386,0,0,0,4.777-2.285,7.526,7.526,0,0,0,2.118-5.275,6.628,6.628,0,0,0-2.326-5.359q-2.327-1.95-8.059-3.281-10.885-2.492-10.884-10.634,0-6.48,6.273-10.261t16.99-3.78q8.805,0,13.708,2.7t4.9,7.519a6.273,6.273,0,0,1-2.576,5.274,11.585,11.585,0,0,1-7.145,1.953,12.8,12.8,0,0,1-7.311-1.911,5.786,5.786,0,0,1-2.825-4.984,4.837,4.837,0,0,1,1.5-3.614,6.2,6.2,0,0,1,4.071-1.62,1.689,1.689,0,0,0,.332-.914q0-1.078-1.5-1.08a6.384,6.384,0,0,0-4.777,2.285,7.528,7.528,0,0,0-2.119,5.275,6.5,6.5,0,0,0,2.534,5.4q2.533,1.994,8.433,3.24,6.979,1.414,9.97,3.945a8.9,8.9,0,0,1,2.991,7.188,11.066,11.066,0,0,1-5.857,10.053q-5.857,3.489-16.824,3.488-9.97,0-15.91-2.824t-5.94-7.478A6.136,6.136,0,0,1,793,9418.6a11.821,11.821,0,0,1,7.1-1.91,12.813,12.813,0,0,1,7.311,1.91A5.8,5.8,0,0,1,810.239,9423.589Z" transform="translate(-1153.487 -128.66)"/><path class="a" d="M1310.744,9268.39a3.522,3.522,0,0,1,1.038-2.118,3.455,3.455,0,0,1,2.119-.54h9.056a3.079,3.079,0,0,1,2.2.623,2.8,2.8,0,0,1,.623,2.035v8.974h8.225q1,0,1,.83v1.5q0,.832-1,.831h-8.225v26.087a3.855,3.855,0,0,0,.457,2.243,2.063,2.063,0,0,0,1.7.582,1.638,1.638,0,0,0,1.454-.664,7.241,7.241,0,0,0,.789-2.576,5.186,5.186,0,0,1,.374-1.662.768.768,0,0,1,.706-.332h1.329a.738.738,0,0,1,.706.582,6.658,6.658,0,0,1,.208,1.994q0,6.647-3.655,10.219t-10.385,3.572q-6.979,0-10.842-3.821t-3.863-10.718V9280.52h-4.9q-1,0-1-.831v-1.5q0-.831,1-.83h.332a16.212,16.212,0,0,0,5.733-.748,5.75,5.75,0,0,0,2.866-2.575A22.832,22.832,0,0,0,1310.744,9268.39Z" transform="translate(-1618.433 -15.085)"/><path class="a" d="M1968.36,9249.234a2.812,2.812,0,0,1,2.119.665,3.247,3.247,0,0,1,.623,2.244v9.886q0,5.234-2.243,7.768t-6.9,2.534h-10.219a2.452,2.452,0,0,1-2.908-2.907v-14.373q0-1.828-1.412-1.828a1.751,1.751,0,0,0-1.5.664v20.937h15.785q1,0,1,.914v2.16c0,.555-.333.83-1,.83h-15.785v20.937a1.744,1.744,0,0,0,1.5.665q1.412,0,1.412-1.828v-14.206a2.452,2.452,0,0,1,2.908-2.908h10.219q4.652,0,6.9,2.534t2.243,7.769v9.886a3.239,3.239,0,0,1-.623,2.243,2.812,2.812,0,0,1-2.119.665H1926.4a2.812,2.812,0,0,1-2.119-.665,3.238,3.238,0,0,1-.623-2.243v-42.869a10.05,10.05,0,0,0-.332-3.032,4.421,4.421,0,0,0-1.163-1.745,22.823,22.823,0,0,0-2.825-2.118.815.815,0,0,1-.415-.748v-1c0-.553.332-.831,1-.831Z" transform="translate(-2185.409)"/><path class="a" d="M2569.041,9408.814a6.414,6.414,0,0,0-1.371-2.326,13.556,13.556,0,0,0-2.617-2q-.829-.5-.831-1.079v-1c0-.552.332-.831,1-.831h12.96a29.3,29.3,0,0,1,8.35.872,8.1,8.1,0,0,1,4.237,3.033,25,25,0,0,1,2.95,6.4l7.976,24.094a1.352,1.352,0,0,0,1,.415q1.247,0,1.247-1.412a10.694,10.694,0,0,0-.665-2.741l-7.477-22.847a27.221,27.221,0,0,0-1-2.743,8.623,8.623,0,0,0-.914-1.578q-.748-.913-.956-1.2a1.181,1.181,0,0,1-.208-.707v-.747c0-.552.332-.831,1-.831h23.511q2.991,0,2.991,2.16,0,3.658-10.967,31.155a35.546,35.546,0,0,1-2.95,6.189,5.641,5.641,0,0,1-2.492,2.16,11.845,11.845,0,0,1-4.112.54h-12.462a8.241,8.241,0,0,1-4.4-.955,6.6,6.6,0,0,1-2.409-3.449Z" transform="translate(-2775.457 -139.308)"/><path class="a" d="M3245.306,9413.952q0,1.912,3.24,3.53a15.922,15.922,0,0,0,7.228,1.62,17.118,17.118,0,0,0,12.961-5.317,4.784,4.784,0,0,1,.706-.622,1.233,1.233,0,0,1,.623-.125h1a.8.8,0,0,1,.789.416,3.718,3.718,0,0,1,.208,1.5,17.34,17.34,0,0,1-2.783,9.513,20.133,20.133,0,0,1-7.893,7.021,24.385,24.385,0,0,1-11.423,2.657,26.406,26.406,0,0,1-12.13-2.741,21.446,21.446,0,0,1-8.6-7.81,21.167,21.167,0,0,1-3.2-11.548,21.691,21.691,0,0,1,2.99-11.382,20.881,20.881,0,0,1,8.516-7.852,27.674,27.674,0,0,1,12.919-2.866,27.219,27.219,0,0,1,10.011,1.745,16.375,16.375,0,0,1,7.02,4.984,11.683,11.683,0,0,1,2.575,7.478,11.523,11.523,0,0,1-3.9,8.932,14.179,14.179,0,0,1-9.886,3.53,12.716,12.716,0,0,1-9.72-3.987,1.2,1.2,0,0,0-.872.373A1.3,1.3,0,0,0,3245.306,9413.952Zm2.493-5.732a1.577,1.577,0,0,0,1.329.664q1.5,0,1.5-1.662v-11.8q0-1.661-1.5-1.661a1.582,1.582,0,0,0-1.329.664Z" transform="translate(-3380.606 -128.66)"/><path class="a" d="M3771.922,9390.938a12.723,12.723,0,0,1,6.522,1.454,7.507,7.507,0,0,1,3.365,4.528,13.012,13.012,0,0,1,5.192-5.193,15.311,15.311,0,0,1,7.436-1.786q5.982,0,9.139,3.572t3.157,10.136v26.836a2.8,2.8,0,0,1-.623,2.035,3.08,3.08,0,0,1-2.2.623h-14.954a3.077,3.077,0,0,1-2.2-.623,2.8,2.8,0,0,1-.623-2.035v-28.58a2.523,2.523,0,0,0-.415-1.5,1.353,1.353,0,0,0-1.163-.581,1.534,1.534,0,0,0-1.412.665v29.992a2.8,2.8,0,0,1-.623,2.035,3.079,3.079,0,0,1-2.2.623h-14.954a3.077,3.077,0,0,1-2.2-.623,2.8,2.8,0,0,1-.623-2.035v-29.328a9.554,9.554,0,0,0-.831-4.445,7.981,7.981,0,0,0-3.074-2.865,2.085,2.085,0,0,1-.706-.541,1.032,1.032,0,0,1-.125-.539v-1c0-.553.332-.831,1-.831Z" transform="translate(-3866.844 -128.66)"/><path class="a" d="M4355.792,9268.39a3.523,3.523,0,0,1,1.039-2.118,3.452,3.452,0,0,1,2.118-.54H4368a3.079,3.079,0,0,1,2.2.623,2.8,2.8,0,0,1,.623,2.035v8.974h8.225q1,0,1,.83v1.5q0,.832-1,.831h-8.225v26.087a3.854,3.854,0,0,0,.457,2.243,2.064,2.064,0,0,0,1.7.582,1.639,1.639,0,0,0,1.454-.664,7.249,7.249,0,0,0,.789-2.576,5.206,5.206,0,0,1,.374-1.662.769.769,0,0,1,.707-.332h1.33a.738.738,0,0,1,.706.582,6.659,6.659,0,0,1,.208,1.994q0,6.647-3.656,10.219t-10.385,3.572q-6.979,0-10.842-3.821t-3.863-10.718V9280.52h-4.9q-1,0-1-.831v-1.5q0-.831,1-.83h.332a16.213,16.213,0,0,0,5.733-.748,5.753,5.753,0,0,0,2.866-2.575A22.819,22.819,0,0,0,4355.792,9268.39Z" transform="translate(-4402.777 -15.085)"/><path class="a" d="M4798.489,9423.589a4.836,4.836,0,0,1-1.5,3.614,6.191,6.191,0,0,1-4.071,1.62,1.687,1.687,0,0,0-.332.914q0,1.08,1.5,1.08a6.385,6.385,0,0,0,4.777-2.285,7.524,7.524,0,0,0,2.119-5.275,6.628,6.628,0,0,0-2.327-5.359q-2.326-1.95-8.059-3.281-10.885-2.492-10.883-10.634,0-6.48,6.273-10.261t16.989-3.78q8.806,0,13.708,2.7t4.9,7.519a6.274,6.274,0,0,1-2.576,5.274,11.586,11.586,0,0,1-7.145,1.953,12.8,12.8,0,0,1-7.311-1.911,5.786,5.786,0,0,1-2.824-4.984,4.838,4.838,0,0,1,1.495-3.614,6.2,6.2,0,0,1,4.072-1.62,1.69,1.69,0,0,0,.332-.914q0-1.078-1.5-1.08a6.385,6.385,0,0,0-4.777,2.285,7.53,7.53,0,0,0-2.119,5.275,6.5,6.5,0,0,0,2.534,5.4q2.533,1.994,8.433,3.24,6.979,1.414,9.969,3.945a8.9,8.9,0,0,1,2.991,7.188,11.067,11.067,0,0,1-5.857,10.053q-5.858,3.489-16.824,3.488-9.97,0-15.91-2.824t-5.94-7.478a6.137,6.137,0,0,1,2.617-5.234,11.823,11.823,0,0,1,7.1-1.91,12.813,12.813,0,0,1,7.311,1.91A5.8,5.8,0,0,1,4798.489,9423.589Z" transform="translate(-4800.28 -128.66)"/></g></svg>