<svg xmlns="http://www.w3.org/2000/svg" width="242.676" height="242.676" viewBox="0 0 242.676 242.676"><defs><style>.a{fill:#fff;}.b{fill:#231f20;}</style></defs><g transform="translate(-1036.193 -671.552)"><path class="a" d="M121.338,0A121.338,121.338,0,1,1,0,121.338,121.338,121.338,0,0,1,121.338,0Z" transform="translate(1036.193 671.552)"/><g transform="translate(1095.689 726.079)"><path class="b" d="M324.81,210.29h9.16c7.545,0,8.986,2.054,8.986,11.313s-1.441,11.321-8.986,11.321h-3.611v12.605H324.81Zm5.549,17.98h2.89c3.768,0,4.141-.613,4.141-6.667s-.389-6.626-4.141-6.626h-2.89Z" transform="translate(-321.348 -209.95)"/><path class="b" d="M350.66,210.29h5.549l-.05,35.372H350.61Z" transform="translate(-325.781 -209.95)"/><path class="b" d="M369.333,210.29h6.435l7.288,35.38h-5.549l-.961-5.532h-8.621l-1.077,5.524H361.3Zm-.613,25.194h7.048l-3.437-19.313h-.108Z" transform="translate(-327.617 -209.95)"/><path class="b" d="M391.88,210.29h7.652l6.551,33.293h.108V210.29h5.218v40.06h-7.992l-6.543-34.179h-.116v29.492H391.88Z" transform="translate(-332.871 -209.95)"/><path class="b" d="M420.22,220.431c0-5.607,1.83-10.551,9.375-10.551,7.156,0,9.433,3.719,9.433,9.938v20.249c0,5.607-1.83,10.543-9.433,10.543-7.1,0-9.375-3.719-9.375-9.938Zm5.549,20.581c0,3.445,1.549,5.276,3.826,5.276s3.884-1.83,3.884-5.276V219.984c0-3.942-1.333-5.8-3.884-5.8s-3.826,1.83-3.826,5.8Z" transform="translate(-337.741 -209.88)"/><path class="b" d="M447,238.691h5.549V242c0,2.667,1,4.331,3.222,4.331,2.94,0,3.661-2,3.661-4.6,0-3.387-.166-4.5-5.938-10.212-3.553-3.553-6.493-6.775-6.493-12.208,0-6.551,3.056-9.383,9.11-9.383a9.458,9.458,0,0,1,6.493,2.22c.944.894,1.607,2.278,1.607,5.11v3.777h-5.218v-3.164c0-2.278-.944-3.611-3.106-3.611s-3.313,1.275-3.313,4.381c0,2.725.555,4.389,5.665,9.715,5.433,5.657,6.435,7.6,6.435,12.423,0,6.269-2.443,9.872-9.044,9.872-5.11,0-8.6-2.162-8.6-7.156Z" transform="translate(-342.342 -209.887)"/><path class="b" d="M324.58,267h9.151c7.553,0,8.994,2.054,8.994,11.321s-1.441,11.321-8.994,11.321h-3.6V302.43H324.58Zm5.549,17.98h2.882c3.777,0,4.141-.613,4.141-6.626s-.389-6.626-4.141-6.626h-2.882Z" transform="translate(-321.309 -219.694)"/><path class="b" d="M350.64,267h15.09v4.663h-9.541v10.311h8.986v4.663h-8.986v11.139h9.541v4.654H350.64Z" transform="translate(-325.786 -219.694)"/><path class="b" d="M371.54,277.053c0-5.607,1.83-10.543,9.383-10.543,7.156,0,9.433,3.719,9.433,9.938v15.736c0,5.6-1.83,10.543-9.433,10.543-7.106,0-9.383-3.719-9.383-9.938Zm5.549,16.034c0,3.445,1.557,5.276,3.835,5.276s3.884-1.83,3.884-5.276V276.606c0-3.934-1.333-5.8-3.884-5.8s-3.835,1.83-3.835,5.8Z" transform="translate(-329.377 -219.61)"/><path class="b" d="M399,261.42h9.16c7.545,0,8.986,2.054,8.986,11.321s-1.441,11.321-8.986,11.321h-3.611v17.392H399Zm5.549,17.98h2.89c3.768,0,4.141-.613,4.141-6.626s-.389-6.626-4.141-6.626h-2.89Z" transform="translate(-334.095 -218.735)"/><path class="b" d="M425.08,261.42h5.549v35.405h9.292v4.654H425.08Z" transform="translate(-338.576 -218.735)"/><path class="b" d="M446.18,261.42h15.09v4.663h-9.541v12.539h8.986v4.663h-8.986v13.541h9.541v4.654H446.18Z" transform="translate(-342.201 -218.735)"/><rect class="b" width="60.209" height="8.53" transform="translate(2.973 37.368)"/><path class="a" d="M363.467,257.2v.828h-3.685v1.217h3.487v.828h-3.487v2.137H358.2v-4.969Z" transform="translate(-327.085 -218.01)"/><path class="a" d="M372.251,257.05c2.6,0,4.141.87,4.141,2.609s-1.516,2.617-4.141,2.617-4.141-.878-4.141-2.617S369.675,257.05,372.251,257.05Zm0,4.414c1.54,0,2.485-.638,2.485-1.805s-.936-1.8-2.485-1.8-2.485.629-2.485,1.8.961,1.805,2.485,1.805Z" transform="translate(-328.788 -217.984)"/><path class="a" d="M382.32,257.2h4.232c1.557,0,2.725.356,2.725,1.333s-.828,1.226-1.946,1.284h0c1.607.041,1.739.555,1.814,1.474a2.046,2.046,0,0,0,.215.828h-1.7a2.12,2.12,0,0,1-.157-.787c-.066-.977-.381-1.176-1.93-1.176h-1.656v1.963h-1.582Zm1.582,2.236h2.054c.936,0,1.656-.141,1.656-.737s-.762-.687-1.6-.687h-2.128Z" transform="translate(-331.229 -218.01)"/><path class="b" d="M320.63,343.844v-.174H329.6v2.261h-.166a2.17,2.17,0,0,0-.505-1.242,1.9,1.9,0,0,0-1.549-.555h-3.594v6.741H327.1a1.657,1.657,0,0,0,1.3-.389,1.979,1.979,0,0,0,.447-1.077h.166v3.379h-.166a1.8,1.8,0,0,0-.422-1.044,1.714,1.714,0,0,0-1.325-.414h-3.313v5.433a1.656,1.656,0,0,0,.431,1.184,1.35,1.35,0,0,0,1.019.447h.215v.166h-4.82V358.4h.207a1.275,1.275,0,0,0,1-.447,1.714,1.714,0,0,0,.406-1.184V345.5a1.6,1.6,0,0,0-.439-1.309,1.516,1.516,0,0,0-.969-.348Z" transform="translate(-320.63 -232.866)"/><path class="b" d="M336.61,343.844v-.174h8.9v2.344h-.141c0-1.251-.828-1.88-2.485-1.88h-3.114V350.9h2.741a3.8,3.8,0,0,0,1.449-.265,1.284,1.284,0,0,0,.729-1.2h.157V352.8h-.157a1.789,1.789,0,0,0-.34-.878,1.375,1.375,0,0,0-.505-.414,1.217,1.217,0,0,0-.439-.1,4.58,4.58,0,0,0-.762-.058h-2.874v5.284a2.145,2.145,0,0,0,.232,1.035c.149.282.505.431,1.06.431h2.22a3.155,3.155,0,0,0,1.317-.232,2.012,2.012,0,0,0,.828-.646,4.2,4.2,0,0,0,.505-1h.108l-.522,2.336H336.61V358.4h.2a1.433,1.433,0,0,0,.952-.373,1.54,1.54,0,0,0,.455-1.251v-11.23a2.2,2.2,0,0,0-.306-1.193,1.168,1.168,0,0,0-1.085-.505Z" transform="translate(-323.376 -232.866)"/><path class="b" d="M352.737,343.877h-.207v-.207h5.176a5.218,5.218,0,0,1,2.12.381,3.536,3.536,0,0,1,1.35.977,3.967,3.967,0,0,1,.687,1.251,4.207,4.207,0,0,1,.207,1.292,3.7,3.7,0,0,1-.339,1.549,3.313,3.313,0,0,1-1.044,1.284,4.141,4.141,0,0,1-1.764.729v.041a6.178,6.178,0,0,1,2.485,2.567l1.35,2.269a7.454,7.454,0,0,0,1.466,1.938,2.261,2.261,0,0,0,1.093.447v.166H362.6l-.331-.431-.323-.439-.3-.464-.24-.348-1.781-2.94a7.852,7.852,0,0,0-1.1-1.458,4.281,4.281,0,0,0-1.052-.828,3.014,3.014,0,0,0-.878-.307,6.063,6.063,0,0,0-.919-.058v5.449a1.466,1.466,0,0,0,1.656,1.656v.166h-4.762v-.166a2.153,2.153,0,0,0,.828-.166,1.242,1.242,0,0,0,.572-.505,1.739,1.739,0,0,0,.232-.961V345.5a1.573,1.573,0,0,0-.439-1.259,1.458,1.458,0,0,0-1.027-.364Zm2.932,7.04h.828a5.383,5.383,0,0,0,2.22-.348,2.484,2.484,0,0,0,1.242-1.1,3.6,3.6,0,0,0,.389-1.739,4.314,4.314,0,0,0-.348-1.656,3.164,3.164,0,0,0-1.168-1.383,3.942,3.942,0,0,0-2.228-.563,4.144,4.144,0,0,0-.936.091Z" transform="translate(-326.111 -232.866)"/><path class="b" d="M381.856,346.661H381.7a3.387,3.387,0,0,0-1.731-2.253,6.253,6.253,0,0,0-3.2-.828,7.828,7.828,0,0,0-2,.282,6.245,6.245,0,0,0-2.079,1.052,5.606,5.606,0,0,0-1.656,2.195,8.6,8.6,0,0,0-.671,3.628,8.787,8.787,0,0,0,1.656,5.557q1.656,2.087,5.234,2.087a7.974,7.974,0,0,0,2.087-.2,1.375,1.375,0,0,0,.828-.522,1.855,1.855,0,0,0,.182-.9v-2.725a1.532,1.532,0,0,0-.422-1.284,2.551,2.551,0,0,0-1.259-.414v-.174h4.861v.174a2.543,2.543,0,0,0-1.035.282,1.093,1.093,0,0,0-.489.563,2.742,2.742,0,0,0-.124.911v4.141a17.782,17.782,0,0,1-4.6.6,14.843,14.843,0,0,1-2.427-.207,7.935,7.935,0,0,1-2.485-.9,6.816,6.816,0,0,1-2.294-2.062,7.677,7.677,0,0,1-1.491-4.638,8.017,8.017,0,0,1,2.186-5.483,7.612,7.612,0,0,1,2.592-1.781,8.646,8.646,0,0,1,3.4-.654,10,10,0,0,1,1.416.1c.455.066,1.143.191,2.054.389a4.083,4.083,0,0,0,.77.124.778.778,0,0,0,.737-.5h.157Z" transform="translate(-328.868 -232.768)"/><path class="b" d="M404.6,358.554h-3.139v-2.485l-.05-.041a4.348,4.348,0,0,1-1.938,2.2,5.64,5.64,0,0,1-2.708.7,5.517,5.517,0,0,1-2.866-.762,4.886,4.886,0,0,1-1.872-1.872,4.721,4.721,0,0,1-.538-1.656,13.676,13.676,0,0,1-.108-1.772V345.46a2.161,2.161,0,0,0-.273-1.126c-.174-.3-.6-.48-1.284-.53v-.174h4.7v.174a1.656,1.656,0,0,0-1.325.6,2.013,2.013,0,0,0-.282,1.06v7.288a8.82,8.82,0,0,0,.456,3.313,3.843,3.843,0,0,0,1.466,1.764,3.892,3.892,0,0,0,2.211.638,4.967,4.967,0,0,0,1.226-.182,4.084,4.084,0,0,0,1.325-.6,4.547,4.547,0,0,0,1.855-4.058v-8.133a2.071,2.071,0,0,0-.282-1.093c-.19-.315-.629-.505-1.333-.563v-.174h4.779v.174a1.425,1.425,0,0,0-1.333.571,2.136,2.136,0,0,0-.29,1.06v11.288a1.805,1.805,0,0,0,.19.919,1.052,1.052,0,0,0,.555.48,3.813,3.813,0,0,0,.828.232Z" transform="translate(-332.519 -232.86)"/><path class="b" d="M419.246,346.462h-.166a3.222,3.222,0,0,0-.944-1.9,3.155,3.155,0,0,0-3.661-.406,2.816,2.816,0,0,0-1.035,1.1,3.446,3.446,0,0,0-.364,1.6,3.313,3.313,0,0,0,.215,1.234,2.891,2.891,0,0,0,.646.961,6.221,6.221,0,0,0,1.01.77c.381.24.9.538,1.557.9a11.835,11.835,0,0,1,2.559,1.8,3.313,3.313,0,0,1,.911,2.485,3.777,3.777,0,0,1-.489,1.839A3.868,3.868,0,0,1,418,358.3a4.969,4.969,0,0,1-2.485.563,6.137,6.137,0,0,1-1.656-.2,8.365,8.365,0,0,1-1.441-.547,1.656,1.656,0,0,0-.414-.1.281.281,0,0,0-.282.149,5.184,5.184,0,0,0-.174.654h-.174v-3.727h.174a4.191,4.191,0,0,0,1.424,2.485,3.967,3.967,0,0,0,2.567.828,3.42,3.42,0,0,0,1.814-.422,2.3,2.3,0,0,0,.952-1.027,3.073,3.073,0,0,0,.265-1.217,2.816,2.816,0,0,0-.77-2.046,9.251,9.251,0,0,0-2.327-1.656c-.712-.389-1.242-.7-1.59-.911a6.543,6.543,0,0,1-1.052-.828,3.917,3.917,0,0,1-.828-1.217,3.851,3.851,0,0,1-.315-1.615,3.926,3.926,0,0,1,.555-2.013,4.224,4.224,0,0,1,1.582-1.54,4.621,4.621,0,0,1,2.327-.58,6.566,6.566,0,0,1,2.021.331,1.019,1.019,0,0,0,.431.083c.224,0,.381-.157.455-.456h.166Z" transform="translate(-336.22 -232.801)"/><path class="b" d="M441.724,351.048a7.636,7.636,0,0,1-1.035,3.892,7.893,7.893,0,0,1-2.832,2.865,7.652,7.652,0,0,1-3.984,1.068,7.805,7.805,0,0,1-5.574-13.45,8.05,8.05,0,0,1,2.559-1.656,7.942,7.942,0,0,1,8.472,1.6,7.62,7.62,0,0,1,1.756,2.485,7.785,7.785,0,0,1,.638,3.2Zm-1.781.041a8.787,8.787,0,0,0-1.052-4.654,5.408,5.408,0,0,0-2.443-2.253,6.916,6.916,0,0,0-2.592-.563,6.707,6.707,0,0,0-1.963.306,5.565,5.565,0,0,0-1.971,1.126,5.963,5.963,0,0,0-1.574,2.3,9.566,9.566,0,0,0-.621,3.669,9.782,9.782,0,0,0,.513,3.354,6.269,6.269,0,0,0,1.408,2.336,5.375,5.375,0,0,0,1.979,1.3,6.261,6.261,0,0,0,2.244.406,6.469,6.469,0,0,0,2.12-.373,5.44,5.44,0,0,0,1.955-1.2,5.888,5.888,0,0,0,1.441-2.269,9.591,9.591,0,0,0,.555-3.487Z" transform="translate(-338.722 -232.782)"/><path class="b" d="M463.721,343.668v.174a3.072,3.072,0,0,0-.894.215,1.035,1.035,0,0,0-.513.571,3.314,3.314,0,0,0-.182,1.242v13.061H462L450.52,346.178v9.151a12.03,12.03,0,0,0,.091,1.706,2.045,2.045,0,0,0,.265.828,1.59,1.59,0,0,0,1.309.563v.166h-3.743v-.166a1.855,1.855,0,0,0,.977-.265,1.383,1.383,0,0,0,.5-.87,8.945,8.945,0,0,0,.149-1.9v-9.748l-.5-.555a4.139,4.139,0,0,0-1.052-.944,3.553,3.553,0,0,0-.986-.3v-.174H450.4l11.3,12.613v-9.615a11.084,11.084,0,0,0-.083-1.656,1.4,1.4,0,0,0-.464-.828,1.805,1.805,0,0,0-1.159-.348v-.174Z" transform="translate(-342.433 -232.865)"/><path class="b" d="M328.423,323.8h-.157a3.255,3.255,0,0,0-.919-1.9,2.716,2.716,0,0,0-2.062-.828,2.687,2.687,0,0,0-2.493,1.5,3.462,3.462,0,0,0-.356,1.6,3.4,3.4,0,0,0,.215,1.242,2.791,2.791,0,0,0,.621.952,5.848,5.848,0,0,0,.977.779c.373.232.878.538,1.516.9a10.831,10.831,0,0,1,2.485,1.8,3.313,3.313,0,0,1,.886,2.485,3.751,3.751,0,0,1-.48,1.83,3.669,3.669,0,0,1-1.441,1.449,4.638,4.638,0,0,1-2.393.571,5.7,5.7,0,0,1-1.582-.2,7.8,7.8,0,0,1-1.4-.555,1.58,1.58,0,0,0-.406-.1.265.265,0,0,0-.273.149,5.459,5.459,0,0,0-.174.663h-.166V332.4h.166a4.215,4.215,0,0,0,1.383,2.485,3.785,3.785,0,0,0,2.485.828,3.164,3.164,0,0,0,1.764-.431,2.212,2.212,0,0,0,.919-1.027,3.065,3.065,0,0,0,.257-1.217,2.874,2.874,0,0,0-.737-2.046,9.177,9.177,0,0,0-2.261-1.656c-.7-.389-1.217-.7-1.549-.911a5.665,5.665,0,0,1-1.019-.828,3.818,3.818,0,0,1-.828-1.217,4.141,4.141,0,0,1,1.781-5.168,4.348,4.348,0,0,1,2.253-.58,6.178,6.178,0,0,1,1.963.331.828.828,0,0,0,.422.083c.215,0,.364-.149.439-.456h.166Z" transform="translate(-320.663 -228.901)"/><path class="b" d="M338.162,320.78l4.348,12.762a6.327,6.327,0,0,0,.646,1.433,1.466,1.466,0,0,0,.588.563,2.526,2.526,0,0,0,.712.157v.174h-4.737v-.157a3.586,3.586,0,0,0,1.126-.141c.257-.1.389-.356.389-.77a3.113,3.113,0,0,0-.182-.919.265.265,0,0,1-.041-.124l-1.292-3.95h-5.027l-1.151,3.661a4.206,4.206,0,0,0-.232,1.2.944.944,0,0,0,.306.828,1.491,1.491,0,0,0,.828.207v.166h-3.4v-.157a1.756,1.756,0,0,0,1.168-.571,4.33,4.33,0,0,0,.762-1.524l4.1-12.82Zm-3.313,8.472h4.613l-2.36-7.064h-.041Z" transform="translate(-322.419 -228.934)"/><path class="b" d="M352.8,321v.174a1.657,1.657,0,0,0-1.1.373,1.532,1.532,0,0,0-.447,1.242v11.3a1.515,1.515,0,0,0,.48,1.251,1.657,1.657,0,0,0,1.068.389v.174h-4.6v-.157a1.607,1.607,0,0,0,1.085-.381,1.54,1.54,0,0,0,.464-1.259V322.789a1.507,1.507,0,0,0-.464-1.275,1.764,1.764,0,0,0-1.085-.34V321Z" transform="translate(-325.367 -228.972)"/><path class="b" d="M371.151,321v.174a3.146,3.146,0,0,0-.878.215,1.068,1.068,0,0,0-.5.58,3.394,3.394,0,0,0-.174,1.234v13.061h-.1L358.4,323.485v9.16a12.181,12.181,0,0,0,.083,1.7,2.162,2.162,0,0,0,.257.828,1.524,1.524,0,0,0,1.275.571v.166h-3.636v-.157a1.805,1.805,0,0,0,.952-.273,1.408,1.408,0,0,0,.48-.828,9.763,9.763,0,0,0,.141-1.913v-9.764l-.48-.555a4.14,4.14,0,0,0-1.027-.944,3.312,3.312,0,0,0-.952-.3V321h2.725l10.949,12.622v-9.615a11.287,11.287,0,0,0-.083-1.656,1.359,1.359,0,0,0-.439-.828,1.756,1.756,0,0,0-1.126-.356V321Z" transform="translate(-326.619 -228.972)"/><path class="b" d="M387.147,323.751h-.157a2.253,2.253,0,0,0-.828-1.888,3.388,3.388,0,0,0-1.772-.431h-2.874v12.506a1.449,1.449,0,0,0,1.574,1.656v.157h-4.638v-.157a1.764,1.764,0,0,0,1.1-.389,1.54,1.54,0,0,0,.447-1.251V321.448h-2.882a3.362,3.362,0,0,0-1.772.431,2.278,2.278,0,0,0-.828,1.888h-.157v-3.644h.157a1.732,1.732,0,0,0,.273.373,1.051,1.051,0,0,0,.306.207,1.657,1.657,0,0,0,.439.124,4.142,4.142,0,0,0,.6,0h9.4a1.656,1.656,0,0,0,1.458-.737h.157Z" transform="translate(-329.861 -228.815)"/><path class="b" d="M398.75,335.734h.207a1.259,1.259,0,0,0,.944-.431,1.656,1.656,0,0,0,.406-1.209V322.855a1.582,1.582,0,0,0-.455-1.3,1.839,1.839,0,0,0-1.093-.381V321H403.4v.174a1.905,1.905,0,0,0-1.085.373,1.549,1.549,0,0,0-.472,1.309v10.866a1.656,1.656,0,0,0,.472,1.342,2.484,2.484,0,0,0,1.54.373h1.259a3.511,3.511,0,0,0,1.3-.2,1.731,1.731,0,0,0,.778-.613,6.737,6.737,0,0,0,.58-1.176h.166l-.555,2.485H398.75Z" transform="translate(-334.052 -228.972)"/><path class="b" d="M424.948,328.369a7.843,7.843,0,0,1-1.01,3.893,7.694,7.694,0,0,1-2.758,2.866,7.222,7.222,0,0,1-3.859,1.068,7.453,7.453,0,0,1-3.9-1.068,7.685,7.685,0,0,1-2.791-2.874,8.141,8.141,0,0,1-.414-7.023,7.6,7.6,0,0,1,1.7-2.485,7.784,7.784,0,0,1,2.485-1.656,7.528,7.528,0,0,1,5.8,0,7.728,7.728,0,0,1,2.485,1.615,7.828,7.828,0,0,1,1.706,2.485,8.091,8.091,0,0,1,.563,3.18Zm-1.731.041a9,9,0,0,0-1.027-4.654,5.333,5.333,0,0,0-2.369-2.244,5.93,5.93,0,0,0-4.423-.265,5.358,5.358,0,0,0-1.913,1.126,5.964,5.964,0,0,0-1.532,2.311,9.856,9.856,0,0,0-.6,3.669,10.2,10.2,0,0,0,.5,3.313A6.262,6.262,0,0,0,413.221,334a5.2,5.2,0,0,0,1.921,1.309,6,6,0,0,0,4.232,0,5.208,5.208,0,0,0,1.9-1.2,6.055,6.055,0,0,0,1.4-2.261,10.03,10.03,0,0,0,.505-3.429Z" transform="translate(-335.918 -228.887)"/><path class="b" d="M443.4,335.907h-3.039v-2.485h-.05a4.339,4.339,0,0,1-1.888,2.2,5.35,5.35,0,0,1-2.625.7,5.2,5.2,0,0,1-2.783-.762A4.836,4.836,0,0,1,431.2,333.7a4.968,4.968,0,0,1-.522-1.656,15.331,15.331,0,0,1-.108-1.772v-7.454a2.186,2.186,0,0,0-.257-1.118c-.174-.306-.588-.48-1.251-.538V321h4.563v.174a1.656,1.656,0,0,0-1.284.6,2.087,2.087,0,0,0-.273,1.06v7.28a8.993,8.993,0,0,0,.447,3.313,3.917,3.917,0,0,0,1.416,1.772,3.777,3.777,0,0,0,2.145.638,4.967,4.967,0,0,0,1.193-.182,3.859,3.859,0,0,0,1.292-.613,4.6,4.6,0,0,0,1.806-4.05v-8.141a2.112,2.112,0,0,0-.282-1.093c-.182-.315-.613-.505-1.3-.563V321h4.646v.174a1.353,1.353,0,0,0-1.292.58,2.195,2.195,0,0,0-.29,1.06v11.28a1.938,1.938,0,0,0,.19.928,1.118,1.118,0,0,0,.538.48,4.845,4.845,0,0,0,.828.232Z" transform="translate(-339.259 -228.972)"/><path class="b" d="M453.946,321v.174a1.656,1.656,0,0,0-1.1.373,1.541,1.541,0,0,0-.456,1.242v11.3a1.524,1.524,0,0,0,.489,1.251,1.656,1.656,0,0,0,1.068.389v.174h-4.6v-.157a1.656,1.656,0,0,0,1.085-.381,1.54,1.54,0,0,0,.464-1.259V322.789a1.507,1.507,0,0,0-.464-1.275,1.781,1.781,0,0,0-1.085-.34V321Z" transform="translate(-342.745 -228.972)"/><path class="b" d="M464.833,323.8h-.157a3.255,3.255,0,0,0-.919-1.9,2.716,2.716,0,0,0-2.062-.828,2.783,2.783,0,0,0-1.491.4,2.742,2.742,0,0,0-1,1.1,3.462,3.462,0,0,0-.356,1.6,3.4,3.4,0,0,0,.207,1.242,2.939,2.939,0,0,0,.629.952,5.53,5.53,0,0,0,.977.779c.373.232.878.538,1.516.9a11.212,11.212,0,0,1,2.485,1.8,3.313,3.313,0,0,1,.886,2.485,3.785,3.785,0,0,1-1.921,3.313,4.638,4.638,0,0,1-2.393.571,5.8,5.8,0,0,1-1.59-.2,8.047,8.047,0,0,1-1.4-.555,1.541,1.541,0,0,0-.4-.1.265.265,0,0,0-.273.149,5.457,5.457,0,0,0-.174.663h-.166V332.44h.166a4.215,4.215,0,0,0,1.383,2.485,3.768,3.768,0,0,0,2.485.828,3.18,3.18,0,0,0,1.764-.431,2.211,2.211,0,0,0,.919-1.027,3.065,3.065,0,0,0,.257-1.217,2.882,2.882,0,0,0-.745-2.046,9.019,9.019,0,0,0-2.261-1.656c-.7-.389-1.209-.7-1.54-.911a5.666,5.666,0,0,1-1.019-.828,3.818,3.818,0,0,1-.828-1.217,4.141,4.141,0,0,1,1.772-5.168,4.373,4.373,0,0,1,2.261-.58A6.1,6.1,0,0,1,463.8,321a.9.9,0,0,0,.431.083c.215,0,.356-.149.439-.456h.157Z" transform="translate(-344.099 -228.908)"/></g></g></svg>