<svg xmlns="http://www.w3.org/2000/svg" height="38.911" viewBox="0 0 38.91 38.911" width="38.91"><path d="m20.1.64a19.455 19.455 0 1 0 19.451 19.46 19.456 19.456 0 0 0 -19.451-19.46zm7.91 15.937c.008.166.01.332.01.494a10.895 10.895 0 0 1 -16.774 9.183 7.488 7.488 0 0 0 .915.051 7.679 7.679 0 0 0 4.759-1.639 3.842 3.842 0 0 1 -3.58-2.659 3.948 3.948 0 0 0 .719.067 3.845 3.845 0 0 0 1.01-.134 3.835 3.835 0 0 1 -3.074-3.757v-.047a3.835 3.835 0 0 0 1.737.48 3.84 3.84 0 0 1 -1.186-5.12 10.9 10.9 0 0 0 7.9 4.006 3.761 3.761 0 0 1 -.1-.875 3.833 3.833 0 0 1 6.63-2.621 7.709 7.709 0 0 0 2.432-.93 3.848 3.848 0 0 1 -1.687 2.124 7.722 7.722 0 0 0 2.2-.605 7.756 7.756 0 0 1 -1.911 1.984z" fill="#fff" transform="translate(-.641 -.64)"/></svg>