<svg xmlns="http://www.w3.org/2000/svg" width="685.529" height="109.019" viewBox="0 0 685.529 109.019"><defs><style>.a{fill:#333e48;}</style></defs><g transform="translate(0 0.057)"><g transform="translate(281.346 -0.057)"><path class="a" d="M281.639-776.774a3.3,3.3,0,0,1,2.321.58,2.6,2.6,0,0,1,.58,2.031v27.705a3.981,3.981,0,0,0,.29,1.886.979.979,0,0,0,.87.58.971.971,0,0,0,1.015-.58,8.482,8.482,0,0,0,.58-2.756,7.281,7.281,0,0,1,.29-1.741c.145-.29.435-.29.725-.29h1.451a.964.964,0,0,1,.725.58,4.83,4.83,0,0,1,.145,2.031c0,4.5-1.16,7.978-3.626,10.444s-5.947,3.626-10.444,3.626c-4.352,0-7.688-1.306-10.154-3.771-2.321-2.466-3.481-5.947-3.481-10.589v-19.437a7.855,7.855,0,0,0-.87-4.5,6.86,6.86,0,0,0-3.191-2.9,1.449,1.449,0,0,1-.725-.58c-.145-.145-.145-.29-.145-.58v-1.015c0-.58.29-.87,1.015-.87Zm6.237-37.859c-.87-2.756-4.062-4.932-7.688-4.932a9.121,9.121,0,0,0-6.673,2.9c-7.108-9.864-19.147-3.626-18.712,6.963a11.2,11.2,0,0,0,2.466,6.382h0c0,.145.145.145.145.29h0l.29.29v.145l.145.145.145.145.145.145.145.145.145.145.145.145.145.145.145.145.145.145.145.145.29.29a64.773,64.773,0,0,0,6.237,4.787l.145.145.435.29.29.29.29.145.435.29h.145c.145.145.435.29.58.435a24.86,24.86,0,0,1,6.527,6.382c1.741-6.672,13.78-13.2,14.07-23.209A8.607,8.607,0,0,0,287.876-814.633Z" transform="translate(-254.792 821.608)"/></g><g transform="translate(0 27.441)"><path class="a" d="M26.4,21.8a3,3,0,0,1,2.176.725,3.2,3.2,0,0,1,.58,2.321V73c0,1.6.58,2.321,1.6,2.321s1.6-.725,1.6-2.321V24.846a3.429,3.429,0,0,1,.58-2.321A3,3,0,0,1,35.1,21.8H53.815a3.011,3.011,0,0,1,2.176.58,2.869,2.869,0,0,1,.725,2.031V54.872c0,8.123-2.176,14.215-6.527,18.422S39.31,79.532,30.752,79.532,15.811,77.5,11.314,73.294C6.963,69.088,4.642,63,4.642,54.872V31.519a13.2,13.2,0,0,0-.29-3.046,4.592,4.592,0,0,0-1.16-1.741,21.1,21.1,0,0,0-2.9-2.176,2.062,2.062,0,0,1-.29-.87V22.67c0-.58.29-.87,1.015-.87Z" transform="translate(0 -17.593)"/><path class="a" d="M55.06,31.315a12.656,12.656,0,0,1,6.673,1.451,7.618,7.618,0,0,1,3.336,4.5A12.257,12.257,0,0,1,76.529,30.3a13.291,13.291,0,0,1,11.6,6.092c2.756,4.062,4.207,9.574,4.207,16.826,0,6.963-1.451,12.475-4.207,16.391s-6.818,5.8-11.894,5.8c-4.207,0-7.543-1.16-9.864-3.481V89.482a2.624,2.624,0,0,1-.58,2.031,3.011,3.011,0,0,1-2.176.58H48.388c-1.015,0-1.886-.145-2.176-.58a2.836,2.836,0,0,1-.58-2.031V41.759a9.125,9.125,0,0,0-.87-4.5,7.9,7.9,0,0,0-3.191-2.9,3.969,3.969,0,0,1-.725-.58c-.145-.145-.145-.29-.145-.58V32.186c0-.58.29-.87,1.015-.87ZM69.566,42.34c0-1.305-.58-2.031-1.6-2.031a1.785,1.785,0,0,0-1.451.725v26.11a1.785,1.785,0,0,0,1.451.725c1.015,0,1.6-.725,1.6-2.031Z" transform="translate(18.337 -13.764)"/><path class="a" d="M96.677,43.355a12.944,12.944,0,0,0,1.741,6.527,12.642,12.642,0,0,0,4.787,4.787,13.867,13.867,0,0,0,6.963,1.886,15.727,15.727,0,0,0,6.092-1.16,15.377,15.377,0,0,0,5.222-3.916c.29-.29.58-.58.725-.58.145-.145.29-.145.58-.145h1.16q.87,0,.87,1.741a24.154,24.154,0,0,1-2.9,11.6,20.616,20.616,0,0,1-8.268,8.268,24.5,24.5,0,0,1-12.185,3.046,24.227,24.227,0,0,1-11.749-2.756,21.47,21.47,0,0,1-8.268-7.833A22.152,22.152,0,0,1,78.4,53.074a22.358,22.358,0,0,1,3.046-11.6,21.43,21.43,0,0,1,8.7-8.123,27.7,27.7,0,0,1,13.2-3.046,28.176,28.176,0,0,1,9.574,1.6,15.976,15.976,0,0,1,6.672,4.5,10.253,10.253,0,0,1,2.466,6.673,10.077,10.077,0,0,1-3.191,7.688A11.641,11.641,0,0,1,110.6,53.8a11.179,11.179,0,0,1-7.978-3.046,9.982,9.982,0,0,1-3.191-7.543,6.634,6.634,0,0,1,2.321-5.367,8.235,8.235,0,0,1,5.8-2.176,2.062,2.062,0,0,0,.29-.87c0-.725-.58-1.16-1.741-1.16a8.5,8.5,0,0,0-6.382,2.9A8.827,8.827,0,0,0,96.677,43.355Z" transform="translate(35.323 -13.764)"/><path class="a" d="M136.369,75.357c-7.978,0-14.07-1.886-18.132-5.8C114.031,65.784,112,60.126,112,52.729s2.031-12.91,6.237-16.826c4.207-3.771,10.154-5.8,18.132-5.8s14.07,1.886,18.132,5.8c4.207,3.771,6.237,9.429,6.237,16.826s-2.031,12.91-6.237,16.826C150.44,73.471,144.347,75.357,136.369,75.357Zm0-3.916c1.015,0,1.6-.725,1.6-2.321V36.482c0-1.6-.58-2.321-1.6-2.321s-1.6.725-1.6,2.321V69.12C134.919,70.715,135.354,71.441,136.369,71.441Z" transform="translate(50.461 -13.854)"/><path class="a" d="M159.165,31.315a13,13,0,0,1,6.673,1.451,8.3,8.3,0,0,1,3.481,4.642,12.924,12.924,0,0,1,5.222-5.222,13.89,13.89,0,0,1,7.253-1.886,12.359,12.359,0,0,1,6.673,1.741,11.234,11.234,0,0,1,4.207,5.077,11.9,11.9,0,0,1,5.077-4.932A15.3,15.3,0,0,1,205,30.445c3.916,0,6.963,1.16,8.993,3.626q3.046,3.481,3.046,10.444V71.931a2.624,2.624,0,0,1-.58,2.031,3.011,3.011,0,0,1-2.176.58h-14.36c-1.015,0-1.886-.145-2.176-.58a2.836,2.836,0,0,1-.58-2.031V42.485a2.924,2.924,0,0,0-.435-1.6,1.319,1.319,0,0,0-1.16-.58,1.6,1.6,0,0,0-1.451.725V71.641a2.624,2.624,0,0,1-.58,2.031,3.011,3.011,0,0,1-2.176.58h-14.36c-1.015,0-1.886-.145-2.176-.58a2.836,2.836,0,0,1-.58-2.031V42.485a2.924,2.924,0,0,0-.435-1.6,1.319,1.319,0,0,0-1.16-.58,1.6,1.6,0,0,0-1.451.725V71.641a2.625,2.625,0,0,1-.58,2.031,3.011,3.011,0,0,1-2.176.58h-14.36c-1.015,0-1.886-.145-2.176-.58a2.836,2.836,0,0,1-.58-2.031V41.759a9.125,9.125,0,0,0-.87-4.5,7.9,7.9,0,0,0-3.191-2.9,3.966,3.966,0,0,1-.725-.58c-.145-.145-.145-.29-.145-.58V32.186c0-.58.29-.87,1.015-.87Z" transform="translate(65.96 -13.764)"/><path class="a" d="M232.27,31.315a13,13,0,0,1,6.672,1.451,8.3,8.3,0,0,1,3.481,4.642,12.924,12.924,0,0,1,5.222-5.222,16.136,16.136,0,0,1,7.543-1.886c4.062,0,7.108,1.16,9.283,3.626s3.191,5.8,3.191,10.3V71.641a2.625,2.625,0,0,1-.58,2.031,3.011,3.011,0,0,1-2.176.58H249.677c-1.015,0-1.886-.145-2.176-.58a2.836,2.836,0,0,1-.58-2.031V42.485a2.924,2.924,0,0,0-.435-1.6,1.319,1.319,0,0,0-1.16-.58,1.6,1.6,0,0,0-1.451.725V71.641a2.625,2.625,0,0,1-.58,2.031,3.011,3.011,0,0,1-2.176.58H225.888c-1.015,0-1.886-.145-2.176-.58a2.836,2.836,0,0,1-.58-2.031V41.759a9.125,9.125,0,0,0-.87-4.5,7.9,7.9,0,0,0-3.191-2.9,3.966,3.966,0,0,1-.725-.58c-.145-.145-.145-.29-.145-.58V32.186c0-.58.29-.87,1.015-.87Z" transform="translate(98.31 -13.764)"/><path class="a" d="M285.146,29.2a4.967,4.967,0,0,1,1.741-3.916,6.421,6.421,0,0,1,4.352-1.6,5.713,5.713,0,0,1,2.9.725,1.317,1.317,0,0,0,.435-1.015c0-.58-.29-.87-1.015-1.16A7.312,7.312,0,0,0,290.8,21.8a8.235,8.235,0,0,0-5.8,2.176,7.134,7.134,0,0,0-2.321,5.512,8.154,8.154,0,0,0,1.6,4.642,12.076,12.076,0,0,0,4.642,3.626q6.745,3.264,9.574,6.963a14.776,14.776,0,0,1,2.9,9.284,17.281,17.281,0,0,1-2.756,9.719,18.172,18.172,0,0,1-7.978,6.673,28.3,28.3,0,0,1-12.04,2.466,26.616,26.616,0,0,1-14.505-3.771,2.014,2.014,0,0,0-.725,1.451c0,.725.725,1.6,2.031,2.321a24.035,24.035,0,0,0,5.512,1.886,41.953,41.953,0,0,0,7.688.725A44.136,44.136,0,0,0,285,75.036a37.945,37.945,0,0,1,5.367-.435c3.771,0,6.673.87,8.7,2.756,2.176,1.886,3.191,4.5,3.191,7.833a12.271,12.271,0,0,1-2.9,7.978c-1.886,2.321-4.787,4.062-8.413,5.367a38.452,38.452,0,0,1-12.91,1.886c-5.947,0-10.879-.87-14.505-2.466s-5.512-3.771-5.512-6.237a5.874,5.874,0,0,1,1.6-3.916,12.678,12.678,0,0,1-3.916-9.719,12.766,12.766,0,0,1,1.451-6.237,13.247,13.247,0,0,1,4.207-4.787A16.425,16.425,0,0,1,255.7,54.293a16.215,16.215,0,0,1,2.756-9.284,18.311,18.311,0,0,1,7.688-6.673,25.924,25.924,0,0,1,11.314-2.466h1.6c.58,0,1.015.145,1.6.145a10.883,10.883,0,0,1-1.16-2.611,15.745,15.745,0,0,1-.58-3.626,9.624,9.624,0,0,1,3.626-7.833,13.245,13.245,0,0,1,8.993-3.046,13.644,13.644,0,0,1,8.268,2.466,7.975,7.975,0,0,1,3.191,6.527,7.3,7.3,0,0,1-2.611,5.8,9.983,9.983,0,0,1-6.673,2.176,9.27,9.27,0,0,1-6.092-1.886A6.5,6.5,0,0,1,285.146,29.2Zm3.771,62.083a29.333,29.333,0,0,1-11.459,2.176,27.324,27.324,0,0,1-14.505-3.771,1.785,1.785,0,0,0-.725,1.451c0,1.305,1.6,2.321,4.642,3.336A34.955,34.955,0,0,0,277.6,95.924a36.167,36.167,0,0,0,8.268-.87c2.321-.58,3.626-1.451,3.626-2.611A1.791,1.791,0,0,0,288.918,91.282Zm-10.3-22.919c1.015,0,1.6-.725,1.6-2.321V41.529c0-1.6-.58-2.321-1.6-2.321s-1.6.725-1.6,2.321V66.043C277.168,67.638,277.6,68.364,278.619,68.364Z" transform="translate(115.205 -18.9)"/><path class="a" d="M351.734,21.8a3,3,0,0,1,2.176.725,3.2,3.2,0,0,1,.58,2.321V34.855c0,3.626-.725,6.237-2.321,7.978s-3.916,2.611-6.963,2.611H334.763a3.406,3.406,0,0,1-2.321-.725,3.151,3.151,0,0,1-.725-2.321V27.747c0-1.305-.435-1.886-1.451-1.886a2.078,2.078,0,0,0-1.6.725V47.91h16.1c.725,0,1.015.29,1.015.87v2.176c0,.58-.29.87-1.015.87h-16.1V73.149a1.872,1.872,0,0,0,1.6.725c1.015,0,1.451-.58,1.451-1.886V57.483a3.406,3.406,0,0,1,.725-2.321,3.152,3.152,0,0,1,2.321-.725h10.444q4.787,0,6.963,2.611c1.6,1.741,2.321,4.352,2.321,7.978V75.035a3.429,3.429,0,0,1-.58,2.321,3,3,0,0,1-2.176.725H308.943a3,3,0,0,1-2.176-.725,3.2,3.2,0,0,1-.58-2.321V31.519a13.2,13.2,0,0,0-.29-3.046,4.592,4.592,0,0,0-1.16-1.741,21.1,21.1,0,0,0-2.9-2.176.8.8,0,0,1-.435-.725V22.815c0-.58.29-.87,1.015-.87h49.319Z" transform="translate(135.795 -17.593)"/><path class="a" d="M345.132,38.4a5.311,5.311,0,0,0-1.451-2.321,14.9,14.9,0,0,0-2.611-2.031,1.36,1.36,0,0,1-.87-1.16V31.87c0-.58.29-.87,1.015-.87h13.2a31.462,31.462,0,0,1,8.558.87,7.98,7.98,0,0,1,4.352,3.046,27.792,27.792,0,0,1,3.046,6.527l8.123,24.514a1.317,1.317,0,0,0,1.015.435c.87,0,1.305-.435,1.305-1.451a10.985,10.985,0,0,0-.725-2.756L372.4,38.833a24.229,24.229,0,0,0-1.015-2.756,15.823,15.823,0,0,0-.87-1.6c-.58-.58-.87-1.015-1.015-1.16a1.087,1.087,0,0,1-.145-.725V31.87c0-.58.29-.87,1.015-.87h23.934q3.046,0,3.046,2.176c0,2.466-3.771,13.055-11.169,31.767-1.305,3.046-2.176,5.222-3.046,6.237a4.644,4.644,0,0,1-2.611,2.176,10.367,10.367,0,0,1-4.207.58H363.554a7.65,7.65,0,0,1-4.5-1.015,6.554,6.554,0,0,1-2.466-3.481Z" transform="translate(153.277 -13.448)"/><path class="a" d="M399.537,54.624c0,1.305,1.16,2.466,3.336,3.626a15.412,15.412,0,0,0,7.4,1.6,17.388,17.388,0,0,0,13.2-5.367c.29-.29.58-.58.725-.58.145-.145.29-.145.58-.145h1.015a.877.877,0,0,1,.87.435,4.082,4.082,0,0,1,.145,1.6,18.115,18.115,0,0,1-2.9,9.719,21.114,21.114,0,0,1-7.978,7.108,25.818,25.818,0,0,1-11.6,2.756,26.162,26.162,0,0,1-12.33-2.756,21.952,21.952,0,0,1-8.7-7.978A21.657,21.657,0,0,1,380.1,52.883a21.992,21.992,0,0,1,3.046-11.6,21.107,21.107,0,0,1,8.7-7.978,29.026,29.026,0,0,1,13.2-2.9A27.587,27.587,0,0,1,415.2,32.141a16.317,16.317,0,0,1,7.108,5.077,12.622,12.622,0,0,1-1.306,16.826A13.941,13.941,0,0,1,411,57.67a12.6,12.6,0,0,1-9.864-4.062,1.254,1.254,0,0,0-.87.435C399.682,53.9,399.537,54.334,399.537,54.624Zm2.611-5.8a1.524,1.524,0,0,0,1.305.725c1.015,0,1.6-.58,1.6-1.741V35.767c0-1.16-.58-1.741-1.6-1.741a1.524,1.524,0,0,0-1.305.725Z" transform="translate(171.254 -13.719)"/><path class="a" d="M426.27,31.315a13,13,0,0,1,6.672,1.451,8.3,8.3,0,0,1,3.481,4.642,12.924,12.924,0,0,1,5.222-5.222,16.136,16.136,0,0,1,7.543-1.886c4.062,0,7.108,1.16,9.284,3.626s3.191,5.8,3.191,10.3V71.641a2.625,2.625,0,0,1-.58,2.031,3.011,3.011,0,0,1-2.176.58H443.677c-1.015,0-1.886-.145-2.176-.58a2.836,2.836,0,0,1-.58-2.031V42.485a2.924,2.924,0,0,0-.435-1.6,1.319,1.319,0,0,0-1.16-.58,1.6,1.6,0,0,0-1.451.725V71.641a2.624,2.624,0,0,1-.58,2.031,3.011,3.011,0,0,1-2.176.58H419.888c-1.015,0-1.886-.145-2.176-.58a2.836,2.836,0,0,1-.58-2.031V41.759a9.125,9.125,0,0,0-.87-4.5,7.9,7.9,0,0,0-3.191-2.9,3.971,3.971,0,0,1-.725-.58c-.145-.145-.145-.29-.145-.58V32.186c0-.58.29-.87,1.015-.87Z" transform="translate(185.716 -13.764)"/><path class="a" d="M459.385,25.556A5.066,5.066,0,0,1,460.4,23.38a3.011,3.011,0,0,1,2.176-.58h9.284c1.015,0,1.886.145,2.176.58a2.836,2.836,0,0,1,.58,2.031v9.284h8.413c.725,0,1.015.29,1.015.87v1.6c0,.58-.29.87-1.015.87h-8.413V64.576a4.329,4.329,0,0,0,.435,2.321c.29.435.87.58,1.741.58a1.6,1.6,0,0,0,1.45-.725,8.767,8.767,0,0,0,.87-2.611,7.237,7.237,0,0,1,.435-1.741c.145-.29.435-.29.725-.29h1.305a.74.74,0,0,1,.725.58,7.141,7.141,0,0,1,.145,2.031c0,4.5-1.306,7.978-3.771,10.444s-5.947,3.626-10.589,3.626c-4.787,0-8.413-1.306-11.024-3.916S453.147,68.637,453.147,64V37.886h-4.932c-.725,0-1.015-.29-1.015-.87v-1.6c0-.58.29-.87,1.015-.87h.29a18.165,18.165,0,0,0,5.8-.725,6.351,6.351,0,0,0,2.9-2.611A15.258,15.258,0,0,0,459.385,25.556Z" transform="translate(201.485 -17.143)"/></g></g></svg>