<?xml version="1.0" encoding="UTF-8" standalone="no"?>
<svg
   width="340.39"
   height="344.389"
   viewBox="0 0 340.39 344.389"
   version="1.1"
   id="svg64"
   sodipodi:docname="AliAcademy.svg"
   xml:space="preserve"
   inkscape:version="1.2.1 (9c6d41e410, 2022-07-14)"
   xmlns:inkscape="http://www.inkscape.org/namespaces/inkscape"
   xmlns:sodipodi="http://sodipodi.sourceforge.net/DTD/sodipodi-0.dtd"
   xmlns="http://www.w3.org/2000/svg"
   xmlns:svg="http://www.w3.org/2000/svg"><sodipodi:namedview
     id="namedview66"
     pagecolor="#ffffff"
     bordercolor="#666666"
     borderopacity="1.0"
     inkscape:showpageshadow="2"
     inkscape:pageopacity="0.0"
     inkscape:pagecheckerboard="0"
     inkscape:deskcolor="#d1d1d1"
     showgrid="false"
     inkscape:zoom="2.9820929"
     inkscape:cx="160.12244"
     inkscape:cy="163.47579"
     inkscape:window-width="2560"
     inkscape:window-height="1369"
     inkscape:window-x="-8"
     inkscape:window-y="-8"
     inkscape:window-maximized="1"
     inkscape:current-layer="svg64" /><defs
     id="defs17"><filter
       id="Subtraction_14"
       x="0"
       y="0"
       width="335.889"
       height="335.889"
       filterUnits="userSpaceOnUse"><feOffset
         dx="-4"
         dy="-6"
         input="SourceAlpha"
         id="feOffset2" /><feGaussianBlur
         stdDeviation="7"
         result="blur"
         id="feGaussianBlur4" /><feFlood
         flood-color="#333e48"
         flood-opacity="0.353"
         id="feFlood6" /><feComposite
         operator="in"
         in2="blur"
         id="feComposite8"
         result="result1" /><feComposite
         in="SourceGraphic"
         in2="result1"
         id="feComposite10" /></filter><clipPath
       id="clip-path"><circle
         id="Ellipse_17"
         data-name="Ellipse 17"
         cx="96"
         cy="96"
         r="96"
         transform="translate(1552 668)"
         fill="#62a0a5" /></clipPath><clipPath
       id="clip-path-2"><rect
         id="Rectangle_478"
         data-name="Rectangle 478"
         width="141.75"
         height="129.36"
         fill="none" /></clipPath></defs><g
     id="Group_2208"
     data-name="Group 2208"
     transform="translate(-985.869 -614.787)"><circle
       id="Ellipse_31"
       data-name="Ellipse 31"
       cx="121.338"
       cy="121.338"
       r="121.338"
       transform="translate(1036.193 671.552)"
       fill="#fff" /><g
       transform="matrix(1, 0, 0, 1, 985.87, 614.79)"
       filter="url(#Subtraction_14)"
       id="g21"><path
         id="Subtraction_14-2"
         data-name="Subtraction 14"
         d="M-4061.055,293.889a148.033,148.033,0,0,1-29.615-2.985,146.208,146.208,0,0,1-27.583-8.562,146.944,146.944,0,0,1-24.96-13.548,147.973,147.973,0,0,1-21.747-17.943A147.987,147.987,0,0,1-4182.9,229.1a147.028,147.028,0,0,1-13.548-24.961,146.142,146.142,0,0,1-8.562-27.583A147.991,147.991,0,0,1-4208,146.944a147.988,147.988,0,0,1,2.986-29.614,146.141,146.141,0,0,1,8.562-27.583A147.031,147.031,0,0,1-4182.9,64.786a147.993,147.993,0,0,1,17.944-21.747A147.972,147.972,0,0,1-4143.213,25.1a146.942,146.942,0,0,1,24.96-13.548,146.215,146.215,0,0,1,27.583-8.562A148.032,148.032,0,0,1-4061.055,0a148.03,148.03,0,0,1,29.614,2.985,146.2,146.2,0,0,1,27.583,8.562A146.966,146.966,0,0,1-3978.9,25.1a147.975,147.975,0,0,1,21.747,17.943,148.005,148.005,0,0,1,17.943,21.747,146.961,146.961,0,0,1,13.548,24.961,146.24,146.24,0,0,1,8.562,27.583,148.027,148.027,0,0,1,2.985,29.614,148.03,148.03,0,0,1-2.985,29.615,146.24,146.24,0,0,1-8.562,27.583,146.958,146.958,0,0,1-13.548,24.961,148.011,148.011,0,0,1-17.943,21.747,147.986,147.986,0,0,1-21.747,17.943,146.965,146.965,0,0,1-24.96,13.548,146.21,146.21,0,0,1-27.583,8.562A148.027,148.027,0,0,1-4061.055,293.889Zm0-266.195a120.133,120.133,0,0,0-24.034,2.423,118.658,118.658,0,0,0-22.385,6.949A119.291,119.291,0,0,0-4127.73,48.06a120.207,120.207,0,0,0-17.649,14.562,120.124,120.124,0,0,0-14.561,17.649,119.266,119.266,0,0,0-11,20.257,118.607,118.607,0,0,0-6.949,22.385,120.1,120.1,0,0,0-2.423,24.033,120.1,120.1,0,0,0,2.423,24.033,118.608,118.608,0,0,0,6.949,22.384,119.267,119.267,0,0,0,11,20.256,120.116,120.116,0,0,0,14.561,17.649,120.2,120.2,0,0,0,17.649,14.561,119.281,119.281,0,0,0,20.257,10.995,118.656,118.656,0,0,0,22.385,6.949,120.139,120.139,0,0,0,24.034,2.423,120.128,120.128,0,0,0,24.032-2.423,118.645,118.645,0,0,0,22.384-6.949,119.235,119.235,0,0,0,20.256-10.995,120.105,120.105,0,0,0,17.649-14.561,120.14,120.14,0,0,0,14.562-17.649,119.258,119.258,0,0,0,10.995-20.256,118.7,118.7,0,0,0,6.949-22.384,120.137,120.137,0,0,0,2.423-24.033,120.139,120.139,0,0,0-2.423-24.033,118.7,118.7,0,0,0-6.949-22.385,119.256,119.256,0,0,0-10.995-20.257,120.145,120.145,0,0,0-14.562-17.649,120.111,120.111,0,0,0-17.649-14.562,119.247,119.247,0,0,0-20.256-10.995,118.648,118.648,0,0,0-22.384-6.949A120.125,120.125,0,0,0-4061.055,27.694Z"
         transform="translate(4233 27)"
         fill="rgba(0,0,0,0.89)" /></g><path
       id="Union_8"
       data-name="Union 8"
       d="m -4073.1,334.457 a 168.017,168.017 0 0 1 -31.71,-9.845 168.959,168.959 0 0 1 -28.7,-15.576 170.18,170.18 0 0 1 -25,-20.63 170.065,170.065 0 0 1 -20.631,-25 168.983,168.983 0 0 1 -15.576,-28.7 168.136,168.136 0 0 1 -9.843,-31.713 170.131,170.131 0 0 1 -3.44,-34.048 170.133,170.133 0 0 1 3.434,-34.049 168.16,168.16 0 0 1 9.843,-31.713 169.023,169.023 0 0 1 15.576,-28.7 170.12,170.12 0 0 1 20.631,-25 170.24,170.24 0 0 1 25,-20.629 168.958,168.958 0 0 1 28.7,-15.576 168.018,168.018 0 0 1 31.71,-9.845 170.187,170.187 0 0 1 34.051,-3.433 170.172,170.172 0 0 1 34.048,3.432 168.15,168.15 0 0 1 31.714,9.845 168.984,168.984 0 0 1 28.7,15.576 170.224,170.224 0 0 1 25,20.629 170.224,170.224 0 0 1 20.631,25 169.067,169.067 0 0 1 15.576,28.7 168.1,168.1 0 0 1 9.845,31.713 170.239,170.239 0 0 1 3.432,34.049 170.237,170.237 0 0 1 -3.432,34.048 168.1,168.1 0 0 1 -9.845,31.713 168.914,168.914 0 0 1 -15.576,28.7 170.115,170.115 0 0 1 -20.631,25 170.165,170.165 0 0 1 -25,20.63 168.949,168.949 0 0 1 -28.7,15.576 168.15,168.15 0 0 1 -31.714,9.845 170.171,170.171 0 0 1 -34.048,3.432 170.186,170.186 0 0 1 -34.045,-3.431 z m 10.834,-278.364 a 114.571,114.571 0 0 0 -21.623,6.712 115.056,115.056 0 0 0 -19.567,10.62 116.023,116.023 0 0 0 -17.049,14.066 116.122,116.122 0 0 0 -14.064,17.048 115.14,115.14 0 0 0 -10.622,19.568 114.594,114.594 0 0 0 -6.711,21.622 116.109,116.109 0 0 0 -2.341,23.216 116.109,116.109 0 0 0 2.341,23.216 114.6,114.6 0 0 0 6.711,21.623 115.09,115.09 0 0 0 10.622,19.567 116.067,116.067 0 0 0 14.064,17.048 116.008,116.008 0 0 0 17.049,14.066 115.062,115.062 0 0 0 19.567,10.621 114.647,114.647 0 0 0 21.623,6.712 116.079,116.079 0 0 0 23.216,2.34 116.062,116.062 0 0 0 23.215,-2.34 114.6,114.6 0 0 0 21.623,-6.712 115.156,115.156 0 0 0 19.568,-10.621 116,116 0 0 0 17.044,-14.065 115.985,115.985 0 0 0 14.067,-17.048 115.246,115.246 0 0 0 10.62,-19.567 114.642,114.642 0 0 0 6.712,-21.623 116.075,116.075 0 0 0 2.34,-23.216 116.075,116.075 0 0 0 -2.34,-23.216 114.609,114.609 0 0 0 -6.712,-21.622 115.255,115.255 0 0 0 -10.62,-19.568 116.039,116.039 0 0 0 -14.067,-17.049 116.067,116.067 0 0 0 -17.047,-14.066 115.151,115.151 0 0 0 -19.568,-10.62 114.521,114.521 0 0 0 -21.623,-6.712 115.986,115.986 0 0 0 -23.215,-2.34 116,116 0 0 0 -23.217,2.34 z"
       transform="translate(5195.869,620.787)"
       fill="#ededed"
       stroke="rgba(0,0,0,0)"
       stroke-width="1"
       style="display:inline" /></g></svg>
