<svg xmlns="http://www.w3.org/2000/svg" xmlns:xlink="http://www.w3.org/1999/xlink" width="340.39" height="344.389" viewBox="0 0 340.39 344.389">
  <defs>
    <filter id="Subtraction_14" x="0" y="0" width="335.889" height="335.889" filterUnits="userSpaceOnUse">
      <feOffset dx="-4" dy="-6" input="SourceAlpha"/>
      <feGaussianBlur stdDeviation="7" result="blur"/>
      <feFlood flood-color="#333e48" flood-opacity="0.353"/>
      <feComposite operator="in" in2="blur"/>
      <feComposite in="SourceGraphic"/>
    </filter>
    <clipPath id="clip-path">
      <circle id="Ellipse_17" data-name="Ellipse 17" cx="96" cy="96" r="96" transform="translate(1552 668)" fill="#62a0a5"/>
    </clipPath>
    <clipPath id="clip-path-2">
      <rect id="Rectangle_478" data-name="Rectangle 478" width="141.75" height="129.36" fill="none"/>
    </clipPath>
  </defs>
  <g id="Group_2208" data-name="Group 2208" transform="translate(-985.869 -614.787)">
    <circle id="Ellipse_31" data-name="Ellipse 31" cx="121.338" cy="121.338" r="121.338" transform="translate(1036.193 671.552)" fill="#fff"/>
    <g transform="matrix(1, 0, 0, 1, 985.87, 614.79)" filter="url(#Subtraction_14)">
      <path id="Subtraction_14-2" data-name="Subtraction 14" d="M-4061.055,293.889a148.033,148.033,0,0,1-29.615-2.985,146.208,146.208,0,0,1-27.583-8.562,146.944,146.944,0,0,1-24.96-13.548,147.973,147.973,0,0,1-21.747-17.943A147.987,147.987,0,0,1-4182.9,229.1a147.028,147.028,0,0,1-13.548-24.961,146.142,146.142,0,0,1-8.562-27.583A147.991,147.991,0,0,1-4208,146.944a147.988,147.988,0,0,1,2.986-29.614,146.141,146.141,0,0,1,8.562-27.583A147.031,147.031,0,0,1-4182.9,64.786a147.993,147.993,0,0,1,17.944-21.747A147.972,147.972,0,0,1-4143.213,25.1a146.942,146.942,0,0,1,24.96-13.548,146.215,146.215,0,0,1,27.583-8.562A148.032,148.032,0,0,1-4061.055,0a148.03,148.03,0,0,1,29.614,2.985,146.2,146.2,0,0,1,27.583,8.562A146.966,146.966,0,0,1-3978.9,25.1a147.975,147.975,0,0,1,21.747,17.943,148.005,148.005,0,0,1,17.943,21.747,146.961,146.961,0,0,1,13.548,24.961,146.24,146.24,0,0,1,8.562,27.583,148.027,148.027,0,0,1,2.985,29.614,148.03,148.03,0,0,1-2.985,29.615,146.24,146.24,0,0,1-8.562,27.583,146.958,146.958,0,0,1-13.548,24.961,148.011,148.011,0,0,1-17.943,21.747,147.986,147.986,0,0,1-21.747,17.943,146.965,146.965,0,0,1-24.96,13.548,146.21,146.21,0,0,1-27.583,8.562A148.027,148.027,0,0,1-4061.055,293.889Zm0-266.195a120.133,120.133,0,0,0-24.034,2.423,118.658,118.658,0,0,0-22.385,6.949A119.291,119.291,0,0,0-4127.73,48.06a120.207,120.207,0,0,0-17.649,14.562,120.124,120.124,0,0,0-14.561,17.649,119.266,119.266,0,0,0-11,20.257,118.607,118.607,0,0,0-6.949,22.385,120.1,120.1,0,0,0-2.423,24.033,120.1,120.1,0,0,0,2.423,24.033,118.608,118.608,0,0,0,6.949,22.384,119.267,119.267,0,0,0,11,20.256,120.116,120.116,0,0,0,14.561,17.649,120.2,120.2,0,0,0,17.649,14.561,119.281,119.281,0,0,0,20.257,10.995,118.656,118.656,0,0,0,22.385,6.949,120.139,120.139,0,0,0,24.034,2.423,120.128,120.128,0,0,0,24.032-2.423,118.645,118.645,0,0,0,22.384-6.949,119.235,119.235,0,0,0,20.256-10.995,120.105,120.105,0,0,0,17.649-14.561,120.14,120.14,0,0,0,14.562-17.649,119.258,119.258,0,0,0,10.995-20.256,118.7,118.7,0,0,0,6.949-22.384,120.137,120.137,0,0,0,2.423-24.033,120.139,120.139,0,0,0-2.423-24.033,118.7,118.7,0,0,0-6.949-22.385,119.256,119.256,0,0,0-10.995-20.257,120.145,120.145,0,0,0-14.562-17.649,120.111,120.111,0,0,0-17.649-14.562,119.247,119.247,0,0,0-20.256-10.995,118.648,118.648,0,0,0-22.384-6.949A120.125,120.125,0,0,0-4061.055,27.694Z" transform="translate(4233 27)" fill="rgba(0,0,0,0.89)"/>
    </g>
    <path id="Union_8" data-name="Union 8" d="M-4073.1,334.457a168.017,168.017,0,0,1-31.71-9.845,168.959,168.959,0,0,1-28.7-15.576,170.18,170.18,0,0,1-25-20.63,170.065,170.065,0,0,1-20.631-25,168.983,168.983,0,0,1-15.576-28.7,168.136,168.136,0,0,1-9.843-31.713A170.131,170.131,0,0,1-4208,168.945a170.133,170.133,0,0,1,3.434-34.049,168.16,168.16,0,0,1,9.843-31.713,169.023,169.023,0,0,1,15.576-28.7,170.12,170.12,0,0,1,20.631-25,170.24,170.24,0,0,1,25-20.629,168.958,168.958,0,0,1,28.7-15.576,168.018,168.018,0,0,1,31.71-9.845A170.187,170.187,0,0,1-4039.055,0a170.172,170.172,0,0,1,34.048,3.432,168.15,168.15,0,0,1,31.714,9.845,168.984,168.984,0,0,1,28.7,15.576,170.224,170.224,0,0,1,25,20.629,170.224,170.224,0,0,1,20.631,25,169.067,169.067,0,0,1,15.576,28.7,168.1,168.1,0,0,1,9.845,31.713,170.239,170.239,0,0,1,3.432,34.049,170.237,170.237,0,0,1-3.432,34.048,168.1,168.1,0,0,1-9.845,31.713,168.914,168.914,0,0,1-15.576,28.7,170.115,170.115,0,0,1-20.631,25,170.165,170.165,0,0,1-25,20.63,168.949,168.949,0,0,1-28.7,15.576,168.15,168.15,0,0,1-31.714,9.845,170.171,170.171,0,0,1-34.048,3.432A170.186,170.186,0,0,1-4073.1,334.457Zm10.834-278.364a114.571,114.571,0,0,0-21.623,6.712,115.056,115.056,0,0,0-19.567,10.62,116.023,116.023,0,0,0-17.049,14.066,116.122,116.122,0,0,0-14.064,17.048,115.14,115.14,0,0,0-10.622,19.568,114.594,114.594,0,0,0-6.711,21.622,116.109,116.109,0,0,0-2.341,23.216,116.109,116.109,0,0,0,2.341,23.216,114.6,114.6,0,0,0,6.711,21.623,115.09,115.09,0,0,0,10.622,19.567,116.067,116.067,0,0,0,14.064,17.048,116.008,116.008,0,0,0,17.049,14.066,115.062,115.062,0,0,0,19.567,10.621,114.647,114.647,0,0,0,21.623,6.712,116.079,116.079,0,0,0,23.216,2.34,116.062,116.062,0,0,0,23.215-2.34,114.6,114.6,0,0,0,21.623-6.712,115.156,115.156,0,0,0,19.568-10.621A116,116,0,0,0-3957.6,250.4a115.985,115.985,0,0,0,14.067-17.048,115.246,115.246,0,0,0,10.62-19.567,114.642,114.642,0,0,0,6.712-21.623,116.075,116.075,0,0,0,2.34-23.216,116.075,116.075,0,0,0-2.34-23.216,114.609,114.609,0,0,0-6.712-21.622,115.255,115.255,0,0,0-10.62-19.568A116.039,116.039,0,0,0-3957.6,87.491a116.067,116.067,0,0,0-17.047-14.066,115.151,115.151,0,0,0-19.568-10.62,114.521,114.521,0,0,0-21.623-6.712,115.986,115.986,0,0,0-23.215-2.34A116,116,0,0,0-4062.27,56.093Z" transform="translate(5195.869 620.787)" fill="#ededed" stroke="rgba(0,0,0,0)" stroke-width="1"/>
    <g id="Group_2474" data-name="Group 2474" transform="translate(1086.938 724.051)">
      <g id="Group_2473" data-name="Group 2473" clip-path="url(#clip-path-2)">
        <path id="Path_2872" data-name="Path 2872" d="M261.249,52.616v-.035c-.563-5.228-5.4-15.3-14.31-21.3a28.17,28.17,0,0,0-11.177-4.506,31.711,31.711,0,0,0-13.043.616,23.592,23.592,0,0,0-5.633-13.43A37.09,37.09,0,0,0,203.057,3.718C195.559.462,185.913-.718,176.567.426a38.473,38.473,0,0,0-15.824,5.65,28.87,28.87,0,0,0-11.336,13.272,31.224,31.224,0,0,0-1.074,19.925,39.036,39.036,0,0,0,10.139,17.461L145.2,101.18l15.63-45.061a37.241,37.241,0,0,1-10.456-17.408,29.054,29.054,0,0,1,.986-18.588,26.9,26.9,0,0,1,10.526-12.3A36.158,36.158,0,0,1,176.831,2.5c8.995-1.091,18.253.035,25.382,3.133a35.088,35.088,0,0,1,13.237,9.646,21.205,21.205,0,0,1,5.193,13.465v1.373l1.338-.37c8.836-2.5,16.827-1.408,23.763,3.292a33.279,33.279,0,0,1,9.681,10.332,25.3,25.3,0,0,1,3.714,9.452v.07a27.435,27.435,0,0,1-2.394,14.082A28.167,28.167,0,0,1,248.4,77.4c-4.612,3.608-10.632,6.319-17.9,8.026l.018.035-.035-.035a72.526,72.526,0,0,0-5.228,6.618c-4.559,6.442-8.889,13.958-12.955,20.788-14.909-5.052-31.05-5.3-46.451-2.429-5.1.88-10.35,2.253-15.454,3.256,2.183-.352,5.562-1.074,7.745-1.514,12.832-2.675,26.086-3.89,39.059-1.778a81.314,81.314,0,0,1,15.648,4.119l.3-.475c5.738-8.959,11.3-18.816,18.429-26.72,7.3-1.8,13.4-4.559,18.13-8.273a30.511,30.511,0,0,0,8.959-11.177,29.8,29.8,0,0,0,2.587-15.226" transform="translate(-119.642 0)" fill="#fbc02d"/>
        <path id="Path_2873" data-name="Path 2873" d="M212.982,164.722c.88,7.076,1.637,14.926,6.988,20.137a16.365,16.365,0,0,0,1.813,1.5c.211.158.44.3.651.458-8.907-2.587-11.019-14.064-9.452-22.09" transform="translate(-175.103 -135.728)" fill="#fbc02d"/>
        <path id="Path_2874" data-name="Path 2874" d="M405.5,309.222a31.96,31.96,0,0,0,10.42,8.871,31.4,31.4,0,0,0,16.071,3.239,20.439,20.439,0,0,1-7.8.845A22.37,22.37,0,0,1,405.5,309.222" transform="translate(-334.124 -254.793)" fill="#fbc02d"/>
        <path id="Path_2875" data-name="Path 2875" d="M678.5,383.115a27.982,27.982,0,0,0,9.47-8.379c.81-1.162,1.531-2.411,2.271-3.714a10.936,10.936,0,0,1-.352,2.235,13.647,13.647,0,0,1-11.388,9.857" transform="translate(-559.071 -305.715)" fill="#fbc02d"/>
        <path id="Path_2876" data-name="Path 2876" d="M673.183,360.022a9.074,9.074,0,0,1-8.783,9.47c1-.634,1.919-1.232,2.8-1.883a20.056,20.056,0,0,0,5.985-7.586" transform="translate(-547.453 -296.651)" fill="#fbc02d"/>
        <path id="Path_2877" data-name="Path 2877" d="M374.07,386.922a130.072,130.072,0,0,1-3.96,15.138,133.762,133.762,0,0,1-5.509,14.662,123.4,123.4,0,0,1,3.96-15.138,127.762,127.762,0,0,1,5.509-14.662" transform="translate(-300.423 -318.816)" fill="#fbc02d"/>
        <path id="Path_2878" data-name="Path 2878" d="M302.288,368.922c-1.267,6.213-3.045,12.286-4.911,18.324-1.919,6.02-3.96,11.987-6.478,17.813a187.361,187.361,0,0,1,4.911-18.324c1.919-6.02,3.96-11.987,6.478-17.813" transform="translate(-239.696 -303.985)" fill="#fbc02d"/>
        <path id="Path_2879" data-name="Path 2879" d="M232.525,348.022A295.247,295.247,0,0,1,219.2,390.988a297.273,297.273,0,0,1,13.325-42.966" transform="translate(-180.617 -286.763)" fill="#fbc02d"/>
        <path id="Path_2880" data-name="Path 2880" d="M308.035,126.1c.07-.106.106-.194-.035-.3-.51-.352-.686-.334-1,.176-.088.123-.176.264-.264.387a4.27,4.27,0,0,1-2.218,1.584.848.848,0,0,1-.933-.264.9.9,0,0,1-.07-1,2.519,2.519,0,0,1,.211-.37c.81-1.162,1.619-2.306,2.447-3.45.194-.282.37-.7.651-.81.3-.106.686.194,1,.37a.186.186,0,0,0,.088.035c.018.018.194.158.282-.035.106-.211.352-.387.387-.651,0-.018-.088-.07-.158-.106-.264-.123-.528-.264-.792-.37-.211-.088-.211-.176-.088-.352a6.367,6.367,0,0,0,.933-1.549,1.155,1.155,0,0,0-.387-1.373,2.545,2.545,0,0,0-.634-.387c-.264-.106-.546-.352-.51.211a.542.542,0,0,1-.123.246c-.458.651-.915,1.32-1.373,1.971-.088.106-.158.194-.334.106-.123-.07-.246-.123-.194-.334a.628.628,0,0,0-.37-.686,3.165,3.165,0,0,0-.9-.3,1.968,1.968,0,0,0,.176.282c.282.387.264.616-.123.88a3.173,3.173,0,0,1-1.743.528,6.752,6.752,0,0,0,.211-.915,3.113,3.113,0,0,0-3.767-3.855,6.694,6.694,0,0,0-2.94,1.285,7.662,7.662,0,0,0-2.94,4.224,3.185,3.185,0,0,0,1.109,3.608,3.735,3.735,0,0,0,3.08.422,7.834,7.834,0,0,0,4.383-3.221.491.491,0,0,1,.37-.246,5.618,5.618,0,0,0,2.605-.986c.246-.176.387-.018.528.07.176.123-.035.246-.106.352-.07.123-.176.246-.246.352-.915,1.285-1.831,2.587-2.728,3.872a2.162,2.162,0,0,0,.246,2.992,2.914,2.914,0,0,0,2.183.51,5.777,5.777,0,0,0,4.084-2.9m-8.361-4.119a5.687,5.687,0,0,1-3.239,2.323,1.587,1.587,0,0,1-2.042-1.866,5.834,5.834,0,0,1,2.517-4.207.149.149,0,0,1,.123,0c.018.018,0,.07,0,.088a2.546,2.546,0,0,0,1.549,3.063,4.537,4.537,0,0,0,.968.352c.123.053.264.088.123.246m1.426-2.957a4.526,4.526,0,0,1-.334,1.179c-.088.264-.246.264-.458.176a1.725,1.725,0,0,1-1.162-1.461.97.97,0,0,1,1.074-1c.686.018.968.422.88,1.109" transform="translate(-240.919 -95.348)" fill="#333f48"/>
        <path id="Path_2881" data-name="Path 2881" d="M245.3,50.949a1.775,1.775,0,0,0-.722-2.8,4.083,4.083,0,0,0-2.147-.3,14.294,14.294,0,0,0-4.559,1.179,1.7,1.7,0,0,1-.827.264c.106-.194.194-.352.282-.51a9.459,9.459,0,0,0,1.179-3.221,3.066,3.066,0,0,0-1.514-3.45,4.144,4.144,0,0,0-2.8-.264,8.065,8.065,0,0,0-3.714,2.042,7.379,7.379,0,0,0-2.183,2.852,2.012,2.012,0,0,0,1.355,2.887c.07-.106-.018-.176-.07-.264a2.219,2.219,0,0,1,.035-1.743,9.024,9.024,0,0,1,3.714-4.295,3.273,3.273,0,0,1,2.183-.563,1.242,1.242,0,0,1,1.162,1.091,4.01,4.01,0,0,1-.3,1.866,18.931,18.931,0,0,1-2.411,4.172c-1.971,2.8-3.96,5.58-5.949,8.379a13.558,13.558,0,0,0-1.338,1.989,1.325,1.325,0,0,0,.51,1.831,3.592,3.592,0,0,0,1.232.546c-.44-.458-.194-.827.07-1.232,1.25-1.725,2.482-3.45,3.7-5.193a.354.354,0,0,1,.387-.176,7.6,7.6,0,0,0,2.447-.088,23.737,23.737,0,0,0,8.1-3.151,5.824,5.824,0,0,0,2.183-1.848m-11.089,3.116a2.244,2.244,0,0,0-.334.018.569.569,0,0,1-.158-.035,14.415,14.415,0,0,1,2.183-1.883,18.85,18.85,0,0,1,5.773-2.94,4.793,4.793,0,0,1,1.725-.211c.528.035.616.194.334.651a4.985,4.985,0,0,1-1.6,1.549,15.341,15.341,0,0,1-7.921,2.852" transform="translate(-186.629 -34.381)" fill="#333f48"/>
        <path id="Path_2882" data-name="Path 2882" d="M706.582,300.824a1.63,1.63,0,0,0-1.514-1.074,2.617,2.617,0,0,0-.986.088c-.422.123-.774.51-1.144.246a4.471,4.471,0,0,1-.774-1,4.352,4.352,0,0,0-1.584-1.408,1.71,1.71,0,0,0-2.042.194.952.952,0,0,0,.07,1.655c.352.264.458.246.546-.176a1.476,1.476,0,0,1,.475.458c.352.458.686.933,1.021,1.408.194.246.158.334-.088.458-.9.528-1.8,1.056-2.693,1.6a.557.557,0,0,1-.7-.018,2.808,2.808,0,0,0-2.5-.352,2.413,2.413,0,0,0-1.672,1.778A1.838,1.838,0,0,0,695,306.844a3.792,3.792,0,0,0,1.971-.634c.194-.123.282-.123.422.106a20.792,20.792,0,0,0,1.074,1.831,3.02,3.02,0,0,0,2.869,1.514,1.427,1.427,0,0,0,.6-.176,1.236,1.236,0,0,0,.933-1.056c.018-.088.07-.334-.176-.264a2.06,2.06,0,0,1-1.883-.6,10.573,10.573,0,0,1-1.919-2.235c-.123-.194-.035-.282.123-.37,1.091-.634,2.165-1.267,3.239-1.9a.809.809,0,0,1,.722-.106,3.266,3.266,0,0,0,2.816-.422,1.463,1.463,0,0,0,.792-1.707M696.144,304.5a6.524,6.524,0,0,1-1.5.722.5.5,0,0,1-.6-.194.528.528,0,0,1,0-.634,1.214,1.214,0,0,1,1.074-.563,1.614,1.614,0,0,1,1,.282c.194.123.229.229.018.387M705,301.652a1.4,1.4,0,0,1-.739-.106,2.509,2.509,0,0,1,.651-.37c.158-.035.352-.088.387.106.088.211-.07.352-.3.37" transform="translate(-570.977 -245.075)" fill="#333f48"/>
        <path id="Path_2883" data-name="Path 2883" d="M382.652,135.255a8.134,8.134,0,0,0,6.3-4.77,4.662,4.662,0,0,0-.246-4.735,7.822,7.822,0,0,0-.9-1,17.926,17.926,0,0,0,2.306-.9,7.059,7.059,0,0,0,2.623-1.8,1.755,1.755,0,0,0-1-2.992,7.059,7.059,0,0,0-3.573.246,18.288,18.288,0,0,0-2.517.915c.088-.176.123-.264.176-.352a9.7,9.7,0,0,0,.968-2.482,2.977,2.977,0,0,0-1-3.327,3.324,3.324,0,0,0-2.869-.458,8.036,8.036,0,0,0-5.1,3.784c-.933,1.514-.51,2.728,1.021,3.362a3.055,3.055,0,0,1-.194-1.2,5.7,5.7,0,0,1,1.285-2.587,6.551,6.551,0,0,1,3.292-2.359c1.2-.352,1.954.3,1.778,1.531a5.055,5.055,0,0,1-.458,1.461,20.986,20.986,0,0,1-1.989,3.292c-1.989,2.8-3.96,5.58-5.949,8.379a1.585,1.585,0,0,0-.458,1.426,2.53,2.53,0,0,0,.211.563,3.464,3.464,0,0,1-.352-.546,3.74,3.74,0,0,1-.387-2.5,4.273,4.273,0,0,1,.792-1.883c.088-.106.211-.264-.07-.282-1.461-.158-2.869.387-3.133,2.183a5.982,5.982,0,0,0,3.221,6.213,9.105,9.105,0,0,0,6.231.81m7.182-15.014a3.166,3.166,0,0,1,1.285-.106c.387.07.458.194.211.528a5.676,5.676,0,0,1-1.866,1.426,11.274,11.274,0,0,1-5.58,1.5c-.088,0-.194.035-.3-.07a18.349,18.349,0,0,1,6.249-3.274m-13.1,11.547a3.109,3.109,0,0,1-.282-.387l.352.264c.123.07.81.387,1.109.546.088-.088.035-.123.018-.158a.659.659,0,0,1,.018-.915c1.2-1.655,2.394-3.327,3.573-5.017a2.659,2.659,0,0,0,.739.651.9.9,0,0,1,.528-.968,1.9,1.9,0,0,1,1.091-.3,3.915,3.915,0,0,1,3.415,1.6,3.343,3.343,0,0,1-.352,4.1,6.817,6.817,0,0,1-5.457,2.429,6.886,6.886,0,0,1-4.418-1.5c-.035-.123-.194-.246-.334-.352" transform="translate(-307.457 -93.5)" fill="#333f48"/>
        <path id="Path_2884" data-name="Path 2884" d="M650.893,279.851a5.983,5.983,0,0,1,.3-2.095,21.127,21.127,0,0,1,3.063-5.809,15.292,15.292,0,0,0,1.285-1.8,1.007,1.007,0,0,0-1-1.514,5.154,5.154,0,0,0-.933.158,2.459,2.459,0,0,1-1.074.035c.07-.37.158-.722.194-1.056a2.115,2.115,0,0,0-2.605-2.517,1.98,1.98,0,0,0-1.514,2.711,2.456,2.456,0,0,0,1.408,1.373c.37.176.37.352.176.651a12.227,12.227,0,0,1-6.442,5.122.324.324,0,0,0-.246.37c.018.211.194.158.3.123a9.006,9.006,0,0,0,3.309-.774,10.667,10.667,0,0,0,4.471-4.224c.352-.6.37-.6,1.021-.37.018,0,.035.018.088.035-.035.07-.07.158-.123.246a18.688,18.688,0,0,0-2.957,5.1,9.218,9.218,0,0,0-.774,3.7,2.689,2.689,0,0,0,1.109,2.235,3.482,3.482,0,0,0,2.676.3c-.264-.123-.422-.194-.563-.264a1.854,1.854,0,0,1-1.162-1.743M651,268.092c-.018.088-.035.211-.194.123a1.669,1.669,0,0,1-.986-1.584c.07-.334.194-.563.546-.634.37-.035.546.176.686.475a1.686,1.686,0,0,1,.106.651,2.723,2.723,0,0,1-.158.968" transform="translate(-530.232 -218.522)" fill="#333f48"/>
        <path id="Path_2885" data-name="Path 2885" d="M494.311,212.172c.07-.07.158-.106.035-.211a.715.715,0,0,0-.9-.035,7.523,7.523,0,0,1-2.623,1.514,1.806,1.806,0,0,1-2.059-.458,2.761,2.761,0,0,1,.088-2.869c.123-.158.194-.035.282,0a6.8,6.8,0,0,0,1.831.7,4.426,4.426,0,0,0,4.295-1.285,2.59,2.59,0,0,0-.387-4.119,3.963,3.963,0,0,0-3.45-.282,7.191,7.191,0,0,0-2.183,1.144c-.123-.158.088-.211,0-.387-.686.334-1.338.722-1.5,1.531a2.78,2.78,0,0,1-.6,1.232,1.466,1.466,0,0,0-1.883-.123,1.115,1.115,0,0,1,.211.123.822.822,0,0,1,.475,1.091,1.776,1.776,0,0,1-.422.722,4.914,4.914,0,0,1-3.221,1.373.238.238,0,0,1,.07-.246L484.912,208c.915-1.285,1.831-2.587,2.763-3.872a1.4,1.4,0,0,0-.282-2.147,3.134,3.134,0,0,0-.915-.44c-.018.123-.018.264-.035.422a2.847,2.847,0,0,0-2.235-1.232,3.591,3.591,0,0,0-1.443.194,8.025,8.025,0,0,0-4.506,3.943,3.935,3.935,0,0,1-1.883,1.707c-.088.035-.194.07-.3.106a.97.97,0,0,1-1.091-.246.952.952,0,0,1,.035-1.179c.37-.546.774-1.074,1.144-1.619.634-.9,1.338-1.778,1.883-2.728a2.577,2.577,0,0,0,.035-2.887,2.454,2.454,0,0,0-2.482-1c-.44.035-.634.07-.792-.44-.194-.616-.845-.81-1.443-1.056a1.139,1.139,0,0,1-.106.686c-.968,1.338-1.9,2.675-2.852,4.013-.088.123-.176.211-.352.106-.123-.088-.211-.07-.3.088a2.314,2.314,0,0,1-.334.51,4.329,4.329,0,0,1-2.323,1.743.871.871,0,0,1-1-.264.9.9,0,0,1-.018-1.074,2.1,2.1,0,0,1,.158-.264c.6-.845,1.2-1.707,1.8-2.552s1.2-1.707,1.8-2.552a1.436,1.436,0,0,0,.088-1.8,3.017,3.017,0,0,0-1.338-.792v.211c.018.07.07.158-.07.194a2.8,2.8,0,0,0-3.151-1.162,6.644,6.644,0,0,0-3.4,1.954,7.557,7.557,0,0,0-2.411,4.436,2.609,2.609,0,0,0,1.426,2.869,3.159,3.159,0,0,0,2.306.123c.246-.07.37-.088.422.246a1.593,1.593,0,0,0,.827,1.144,3.365,3.365,0,0,0,1.6.387,4.517,4.517,0,0,0,2.059-.563c-.282,1.461.176,2.147,1.778,2.552-.51-.528-.176-.915.106-1.32.44-.616.845-1.25,1.285-1.831,1-1.355,1.9-2.781,2.992-4.1a2.362,2.362,0,0,1,1.267-.827c.51-.088.739.088.774.6a3.653,3.653,0,0,1-.563,1.8c-.563,1.074-1.338,2.007-2.007,3.028a8.875,8.875,0,0,0-1.2,1.9A1.983,1.983,0,0,0,474,207.719a3.461,3.461,0,0,0,2.411-.158,6.89,6.89,0,0,0,1.021-.51,3.083,3.083,0,0,0,.651,2.5,2.914,2.914,0,0,0,2.411.81.182.182,0,0,0,.018.07,10.605,10.605,0,0,0-.634.915.6.6,0,0,1-.687.3,10.931,10.931,0,0,0-5.6,1.021,3.643,3.643,0,0,0-1.831,1.725,2.883,2.883,0,0,0,1.672,3.855,4.825,4.825,0,0,0,5.58-1.831c.528-.775,1.074-1.531,1.619-2.306a.592.592,0,0,1,.546-.282,10.737,10.737,0,0,0,2.482-.282,7.439,7.439,0,0,0,2.693-1.338c.616,1.743,1.549,2.447,3.309,2.394a6.7,6.7,0,0,0,4.647-2.429m-4.453-3.556a5.948,5.948,0,0,1,3.028-2.147,3.438,3.438,0,0,1,.51-.035,1.749,1.749,0,0,1,1.091.3,1.106,1.106,0,0,1,.37,1.338,2.8,2.8,0,0,1-3.7,1.5,5.187,5.187,0,0,1-1.232-.651c-.07-.106-.176-.158-.07-.3M464.212,200.1a4.009,4.009,0,0,1-.845.88,1.158,1.158,0,0,1-1.232.282c-.51-.246-.528-.739-.546-1.144a6.2,6.2,0,0,1,1.443-3.749,7.328,7.328,0,0,1,3.045-2.517,1.477,1.477,0,0,1,.458-.123.933.933,0,0,1,1.021.246,1.037,1.037,0,0,1,.035,1.144,10.284,10.284,0,0,1-.933,1.514c-.792,1.127-1.619,2.306-2.447,3.468m12.427,15.93a2.987,2.987,0,0,1-3.2.458,1.006,1.006,0,0,1-.458-1.637,3.144,3.144,0,0,1,1.461-1.056,8.61,8.61,0,0,1,4.207-.37,20.019,20.019,0,0,1-2.007,2.605m4.084-6.583a.84.84,0,0,1-1.179-.546,4.759,4.759,0,0,1-.123-.722,6.381,6.381,0,0,1,1.5-3.661A6.88,6.88,0,0,1,484.049,202a1.434,1.434,0,0,1,.546-.106c.827-.07,1.232.458.915,1.232a6,6,0,0,1-.933,1.637c-.968,1.338-1.866,2.693-2.887,3.96a2.5,2.5,0,0,1-.968.722" transform="translate(-378.631 -158.641)" fill="#333f48"/>
        <path id="Path_2886" data-name="Path 2886" d="M432.61,447.077l-1.373-1.549a3.143,3.143,0,0,0-2.675-4.805,3.285,3.285,0,0,0-1.32.282l-1.6-1.813a2.958,2.958,0,0,0-2.253-.968,3.422,3.422,0,0,0-2.341.9l-.282.211-.44.352-.246.194L409.165,426.29a1.325,1.325,0,0,0-1.883-.194,1.367,1.367,0,0,0-.194,1.866l11.072,13.958-4.383,5.034a2.711,2.711,0,0,0,.07,3.591l6.777,7.375a2.727,2.727,0,0,0,3.608.352l8.291-6.055c1.672-1.391,1.514-3.538.088-5.14m-4.031-5.421a2.194,2.194,0,0,1,2.183,2.183,2.1,2.1,0,0,1-.194.9l-2.64-2.992a2.531,2.531,0,0,1,.651-.088m-9.171,13.219h0a.4.4,0,0,1-.51-.018l-.51-.546a.367.367,0,1,1,.528-.51l.51.546a.353.353,0,0,1-.018.528m4.471,2.64a1.949,1.949,0,0,1-1.2.422,1.923,1.923,0,0,1-1.443-.634l-1.408-1.514a.367.367,0,1,1,.528-.51l1.373,1.5a1.246,1.246,0,0,0,.915.422,1.3,1.3,0,0,0,.792-.264l3.08-2.253a3.469,3.469,0,0,1,2.095-.722Zm8.114-5.949h0a1.605,1.605,0,0,1-.51.334l-10.315-11.758.51-.387a2.54,2.54,0,0,1,1.725-.651,2.058,2.058,0,0,1,1.6.686l6.953,7.921a3.165,3.165,0,0,1,.88,2.271,2.5,2.5,0,0,1-.845,1.584" transform="translate(-335.201 -350.844)" fill="#333f48"/>
        <path id="Path_2887" data-name="Path 2887" d="M9.91,681.44a.857.857,0,0,1,.018.211.779.779,0,0,1-.528.739,2.984,2.984,0,0,1-1.162.176c-.176,0-.387,0-.581-.018-.194,0-.4.158-.634.458-.141.194-.4.616-.792,1.285a2.27,2.27,0,0,0,.422.053h.053a1.5,1.5,0,0,0,.475-.158,1.174,1.174,0,0,1-.563.862,1.648,1.648,0,0,1-.827.176h-.07c-.141.264-.264.475-.352.651-.141.246-.264.475-.4.687a9.981,9.981,0,0,1-.915,1.32,3.158,3.158,0,0,1-2.323,1.426,1.824,1.824,0,0,1-1.285-.422A1.394,1.394,0,0,1,0,687.9v-.106a1.767,1.767,0,0,1,.282-.968,1.507,1.507,0,0,1,.88-.7,1.228,1.228,0,0,0-.176.563.888.888,0,0,0,.194.528,1.112,1.112,0,0,0,.915.422,2.074,2.074,0,0,0,1.5-.827,9.005,9.005,0,0,0,1.162-1.725.855.855,0,0,0-.211-.018.86.86,0,0,0-.563.158v-.07a.877.877,0,0,1,.37-.774,1.073,1.073,0,0,1,.352-.158,1.14,1.14,0,0,1,.352-.035h.194c.088-.158.158-.3.211-.4l.106-.194.106-.211c.088-.158.158-.3.211-.387a2.279,2.279,0,0,1,.493-.6c-.194-.018-.37-.018-.546-.018a3.37,3.37,0,0,0-1.2.176,1.951,1.951,0,0,0-1.021.775,1.7,1.7,0,0,0-.334.986.6.6,0,0,0,.018.176.918.918,0,0,0,.387.722,1.532,1.532,0,0,1-1.32-.6,1.437,1.437,0,0,1-.3-.88,1.735,1.735,0,0,1,.053-.422A2.149,2.149,0,0,1,3.1,682a4.488,4.488,0,0,1,2.411-.581c.246,0,.493.018.774.035.158.018.4.053.7.106a8.657,8.657,0,0,0,1.443.141c.4,0,.722-.018.933-.035.317-.018.493-.106.546-.229" transform="translate(0 -561.479)" fill="#333f48"/>
        <path id="Path_2888" data-name="Path 2888" d="M42.408,693.375a.386.386,0,0,1,.176-.158.515.515,0,0,1,.158-.035h.035a.215.215,0,0,1,.158.053.091.091,0,0,1,.035.07.133.133,0,0,1-.018.07,7.151,7.151,0,0,1-1.109,1.5,2.356,2.356,0,0,1-1.672.722,1.219,1.219,0,0,1-1.3-.774,1.349,1.349,0,0,1-.07-.475,1.332,1.332,0,0,1,.018-.264,1.79,1.79,0,0,1,.264-.722,6.482,6.482,0,0,1,1.144-1.461,2.547,2.547,0,0,1,1.725-.774.692.692,0,0,1,.7.387.853.853,0,0,1,.053.317,1.4,1.4,0,0,1-.106.51,2.085,2.085,0,0,1-.581.827,1.447,1.447,0,0,1-.915.387c-.229,0-.37-.088-.4-.264a.223.223,0,0,1-.018-.106.343.343,0,0,1,.018-.141.649.649,0,0,0,.3.088,1.032,1.032,0,0,0,.229-.035.941.941,0,0,0,.44-.317.8.8,0,0,0,.194-.387v-.018c0-.106-.07-.158-.194-.158a1.216,1.216,0,0,0-.757.3,1.733,1.733,0,0,0-.475.651,1.11,1.11,0,0,0-.088.387.73.73,0,0,0,.053.282.66.66,0,0,0,.634.3,1.861,1.861,0,0,0,.7-.141,1.74,1.74,0,0,0,.669-.616" transform="translate(-31.97 -569.471)" fill="#333f48"/>
        <path id="Path_2889" data-name="Path 2889" d="M61.508,693.375a.386.386,0,0,1,.176-.158.515.515,0,0,1,.158-.035h.035a.215.215,0,0,1,.158.053.091.091,0,0,1,.035.07.133.133,0,0,1-.018.07,7.151,7.151,0,0,1-1.109,1.5,2.356,2.356,0,0,1-1.672.722,1.219,1.219,0,0,1-1.3-.774,1.349,1.349,0,0,1-.07-.475,1.332,1.332,0,0,1,.018-.264,1.79,1.79,0,0,1,.264-.722,6.482,6.482,0,0,1,1.144-1.461,2.547,2.547,0,0,1,1.725-.774.692.692,0,0,1,.7.387.853.853,0,0,1,.053.317,1.4,1.4,0,0,1-.106.51,2.085,2.085,0,0,1-.581.827,1.447,1.447,0,0,1-.915.387c-.229,0-.37-.088-.4-.264a.223.223,0,0,1-.018-.106.343.343,0,0,1,.018-.141.649.649,0,0,0,.3.088,1.032,1.032,0,0,0,.229-.035.941.941,0,0,0,.44-.317.8.8,0,0,0,.194-.387v-.018c0-.106-.07-.158-.194-.158a1.216,1.216,0,0,0-.757.3,1.733,1.733,0,0,0-.475.651,1.11,1.11,0,0,0-.088.387.73.73,0,0,0,.053.282.66.66,0,0,0,.634.3,1.861,1.861,0,0,0,.7-.141,1.739,1.739,0,0,0,.669-.616" transform="translate(-47.708 -569.471)" fill="#333f48"/>
        <path id="Path_2890" data-name="Path 2890" d="M82.014,671.622a.611.611,0,0,1,.669.528,1.359,1.359,0,0,1,.035.264,2.531,2.531,0,0,1-.4,1.2c-.07.123-.176.317-.317.546-.053.07-.106.176-.194.317l-.106.158-.106.176c-.37.6-.651,1.091-.845,1.461a5.148,5.148,0,0,0-.739,1.637c0,.07.035.106.088.106a.513.513,0,0,0,.158-.035.6.6,0,0,0,.211-.106,1.778,1.778,0,0,0,.51-.6.358.358,0,0,1,.334-.194h.053a.215.215,0,0,1,.158.053.133.133,0,0,1,.035.07.106.106,0,0,1-.018.07,10.782,10.782,0,0,1-1,1.5,1.605,1.605,0,0,1-1.127.722.537.537,0,0,1-.563-.458.974.974,0,0,1-.035-.317v-.123a2.1,2.1,0,0,1-.493.458,2.12,2.12,0,0,1-.6.3,2.528,2.528,0,0,1-.81.141.717.717,0,0,1-.792-.7.857.857,0,0,1-.018-.211,2.625,2.625,0,0,1,.422-1.32,6.2,6.2,0,0,1,1.215-1.514,2.514,2.514,0,0,1,1.672-.722.723.723,0,0,1,.774.475l.282-.475a10.463,10.463,0,0,0,1.549-3.4m-4.26,6.407c.528,0,1.109-.44,1.707-1.32-.053,0-.088.018-.123.018-.176,0-.264-.07-.282-.211.123-.018.176-.088.211-.211v-.035c0-.088-.053-.141-.158-.141a1.59,1.59,0,0,0-.845.3,2.694,2.694,0,0,0-.686.651,1.17,1.17,0,0,0-.264.616v.035c.018.194.158.3.44.3" transform="translate(-62.705 -553.404)" fill="#333f48"/>
        <path id="Path_2891" data-name="Path 2891" d="M123.695,677.29a.385.385,0,0,1,.176-.158.513.513,0,0,1,.158-.035h.035c.07,0,.123.018.141.053a.133.133,0,0,1,.035.07.065.065,0,0,1-.018.053,7.267,7.267,0,0,1-1.144,1.514,2,2,0,0,1-1.3.722c-.44,0-.651-.158-.651-.475v-.053a2.923,2.923,0,0,1,.493-1.179c.088-.158.229-.37.4-.634l.088-.141.088-.141a2.578,2.578,0,0,0,.158-.264,1.266,1.266,0,0,0,.211-.458c0-.053-.018-.07-.07-.07a1.446,1.446,0,0,0-.845.528c-.229.246-.563.634-1,1.179l-.246.317c-.106.123-.176.229-.246.317-.176.229-.334.4-.458.546-.317.352-.563.528-.7.528a.476.476,0,0,1-.546-.44v-.106a1.52,1.52,0,0,1,.211-.722l1.848-3.2c.123-.211.246-.422.352-.634a5.354,5.354,0,0,1-.563.035h-.176c-.194,0-.4.158-.634.458-.141.194-.4.616-.792,1.285-.07.141-.194.334-.334.616l-.088.176-.106.176a3.839,3.839,0,0,1-.211.387c-.37.669-.7,1.214-1,1.655-.933,1.32-1.831,1.971-2.728,1.971a1.824,1.824,0,0,1-1.285-.422,1.394,1.394,0,0,1-.44-.986v-.088a1.825,1.825,0,0,1,.282-.986,1.507,1.507,0,0,1,.88-.7,1.229,1.229,0,0,0-.176.563.849.849,0,0,0,.194.528,1.112,1.112,0,0,0,.915.422c.669,0,1.338-.493,2.007-1.461a12.783,12.783,0,0,0,.757-1.25c.053-.088.106-.194.158-.3l.088-.141.07-.141c.123-.229.211-.4.282-.528l.106-.194.106-.194c.088-.176.158-.3.211-.387a1.981,1.981,0,0,1,.493-.6c-.176-.018-.352-.018-.51-.018a3.58,3.58,0,0,0-1.232.176,1.884,1.884,0,0,0-1.021.775,1.754,1.754,0,0,0-.334,1,.661.661,0,0,0,.018.176.918.918,0,0,0,.387.722,1.566,1.566,0,0,1-1.32-.581,1.475,1.475,0,0,1-.3-.88,1.736,1.736,0,0,1,.053-.422,2.116,2.116,0,0,1,1-1.3,4.488,4.488,0,0,1,2.411-.581,6.654,6.654,0,0,1,.986.07c.106.018.264.035.458.07l.229.035.229.035a4.322,4.322,0,0,0,.475.035,1.652,1.652,0,0,0,1.232-.44,1.727,1.727,0,0,0,.475-1.285,1.332,1.332,0,0,0-.018-.264.611.611,0,0,1,.669.528,1.359,1.359,0,0,1,.035.264,2.531,2.531,0,0,1-.4,1.2l-2.112,3.679a10.86,10.86,0,0,1,1.549-1.567,2.61,2.61,0,0,1,1.531-.669c.387,0,.581.123.581.387v.07a2.986,2.986,0,0,1-.493,1.021l-.194.282-.088.141-.088.141-.317.475a.7.7,0,0,0-.141.37.093.093,0,0,0,.106.106.907.907,0,0,0,.493-.229,1.874,1.874,0,0,0,.475-.528" transform="translate(-92.698 -553.404)" fill="#333f48"/>
        <path id="Path_2892" data-name="Path 2892" d="M178.308,693.375a.386.386,0,0,1,.176-.158.515.515,0,0,1,.158-.035h.035a.215.215,0,0,1,.158.053.091.091,0,0,1,.035.07.133.133,0,0,1-.018.07,7.151,7.151,0,0,1-1.109,1.5,2.355,2.355,0,0,1-1.672.722,1.219,1.219,0,0,1-1.3-.774,1.349,1.349,0,0,1-.07-.475,1.333,1.333,0,0,1,.018-.264,1.79,1.79,0,0,1,.264-.722,6.482,6.482,0,0,1,1.144-1.461,2.547,2.547,0,0,1,1.725-.774.692.692,0,0,1,.7.387.852.852,0,0,1,.053.317,1.4,1.4,0,0,1-.106.51,2.086,2.086,0,0,1-.581.827,1.447,1.447,0,0,1-.915.387c-.229,0-.37-.088-.4-.264a.223.223,0,0,1-.018-.106.343.343,0,0,1,.018-.141.649.649,0,0,0,.3.088,1.032,1.032,0,0,0,.229-.035.941.941,0,0,0,.44-.317.8.8,0,0,0,.194-.387v-.018c0-.106-.07-.158-.194-.158a1.216,1.216,0,0,0-.757.3,1.733,1.733,0,0,0-.475.651,1.11,1.11,0,0,0-.088.387.73.73,0,0,0,.053.282.66.66,0,0,0,.634.3,1.86,1.86,0,0,0,.7-.141,1.623,1.623,0,0,0,.669-.616" transform="translate(-143.949 -569.471)" fill="#333f48"/>
        <path id="Path_2893" data-name="Path 2893" d="M208.436,681.522a4.322,4.322,0,0,1,2.517.6,1.445,1.445,0,0,1,.669,1.25v.141a2.415,2.415,0,0,1-.792,1.514,3.987,3.987,0,0,1-1.848,1.021,1.635,1.635,0,0,1,.44,1c0,.07.018.123.018.194a1.794,1.794,0,0,1-.229.9,2.165,2.165,0,0,1-.9.88,3.238,3.238,0,0,1-1.584.352,1.622,1.622,0,0,1-.9-.229,1.392,1.392,0,0,1-.581-.651,1.763,1.763,0,0,1-.123-.686,3.93,3.93,0,0,1,.6-1.866,4.589,4.589,0,0,0,.475-1.127,1.754,1.754,0,0,0,.035-.282.67.67,0,0,0-.053-.282.744.744,0,0,1,.739.44.959.959,0,0,1,.088.387,1.812,1.812,0,0,1-.282.88,3.2,3.2,0,0,0-.493,1.162v.07c0,.334.246.493.739.493a1.864,1.864,0,0,0,1.531-.546.793.793,0,0,0,.194-.493.757.757,0,0,0-.194-.493,4.963,4.963,0,0,1-.51.035.838.838,0,0,1-.458-.106.5.5,0,0,1-.211-.458,4.236,4.236,0,0,0,2.095-.475,2.064,2.064,0,0,0,1-1.056,1.394,1.394,0,0,0,.088-.44.894.894,0,0,0-.229-.616,1.753,1.753,0,0,0-1.373-.475,4.289,4.289,0,0,0-1.584.282,3.481,3.481,0,0,0-1.162.7,2.228,2.228,0,0,0-.616.9,1.064,1.064,0,0,0-.07.387.872.872,0,0,0,.123.475c-.686,0-1.091-.194-1.25-.6a1,1,0,0,1-.053-.317,1.763,1.763,0,0,1,.37-.968,4.267,4.267,0,0,1,1.514-1.3,4.395,4.395,0,0,1,2.253-.6" transform="translate(-168.339 -561.561)" fill="#333f48"/>
        <path id="Path_2894" data-name="Path 2894" d="M245.1,691.222a1.222,1.222,0,0,1,1.285.7,1.55,1.55,0,0,1,.088.51,2.578,2.578,0,0,1-.264,1.038,4.038,4.038,0,0,1-1.2,1.531,2.907,2.907,0,0,1-1.813.7,1.158,1.158,0,0,1-1.2-.7,1.347,1.347,0,0,1-.106-.528,2.107,2.107,0,0,1,.3-1,6.048,6.048,0,0,1,1.2-1.5,2.536,2.536,0,0,1,1.655-.739h.053Zm-1.25,2.957a1.851,1.851,0,0,0,1.338-.563,1.556,1.556,0,0,0,.546-1.074.842.842,0,0,1-.669.317c-.176,0-.264-.07-.282-.211.123-.018.176-.088.211-.211V692.4c0-.088-.053-.141-.158-.141a1.308,1.308,0,0,0-.792.3,1.931,1.931,0,0,0-.546.651,1.244,1.244,0,0,0-.141.51.487.487,0,0,0,.018.158c.035.194.194.3.475.3" transform="translate(-199.321 -569.554)" fill="#333f48"/>
        <path id="Path_2895" data-name="Path 2895" d="M273.014,671.622a.611.611,0,0,1,.669.528,1.358,1.358,0,0,1,.035.264,2.531,2.531,0,0,1-.4,1.2c-.07.123-.176.317-.317.546-.053.07-.106.176-.194.317l-.106.158-.106.176c-.37.6-.651,1.091-.845,1.461a5.148,5.148,0,0,0-.739,1.637c0,.07.035.106.088.106a.513.513,0,0,0,.158-.035.6.6,0,0,0,.211-.106,1.779,1.779,0,0,0,.51-.6.358.358,0,0,1,.334-.194h.053a.215.215,0,0,1,.158.053.133.133,0,0,1,.035.07.106.106,0,0,1-.018.07,10.782,10.782,0,0,1-1,1.5,1.605,1.605,0,0,1-1.127.722.537.537,0,0,1-.563-.458.975.975,0,0,1-.035-.317v-.123a2.1,2.1,0,0,1-.493.458,2.12,2.12,0,0,1-.6.3,2.527,2.527,0,0,1-.81.141.717.717,0,0,1-.792-.7.858.858,0,0,1-.018-.211,2.625,2.625,0,0,1,.422-1.32,6.2,6.2,0,0,1,1.215-1.514,2.514,2.514,0,0,1,1.672-.722.723.723,0,0,1,.774.475l.282-.475a10.463,10.463,0,0,0,1.549-3.4m-4.26,6.407c.528,0,1.109-.44,1.707-1.32-.053,0-.088.018-.123.018-.176,0-.264-.07-.282-.211.123-.018.176-.088.211-.211v-.035c0-.088-.053-.141-.158-.141a1.59,1.59,0,0,0-.845.3,2.694,2.694,0,0,0-.686.651,1.17,1.17,0,0,0-.264.616v.035c0,.194.158.3.44.3" transform="translate(-220.085 -553.404)" fill="#333f48"/>
        <path id="Path_2896" data-name="Path 2896" d="M290.009,691.222q.739,0,.739.581a1.38,1.38,0,0,1-.035.246,5.84,5.84,0,0,1-.458,1.074c-.106.194-.194.4-.317.616-.088.176-.176.334-.229.44a.369.369,0,0,1-.07.106l-.035.053-.035.07a2.557,2.557,0,0,0-.158.282c-.141.246-.282.475-.4.686a16.127,16.127,0,0,1-1.039,1.567c-.951,1.285-1.778,1.919-2.5,1.919a.913.913,0,0,1-.827-.37.828.828,0,0,1-.141-.51,2.639,2.639,0,0,1,.035-.352,2.13,2.13,0,0,1,.528-.951,2.408,2.408,0,0,1,1.056-.669,1.2,1.2,0,0,1,.334-.053.545.545,0,0,1,.3.088.333.333,0,0,1,.141.176,1.418,1.418,0,0,0-.6.264,1.042,1.042,0,0,0-.352.387.647.647,0,0,0-.088.282.159.159,0,0,0,.018.088.222.222,0,0,0,.246.158,1.235,1.235,0,0,0,.845-.51,9.355,9.355,0,0,0,.968-1.461,2.034,2.034,0,0,1-.968.282,1.128,1.128,0,0,1-.528-.141.864.864,0,0,1-.387-.4,1.182,1.182,0,0,1-.106-.493,2.426,2.426,0,0,1,.387-1.2,6.549,6.549,0,0,0,.986-2.235c.387,0,.634.141.7.422a.661.661,0,0,1,.018.194,3.089,3.089,0,0,1-.51,1.373,1.359,1.359,0,0,0-.246.669.26.26,0,0,0,.018.123.244.244,0,0,0,.123.141.626.626,0,0,0,.176.035c.634,0,1.215-.44,1.743-1.3a6.635,6.635,0,0,0,.493-1,2.867,2.867,0,0,0,.176-.669" transform="translate(-234.423 -569.554)" fill="#333f48"/>
        <path id="Path_2897" data-name="Path 2897" d="M321.392,698.183c-.035-.968.493-1.461,1.162-1.461a3.013,3.013,0,0,1,1.373.44,3.063,3.063,0,0,0,1.215.4c.352,0,.51-.282.528-.81h.581c.053,1.091-.51,1.461-1.109,1.461a3.427,3.427,0,0,1-1.408-.422,2.848,2.848,0,0,0-1.162-.422c-.352,0-.563.246-.581.827h-.6Z" transform="translate(-264.82 -574.086)" fill="#333f48"/>
        <path id="Path_2898" data-name="Path 2898" d="M359.41,681.44a.857.857,0,0,1,.018.211.779.779,0,0,1-.528.739,2.984,2.984,0,0,1-1.162.176c-.176,0-.387,0-.581-.018-.194,0-.4.158-.634.458-.141.194-.4.616-.792,1.285a2.27,2.27,0,0,0,.422.053h.053a1.5,1.5,0,0,0,.475-.158,1.174,1.174,0,0,1-.563.862,1.648,1.648,0,0,1-.827.176h-.07c-.141.264-.264.475-.352.651-.141.246-.264.475-.4.687a9.981,9.981,0,0,1-.915,1.32,3.158,3.158,0,0,1-2.323,1.426,1.824,1.824,0,0,1-1.285-.422,1.394,1.394,0,0,1-.44-.986v-.106a1.767,1.767,0,0,1,.282-.968,1.507,1.507,0,0,1,.88-.7,1.228,1.228,0,0,0-.176.563.888.888,0,0,0,.194.528,1.112,1.112,0,0,0,.915.422,2.074,2.074,0,0,0,1.5-.827,9.006,9.006,0,0,0,1.162-1.725,1.125,1.125,0,0,0-.774.141v-.07a.877.877,0,0,1,.37-.774,1.073,1.073,0,0,1,.352-.158,1.14,1.14,0,0,1,.352-.035h.194c.088-.158.158-.3.211-.4l.106-.194.106-.211c.088-.158.158-.3.211-.387a2.279,2.279,0,0,1,.493-.6c-.194-.018-.37-.018-.546-.018a3.37,3.37,0,0,0-1.2.176,1.951,1.951,0,0,0-1.021.775,1.7,1.7,0,0,0-.334.986.6.6,0,0,0,.018.176.918.918,0,0,0,.387.722,1.532,1.532,0,0,1-1.32-.6,1.437,1.437,0,0,1-.3-.88,1.736,1.736,0,0,1,.053-.422,2.149,2.149,0,0,1,.986-1.3,4.488,4.488,0,0,1,2.411-.581c.246,0,.493.018.775.035.158.018.4.053.7.106a8.657,8.657,0,0,0,1.443.141c.4,0,.722-.018.933-.035.317-.018.493-.106.546-.229" transform="translate(-287.981 -561.479)" fill="#333f48"/>
        <path id="Path_2899" data-name="Path 2899" d="M391.908,693.375a.386.386,0,0,1,.176-.158.514.514,0,0,1,.158-.035h.035a.215.215,0,0,1,.158.053.091.091,0,0,1,.035.07.133.133,0,0,1-.018.07,7.154,7.154,0,0,1-1.109,1.5,2.356,2.356,0,0,1-1.672.722,1.219,1.219,0,0,1-1.3-.774,1.348,1.348,0,0,1-.07-.475,1.334,1.334,0,0,1,.018-.264,1.79,1.79,0,0,1,.264-.722,6.481,6.481,0,0,1,1.144-1.461,2.547,2.547,0,0,1,1.725-.774.692.692,0,0,1,.7.387.853.853,0,0,1,.053.317,1.4,1.4,0,0,1-.106.51,2.085,2.085,0,0,1-.581.827,1.447,1.447,0,0,1-.915.387c-.229,0-.37-.088-.4-.264a.223.223,0,0,1-.018-.106.344.344,0,0,1,.018-.141.649.649,0,0,0,.3.088,1.032,1.032,0,0,0,.229-.035.941.941,0,0,0,.44-.317.8.8,0,0,0,.194-.387v-.018c0-.106-.07-.158-.194-.158a1.216,1.216,0,0,0-.757.3,1.733,1.733,0,0,0-.475.651,1.11,1.11,0,0,0-.088.387.731.731,0,0,0,.053.282.66.66,0,0,0,.634.3,1.861,1.861,0,0,0,.7-.141,1.74,1.74,0,0,0,.669-.616" transform="translate(-319.952 -569.471)" fill="#333f48"/>
        <path id="Path_2900" data-name="Path 2900" d="M411.008,693.375a.386.386,0,0,1,.176-.158.514.514,0,0,1,.158-.035h.035a.215.215,0,0,1,.158.053.091.091,0,0,1,.035.07.133.133,0,0,1-.018.07,7.152,7.152,0,0,1-1.109,1.5,2.356,2.356,0,0,1-1.672.722,1.219,1.219,0,0,1-1.3-.774,1.349,1.349,0,0,1-.07-.475,1.33,1.33,0,0,1,.018-.264,1.79,1.79,0,0,1,.264-.722,6.482,6.482,0,0,1,1.144-1.461,2.547,2.547,0,0,1,1.725-.774.692.692,0,0,1,.7.387.852.852,0,0,1,.053.317,1.4,1.4,0,0,1-.106.51,2.086,2.086,0,0,1-.581.827,1.447,1.447,0,0,1-.915.387c-.229,0-.37-.088-.4-.264a.223.223,0,0,1-.018-.106.344.344,0,0,1,.018-.141.649.649,0,0,0,.3.088,1.032,1.032,0,0,0,.229-.035.941.941,0,0,0,.44-.317.8.8,0,0,0,.194-.387v-.018c0-.106-.07-.158-.194-.158a1.216,1.216,0,0,0-.757.3,1.733,1.733,0,0,0-.475.651,1.11,1.11,0,0,0-.088.387.73.73,0,0,0,.053.282.66.66,0,0,0,.634.3,1.86,1.86,0,0,0,.7-.141,1.739,1.739,0,0,0,.669-.616" transform="translate(-335.69 -569.471)" fill="#333f48"/>
        <path id="Path_2901" data-name="Path 2901" d="M431.514,671.622a.611.611,0,0,1,.669.528,1.358,1.358,0,0,1,.035.264,2.531,2.531,0,0,1-.4,1.2c-.07.123-.176.317-.317.546-.053.07-.106.176-.194.317l-.106.158-.106.176c-.37.6-.651,1.091-.845,1.461a5.148,5.148,0,0,0-.739,1.637c0,.07.035.106.088.106a.513.513,0,0,0,.158-.035.6.6,0,0,0,.211-.106,1.778,1.778,0,0,0,.51-.6.358.358,0,0,1,.334-.194h.053a.215.215,0,0,1,.158.053.133.133,0,0,1,.035.07.106.106,0,0,1-.018.07,10.782,10.782,0,0,1-1,1.5,1.605,1.605,0,0,1-1.127.722.537.537,0,0,1-.563-.458.975.975,0,0,1-.035-.317v-.123a2.1,2.1,0,0,1-.493.458,2.12,2.12,0,0,1-.6.3,2.528,2.528,0,0,1-.81.141.717.717,0,0,1-.792-.7.858.858,0,0,1-.018-.211,2.625,2.625,0,0,1,.422-1.32,6.2,6.2,0,0,1,1.215-1.514,2.514,2.514,0,0,1,1.672-.722.723.723,0,0,1,.774.475l.282-.475a10.061,10.061,0,0,0,1.549-3.4m-4.26,6.407c.528,0,1.109-.44,1.707-1.32-.053,0-.088.018-.123.018-.176,0-.264-.07-.282-.211.123-.018.176-.088.211-.211v-.035c0-.088-.053-.141-.158-.141a1.59,1.59,0,0,0-.845.3,2.7,2.7,0,0,0-.686.651,1.17,1.17,0,0,0-.264.616v.035c.018.194.158.3.44.3" transform="translate(-350.686 -553.404)" fill="#333f48"/>
        <path id="Path_2902" data-name="Path 2902" d="M473.195,677.29a.385.385,0,0,1,.176-.158.513.513,0,0,1,.158-.035h.035c.07,0,.123.018.141.053a.134.134,0,0,1,.035.07.065.065,0,0,1-.018.053,7.267,7.267,0,0,1-1.144,1.514,2,2,0,0,1-1.3.722c-.44,0-.651-.158-.651-.475v-.053a2.923,2.923,0,0,1,.493-1.179c.088-.158.229-.37.4-.634l.088-.141.088-.141a2.577,2.577,0,0,0,.158-.264,1.266,1.266,0,0,0,.211-.458c0-.053-.018-.07-.07-.07a1.446,1.446,0,0,0-.845.528c-.229.246-.563.634-1,1.179l-.246.317c-.106.123-.176.229-.246.317-.176.229-.334.4-.458.546-.317.352-.563.528-.7.528a.476.476,0,0,1-.546-.44v-.106a1.52,1.52,0,0,1,.211-.722l1.848-3.2c.123-.211.246-.422.352-.634a5.355,5.355,0,0,1-.563.035h-.176c-.194,0-.4.158-.634.458-.141.194-.4.616-.792,1.285-.07.141-.194.334-.334.616l-.088.176-.106.176a3.839,3.839,0,0,1-.211.387c-.37.669-.7,1.214-1,1.655-.933,1.32-1.831,1.971-2.728,1.971a1.824,1.824,0,0,1-1.285-.422,1.4,1.4,0,0,1-.44-.986v-.088a1.825,1.825,0,0,1,.282-.986,1.507,1.507,0,0,1,.88-.7,1.228,1.228,0,0,0-.176.563.849.849,0,0,0,.194.528,1.112,1.112,0,0,0,.915.422c.669,0,1.338-.493,2.007-1.461a12.769,12.769,0,0,0,.757-1.25c.053-.088.106-.194.158-.3l.088-.141.07-.141c.123-.229.211-.4.282-.528l.106-.194.106-.194c.088-.176.158-.3.211-.387a1.98,1.98,0,0,1,.493-.6c-.176-.018-.352-.018-.51-.018a3.58,3.58,0,0,0-1.232.176,1.884,1.884,0,0,0-1.021.775,1.754,1.754,0,0,0-.334,1,.659.659,0,0,0,.018.176.918.918,0,0,0,.387.722,1.566,1.566,0,0,1-1.32-.581,1.476,1.476,0,0,1-.3-.88,1.738,1.738,0,0,1,.053-.422,2.116,2.116,0,0,1,1-1.3,4.488,4.488,0,0,1,2.411-.581,6.654,6.654,0,0,1,.986.07c.106.018.264.035.458.07l.229.035.229.035a4.322,4.322,0,0,0,.475.035,1.652,1.652,0,0,0,1.232-.44,1.727,1.727,0,0,0,.475-1.285,1.334,1.334,0,0,0-.018-.264.611.611,0,0,1,.669.528,1.361,1.361,0,0,1,.035.264,2.531,2.531,0,0,1-.4,1.2l-2.112,3.679a10.861,10.861,0,0,1,1.549-1.567,2.61,2.61,0,0,1,1.531-.669c.387,0,.581.123.581.387v.07a2.986,2.986,0,0,1-.493,1.021l-.194.282-.088.141-.088.141-.317.475a.7.7,0,0,0-.141.37.093.093,0,0,0,.106.106.907.907,0,0,0,.493-.229,1.456,1.456,0,0,0,.475-.528" transform="translate(-380.679 -553.404)" fill="#333f48"/>
        <path id="Path_2903" data-name="Path 2903" d="M527.808,693.375a.386.386,0,0,1,.176-.158.514.514,0,0,1,.158-.035h.035a.215.215,0,0,1,.158.053.092.092,0,0,1,.035.07.133.133,0,0,1-.018.07,7.149,7.149,0,0,1-1.109,1.5,2.355,2.355,0,0,1-1.672.722,1.219,1.219,0,0,1-1.3-.774,1.349,1.349,0,0,1-.07-.475,1.334,1.334,0,0,1,.018-.264,1.79,1.79,0,0,1,.264-.722,6.48,6.48,0,0,1,1.144-1.461,2.547,2.547,0,0,1,1.725-.774.692.692,0,0,1,.7.387.852.852,0,0,1,.053.317,1.4,1.4,0,0,1-.106.51,2.086,2.086,0,0,1-.581.827,1.447,1.447,0,0,1-.915.387c-.229,0-.37-.088-.4-.264a.223.223,0,0,1-.018-.106.342.342,0,0,1,.018-.141.649.649,0,0,0,.3.088,1.032,1.032,0,0,0,.229-.035.941.941,0,0,0,.44-.317.794.794,0,0,0,.194-.387v-.018c0-.106-.07-.158-.194-.158a1.216,1.216,0,0,0-.757.3,1.732,1.732,0,0,0-.475.651,1.11,1.11,0,0,0-.088.387.731.731,0,0,0,.053.282.66.66,0,0,0,.634.3,1.861,1.861,0,0,0,.7-.141,1.623,1.623,0,0,0,.669-.616" transform="translate(-431.931 -569.471)" fill="#333f48"/>
        <path id="Path_2904" data-name="Path 2904" d="M563.815,683.394a.726.726,0,0,1,.792.7.855.855,0,0,1,.018.211,2.624,2.624,0,0,1-.422,1.32,6.2,6.2,0,0,1-1.215,1.514,2.547,2.547,0,0,1-1.672.722.644.644,0,0,1-.7-.616l-.176.317-.088.158-.088.158a12.263,12.263,0,0,0-1.531,3.186v.018a.611.611,0,0,1-.669-.528,1.357,1.357,0,0,1-.035-.264,2.531,2.531,0,0,1,.4-1.2l2.077-3.45a3.159,3.159,0,0,0,.422-1.461,2.01,2.01,0,0,0-.088-.581,1.17,1.17,0,0,0-.458-.616,1.279,1.279,0,0,0-.792-.229,1.876,1.876,0,0,0-1.76.757,1.149,1.149,0,0,0-.176.634v.106a1.518,1.518,0,0,0,.3.774,4.487,4.487,0,0,1,.687,1.514,2.863,2.863,0,0,1,.088.757,2.385,2.385,0,0,1-.106.722,1.931,1.931,0,0,1-.88,1.127,3.536,3.536,0,0,1-1.9.44,2.58,2.58,0,0,1-1.954-.634,1.422,1.422,0,0,1-.387-1.021,2.621,2.621,0,0,1,.035-.37,2.706,2.706,0,0,1,.757-1.408,1.925,1.925,0,0,1,1.391-.634,1.342,1.342,0,0,1,1.074.422.767.767,0,0,1,.211.51.856.856,0,0,1-.106.387,1.137,1.137,0,0,0-.37-.352A1.236,1.236,0,0,0,556,686.4a.907.907,0,0,0-.634.229.842.842,0,0,0-.317.51.344.344,0,0,0-.018.123.475.475,0,0,0,.176.387,1.122,1.122,0,0,0,.792.229,1.438,1.438,0,0,0,1.531-.88,1.388,1.388,0,0,0,.088-.528,1.516,1.516,0,0,0-.018-.282,2.3,2.3,0,0,0-.3-.862,2.488,2.488,0,0,1-.352-1.25v-.035a2.139,2.139,0,0,1,.317-1.127,2.314,2.314,0,0,1,.968-.862,3.5,3.5,0,0,1,1.584-.334,2.679,2.679,0,0,1,1.866.616,1.721,1.721,0,0,1,.581,1.338,2.474,2.474,0,0,1-.018.352,2.358,2.358,0,0,1,.634-.387,1.724,1.724,0,0,1,.933-.246m-1.954,2.957a1.59,1.59,0,0,0,.845-.3,2.549,2.549,0,0,0,.7-.669,1.162,1.162,0,0,0,.264-.634v-.035c-.018-.194-.158-.3-.44-.3-.475,0-1.039.44-1.672,1.32h.088c.176,0,.264.07.282.211-.123.018-.176.088-.211.211v.053a.13.13,0,0,0,.141.141" transform="translate(-456.073 -561.726)" fill="#333f48"/>
        <path id="Path_2905" data-name="Path 2905" d="M617.964,685.881a1.383,1.383,0,0,0,.634-.6.358.358,0,0,1,.334-.194h.053a.215.215,0,0,1,.158.053.134.134,0,0,1,.035.07.105.105,0,0,1-.018.07c-.106.176-.176.3-.229.387a3.708,3.708,0,0,1-.246.387,5.471,5.471,0,0,1-.546.722,1.918,1.918,0,0,1-1.443.722c-.669,0-1.056-.264-1.162-.774a1.544,1.544,0,0,1-.035-.282,2.343,2.343,0,0,1,.37-1.162,11.5,11.5,0,0,0,.739-1.5,2.25,2.25,0,0,0,.158-.7v-.035a.643.643,0,0,1,.7.458,1.041,1.041,0,0,1,.035.246,2.714,2.714,0,0,1-.458,1.267,1.143,1.143,0,0,0-.176.546.344.344,0,0,0,.018.141.4.4,0,0,0,.422.282,1.139,1.139,0,0,0,.651-.106m.07-3.415a.664.664,0,0,1-.44.194.358.358,0,0,1-.334-.194.588.588,0,0,1-.053-.264.884.884,0,0,1,.035-.211,1.1,1.1,0,0,1,.282-.475.663.663,0,0,1,.44-.194.358.358,0,0,1,.334.194.458.458,0,0,1,.07.264,1.052,1.052,0,0,1-.035.211.959.959,0,0,1-.3.475" transform="translate(-507.16 -561.396)" fill="#333f48"/>
        <path id="Path_2906" data-name="Path 2906" d="M636.861,692.057a.358.358,0,0,1,.334-.194h.053c.07,0,.123.018.141.053a.133.133,0,0,1,.035.07.106.106,0,0,1-.018.07l-.229.387c-.088.158-.158.282-.229.387a5.624,5.624,0,0,1-.493.722,1.57,1.57,0,0,1-1.215.722.867.867,0,0,1-.968-.774,1.425,1.425,0,0,1-.018-.282,2.444,2.444,0,0,1,.352-1.179,11.223,11.223,0,0,0,.616-1.2,1.933,1.933,0,0,1-.722.141.723.723,0,0,1-.194-.018c-.07.158-.176.352-.282.546-.088.141-.176.317-.282.51a.35.35,0,0,1-.317.194h-.053c-.07,0-.123-.018-.141-.053a.133.133,0,0,1-.035-.07.065.065,0,0,1,.018-.053,11.066,11.066,0,0,0,.651-1.267.731.731,0,0,1-.229-.581.721.721,0,0,1,.158-.493.522.522,0,0,1,.334-.176h.035a.386.386,0,0,1,.3.123.518.518,0,0,1,.158.387h.053a2.377,2.377,0,0,0,.6-.106l.158-.053.158-.035a1.035,1.035,0,0,1,.3-.035.415.415,0,0,1,.475.458v.018a3.46,3.46,0,0,1-.563,1.5,1.337,1.337,0,0,0-.211.634v.07a.278.278,0,0,0,.282.282c.37.018.7-.229.986-.7" transform="translate(-521.745 -568.153)" fill="#333f48"/>
        <path id="Path_2907" data-name="Path 2907" d="M654.464,685.881a1.383,1.383,0,0,0,.634-.6.358.358,0,0,1,.334-.194h.053a.215.215,0,0,1,.158.053.134.134,0,0,1,.035.07.106.106,0,0,1-.018.07c-.106.176-.176.3-.229.387a3.708,3.708,0,0,1-.246.387,5.471,5.471,0,0,1-.546.722,1.918,1.918,0,0,1-1.443.722c-.669,0-1.056-.264-1.162-.774a1.539,1.539,0,0,1-.035-.282,2.343,2.343,0,0,1,.37-1.162,11.509,11.509,0,0,0,.739-1.5,2.248,2.248,0,0,0,.158-.7v-.035a.643.643,0,0,1,.7.458,1.04,1.04,0,0,1,.035.246,2.714,2.714,0,0,1-.458,1.267,1.143,1.143,0,0,0-.176.546.344.344,0,0,0,.018.141.4.4,0,0,0,.422.282,1.139,1.139,0,0,0,.651-.106m.07-3.415a.663.663,0,0,1-.44.194.358.358,0,0,1-.334-.194.588.588,0,0,1-.053-.264.884.884,0,0,1,.035-.211,1.1,1.1,0,0,1,.282-.475.663.663,0,0,1,.44-.194.358.358,0,0,1,.334.194.458.458,0,0,1,.07.264,1.052,1.052,0,0,1-.035.211.959.959,0,0,1-.3.475" transform="translate(-537.236 -561.396)" fill="#333f48"/>
        <path id="Path_2908" data-name="Path 2908" d="M671.161,673.417c.458,0,.757.141.863.422a.458.458,0,0,1,0,.352.868.868,0,0,1-.246.334.57.57,0,0,0-.458-.211h-.035a5.125,5.125,0,0,0-.687.088l-1.531,2.658a1.143,1.143,0,0,0-.176.546.344.344,0,0,0,.018.141.4.4,0,0,0,.422.282,1.539,1.539,0,0,0,.651-.141,1.384,1.384,0,0,0,.634-.6.385.385,0,0,1,.176-.158.513.513,0,0,1,.158-.035h.035a.215.215,0,0,1,.158.053.134.134,0,0,1,.035.07.106.106,0,0,1-.018.07c-.106.176-.176.3-.229.387a3.708,3.708,0,0,1-.246.387,5.466,5.466,0,0,1-.546.722,1.918,1.918,0,0,1-1.443.722c-.669,0-1.056-.264-1.162-.775a1.542,1.542,0,0,1-.035-.282,2.343,2.343,0,0,1,.37-1.162l1.285-2.236c.123-.229.246-.44.37-.669a.548.548,0,0,1-.334-.493v-.035a.584.584,0,0,1,.246-.475.541.541,0,0,0,.493.194h.035a5.6,5.6,0,0,0,.757-1.936v-.018a.635.635,0,0,1,.669.475.875.875,0,0,1,.035.317,2.24,2.24,0,0,1-.264,1" transform="translate(-550.007 -553.404)" fill="#333f48"/>
      </g>
    </g>
  </g>
</svg>
