<svg xmlns="http://www.w3.org/2000/svg" xmlns:xlink="http://www.w3.org/1999/xlink" viewBox="0 0 432.7 398.1"><defs><clipPath id="clip-path"><path d="M-333.6,398.1c-25.3,0-56.3-17.9-69-39.8l-68.9-119.4c-12.7-21.9-12.7-57.8,0-79.7l68.9-119.4C-389.9,17.9-358.9,0-333.6,0h137.9c25.3,0,56.3,17.9,69,39.8l68.9,119.4c12.7,21.9,12.7,57.8,0,79.7l-68.9,119.4c-12.7,21.9-43.7,39.8-69,39.8Z" style="fill:none"/></clipPath><clipPath id="clip-path-2"><path d="M147.5,398c-25.3,0-56.3-17.9-68.9-39.8L9.7,238.8C-3,217-3,181.2,9.7,159.3L78.6,39.9C91.2,18.1,122.2.2,147.5.2H285.3c25.2,0,56.2,17.9,68.9,39.7l68.9,119.4c12.6,21.9,12.6,57.7,0,79.5L354.2,358.2c-12.7,21.9-43.7,39.8-68.9,39.8Z" style="fill:none"/></clipPath><clipPath id="clip-path-3"><path d="M632.2,398.8c-25.4,0-56.5-18-69.2-39.9L493.8,239c-12.7-21.9-12.7-57.9,0-79.9L563,39.3c12.7-22,43.8-40,69.2-40H770.6c25.3,0,56.5,18,69.2,40L909,159.1c12.6,22,12.6,58,0,79.9L839.8,358.9c-12.7,21.9-43.9,39.9-69.2,39.9Z" style="fill:none"/></clipPath></defs><g style="isolation:isolate"><g id="Layer_1" data-name="Layer 1"><g style="clip-path:url(#clip-path)"><g style="mix-blend-mode:multiply"><path d="M-297.2,461.3c-27.8,0-62-19.7-75.9-43.8l-75.8-131.4c-13.9-24-13.9-63.5,0-87.6l75.8-131.3c13.9-24.1,48.1-43.8,75.9-43.8h151.7c27.8,0,61.9,19.7,75.8,43.8L6.2,198.5c13.9,24.1,13.9,63.6,0,87.6L-69.7,417.5c-13.9,24.1-48,43.8-75.8,43.8Z" style="fill:#fff;opacity:0"/><path d="M-296.4,459c-27.5,0-61.3-19.5-75.1-43.3l-75-130c-13.8-23.9-13.8-62.9,0-86.7l75-130c13.8-23.8,47.6-43.3,75.1-43.3h150.1c27.5,0,61.3,19.5,75,43.3L3.8,199c13.7,23.8,13.7,62.8,0,86.7l-75.1,130c-13.7,23.8-47.5,43.3-75,43.3Z" style="fill:#fbfbfb;opacity:0.009803921915590525"/><path d="M-295.6,456.6c-27.2,0-60.6-19.3-74.2-42.8l-74.3-128.6c-13.6-23.6-13.6-62.1,0-85.7l74.3-128.6c13.6-23.6,47-42.9,74.2-42.9h148.5c27.2,0,60.6,19.3,74.2,42.9L1.3,199.5c13.6,23.6,13.6,62.1,0,85.7L-72.9,413.8c-13.6,23.5-47,42.8-74.2,42.8Z" style="fill:#f6f6f6;opacity:0.01960784347005621"/><path d="M-294.8,454.3c-26.9,0-59.9-19.1-73.4-42.4l-73.4-127.2c-13.5-23.3-13.5-61.4,0-84.8l73.4-127.1c13.5-23.3,46.5-42.4,73.4-42.4h146.9c26.9,0,59.9,19.1,73.4,42.4L-1.1,199.9c13.5,23.4,13.5,61.5,0,84.8L-74.5,411.9c-13.5,23.3-46.5,42.4-73.4,42.4Z" style="fill:#f2f2f2;opacity:0.02941176502452189"/><path d="M-294,451.9c-26.6,0-59.3-18.8-72.6-41.9l-72.6-125.7c-13.3-23.1-13.3-60.8,0-83.9l72.6-125.7c13.3-23.1,46-42,72.6-42h145.2c26.7,0,59.3,18.9,72.6,42L-3.5,200.4c13.3,23.1,13.3,60.8,0,83.9L-76.2,410c-13.3,23.1-45.9,41.9-72.6,41.9Z" style="fill:#eeedee;opacity:0.03921568657898757"/><path d="M-293.2,449.6c-26.3,0-58.6-18.6-71.8-41.4l-71.8-124.4c-13.1-22.8-13.1-60.1,0-82.9L-365,76.5c13.2-22.8,45.5-41.4,71.8-41.4h143.6c26.4,0,58.7,18.6,71.8,41.4L-6,200.9C7.2,223.7,7.2,261-6,283.8L-77.8,408.2c-13.1,22.8-45.4,41.4-71.8,41.4Z" style="fill:#e9e9e9;opacity:0.049019608133453255"/><path d="M-292.4,447.3c-26,0-57.9-18.5-70.9-41l-71-123c-13-22.5-13-59.4,0-81.9l71-123c13-22.5,44.9-41,70.9-41h142c26,0,58,18.5,71,41l71,123c13,22.5,13,59.4,0,81.9l-71,123c-13,22.5-45,41-71,41Z" style="fill:#e5e5e5;opacity:0.058823529687918936"/></g><g style="mix-blend-mode:multiply"><path d="M-83.5,401.6c-12.6,21.9-43.6,39.8-68.9,39.8H-290.3c-25.3,0-56.3-17.9-69-39.8l-68.9-119.4c-12.7-21.9-12.7-57.8,0-79.7l68.9-119.4c12.7-21.9,43.7-39.8,69-39.8h137.9c25.3,0,56.3,17.9,68.9,39.8l69,119.4c12.7,21.9,12.7,57.8,0,79.7ZM-221.4-38.9C-376.7-38.9-502.6,87-502.6,242.3s125.9,281.3,281.2,281.3S59.9,397.7,59.9,242.3-66-38.9-221.4-38.9Z" style="fill:#fff;opacity:0"/><path d="M-84.3,400.7c-12.6,21.9-43.7,39.9-69,39.9H-291.2c-25.3,0-56.3-18-68.9-39.9l-69-119.4c-12.6-21.9-12.6-57.7,0-79.6l69-119.5c12.6-21.9,43.6-39.8,68.9-39.8h137.9c25.3,0,56.4,17.9,69,39.8l69,119.5c12.6,21.9,12.6,57.7,0,79.6ZM-222.2-39.8c-155.4,0-281.3,126-281.3,281.3s125.9,281.3,281.3,281.3S59.1,396.8,59.1,241.5-66.9-39.8-222.2-39.8Z" style="fill:#fbfbfb;opacity:0.009803921915590525"/><path d="M-85.1,399.9c-12.7,21.9-43.7,39.8-69,39.8H-292c-25.3,0-56.3-17.9-69-39.8l-68.9-119.4c-12.7-21.9-12.7-57.8,0-79.7L-361,81.4c12.7-21.9,43.7-39.8,69-39.8h137.9c25.3,0,56.3,17.9,69,39.8l68.9,119.4c12.7,21.9,12.7,57.8,0,79.7Zm-138-440.5c-155.3,0-281.2,125.9-281.2,281.2s125.9,281.3,281.2,281.3S58.2,396,58.2,240.6-67.7-40.6-223.1-40.6Z" style="fill:#f6f6f6;opacity:0.01960784347005621"/><path d="M-86,399.1c-12.6,21.8-43.7,39.8-69,39.8H-292.9c-25.3,0-56.3-18-68.9-39.8l-69-119.5c-12.6-21.9-12.6-57.7,0-79.6l69-119.5c12.6-21.9,43.6-39.8,68.9-39.8H-155c25.3,0,56.4,17.9,69,39.8L-17,200c12.6,21.9,12.6,57.7,0,79.6ZM-223.9-41.5c-155.3,0-281.3,126-281.3,281.3s126,281.3,281.3,281.3S57.4,395.1,57.4,239.8-68.6-41.5-223.9-41.5Z" style="fill:#f2f2f2;opacity:0.02941176502452189"/><path d="M-86.8,398.2c-12.7,21.9-43.7,39.8-69,39.8H-293.7c-25.3,0-56.3-17.9-69-39.8l-68.9-119.4c-12.7-21.9-12.7-57.8,0-79.7l68.9-119.4c12.7-21.9,43.7-39.8,69-39.8h137.9c25.3,0,56.3,17.9,69,39.8l68.9,119.4c12.7,21.9,12.7,57.8,0,79.7Zm-138-440.5C-380.1-42.3-506,83.6-506,239s125.9,281.2,281.2,281.2S56.5,394.3,56.5,239-69.4-42.3-224.8-42.3Z" style="fill:#eeedee;opacity:0.03921568657898757"/><path d="M-87.7,397.4c-12.6,21.9-43.7,39.8-69,39.8H-294.6c-25.3,0-56.3-17.9-68.9-39.8l-69-119.5c-12.6-21.9-12.6-57.7,0-79.6l69-119.5C-350.9,56.9-319.9,39-294.6,39h137.9c25.3,0,56.4,17.9,69,39.8l69,119.5c12.6,21.9,12.6,57.7,0,79.6ZM-225.6-43.2c-155.3,0-281.3,126-281.3,281.3s126,281.3,281.3,281.3S55.7,393.4,55.7,238.1-70.3-43.2-225.6-43.2Z" style="fill:#e9e9e9;opacity:0.049019608133453255"/><path d="M-88.5,396.5c-12.7,21.9-43.7,39.8-69,39.8H-295.4c-25.3,0-56.3-17.9-69-39.8l-68.9-119.4c-12.7-21.9-12.7-57.8,0-79.7L-364.4,78c12.7-21.9,43.7-39.8,69-39.8h137.9c25.3,0,56.3,17.9,69,39.8l68.9,119.4c12.7,21.9,12.7,57.8,0,79.7ZM-226.5-44C-381.8-44-507.7,81.9-507.7,237.3s125.9,281.2,281.2,281.2S54.8,392.6,54.8,237.3-71.1-44-226.5-44Z" style="fill:#e5e5e5;opacity:0.058823529687918936"/><path d="M-89.4,395.7c-12.6,21.9-43.7,39.8-68.9,39.8h-138c-25.2,0-56.3-17.9-68.9-39.8l-69-119.5c-12.6-21.9-12.6-57.7,0-79.6l69-119.5c12.6-21.8,43.7-39.8,68.9-39.8h138c25.2,0,56.3,18,68.9,39.8l69,119.5c12.6,21.9,12.6,57.7,0,79.6ZM-227.3-44.9c-155.3,0-281.3,126-281.3,281.3s126,281.3,281.3,281.3S54,391.7,54,236.4-72-44.9-227.3-44.9Z" style="fill:#e1e0e0;opacity:0.06862745124238462"/><path d="M-90.2,394.8c-12.7,21.9-43.7,39.8-69,39.8H-297.1c-25.3,0-56.3-17.9-69-39.8L-435,275.4c-12.7-21.9-12.7-57.8,0-79.7l68.9-119.4c12.7-21.9,43.7-39.8,69-39.8h137.9c25.3,0,56.3,17.9,69,39.8l68.9,119.4c12.7,21.9,12.7,57.8,0,79.7Zm-138-440.5c-155.3,0-281.2,125.9-281.2,281.3s125.9,281.2,281.2,281.2S53.1,390.9,53.1,235.6-72.8-45.7-228.2-45.7Z" style="fill:#dcdcdc;opacity:0.07843137279685031"/><path d="M-91.1,394c-12.6,21.9-43.7,39.8-68.9,39.8H-298c-25.2,0-56.3-17.9-68.9-39.8l-69-119.5c-12.6-21.9-12.6-57.7,0-79.6l69-119.4c12.6-21.9,43.7-39.9,68.9-39.9h138c25.2,0,56.3,18,68.9,39.9l69,119.4c12.6,21.9,12.6,57.7,0,79.6ZM-229-46.6c-155.3,0-281.3,126-281.3,281.3S-384.3,516-229,516,52.3,390,52.3,234.7-73.7-46.6-229-46.6Z" style="fill:#d8d7d8;opacity:0.088235294351316"/><path d="M-91.9,393.1c-12.7,21.9-43.7,39.8-69,39.8H-298.8c-25.3,0-56.3-17.9-69-39.8l-68.9-119.4c-12.7-21.9-12.7-57.8,0-79.7l68.9-119.4c12.7-21.9,43.7-39.8,69-39.8h137.9c25.3,0,56.3,17.9,69,39.8L-23,194c12.7,21.9,12.7,57.8,0,79.7Zm-138-440.5c-155.3,0-281.2,125.9-281.2,281.3s125.9,281.2,281.2,281.2S51.4,389.2,51.4,233.9-74.5-47.4-229.9-47.4Z" style="fill:#d4d3d3;opacity:0.09803921590578168"/><path d="M-92.8,392.3c-12.6,21.9-43.7,39.8-68.9,39.8h-138c-25.2,0-56.3-17.9-68.9-39.8l-69-119.5c-12.6-21.9-12.6-57.7,0-79.6l69-119.4c12.6-21.9,43.7-39.9,68.9-39.9h138c25.2,0,56.3,18,68.9,39.9l69,119.4c12.6,21.9,12.6,57.7,0,79.6ZM-230.7-48.3C-386-48.3-512,77.7-512,233s126,281.3,281.3,281.3S50.6,388.4,50.6,233-75.4-48.3-230.7-48.3Z" style="fill:#d0cfcf;opacity:0.10784313746024737"/><path d="M-93.6,391.4c-12.7,21.9-43.7,39.8-69,39.8H-300.5c-25.3,0-56.3-17.9-69-39.8L-438.4,272c-12.7-21.9-12.7-57.8,0-79.7l68.9-119.4c12.7-21.9,43.7-39.8,69-39.8h137.9c25.3,0,56.3,17.9,69,39.8l68.9,119.4c12.7,21.9,12.7,57.8,0,79.7ZM-231.5-49.1c-155.4,0-281.3,125.9-281.3,281.3s125.9,281.2,281.3,281.2S49.7,387.5,49.7,232.2-76.2-49.1-231.5-49.1Z" style="fill:#cbcacb;opacity:0.11764705901471306"/><path d="M-94.5,390.6c-12.6,21.9-43.7,39.8-68.9,39.8h-138c-25.2,0-56.3-17.9-68.9-39.8l-69-119.5c-12.6-21.9-12.6-57.7,0-79.6l69-119.4c12.6-21.9,43.7-39.9,68.9-39.9h138c25.2,0,56.3,18,68.9,39.9l69,119.4c12.6,21.9,12.6,57.7,0,79.6ZM-232.4-50C-387.7-50-513.7,76-513.7,231.3s126,281.3,281.3,281.3S48.9,386.7,48.9,231.3-77.1-50-232.4-50Z" style="fill:#c7c6c6;opacity:0.12745098056917875"/><path d="M-95.3,389.7c-12.7,21.9-43.7,39.8-69,39.8H-302.2c-25.3,0-56.3-17.9-69-39.8l-68.9-119.4c-12.7-21.9-12.7-57.8,0-79.7l68.9-119.4c12.7-21.9,43.7-39.8,69-39.8h137.9c25.3,0,56.3,17.9,69,39.8l68.9,119.4c12.7,21.9,12.7,57.8,0,79.7ZM-233.2-50.8c-155.4,0-281.3,125.9-281.3,281.3s125.9,281.2,281.3,281.2S48,385.8,48,230.5-77.9-50.8-233.2-50.8Z" style="fill:#c3c2c2;opacity:0.13725490212364444"/><path d="M-96.2,388.9c-12.6,21.9-43.6,39.8-68.9,39.8h-138c-25.2,0-56.3-17.9-68.9-39.8l-69-119.5c-12.6-21.9-12.6-57.7,0-79.6l69-119.4c12.6-21.9,43.7-39.9,68.9-39.9h138c25.3,0,56.3,18,68.9,39.9l69,119.4c12.6,21.9,12.6,57.7,0,79.6ZM-234.1-51.7c-155.3,0-281.3,126-281.3,281.3s126,281.3,281.3,281.3S47.2,385,47.2,229.6-78.7-51.7-234.1-51.7Z" style="fill:#bebdbd;opacity:0.14705882367811013"/><path d="M-97,388c-12.7,21.9-43.7,39.8-69,39.8H-303.9c-25.3,0-56.3-17.9-69-39.8l-68.9-119.4c-12.7-21.9-12.7-57.8,0-79.7l68.9-119.4c12.7-21.9,43.7-39.8,69-39.8H-166c25.3,0,56.3,17.9,69,39.8l68.9,119.4c12.7,21.9,12.7,57.8,0,79.7ZM-234.9-52.5c-155.4,0-281.3,125.9-281.3,281.3S-390.3,510-234.9,510,46.3,384.1,46.3,228.8-79.6-52.5-234.9-52.5Z" style="fill:#bab9b9;opacity:0.15686274523257582"/><path d="M-97.9,387.2c-12.6,21.9-43.6,39.8-68.9,39.8h-138c-25.2,0-56.3-17.9-68.9-39.8l-69-119.5c-12.6-21.9-12.6-57.7,0-79.6l69-119.4c12.6-21.9,43.7-39.9,68.9-39.9h138c25.3,0,56.3,18,68.9,39.9l69,119.4c12.6,21.9,12.6,57.7,0,79.6ZM-235.8-53.4c-155.3,0-281.3,126-281.3,281.3s126,281.3,281.3,281.3S45.5,383.3,45.5,227.9-80.4-53.4-235.8-53.4Z" style="fill:#b6b4b5;opacity:0.1666666667870415"/><path d="M-98.7,386.3c-12.7,21.9-43.7,39.8-69,39.8H-305.6c-25.3,0-56.3-17.9-69-39.8l-68.9-119.4c-12.7-21.9-12.7-57.7,0-79.6l68.9-119.5c12.7-21.9,43.7-39.8,69-39.8h137.9c25.3,0,56.3,17.9,69,39.8l68.9,119.5c12.7,21.9,12.7,57.7,0,79.6ZM-236.6-54.2C-392-54.2-517.9,71.7-517.9,227.1S-392,508.3-236.6,508.3,44.6,382.4,44.6,227.1-81.3-54.2-236.6-54.2Z" style="fill:#b1b0b0;opacity:0.1764705883415072"/><path d="M-99.6,385.5c-12.6,21.9-43.6,39.8-68.9,39.8h-138c-25.2,0-56.3-17.9-68.9-39.8l-69-119.5c-12.6-21.9-12.6-57.7,0-79.6l69-119.4c12.6-21.9,43.7-39.8,68.9-39.8h138c25.3,0,56.3,17.9,68.9,39.8l69,119.4c12.6,21.9,12.6,57.7,0,79.6ZM-237.5-55.1c-155.3,0-281.3,126-281.3,281.3s126,281.3,281.3,281.3S43.8,381.6,43.8,226.2-82.1-55.1-237.5-55.1Z" style="fill:#adacac;opacity:0.18627450989597288"/><path d="M-100.4,384.6c-12.7,21.9-43.7,39.8-69,39.8H-307.3c-25.3,0-56.3-17.9-69-39.8l-68.9-119.4c-12.7-21.9-12.7-57.7,0-79.6l68.9-119.5c12.7-21.9,43.7-39.8,69-39.8h137.9c25.3,0,56.3,17.9,69,39.8l68.9,119.5c12.7,21.9,12.7,57.7,0,79.6ZM-238.3-55.9C-393.7-55.9-519.6,70-519.6,225.4s125.9,281.2,281.3,281.2S42.9,380.7,42.9,225.4-83-55.9-238.3-55.9Z" style="fill:#a9a7a8;opacity:0.19607843145043857"/><path d="M-101.3,383.8c-12.6,21.9-43.6,39.8-68.9,39.8H-308.1c-25.3,0-56.4-17.9-69-39.8l-69-119.5c-12.6-21.9-12.6-57.7,0-79.6l69-119.4c12.6-21.9,43.7-39.8,69-39.8h137.9c25.3,0,56.3,17.9,68.9,39.8l69,119.4c12.6,21.9,12.6,57.7,0,79.6ZM-239.2-56.7c-155.3,0-281.3,125.9-281.3,281.2s126,281.3,281.3,281.3S42.1,379.9,42.1,224.5-83.8-56.7-239.2-56.7Z" style="fill:#a4a3a3;opacity:0.20588235300490426"/><path d="M-102.1,382.9c-12.7,21.9-43.7,39.8-69,39.8H-309c-25.3,0-56.3-17.9-69-39.8l-68.9-119.4c-12.7-21.9-12.7-57.7,0-79.6L-378,64.4c12.7-21.9,43.7-39.8,69-39.8h137.9c25.3,0,56.3,17.9,69,39.8l68.9,119.5c12.7,21.9,12.7,57.7,0,79.6ZM-240-57.6c-155.4,0-281.3,125.9-281.3,281.3S-395.4,504.9-240,504.9,41.2,379,41.2,223.7-84.7-57.6-240-57.6Z" style="fill:#a09e9f;opacity:0.21568627455936995"/><path d="M-103,382.1c-12.6,21.9-43.6,39.8-68.9,39.8H-309.8c-25.3,0-56.4-17.9-69-39.8l-69-119.5c-12.6-21.9-12.6-57.7,0-79.6l69-119.4c12.6-21.9,43.7-39.8,69-39.8h137.9c25.3,0,56.3,17.9,68.9,39.8L-34,183c12.6,21.9,12.6,57.7,0,79.6ZM-240.9-58.4c-155.3,0-281.2,125.9-281.2,281.2s125.9,281.3,281.2,281.3S40.4,378.2,40.4,222.8-85.5-58.4-240.9-58.4Z" style="fill:#9c9a9a;opacity:0.22549019611383564"/><path d="M-103.8,381.2c-12.7,21.9-43.7,39.8-69,39.8H-310.7c-25.3,0-56.3-17.9-69-39.8l-68.9-119.4c-12.7-21.9-12.7-57.7,0-79.6l68.9-119.5c12.7-21.9,43.7-39.8,69-39.8h137.9c25.3,0,56.3,17.9,69,39.8l69,119.5c12.6,21.9,12.6,57.7,0,79.6ZM-241.7-59.3C-397.1-59.3-523,66.6-523,222s125.9,281.2,281.3,281.2S39.5,377.3,39.5,222-86.4-59.3-241.7-59.3Z" style="fill:#979696;opacity:0.23529411766830133"/><path d="M-104.7,380.4c-12.6,21.9-43.6,39.8-68.9,39.8H-311.5c-25.3,0-56.4-17.9-69-39.8l-69-119.5c-12.6-21.8-12.6-57.7,0-79.6l69-119.4c12.6-21.9,43.7-39.8,69-39.8h137.9c25.3,0,56.3,17.9,68.9,39.8l69,119.4c12.6,21.9,12.6,57.8,0,79.6ZM-242.6-60.1c-155.3,0-281.2,125.9-281.2,281.2s125.9,281.3,281.2,281.3S38.7,376.5,38.7,221.1-87.2-60.1-242.6-60.1Z" style="fill:#939192;opacity:0.24509803922276702"/><path d="M-105.5,379.5c-12.6,21.9-43.7,39.9-69,39.9H-312.4c-25.3,0-56.3-18-68.9-39.9l-69-119.4c-12.6-21.9-12.6-57.7,0-79.6l69-119.5c12.6-21.9,43.6-39.8,68.9-39.8h137.9c25.3,0,56.4,17.9,69,39.8l69,119.5c12.6,21.9,12.6,57.7,0,79.6ZM-243.4-61C-398.8-61-524.7,64.9-524.7,220.3s125.9,281.3,281.3,281.3S37.8,375.6,37.8,220.3-88.1-61-243.4-61Z" style="fill:#8f8d8d;opacity:0.2549019607772327"/><path d="M-106.4,378.7c-12.6,21.9-43.6,39.8-68.9,39.8H-313.2c-25.3,0-56.4-17.9-69-39.8l-69-119.4c-12.6-21.9-12.6-57.8,0-79.7l69-119.4c12.6-21.9,43.7-39.8,69-39.8h137.9c25.3,0,56.3,17.9,68.9,39.8l69,119.4c12.6,21.9,12.6,57.8,0,79.7ZM-244.3-61.8c-155.3,0-281.2,125.9-281.2,281.2s125.9,281.3,281.2,281.3S37,374.8,37,219.4-88.9-61.8-244.3-61.8Z" style="fill:#8b8889;opacity:0.2647058823316984"/><path d="M-107.2,377.8c-12.6,21.9-43.7,39.9-69,39.9H-314.1c-25.3,0-56.3-18-68.9-39.9l-69-119.4c-12.6-21.9-12.6-57.7,0-79.6l69-119.5c12.6-21.9,43.6-39.8,68.9-39.8h137.9c25.3,0,56.4,17.9,69,39.8l69,119.5c12.6,21.9,12.6,57.7,0,79.6ZM-245.1-62.7c-155.4,0-281.3,125.9-281.3,281.3s125.9,281.3,281.3,281.3S36.1,373.9,36.1,218.6-89.8-62.7-245.1-62.7Z" style="fill:#868485;opacity:0.2745098038861641"/><path d="M-108.1,377c-12.6,21.9-43.6,39.8-68.9,39.8H-314.9c-25.3,0-56.3-17.9-69-39.8l-69-119.4c-12.6-21.9-12.6-57.8,0-79.7l69-119.4c12.7-21.9,43.7-39.8,69-39.8H-177c25.3,0,56.3,17.9,68.9,39.8l69,119.4c12.7,21.9,12.7,57.8,0,79.7ZM-246-63.5c-155.3,0-281.2,125.9-281.2,281.2S-401.3,499-246,499,35.3,373.1,35.3,217.7-90.6-63.5-246-63.5Z" style="fill:#828080;opacity:0.28431372544062977"/><path d="M-108.9,376.1c-12.6,21.9-43.7,39.9-69,39.9H-315.8c-25.3,0-56.3-18-68.9-39.9l-69-119.4c-12.6-21.9-12.6-57.7,0-79.6l69-119.5c12.6-21.9,43.6-39.8,68.9-39.8h137.9c25.3,0,56.4,17.9,69,39.8l69,119.5c12.6,21.9,12.6,57.7,0,79.6ZM-246.8-64.4c-155.4,0-281.3,125.9-281.3,281.3s125.9,281.3,281.3,281.3S34.4,372.2,34.4,216.9-91.5-64.4-246.8-64.4Z" style="fill:#7e7b7c;opacity:0.29411764699509546"/><path d="M-109.8,375.3c-12.6,21.9-43.6,39.8-68.9,39.8H-316.6c-25.3,0-56.3-17.9-69-39.8l-68.9-119.4c-12.7-21.9-12.7-57.8,0-79.7l68.9-119.4c12.7-21.9,43.7-39.8,69-39.8h137.9c25.3,0,56.3,17.9,68.9,39.8l69,119.4c12.7,21.9,12.7,57.8,0,79.7ZM-247.7-65.2C-403-65.2-528.9,60.7-528.9,216S-403,497.3-247.7,497.3,33.6,371.4,33.6,216-92.3-65.2-247.7-65.2Z" style="fill:#797777;opacity:0.30392156854956115"/><path d="M-110.6,374.4c-12.6,21.9-43.7,39.9-69,39.9H-317.5c-25.3,0-56.3-18-68.9-39.9l-69-119.4c-12.6-21.9-12.6-57.7,0-79.6l69-119.5c12.6-21.9,43.6-39.8,68.9-39.8h137.9c25.3,0,56.4,17.9,69,39.8l69,119.5c12.6,21.9,12.6,57.7,0,79.6ZM-248.5-66.1c-155.4,0-281.3,125.9-281.3,281.3s125.9,281.3,281.3,281.3S32.8,370.5,32.8,215.2-93.2-66.1-248.5-66.1Z" style="fill:#757273;opacity:0.31372549010402684"/><path d="M-111.5,373.6c-12.6,21.9-43.6,39.8-68.9,39.8H-318.3c-25.3,0-56.3-17.9-69-39.8l-68.9-119.4c-12.7-21.9-12.7-57.8,0-79.7l68.9-119.4c12.7-21.9,43.7-39.8,69-39.8h137.9c25.3,0,56.3,17.9,68.9,39.8l69,119.4c12.7,21.9,12.7,57.8,0,79.7ZM-249.4-66.9C-404.7-66.9-530.6,59-530.6,214.3s125.9,281.3,281.2,281.3S31.9,369.7,31.9,214.3-94-66.9-249.4-66.9Z" style="fill:#716e6f;opacity:0.3235294116584925"/><path d="M-112.3,372.7c-12.6,21.9-43.7,39.9-69,39.9H-319.2c-25.3,0-56.3-18-68.9-39.9l-69-119.4c-12.6-21.9-12.6-57.7,0-79.6l69-119.5c12.6-21.9,43.6-39.8,68.9-39.8h137.9c25.3,0,56.4,17.9,69,39.8l69,119.5c12.6,21.9,12.6,57.7,0,79.6ZM-250.2-67.8c-155.4,0-281.3,126-281.3,281.3s125.9,281.3,281.3,281.3S31.1,368.8,31.1,213.5-94.9-67.8-250.2-67.8Z" style="fill:#6c6a6a;opacity:0.3333333332129582"/><path d="M-113.1,371.9c-12.7,21.9-43.7,39.8-69,39.8H-320c-25.3,0-56.3-17.9-69-39.8l-68.9-119.4c-12.7-21.9-12.7-57.8,0-79.7L-389,53.4c12.7-21.9,43.7-39.8,69-39.8h137.9c25.3,0,56.3,17.9,69,39.8l68.9,119.4c12.7,21.9,12.7,57.8,0,79.7Zm-138-440.5c-155.3,0-281.2,125.9-281.2,281.2s125.9,281.3,281.2,281.3S30.2,368,30.2,212.6-95.7-68.6-251.1-68.6Z" style="fill:#686566;opacity:0.3431372547674239"/><path d="M-114,371.1c-12.6,21.9-43.7,39.8-69,39.8H-320.9c-25.3,0-56.3-17.9-68.9-39.8l-69-119.5c-12.6-21.9-12.6-57.7,0-79.6l69-119.5c12.6-21.9,43.6-39.8,68.9-39.8H-183c25.3,0,56.4,17.9,69,39.8L-45,172c12.6,21.9,12.6,57.7,0,79.6ZM-251.9-69.5c-155.4,0-281.3,126-281.3,281.3s125.9,281.3,281.3,281.3S29.4,367.1,29.4,211.8-96.6-69.5-251.9-69.5Z" style="fill:#646162;opacity:0.3529411763218896"/><path d="M-114.8,370.2c-12.7,21.9-43.7,39.8-69,39.8H-321.7c-25.3,0-56.3-17.9-69-39.8l-68.9-119.4c-12.7-21.9-12.7-57.8,0-79.7l68.9-119.4c12.7-21.9,43.7-39.8,69-39.8h137.9c25.3,0,56.3,17.9,69,39.8l68.9,119.4c12.7,21.9,12.7,57.8,0,79.7Zm-138-440.5C-408.1-70.3-534,55.6-534,210.9s125.9,281.3,281.2,281.3S28.5,366.3,28.5,210.9-97.4-70.3-252.8-70.3Z" style="fill:#5f5c5d;opacity:0.3627450978763553"/><path d="M-115.7,369.4c-12.6,21.9-43.7,39.8-68.9,39.8h-138c-25.3,0-56.3-17.9-68.9-39.8l-69-119.5c-12.6-21.9-12.6-57.7,0-79.6l69-119.5C-378.9,28.9-347.9,11-322.6,11h138c25.2,0,56.3,17.9,68.9,39.8l69,119.5c12.6,21.9,12.6,57.7,0,79.6ZM-253.6-71.2c-155.3,0-281.3,126-281.3,281.3s126,281.3,281.3,281.3S27.7,365.4,27.7,210.1-98.3-71.2-253.6-71.2Z" style="fill:#5b5859;opacity:0.37254901943082097"/><path d="M-116.5,368.5c-12.7,21.9-43.7,39.8-69,39.8H-323.4c-25.3,0-56.3-17.9-69-39.8l-68.9-119.4c-12.7-21.9-12.7-57.8,0-79.7L-392.4,50c12.7-21.9,43.7-39.8,69-39.8h137.9c25.3,0,56.3,17.9,69,39.8l68.9,119.4c12.7,21.9,12.7,57.8,0,79.7ZM-254.5-72C-409.8-72-535.7,53.9-535.7,209.3s125.9,281.2,281.2,281.2S26.8,364.6,26.8,209.3-99.1-72-254.5-72Z" style="fill:#575454;opacity:0.38235294098528666"/><path d="M-117.4,367.7c-12.6,21.9-43.7,39.8-68.9,39.8h-138c-25.2,0-56.3-17.9-68.9-39.8l-69-119.5c-12.6-21.9-12.6-57.7,0-79.6l69-119.5c12.6-21.9,43.7-39.8,68.9-39.8h138c25.2,0,56.3,17.9,68.9,39.8l69,119.5c12.6,21.9,12.6,57.7,0,79.6ZM-255.3-72.9c-155.3,0-281.3,126-281.3,281.3s126,281.3,281.3,281.3S26,363.7,26,208.4-100-72.9-255.3-72.9Z" style="fill:#524f50;opacity:0.39215686253975235"/><path d="M-118.2,366.8c-12.7,21.9-43.7,39.8-69,39.8H-325.1c-25.3,0-56.3-17.9-69-39.8L-463,247.4c-12.7-21.9-12.7-57.8,0-79.7l68.9-119.4c12.7-21.9,43.7-39.8,69-39.8h137.9c25.3,0,56.3,17.9,69,39.8l68.9,119.4c12.7,21.9,12.7,57.8,0,79.7Zm-138-440.5c-155.3,0-281.2,125.9-281.2,281.3s125.9,281.2,281.2,281.2S25.1,362.9,25.1,207.6-100.8-73.7-256.2-73.7Z" style="fill:#4e4b4c;opacity:0.40196078409421804"/><path d="M-119.1,366c-12.6,21.9-43.7,39.8-68.9,39.8H-326c-25.2,0-56.3-17.9-68.9-39.8l-69-119.5c-12.6-21.9-12.6-57.7,0-79.6l69-119.4C-382.3,25.6-351.2,7.6-326,7.6h138c25.2,0,56.3,18,68.9,39.9l69,119.4c12.6,21.9,12.6,57.7,0,79.6ZM-257-74.6c-155.3,0-281.3,126-281.3,281.3S-412.3,488-257,488,24.3,362,24.3,206.7-101.7-74.6-257-74.6Z" style="fill:#4a4747;opacity:0.4117647056486837"/><path d="M-119.9,365.1c-12.7,21.9-43.7,39.8-69,39.8H-326.8c-25.3,0-56.3-17.9-69-39.8l-68.9-119.4c-12.7-21.9-12.7-57.8,0-79.7l68.9-119.4c12.7-21.9,43.7-39.8,69-39.8h137.9c25.3,0,56.3,17.9,69,39.8L-51,166c12.7,21.9,12.7,57.8,0,79.7ZM-257.8-75.4c-155.4,0-281.3,125.9-281.3,281.3s125.9,281.2,281.3,281.2S23.4,361.2,23.4,205.9-102.5-75.4-257.8-75.4Z" style="fill:#464243;opacity:0.4215686272031494"/><path d="M-120.8,364.3c-12.6,21.9-43.7,39.8-68.9,39.8h-138c-25.2,0-56.3-17.9-68.9-39.8l-69-119.5c-12.6-21.9-12.6-57.7,0-79.6l69-119.4C-384,23.9-352.9,5.9-327.7,5.9h138c25.2,0,56.3,18,68.9,39.9l69,119.4c12.6,21.9,12.6,57.7,0,79.6ZM-258.7-76.3C-414-76.3-540,49.7-540,205s126,281.3,281.3,281.3S22.6,360.4,22.6,205-103.4-76.3-258.7-76.3Z" style="fill:#413e3f;opacity:0.4313725487576151"/><path d="M-121.6,363.4c-12.7,21.9-43.7,39.8-69,39.8H-328.5c-25.3,0-56.3-17.9-69-39.8L-466.4,244c-12.7-21.9-12.7-57.8,0-79.7l68.9-119.4c12.7-21.9,43.7-39.8,69-39.8h137.9c25.3,0,56.3,17.9,69,39.8l68.9,119.4c12.7,21.9,12.7,57.8,0,79.7ZM-259.5-77.1c-155.4,0-281.3,125.9-281.3,281.3s125.9,281.2,281.3,281.2S21.7,359.5,21.7,204.2-104.2-77.1-259.5-77.1Z" style="fill:#3d393a;opacity:0.4411764703120808"/><path d="M-122.5,362.6c-12.6,21.9-43.7,39.8-68.9,39.8h-138c-25.2,0-56.3-17.9-68.9-39.8l-69-119.5c-12.6-21.9-12.6-57.7,0-79.6l69-119.4c12.6-21.9,43.7-39.9,68.9-39.9h138c25.2,0,56.3,18,68.9,39.9l69,119.4c12.6,21.9,12.6,57.7,0,79.6ZM-260.4-78C-415.7-78-541.7,48-541.7,203.3s126,281.3,281.3,281.3S20.9,358.7,20.9,203.3-105.1-78-260.4-78Z" style="fill:#393536;opacity:0.4509803918665465"/><path d="M-123.3,361.7c-12.7,21.9-43.7,39.8-69,39.8H-330.2c-25.3,0-56.3-17.9-69-39.8l-68.9-119.4c-12.7-21.9-12.7-57.8,0-79.7l68.9-119.4c12.7-21.9,43.7-39.8,69-39.8h137.9c25.3,0,56.3,17.9,69,39.8l68.9,119.4c12.7,21.9,12.7,57.8,0,79.7ZM-261.2-78.8c-155.4,0-281.3,125.9-281.3,281.3s125.9,281.2,281.3,281.2S20,357.8,20,202.5-105.9-78.8-261.2-78.8Z" style="fill:#343131;opacity:0.46078431342101217"/><path d="M-124.2,360.9c-12.6,21.9-43.6,39.8-68.9,39.8h-138c-25.2,0-56.3-17.9-68.9-39.8l-69-119.5c-12.6-21.9-12.6-57.7,0-79.6l69-119.4c12.6-21.9,43.7-39.9,68.9-39.9h138c25.3,0,56.3,18,68.9,39.9l69,119.4c12.6,21.9,12.6,57.7,0,79.6ZM-262.1-79.7c-155.3,0-281.3,126-281.3,281.3s126,281.3,281.3,281.3S19.2,357,19.2,201.6-106.7-79.7-262.1-79.7Z" style="fill:#302c2d;opacity:0.47058823497547786"/><path d="M-125,360c-12.7,21.9-43.7,39.8-69,39.8H-331.9c-25.3,0-56.3-17.9-69-39.8l-68.9-119.4c-12.7-21.9-12.7-57.8,0-79.7l68.9-119.4c12.7-21.9,43.7-39.8,69-39.8H-194c25.3,0,56.3,17.9,69,39.8l68.9,119.4c12.7,21.9,12.7,57.8,0,79.7ZM-262.9-80.5c-155.4,0-281.3,125.9-281.3,281.3S-418.3,482-262.9,482,18.3,356.1,18.3,200.8-107.6-80.5-262.9-80.5Z" style="fill:#2c2829;opacity:0.48039215652994355"/><path d="M-125.9,359.2c-12.6,21.9-43.6,39.8-68.9,39.8h-138c-25.2,0-56.3-17.9-68.9-39.8l-69-119.5c-12.6-21.9-12.6-57.7,0-79.6l69-119.4C-389.1,18.8-358,.8-332.8.8h138c25.3,0,56.3,18,68.9,39.9l69,119.4c12.6,21.9,12.6,57.7,0,79.6ZM-263.8-81.4c-155.3,0-281.3,126-281.3,281.3s126,281.3,281.3,281.3S17.5,355.3,17.5,199.9-108.4-81.4-263.8-81.4Z" style="fill:#272324;opacity:0.49019607808440924"/><path d="M-126.7,358.3c-12.7,21.9-43.7,39.8-69,39.8H-333.6c-25.3,0-56.3-17.9-69-39.8l-68.9-119.4c-12.7-21.9-12.7-57.8,0-79.7l68.9-119.4C-389.9,17.9-358.9,0-333.6,0h137.9c25.3,0,56.3,17.9,69,39.8l68.9,119.4c12.7,21.9,12.7,57.8,0,79.7ZM-264.6-82.2C-420-82.2-545.9,43.7-545.9,199.1S-420,480.3-264.6,480.3,16.6,354.4,16.6,199.1-109.3-82.2-264.6-82.2Z" style="fill:#231f20;opacity:0.5"/></g><path d="M-264.6-82.2C-420-82.2-545.9,43.7-545.9,199.1S-420,480.3-264.6,480.3,16.6,354.4,16.6,199.1-109.3-82.2-264.6-82.2Zm137.9,440.5c-12.7,21.9-43.7,39.8-69,39.8H-333.6c-25.3,0-56.3-17.9-69-39.8l-68.9-119.4c-12.7-21.9-12.7-57.8,0-79.7l68.9-119.4C-389.9,17.9-358.9,0-333.6,0h137.9c25.3,0,56.3,17.9,69,39.8l68.9,119.4c12.7,21.9,12.7,57.8,0,79.7Z" style="fill:#fff"/></g></g><g id="_2" data-name="2"><g style="clip-path:url(#clip-path-2)"><circle cx="216.4" cy="199.1" r="259.4" transform="translate(-77.4 211.3) rotate(-45)" style="fill:#5cb75b"/><g style="mix-blend-mode:multiply"><path d="M183.8,461.1c-27.8,0-61.9-19.7-75.8-43.8L32.2,286.1c-13.9-24.1-13.9-63.5,0-87.6L108,67.3c13.9-24.1,48-43.8,75.8-43.8H335.4c27.8,0,61.9,19.7,75.8,43.8L487,198.5c13.9,24.1,13.9,63.5,0,87.6L411.2,417.3c-13.9,24.1-48,43.8-75.8,43.8Z" style="fill:#fff;opacity:0"/><path d="M184.6,458.8c-27.5,0-61.2-19.5-75-43.3L34.7,285.6c-13.8-23.8-13.8-62.8,0-86.6L109.6,69.1c13.8-23.8,47.5-43.3,75-43.3h150c27.5,0,61.2,19.5,75,43.3L484.5,199c13.8,23.8,13.8,62.8,0,86.6L409.6,415.5c-13.8,23.8-47.5,43.3-75,43.3Z" style="fill:#fbfbfb;opacity:0.009803921915590525"/><path d="M185.4,456.4c-27.2,0-60.5-19.2-74.1-42.8L37.1,285.1c-13.6-23.5-13.6-62.1,0-85.6L111.3,71c13.6-23.5,46.9-42.8,74.1-42.8H333.8c27.2,0,60.5,19.3,74.1,42.8l74.2,128.5c13.6,23.5,13.6,62.1,0,85.6L407.9,413.6c-13.6,23.6-46.9,42.8-74.1,42.8Z" style="fill:#f6f6f6;opacity:0.01960784347005621"/><path d="M186.2,454.1c-26.9,0-59.9-19.1-73.3-42.4l-73.4-127c-13.4-23.3-13.4-61.5,0-84.8l73.4-127c13.4-23.3,46.4-42.4,73.3-42.4H333c26.9,0,59.9,19.1,73.3,42.4l73.4,127c13.4,23.3,13.4,61.5,0,84.8l-73.4,127c-13.4,23.3-46.4,42.4-73.3,42.4Z" style="fill:#f2f2f2;opacity:0.02941176502452189"/><path d="M187,451.7c-26.6,0-59.2-18.8-72.5-41.8L41.9,284.2c-13.3-23-13.3-60.7,0-83.8L114.5,74.8c13.3-23.1,45.9-41.9,72.5-41.9H332.1c26.6,0,59.3,18.8,72.6,41.9l72.6,125.6c13.3,23.1,13.3,60.8,0,83.8L404.7,409.9c-13.3,23-46,41.8-72.6,41.8Z" style="fill:#eeedee;opacity:0.03921568657898757"/><path d="M187.9,449.4c-26.3,0-58.6-18.6-71.8-41.4L44.4,283.7c-13.2-22.8-13.2-60,0-82.8L116.1,76.6c13.2-22.8,45.5-41.4,71.8-41.4H331.3c26.3,0,58.6,18.6,71.8,41.4l71.7,124.3c13.2,22.8,13.2,60,0,82.8L403.1,408c-13.2,22.8-45.5,41.4-71.8,41.4Z" style="fill:#e9e9e9;opacity:0.049019608133453255"/><path d="M188.7,447.1c-26,0-58-18.5-71-41L46.8,283.3c-13-22.6-13-59.4,0-81.9L117.7,78.5c13-22.5,45-41,71-41H330.5c26,0,58,18.5,71,41l70.9,122.9c13,22.5,13,59.3,0,81.9L401.5,406.1c-13,22.5-45,41-71,41Z" style="fill:#e5e5e5;opacity:0.058823529687918936"/><path d="M189.5,444.7c-25.7,0-57.3-18.2-70.1-40.5L49.2,282.8c-12.8-22.3-12.8-58.7,0-81L119.4,80.4c12.8-22.3,44.4-40.5,70.1-40.5H329.7c25.7,0,57.3,18.2,70.1,40.5L470,201.8c12.8,22.3,12.8,58.7,0,81L399.8,404.2c-12.8,22.3-44.4,40.5-70.1,40.5Z" style="fill:#e1e0e0;opacity:0.06862745124238462"/><path d="M190.3,442.4c-25.4,0-56.6-18-69.3-40L51.7,282.3c-12.7-22-12.7-58,0-80L121,82.2c12.7-22,43.9-40,69.3-40H328.9c25.4,0,56.6,18,69.3,40l69.3,120.1c12.7,22,12.7,58,0,80L398.2,402.4c-12.7,22-43.9,40-69.3,40Z" style="fill:#dcdcdc;opacity:0.07843137279685031"/><path d="M191.1,440c-25.1,0-55.9-17.8-68.5-39.5L54.1,281.8c-12.6-21.7-12.6-57.3,0-79L122.6,84.1c12.6-21.7,43.4-39.5,68.5-39.5h137c25.1,0,55.9,17.8,68.5,39.5l68.5,118.7c12.5,21.7,12.5,57.3,0,79L396.6,400.5C384,422.2,353.2,440,328.1,440Z" style="fill:#d8d7d8;opacity:0.088235294351316"/><path d="M191.9,437.7c-24.8,0-55.3-17.6-67.7-39.1L56.5,281.4c-12.4-21.5-12.4-56.7,0-78.2L124.2,86c12.4-21.5,42.9-39.1,67.7-39.1H327.3c24.8,0,55.3,17.6,67.7,39.1l67.7,117.2c12.4,21.5,12.4,56.7,0,78.2L395,398.6c-12.4,21.5-42.9,39.1-67.7,39.1Z" style="fill:#d4d3d3;opacity:0.09803921590578168"/><path d="M192.7,435.4c-24.5,0-54.6-17.4-66.9-38.6L59,280.9c-12.3-21.2-12.3-56,0-77.2L125.8,87.9c12.3-21.3,42.4-38.7,66.9-38.7H326.5c24.5,0,54.6,17.4,66.8,38.7l66.9,115.8c12.3,21.2,12.3,56,0,77.2L393.3,396.8c-12.2,21.2-42.3,38.6-66.8,38.6Z" style="fill:#d0cfcf;opacity:0.10784313746024737"/><path d="M193.5,433c-24.2,0-53.9-17.1-66-38.1L61.4,280.4c-12.1-20.9-12.1-55.3,0-76.2L127.5,89.7c12.1-20.9,41.8-38.1,66-38.1H325.7c24.2,0,53.9,17.2,66,38.1l66.1,114.5c12.1,20.9,12.1,55.3,0,76.2L391.7,394.9c-12.1,21-41.8,38.1-66,38.1Z" style="fill:#cbcacb;opacity:0.11764705901471306"/><path d="M194.3,430.7c-23.9,0-53.2-17-65.2-37.7L63.8,280c-11.9-20.7-11.9-54.6,0-75.4l65.3-113c12-20.7,41.3-37.7,65.2-37.7H324.9c23.9,0,53.2,17,65.2,37.7l65.3,113c11.9,20.8,11.9,54.7,0,75.4L390.1,393c-12,20.7-41.3,37.7-65.2,37.7Z" style="fill:#c7c6c6;opacity:0.12745098056917875"/><path d="M195.2,428.3c-23.7,0-52.7-16.7-64.5-37.2L66.3,279.5c-11.8-20.4-11.8-53.9,0-74.4L130.7,93.5c11.8-20.5,40.8-37.2,64.5-37.2H324c23.7,0,52.7,16.7,64.5,37.2l64.4,111.6c11.8,20.5,11.8,54,0,74.4L388.5,391.1c-11.8,20.5-40.8,37.2-64.5,37.2Z" style="fill:#c3c2c2;opacity:0.13725490212364444"/><path d="M196,426c-23.4,0-52-16.5-63.7-36.7L68.7,279c-11.7-20.2-11.7-53.2,0-73.4L132.3,95.4C144,75.1,172.6,58.6,196,58.6H323.2c23.4,0,52,16.5,63.7,36.8l63.6,110.2c11.7,20.2,11.7,53.2,0,73.4L386.9,389.3c-11.7,20.2-40.3,36.7-63.7,36.7Z" style="fill:#bebdbd;opacity:0.14705882367811013"/><path d="M196.8,423.7c-23.1,0-51.3-16.4-62.9-36.3L71.1,278.6c-11.5-20-11.5-52.6,0-72.6L133.9,97.2c11.6-19.9,39.8-36.3,62.9-36.3H322.4c23.1,0,51.3,16.4,62.8,36.3L448.1,206c11.5,20,11.5,52.6,0,72.6L385.2,387.4c-11.5,19.9-39.7,36.3-62.8,36.3Z" style="fill:#bab9b9;opacity:0.15686274523257582"/><path d="M197.6,421.3c-22.8,0-50.7-16.1-62-35.8l-62-107.4c-11.4-19.7-11.4-51.9,0-71.6l62-107.4c11.3-19.7,39.2-35.8,62-35.8h124c22.7,0,50.7,16.1,62,35.8l62,107.4c11.4,19.7,11.4,51.9,0,71.6l-62,107.4c-11.3,19.7-39.3,35.8-62,35.8Z" style="fill:#b6b4b5;opacity:0.1666666667870415"/><path d="M198.4,419c-22.4,0-50-15.9-61.2-35.4L76,277.6c-11.2-19.4-11.2-51.2,0-70.6l61.2-106c11.2-19.5,38.8-35.4,61.2-35.4H320.8c22.4,0,50,15.9,61.2,35.4l61.2,106c11.2,19.4,11.2,51.2,0,70.6L382,383.6c-11.2,19.5-38.8,35.4-61.2,35.4Z" style="fill:#b1b0b0;opacity:0.1764705883415072"/><path d="M199.2,416.6c-22.1,0-49.3-15.7-60.4-34.8L78.4,277.2c-11-19.2-11-50.6,0-69.8l60.4-104.6C149.9,83.7,177.1,68,199.2,68H320c22.1,0,49.3,15.7,60.4,34.8l60.4,104.6c11,19.2,11,50.6,0,69.8L380.4,381.8c-11.1,19.1-38.3,34.8-60.4,34.8Z" style="fill:#adacac;opacity:0.18627450989597288"/><path d="M200,414.3c-21.8,0-48.6-15.5-59.6-34.4L80.9,276.7c-11-18.9-11-49.9,0-68.8l59.5-103.2c11-18.9,37.8-34.4,59.6-34.4H319.2c21.8,0,48.6,15.5,59.6,34.4l59.5,103.2c11,18.9,11,49.9,0,68.8L378.8,379.9c-11,18.9-37.8,34.4-59.6,34.4Z" style="fill:#a9a7a8;opacity:0.19607843145043857"/><path d="M200.8,412c-21.5,0-48-15.3-58.7-34L83.3,276.2c-10.8-18.6-10.8-49.2,0-67.8l58.8-101.8c10.7-18.7,37.2-34,58.7-34H318.4c21.5,0,48,15.3,58.7,34l58.8,101.8c10.8,18.6,10.8,49.2,0,67.8L377.1,378c-10.7,18.7-37.2,34-58.7,34Z" style="fill:#a4a3a3;opacity:0.20588235300490426"/><path d="M201.6,409.6c-21.2,0-47.3-15-57.9-33.4l-58-100.4c-10.6-18.4-10.6-48.5,0-67l58-100.3C154.3,90,180.4,75,201.6,75h116c21.2,0,47.3,15,57.9,33.5l58,100.3c10.6,18.5,10.6,48.6,0,67l-58,100.4c-10.6,18.4-36.7,33.4-57.9,33.4Z" style="fill:#a09e9f;opacity:0.21568627455936995"/><path d="M202.4,407.3c-20.9,0-46.6-14.9-57.1-33l-57.1-99c-10.5-18.1-10.5-47.8,0-66l57.1-99c10.5-18.1,36.2-33,57.1-33H316.7c21,0,46.7,14.9,57.2,33l57.1,99c10.5,18.2,10.5,47.9,0,66l-57.1,99c-10.5,18.1-36.2,33-57.2,33Z" style="fill:#9c9a9a;opacity:0.22549019611383564"/><path d="M203.3,404.9c-20.7,0-46-14.6-56.4-32.5L90.6,274.8c-10.3-17.9-10.3-47.1,0-65l56.3-97.6c10.4-17.9,35.7-32.5,56.4-32.5H315.9c20.7,0,46,14.6,56.4,32.5l56.3,97.6c10.3,17.9,10.3,47.1,0,65l-56.3,97.6c-10.4,17.9-35.7,32.5-56.4,32.5Z" style="fill:#979696;opacity:0.23529411766830133"/><path d="M204.1,402.6c-20.4,0-45.4-14.4-55.6-32.1L93,274.4c-10.2-17.7-10.2-46.5,0-64.2l55.5-96.1C158.7,96.4,183.7,82,204.1,82h111c20.4,0,45.4,14.4,55.5,32.1l55.6,96.1c10.2,17.7,10.2,46.5,0,64.2l-55.6,96.1c-10.1,17.7-35.1,32.1-55.5,32.1Z" style="fill:#939192;opacity:0.24509803922276702"/><path d="M204.9,400.3c-20.1,0-44.7-14.3-54.7-31.6L95.4,273.9c-10-17.4-10-45.8,0-63.2l54.8-94.8c10-17.3,34.6-31.6,54.7-31.6H314.3c20.1,0,44.7,14.3,54.7,31.6l54.8,94.8c10,17.4,10,45.8,0,63.2L369,368.7c-10,17.3-34.6,31.6-54.7,31.6Z" style="fill:#8f8d8d;opacity:0.2549019607772327"/><path d="M205.7,397.9c-19.8,0-44-14-53.9-31.1L97.9,273.4c-9.9-17.1-9.9-45.1,0-62.2l53.9-93.4c9.9-17.1,34.1-31.1,53.9-31.1H313.5c19.8,0,44,14,53.9,31.1l53.9,93.4c9.9,17.1,9.9,45.1,0,62.2l-53.9,93.4c-9.9,17.1-34.1,31.1-53.9,31.1Z" style="fill:#8b8889;opacity:0.2647058823316984"/><path d="M206.5,395.6c-19.5,0-43.4-13.8-53.1-30.7L100.3,273c-9.7-16.9-9.7-44.5,0-61.4l53.1-91.9C163.1,102.8,187,89,206.5,89H312.7c19.5,0,43.4,13.8,53.1,30.7l53.1,91.9c9.7,16.9,9.7,44.5,0,61.4l-53.1,91.9c-9.7,16.9-33.6,30.7-53.1,30.7Z" style="fill:#868485;opacity:0.2745098038861641"/><path d="M207.3,393.2c-19.2,0-42.7-13.5-52.3-30.1l-52.3-90.6c-9.5-16.6-9.5-43.8,0-60.4L155,121.6c9.6-16.6,33.1-30.2,52.3-30.2H311.9c19.1,0,42.7,13.6,52.3,30.2l52.3,90.5c9.5,16.6,9.5,43.8,0,60.4l-52.3,90.6c-9.6,16.6-33.2,30.1-52.3,30.1Z" style="fill:#828080;opacity:0.28431372544062977"/><path d="M208.1,390.9c-18.8,0-42-13.4-51.5-29.7L105.2,272c-9.5-16.3-9.5-43.1,0-59.4l51.4-89.2c9.5-16.3,32.7-29.7,51.5-29.7h103c18.8,0,42,13.4,51.4,29.7L414,212.6c9.5,16.3,9.5,43.1,0,59.4l-51.5,89.2c-9.4,16.3-32.6,29.7-51.4,29.7Z" style="fill:#7e7b7c;opacity:0.29411764699509546"/><path d="M208.9,388.6c-18.5,0-41.3-13.2-50.6-29.3l-50.7-87.7c-9.3-16.1-9.3-42.5,0-58.5l50.7-87.8c9.3-16.1,32.1-29.3,50.6-29.3H310.3c18.5,0,41.3,13.2,50.6,29.3l50.7,87.8c9.3,16,9.3,42.4,0,58.5l-50.7,87.7c-9.3,16.1-32.1,29.3-50.6,29.3Z" style="fill:#797777;opacity:0.30392156854956115"/><path d="M209.7,386.2c-18.2,0-40.7-12.9-49.8-28.8L110,271.1c-9.1-15.8-9.1-41.7,0-57.6l49.9-86.3c9.1-15.9,31.6-28.8,49.8-28.8h99.7c18.3,0,40.8,12.9,49.9,28.8l49.9,86.3c9.1,15.9,9.1,41.8,0,57.6l-49.9,86.3c-9.1,15.9-31.6,28.8-49.9,28.8Z" style="fill:#757273;opacity:0.31372549010402684"/><path d="M210.6,383.9c-18,0-40.1-12.8-49.1-28.3l-49-85c-9-15.6-9-41,0-56.6l49-85c9-15.5,31.1-28.3,49.1-28.3h98c18,0,40.1,12.8,49.1,28.3l49,85c9,15.6,9,41,0,56.6l-49,85c-9,15.5-31.1,28.3-49.1,28.3Z" style="fill:#716e6f;opacity:0.3235294116584925"/><path d="M211.4,381.5c-17.7,0-39.4-12.5-48.3-27.8l-48.2-83.5c-8.8-15.4-8.8-40.4,0-55.7l48.2-83.6c8.9-15.3,30.6-27.8,48.3-27.8h96.4c17.7,0,39.4,12.5,48.3,27.8l48.2,83.6c8.8,15.3,8.8,40.3,0,55.7l-48.2,83.5c-8.9,15.3-30.6,27.8-48.3,27.8Z" style="fill:#6c6a6a;opacity:0.3333333332129582"/><path d="M212.2,379.2c-17.4,0-38.8-12.3-47.4-27.4l-47.5-82.1c-8.7-15.1-8.7-39.7,0-54.8l47.5-82.1c8.6-15.1,30-27.4,47.4-27.4H307c17.4,0,38.7,12.3,47.4,27.4l47.5,82.1c8.7,15.1,8.7,39.7,0,54.8l-47.5,82.1c-8.7,15.1-30,27.4-47.4,27.4Z" style="fill:#686566;opacity:0.3431372547674239"/><path d="M213,376.9c-17.1,0-38.1-12.2-46.6-27l-46.6-80.7c-8.6-14.8-8.6-39,0-53.8l46.6-80.7c8.5-14.8,29.5-27,46.6-27h93.2c17.1,0,38.1,12.2,46.6,27l46.6,80.7c8.6,14.8,8.6,39,0,53.8l-46.6,80.7c-8.5,14.8-29.5,27-46.6,27Z" style="fill:#646162;opacity:0.3529411763218896"/><path d="M213.8,374.5c-16.8,0-37.4-11.9-45.8-26.4l-45.8-79.4c-8.4-14.5-8.4-38.3,0-52.8L168,136.5c8.4-14.5,29-26.4,45.8-26.4h91.6c16.8,0,37.4,11.9,45.8,26.4L397,215.9c8.4,14.5,8.4,38.3,0,52.8l-45.8,79.4c-8.4,14.5-29,26.4-45.8,26.4Z" style="fill:#5f5c5d;opacity:0.3627450978763553"/><path d="M214.6,372.2c-16.5,0-36.7-11.7-45-26l-45-77.9c-8.2-14.3-8.2-37.7,0-52l45-77.9c8.3-14.3,28.5-26,45-26h90c16.5,0,36.7,11.7,45,26l45,77.9c8.2,14.3,8.2,37.7,0,52l-45,77.9c-8.3,14.3-28.5,26-45,26Z" style="fill:#5b5859;opacity:0.37254901943082097"/><path d="M215.4,369.8c-16.2,0-36.1-11.4-44.2-25.5l-44.1-76.5c-8.1-14-8.1-37,0-51l44.1-76.5c8.1-14.1,28-25.5,44.2-25.5h88.4c16.2,0,36.1,11.4,44.1,25.5l44.2,76.5c8.1,14,8.1,37,0,51l-44.2,76.5c-8,14.1-27.9,25.5-44.1,25.5Z" style="fill:#575454;opacity:0.38235294098528666"/><path d="M216.2,367.5c-15.9,0-35.4-11.3-43.3-25l-43.4-75.2c-8-13.7-8-36.3,0-50l43.4-75.1c7.9-13.8,27.4-25.1,43.3-25.1H303c15.9,0,35.4,11.3,43.3,25.1l43.4,75.1c8,13.7,8,36.3,0,50l-43.4,75.2c-7.9,13.7-27.4,25-43.3,25Z" style="fill:#524f50;opacity:0.39215686253975235"/><path d="M217,365.2c-15.6,0-34.7-11.1-42.5-24.6l-42.6-73.7c-7.8-13.5-7.8-35.6,0-49.2L174.5,144c7.8-13.5,26.9-24.6,42.5-24.6h85.2c15.6,0,34.7,11.1,42.5,24.6l42.6,73.7c7.8,13.6,7.8,35.7,0,49.2l-42.6,73.7c-7.8,13.5-26.9,24.6-42.5,24.6Z" style="fill:#4e4b4c;opacity:0.40196078409421804"/><path d="M217.8,362.8c-15.3,0-34-10.8-41.7-24.1l-41.7-72.3c-7.7-13.2-7.7-34.9,0-48.2l41.7-72.3c7.7-13.3,26.4-24.1,41.7-24.1h83.5c15.3,0,34.1,10.8,41.8,24.1l41.7,72.3c7.7,13.3,7.7,35,0,48.2l-41.7,72.3c-7.7,13.3-26.5,24.1-41.8,24.1Z" style="fill:#4a4747;opacity:0.4117647056486837"/><path d="M218.7,360.5c-15,0-33.5-10.7-41-23.7l-40.9-70.9c-7.5-13-7.5-34.2,0-47.2l40.9-70.9c7.5-13,26-23.7,41-23.7h81.8c15,0,33.5,10.7,41,23.7l40.9,70.9c7.5,13,7.5,34.2,0,47.2l-40.9,70.9c-7.5,13-26,23.7-41,23.7Z" style="fill:#464243;opacity:0.4215686272031494"/><path d="M219.5,358.1c-14.7,0-32.8-10.4-40.2-23.1l-40.1-69.5c-7.3-12.8-7.3-33.6,0-46.4l40.1-69.5c7.4-12.7,25.5-23.1,40.2-23.1h80.2c14.7,0,32.8,10.4,40.1,23.1L380,219.1c7.3,12.8,7.3,33.6,0,46.4L339.8,335c-7.3,12.7-25.4,23.1-40.1,23.1Z" style="fill:#413e3f;opacity:0.4313725487576151"/><path d="M220.3,355.8c-14.4,0-32.1-10.2-39.3-22.7L141.7,265c-7.3-12.5-7.3-32.9,0-45.4L181,151.5c7.2-12.5,24.9-22.7,39.3-22.7h78.6c14.4,0,32.1,10.2,39.3,22.7l39.3,68.1c7.2,12.5,7.2,32.9,0,45.4l-39.3,68.1c-7.2,12.5-24.9,22.7-39.3,22.7Z" style="fill:#3d393a;opacity:0.4411764703120808"/><path d="M221.1,353.5c-14.1,0-31.5-10-38.5-22.3l-38.5-66.7c-7.1-12.2-7.1-32.2,0-44.4l38.5-66.7c7-12.2,24.4-22.3,38.5-22.3h77c14.1,0,31.4,10.1,38.5,22.3l38.5,66.7c7.1,12.2,7.1,32.2,0,44.4l-38.5,66.7c-7.1,12.3-24.4,22.3-38.5,22.3Z" style="fill:#393536;opacity:0.4509803918665465"/><path d="M221.9,351.1c-13.8,0-30.8-9.8-37.7-21.7l-37.7-65.3c-6.9-12-6.9-31.6,0-43.6l37.7-65.2c6.9-12,23.9-21.8,37.7-21.8h75.4c13.8,0,30.8,9.8,37.7,21.8l37.7,65.2c6.9,12,6.9,31.6,0,43.6L335,329.4c-6.9,11.9-23.9,21.7-37.7,21.7Z" style="fill:#343131;opacity:0.46078431342101217"/><path d="M222.7,348.8c-13.5,0-30.1-9.6-36.9-21.3l-36.9-63.9c-6.7-11.7-6.7-30.9,0-42.6l36.9-63.9c6.8-11.7,23.4-21.3,36.9-21.3h73.8c13.5,0,30.1,9.6,36.9,21.3L370.2,221c6.8,11.7,6.8,30.9,0,42.6l-36.8,63.9c-6.8,11.7-23.4,21.3-36.9,21.3Z" style="fill:#302c2d;opacity:0.47058823497547786"/><path d="M223.5,346.4c-13.2,0-29.4-9.3-36.1-20.8l-36-62.5c-6.6-11.4-6.6-30.2,0-41.6l36-62.5c6.7-11.5,22.9-20.8,36.1-20.8h72.2c13.2,0,29.4,9.3,36,20.8l36.1,62.5c6.6,11.4,6.6,30.2,0,41.6l-36.1,62.5c-6.6,11.5-22.8,20.8-36,20.8Z" style="fill:#2c2829;opacity:0.48039215652994355"/><path d="M224.3,344.1c-12.9,0-28.8-9.2-35.2-20.4l-35.3-61c-6.5-11.2-6.5-29.6,0-40.8l35.3-61c6.4-11.2,22.3-20.4,35.2-20.4h70.6c12.9,0,28.8,9.2,35.2,20.4l35.3,61c6.4,11.2,6.4,29.6,0,40.8l-35.3,61c-6.4,11.2-22.3,20.4-35.2,20.4Z" style="fill:#272324;opacity:0.49019607808440924"/><path d="M225.1,341.8c-12.6,0-28.1-9-34.4-19.9l-34.5-59.7c-6.3-10.9-6.3-28.8,0-39.8l34.5-59.7c6.3-10.9,21.8-19.9,34.4-19.9H294c12.7,0,28.2,9,34.5,19.9L363,222.4c6.3,11,6.3,28.9,0,39.8l-34.5,59.7c-6.3,10.9-21.8,19.9-34.5,19.9Z" style="fill:#231f20;opacity:0.5"/></g><path d="M161.2,358.2c-20.2,0-45-14.3-55.1-31.8L51,230.9c-10.1-17.5-10.1-46.2,0-63.7l55.1-95.4c10.1-17.5,34.9-31.9,55.1-31.9H271.5c20.2,0,45,14.4,55.1,31.9l55.1,95.4c10.1,17.5,10.1,46.2,0,63.7l-55.1,95.5c-10.1,17.5-34.9,31.8-55.1,31.8Z" style="fill:#c9e3e2"/><g style="mix-blend-mode:multiply"><path d="M397.4,401.4c-12.6,21.9-43.6,39.8-68.9,39.8H190.7c-25.3,0-56.3-17.9-68.9-39.8L52.9,282.1c-12.6-21.9-12.6-57.7,0-79.6L121.8,83.2c12.6-21.9,43.6-39.8,68.9-39.8H328.5c25.3,0,56.3,17.9,68.9,39.8l68.9,119.3c12.6,21.9,12.6,57.7,0,79.6ZM259.6-38.7c-155.2,0-281,125.8-281,281s125.8,281,281,281,281-125.8,281-281S414.8-38.7,259.6-38.7Z" style="fill:#fff;opacity:0"/><path d="M396.6,400.6c-12.7,21.9-43.7,39.8-68.9,39.8H189.8c-25.2,0-56.2-17.9-68.9-39.8L52,281.2c-12.6-21.8-12.6-57.6,0-79.5L120.9,82.3c12.7-21.8,43.7-39.7,68.9-39.7H327.7c25.2,0,56.2,17.9,68.9,39.7l68.9,119.4c12.6,21.9,12.6,57.7,0,79.5ZM258.8-39.6C103.5-39.6-22.3,86.2-22.3,241.5s125.8,281,281.1,281,281-125.8,281-281S414-39.6,258.8-39.6Z" style="fill:#fbfbfb;opacity:0.009803921915590525"/><path d="M395.7,399.7c-12.6,21.9-43.6,39.8-68.9,39.8H189c-25.3,0-56.3-17.9-68.9-39.8L51.2,280.4c-12.6-21.9-12.6-57.7,0-79.6L120.1,81.5c12.6-21.9,43.6-39.8,68.9-39.8H326.8c25.3,0,56.3,17.9,68.9,39.8l68.9,119.3c12.6,21.9,12.6,57.7,0,79.6ZM257.9-40.4c-155.2,0-281,125.8-281,281s125.8,281,281,281,281-125.8,281-281S413.1-40.4,257.9-40.4Z" style="fill:#f6f6f6;opacity:0.01960784347005621"/><path d="M394.9,398.9c-12.7,21.9-43.7,39.8-68.9,39.8H188.1c-25.2,0-56.2-17.9-68.9-39.8L50.3,279.5c-12.6-21.8-12.6-57.6,0-79.5L119.2,80.6c12.7-21.8,43.7-39.7,68.9-39.7H326c25.2,0,56.2,17.9,68.9,39.7L463.8,200c12.6,21.9,12.6,57.7,0,79.5ZM257.1-41.3C101.8-41.3-24,84.5-24,239.8s125.8,281,281.1,281,281-125.8,281-281S412.3-41.3,257.1-41.3Z" style="fill:#f2f2f2;opacity:0.02941176502452189"/><path d="M394,398c-12.6,21.9-43.6,39.8-68.9,39.8H187.3c-25.3,0-56.3-17.9-68.9-39.8L49.5,278.7c-12.6-21.9-12.6-57.7,0-79.6L118.4,79.8C131,57.9,162,40,187.3,40H325.1c25.3,0,56.3,17.9,68.9,39.8l68.9,119.3c12.7,21.9,12.7,57.7,0,79.6ZM256.2-42.1c-155.2,0-281,125.8-281,281S101,520,256.2,520s281-125.9,281-281.1S411.4-42.1,256.2-42.1Z" style="fill:#eeedee;opacity:0.03921568657898757"/><path d="M393.2,397.2c-12.7,21.9-43.7,39.8-68.9,39.8H186.5c-25.3,0-56.3-17.9-68.9-39.8L48.7,277.9C36,256,36,220.2,48.7,198.3L117.6,78.9c12.6-21.8,43.6-39.7,68.9-39.7H324.3c25.2,0,56.2,17.9,68.9,39.7l68.9,119.4c12.6,21.9,12.6,57.7,0,79.6ZM255.4-43C100.1-43-25.7,82.9-25.7,238.1s125.8,281,281.1,281,281-125.8,281-281S410.6-43,255.4-43Z" style="fill:#e9e9e9;opacity:0.049019608133453255"/><path d="M392.3,396.3c-12.6,21.9-43.6,39.8-68.9,39.8H185.6c-25.3,0-56.3-17.9-68.9-39.8L47.8,277c-12.6-21.9-12.6-57.7,0-79.6L116.7,78.1c12.6-21.9,43.6-39.8,68.9-39.8H323.4c25.3,0,56.3,17.9,68.9,39.8l68.9,119.3c12.7,21.9,12.7,57.7,0,79.6ZM254.5-43.8c-155.2,0-281,125.8-281,281s125.8,281.1,281,281.1S535.6,392.4,535.6,237.2,409.7-43.8,254.5-43.8Z" style="fill:#e5e5e5;opacity:0.058823529687918936"/><path d="M391.5,395.5c-12.7,21.9-43.7,39.8-68.9,39.8H184.8c-25.3,0-56.3-17.9-68.9-39.8L47,276.2c-12.7-21.9-12.7-57.7,0-79.6L115.9,77.2c12.6-21.8,43.6-39.7,68.9-39.7H322.6c25.2,0,56.2,17.9,68.9,39.7l68.9,119.4c12.6,21.9,12.6,57.7,0,79.6ZM253.7-44.7C98.5-44.7-27.4,81.2-27.4,236.4s125.9,281,281.1,281,281-125.8,281-281S408.9-44.7,253.7-44.7Z" style="fill:#e1e0e0;opacity:0.06862745124238462"/><path d="M390.6,394.6c-12.6,21.9-43.6,39.8-68.9,39.8H183.9c-25.2,0-56.3-17.9-68.9-39.8L46.1,275.3c-12.6-21.9-12.6-57.7,0-79.6L115,76.4c12.6-21.9,43.7-39.8,68.9-39.8H321.7c25.3,0,56.3,17.9,68.9,39.8l68.9,119.3c12.7,21.9,12.7,57.7,0,79.6ZM252.8-45.5c-155.2,0-281,125.8-281,281s125.8,281.1,281,281.1S533.9,390.7,533.9,235.5,408-45.5,252.8-45.5Z" style="fill:#dcdcdc;opacity:0.07843137279685031"/><path d="M389.8,393.8c-12.7,21.9-43.7,39.8-68.9,39.8H183.1c-25.3,0-56.3-17.9-68.9-39.8L45.3,274.5c-12.7-21.9-12.7-57.7,0-79.6L114.2,75.6c12.6-21.9,43.6-39.8,68.9-39.8H320.9c25.2,0,56.2,17.9,68.9,39.8l68.9,119.3c12.6,21.9,12.6,57.7,0,79.6ZM252-46.4C96.8-46.4-29.1,79.5-29.1,234.7s125.9,281,281.1,281,281-125.8,281-281S407.2-46.4,252-46.4Z" style="fill:#d8d7d8;opacity:0.088235294351316"/><path d="M388.9,393c-12.6,21.8-43.6,39.7-68.9,39.7H182.2c-25.2,0-56.3-17.9-68.9-39.7L44.4,273.6c-12.6-21.9-12.6-57.7,0-79.6L113.3,74.7c12.6-21.9,43.7-39.8,68.9-39.8H320c25.3,0,56.3,17.9,68.9,39.8L457.8,194c12.7,21.9,12.7,57.7,0,79.6ZM251.1-47.2c-155.2,0-281,125.8-281,281s125.8,281.1,281,281.1S532.2,389,532.2,233.8,406.3-47.2,251.1-47.2Z" style="fill:#d4d3d3;opacity:0.09803921590578168"/><path d="M388.1,392.1c-12.7,21.9-43.7,39.8-68.9,39.8H181.4c-25.3,0-56.3-17.9-68.9-39.8L43.6,272.8c-12.7-21.9-12.7-57.7,0-79.6L112.5,73.9c12.6-21.9,43.6-39.8,68.9-39.8H319.2c25.2,0,56.2,17.9,68.9,39.8L457,193.2c12.6,21.9,12.6,57.7,0,79.6ZM250.3-48.1C95.1-48.1-30.8,77.8-30.8,233S95.1,514,250.3,514s281-125.8,281-281S405.5-48.1,250.3-48.1Z" style="fill:#d0cfcf;opacity:0.10784313746024737"/><path d="M387.2,391.3c-12.6,21.8-43.6,39.7-68.9,39.7H180.5c-25.2,0-56.2-17.9-68.9-39.7L42.7,271.9c-12.6-21.9-12.6-57.7,0-79.6L111.6,73c12.7-21.9,43.7-39.8,68.9-39.8H318.3c25.3,0,56.3,17.9,68.9,39.8l68.9,119.3c12.7,21.9,12.7,57.7,0,79.6ZM249.4-48.9c-155.2,0-281,125.8-281,281s125.8,281.1,281,281.1S530.5,387.3,530.5,232.1,404.6-48.9,249.4-48.9Z" style="fill:#cbcacb;opacity:0.11764705901471306"/><path d="M386.4,390.4c-12.6,21.9-43.7,39.8-68.9,39.8H179.7c-25.3,0-56.3-17.9-68.9-39.8L41.9,271.1c-12.7-21.9-12.7-57.7,0-79.6L110.8,72.2c12.6-21.9,43.6-39.8,68.9-39.8H317.5c25.2,0,56.3,17.9,68.9,39.8l68.9,119.3c12.6,21.9,12.6,57.7,0,79.6ZM248.6-49.8C93.4-49.8-32.5,76.1-32.5,231.3s125.9,281,281.1,281,281-125.8,281-281S403.8-49.8,248.6-49.8Z" style="fill:#c7c6c6;opacity:0.12745098056917875"/><path d="M385.5,389.6c-12.6,21.8-43.6,39.7-68.9,39.7H178.8c-25.2,0-56.2-17.9-68.9-39.7L41,270.2c-12.6-21.9-12.6-57.7,0-79.5L109.9,71.3c12.7-21.9,43.7-39.8,68.9-39.8H316.6c25.3,0,56.3,17.9,68.9,39.8l68.9,119.4c12.7,21.8,12.7,57.6,0,79.5ZM247.7-50.6c-155.2,0-281,125.8-281,281s125.8,281.1,281,281.1S528.8,385.7,528.8,230.4,402.9-50.6,247.7-50.6Z" style="fill:#c3c2c2;opacity:0.13725490212364444"/><path d="M384.7,388.7c-12.6,21.9-43.7,39.8-68.9,39.8H178c-25.3,0-56.3-17.9-68.9-39.8L40.2,269.4c-12.7-21.9-12.7-57.7,0-79.6L109.1,70.5c12.6-21.9,43.6-39.8,68.9-39.8H315.8c25.2,0,56.3,17.9,68.9,39.8l68.9,119.3c12.6,21.9,12.6,57.7,0,79.6ZM246.9-51.5C91.7-51.5-34.2,74.4-34.2,229.6s125.9,281,281.1,281,281-125.8,281-281S402.1-51.5,246.9-51.5Z" style="fill:#bebdbd;opacity:0.14705882367811013"/><path d="M383.8,387.9c-12.6,21.8-43.6,39.7-68.9,39.7H177.1c-25.2,0-56.2-17.9-68.9-39.7L39.3,268.5c-12.6-21.9-12.6-57.7,0-79.5L108.2,69.6c12.7-21.9,43.7-39.8,68.9-39.8H314.9c25.3,0,56.3,17.9,68.9,39.8L452.7,189c12.7,21.8,12.7,57.6,0,79.5ZM246-52.3C90.8-52.3-35,73.5-35,228.7S90.8,509.8,246,509.8,527.1,384,527.1,228.7,401.3-52.3,246-52.3Z" style="fill:#bab9b9;opacity:0.15686274523257582"/><path d="M383,387c-12.6,21.9-43.6,39.8-68.9,39.8H176.3c-25.3,0-56.3-17.9-68.9-39.8L38.5,267.7c-12.7-21.9-12.7-57.7,0-79.6L107.4,68.8C120,46.9,151,29,176.3,29H314.1c25.3,0,56.3,17.9,68.9,39.8l68.9,119.3c12.6,21.9,12.6,57.7,0,79.6ZM245.2-53.1C90-53.1-35.9,72.7-35.9,227.9s125.9,281,281.1,281,281-125.8,281-281S400.4-53.1,245.2-53.1Z" style="fill:#b6b4b5;opacity:0.1666666667870415"/><path d="M382.1,386.2c-12.6,21.9-43.6,39.8-68.9,39.8H175.4c-25.2,0-56.2-17.9-68.9-39.8L37.6,266.8C25,245,25,209.1,37.6,187.3L106.5,67.9c12.7-21.9,43.7-39.8,68.9-39.8H313.2c25.3,0,56.3,17.9,68.9,39.8L451,187.3c12.7,21.8,12.7,57.7,0,79.5ZM244.3-54C89.1-54-36.7,71.8-36.7,227s125.8,281.1,281,281.1S525.4,382.3,525.4,227,399.6-54,244.3-54Z" style="fill:#b1b0b0;opacity:0.1764705883415072"/><path d="M381.3,385.3c-12.6,21.9-43.6,39.8-68.9,39.8H174.6c-25.3,0-56.3-17.9-68.9-39.8L36.8,266c-12.7-21.9-12.7-57.7,0-79.6L105.7,67.1c12.6-21.9,43.6-39.8,68.9-39.8H312.4c25.3,0,56.3,17.9,68.9,39.8l68.9,119.3c12.6,21.9,12.6,57.7,0,79.6ZM243.5-54.8c-155.2,0-281,125.8-281,281s125.8,281,281,281,281-125.8,281-281S398.7-54.8,243.5-54.8Z" style="fill:#adacac;opacity:0.18627450989597288"/><path d="M380.4,384.5c-12.6,21.9-43.6,39.8-68.9,39.8H173.7c-25.2,0-56.2-17.9-68.9-39.8L35.9,265.1c-12.6-21.8-12.6-57.7,0-79.5L104.8,66.2c12.7-21.9,43.7-39.8,68.9-39.8H311.5c25.3,0,56.3,17.9,68.9,39.8l69,119.4c12.6,21.8,12.6,57.7,0,79.5ZM242.6-55.7c-155.2,0-281,125.8-281,281.1s125.8,281,281,281,281.1-125.8,281.1-281S397.9-55.7,242.6-55.7Z" style="fill:#a9a7a8;opacity:0.19607843145043857"/><path d="M379.6,383.6c-12.6,21.9-43.6,39.8-68.9,39.8H172.9c-25.3,0-56.3-17.9-68.9-39.8L35.1,264.3c-12.6-21.9-12.6-57.7,0-79.6L104,65.4c12.6-21.9,43.6-39.8,68.9-39.8H310.7c25.3,0,56.3,17.9,68.9,39.8l68.9,119.3c12.6,21.9,12.6,57.7,0,79.6ZM241.8-56.5c-155.2,0-281,125.8-281,281s125.8,281,281,281,281-125.8,281-281S397-56.5,241.8-56.5Z" style="fill:#a4a3a3;opacity:0.20588235300490426"/><path d="M378.7,382.8c-12.6,21.9-43.6,39.8-68.9,39.8H172c-25.2,0-56.2-17.9-68.9-39.8L34.2,263.4c-12.6-21.8-12.6-57.6,0-79.5L103.1,64.5c12.7-21.8,43.7-39.8,68.9-39.8H309.8c25.3,0,56.3,18,68.9,39.8l69,119.4c12.6,21.9,12.6,57.7,0,79.5ZM240.9-57.4c-155.2,0-281,125.8-281,281.1s125.8,281,281,281S522,378.9,522,223.7,396.2-57.4,240.9-57.4Z" style="fill:#a09e9f;opacity:0.21568627455936995"/><path d="M377.9,381.9c-12.6,21.9-43.6,39.8-68.9,39.8H171.2c-25.3,0-56.3-17.9-68.9-39.8L33.4,262.6c-12.6-21.9-12.6-57.7,0-79.6L102.3,63.7c12.6-21.9,43.6-39.8,68.9-39.8H309c25.3,0,56.3,17.9,68.9,39.8L446.8,183c12.6,21.9,12.6,57.7,0,79.6ZM240.1-58.2c-155.2,0-281,125.8-281,281s125.8,281,281,281,281-125.8,281-281S395.3-58.2,240.1-58.2Z" style="fill:#9c9a9a;opacity:0.22549019611383564"/><path d="M377.1,381.1c-12.7,21.9-43.7,39.8-68.9,39.8H170.3c-25.2,0-56.2-17.9-68.9-39.8L32.5,261.7c-12.6-21.8-12.6-57.6,0-79.5L101.4,62.8c12.7-21.8,43.7-39.7,68.9-39.7H308.2c25.2,0,56.2,17.9,68.9,39.7L446,182.2c12.6,21.9,12.6,57.7,0,79.5ZM239.3-59.1C84-59.1-41.8,66.7-41.8,222S84,503,239.3,503s281-125.8,281-281S394.5-59.1,239.3-59.1Z" style="fill:#979696;opacity:0.23529411766830133"/><path d="M376.2,380.2c-12.6,21.9-43.6,39.8-68.9,39.8H169.5c-25.3,0-56.3-17.9-68.9-39.8L31.7,260.9c-12.6-21.9-12.6-57.7,0-79.6L100.6,62c12.6-21.9,43.6-39.8,68.9-39.8H307.3c25.3,0,56.3,17.9,68.9,39.8l68.9,119.3c12.6,21.9,12.6,57.7,0,79.6ZM238.4-59.9c-155.2,0-281,125.8-281,281s125.8,281.1,281,281.1,281-125.9,281-281.1S393.6-59.9,238.4-59.9Z" style="fill:#939192;opacity:0.24509803922276702"/><path d="M375.4,379.4c-12.7,21.9-43.7,39.8-68.9,39.8H168.6c-25.2,0-56.2-17.9-68.9-39.8L30.8,260c-12.6-21.8-12.6-57.6,0-79.5L99.7,61.1c12.7-21.8,43.7-39.7,68.9-39.7H306.5c25.2,0,56.2,17.9,68.9,39.7l68.9,119.4c12.6,21.9,12.6,57.7,0,79.5ZM237.6-60.8C82.3-60.8-43.5,65.1-43.5,220.3s125.8,281,281.1,281,281-125.8,281-281S392.8-60.8,237.6-60.8Z" style="fill:#8f8d8d;opacity:0.2549019607772327"/><path d="M374.5,378.5c-12.6,21.9-43.6,39.8-68.9,39.8H167.8c-25.3,0-56.3-17.9-68.9-39.8L30,259.2c-12.6-21.9-12.6-57.7,0-79.6L98.9,60.3c12.6-21.9,43.6-39.8,68.9-39.8H305.6c25.3,0,56.3,17.9,68.9,39.8l68.9,119.3c12.7,21.9,12.7,57.7,0,79.6ZM236.7-61.6c-155.2,0-281,125.8-281,281s125.8,281.1,281,281.1,281-125.9,281-281.1S391.9-61.6,236.7-61.6Z" style="fill:#8b8889;opacity:0.2647058823316984"/><path d="M373.7,377.7c-12.7,21.9-43.7,39.8-68.9,39.8H167c-25.3,0-56.3-17.9-68.9-39.8L29.2,258.4c-12.7-21.9-12.7-57.7,0-79.6L98.1,59.4c12.6-21.8,43.6-39.7,68.9-39.7H304.8c25.2,0,56.2,17.9,68.9,39.7l68.9,119.4c12.6,21.9,12.6,57.7,0,79.6ZM235.9-62.5C80.6-62.5-45.2,63.4-45.2,218.6s125.8,281,281.1,281,281-125.8,281-281S391.1-62.5,235.9-62.5Z" style="fill:#868485;opacity:0.2745098038861641"/><path d="M372.8,376.8c-12.6,21.9-43.6,39.8-68.9,39.8H166.1c-25.3,0-56.3-17.9-68.9-39.8L28.3,257.5c-12.6-21.9-12.6-57.7,0-79.6L97.2,58.6c12.6-21.9,43.6-39.8,68.9-39.8H303.9c25.3,0,56.3,17.9,68.9,39.8l68.9,119.3c12.7,21.9,12.7,57.7,0,79.6ZM235-63.3C79.8-63.3-46,62.5-46,217.7S79.8,498.8,235,498.8,516.1,372.9,516.1,217.7,390.2-63.3,235-63.3Z" style="fill:#828080;opacity:0.28431372544062977"/><path d="M372,376c-12.7,21.9-43.7,39.8-68.9,39.8H165.3c-25.3,0-56.3-17.9-68.9-39.8L27.5,256.7c-12.7-21.9-12.7-57.7,0-79.6L96.4,57.7C109,35.9,140,18,165.3,18H303.1c25.2,0,56.2,17.9,68.9,39.7l68.9,119.4c12.6,21.9,12.6,57.7,0,79.6ZM234.2-64.2C79-64.2-46.9,61.7-46.9,216.9s125.9,281,281.1,281,281-125.8,281-281S389.4-64.2,234.2-64.2Z" style="fill:#7e7b7c;opacity:0.29411764699509546"/><path d="M371.1,375.1c-12.6,21.9-43.6,39.8-68.9,39.8H164.4c-25.2,0-56.3-17.9-68.9-39.8L26.6,255.8c-12.6-21.9-12.6-57.7,0-79.6L95.5,56.9c12.6-21.9,43.7-39.8,68.9-39.8H302.2c25.3,0,56.3,17.9,68.9,39.8L440,176.2c12.7,21.9,12.7,57.7,0,79.6ZM233.3-65C78.1-65-47.7,60.8-47.7,216s125.8,281.1,281,281.1S514.4,371.2,514.4,216,388.5-65,233.3-65Z" style="fill:#797777;opacity:0.30392156854956115"/><path d="M370.3,374.3c-12.7,21.9-43.7,39.8-68.9,39.8H163.6c-25.3,0-56.3-17.9-68.9-39.8L25.8,255c-12.7-21.9-12.7-57.7,0-79.6L94.7,56.1c12.6-21.9,43.6-39.8,68.9-39.8H301.4c25.2,0,56.2,17.9,68.9,39.8l68.9,119.3c12.6,21.9,12.6,57.7,0,79.6ZM232.5-65.9C77.3-65.9-48.6,60-48.6,215.2s125.9,281,281.1,281,281-125.8,281-281S387.7-65.9,232.5-65.9Z" style="fill:#757273;opacity:0.31372549010402684"/><path d="M369.4,373.5c-12.6,21.8-43.6,39.7-68.9,39.7H162.7c-25.2,0-56.3-17.9-68.9-39.7L24.9,254.1c-12.6-21.9-12.6-57.7,0-79.6L93.8,55.2c12.6-21.9,43.7-39.8,68.9-39.8H300.5c25.3,0,56.3,17.9,68.9,39.8l68.9,119.3c12.7,21.9,12.7,57.7,0,79.6ZM231.6-66.7c-155.2,0-281,125.8-281,281s125.8,281.1,281,281.1S512.7,369.5,512.7,214.3,386.8-66.7,231.6-66.7Z" style="fill:#716e6f;opacity:0.3235294116584925"/><path d="M368.6,372.6c-12.7,21.9-43.7,39.8-68.9,39.8H161.9c-25.3,0-56.3-17.9-68.9-39.8L24.1,253.3c-12.7-21.9-12.7-57.7,0-79.6L93,54.4c12.6-21.9,43.6-39.8,68.9-39.8H299.7c25.2,0,56.2,17.9,68.9,39.8l68.9,119.3c12.6,21.9,12.6,57.7,0,79.6ZM230.8-67.6C75.6-67.6-50.3,58.3-50.3,213.5s125.9,281,281.1,281,281-125.8,281-281S386-67.6,230.8-67.6Z" style="fill:#6c6a6a;opacity:0.3333333332129582"/><path d="M367.7,371.8c-12.6,21.8-43.6,39.7-68.9,39.7H161c-25.2,0-56.2-17.9-68.9-39.7L23.2,252.4c-12.6-21.9-12.6-57.7,0-79.6L92.1,53.5c12.7-21.9,43.7-39.8,68.9-39.8H298.8c25.3,0,56.3,17.9,68.9,39.8l68.9,119.3c12.7,21.9,12.7,57.7,0,79.6ZM229.9-68.4c-155.2,0-281,125.8-281,281s125.8,281.1,281,281.1S511,367.8,511,212.6,385.1-68.4,229.9-68.4Z" style="fill:#686566;opacity:0.3431372547674239"/><path d="M366.9,370.9c-12.6,21.9-43.7,39.8-68.9,39.8H160.2c-25.3,0-56.3-17.9-68.9-39.8L22.4,251.6c-12.7-21.9-12.7-57.7,0-79.6L91.3,52.7c12.6-21.9,43.6-39.8,68.9-39.8H298c25.2,0,56.3,17.9,68.9,39.8L435.8,172c12.6,21.9,12.6,57.7,0,79.6ZM229.1-69.3C73.9-69.3-52,56.6-52,211.8s125.9,281,281.1,281,281-125.8,281-281S384.3-69.3,229.1-69.3Z" style="fill:#646162;opacity:0.3529411763218896"/><path d="M366,370.1c-12.6,21.8-43.6,39.7-68.9,39.7H159.3c-25.2,0-56.2-17.9-68.9-39.7L21.5,250.7c-12.6-21.9-12.6-57.7,0-79.5L90.4,51.8C103.1,29.9,134.1,12,159.3,12H297.1c25.3,0,56.3,17.9,68.9,39.8l68.9,119.4c12.7,21.8,12.7,57.6,0,79.5ZM228.2-70.1c-155.2,0-281,125.8-281,281S73,492,228.2,492,509.3,366.2,509.3,210.9,383.4-70.1,228.2-70.1Z" style="fill:#5f5c5d;opacity:0.3627450978763553"/><path d="M365.2,369.2c-12.6,21.9-43.7,39.8-68.9,39.8H158.5c-25.3,0-56.3-17.9-68.9-39.8L20.7,249.9C8,228,8,192.2,20.7,170.3L89.6,51c12.6-21.9,43.6-39.8,68.9-39.8H296.3c25.2,0,56.3,17.9,68.9,39.8l68.9,119.3c12.6,21.9,12.6,57.7,0,79.6ZM227.4-71C72.2-71-53.7,54.9-53.7,210.1s125.9,281,281.1,281,281-125.8,281-281S382.6-71,227.4-71Z" style="fill:#5b5859;opacity:0.37254901943082097"/><path d="M364.3,368.4c-12.6,21.8-43.6,39.8-68.9,39.8H157.6c-25.2,0-56.2-18-68.9-39.8L19.8,249c-12.6-21.9-12.6-57.7,0-79.5L88.7,50.1c12.7-21.9,43.7-39.8,68.9-39.8H295.4c25.3,0,56.3,17.9,68.9,39.8l68.9,119.4c12.7,21.8,12.7,57.6,0,79.5ZM226.5-71.8c-155.2,0-281,125.8-281,281s125.8,281.1,281,281.1S507.6,364.5,507.6,209.2,381.8-71.8,226.5-71.8Z" style="fill:#575454;opacity:0.38235294098528666"/><path d="M363.5,367.5c-12.6,21.9-43.6,39.8-68.9,39.8H156.8c-25.3,0-56.3-17.9-68.9-39.8L19,248.2c-12.7-21.9-12.7-57.7,0-79.6L87.9,49.3c12.6-21.9,43.6-39.8,68.9-39.8H294.6c25.3,0,56.3,17.9,68.9,39.8l68.9,119.3c12.6,21.9,12.6,57.7,0,79.6ZM225.7-72.6C70.5-72.6-55.4,53.2-55.4,208.4s125.9,281,281.1,281,281-125.8,281-281S380.9-72.6,225.7-72.6Z" style="fill:#524f50;opacity:0.39215686253975235"/><path d="M362.6,366.7c-12.6,21.9-43.6,39.8-68.9,39.8H155.9c-25.2,0-56.2-17.9-68.9-39.8L18.1,247.3c-12.6-21.8-12.6-57.7,0-79.5L87,48.4C99.7,26.5,130.7,8.6,155.9,8.6H293.7c25.3,0,56.3,17.9,68.9,39.8l68.9,119.4c12.7,21.8,12.7,57.7,0,79.5ZM224.8-73.5c-155.2,0-281,125.8-281,281s125.8,281.1,281,281.1S505.9,362.8,505.9,207.5,380.1-73.5,224.8-73.5Z" style="fill:#4e4b4c;opacity:0.40196078409421804"/><path d="M361.8,365.8c-12.6,21.9-43.6,39.8-68.9,39.8H155.1c-25.3,0-56.3-17.9-68.9-39.8L17.3,246.5c-12.7-21.9-12.7-57.7,0-79.6L86.2,47.6C98.8,25.7,129.8,7.8,155.1,7.8H292.9c25.3,0,56.3,17.9,68.9,39.8l68.9,119.3c12.6,21.9,12.6,57.7,0,79.6ZM224-74.3C68.8-74.3-57,51.5-57,206.7s125.8,281,281,281,281-125.8,281-281S379.2-74.3,224-74.3Z" style="fill:#4a4747;opacity:0.4117647056486837"/><path d="M360.9,365c-12.6,21.9-43.6,39.8-68.9,39.8H154.2C129,404.8,98,386.9,85.3,365L16.4,245.6c-12.6-21.8-12.6-57.7,0-79.5L85.3,46.7C98,24.8,129,6.9,154.2,6.9H292c25.3,0,56.3,17.9,68.9,39.8l69,119.4c12.6,21.8,12.6,57.7,0,79.5ZM223.1-75.2c-155.2,0-281,125.8-281,281.1s125.8,281,281,281,281.1-125.8,281.1-281S378.4-75.2,223.1-75.2Z" style="fill:#464243;opacity:0.4215686272031494"/><path d="M360.1,364.1c-12.6,21.9-43.6,39.8-68.9,39.8H153.4c-25.3,0-56.3-17.9-68.9-39.8L15.6,244.8C3,222.9,3,187.1,15.6,165.2L84.5,45.9C97.1,24,128.1,6.1,153.4,6.1H291.2c25.3,0,56.3,17.9,68.9,39.8L429,165.2c12.6,21.9,12.6,57.7,0,79.6ZM222.3-76C67.1-76-58.7,49.8-58.7,205s125.8,281,281,281,281-125.8,281-281S377.5-76,222.3-76Z" style="fill:#413e3f;opacity:0.4313725487576151"/><path d="M359.3,363.3c-12.7,21.9-43.7,39.8-68.9,39.8H152.5c-25.2,0-56.2-17.9-68.9-39.8L14.7,243.9c-12.6-21.8-12.6-57.6,0-79.5L83.6,45C96.3,23.2,127.3,5.2,152.5,5.2H290.4c25.2,0,56.2,18,68.9,39.8l68.9,119.4c12.6,21.9,12.6,57.7,0,79.5ZM221.5-76.9C66.2-76.9-59.6,48.9-59.6,204.2s125.8,281,281.1,281,281-125.8,281-281S376.7-76.9,221.5-76.9Z" style="fill:#3d393a;opacity:0.4411764703120808"/><path d="M358.4,362.4c-12.6,21.9-43.6,39.8-68.9,39.8H151.7c-25.3,0-56.3-17.9-68.9-39.8L13.9,243.1c-12.6-21.9-12.6-57.7,0-79.6L82.8,44.2C95.4,22.3,126.4,4.4,151.7,4.4H289.5c25.3,0,56.3,17.9,68.9,39.8l68.9,119.3c12.6,21.9,12.6,57.7,0,79.6ZM220.6-77.7c-155.2,0-281,125.8-281,281s125.8,281,281,281,281-125.8,281-281S375.8-77.7,220.6-77.7Z" style="fill:#393536;opacity:0.4509803918665465"/><path d="M357.6,361.6c-12.7,21.9-43.7,39.8-68.9,39.8H150.8c-25.2,0-56.2-17.9-68.9-39.8L13,242.2C.4,220.4.4,184.6,13,162.7L81.9,43.3C94.6,21.5,125.6,3.6,150.8,3.6H288.7c25.2,0,56.2,17.9,68.9,39.7l68.9,119.4c12.6,21.9,12.6,57.7,0,79.5ZM219.8-78.6C64.5-78.6-61.3,47.2-61.3,202.5s125.8,281,281.1,281,281-125.8,281-281S375-78.6,219.8-78.6Z" style="fill:#343131;opacity:0.46078431342101217"/><path d="M356.7,360.7c-12.6,21.9-43.6,39.8-68.9,39.8H150c-25.3,0-56.3-17.9-68.9-39.8L12.2,241.4c-12.6-21.9-12.6-57.7,0-79.6L81.1,42.5C93.7,20.6,124.7,2.7,150,2.7H287.8c25.3,0,56.3,17.9,68.9,39.8l68.9,119.3c12.6,21.9,12.6,57.7,0,79.6ZM218.9-79.4c-155.2,0-281,125.8-281,281s125.8,281.1,281,281.1,281-125.9,281-281.1S374.1-79.4,218.9-79.4Z" style="fill:#302c2d;opacity:0.47058823497547786"/><path d="M355.9,359.9c-12.7,21.9-43.7,39.8-68.9,39.8H149.2c-25.3,0-56.3-17.9-69-39.8L11.3,240.6c-12.6-21.9-12.6-57.7,0-79.6L80.2,41.6c12.7-21.8,43.7-39.7,69-39.7H287c25.2,0,56.2,17.9,68.9,39.7L424.8,161c12.6,21.9,12.6,57.7,0,79.6ZM218.1-80.3C62.8-80.3-63,45.6-63,200.8s125.8,281,281.1,281,281-125.8,281-281S373.3-80.3,218.1-80.3Z" style="fill:#2c2829;opacity:0.48039215652994355"/><path d="M355,359c-12.6,21.9-43.6,39.8-68.9,39.8H148.3C123,398.8,92,380.9,79.4,359L10.5,239.7c-12.6-21.9-12.6-57.7,0-79.6L79.4,40.8C92,18.9,123,1,148.3,1H286.1c25.3,0,56.3,17.9,68.9,39.8l68.9,119.3c12.7,21.9,12.7,57.7,0,79.6ZM217.2-81.1c-155.2,0-281,125.8-281,281S62,481,217.2,481s281-125.9,281-281.1S372.4-81.1,217.2-81.1Z" style="fill:#272324;opacity:0.49019607808440924"/><path d="M354.2,358.2c-12.7,21.9-43.7,39.8-68.9,39.8H147.5c-25.3,0-56.3-17.9-68.9-39.8L9.7,238.9C-3,217-3,181.2,9.7,159.3L78.6,39.9C91.2,18.1,122.2.2,147.5.2H285.3c25.2,0,56.2,17.9,68.9,39.7l68.9,119.4c12.6,21.9,12.6,57.7,0,79.6ZM216.4-82C61.1-82-64.7,43.9-64.7,199.1s125.8,281,281.1,281,281-125.8,281-281S371.6-82,216.4-82Z" style="fill:#231f20;opacity:0.5"/></g><path d="M216.4-82C61.1-82-64.7,43.9-64.7,199.1s125.8,281,281.1,281,281-125.8,281-281S371.6-82,216.4-82ZM354.2,358.2c-12.7,21.9-43.7,39.8-68.9,39.8H147.5c-25.3,0-56.3-17.9-68.9-39.8L9.7,238.9C-3,217-3,181.2,9.7,159.3L78.6,39.9C91.2,18.1,122.2.2,147.5.2H285.3c25.2,0,56.2,17.9,68.9,39.7l68.9,119.4c12.6,21.9,12.6,57.7,0,79.6Z" style="fill:#fff"/></g><path d="M317.4,182.1l-99.8-44.6a2.8,2.8,0,0,0-2.5,0l-40.4,18.1a3,3,0,0,0-1.6,4,3.1,3.1,0,0,0,4.1,1.5l39.2-17.5,35.9,16V182a130.6,130.6,0,0,0-35.9-7.5h-.1a129.4,129.4,0,0,0-40,9.2,106.9,106.9,0,0,0-22.6,12.5,3.3,3.3,0,0,0-1.1,1.5L124,184.9l40.1-18a2.9,2.9,0,0,0,1.6-4,3,3,0,0,0-4-1.5l-46.4,20.7a3.1,3.1,0,0,0,0,5.6l37.2,16.6v14.5a3,3,0,0,0,3,3.1,3.1,3.1,0,0,0,3.1-3.1V202.4h0v-2.1a97.9,97.9,0,0,1,20-10.9,123.1,123.1,0,0,1,37.8-8.7,123.6,123.6,0,0,1,35.9,7.9v30.3a10.7,10.7,0,0,0-1.1,20.2l-2.1,5.6c-13.9,2.4-24.9,5.7-32.7,9.8-18.1-9.5-48.3-12.1-57.8-12.8v-8.5a3.1,3.1,0,0,0-3.1-3.1,3,3,0,0,0-3,3.1v11.4a3,3,0,0,0,2.9,3c.4.1,39.9,1.9,59.5,13a2.4,2.4,0,0,0,1.5.4,2.8,2.8,0,0,0,1.5-.4c6.5-3.7,16.4-6.9,28.6-9.2l-1.7,4.7a2.8,2.8,0,0,0,.3,2.8,3.1,3.1,0,0,0,2.5,1.3H263a3.1,3.1,0,0,0,2.9-4.1l-2.8-7.2c8.3-1,14.2-1.3,14.2-1.3a2.9,2.9,0,0,0,2.9-3V233.1a3,3,0,1,0-6,0v8.5c-2.9.2-7.6.6-13.3,1.3l-1.5-3.9a10.7,10.7,0,0,0-1.1-20.2V191.1a94.1,94.1,0,0,1,15.9,9.1v2.1h0v16.4a3,3,0,1,0,6,0V204.3l37.2-16.6a3.1,3.1,0,0,0,0-5.6ZM252,254l3.3-8.6,3.3,8.6Zm8-24.9a4.7,4.7,0,0,1-9.4,0,4.7,4.7,0,0,1,9.4,0Zm20.1-31.4a3.3,3.3,0,0,0-1.1-1.5,101.1,101.1,0,0,0-20.7-11.7V162.4l50.4,22.5Z" style="fill:#56595c"/></g><g id="_3" data-name="3"><g style="clip-path:url(#clip-path-3)"><g style="mix-blend-mode:multiply"><path d="M852.5,371.6c-12.7,22-43.8,40-69.2,40H644.9c-25.3,0-56.5-18-69.2-40L506.5,251.8c-12.6-22-12.6-57.9,0-79.9L575.7,52c12.7-21.9,43.9-39.9,69.2-39.9H783.3c25.4,0,56.5,18,69.2,39.9l69.2,119.9c12.7,22,12.7,57.9,0,79.9ZM714.1-70.4C558.3-70.4,431.9,56,431.9,211.8S558.3,494.1,714.1,494.1,996.4,367.7,996.4,211.8,870-70.4,714.1-70.4Z" style="fill:#646162;opacity:0.3529411763218896"/><path d="M851.7,370.8c-12.7,22-43.9,39.9-69.2,39.9H644.1c-25.4,0-56.5-17.9-69.2-39.9L505.7,250.9C493,229,493,193,505.7,171L574.9,51.2c12.7-22,43.8-40,69.2-40H782.5c25.3,0,56.5,18,69.2,40L920.9,171c12.7,22,12.7,58,0,79.9ZM713.3-71.3C557.4-71.3,431,55.1,431,211S557.4,493.2,713.3,493.2,995.5,366.9,995.5,211,869.2-71.3,713.3-71.3Z" style="fill:#5f5c5d;opacity:0.3627450978763553"/><path d="M850.8,369.9c-12.7,22-43.8,40-69.2,40H643.2c-25.3,0-56.5-18-69.2-40L504.8,250.1c-12.6-22-12.6-57.9,0-79.9L574,50.3c12.7-21.9,43.9-39.9,69.2-39.9H781.6c25.4,0,56.5,18,69.2,39.9L920,170.2c12.7,22,12.7,57.9,0,79.9ZM712.4-72.1c-155.8,0-282.2,126.4-282.2,282.2S556.6,492.4,712.4,492.4,994.7,366,994.7,210.1,868.3-72.1,712.4-72.1Z" style="fill:#5b5859;opacity:0.37254901943082097"/><path d="M850,369.1c-12.7,22-43.9,39.9-69.2,39.9H642.4c-25.4,0-56.5-17.9-69.2-39.9L504,249.2c-12.7-21.9-12.7-57.9,0-79.9L573.2,49.5c12.7-22,43.8-40,69.2-40H780.8c25.3,0,56.5,18,69.2,40l69.2,119.8c12.7,22,12.7,58,0,79.9ZM711.6-73C555.7-73,429.3,53.4,429.3,209.3S555.7,491.5,711.6,491.5,993.8,365.2,993.8,209.3,867.5-73,711.6-73Z" style="fill:#575454;opacity:0.38235294098528666"/><path d="M849.1,368.2c-12.7,22-43.8,40-69.2,40H641.5c-25.3,0-56.5-18-69.2-40L503.1,248.4c-12.7-22-12.7-57.9,0-79.9L572.3,48.6C585,26.7,616.2,8.7,641.5,8.7H779.9c25.4,0,56.5,18,69.2,39.9l69.2,119.9c12.7,22,12.7,57.9,0,79.9ZM710.7-73.8c-155.8,0-282.2,126.4-282.2,282.2S554.9,490.7,710.7,490.7,993,364.3,993,208.4,866.6-73.8,710.7-73.8Z" style="fill:#524f50;opacity:0.39215686253975235"/><path d="M848.3,367.4c-12.7,22-43.9,39.9-69.2,39.9H640.7c-25.4,0-56.5-17.9-69.2-39.9L502.3,247.5c-12.7-21.9-12.7-57.9,0-79.9L571.5,47.8c12.7-22,43.8-40,69.2-40H779.1c25.3,0,56.5,18,69.2,40l69.2,119.8c12.7,22,12.7,58,0,79.9ZM709.9-74.7C554-74.7,427.6,51.7,427.6,207.6S554,489.8,709.9,489.8,992.1,363.5,992.1,207.6,865.8-74.7,709.9-74.7Z" style="fill:#4e4b4c;opacity:0.40196078409421804"/><path d="M847.4,366.5c-12.7,22-43.8,40-69.2,40H639.8c-25.3,0-56.5-18-69.2-40L501.4,246.7c-12.7-22-12.7-57.9,0-79.9L570.6,46.9C583.3,25,614.5,7,639.8,7H778.2c25.4,0,56.5,18,69.2,39.9l69.2,119.9c12.7,22,12.7,57.9,0,79.9ZM709-75.5c-155.9,0-282.2,126.4-282.2,282.2S553.1,489,709,489,991.3,362.6,991.3,206.7,864.9-75.5,709-75.5Z" style="fill:#4a4747;opacity:0.4117647056486837"/><path d="M846.6,365.7c-12.7,22-43.9,39.9-69.2,39.9H639c-25.4,0-56.5-17.9-69.2-39.9L500.6,245.8c-12.7-21.9-12.7-57.9,0-79.9L569.8,46.1c12.7-22,43.8-40,69.2-40H777.4c25.3,0,56.5,18,69.2,40l69.2,119.8c12.7,22,12.7,58,0,79.9ZM708.2-76.4C552.3-76.4,425.9,50,425.9,205.9S552.3,488.1,708.2,488.1,990.4,361.8,990.4,205.9,864.1-76.4,708.2-76.4Z" style="fill:#464243;opacity:0.4215686272031494"/><path d="M845.7,364.8c-12.7,22-43.8,40-69.2,40H638.1c-25.3,0-56.5-18-69.2-40L499.7,245c-12.7-22-12.7-58,0-79.9L568.9,45.2c12.7-21.9,43.9-39.9,69.2-39.9H776.5c25.4,0,56.5,18,69.2,39.9l69.2,119.9c12.7,21.9,12.7,57.9,0,79.9ZM707.3-77.2C551.4-77.2,425.1,49.2,425.1,205S551.4,487.3,707.3,487.3,989.6,360.9,989.6,205,863.2-77.2,707.3-77.2Z" style="fill:#413e3f;opacity:0.4313725487576151"/><path d="M844.9,364c-12.7,22-43.9,39.9-69.2,39.9H637.3c-25.4,0-56.5-17.9-69.2-39.9L498.9,244.1c-12.7-21.9-12.7-57.9,0-79.9L568.1,44.4c12.7-22,43.8-40,69.2-40H775.7c25.3,0,56.5,18,69.2,40l69.2,119.8c12.6,22,12.6,58,0,79.9ZM706.5-78.1c-155.9,0-282.3,126.4-282.3,282.3S550.6,486.4,706.5,486.4,988.7,360.1,988.7,204.2,862.3-78.1,706.5-78.1Z" style="fill:#3d393a;opacity:0.4411764703120808"/><path d="M844,363.1c-12.7,22-43.8,40-69.2,40H636.4c-25.3,0-56.5-18-69.2-40L498,243.3c-12.7-22-12.7-58,0-79.9L567.2,43.5c12.7-22,43.9-39.9,69.2-39.9H774.8c25.4,0,56.5,17.9,69.2,39.9l69.2,119.9c12.7,21.9,12.7,57.9,0,79.9ZM705.6-78.9c-155.9,0-282.2,126.4-282.2,282.2S549.7,485.6,705.6,485.6,987.9,359.2,987.9,203.3,861.5-78.9,705.6-78.9Z" style="fill:#393536;opacity:0.4509803918665465"/><path d="M843.2,362.3c-12.7,22-43.9,39.9-69.2,39.9H635.6c-25.4,0-56.5-17.9-69.2-39.9L497.2,242.4c-12.7-21.9-12.7-57.9,0-79.9L566.4,42.7c12.7-22,43.8-40,69.2-40H774c25.3,0,56.5,18,69.2,40l69.2,119.8c12.6,22,12.6,58,0,79.9ZM704.8-79.8c-155.9,0-282.3,126.4-282.3,282.3S548.9,484.7,704.8,484.7,987,358.4,987,202.5,860.6-79.8,704.8-79.8Z" style="fill:#343131;opacity:0.46078431342101217"/><path d="M842.3,361.4c-12.7,22-43.8,40-69.2,40H634.7c-25.4,0-56.5-18-69.2-40L496.3,241.6c-12.7-22-12.7-58,0-79.9L565.5,41.8c12.7-22,43.8-39.9,69.2-39.9H773.1c25.4,0,56.5,17.9,69.2,39.9l69.2,119.9c12.7,21.9,12.7,57.9,0,79.9ZM703.9-80.6C548-80.6,421.7,45.7,421.7,201.6S548,483.9,703.9,483.9,986.2,357.5,986.2,201.6,859.8-80.6,703.9-80.6Z" style="fill:#302c2d;opacity:0.47058823497547786"/><path d="M841.5,360.6c-12.7,22-43.9,39.9-69.2,39.9H633.9c-25.4,0-56.5-17.9-69.2-39.9L495.5,240.7c-12.7-21.9-12.7-57.9,0-79.9L564.7,41c12.7-22,43.8-40,69.2-40H772.3c25.3,0,56.5,18,69.2,40l69.2,119.8c12.6,22,12.6,58,0,79.9ZM703.1-81.5c-155.9,0-282.3,126.4-282.3,282.3S547.2,483,703.1,483,985.3,356.7,985.3,200.8,858.9-81.5,703.1-81.5Z" style="fill:#2c2829;opacity:0.48039215652994355"/><path d="M840.6,359.7c-12.7,22-43.8,40-69.2,40H633c-25.4,0-56.5-18-69.2-40L494.6,239.9c-12.7-22-12.7-58,0-79.9L563.8,40.1C576.5,18.1,607.6.2,633,.2H771.4c25.4,0,56.5,17.9,69.2,39.9L909.8,160c12.7,21.9,12.7,57.9,0,79.9ZM702.2-82.3C546.3-82.3,420,44,420,199.9S546.3,482.2,702.2,482.2,984.5,355.8,984.5,199.9,858.1-82.3,702.2-82.3Z" style="fill:#272324;opacity:0.49019607808440924"/><path d="M839.8,358.9c-12.7,21.9-43.9,39.9-69.2,39.9H632.2c-25.4,0-56.5-18-69.2-39.9L493.8,239c-12.7-21.9-12.7-57.9,0-79.9L563,39.3c12.7-22,43.8-40,69.2-40H770.6c25.3,0,56.5,18,69.2,40L909,159.1c12.6,22,12.6,58,0,79.9ZM701.4-83.2c-155.9,0-282.3,126.4-282.3,282.3S545.5,481.3,701.4,481.3,983.6,354.9,983.6,199.1,857.2-83.2,701.4-83.2Z" style="fill:#231f20;opacity:0.5"/></g><path d="M701.4-83.2c-155.9,0-282.3,126.4-282.3,282.3S545.5,481.3,701.4,481.3,983.6,354.9,983.6,199.1,857.2-83.2,701.4-83.2ZM839.8,358.9c-12.7,21.9-43.9,39.9-69.2,39.9H632.2c-25.4,0-56.5-18-69.2-39.9L493.8,239c-12.7-21.9-12.7-57.9,0-79.9L563,39.3c12.7-22,43.8-40,69.2-40H770.6c25.3,0,56.5,18,69.2,40L909,159.1c12.6,22,12.6,58,0,79.9Z" style="fill:#fff"/></g></g></g></svg>