<svg xmlns="http://www.w3.org/2000/svg" xmlns:xlink="http://www.w3.org/1999/xlink" viewBox="0 0 432.7 398.1"><defs><clipPath id="clip-path"><path d="M-337.5,398c-25.3,0-56.3-17.9-68.9-39.8l-68.9-119.4c-12.7-21.8-12.7-57.6,0-79.5l68.9-119.4C-393.8,18.1-362.8.2-337.5.2h137.8c25.2,0,56.2,17.9,68.9,39.7l68.9,119.4c12.6,21.9,12.6,57.7,0,79.5l-68.9,119.4c-12.7,21.9-43.7,39.8-68.9,39.8Z" style="fill:none"/></clipPath><clipPath id="clip-path-2"><path d="M147.2,398.8c-25.4,0-56.5-18-69.2-39.9L8.8,239c-12.7-21.9-12.7-57.9,0-79.9L78,39.3c12.7-22,43.8-40,69.2-40H285.6c25.3,0,56.5,18,69.2,40L424,159.1c12.6,22,12.6,58,0,79.9L354.8,358.9c-12.7,21.9-43.9,39.9-69.2,39.9Z" style="fill:none"/></clipPath><clipPath id="clip-path-3"><path d="M634.2,397.3c-25.2,0-56.1-17.8-68.7-39.6l-68.7-119c-12.6-21.8-12.6-57.5,0-79.3l68.7-119C578.1,18.6,609,.8,634.2.8H771.5c25.2,0,56.1,17.8,68.7,39.6l68.7,119c12.6,21.8,12.6,57.5,0,79.3l-68.7,119c-12.6,21.8-43.5,39.6-68.7,39.6Z" style="fill:none"/></clipPath></defs><g style="isolation:isolate"><g id="_2" data-name="2"><g style="clip-path:url(#clip-path)"><g style="mix-blend-mode:multiply"><path d="M-301.2,461.1c-27.8,0-61.9-19.7-75.8-43.8l-75.8-131.2c-13.9-24.1-13.9-63.5,0-87.6L-377,67.3c13.9-24.1,48-43.8,75.8-43.8h151.6c27.8,0,61.9,19.7,75.8,43.8L2,198.5c13.9,24.1,13.9,63.5,0,87.6L-73.8,417.3c-13.9,24.1-48,43.8-75.8,43.8Z" style="fill:#fff;opacity:0"/><path d="M-300.4,458.8c-27.5,0-61.2-19.5-75-43.3l-74.9-129.9c-13.8-23.8-13.8-62.8,0-86.6l74.9-129.9c13.8-23.8,47.5-43.3,75-43.3h150c27.5,0,61.2,19.5,75,43.3L-.5,199c13.8,23.8,13.8,62.8,0,86.6L-75.4,415.5c-13.8,23.8-47.5,43.3-75,43.3Z" style="fill:#fbfbfb;opacity:0.009803921915590525"/><path d="M-299.6,456.4c-27.2,0-60.5-19.2-74.1-42.8l-74.2-128.5c-13.6-23.5-13.6-62.1,0-85.6L-373.7,71c13.6-23.5,46.9-42.8,74.1-42.8h148.4c27.2,0,60.5,19.3,74.1,42.8L-2.9,199.5c13.6,23.5,13.6,62.1,0,85.6L-77.1,413.6c-13.6,23.6-46.9,42.8-74.1,42.8Z" style="fill:#f6f6f6;opacity:0.01960784347005621"/><path d="M-298.8,454.1c-26.9,0-59.9-19.1-73.3-42.4l-73.4-127c-13.4-23.3-13.4-61.5,0-84.8l73.4-127c13.4-23.3,46.4-42.4,73.3-42.4H-152c26.9,0,59.9,19.1,73.3,42.4l73.4,127c13.4,23.3,13.4,61.5,0,84.8l-73.4,127c-13.4,23.3-46.4,42.4-73.3,42.4Z" style="fill:#f2f2f2;opacity:0.02941176502452189"/><path d="M-298,451.7c-26.6,0-59.2-18.8-72.5-41.8l-72.6-125.7c-13.3-23-13.3-60.7,0-83.8l72.6-125.6c13.3-23.1,45.9-41.9,72.5-41.9h145.1c26.6,0,59.3,18.8,72.6,41.9L-7.7,200.4c13.3,23.1,13.3,60.8,0,83.8L-80.3,409.9c-13.3,23-46,41.8-72.6,41.8Z" style="fill:#eeedee;opacity:0.03921568657898757"/></g><g style="mix-blend-mode:multiply"><path d="M-87.6,401.4c-12.6,21.9-43.6,39.8-68.9,39.8H-294.3c-25.3,0-56.3-17.9-68.9-39.8l-68.9-119.3c-12.6-21.9-12.6-57.7,0-79.6l68.9-119.3c12.6-21.9,43.6-39.8,68.9-39.8h137.8c25.3,0,56.3,17.9,68.9,39.8l68.9,119.3c12.6,21.9,12.6,57.7,0,79.6ZM-225.4-38.7c-155.2,0-281,125.8-281,281s125.8,281,281,281,281-125.8,281-281S-70.2-38.7-225.4-38.7Z" style="fill:#fff;opacity:0"/><path d="M-88.4,400.6c-12.7,21.9-43.7,39.8-68.9,39.8H-295.2c-25.2,0-56.2-17.9-68.9-39.8L-433,281.2c-12.6-21.8-12.6-57.6,0-79.5l68.9-119.4c12.7-21.8,43.7-39.7,68.9-39.7h137.9c25.2,0,56.2,17.9,68.9,39.7l68.9,119.4c12.6,21.9,12.6,57.7,0,79.5ZM-226.2-39.6c-155.3,0-281.1,125.8-281.1,281.1s125.8,281,281.1,281,281-125.8,281-281S-71-39.6-226.2-39.6Z" style="fill:#fbfbfb;opacity:0.009803921915590525"/><path d="M-89.3,399.7c-12.6,21.9-43.6,39.8-68.9,39.8H-296c-25.3,0-56.3-17.9-68.9-39.8l-68.9-119.3c-12.6-21.9-12.6-57.7,0-79.6l68.9-119.3c12.6-21.9,43.6-39.8,68.9-39.8h137.8c25.3,0,56.3,17.9,68.9,39.8l68.9,119.3c12.6,21.9,12.6,57.7,0,79.6ZM-227.1-40.4c-155.2,0-281,125.8-281,281s125.8,281,281,281,281-125.8,281-281S-71.9-40.4-227.1-40.4Z" style="fill:#f6f6f6;opacity:0.01960784347005621"/><path d="M-90.1,398.9c-12.7,21.9-43.7,39.8-68.9,39.8H-296.9c-25.2,0-56.2-17.9-68.9-39.8l-68.9-119.4c-12.6-21.8-12.6-57.6,0-79.5l68.9-119.4c12.7-21.8,43.7-39.7,68.9-39.7H-159c25.2,0,56.2,17.9,68.9,39.7L-21.2,200c12.6,21.9,12.6,57.7,0,79.5ZM-227.9-41.3C-383.2-41.3-509,84.5-509,239.8s125.8,281,281.1,281,281-125.8,281-281S-72.7-41.3-227.9-41.3Z" style="fill:#f2f2f2;opacity:0.02941176502452189"/><path d="M-91,398c-12.6,21.9-43.6,39.8-68.9,39.8H-297.7c-25.3,0-56.3-17.9-68.9-39.8l-68.9-119.3c-12.6-21.9-12.6-57.7,0-79.6l68.9-119.3C-354,57.9-323,40-297.7,40h137.8c25.3,0,56.3,17.9,68.9,39.8l68.9,119.3c12.7,21.9,12.7,57.7,0,79.6ZM-228.8-42.1c-155.2,0-281,125.8-281,281S-384,520-228.8,520s281-125.9,281-281.1S-73.6-42.1-228.8-42.1Z" style="fill:#eeedee;opacity:0.03921568657898757"/><path d="M-91.8,397.2c-12.7,21.9-43.7,39.8-68.9,39.8H-298.5c-25.3,0-56.3-17.9-68.9-39.8l-68.9-119.3c-12.7-21.9-12.7-57.7,0-79.6l68.9-119.4c12.6-21.8,43.6-39.7,68.9-39.7h137.8c25.2,0,56.2,17.9,68.9,39.7l68.9,119.4c12.6,21.9,12.6,57.7,0,79.6ZM-229.6-43C-384.9-43-510.7,82.9-510.7,238.1s125.8,281,281.1,281,281-125.8,281-281S-74.4-43-229.6-43Z" style="fill:#e9e9e9;opacity:0.049019608133453255"/><path d="M-92.7,396.3c-12.6,21.9-43.6,39.8-68.9,39.8H-299.4c-25.3,0-56.3-17.9-68.9-39.8L-437.2,277c-12.6-21.9-12.6-57.7,0-79.6l68.9-119.3c12.6-21.9,43.6-39.8,68.9-39.8h137.8c25.3,0,56.3,17.9,68.9,39.8l68.9,119.3c12.7,21.9,12.7,57.7,0,79.6ZM-230.5-43.8c-155.2,0-281,125.8-281,281s125.8,281.1,281,281.1S50.6,392.4,50.6,237.2-75.3-43.8-230.5-43.8Z" style="fill:#e5e5e5;opacity:0.058823529687918936"/><path d="M-93.5,395.5c-12.7,21.9-43.7,39.8-68.9,39.8H-300.2c-25.3,0-56.3-17.9-68.9-39.8L-438,276.2c-12.7-21.9-12.7-57.7,0-79.6l68.9-119.4c12.6-21.8,43.6-39.7,68.9-39.7h137.8c25.2,0,56.2,17.9,68.9,39.7l68.9,119.4c12.6,21.9,12.6,57.7,0,79.6ZM-231.3-44.7c-155.2,0-281.1,125.9-281.1,281.1s125.9,281,281.1,281,281-125.8,281-281S-76.1-44.7-231.3-44.7Z" style="fill:#e1e0e0;opacity:0.06862745124238462"/><path d="M-94.4,394.6c-12.6,21.9-43.6,39.8-68.9,39.8H-301.1c-25.2,0-56.3-17.9-68.9-39.8l-68.9-119.3c-12.6-21.9-12.6-57.7,0-79.6L-370,76.4c12.6-21.9,43.7-39.8,68.9-39.8h137.8c25.3,0,56.3,17.9,68.9,39.8l68.9,119.3c12.7,21.9,12.7,57.7,0,79.6ZM-232.2-45.5c-155.2,0-281,125.8-281,281s125.8,281.1,281,281.1S48.9,390.7,48.9,235.5-77-45.5-232.2-45.5Z" style="fill:#dcdcdc;opacity:0.07843137279685031"/><path d="M-95.2,393.8c-12.7,21.9-43.7,39.8-68.9,39.8H-301.9c-25.3,0-56.3-17.9-68.9-39.8l-68.9-119.3c-12.7-21.9-12.7-57.7,0-79.6l68.9-119.3c12.6-21.9,43.6-39.8,68.9-39.8h137.8c25.2,0,56.2,17.9,68.9,39.8l68.9,119.3c12.6,21.9,12.6,57.7,0,79.6ZM-233-46.4c-155.2,0-281.1,125.9-281.1,281.1s125.9,281,281.1,281S48,389.9,48,234.7-77.8-46.4-233-46.4Z" style="fill:#d8d7d8;opacity:0.088235294351316"/><path d="M-96.1,393c-12.6,21.8-43.6,39.7-68.9,39.7H-302.8c-25.2,0-56.3-17.9-68.9-39.7l-68.9-119.4c-12.6-21.9-12.6-57.7,0-79.6l68.9-119.3c12.6-21.9,43.7-39.8,68.9-39.8H-165c25.3,0,56.3,17.9,68.9,39.8L-27.2,194c12.7,21.9,12.7,57.7,0,79.6ZM-233.9-47.2c-155.2,0-281,125.8-281,281s125.8,281.1,281,281.1S47.2,389,47.2,233.8-78.7-47.2-233.9-47.2Z" style="fill:#d4d3d3;opacity:0.09803921590578168"/><path d="M-96.9,392.1c-12.7,21.9-43.7,39.8-68.9,39.8H-303.6c-25.3,0-56.3-17.9-68.9-39.8l-68.9-119.3c-12.7-21.9-12.7-57.7,0-79.6l68.9-119.3c12.6-21.9,43.6-39.8,68.9-39.8h137.8c25.2,0,56.2,17.9,68.9,39.8L-28,193.2c12.6,21.9,12.6,57.7,0,79.6ZM-234.7-48.1C-389.9-48.1-515.8,77.8-515.8,233s125.9,281,281.1,281,281-125.8,281-281S-79.5-48.1-234.7-48.1Z" style="fill:#d0cfcf;opacity:0.10784313746024737"/><path d="M-97.8,391.3c-12.6,21.8-43.6,39.7-68.9,39.7H-304.5c-25.2,0-56.2-17.9-68.9-39.7l-68.9-119.4c-12.6-21.9-12.6-57.7,0-79.6L-373.4,73c12.7-21.9,43.7-39.8,68.9-39.8h137.8c25.3,0,56.3,17.9,68.9,39.8l68.9,119.3c12.7,21.9,12.7,57.7,0,79.6ZM-235.6-48.9c-155.2,0-281,125.8-281,281s125.8,281.1,281,281.1S45.5,387.3,45.5,232.1-80.4-48.9-235.6-48.9Z" style="fill:#cbcacb;opacity:0.11764705901471306"/><path d="M-98.6,390.4c-12.6,21.9-43.7,39.8-68.9,39.8H-305.3c-25.3,0-56.3-17.9-68.9-39.8l-68.9-119.3c-12.7-21.9-12.7-57.7,0-79.6l68.9-119.3c12.6-21.9,43.6-39.8,68.9-39.8h137.8c25.2,0,56.3,17.9,68.9,39.8l68.9,119.3c12.6,21.9,12.6,57.7,0,79.6ZM-236.4-49.8c-155.2,0-281.1,125.9-281.1,281.1s125.9,281,281.1,281,281-125.8,281-281S-81.2-49.8-236.4-49.8Z" style="fill:#c7c6c6;opacity:0.12745098056917875"/><path d="M-99.5,389.6c-12.6,21.8-43.6,39.7-68.9,39.7H-306.2c-25.2,0-56.2-17.9-68.9-39.7L-444,270.2c-12.6-21.9-12.6-57.7,0-79.5l68.9-119.4c12.7-21.9,43.7-39.8,68.9-39.8h137.8c25.3,0,56.3,17.9,68.9,39.8l68.9,119.4c12.7,21.8,12.7,57.6,0,79.5ZM-237.3-50.6c-155.2,0-281,125.8-281,281s125.8,281.1,281,281.1S43.8,385.7,43.8,230.4-82.1-50.6-237.3-50.6Z" style="fill:#c3c2c2;opacity:0.13725490212364444"/><path d="M-100.3,388.7c-12.6,21.9-43.7,39.8-68.9,39.8H-307c-25.3,0-56.3-17.9-68.9-39.8l-68.9-119.3c-12.7-21.9-12.7-57.7,0-79.6l68.9-119.3c12.6-21.9,43.6-39.8,68.9-39.8h137.8c25.2,0,56.3,17.9,68.9,39.8l68.9,119.3c12.6,21.9,12.6,57.7,0,79.6ZM-238.1-51.5c-155.2,0-281.1,125.9-281.1,281.1s125.9,281,281.1,281,281-125.8,281-281S-82.9-51.5-238.1-51.5Z" style="fill:#bebdbd;opacity:0.14705882367811013"/><path d="M-101.2,387.9c-12.6,21.8-43.6,39.7-68.9,39.7H-307.9c-25.2,0-56.2-17.9-68.9-39.7l-68.9-119.4c-12.6-21.9-12.6-57.7,0-79.5l68.9-119.4c12.7-21.9,43.7-39.8,68.9-39.8h137.8c25.3,0,56.3,17.9,68.9,39.8L-32.3,189c12.7,21.8,12.7,57.6,0,79.5ZM-239-52.3c-155.2,0-281,125.8-281,281s125.8,281.1,281,281.1S42.1,384,42.1,228.7-83.7-52.3-239-52.3Z" style="fill:#bab9b9;opacity:0.15686274523257582"/><path d="M-102,387c-12.6,21.9-43.6,39.8-68.9,39.8H-308.7c-25.3,0-56.3-17.9-68.9-39.8l-68.9-119.3c-12.7-21.9-12.7-57.7,0-79.6l68.9-119.3C-365,46.9-334,29-308.7,29h137.8c25.3,0,56.3,17.9,68.9,39.8l68.9,119.3c12.6,21.9,12.6,57.7,0,79.6ZM-239.8-53.1c-155.2,0-281.1,125.8-281.1,281s125.9,281,281.1,281,281-125.8,281-281S-84.6-53.1-239.8-53.1Z" style="fill:#b6b4b5;opacity:0.1666666667870415"/><path d="M-102.9,386.2c-12.6,21.9-43.6,39.8-68.9,39.8H-309.6c-25.2,0-56.2-17.9-68.9-39.8l-68.9-119.4c-12.6-21.8-12.6-57.7,0-79.5l68.9-119.4c12.7-21.9,43.7-39.8,68.9-39.8h137.8c25.3,0,56.3,17.9,68.9,39.8L-34,187.3c12.7,21.8,12.7,57.7,0,79.5ZM-240.7-54c-155.2,0-281,125.8-281,281s125.8,281.1,281,281.1S40.4,382.3,40.4,227-85.4-54-240.7-54Z" style="fill:#b1b0b0;opacity:0.1764705883415072"/><path d="M-103.7,385.3c-12.6,21.9-43.6,39.8-68.9,39.8H-310.4c-25.3,0-56.3-17.9-68.9-39.8L-448.2,266c-12.7-21.9-12.7-57.7,0-79.6l68.9-119.3c12.6-21.9,43.6-39.8,68.9-39.8h137.8c25.3,0,56.3,17.9,68.9,39.8l68.9,119.3c12.6,21.9,12.6,57.7,0,79.6ZM-241.5-54.8c-155.2,0-281,125.8-281,281s125.8,281,281,281,281-125.8,281-281S-86.3-54.8-241.5-54.8Z" style="fill:#adacac;opacity:0.18627450989597288"/><path d="M-104.6,384.5c-12.6,21.9-43.6,39.8-68.9,39.8H-311.3c-25.2,0-56.2-17.9-68.9-39.8l-68.9-119.4c-12.6-21.8-12.6-57.7,0-79.5l68.9-119.4c12.7-21.9,43.7-39.8,68.9-39.8h137.8c25.3,0,56.3,17.9,68.9,39.8l69,119.4c12.6,21.8,12.6,57.7,0,79.5ZM-242.4-55.7c-155.2,0-281,125.8-281,281.1s125.8,281,281,281S38.7,380.6,38.7,225.4-87.1-55.7-242.4-55.7Z" style="fill:#a9a7a8;opacity:0.19607843145043857"/><path d="M-105.4,383.6c-12.6,21.9-43.6,39.8-68.9,39.8H-312.1c-25.3,0-56.3-17.9-68.9-39.8l-68.9-119.3c-12.6-21.9-12.6-57.7,0-79.6L-381,65.4c12.6-21.9,43.6-39.8,68.9-39.8h137.8c25.3,0,56.3,17.9,68.9,39.8l68.9,119.3c12.6,21.9,12.6,57.7,0,79.6ZM-243.2-56.5c-155.2,0-281,125.8-281,281s125.8,281,281,281,281-125.8,281-281S-88-56.5-243.2-56.5Z" style="fill:#a4a3a3;opacity:0.20588235300490426"/><path d="M-106.3,382.8c-12.6,21.9-43.6,39.8-68.9,39.8H-313c-25.2,0-56.2-17.9-68.9-39.8l-68.9-119.4c-12.6-21.8-12.6-57.6,0-79.5l68.9-119.4c12.7-21.8,43.7-39.8,68.9-39.8h137.8c25.3,0,56.3,18,68.9,39.8l69,119.4c12.6,21.9,12.6,57.7,0,79.5ZM-244.1-57.4c-155.2,0-281,125.8-281,281.1s125.8,281,281,281S37,378.9,37,223.7-88.8-57.4-244.1-57.4Z" style="fill:#a09e9f;opacity:0.21568627455936995"/><path d="M-107.1,381.9c-12.6,21.9-43.6,39.8-68.9,39.8H-313.8c-25.3,0-56.3-17.9-68.9-39.8l-68.9-119.3c-12.6-21.9-12.6-57.7,0-79.6l68.9-119.3c12.6-21.9,43.6-39.8,68.9-39.8H-176c25.3,0,56.3,17.9,68.9,39.8L-38.2,183c12.6,21.9,12.6,57.7,0,79.6ZM-244.9-58.2c-155.2,0-281,125.8-281,281s125.8,281,281,281,281-125.8,281-281S-89.7-58.2-244.9-58.2Z" style="fill:#9c9a9a;opacity:0.22549019611383564"/><path d="M-107.9,381.1c-12.7,21.9-43.7,39.8-68.9,39.8H-314.7c-25.2,0-56.2-17.9-68.9-39.8l-68.9-119.4c-12.6-21.8-12.6-57.6,0-79.5l68.9-119.4c12.7-21.8,43.7-39.7,68.9-39.7h137.9c25.2,0,56.2,17.9,68.9,39.7L-39,182.2c12.6,21.9,12.6,57.7,0,79.5ZM-245.7-59.1C-401-59.1-526.8,66.7-526.8,222S-401,503-245.7,503s281-125.8,281-281S-90.5-59.1-245.7-59.1Z" style="fill:#979696;opacity:0.23529411766830133"/><path d="M-108.8,380.2c-12.6,21.9-43.6,39.8-68.9,39.8H-315.5c-25.3,0-56.3-17.9-68.9-39.8l-68.9-119.3c-12.6-21.9-12.6-57.7,0-79.6L-384.4,62c12.6-21.9,43.6-39.8,68.9-39.8h137.8c25.3,0,56.3,17.9,68.9,39.8l68.9,119.3c12.6,21.9,12.6,57.7,0,79.6ZM-246.6-59.9c-155.2,0-281,125.8-281,281s125.8,281.1,281,281.1,281-125.9,281-281.1S-91.4-59.9-246.6-59.9Z" style="fill:#939192;opacity:0.24509803922276702"/><path d="M-109.6,379.4c-12.7,21.9-43.7,39.8-68.9,39.8H-316.4c-25.2,0-56.2-17.9-68.9-39.8L-454.2,260c-12.6-21.8-12.6-57.6,0-79.5l68.9-119.4c12.7-21.8,43.7-39.7,68.9-39.7h137.9c25.2,0,56.2,17.9,68.9,39.7l68.9,119.4c12.6,21.9,12.6,57.7,0,79.5ZM-247.4-60.8c-155.3,0-281.1,125.9-281.1,281.1s125.8,281,281.1,281,281-125.8,281-281S-92.2-60.8-247.4-60.8Z" style="fill:#8f8d8d;opacity:0.2549019607772327"/><path d="M-110.5,378.5c-12.6,21.9-43.6,39.8-68.9,39.8H-317.2c-25.3,0-56.3-17.9-68.9-39.8L-455,259.2c-12.6-21.9-12.6-57.7,0-79.6l68.9-119.3c12.6-21.9,43.6-39.8,68.9-39.8h137.8c25.3,0,56.3,17.9,68.9,39.8l68.9,119.3c12.7,21.9,12.7,57.7,0,79.6ZM-248.3-61.6c-155.2,0-281,125.8-281,281s125.8,281.1,281,281.1,281-125.9,281-281.1S-93.1-61.6-248.3-61.6Z" style="fill:#8b8889;opacity:0.2647058823316984"/><path d="M-111.3,377.7c-12.7,21.9-43.7,39.8-68.9,39.8H-318c-25.3,0-56.3-17.9-68.9-39.8l-68.9-119.3c-12.7-21.9-12.7-57.7,0-79.6l68.9-119.4c12.6-21.8,43.6-39.7,68.9-39.7h137.8c25.2,0,56.2,17.9,68.9,39.7l68.9,119.4c12.6,21.9,12.6,57.7,0,79.6ZM-249.1-62.5c-155.3,0-281.1,125.9-281.1,281.1s125.8,281,281.1,281,281-125.8,281-281S-93.9-62.5-249.1-62.5Z" style="fill:#868485;opacity:0.2745098038861641"/><path d="M-112.2,376.8c-12.6,21.9-43.6,39.8-68.9,39.8H-318.9c-25.3,0-56.3-17.9-68.9-39.8l-68.9-119.3c-12.6-21.9-12.6-57.7,0-79.6l68.9-119.3c12.6-21.9,43.6-39.8,68.9-39.8h137.8c25.3,0,56.3,17.9,68.9,39.8l68.9,119.3c12.7,21.9,12.7,57.7,0,79.6ZM-250-63.3c-155.2,0-281,125.8-281,281s125.8,281.1,281,281.1S31.1,372.9,31.1,217.7-94.8-63.3-250-63.3Z" style="fill:#828080;opacity:0.28431372544062977"/><path d="M-113,376c-12.7,21.9-43.7,39.8-68.9,39.8H-319.7c-25.3,0-56.3-17.9-68.9-39.8l-68.9-119.3c-12.7-21.9-12.7-57.7,0-79.6l68.9-119.4C-376,35.9-345,18-319.7,18h137.8c25.2,0,56.2,17.9,68.9,39.7l68.9,119.4c12.6,21.9,12.6,57.7,0,79.6ZM-250.8-64.2C-406-64.2-531.9,61.7-531.9,216.9s125.9,281,281.1,281,281-125.8,281-281S-95.6-64.2-250.8-64.2Z" style="fill:#7e7b7c;opacity:0.29411764699509546"/><path d="M-113.9,375.1c-12.6,21.9-43.6,39.8-68.9,39.8H-320.6c-25.2,0-56.3-17.9-68.9-39.8l-68.9-119.3c-12.6-21.9-12.6-57.7,0-79.6l68.9-119.3c12.6-21.9,43.7-39.8,68.9-39.8h137.8c25.3,0,56.3,17.9,68.9,39.8L-45,176.2c12.7,21.9,12.7,57.7,0,79.6ZM-251.7-65c-155.2,0-281,125.8-281,281s125.8,281.1,281,281.1S29.4,371.2,29.4,216-96.5-65-251.7-65Z" style="fill:#797777;opacity:0.30392156854956115"/><path d="M-114.7,374.3c-12.7,21.9-43.7,39.8-68.9,39.8H-321.4c-25.3,0-56.3-17.9-68.9-39.8L-459.2,255c-12.7-21.9-12.7-57.7,0-79.6l68.9-119.3c12.6-21.9,43.6-39.8,68.9-39.8h137.8c25.2,0,56.2,17.9,68.9,39.8l68.9,119.3c12.6,21.9,12.6,57.7,0,79.6ZM-252.5-65.9C-407.7-65.9-533.6,60-533.6,215.2s125.9,281,281.1,281,281-125.8,281-281S-97.3-65.9-252.5-65.9Z" style="fill:#757273;opacity:0.31372549010402684"/><path d="M-115.6,373.5c-12.6,21.8-43.6,39.7-68.9,39.7H-322.3c-25.2,0-56.3-17.9-68.9-39.7l-68.9-119.4c-12.6-21.9-12.6-57.7,0-79.6l68.9-119.3c12.6-21.9,43.7-39.8,68.9-39.8h137.8c25.3,0,56.3,17.9,68.9,39.8l68.9,119.3c12.7,21.9,12.7,57.7,0,79.6ZM-253.4-66.7c-155.2,0-281,125.8-281,281s125.8,281.1,281,281.1S27.7,369.5,27.7,214.3-98.2-66.7-253.4-66.7Z" style="fill:#716e6f;opacity:0.3235294116584925"/><path d="M-116.4,372.6c-12.7,21.9-43.7,39.8-68.9,39.8H-323.1c-25.3,0-56.3-17.9-68.9-39.8l-68.9-119.3c-12.7-21.9-12.7-57.7,0-79.6L-392,54.4c12.6-21.9,43.6-39.8,68.9-39.8h137.8c25.2,0,56.2,17.9,68.9,39.8l68.9,119.3c12.6,21.9,12.6,57.7,0,79.6ZM-254.2-67.6c-155.2,0-281.1,125.9-281.1,281.1s125.9,281,281.1,281,281-125.8,281-281S-99-67.6-254.2-67.6Z" style="fill:#6c6a6a;opacity:0.3333333332129582"/><path d="M-117.3,371.8c-12.6,21.8-43.6,39.7-68.9,39.7H-324c-25.2,0-56.2-17.9-68.9-39.7l-68.9-119.4c-12.6-21.9-12.6-57.7,0-79.6l68.9-119.3c12.7-21.9,43.7-39.8,68.9-39.8h137.8c25.3,0,56.3,17.9,68.9,39.8l68.9,119.3c12.7,21.9,12.7,57.7,0,79.6ZM-255.1-68.4c-155.2,0-281,125.8-281,281s125.8,281.1,281,281.1S26,367.8,26,212.6-99.9-68.4-255.1-68.4Z" style="fill:#686566;opacity:0.3431372547674239"/><path d="M-118.1,370.9c-12.6,21.9-43.7,39.8-68.9,39.8H-324.8c-25.3,0-56.3-17.9-68.9-39.8l-68.9-119.3c-12.7-21.9-12.7-57.7,0-79.6l68.9-119.3c12.6-21.9,43.6-39.8,68.9-39.8H-187c25.2,0,56.3,17.9,68.9,39.8L-49.2,172c12.6,21.9,12.6,57.7,0,79.6ZM-255.9-69.3C-411.1-69.3-537,56.6-537,211.8s125.9,281,281.1,281,281-125.8,281-281S-100.7-69.3-255.9-69.3Z" style="fill:#646162;opacity:0.3529411763218896"/><path d="M-119,370.1c-12.6,21.8-43.6,39.7-68.9,39.7H-325.7c-25.2,0-56.2-17.9-68.9-39.7l-68.9-119.4c-12.6-21.9-12.6-57.7,0-79.5l68.9-119.4C-381.9,29.9-350.9,12-325.7,12h137.8c25.3,0,56.3,17.9,68.9,39.8l68.9,119.4c12.7,21.8,12.7,57.6,0,79.5ZM-256.8-70.1c-155.2,0-281,125.8-281,281S-412,492-256.8,492,24.3,366.2,24.3,210.9-101.6-70.1-256.8-70.1Z" style="fill:#5f5c5d;opacity:0.3627450978763553"/><path d="M-119.8,369.2c-12.6,21.9-43.7,39.8-68.9,39.8H-326.5c-25.3,0-56.3-17.9-68.9-39.8l-68.9-119.3c-12.7-21.9-12.7-57.7,0-79.6L-395.4,51c12.6-21.9,43.6-39.8,68.9-39.8h137.8c25.2,0,56.3,17.9,68.9,39.8l68.9,119.3c12.6,21.9,12.6,57.7,0,79.6ZM-257.6-71C-412.8-71-538.7,54.9-538.7,210.1s125.9,281,281.1,281,281-125.8,281-281S-102.4-71-257.6-71Z" style="fill:#5b5859;opacity:0.37254901943082097"/><path d="M-120.7,368.4c-12.6,21.8-43.6,39.8-68.9,39.8H-327.4c-25.2,0-56.2-18-68.9-39.8L-465.2,249c-12.6-21.9-12.6-57.7,0-79.5l68.9-119.4c12.7-21.9,43.7-39.8,68.9-39.8h137.8c25.3,0,56.3,17.9,68.9,39.8l68.9,119.4c12.7,21.8,12.7,57.6,0,79.5ZM-258.5-71.8c-155.2,0-281,125.8-281,281s125.8,281.1,281,281.1S22.6,364.5,22.6,209.2-103.2-71.8-258.5-71.8Z" style="fill:#575454;opacity:0.38235294098528666"/><path d="M-121.5,367.5c-12.6,21.9-43.6,39.8-68.9,39.8H-328.2c-25.3,0-56.3-17.9-68.9-39.8L-466,248.2c-12.7-21.9-12.7-57.7,0-79.6l68.9-119.3c12.6-21.9,43.6-39.8,68.9-39.8h137.8c25.3,0,56.3,17.9,68.9,39.8l68.9,119.3c12.6,21.9,12.6,57.7,0,79.6ZM-259.3-72.6c-155.2,0-281.1,125.8-281.1,281s125.9,281,281.1,281,281-125.8,281-281S-104.1-72.6-259.3-72.6Z" style="fill:#524f50;opacity:0.39215686253975235"/><path d="M-122.4,366.7c-12.6,21.9-43.6,39.8-68.9,39.8H-329.1c-25.2,0-56.2-17.9-68.9-39.8l-68.9-119.4c-12.6-21.8-12.6-57.7,0-79.5L-398,48.4c12.7-21.9,43.7-39.8,68.9-39.8h137.8c25.3,0,56.3,17.9,68.9,39.8l68.9,119.4c12.7,21.8,12.7,57.7,0,79.5ZM-260.2-73.5c-155.2,0-281,125.8-281,281s125.8,281.1,281,281.1S20.9,362.8,20.9,207.5-104.9-73.5-260.2-73.5Z" style="fill:#4e4b4c;opacity:0.40196078409421804"/><path d="M-123.2,365.8c-12.6,21.9-43.6,39.8-68.9,39.8H-329.9c-25.3,0-56.3-17.9-68.9-39.8l-68.9-119.3c-12.7-21.9-12.7-57.7,0-79.6l68.9-119.3c12.6-21.9,43.6-39.8,68.9-39.8h137.8c25.3,0,56.3,17.9,68.9,39.8l68.9,119.3c12.6,21.9,12.6,57.7,0,79.6ZM-261-74.3c-155.2,0-281,125.8-281,281s125.8,281,281,281S20,361.9,20,206.7-105.8-74.3-261-74.3Z" style="fill:#4a4747;opacity:0.4117647056486837"/><path d="M-124.1,365c-12.6,21.9-43.6,39.8-68.9,39.8H-330.8c-25.2,0-56.2-17.9-68.9-39.8l-68.9-119.4c-12.6-21.8-12.6-57.7,0-79.5l68.9-119.4C-387,24.8-356,6.9-330.8,6.9H-193c25.3,0,56.3,17.9,68.9,39.8l69,119.4c12.6,21.8,12.6,57.7,0,79.5ZM-261.9-75.2c-155.2,0-281,125.8-281,281.1s125.8,281,281,281S19.2,361.1,19.2,205.9-106.6-75.2-261.9-75.2Z" style="fill:#464243;opacity:0.4215686272031494"/><path d="M-124.9,364.1c-12.6,21.9-43.6,39.8-68.9,39.8H-331.6c-25.3,0-56.3-17.9-68.9-39.8l-68.9-119.3c-12.6-21.9-12.6-57.7,0-79.6l68.9-119.3C-387.9,24-356.9,6.1-331.6,6.1h137.8c25.3,0,56.3,17.9,68.9,39.8L-56,165.2c12.6,21.9,12.6,57.7,0,79.6ZM-262.7-76c-155.2,0-281,125.8-281,281s125.8,281,281,281,281-125.8,281-281S-107.5-76-262.7-76Z" style="fill:#413e3f;opacity:0.4313725487576151"/><path d="M-125.7,363.3c-12.7,21.9-43.7,39.8-68.9,39.8H-332.5c-25.2,0-56.2-17.9-68.9-39.8l-68.9-119.4c-12.6-21.8-12.6-57.6,0-79.5L-401.4,45c12.7-21.8,43.7-39.8,68.9-39.8h137.9c25.2,0,56.2,18,68.9,39.8l68.9,119.4c12.6,21.9,12.6,57.7,0,79.5ZM-263.5-76.9c-155.3,0-281.1,125.8-281.1,281.1s125.8,281,281.1,281,281-125.8,281-281S-108.3-76.9-263.5-76.9Z" style="fill:#3d393a;opacity:0.4411764703120808"/><path d="M-126.6,362.4c-12.6,21.9-43.6,39.8-68.9,39.8H-333.3c-25.3,0-56.3-17.9-68.9-39.8l-68.9-119.3c-12.6-21.9-12.6-57.7,0-79.6l68.9-119.3c12.6-21.9,43.6-39.8,68.9-39.8h137.8c25.3,0,56.3,17.9,68.9,39.8l68.9,119.3c12.6,21.9,12.6,57.7,0,79.6ZM-264.4-77.7c-155.2,0-281,125.8-281,281s125.8,281,281,281,281-125.8,281-281S-109.2-77.7-264.4-77.7Z" style="fill:#393536;opacity:0.4509803918665465"/><path d="M-127.4,361.6c-12.7,21.9-43.7,39.8-68.9,39.8H-334.2c-25.2,0-56.2-17.9-68.9-39.8L-472,242.2c-12.6-21.8-12.6-57.6,0-79.5l68.9-119.4c12.7-21.8,43.7-39.7,68.9-39.7h137.9c25.2,0,56.2,17.9,68.9,39.7l68.9,119.4c12.6,21.9,12.6,57.7,0,79.5ZM-265.2-78.6c-155.3,0-281.1,125.8-281.1,281.1s125.8,281,281.1,281,281-125.8,281-281S-110-78.6-265.2-78.6Z" style="fill:#343131;opacity:0.46078431342101217"/><path d="M-128.3,360.7c-12.6,21.9-43.6,39.8-68.9,39.8H-335c-25.3,0-56.3-17.9-68.9-39.8l-68.9-119.3c-12.6-21.9-12.6-57.7,0-79.6l68.9-119.3C-391.3,20.6-360.3,2.7-335,2.7h137.8c25.3,0,56.3,17.9,68.9,39.8l68.9,119.3c12.6,21.9,12.6,57.7,0,79.6ZM-266.1-79.4c-155.2,0-281,125.8-281,281s125.8,281.1,281,281.1,281-125.9,281-281.1S-110.9-79.4-266.1-79.4Z" style="fill:#302c2d;opacity:0.47058823497547786"/><path d="M-129.1,359.9c-12.7,21.9-43.7,39.8-68.9,39.8H-335.8c-25.3,0-56.3-17.9-69-39.8l-68.9-119.3c-12.6-21.9-12.6-57.7,0-79.6l68.9-119.4c12.7-21.8,43.7-39.7,69-39.7H-198c25.2,0,56.2,17.9,68.9,39.7L-60.2,161c12.6,21.9,12.6,57.7,0,79.6ZM-266.9-80.3C-422.2-80.3-548,45.6-548,200.8s125.8,281,281.1,281,281-125.8,281-281S-111.7-80.3-266.9-80.3Z" style="fill:#2c2829;opacity:0.48039215652994355"/><path d="M-130,359c-12.6,21.9-43.6,39.8-68.9,39.8H-336.7c-25.3,0-56.3-17.9-68.9-39.8l-68.9-119.3c-12.6-21.9-12.6-57.7,0-79.6l68.9-119.3C-393,18.9-362,1-336.7,1h137.8c25.3,0,56.3,17.9,68.9,39.8l68.9,119.3c12.7,21.9,12.7,57.7,0,79.6ZM-267.8-81.1c-155.2,0-281,125.8-281,281S-423,481-267.8,481s281-125.9,281-281.1S-112.6-81.1-267.8-81.1Z" style="fill:#272324;opacity:0.49019607808440924"/><path d="M-130.8,358.2c-12.7,21.9-43.7,39.8-68.9,39.8H-337.5c-25.3,0-56.3-17.9-68.9-39.8l-68.9-119.3c-12.7-21.9-12.7-57.7,0-79.6l68.9-119.4C-393.8,18.1-362.8.2-337.5.2h137.8c25.2,0,56.2,17.9,68.9,39.7l68.9,119.4c12.6,21.9,12.6,57.7,0,79.6ZM-268.6-82C-423.9-82-549.7,43.9-549.7,199.1s125.8,281,281.1,281,281-125.8,281-281S-113.4-82-268.6-82Z" style="fill:#231f20;opacity:0.5"/></g><path d="M-268.6-82C-423.9-82-549.7,43.9-549.7,199.1s125.8,281,281.1,281,281-125.8,281-281S-113.4-82-268.6-82Zm137.8,440.2c-12.7,21.9-43.7,39.8-68.9,39.8H-337.5c-25.3,0-56.3-17.9-68.9-39.8l-68.9-119.3c-12.7-21.9-12.7-57.7,0-79.6l68.9-119.4C-393.8,18.1-362.8.2-337.5.2h137.8c25.2,0,56.2,17.9,68.9,39.7l68.9,119.4c12.6,21.9,12.6,57.7,0,79.6Z" style="fill:#fff"/></g></g><g id="_3" data-name="3"><g style="clip-path:url(#clip-path-2)"><circle cx="216.4" cy="199.1" r="260.5" transform="translate(-77.4 211.3) rotate(-45)" style="fill:#5cb75b"/><g style="mix-blend-mode:multiply"><path d="M183.7,462.2c-27.9,0-62.2-19.8-76.2-43.9L31.4,286.4c-13.9-24.1-13.9-63.7,0-87.9L107.5,66.7c14-24.2,48.3-43.9,76.2-43.9H335.9c27.9,0,62.2,19.7,76.1,43.9l76.1,131.8c14,24.2,14,63.8,0,87.9L412,418.3c-13.9,24.1-48.2,43.9-76.1,43.9Z" style="fill:#fff;opacity:0"/><path d="M184.5,459.9c-27.6,0-61.5-19.6-75.3-43.5L33.9,286c-13.8-23.9-13.8-63.1,0-87L109.2,68.6c13.8-23.9,47.7-43.5,75.3-43.5H335.1c27.6,0,61.5,19.6,75.3,43.5L485.7,199c13.8,23.9,13.8,63.1,0,87L410.4,416.4c-13.8,23.9-47.7,43.5-75.3,43.5Z" style="fill:#fbfbfb;opacity:0.009803921915590525"/><path d="M185.3,457.5c-27.3,0-60.8-19.3-74.5-43l-74.5-129c-13.6-23.7-13.6-62.4,0-86l74.5-129c13.7-23.7,47.2-43,74.5-43h149c27.3,0,60.8,19.3,74.5,43l74.5,129c13.6,23.6,13.6,62.3,0,86l-74.5,129c-13.7,23.7-47.2,43-74.5,43Z" style="fill:#f6f6f6;opacity:0.01960784347005621"/><path d="M186.1,455.2c-27,0-60.2-19.2-73.7-42.6L38.8,285c-13.5-23.4-13.5-61.6,0-85L112.4,72.3c13.5-23.4,46.7-42.5,73.7-42.5H333.5c27,0,60.1,19.1,73.6,42.5L480.8,200c13.5,23.4,13.5,61.6,0,85L407.1,412.6c-13.5,23.4-46.6,42.6-73.6,42.6Z" style="fill:#f2f2f2;opacity:0.02941176502452189"/><path d="M186.9,452.8c-26.7,0-59.5-18.9-72.8-42L41.2,284.6c-13.4-23.2-13.4-61,0-84.2L114.1,74.2c13.3-23.1,46.1-42,72.8-42H332.6c26.8,0,59.5,18.9,72.9,42l72.9,126.2c13.3,23.2,13.3,61,0,84.2L405.5,410.8c-13.4,23.1-46.1,42-72.9,42Z" style="fill:#eeedee;opacity:0.03921568657898757"/><path d="M187.7,450.5c-26.4,0-58.8-18.7-72-41.6L43.6,284.1c-13.2-22.9-13.2-60.3,0-83.2L115.7,76.1c13.2-22.9,45.6-41.6,72-41.6H331.8c26.4,0,58.9,18.7,72.1,41.6l72,124.8c13.2,22.9,13.2,60.3,0,83.2l-72,124.8c-13.2,22.9-45.7,41.6-72.1,41.6Z" style="fill:#e9e9e9;opacity:0.049019608133453255"/><path d="M188.5,448.1c-26.1,0-58.1-18.5-71.2-41.1L46.1,283.6C33,261,33,224,46.1,201.4L117.3,78c13.1-22.6,45.1-41.1,71.2-41.1H331c26.1,0,58.2,18.5,71.2,41.1l71.3,123.4c13,22.6,13,59.6,0,82.2L402.2,407c-13,22.6-45.1,41.1-71.2,41.1Z" style="fill:#e5e5e5;opacity:0.058823529687918936"/><path d="M189.4,445.8c-25.9,0-57.5-18.3-70.5-40.7l-70.4-122c-12.9-22.3-12.9-58.9,0-81.3L118.9,79.9c13-22.4,44.6-40.7,70.5-40.7H330.2c25.8,0,57.5,18.3,70.4,40.7L471,201.8c12.9,22.4,12.9,59,0,81.3l-70.4,122c-12.9,22.4-44.6,40.7-70.4,40.7Z" style="fill:#e1e0e0;opacity:0.06862745124238462"/><path d="M190.2,443.4c-25.5,0-56.9-18.1-69.6-40.2L51,282.7c-12.8-22.1-12.8-58.3,0-80.4L120.6,81.7c12.7-22.1,44.1-40.1,69.6-40.1H329.4c25.5,0,56.8,18,69.6,40.1l69.6,120.6c12.8,22.1,12.8,58.3,0,80.4L399,403.2c-12.8,22.1-44.1,40.2-69.6,40.2Z" style="fill:#dcdcdc;opacity:0.07843137279685031"/><path d="M191,441.1c-25.2,0-56.2-17.9-68.8-39.7L53.4,282.2c-12.6-21.8-12.6-57.6,0-79.4L122.2,83.6c12.6-21.8,43.6-39.7,68.8-39.7H328.6c25.2,0,56.2,17.9,68.8,39.7l68.8,119.2c12.6,21.8,12.6,57.6,0,79.4L397.4,401.4c-12.6,21.8-43.6,39.7-68.8,39.7Z" style="fill:#d8d7d8;opacity:0.088235294351316"/><path d="M191.8,438.7c-24.9,0-55.5-17.6-68-39.2L55.9,281.7c-12.5-21.5-12.5-56.9,0-78.5L123.8,85.5c12.5-21.6,43.1-39.2,68-39.2h136c24.9,0,55.5,17.6,67.9,39.2l68,117.7c12.5,21.6,12.5,57,0,78.5l-68,117.8c-12.4,21.6-43,39.2-67.9,39.2Z" style="fill:#d4d3d3;opacity:0.09803921590578168"/><path d="M192.6,436.4c-24.6,0-54.8-17.5-67.1-38.8L58.3,281.3C46,259.9,46,225,58.3,203.7L125.5,87.4c12.3-21.3,42.5-38.8,67.1-38.8H326.9c24.7,0,54.9,17.5,67.2,38.8l67.2,116.3c12.3,21.3,12.3,56.2,0,77.6L394.1,397.6c-12.3,21.3-42.5,38.8-67.2,38.8Z" style="fill:#d0cfcf;opacity:0.10784313746024737"/><path d="M193.4,434c-24.3,0-54.1-17.2-66.3-38.3L60.7,280.8c-12.1-21.1-12.1-55.5,0-76.6L127.1,89.3c12.2-21.1,42-38.3,66.3-38.3H326.1c24.4,0,54.2,17.2,66.4,38.3l66.3,114.9c12.2,21.1,12.2,55.5,0,76.6L392.5,395.7c-12.2,21.1-42,38.3-66.4,38.3Z" style="fill:#cbcacb;opacity:0.11764705901471306"/><path d="M194.2,431.7c-24,0-53.5-17.1-65.5-37.9L63.2,280.3c-12-20.8-12-54.8,0-75.6L128.7,91.1c12-20.8,41.5-37.8,65.5-37.8H325.3c24,0,53.5,17,65.5,37.8l65.6,113.6c12,20.8,12,54.8,0,75.6L390.8,393.8c-12,20.8-41.5,37.9-65.5,37.9Z" style="fill:#c7c6c6;opacity:0.12745098056917875"/><path d="M195.1,429.3c-23.8,0-52.9-16.8-64.8-37.3L65.6,279.9c-11.8-20.6-11.8-54.2,0-74.8L130.3,93c11.9-20.5,41-37.3,64.8-37.3H324.5c23.7,0,52.9,16.8,64.7,37.3l64.7,112.1c11.9,20.6,11.9,54.2,0,74.8L389.2,392c-11.8,20.5-41,37.3-64.7,37.3Z" style="fill:#c3c2c2;opacity:0.13725490212364444"/><path d="M195.9,427c-23.5,0-52.2-16.6-63.9-36.9L68.1,279.4c-11.7-20.3-11.7-53.5,0-73.8L132,94.9C143.7,74.6,172.4,58,195.9,58H323.7c23.4,0,52.2,16.6,63.9,36.9l63.9,110.7c11.7,20.3,11.7,53.5,0,73.8L387.6,390.1c-11.7,20.3-40.5,36.9-63.9,36.9Z" style="fill:#bebdbd;opacity:0.14705882367811013"/><path d="M196.7,424.6c-23.1,0-51.5-16.4-63.1-36.4L70.5,278.9c-11.6-20-11.6-52.8,0-72.8L133.6,96.8c11.6-20.1,40-36.4,63.1-36.4H322.9c23.1,0,51.5,16.3,63.1,36.4l63.1,109.3c11.5,20,11.5,52.8,0,72.8L386,388.2c-11.6,20-40,36.4-63.1,36.4Z" style="fill:#bab9b9;opacity:0.15686274523257582"/><path d="M197.5,422.3c-22.8,0-50.9-16.2-62.3-36L73,278.4c-11.5-19.7-11.5-52.1,0-71.9L135.2,98.7c11.4-19.8,39.5-36,62.3-36H322.1c22.8,0,50.8,16.2,62.2,36l62.3,107.8c11.4,19.8,11.4,52.2,0,71.9L384.3,386.3c-11.4,19.8-39.4,36-62.2,36Z" style="fill:#b6b4b5;opacity:0.1666666667870415"/><path d="M198.3,419.9c-22.5,0-50.2-15.9-61.4-35.5L75.4,278c-11.3-19.5-11.3-51.5,0-71l61.5-106.5c11.2-19.5,38.9-35.4,61.4-35.4H321.2c22.6,0,50.2,15.9,61.5,35.4L444.2,207c11.2,19.5,11.2,51.5,0,71L382.7,384.4c-11.3,19.6-38.9,35.5-61.5,35.5Z" style="fill:#b1b0b0;opacity:0.1764705883415072"/><path d="M199.1,417.6c-22.2,0-49.5-15.8-60.6-35L77.8,277.5c-11.1-19.3-11.1-50.8,0-70l60.7-105.1c11.1-19.2,38.4-35,60.6-35H320.4c22.3,0,49.6,15.8,60.7,35l60.6,105.1c11.1,19.2,11.1,50.7,0,70L381.1,382.6c-11.1,19.2-38.4,35-60.7,35Z" style="fill:#adacac;opacity:0.18627450989597288"/><path d="M199.9,415.2c-21.9,0-48.8-15.5-59.8-34.5L80.3,277c-11-19-11-50.1,0-69.1l59.8-103.6c11-19,37.9-34.5,59.8-34.5H319.6c22,0,48.9,15.5,59.8,34.5l59.9,103.6c11,19,11,50.1,0,69.1L379.4,380.7c-10.9,19-37.8,34.5-59.8,34.5Z" style="fill:#a9a7a8;opacity:0.19607843145043857"/><path d="M200.8,412.9c-21.7,0-48.2-15.4-59.1-34.1l-59-102.2c-10.8-18.8-10.8-49.4,0-68.2l59-102.2c10.9-18.8,37.4-34.1,59.1-34.1h118c21.6,0,48.2,15.3,59,34.1l59,102.2c10.9,18.8,10.9,49.4,0,68.2l-59,102.2c-10.8,18.7-37.4,34.1-59,34.1Z" style="fill:#a4a3a3;opacity:0.20588235300490426"/><path d="M201.6,410.5c-21.4,0-47.6-15.1-58.2-33.6L85.2,276.1c-10.7-18.5-10.7-48.7,0-67.2l58.2-100.8c10.6-18.5,36.8-33.6,58.2-33.6H318c21.3,0,47.5,15.1,58.2,33.6l58.2,100.8c10.7,18.5,10.7,48.7,0,67.2L376.2,376.9c-10.7,18.5-36.9,33.6-58.2,33.6Z" style="fill:#a09e9f;opacity:0.21568627455936995"/><path d="M202.4,408.2c-21.1,0-46.9-14.9-57.4-33.2L87.6,275.6c-10.5-18.2-10.5-48,0-66.2L145,109.9c10.5-18.2,36.3-33.1,57.4-33.1H317.2c21,0,46.8,14.9,57.4,33.1L432,209.4c10.5,18.2,10.5,48,0,66.2L374.6,375c-10.6,18.3-36.4,33.2-57.4,33.2Z" style="fill:#9c9a9a;opacity:0.22549019611383564"/><path d="M203.2,405.8c-20.7,0-46.2-14.7-56.6-32.6L90,275.2c-10.3-18-10.3-47.4,0-65.4l56.6-98c10.4-17.9,35.9-32.6,56.6-32.6H316.4c20.7,0,46.2,14.7,56.5,32.6l56.6,98c10.4,18,10.4,47.4,0,65.4l-56.6,98c-10.3,17.9-35.8,32.6-56.5,32.6Z" style="fill:#979696;opacity:0.23529411766830133"/><path d="M204,403.5c-20.4,0-45.5-14.5-55.8-32.2L92.5,274.7c-10.2-17.7-10.2-46.7,0-64.4l55.7-96.6C158.5,96,183.6,81.5,204,81.5H315.5c20.5,0,45.6,14.5,55.8,32.2l55.8,96.6c10.2,17.7,10.2,46.7,0,64.4l-55.8,96.6c-10.2,17.7-35.3,32.2-55.8,32.2Z" style="fill:#939192;opacity:0.24509803922276702"/><path d="M204.8,401.1c-20.1,0-44.8-14.3-54.9-31.7l-55-95.2c-10-17.4-10-46,0-63.4l55-95.2c10.1-17.5,34.8-31.7,54.9-31.7H314.7c20.2,0,44.9,14.2,55,31.7l54.9,95.2c10.1,17.4,10.1,46,0,63.4l-54.9,95.2c-10.1,17.4-34.8,31.7-55,31.7Z" style="fill:#8f8d8d;opacity:0.2549019607772327"/><path d="M205.6,398.8c-19.8,0-44.2-14.1-54.1-31.3L97.4,273.7c-10-17.1-10-45.3,0-62.5l54.1-93.7c9.9-17.2,34.3-31.3,54.1-31.3H313.9c19.9,0,44.2,14.1,54.1,31.3l54.2,93.7c9.9,17.2,9.9,45.4,0,62.5L368,367.5c-9.9,17.2-34.2,31.3-54.1,31.3Z" style="fill:#8b8889;opacity:0.2647058823316984"/><path d="M206.5,396.4c-19.6,0-43.6-13.8-53.4-30.8L99.8,273.3c-9.8-17-9.8-44.7,0-61.6l53.3-92.4c9.8-16.9,33.8-30.7,53.4-30.7H313.1c19.6,0,43.6,13.8,53.3,30.7l53.4,92.4c9.7,16.9,9.7,44.6,0,61.6l-53.4,92.3c-9.7,17-33.7,30.8-53.3,30.8Z" style="fill:#868485;opacity:0.2745098038861641"/><path d="M207.3,394.1c-19.3,0-42.9-13.7-52.5-30.3l-52.5-91c-9.7-16.7-9.7-43.9,0-60.6l52.5-91c9.6-16.7,33.2-30.3,52.5-30.3h105c19.2,0,42.9,13.6,52.5,30.3l52.5,91c9.6,16.7,9.6,43.9,0,60.6l-52.5,91c-9.6,16.6-33.3,30.3-52.5,30.3Z" style="fill:#828080;opacity:0.28431372544062977"/><path d="M208.1,391.7c-19,0-42.2-13.4-51.7-29.8l-51.7-89.6c-9.5-16.4-9.5-43.2,0-59.7l51.7-89.5c9.5-16.4,32.7-29.8,51.7-29.8H311.5c18.9,0,42.2,13.4,51.7,29.8l51.7,89.5c9.4,16.5,9.4,43.3,0,59.7l-51.7,89.6c-9.5,16.4-32.8,29.8-51.7,29.8Z" style="fill:#7e7b7c;opacity:0.29411764699509546"/><path d="M208.9,389.4c-18.7,0-41.6-13.3-50.9-29.4l-50.9-88.1c-9.3-16.2-9.3-42.6,0-58.8L158,125c9.3-16.2,32.2-29.4,50.9-29.4H310.7c18.6,0,41.5,13.2,50.8,29.4l50.9,88.1c9.3,16.2,9.3,42.6,0,58.8L361.5,360c-9.3,16.1-32.2,29.4-50.8,29.4Z" style="fill:#797777;opacity:0.30392156854956115"/><path d="M209.7,387c-18.3,0-40.9-13-50.1-28.9l-50-86.7c-9.2-15.9-9.2-41.9,0-57.8l50-86.7C168.8,111,191.4,98,209.7,98H309.8c18.4,0,40.9,13,50.1,28.9L410,213.6c9.2,15.9,9.2,41.9,0,57.8l-50.1,86.7C350.7,374,328.2,387,309.8,387Z" style="fill:#757273;opacity:0.31372549010402684"/><path d="M210.5,384.7c-18,0-40.2-12.8-49.2-28.5L112,270.9c-9-15.6-9-41.2,0-56.8l49.3-85.4c9-15.6,31.2-28.4,49.2-28.4H309c18.1,0,40.3,12.8,49.3,28.4l49.2,85.4c9.1,15.6,9.1,41.2,0,56.8l-49.2,85.3c-9,15.7-31.2,28.5-49.3,28.5Z" style="fill:#716e6f;opacity:0.3235294116584925"/><path d="M211.3,382.3c-17.7,0-39.5-12.6-48.4-27.9l-48.4-83.9c-8.9-15.4-8.9-40.6,0-56l48.4-83.9c8.9-15.4,30.7-27.9,48.4-27.9h96.9c17.8,0,39.6,12.5,48.5,27.9l48.4,83.9c8.9,15.4,8.9,40.6,0,56l-48.4,83.9c-8.9,15.3-30.7,27.9-48.5,27.9Z" style="fill:#6c6a6a;opacity:0.3333333332129582"/><path d="M212.2,380c-17.5,0-38.9-12.4-47.7-27.5L116.9,270c-8.7-15.1-8.7-39.9,0-55l47.6-82.5c8.8-15.1,30.2-27.5,47.7-27.5h95.2c17.5,0,38.9,12.4,47.6,27.5L402.7,215c8.7,15.1,8.7,39.9,0,55L355,352.5c-8.7,15.1-30.1,27.5-47.6,27.5Z" style="fill:#686566;opacity:0.3431372547674239"/><path d="M213,377.6c-17.2,0-38.3-12.1-46.8-27l-46.8-81.1c-8.6-14.8-8.6-39.2,0-54l46.8-81.1c8.5-14.9,29.6-27,46.8-27h93.6c17.2,0,38.2,12.1,46.8,27l46.8,81.1c8.6,14.8,8.6,39.2,0,54l-46.8,81.1c-8.6,14.9-29.6,27-46.8,27Z" style="fill:#646162;opacity:0.3529411763218896"/><path d="M213.8,375.3c-16.9,0-37.6-12-46-26.6l-46-79.7c-8.4-14.6-8.4-38.5,0-53.1l46-79.6c8.4-14.6,29.1-26.6,46-26.6h92c16.8,0,37.5,12,46,26.6l46,79.6c8.4,14.6,8.4,38.5,0,53.1l-46,79.7c-8.5,14.6-29.2,26.6-46,26.6Z" style="fill:#5f5c5d;opacity:0.3627450978763553"/><path d="M214.6,372.9c-16.6,0-36.9-11.7-45.2-26.1l-45.2-78.2c-8.2-14.4-8.2-37.8,0-52.2l45.2-78.3c8.3-14.3,28.6-26,45.2-26H305c16.5,0,36.9,11.7,45.1,26l45.2,78.3c8.3,14.4,8.3,37.8,0,52.2l-45.2,78.2c-8.2,14.4-28.6,26.1-45.1,26.1Z" style="fill:#5b5859;opacity:0.37254901943082097"/><path d="M215.4,370.6c-16.3,0-36.2-11.6-44.4-25.6l-44.3-76.9c-8.2-14.1-8.2-37.1,0-51.2L171,140c8.2-14.1,28.1-25.6,44.4-25.6h88.7c16.3,0,36.3,11.5,44.4,25.6l44.4,76.9c8.1,14.1,8.1,37.1,0,51.2L348.5,345c-8.1,14-28.1,25.6-44.4,25.6Z" style="fill:#575454;opacity:0.38235294098528666"/><path d="M216.2,368.2c-15.9,0-35.5-11.3-43.5-25.1l-43.6-75.5c-8-13.8-8-36.4,0-50.3l43.6-75.4c8-13.8,27.6-25.1,43.5-25.1h87.1c16,0,35.6,11.3,43.6,25.1l43.5,75.4c8,13.9,8,36.5,0,50.3l-43.5,75.5c-8,13.8-27.6,25.1-43.6,25.1Z" style="fill:#524f50;opacity:0.39215686253975235"/><path d="M217,365.9c-15.6,0-34.9-11.1-42.7-24.7l-42.7-74c-7.9-13.6-7.9-35.8,0-49.4l42.7-74c7.8-13.6,27.1-24.7,42.7-24.7h85.5c15.7,0,34.9,11.1,42.8,24.7l42.7,74c7.8,13.6,7.8,35.8,0,49.4l-42.7,74c-7.9,13.6-27.1,24.7-42.8,24.7Z" style="fill:#4e4b4c;opacity:0.40196078409421804"/><path d="M217.9,363.5c-15.4,0-34.3-10.9-42-24.2L134,266.7c-7.7-13.3-7.7-35.1,0-48.4l41.9-72.6c7.7-13.4,26.6-24.2,42-24.2h83.8c15.4,0,34.2,10.8,41.9,24.2l42,72.6c7.6,13.3,7.6,35.1,0,48.4l-42,72.6c-7.7,13.3-26.5,24.2-41.9,24.2Z" style="fill:#4a4747;opacity:0.4117647056486837"/><path d="M218.7,361.2c-15.1,0-33.6-10.7-41.1-23.8l-41.2-71.2c-7.5-13-7.5-34.4,0-47.4l41.2-71.3c7.5-13,26-23.7,41.1-23.7h82.2c15.1,0,33.6,10.7,41.1,23.7l41.1,71.3c7.5,13,7.5,34.4,0,47.4L342,337.4c-7.5,13.1-26,23.8-41.1,23.8Z" style="fill:#464243;opacity:0.4215686272031494"/><path d="M219.5,358.8c-14.8,0-32.9-10.5-40.3-23.2l-40.3-69.8c-7.4-12.8-7.4-33.8,0-46.6l40.3-69.8c7.4-12.8,25.5-23.2,40.3-23.2h80.6c14.8,0,32.9,10.4,40.3,23.2l40.3,69.8c7.4,12.8,7.4,33.8,0,46.6l-40.3,69.8c-7.4,12.7-25.5,23.2-40.3,23.2Z" style="fill:#413e3f;opacity:0.4313725487576151"/><path d="M220.3,356.5c-14.5,0-32.2-10.3-39.5-22.8l-39.5-68.4c-7.2-12.5-7.2-33.1,0-45.6l39.5-68.4c7.3-12.5,25-22.8,39.5-22.8h79c14.4,0,32.2,10.3,39.4,22.8l39.5,68.4c7.3,12.5,7.3,33.1,0,45.6l-39.5,68.4c-7.2,12.5-25,22.8-39.4,22.8Z" style="fill:#3d393a;opacity:0.4411764703120808"/><path d="M221.1,354.1c-14.2,0-31.6-10-38.7-22.3l-38.6-67c-7.1-12.3-7.1-32.4,0-44.6l38.6-67c7.1-12.3,24.5-22.3,38.7-22.3h77.3c14.2,0,31.6,10,38.7,22.3l38.7,67c7.1,12.2,7.1,32.3,0,44.6l-38.7,67c-7.1,12.3-24.5,22.3-38.7,22.3Z" style="fill:#393536;opacity:0.4509803918665465"/><path d="M221.9,351.8c-13.9,0-30.9-9.9-37.8-21.9l-37.9-65.6c-6.9-12-6.9-31.6,0-43.7l37.9-65.5c6.9-12.1,23.9-21.9,37.8-21.9h75.7c13.9,0,31,9.8,37.9,21.9l37.8,65.5c7,12.1,7,31.7,0,43.7l-37.8,65.6c-6.9,12-24,21.9-37.9,21.9Z" style="fill:#343131;opacity:0.46078431342101217"/><path d="M222.7,349.4c-13.5,0-30.2-9.6-37-21.4l-37-64.1c-6.8-11.8-6.8-31,0-42.8l37-64.2c6.8-11.7,23.5-21.3,37-21.3h74.1c13.6,0,30.3,9.6,37.1,21.3l37,64.2c6.8,11.8,6.8,31,0,42.8l-37,64.1c-6.8,11.8-23.5,21.4-37.1,21.4Z" style="fill:#302c2d;opacity:0.47058823497547786"/><path d="M223.6,347.1c-13.3,0-29.6-9.4-36.3-20.9l-36.2-62.8c-6.6-11.5-6.6-30.3,0-41.8l36.2-62.8c6.7-11.5,23-20.9,36.3-20.9H296c13.3,0,29.6,9.4,36.2,20.9l36.3,62.8c6.6,11.5,6.6,30.3,0,41.8l-36.3,62.8c-6.6,11.5-22.9,20.9-36.2,20.9Z" style="fill:#2c2829;opacity:0.48039215652994355"/><path d="M224.4,344.7c-13,0-29-9.2-35.4-20.4l-35.5-61.4c-6.4-11.2-6.4-29.6,0-40.9L189,160.7c6.4-11.2,22.4-20.4,35.4-20.4h70.8c13,0,28.9,9.2,35.4,20.4L366,222c6.5,11.3,6.5,29.7,0,40.9l-35.4,61.4c-6.5,11.2-22.4,20.4-35.4,20.4Z" style="fill:#272324;opacity:0.49019607808440924"/><path d="M225.2,342.4c-12.7,0-28.3-9-34.6-20L156,262.5c-6.4-11-6.4-29,0-40l34.6-59.9c6.3-11,21.9-20,34.6-20h69.2c12.7,0,28.2,9,34.6,20l34.6,59.9c6.3,11,6.3,29,0,40L329,322.4c-6.4,11-21.9,20-34.6,20Z" style="fill:#231f20;opacity:0.5"/></g><path d="M161,358.9c-20.3,0-45.2-14.4-55.4-32L50.3,231c-10.2-17.5-10.2-46.3,0-63.9l55.3-95.9c10.2-17.6,35.1-31.9,55.4-31.9H271.7c20.3,0,45.2,14.3,55.4,31.9l55.3,95.9c10.2,17.6,10.2,46.4,0,63.9l-55.3,95.9c-10.2,17.6-35.1,32-55.4,32Z" style="fill:#c9e3e2"/><g style="mix-blend-mode:multiply"><path d="M398.2,402.3c-12.7,22-43.8,39.9-69.2,39.9H190.6c-25.4,0-56.5-17.9-69.2-39.9L52.2,282.4c-12.7-21.9-12.7-57.9,0-79.9L121.4,82.7c12.7-22,43.8-40,69.2-40H329c25.4,0,56.5,18,69.2,40l69.2,119.8c12.7,22,12.7,58,0,79.9ZM259.8-39.8C103.9-39.8-22.5,86.6-22.5,242.5S103.9,524.7,259.8,524.7,542,398.4,542,242.5,415.7-39.8,259.8-39.8Z" style="fill:#fff;opacity:0"/><path d="M397.3,401.4c-12.7,22-43.8,40-69.2,40H189.7c-25.3,0-56.5-18-69.2-40L51.3,281.6c-12.6-22-12.6-57.9,0-79.9L120.5,81.8c12.7-21.9,43.9-39.9,69.2-39.9H328.1c25.4,0,56.5,18,69.2,39.9l69.2,119.9c12.7,22,12.7,57.9,0,79.9ZM258.9-40.6C103.1-40.6-23.3,85.8-23.3,241.6S103.1,523.9,258.9,523.9,541.2,397.5,541.2,241.6,414.8-40.6,258.9-40.6Z" style="fill:#fbfbfb;opacity:0.009803921915590525"/><path d="M396.5,400.6c-12.7,22-43.9,39.9-69.2,39.9H188.9c-25.4,0-56.5-17.9-69.2-39.9L50.5,280.7c-12.7-21.9-12.7-57.9,0-79.9L119.7,81c12.7-22,43.8-40,69.2-40H327.3c25.3,0,56.5,18,69.2,40l69.2,119.8c12.7,22,12.7,58,0,79.9ZM258.1-41.5C102.2-41.5-24.2,84.9-24.2,240.8S102.2,523,258.1,523,540.3,396.7,540.3,240.8,414-41.5,258.1-41.5Z" style="fill:#f6f6f6;opacity:0.01960784347005621"/><path d="M395.6,399.7c-12.7,22-43.8,40-69.2,40H188c-25.3,0-56.5-18-69.2-40L49.6,279.9C37,257.9,37,222,49.6,200L118.8,80.1c12.7-21.9,43.9-39.9,69.2-39.9H326.4c25.4,0,56.5,18,69.2,39.9L464.8,200c12.7,22,12.7,57.9,0,79.9ZM257.2-42.3C101.4-42.3-25,84.1-25,239.9S101.4,522.2,257.2,522.2,539.5,395.8,539.5,239.9,413.1-42.3,257.2-42.3Z" style="fill:#f2f2f2;opacity:0.02941176502452189"/><path d="M394.8,398.9c-12.7,22-43.9,39.9-69.2,39.9H187.2c-25.4,0-56.5-17.9-69.2-39.9L48.8,279c-12.7-21.9-12.7-57.9,0-79.9L118,79.3c12.7-22,43.8-40,69.2-40H325.6c25.3,0,56.5,18,69.2,40L464,199.1c12.7,22,12.7,58,0,79.9ZM256.4-43.2C100.5-43.2-25.9,83.2-25.9,239.1S100.5,521.3,256.4,521.3,538.6,395,538.6,239.1,412.3-43.2,256.4-43.2Z" style="fill:#eeedee;opacity:0.03921568657898757"/><path d="M393.9,398c-12.7,22-43.8,40-69.2,40H186.3c-25.3,0-56.5-18-69.2-40L47.9,278.2c-12.7-22-12.7-57.9,0-79.9L117.1,78.4c12.7-21.9,43.9-39.9,69.2-39.9H324.7c25.4,0,56.5,18,69.2,39.9l69.2,119.9c12.7,22,12.7,57.9,0,79.9ZM255.5-44C99.7-44-26.7,82.4-26.7,238.2S99.7,520.5,255.5,520.5,537.8,394.1,537.8,238.2,411.4-44,255.5-44Z" style="fill:#e9e9e9;opacity:0.049019608133453255"/><path d="M393.1,397.2c-12.7,22-43.9,39.9-69.2,39.9H185.5c-25.4,0-56.5-17.9-69.2-39.9L47.1,277.3c-12.7-21.9-12.7-57.9,0-79.9L116.3,77.6c12.7-22,43.8-40,69.2-40H323.9c25.3,0,56.5,18,69.2,40l69.2,119.8c12.7,22,12.7,58,0,79.9ZM254.7-44.9C98.8-44.9-27.6,81.5-27.6,237.4S98.8,519.6,254.7,519.6,536.9,393.3,536.9,237.4,410.6-44.9,254.7-44.9Z" style="fill:#e5e5e5;opacity:0.058823529687918936"/><path d="M392.2,396.3c-12.7,22-43.8,40-69.2,40H184.6c-25.3,0-56.5-18-69.2-40L46.2,276.5c-12.7-22-12.7-57.9,0-79.9L115.4,76.7c12.7-21.9,43.9-39.9,69.2-39.9H323c25.4,0,56.5,18,69.2,39.9l69.2,119.9c12.7,22,12.7,57.9,0,79.9ZM253.8-45.7C97.9-45.7-28.4,80.7-28.4,236.5S97.9,518.8,253.8,518.8,536.1,392.4,536.1,236.5,409.7-45.7,253.8-45.7Z" style="fill:#e1e0e0;opacity:0.06862745124238462"/><path d="M391.4,395.5c-12.7,22-43.9,39.9-69.2,39.9H183.8c-25.4,0-56.5-17.9-69.2-39.9L45.4,275.6c-12.7-21.9-12.7-57.9,0-79.9L114.6,75.9c12.7-22,43.8-40,69.2-40H322.2c25.3,0,56.5,18,69.2,40l69.2,119.8c12.7,22,12.7,58,0,79.9ZM253-46.6C97.1-46.6-29.3,79.8-29.3,235.7S97.1,517.9,253,517.9,535.2,391.6,535.2,235.7,408.9-46.6,253-46.6Z" style="fill:#dcdcdc;opacity:0.07843137279685031"/><path d="M390.5,394.6c-12.7,22-43.8,40-69.2,40H182.9c-25.3,0-56.5-18-69.2-40L44.5,274.8c-12.7-22-12.7-58,0-79.9L113.7,75c12.7-21.9,43.9-39.9,69.2-39.9H321.3c25.4,0,56.5,18,69.2,39.9l69.2,119.9c12.7,21.9,12.7,57.9,0,79.9ZM252.1-47.4C96.2-47.4-30.1,79-30.1,234.8S96.2,517.1,252.1,517.1,534.4,390.7,534.4,234.8,408-47.4,252.1-47.4Z" style="fill:#d8d7d8;opacity:0.088235294351316"/><path d="M389.7,393.8c-12.7,22-43.9,39.9-69.2,39.9H182.1c-25.4,0-56.5-17.9-69.2-39.9L43.7,273.9C31,252,31,216,43.7,194L112.9,74.2c12.7-22,43.8-40,69.2-40H320.5c25.3,0,56.5,18,69.2,40L458.9,194c12.6,22,12.6,58,0,79.9ZM251.3-48.3C95.4-48.3-31,78.1-31,234S95.4,516.2,251.3,516.2,533.5,389.9,533.5,234,407.1-48.3,251.3-48.3Z" style="fill:#d4d3d3;opacity:0.09803921590578168"/><path d="M388.8,392.9c-12.7,22-43.8,40-69.2,40H181.2c-25.3,0-56.5-18-69.2-40L42.8,273.1c-12.7-22-12.7-58,0-79.9L112,73.3c12.7-21.9,43.9-39.9,69.2-39.9H319.6c25.4,0,56.5,18,69.2,39.9L458,193.2c12.7,21.9,12.7,57.9,0,79.9ZM250.4-49.1C94.5-49.1-31.8,77.2-31.8,233.1S94.5,515.4,250.4,515.4,532.7,389,532.7,233.1,406.3-49.1,250.4-49.1Z" style="fill:#d0cfcf;opacity:0.10784313746024737"/><path d="M388,392.1c-12.7,22-43.9,39.9-69.2,39.9H180.4c-25.4,0-56.5-17.9-69.2-39.9L42,272.2c-12.7-21.9-12.7-57.9,0-79.9L111.2,72.5c12.7-22,43.8-40,69.2-40H318.8c25.3,0,56.5,18,69.2,40l69.2,119.8c12.6,22,12.6,58,0,79.9ZM249.6-50C93.7-50-32.7,76.4-32.7,232.3S93.7,514.5,249.6,514.5,531.8,388.2,531.8,232.3,405.4-50,249.6-50Z" style="fill:#cbcacb;opacity:0.11764705901471306"/><path d="M387.1,391.2c-12.7,22-43.8,40-69.2,40H179.5c-25.4,0-56.5-18-69.2-40L41.1,271.4c-12.7-22-12.7-58,0-79.9L110.3,71.6c12.7-22,43.8-39.9,69.2-39.9H317.9c25.4,0,56.5,17.9,69.2,39.9l69.2,119.9c12.7,21.9,12.7,57.9,0,79.9ZM248.7-50.8C92.8-50.8-33.5,75.5-33.5,231.4S92.8,513.7,248.7,513.7,531,387.3,531,231.4,404.6-50.8,248.7-50.8Z" style="fill:#c7c6c6;opacity:0.12745098056917875"/><path d="M386.3,390.4c-12.7,21.9-43.9,39.9-69.2,39.9H178.7c-25.4,0-56.5-18-69.2-39.9L40.3,270.5c-12.7-21.9-12.7-57.9,0-79.9L109.5,70.8c12.7-22,43.8-40,69.2-40H317.1c25.3,0,56.5,18,69.2,40l69.2,119.8c12.6,22,12.6,58,0,79.9ZM247.9-51.7C92-51.7-34.4,74.7-34.4,230.6S92,512.8,247.9,512.8,530.1,386.4,530.1,230.6,403.7-51.7,247.9-51.7Z" style="fill:#c3c2c2;opacity:0.13725490212364444"/><path d="M385.4,389.5c-12.7,22-43.8,40-69.2,40H177.8c-25.4,0-56.5-18-69.2-40L39.4,269.7c-12.7-22-12.7-58,0-79.9L108.6,69.9c12.7-22,43.8-39.9,69.2-39.9H316.2c25.4,0,56.5,17.9,69.2,39.9l69.2,119.9c12.7,21.9,12.7,57.9,0,79.9ZM247-52.5C91.1-52.5-35.2,73.8-35.2,229.7S91.1,512,247,512,529.3,385.6,529.3,229.7,402.9-52.5,247-52.5Z" style="fill:#bebdbd;opacity:0.14705882367811013"/><path d="M384.6,388.7c-12.7,21.9-43.9,39.9-69.2,39.9H177c-25.4,0-56.5-18-69.2-39.9L38.6,268.8c-12.7-21.9-12.7-57.9,0-79.9L107.8,69.1c12.7-22,43.8-40,69.2-40H315.4c25.3,0,56.5,18,69.2,40l69.2,119.8c12.6,22,12.6,58,0,79.9ZM246.2-53.4C90.3-53.4-36.1,73-36.1,228.9S90.3,511.1,246.2,511.1,528.4,384.7,528.4,228.9,402-53.4,246.2-53.4Z" style="fill:#bab9b9;opacity:0.15686274523257582"/><path d="M383.7,387.8c-12.7,22-43.8,40-69.2,40H176.1c-25.4,0-56.5-18-69.2-40L37.7,268c-12.7-22-12.7-58,0-79.9L106.9,68.2c12.7-22,43.8-39.9,69.2-39.9H314.5c25.4,0,56.5,17.9,69.2,39.9l69.2,119.9c12.7,21.9,12.7,57.9,0,79.9ZM245.3-54.2C89.4-54.2-36.9,72.1-36.9,228S89.4,510.3,245.3,510.3,527.5,383.9,527.5,228,401.2-54.2,245.3-54.2Z" style="fill:#b6b4b5;opacity:0.1666666667870415"/><path d="M382.8,387c-12.6,21.9-43.8,39.9-69.1,39.9H175.3c-25.4,0-56.6-18-69.2-39.9L36.9,267.1c-12.7-22-12.7-57.9,0-79.9L106.1,67.4c12.6-22,43.8-40,69.2-40H313.7c25.3,0,56.5,18,69.1,40l69.3,119.8c12.6,22,12.6,57.9,0,79.9ZM244.5-55.1C88.6-55.1-37.8,71.3-37.8,227.2S88.6,509.4,244.5,509.4,526.7,383,526.7,227.2,400.3-55.1,244.5-55.1Z" style="fill:#b1b0b0;opacity:0.1764705883415072"/><path d="M382,386.1c-12.7,22-43.8,40-69.2,40H174.4c-25.4,0-56.5-18-69.2-40L36,266.3c-12.7-22-12.7-58,0-79.9L105.2,66.5c12.7-22,43.8-39.9,69.2-39.9H312.8c25.4,0,56.5,17.9,69.2,39.9l69.2,119.9c12.7,21.9,12.7,57.9,0,79.9ZM243.6-55.9C87.7-55.9-38.6,70.4-38.6,226.3S87.7,508.6,243.6,508.6,525.8,382.2,525.8,226.3,399.5-55.9,243.6-55.9Z" style="fill:#adacac;opacity:0.18627450989597288"/><path d="M381.1,385.3c-12.6,21.9-43.8,39.9-69.1,39.9H173.6c-25.4,0-56.6-18-69.2-39.9L35.2,265.4c-12.7-22-12.7-57.9,0-79.9L104.4,65.7c12.6-22,43.8-40,69.2-40H312c25.3,0,56.5,18,69.1,40l69.2,119.8c12.7,22,12.7,57.9,0,79.9ZM242.8-56.8C86.9-56.8-39.5,69.6-39.5,225.5S86.9,507.7,242.8,507.7,525,381.3,525,225.5,398.6-56.8,242.8-56.8Z" style="fill:#a9a7a8;opacity:0.19607843145043857"/><path d="M380.3,384.4c-12.7,22-43.8,40-69.2,40H172.7c-25.4,0-56.5-18-69.2-40L34.3,264.6c-12.7-22-12.7-58,0-79.9L103.5,64.8c12.7-22,43.8-39.9,69.2-39.9H311.1c25.4,0,56.5,17.9,69.2,39.9l69.2,119.9c12.7,21.9,12.7,57.9,0,79.9ZM241.9-57.6C86-57.6-40.3,68.7-40.3,224.6S86,506.8,241.9,506.8,524.1,380.5,524.1,224.6,397.8-57.6,241.9-57.6Z" style="fill:#a4a3a3;opacity:0.20588235300490426"/><path d="M379.4,383.6c-12.6,21.9-43.8,39.9-69.2,39.9H171.9c-25.4,0-56.6-18-69.2-39.9L33.5,263.7c-12.7-22-12.7-57.9,0-79.9L102.7,64c12.6-22,43.8-40,69.2-40H310.2c25.4,0,56.6,18,69.2,40l69.2,119.8c12.7,22,12.7,57.9,0,79.9ZM241.1-58.5C85.2-58.5-41.2,67.9-41.2,223.8S85.2,506,241.1,506,523.3,379.6,523.3,223.8,396.9-58.5,241.1-58.5Z" style="fill:#a09e9f;opacity:0.21568627455936995"/><path d="M378.6,382.7c-12.7,22-43.8,40-69.2,40H171c-25.4,0-56.5-18-69.2-40L32.6,262.9c-12.7-22-12.7-58,0-79.9L101.8,63.1c12.7-22,43.8-39.9,69.2-39.9H309.4c25.4,0,56.5,17.9,69.2,39.9L447.8,183c12.7,21.9,12.7,57.9,0,79.9ZM240.2-59.3C84.3-59.3-42,67-42,222.9S84.3,505.1,240.2,505.1,522.4,378.8,522.4,222.9,396.1-59.3,240.2-59.3Z" style="fill:#9c9a9a;opacity:0.22549019611383564"/><path d="M377.7,381.9c-12.6,21.9-43.8,39.9-69.2,39.9H170.1c-25.3,0-56.5-18-69.1-39.9L31.8,262c-12.7-22-12.7-57.9,0-79.9L101,62.3c12.6-22,43.8-40,69.1-40H308.5c25.4,0,56.6,18,69.2,40l69.2,119.8c12.7,22,12.7,57.9,0,79.9ZM239.4-60.2C83.5-60.2-42.9,66.2-42.9,222.1S83.5,504.3,239.4,504.3,521.6,377.9,521.6,222.1,395.2-60.2,239.4-60.2Z" style="fill:#979696;opacity:0.23529411766830133"/><path d="M376.9,381c-12.7,22-43.8,40-69.2,40H169.3c-25.4,0-56.5-18-69.2-40L30.9,261.2c-12.7-22-12.7-58,0-79.9L100.1,61.4c12.7-22,43.8-39.9,69.2-39.9H307.7c25.4,0,56.5,17.9,69.2,39.9l69.2,119.9c12.7,21.9,12.7,57.9,0,79.9ZM238.5-61C82.6-61-43.7,65.3-43.7,221.2S82.6,503.4,238.5,503.4,520.7,377.1,520.7,221.2,394.4-61,238.5-61Z" style="fill:#939192;opacity:0.24509803922276702"/><path d="M376,380.2c-12.6,21.9-43.8,39.9-69.2,39.9H168.4c-25.3,0-56.5-18-69.2-39.9L30.1,260.3c-12.7-22-12.7-57.9,0-79.9L99.2,60.6c12.7-22,43.9-40,69.2-40H306.8c25.4,0,56.6,18,69.2,40l69.2,119.8c12.7,22,12.7,57.9,0,79.9ZM237.6-61.9C81.8-61.9-44.6,64.5-44.6,220.4S81.8,502.6,237.6,502.6,519.9,376.2,519.9,220.4,393.5-61.9,237.6-61.9Z" style="fill:#8f8d8d;opacity:0.2549019607772327"/><path d="M375.2,379.3c-12.7,22-43.8,40-69.2,40H167.6c-25.4,0-56.5-18-69.2-40L29.2,259.5c-12.7-22-12.7-58,0-80L98.4,59.7c12.7-22,43.8-40,69.2-40H306c25.4,0,56.5,18,69.2,40l69.2,119.8c12.7,22,12.7,58,0,80ZM236.8-62.7C80.9-62.7-45.4,63.6-45.4,219.5S80.9,501.7,236.8,501.7,519,375.4,519,219.5,392.7-62.7,236.8-62.7Z" style="fill:#8b8889;opacity:0.2647058823316984"/><path d="M374.3,378.5c-12.6,21.9-43.8,39.9-69.2,39.9H166.7c-25.3,0-56.5-18-69.2-39.9L28.4,258.6c-12.7-22-12.7-57.9,0-79.9L97.5,58.8c12.7-21.9,43.9-39.9,69.2-39.9H305.1c25.4,0,56.6,18,69.2,39.9l69.2,119.9c12.7,22,12.7,57.9,0,79.9ZM235.9-63.6C80.1-63.6-46.3,62.8-46.3,218.7S80.1,500.9,235.9,500.9,518.2,374.5,518.2,218.7,391.8-63.6,235.9-63.6Z" style="fill:#868485;opacity:0.2745098038861641"/><path d="M373.5,377.6c-12.7,22-43.8,40-69.2,40H165.9c-25.4,0-56.5-18-69.2-40L27.5,257.8c-12.7-22-12.7-58,0-80L96.7,58c12.7-22,43.8-40,69.2-40H304.3c25.4,0,56.5,18,69.2,40l69.2,119.8c12.7,22,12.7,58,0,80ZM235.1-64.4C79.2-64.4-47.1,61.9-47.1,217.8S79.2,500,235.1,500,517.3,373.7,517.3,217.8,391-64.4,235.1-64.4Z" style="fill:#828080;opacity:0.28431372544062977"/><path d="M372.6,376.8c-12.6,21.9-43.8,39.9-69.2,39.9H165c-25.3,0-56.5-18-69.2-39.9L26.6,256.9C14,234.9,14,199,26.6,177L95.8,57.1c12.7-21.9,43.9-39.9,69.2-39.9H303.4c25.4,0,56.6,18,69.2,39.9L441.8,177c12.7,22,12.7,57.9,0,79.9ZM234.2-65.3C78.4-65.3-48,61.1-48,217S78.4,499.2,234.2,499.2,516.5,372.8,516.5,217,390.1-65.3,234.2-65.3Z" style="fill:#7e7b7c;opacity:0.29411764699509546"/><path d="M371.8,375.9c-12.7,22-43.8,40-69.2,40H164.2c-25.4,0-56.5-18-69.2-40L25.8,256.1c-12.7-22-12.7-58,0-80L95,56.3c12.7-22,43.8-40,69.2-40H302.6c25.4,0,56.5,18,69.2,40L441,176.1c12.7,22,12.7,58,0,80ZM233.4-66.1C77.5-66.1-48.8,60.2-48.8,216.1S77.5,498.3,233.4,498.3,515.6,372,515.6,216.1,389.3-66.1,233.4-66.1Z" style="fill:#797777;opacity:0.30392156854956115"/><path d="M370.9,375c-12.7,22-43.8,40-69.2,40H163.3c-25.3,0-56.5-18-69.2-40L24.9,255.2c-12.6-22-12.6-57.9,0-79.9L94.1,55.4c12.7-21.9,43.9-39.9,69.2-39.9H301.7c25.4,0,56.5,18,69.2,39.9l69.2,119.9c12.7,22,12.7,57.9,0,79.9ZM232.5-67C76.7-67-49.7,59.4-49.7,215.2S76.7,497.5,232.5,497.5,514.8,371.1,514.8,215.2,388.4-67,232.5-67Z" style="fill:#757273;opacity:0.31372549010402684"/><path d="M370.1,374.2c-12.7,22-43.8,40-69.2,40H162.5c-25.4,0-56.5-18-69.2-40L24.1,254.4c-12.7-22-12.7-58,0-80L93.3,54.6c12.7-22,43.8-40,69.2-40H300.9c25.4,0,56.5,18,69.2,40l69.2,119.8c12.7,22,12.7,58,0,80ZM231.7-67.8C75.8-67.8-50.6,58.5-50.6,214.4S75.8,496.6,231.7,496.6,513.9,370.3,513.9,214.4,387.6-67.8,231.7-67.8Z" style="fill:#716e6f;opacity:0.3235294116584925"/><path d="M369.2,373.3c-12.7,22-43.8,40-69.2,40H161.6c-25.3,0-56.5-18-69.2-40L23.2,253.5c-12.6-22-12.6-57.9,0-79.9L92.4,53.7c12.7-21.9,43.9-39.9,69.2-39.9H300c25.4,0,56.5,18,69.2,39.9l69.2,119.9c12.7,22,12.7,57.9,0,79.9ZM230.8-68.7C75-68.7-51.4,57.7-51.4,213.5S75,495.8,230.8,495.8,513.1,369.4,513.1,213.5,386.7-68.7,230.8-68.7Z" style="fill:#6c6a6a;opacity:0.3333333332129582"/><path d="M368.4,372.5c-12.7,22-43.8,39.9-69.2,39.9H160.8c-25.4,0-56.5-17.9-69.2-39.9L22.4,252.6c-12.7-21.9-12.7-57.9,0-79.9L91.6,52.9c12.7-22,43.8-40,69.2-40H299.2c25.4,0,56.5,18,69.2,40l69.2,119.8c12.7,22,12.7,58,0,79.9ZM230-69.5C74.1-69.5-52.3,56.8-52.3,212.7S74.1,494.9,230,494.9,512.2,368.6,512.2,212.7,385.9-69.5,230-69.5Z" style="fill:#686566;opacity:0.3431372547674239"/><path d="M367.5,371.6c-12.7,22-43.8,40-69.2,40H159.9c-25.3,0-56.5-18-69.2-40L21.5,251.8c-12.6-22-12.6-57.9,0-79.9L90.7,52c12.7-21.9,43.9-39.9,69.2-39.9H298.3c25.4,0,56.5,18,69.2,39.9l69.2,119.9c12.7,22,12.7,57.9,0,79.9ZM229.1-70.4C73.3-70.4-53.1,56-53.1,211.8S73.3,494.1,229.1,494.1,511.4,367.7,511.4,211.8,385-70.4,229.1-70.4Z" style="fill:#646162;opacity:0.3529411763218896"/><path d="M366.7,370.8c-12.7,22-43.9,39.9-69.2,39.9H159.1c-25.4,0-56.5-17.9-69.2-39.9L20.7,250.9C8,229,8,193,20.7,171L89.9,51.2c12.7-22,43.8-40,69.2-40H297.5c25.3,0,56.5,18,69.2,40L435.9,171c12.7,22,12.7,58,0,79.9ZM228.3-71.3C72.4-71.3-54,55.1-54,211S72.4,493.2,228.3,493.2,510.5,366.9,510.5,211,384.2-71.3,228.3-71.3Z" style="fill:#5f5c5d;opacity:0.3627450978763553"/><path d="M365.8,369.9c-12.7,22-43.8,40-69.2,40H158.2c-25.3,0-56.5-18-69.2-40L19.8,250.1c-12.6-22-12.6-57.9,0-79.9L89,50.3c12.7-21.9,43.9-39.9,69.2-39.9H296.6c25.4,0,56.5,18,69.2,39.9L435,170.2c12.7,22,12.7,57.9,0,79.9ZM227.4-72.1C71.6-72.1-54.8,54.3-54.8,210.1S71.6,492.4,227.4,492.4,509.7,366,509.7,210.1,383.3-72.1,227.4-72.1Z" style="fill:#5b5859;opacity:0.37254901943082097"/><path d="M365,369.1c-12.7,22-43.9,39.9-69.2,39.9H157.4c-25.4,0-56.5-17.9-69.2-39.9L19,249.2c-12.7-21.9-12.7-57.9,0-79.9L88.2,49.5c12.7-22,43.8-40,69.2-40H295.8c25.3,0,56.5,18,69.2,40l69.2,119.8c12.7,22,12.7,58,0,79.9ZM226.6-73C70.7-73-55.7,53.4-55.7,209.3S70.7,491.5,226.6,491.5,508.8,365.2,508.8,209.3,382.5-73,226.6-73Z" style="fill:#575454;opacity:0.38235294098528666"/><path d="M364.1,368.2c-12.7,22-43.8,40-69.2,40H156.5c-25.3,0-56.5-18-69.2-40L18.1,248.4c-12.7-22-12.7-57.9,0-79.9L87.3,48.6C100,26.7,131.2,8.7,156.5,8.7H294.9c25.4,0,56.5,18,69.2,39.9l69.2,119.9c12.7,22,12.7,57.9,0,79.9ZM225.7-73.8C69.9-73.8-56.5,52.6-56.5,208.4S69.9,490.7,225.7,490.7,508,364.3,508,208.4,381.6-73.8,225.7-73.8Z" style="fill:#524f50;opacity:0.39215686253975235"/><path d="M363.3,367.4c-12.7,22-43.9,39.9-69.2,39.9H155.7c-25.4,0-56.5-17.9-69.2-39.9L17.3,247.5c-12.7-21.9-12.7-57.9,0-79.9L86.5,47.8c12.7-22,43.8-40,69.2-40H294.1c25.3,0,56.5,18,69.2,40l69.2,119.8c12.7,22,12.7,58,0,79.9ZM224.9-74.7C69-74.7-57.4,51.7-57.4,207.6S69,489.8,224.9,489.8,507.1,363.5,507.1,207.6,380.8-74.7,224.9-74.7Z" style="fill:#4e4b4c;opacity:0.40196078409421804"/><path d="M362.4,366.5c-12.7,22-43.8,40-69.2,40H154.8c-25.3,0-56.5-18-69.2-40L16.4,246.7c-12.7-22-12.7-57.9,0-79.9L85.6,46.9C98.3,25,129.5,7,154.8,7H293.2c25.4,0,56.5,18,69.2,39.9l69.2,119.9c12.7,22,12.7,57.9,0,79.9ZM224-75.5C68.1-75.5-58.2,50.9-58.2,206.7S68.1,489,224,489,506.3,362.6,506.3,206.7,379.9-75.5,224-75.5Z" style="fill:#4a4747;opacity:0.4117647056486837"/><path d="M361.6,365.7c-12.7,22-43.9,39.9-69.2,39.9H154c-25.4,0-56.5-17.9-69.2-39.9L15.6,245.8c-12.7-21.9-12.7-57.9,0-79.9L84.8,46.1c12.7-22,43.8-40,69.2-40H292.4c25.3,0,56.5,18,69.2,40l69.2,119.8c12.7,22,12.7,58,0,79.9ZM223.2-76.4C67.3-76.4-59.1,50-59.1,205.9S67.3,488.1,223.2,488.1,505.4,361.8,505.4,205.9,379.1-76.4,223.2-76.4Z" style="fill:#464243;opacity:0.4215686272031494"/><path d="M360.7,364.8c-12.7,22-43.8,40-69.2,40H153.1c-25.3,0-56.5-18-69.2-40L14.7,245C2,223,2,187,14.7,165.1L83.9,45.2C96.6,23.3,127.8,5.3,153.1,5.3H291.5c25.4,0,56.5,18,69.2,39.9l69.2,119.9c12.7,21.9,12.7,57.9,0,79.9ZM222.3-77.2C66.4-77.2-59.9,49.2-59.9,205S66.4,487.3,222.3,487.3,504.6,360.9,504.6,205,378.2-77.2,222.3-77.2Z" style="fill:#413e3f;opacity:0.4313725487576151"/><path d="M359.9,364c-12.7,22-43.9,39.9-69.2,39.9H152.3c-25.4,0-56.5-17.9-69.2-39.9L13.9,244.1c-12.7-21.9-12.7-57.9,0-79.9L83.1,44.4c12.7-22,43.8-40,69.2-40H290.7c25.3,0,56.5,18,69.2,40l69.2,119.8c12.6,22,12.6,58,0,79.9ZM221.5-78.1C65.6-78.1-60.8,48.3-60.8,204.2S65.6,486.4,221.5,486.4,503.7,360.1,503.7,204.2,377.3-78.1,221.5-78.1Z" style="fill:#3d393a;opacity:0.4411764703120808"/><path d="M359,363.1c-12.7,22-43.8,40-69.2,40H151.4c-25.3,0-56.5-18-69.2-40L13,243.3c-12.7-22-12.7-58,0-79.9L82.2,43.5c12.7-22,43.9-39.9,69.2-39.9H289.8c25.4,0,56.5,17.9,69.2,39.9l69.2,119.9c12.7,21.9,12.7,57.9,0,79.9ZM220.6-78.9C64.7-78.9-61.6,47.5-61.6,203.3S64.7,485.6,220.6,485.6,502.9,359.2,502.9,203.3,376.5-78.9,220.6-78.9Z" style="fill:#393536;opacity:0.4509803918665465"/><path d="M358.2,362.3c-12.7,22-43.9,39.9-69.2,39.9H150.6c-25.4,0-56.5-17.9-69.2-39.9L12.2,242.4c-12.7-21.9-12.7-57.9,0-79.9L81.4,42.7c12.7-22,43.8-40,69.2-40H289c25.3,0,56.5,18,69.2,40l69.2,119.8c12.6,22,12.6,58,0,79.9ZM219.8-79.8C63.9-79.8-62.5,46.6-62.5,202.5S63.9,484.7,219.8,484.7,502,358.4,502,202.5,375.6-79.8,219.8-79.8Z" style="fill:#343131;opacity:0.46078431342101217"/><path d="M357.3,361.4c-12.7,22-43.8,40-69.2,40H149.7c-25.4,0-56.5-18-69.2-40L11.3,241.6c-12.7-22-12.7-58,0-79.9L80.5,41.8c12.7-22,43.8-39.9,69.2-39.9H288.1c25.4,0,56.5,17.9,69.2,39.9l69.2,119.9c12.7,21.9,12.7,57.9,0,79.9ZM218.9-80.6C63-80.6-63.3,45.7-63.3,201.6S63,483.9,218.9,483.9,501.2,357.5,501.2,201.6,374.8-80.6,218.9-80.6Z" style="fill:#302c2d;opacity:0.47058823497547786"/><path d="M356.5,360.6c-12.7,22-43.9,39.9-69.2,39.9H148.9c-25.4,0-56.5-17.9-69.2-39.9L10.5,240.7c-12.7-21.9-12.7-57.9,0-79.9L79.7,41C92.4,19,123.5,1,148.9,1H287.3c25.3,0,56.5,18,69.2,40l69.2,119.8c12.6,22,12.6,58,0,79.9ZM218.1-81.5C62.2-81.5-64.2,44.9-64.2,200.8S62.2,483,218.1,483,500.3,356.7,500.3,200.8,373.9-81.5,218.1-81.5Z" style="fill:#2c2829;opacity:0.48039215652994355"/><path d="M355.6,359.7c-12.7,22-43.8,40-69.2,40H148c-25.4,0-56.5-18-69.2-40L9.6,239.9c-12.7-22-12.7-58,0-79.9L78.8,40.1C91.5,18.1,122.6.2,148,.2H286.4c25.4,0,56.5,17.9,69.2,39.9L424.8,160c12.7,21.9,12.7,57.9,0,79.9ZM217.2-82.3C61.3-82.3-65,44-65,199.9S61.3,482.2,217.2,482.2,499.5,355.8,499.5,199.9,373.1-82.3,217.2-82.3Z" style="fill:#272324;opacity:0.49019607808440924"/><path d="M354.8,358.9c-12.7,21.9-43.9,39.9-69.2,39.9H147.2c-25.4,0-56.5-18-69.2-39.9L8.8,239c-12.7-21.9-12.7-57.9,0-79.9L78,39.3c12.7-22,43.8-40,69.2-40H285.6c25.3,0,56.5,18,69.2,40L424,159.1c12.6,22,12.6,58,0,79.9ZM216.4-83.2C60.5-83.2-65.9,43.2-65.9,199.1S60.5,481.3,216.4,481.3,498.6,354.9,498.6,199.1,372.2-83.2,216.4-83.2Z" style="fill:#231f20;opacity:0.5"/></g><path d="M216.4-83.2C60.5-83.2-65.9,43.2-65.9,199.1S60.5,481.3,216.4,481.3,498.6,354.9,498.6,199.1,372.2-83.2,216.4-83.2ZM354.8,358.9c-12.7,21.9-43.9,39.9-69.2,39.9H147.2c-25.4,0-56.5-18-69.2-39.9L8.8,239c-12.7-21.9-12.7-57.9,0-79.9L78,39.3c12.7-22,43.8-40,69.2-40H285.6c25.3,0,56.5,18,69.2,40L424,159.1c12.6,22,12.6,58,0,79.9Z" style="fill:#fff"/></g><path d="M205.3,185.3c-8,0-13.8,6.7-13.8,14.8s6.9,14.9,17.4,23.7l5.6,4.9a2.8,2.8,0,0,0,1.9.7,2.6,2.6,0,0,0,1.8-.7l5.7-4.9c10.4-8.8,17.3-14.7,17.3-23.7s-5.8-14.8-13.8-14.8a12.9,12.9,0,0,0-11,6.1,13.2,13.2,0,0,0-11.1-6.1ZM219,198.4c0-.1,2.2-7.6,8.4-7.6,4.7,0,8.3,4,8.3,9.3s-5.8,11.4-15.4,19.5l-3.9,3.4-4-3.4c-9.6-8.1-15.3-13.1-15.3-19.5s3.5-9.3,8.2-9.3,8.3,7.3,8.4,7.6a2.7,2.7,0,0,0,2.7,2,2.7,2.7,0,0,0,2.6-2Zm-38.5-44.6a2.9,2.9,0,0,1,2.8,2.8,2.8,2.8,0,0,1-5.6,0A2.9,2.9,0,0,1,180.5,153.8Zm88.8,40.3a11.1,11.1,0,0,0,17.7-8.8,10.9,10.9,0,0,0-4.4-8.8l-13.8-10.6V131.2a2.8,2.8,0,0,0-2.8-2.7H249.5a2.7,2.7,0,0,0-2.8,2.7v17.7L223,130.7a11.2,11.2,0,0,0-13.3,0l-21,16.2a2.7,2.7,0,1,0,3.3,4.3l21-16.1a5.8,5.8,0,0,1,3.4-1.1,5.7,5.7,0,0,1,3.3,1.1l59.6,45.8a5.3,5.3,0,0,1,2.2,4.4,5.6,5.6,0,0,1-5.6,5.5,5.7,5.7,0,0,1-3.3-1.1l-54.6-42a2.7,2.7,0,0,0-3.2-.1l-54.7,42.1a6,6,0,0,1-3.9,1.1,4.9,4.9,0,0,1-4.8-4.2,5.4,5.4,0,0,1,2.1-5.7l18.9-14.5a2.8,2.8,0,0,0,.5-3.9,2.7,2.7,0,0,0-3.9-.5l-18.9,14.5a11.2,11.2,0,0,0-4.1,11.3,10.4,10.4,0,0,0,9.7,8.5,11.5,11.5,0,0,0,7.8-2.2h0a1.1,1.1,0,0,1,.5-.4v37.8a16.5,16.5,0,0,0-12.4,13.2,13.7,13.7,0,0,0,7.9,25H273.2A13.8,13.8,0,0,0,287,255.9a13.5,13.5,0,0,0-5.9-11.2,16.4,16.4,0,0,0-12.3-13.2V193.7ZM252.2,134h11.1v27.6l-11.1-8.5ZM189.9,264.2H159.5a8.3,8.3,0,0,1-4-15.5,2.6,2.6,0,0,0,1.4-2.1,11,11,0,0,1,19.9-5.3,3,3,0,0,0,2.9,1.1l1.9-.3a8.3,8.3,0,0,1,8.3,8.2,2.7,2.7,0,0,0,1.8,3.2,5.4,5.4,0,0,1,3.7,5.2A5.5,5.5,0,0,1,189.9,264.2Zm47.5-15.1a12.1,12.1,0,0,0-4.1,4H199.4a12.1,12.1,0,0,0-4.1-4,7.7,7.7,0,0,0-.2-1.5h42.5A7.7,7.7,0,0,0,237.4,249.1Zm-38,15.1a10.6,10.6,0,0,0,1.5-5.5h30.9a10.6,10.6,0,0,0,1.5,5.5Zm76.4-17.6a2.6,2.6,0,0,0,1.4,2.1,8.3,8.3,0,0,1-4,15.5H242.8a5.5,5.5,0,0,1-5.5-5.5,5.4,5.4,0,0,1,3.7-5.2,2.7,2.7,0,0,0,1.8-3.2,8.4,8.4,0,0,1,8.3-8.2l1.9.3a2.9,2.9,0,0,0,2.9-1.1,11,11,0,0,1,19.9,5.3Zm-12.5-15.4a16.2,16.2,0,0,0-10.8,5.5h-1.4a14,14,0,0,0-11,5.5H192.6a13.8,13.8,0,0,0-11-5.5h-1.4a16.2,16.2,0,0,0-10.7-5.5V189.4l46.9-36,46.9,36Z" style="fill:#56595c"/></g><g id="_4" data-name="4"><g style="clip-path:url(#clip-path-3)"><g style="mix-blend-mode:multiply"><path d="M849.5,367c-12.6,21.8-43.5,39.6-68.7,39.6H643.5c-25.2,0-56.1-17.8-68.7-39.6L506.1,248c-12.6-21.8-12.6-57.5,0-79.3l68.7-119c12.6-21.8,43.5-39.6,68.7-39.6H780.8c25.2,0,56.1,17.8,68.7,39.6l68.7,119c12.6,21.8,12.6,57.5,0,79.3ZM712.2-71.8C557.4-71.8,432,53.6,432,208.4S557.4,488.5,712.2,488.5,992.3,363.1,992.3,208.4,866.9-71.8,712.2-71.8Z" style="fill:#524f50;opacity:0.39215686253975235"/><path d="M848.7,366.1c-12.6,21.9-43.5,39.7-68.7,39.7H642.6c-25.2,0-56.1-17.8-68.7-39.7L505.3,247.2c-12.6-21.8-12.6-57.5,0-79.3l68.6-119c12.6-21.8,43.5-39.7,68.7-39.7H780c25.2,0,56.1,17.9,68.7,39.7l68.7,119c12.6,21.8,12.6,57.5,0,79.3ZM711.3-72.6c-154.7,0-280.1,125.4-280.1,280.1S556.6,487.7,711.3,487.7,991.5,362.2,991.5,207.5,866-72.6,711.3-72.6Z" style="fill:#4e4b4c;opacity:0.40196078409421804"/><path d="M847.8,365.3c-12.6,21.8-43.5,39.7-68.7,39.7H641.8c-25.2,0-56.1-17.9-68.7-39.7l-68.7-119c-12.6-21.8-12.6-57.5,0-79.3L573.1,48.1c12.6-21.9,43.5-39.7,68.7-39.7H779.1c25.2,0,56.1,17.8,68.7,39.7L916.5,167c12.6,21.8,12.6,57.5,0,79.3ZM710.5-73.5C555.7-73.5,430.3,52,430.3,206.7S555.7,486.8,710.5,486.8,990.6,361.4,990.6,206.7,865.2-73.5,710.5-73.5Z" style="fill:#4a4747;opacity:0.4117647056486837"/><path d="M847,364.4c-12.6,21.9-43.5,39.7-68.7,39.7H640.9c-25.1,0-56.1-17.8-68.7-39.7L503.6,245.5c-12.6-21.8-12.6-57.5,0-79.3l68.6-119c12.6-21.8,43.6-39.6,68.7-39.6H778.3c25.2,0,56.1,17.8,68.7,39.6l68.7,119c12.6,21.8,12.6,57.5,0,79.3ZM709.6-74.3c-154.7,0-280.1,125.4-280.1,280.1S554.9,486,709.6,486,989.8,360.6,989.8,205.8,864.3-74.3,709.6-74.3Z" style="fill:#464243;opacity:0.4215686272031494"/><path d="M846.1,363.6c-12.5,21.8-43.5,39.7-68.6,39.7H640.1c-25.2,0-56.1-17.9-68.7-39.7l-68.7-119c-12.6-21.8-12.6-57.5,0-79.3L571.4,46.4C584,24.6,614.9,6.7,640.1,6.7H777.5c25.1,0,56.1,17.9,68.6,39.7l68.7,118.9c12.6,21.8,12.6,57.5,0,79.3ZM708.8-75.2C554.1-75.2,428.6,50.3,428.6,205S554.1,485.1,708.8,485.1,988.9,359.7,988.9,205,863.5-75.2,708.8-75.2Z" style="fill:#413e3f;opacity:0.4313725487576151"/><path d="M845.3,362.8c-12.6,21.8-43.5,39.6-68.7,39.6H639.2c-25.1,0-56-17.8-68.6-39.6l-68.7-119c-12.6-21.8-12.6-57.5,0-79.3l68.7-119c12.6-21.8,43.5-39.6,68.6-39.6H776.6c25.2,0,56.1,17.8,68.7,39.6l68.7,119c12.6,21.8,12.6,57.5,0,79.3ZM707.9-76C553.2-76,427.8,49.4,427.8,204.1S553.2,484.3,707.9,484.3,988.1,358.9,988.1,204.1,862.7-76,707.9-76Z" style="fill:#3d393a;opacity:0.4411764703120808"/><path d="M844.4,361.9c-12.5,21.8-43.4,39.7-68.6,39.7H638.4c-25.2,0-56.1-17.9-68.7-39.7L501,243c-12.6-21.9-12.6-57.6,0-79.4L569.7,44.7C582.3,22.9,613.2,5,638.4,5H775.8c25.2,0,56.1,17.9,68.6,39.7l68.7,118.9c12.6,21.8,12.6,57.5,0,79.4ZM707.1-76.9c-154.7,0-280.2,125.5-280.2,280.2S552.4,483.4,707.1,483.4,987.2,358,987.2,203.3,861.8-76.9,707.1-76.9Z" style="fill:#393536;opacity:0.4509803918665465"/><path d="M843.6,361.1c-12.6,21.8-43.5,39.6-68.7,39.6H637.5c-25.1,0-56-17.8-68.6-39.6l-68.7-119c-12.6-21.8-12.6-57.5,0-79.3l68.7-119C581.5,22,612.4,4.2,637.5,4.2H774.9c25.2,0,56.1,17.8,68.7,39.6l68.7,119c12.6,21.8,12.6,57.5,0,79.3ZM706.2-77.7c-154.7,0-280.1,125.4-280.1,280.2S551.5,482.6,706.2,482.6,986.4,357.2,986.4,202.5,861-77.7,706.2-77.7Z" style="fill:#343131;opacity:0.46078431342101217"/><path d="M842.8,360.2c-12.6,21.8-43.5,39.7-68.7,39.7H636.7c-25.2,0-56.1-17.9-68.7-39.7L499.3,241.3c-12.6-21.8-12.6-57.5,0-79.4L568,43c12.6-21.8,43.5-39.7,68.7-39.7H774.1c25.2,0,56.1,17.9,68.7,39.7l68.6,118.9c12.6,21.9,12.6,57.6,0,79.4ZM705.4-78.5c-154.7,0-280.2,125.4-280.2,280.1S550.7,481.8,705.4,481.8,985.5,356.3,985.5,201.6,860.1-78.5,705.4-78.5Z" style="fill:#302c2d;opacity:0.47058823497547786"/><path d="M841.9,359.4c-12.6,21.8-43.5,39.6-68.7,39.6H635.9c-25.2,0-56.1-17.8-68.7-39.6l-68.7-119c-12.6-21.8-12.6-57.5,0-79.3l68.7-119c12.6-21.8,43.5-39.6,68.7-39.6H773.2c25.2,0,56.1,17.8,68.7,39.6l68.7,119c12.6,21.8,12.6,57.5,0,79.3ZM704.5-79.4C549.8-79.4,424.4,46,424.4,200.8S549.8,480.9,704.5,480.9,984.7,355.5,984.7,200.8,859.3-79.4,704.5-79.4Z" style="fill:#2c2829;opacity:0.48039215652994355"/><path d="M841.1,358.5c-12.6,21.8-43.5,39.7-68.7,39.7H635c-25.2,0-56.1-17.9-68.7-39.7L497.6,239.6c-12.5-21.8-12.5-57.5,0-79.3l68.7-119C578.9,19.5,609.8,1.6,635,1.6H772.4c25.2,0,56.1,17.9,68.7,39.7l68.7,119c12.6,21.8,12.6,57.5,0,79.3ZM703.7-80.2C549-80.2,423.6,45.2,423.6,199.9S549,480.1,703.7,480.1,983.9,354.6,983.9,199.9,858.4-80.2,703.7-80.2Z" style="fill:#272324;opacity:0.49019607808440924"/><path d="M840.2,357.7c-12.6,21.8-43.5,39.6-68.7,39.6H634.2c-25.2,0-56.1-17.8-68.7-39.6l-68.7-119c-12.6-21.8-12.6-57.5,0-79.3l68.7-119C578.1,18.6,609,.8,634.2.8H771.5c25.2,0,56.1,17.8,68.7,39.6l68.7,119c12.6,21.8,12.6,57.5,0,79.3ZM702.9-81.1c-154.8,0-280.2,125.4-280.2,280.2S548.1,479.2,702.9,479.2,983,353.8,983,199.1,857.6-81.1,702.9-81.1Z" style="fill:#231f20;opacity:0.5"/></g><path d="M702.9-81.1c-154.8,0-280.2,125.4-280.2,280.2S548.1,479.2,702.9,479.2,983,353.8,983,199.1,857.6-81.1,702.9-81.1ZM840.2,357.7c-12.6,21.8-43.5,39.6-68.7,39.6H634.2c-25.2,0-56.1-17.8-68.7-39.6l-68.7-119c-12.6-21.8-12.6-57.5,0-79.3l68.7-119C578.1,18.6,609,.8,634.2.8H771.5c25.2,0,56.1,17.8,68.7,39.6l68.7,119c12.6,21.8,12.6,57.5,0,79.3Z" style="fill:#fff"/></g></g></g></svg>