<svg xmlns="http://www.w3.org/2000/svg" xmlns:xlink="http://www.w3.org/1999/xlink" viewBox="0 0 432.7 398.1"><defs><clipPath id="clip-path"><path d="M147.4,398.1c-25.3,0-56.3-17.9-69-39.8L9.5,238.9c-12.7-21.9-12.7-57.8,0-79.7L78.4,39.8C91.1,17.9,122.1,0,147.4,0H285.3c25.3,0,56.3,17.9,69,39.8l68.9,119.4c12.7,21.9,12.7,57.8,0,79.7L354.3,358.3c-12.7,21.9-43.7,39.8-69,39.8Z" style="fill:none"/></clipPath><clipPath id="clip-path-2"><path d="M628.5,398c-25.3,0-56.3-17.9-68.9-39.8L490.7,238.8c-12.7-21.8-12.7-57.6,0-79.5L559.6,39.9C572.2,18.1,603.2.2,628.5.2H766.3c25.2,0,56.2,17.9,68.9,39.7l68.9,119.4c12.6,21.9,12.6,57.7,0,79.5L835.2,358.2c-12.7,21.9-43.7,39.8-68.9,39.8Z" style="fill:none"/></clipPath></defs><g style="isolation:isolate"><g id="Layer_1" data-name="Layer 1"><g style="clip-path:url(#clip-path)"><circle cx="216.4" cy="199.1" r="259.6" transform="translate(-77.4 211.3) rotate(-45)" style="fill:#5cb75b"/><g style="mix-blend-mode:multiply"><path d="M183.8,461.3c-27.8,0-62-19.7-75.9-43.8L32.1,286.1c-13.9-24-13.9-63.5,0-87.6L107.9,67.2c13.9-24.1,48.1-43.8,75.9-43.8H335.5c27.8,0,61.9,19.7,75.8,43.8l75.9,131.3c13.9,24.1,13.9,63.6,0,87.6L411.3,417.5c-13.9,24.1-48,43.8-75.8,43.8Z" style="fill:#fff;opacity:0"/><path d="M184.6,459c-27.5,0-61.3-19.5-75.1-43.3l-75-130c-13.8-23.9-13.8-62.9,0-86.7l75-130c13.8-23.8,47.6-43.3,75.1-43.3H334.7c27.5,0,61.3,19.5,75,43.3l75.1,130c13.7,23.8,13.7,62.8,0,86.7l-75.1,130c-13.7,23.8-47.5,43.3-75,43.3Z" style="fill:#fbfbfb;opacity:0.009803921915590525"/><path d="M185.4,456.6c-27.2,0-60.6-19.3-74.2-42.8L36.9,285.2c-13.6-23.6-13.6-62.1,0-85.7L111.2,70.9c13.6-23.6,47-42.9,74.2-42.9H333.9c27.2,0,60.6,19.3,74.2,42.9l74.2,128.6c13.6,23.6,13.6,62.1,0,85.7L408.1,413.8c-13.6,23.5-47,42.8-74.2,42.8Z" style="fill:#f6f6f6;opacity:0.01960784347005621"/><path d="M186.2,454.3c-26.9,0-59.9-19.1-73.4-42.4L39.4,284.7c-13.5-23.3-13.5-61.4,0-84.8L112.8,72.8c13.5-23.3,46.5-42.4,73.4-42.4H333.1c26.9,0,59.9,19.1,73.4,42.4l73.4,127.1c13.5,23.4,13.5,61.5,0,84.8L406.5,411.9c-13.5,23.3-46.5,42.4-73.4,42.4Z" style="fill:#f2f2f2;opacity:0.02941176502452189"/><path d="M187,451.9c-26.6,0-59.3-18.8-72.6-41.9L41.8,284.3c-13.3-23.1-13.3-60.8,0-83.9L114.4,74.7c13.3-23.1,46-42,72.6-42H332.2c26.7,0,59.3,18.9,72.6,42l72.7,125.7c13.3,23.1,13.3,60.8,0,83.9L404.8,410c-13.3,23.1-45.9,41.9-72.6,41.9Z" style="fill:#eeedee;opacity:0.03921568657898757"/><path d="M187.8,449.6c-26.3,0-58.6-18.6-71.8-41.4L44.2,283.8c-13.1-22.8-13.1-60.1,0-82.9L116,76.5c13.2-22.8,45.5-41.4,71.8-41.4H331.4c26.4,0,58.7,18.6,71.8,41.4L475,200.9c13.2,22.8,13.2,60.1,0,82.9L403.2,408.2c-13.1,22.8-45.4,41.4-71.8,41.4Z" style="fill:#e9e9e9;opacity:0.049019608133453255"/><path d="M188.6,447.3c-26,0-57.9-18.5-70.9-41l-71-123c-13-22.5-13-59.4,0-81.9l71-123c13-22.5,44.9-41,70.9-41h142c26,0,58,18.5,71,41l71,123c13,22.5,13,59.4,0,81.9l-71,123c-13,22.5-45,41-71,41Z" style="fill:#e5e5e5;opacity:0.058823529687918936"/><path d="M189.5,444.9c-25.8,0-57.4-18.2-70.2-40.5L49.1,282.9c-12.9-22.3-12.9-58.8,0-81.1L119.3,80.3c12.8-22.3,44.4-40.5,70.2-40.5H329.8c25.7,0,57.3,18.2,70.2,40.5l70.2,121.5c12.8,22.3,12.8,58.8,0,81.1L400,404.4c-12.9,22.3-44.5,40.5-70.2,40.5Z" style="fill:#e1e0e0;opacity:0.06862745124238462"/><path d="M190.3,442.6c-25.5,0-56.7-18-69.4-40.1L51.5,282.4c-12.7-22-12.7-58.1,0-80.1L120.9,82.2c12.7-22.1,43.9-40.1,69.4-40.1H329c25.4,0,56.7,18,69.4,40.1l69.3,120.1c12.7,22,12.7,58.1,0,80.1L398.4,402.5c-12.7,22.1-44,40.1-69.4,40.1Z" style="fill:#dcdcdc;opacity:0.07843137279685031"/><path d="M191.1,440.2c-25.2,0-56-17.8-68.6-39.5L54,281.9c-12.6-21.7-12.6-57.4,0-79.1L122.5,84c12.6-21.7,43.4-39.6,68.6-39.6H328.2c25.1,0,56,17.9,68.5,39.6l68.6,118.8c12.6,21.7,12.6,57.4,0,79.1L396.7,400.7c-12.5,21.7-43.4,39.5-68.5,39.5Z" style="fill:#d8d7d8;opacity:0.088235294351316"/><path d="M191.9,437.9c-24.8,0-55.3-17.6-67.8-39.1L56.4,281.4c-12.4-21.5-12.4-56.7,0-78.2L124.1,85.9c12.5-21.5,43-39.1,67.8-39.1H327.4c24.8,0,55.3,17.6,67.7,39.1l67.8,117.3c12.4,21.5,12.4,56.7,0,78.2L395.1,398.8c-12.4,21.5-42.9,39.1-67.7,39.1Z" style="fill:#d4d3d3;opacity:0.09803921590578168"/><path d="M192.7,435.6c-24.5,0-54.7-17.4-66.9-38.7L58.8,281c-12.2-21.3-12.2-56,0-77.3l67-115.9c12.2-21.3,42.4-38.7,66.9-38.7H326.6c24.5,0,54.6,17.4,66.9,38.7l66.9,115.9c12.3,21.3,12.3,56,0,77.3L393.5,396.9c-12.3,21.3-42.4,38.7-66.9,38.7Z" style="fill:#d0cfcf;opacity:0.10784313746024737"/><path d="M193.5,433.2c-24.2,0-54-17.2-66.1-38.2L61.3,280.5c-12.1-21-12.1-55.3,0-76.3L127.4,89.6c12.1-21,41.9-38.1,66.1-38.1H325.8c24.2,0,54,17.1,66.1,38.1L458,204.2c12.1,21,12.1,55.3,0,76.3L391.9,395c-12.1,21-41.9,38.2-66.1,38.2Z" style="fill:#cbcacb;opacity:0.11764705901471306"/><path d="M194.3,430.9c-23.9,0-53.3-17-65.3-37.7L63.7,280c-12-20.7-12-54.6,0-75.4L129,91.5c12-20.7,41.4-37.7,65.3-37.7H324.9c24,0,53.4,17,65.3,37.7l65.4,113.1c11.9,20.8,11.9,54.7,0,75.4L390.2,393.2c-11.9,20.7-41.3,37.7-65.3,37.7Z" style="fill:#c7c6c6;opacity:0.12745098056917875"/><path d="M195.1,428.5c-23.6,0-52.6-16.7-64.5-37.2L66.1,279.6c-11.8-20.5-11.8-54,0-74.5L130.6,93.4c11.9-20.5,40.9-37.2,64.5-37.2h129c23.7,0,52.7,16.7,64.5,37.2l64.5,111.7c11.8,20.5,11.8,54,0,74.5L388.6,391.3c-11.8,20.5-40.8,37.2-64.5,37.2Z" style="fill:#c3c2c2;opacity:0.13725490212364444"/><path d="M195.9,426.2c-23.3,0-52-16.6-63.6-36.8L68.6,279.1c-11.7-20.2-11.7-53.3,0-73.5L132.3,95.3c11.6-20.3,40.3-36.8,63.6-36.8H323.3c23.4,0,52,16.5,63.7,36.8l63.7,110.3c11.7,20.2,11.7,53.3,0,73.5L387,389.4c-11.7,20.2-40.3,36.8-63.7,36.8Z" style="fill:#bebdbd;opacity:0.14705882367811013"/><path d="M196.8,423.8c-23.1,0-51.4-16.3-62.9-36.3L71,278.6C59.5,258.7,59.5,226,71,206L133.9,97.1c11.5-19.9,39.8-36.3,62.9-36.3H322.5c23.1,0,51.4,16.4,62.9,36.3L448.3,206c11.5,20,11.5,52.7,0,72.6L385.4,387.5c-11.5,20-39.8,36.3-62.9,36.3Z" style="fill:#bab9b9;opacity:0.15686274523257582"/><path d="M197.6,421.5c-22.8,0-50.7-16.1-62.1-35.8L73.4,278.2c-11.3-19.7-11.3-52,0-71.7L135.5,99c11.4-19.7,39.3-35.8,62.1-35.8H321.7c22.7,0,50.7,16.1,62.1,35.8l62,107.5c11.4,19.7,11.4,52,0,71.7l-62,107.5c-11.4,19.7-39.4,35.8-62.1,35.8Z" style="fill:#b6b4b5;opacity:0.1666666667870415"/><path d="M198.4,419.2c-22.5,0-50-16-61.3-35.4L75.9,277.7c-11.3-19.4-11.3-51.3,0-70.7l61.2-106.1c11.3-19.5,38.8-35.4,61.3-35.4H320.9c22.4,0,50,15.9,61.2,35.4L443.4,207c11.2,19.4,11.2,51.3,0,70.7L382.1,383.8c-11.2,19.4-38.8,35.4-61.2,35.4Z" style="fill:#b1b0b0;opacity:0.1764705883415072"/><path d="M199.2,416.8c-22.2,0-49.4-15.7-60.5-34.9L78.3,277.2c-11.1-19.2-11.1-50.6,0-69.8l60.4-104.6c11.1-19.2,38.3-34.9,60.5-34.9H320.1c22.1,0,49.3,15.7,60.4,34.9L441,207.4c11,19.2,11,50.6,0,69.8L380.5,381.9c-11.1,19.2-38.3,34.9-60.4,34.9Z" style="fill:#adacac;opacity:0.18627450989597288"/><path d="M200,414.5c-21.9,0-48.7-15.5-59.6-34.4L80.7,276.8c-10.9-19-10.9-49.9,0-68.9l59.7-103.3c10.9-18.9,37.7-34.4,59.6-34.4H319.3c21.8,0,48.7,15.5,59.6,34.4l59.6,103.3c11,19,11,49.9,0,68.9L378.9,380.1c-10.9,18.9-37.8,34.4-59.6,34.4Z" style="fill:#a9a7a8;opacity:0.19607843145043857"/><path d="M200.8,412.1c-21.5,0-48-15.2-58.8-33.9L83.2,276.3c-10.8-18.7-10.8-49.2,0-67.9L142,106.5c10.8-18.7,37.3-34,58.8-34H318.5c21.5,0,48,15.3,58.8,34l58.8,101.9c10.8,18.7,10.8,49.2,0,67.9L377.3,378.2c-10.8,18.7-37.3,33.9-58.8,33.9Z" style="fill:#a4a3a3;opacity:0.20588235300490426"/><path d="M201.6,409.8c-21.2,0-47.3-15.1-58-33.5l-58-100.5c-10.6-18.4-10.6-48.5,0-67l58-100.4c10.7-18.4,36.8-33.5,58-33.5h116c21.3,0,47.4,15.1,58,33.5l58.1,100.4c10.6,18.5,10.6,48.6,0,67L375.6,376.3c-10.6,18.4-36.7,33.5-58,33.5Z" style="fill:#a09e9f;opacity:0.21568627455936995"/><path d="M202.4,407.4c-20.9,0-46.7-14.8-57.2-33L88,275.4c-10.4-18.2-10.4-47.9,0-66.1l57.2-99c10.5-18.2,36.3-33.1,57.2-33.1H316.8c21,0,46.7,14.9,57.2,33.1l57.2,99c10.5,18.2,10.5,47.9,0,66.1l-57.2,99c-10.5,18.2-36.2,33-57.2,33Z" style="fill:#9c9a9a;opacity:0.22549019611383564"/><path d="M203.2,405.1c-20.6,0-46-14.6-56.3-32.5L90.5,274.9c-10.4-17.9-10.4-47.2,0-65.1l56.4-97.7c10.3-17.9,35.7-32.5,56.3-32.5H316c20.7,0,46.1,14.6,56.4,32.5l56.4,97.7c10.3,17.9,10.3,47.2,0,65.1l-56.4,97.7c-10.3,17.9-35.7,32.5-56.4,32.5Z" style="fill:#979696;opacity:0.23529411766830133"/><path d="M204.1,402.8c-20.4,0-45.4-14.5-55.6-32.1L92.9,274.4c-10.2-17.6-10.2-46.5,0-64.1L148.5,114c10.2-17.7,35.2-32.1,55.6-32.1H315.2c20.4,0,45.4,14.4,55.6,32.1l55.6,96.3c10.1,17.6,10.1,46.5,0,64.1l-55.6,96.3c-10.2,17.6-35.2,32.1-55.6,32.1Z" style="fill:#939192;opacity:0.24509803922276702"/><path d="M204.9,400.4c-20.1,0-44.8-14.2-54.8-31.6L95.3,274c-10-17.4-10-45.9,0-63.3l54.8-94.8c10-17.4,34.7-31.6,54.8-31.6H314.4c20.1,0,44.7,14.2,54.8,31.6l54.7,94.8c10.1,17.4,10.1,45.9,0,63.3l-54.7,94.8c-10.1,17.4-34.7,31.6-54.8,31.6Z" style="fill:#8f8d8d;opacity:0.2549019607772327"/><path d="M205.7,398.1c-19.8,0-44.1-14-54-31.2L97.8,273.5c-9.9-17.1-9.9-45.2,0-62.3l53.9-93.5c9.9-17.1,34.2-31.1,54-31.1H313.6c19.8,0,44,14,53.9,31.1l54,93.5c9.9,17.1,9.9,45.2,0,62.3l-54,93.4c-9.9,17.2-34.1,31.2-53.9,31.2Z" style="fill:#8b8889;opacity:0.2647058823316984"/><path d="M206.5,395.7c-19.5,0-43.4-13.8-53.1-30.6L100.2,273c-9.7-16.9-9.7-44.5,0-61.3l53.2-92.1c9.7-16.9,33.6-30.7,53.1-30.7H312.8c19.5,0,43.4,13.8,53.1,30.7l53.2,92.1c9.7,16.8,9.7,44.4,0,61.3l-53.2,92.1c-9.7,16.8-33.6,30.6-53.1,30.6Z" style="fill:#868485;opacity:0.2745098038861641"/><path d="M207.3,393.4c-19.2,0-42.7-13.6-52.3-30.2l-52.4-90.6c-9.5-16.7-9.5-43.9,0-60.5L155,121.5c9.6-16.6,33.1-30.2,52.3-30.2H312c19.1,0,42.7,13.6,52.3,30.2l52.3,90.6c9.6,16.6,9.6,43.8,0,60.5l-52.3,90.6c-9.6,16.6-33.2,30.2-52.3,30.2Z" style="fill:#828080;opacity:0.28431372544062977"/><path d="M208.1,391.1c-18.9,0-42.1-13.4-51.5-29.8l-51.5-89.2c-9.5-16.4-9.5-43.1,0-59.5l51.5-89.2c9.4-16.4,32.6-29.8,51.5-29.8h103c18.9,0,42.1,13.4,51.6,29.8l51.5,89.2c9.4,16.4,9.4,43.1,0,59.5l-51.5,89.2c-9.5,16.4-32.7,29.8-51.6,29.8Z" style="fill:#7e7b7c;opacity:0.29411764699509546"/><path d="M208.9,388.7c-18.6,0-41.4-13.2-50.7-29.3l-50.7-87.8c-9.3-16.1-9.3-42.4,0-58.5l50.7-87.9c9.3-16.1,32.1-29.2,50.7-29.2H310.3c18.6,0,41.4,13.1,50.7,29.2l50.8,87.9c9.2,16.1,9.2,42.4,0,58.5L361,359.4c-9.3,16.1-32.1,29.3-50.7,29.3Z" style="fill:#797777;opacity:0.30392156854956115"/><path d="M209.7,386.4c-18.3,0-40.7-13-49.9-28.8L110,271.1c-9.2-15.8-9.2-41.7,0-57.6l49.8-86.4c9.2-15.8,31.6-28.8,49.9-28.8h99.8c18.3,0,40.8,13,49.9,28.8l49.9,86.4c9.2,15.9,9.2,41.8,0,57.6l-49.9,86.5c-9.1,15.8-31.6,28.8-49.9,28.8Z" style="fill:#757273;opacity:0.31372549010402684"/><path d="M210.5,384c-17.9,0-40-12.7-49-28.3l-49.1-85c-9-15.6-9-41.1,0-56.7l49.1-85c9-15.6,31.1-28.4,49-28.4h98.2c18,0,40.1,12.8,49.1,28.4l49.1,85c9,15.6,9,41.1,0,56.7l-49.1,85c-9,15.6-31.1,28.3-49.1,28.3Z" style="fill:#716e6f;opacity:0.3235294116584925"/><path d="M211.4,381.7c-17.7,0-39.5-12.6-48.3-27.9l-48.3-83.6c-8.8-15.3-8.8-40.4,0-55.7l48.3-83.6c8.8-15.4,30.6-27.9,48.3-27.9h96.5c17.7,0,39.4,12.5,48.3,27.9l48.2,83.6c8.9,15.3,8.9,40.4,0,55.7l-48.2,83.6c-8.9,15.3-30.6,27.9-48.3,27.9Z" style="fill:#6c6a6a;opacity:0.3333333332129582"/><path d="M212.2,379.3c-17.4,0-38.8-12.3-47.5-27.4l-47.4-82.2c-8.7-15-8.7-39.7,0-54.8l47.4-82.2c8.7-15,30.1-27.4,47.5-27.4h94.9c17.4,0,38.8,12.4,47.4,27.4L402,214.9c8.7,15.1,8.7,39.8,0,54.8l-47.5,82.2c-8.6,15.1-30,27.4-47.4,27.4Z" style="fill:#686566;opacity:0.3431372547674239"/><path d="M213,377c-17.1,0-38.1-12.1-46.7-26.9l-46.6-80.8c-8.6-14.8-8.6-39.1,0-53.9l46.6-80.8c8.6-14.8,29.6-26.9,46.7-26.9h93.3c17.1,0,38.1,12.1,46.6,26.9l46.7,80.8c8.5,14.8,8.5,39.1,0,53.9l-46.7,80.8c-8.5,14.8-29.5,26.9-46.6,26.9Z" style="fill:#646162;opacity:0.3529411763218896"/><path d="M213.8,374.7c-16.8,0-37.4-11.9-45.8-26.5l-45.9-79.4c-8.4-14.5-8.4-38.4,0-52.9L168,136.5c8.4-14.6,29-26.5,45.8-26.5h91.7c16.8,0,37.4,11.9,45.8,26.5l45.8,79.4c8.4,14.5,8.4,38.4,0,52.9l-45.8,79.4c-8.4,14.6-29,26.5-45.8,26.5Z" style="fill:#5f5c5d;opacity:0.3627450978763553"/><path d="M214.6,372.3c-16.5,0-36.8-11.7-45-26l-45-78c-8.3-14.3-8.3-37.7,0-52l45-77.9c8.2-14.3,28.5-26,45-26h90.1c16.5,0,36.7,11.7,45,26l45,77.9c8.3,14.3,8.3,37.7,0,52l-45,78c-8.3,14.3-28.5,26-45,26Z" style="fill:#5b5859;opacity:0.37254901943082097"/><path d="M215.4,370c-16.2,0-36.1-11.5-44.2-25.5L127,267.9c-8.1-14.1-8.1-37,0-51.1l44.2-76.6c8.1-14,28-25.5,44.2-25.5h88.4c16.3,0,36.2,11.5,44.3,25.5l44.2,76.6c8.1,14.1,8.1,37,0,51.1l-44.2,76.6c-8.1,14-28,25.5-44.3,25.5Z" style="fill:#575454;opacity:0.38235294098528666"/><path d="M216.2,367.6c-15.9,0-35.4-11.2-43.4-25l-43.4-75.2c-7.9-13.8-7.9-36.3,0-50.1l43.4-75.2c8-13.8,27.5-25.1,43.4-25.1H303c15.9,0,35.5,11.3,43.4,25.1l43.4,75.2c8,13.8,8,36.3,0,50.1l-43.4,75.2c-7.9,13.8-27.5,25-43.4,25Z" style="fill:#524f50;opacity:0.39215686253975235"/><path d="M217,365.3c-15.6,0-34.7-11.1-42.6-24.6l-42.5-73.8c-7.9-13.5-7.9-35.6,0-49.2L174.4,144c7.9-13.6,27-24.6,42.6-24.6h85.2c15.6,0,34.8,11,42.6,24.6l42.6,73.7c7.8,13.6,7.8,35.7,0,49.2l-42.6,73.8c-7.8,13.5-27,24.6-42.6,24.6Z" style="fill:#4e4b4c;opacity:0.40196078409421804"/><path d="M217.9,363c-15.4,0-34.2-10.9-41.8-24.2l-41.8-72.3c-7.7-13.3-7.7-35,0-48.3l41.8-72.3c7.6-13.3,26.4-24.2,41.8-24.2h83.5c15.3,0,34.1,10.9,41.8,24.2L385,218.2c7.6,13.3,7.6,35,0,48.3l-41.8,72.3c-7.7,13.3-26.5,24.2-41.8,24.2Z" style="fill:#4a4747;opacity:0.4117647056486837"/><path d="M218.7,360.6c-15.1,0-33.5-10.6-41-23.6l-41-71c-7.5-13-7.5-34.3,0-47.3l41-71c7.5-13,25.9-23.6,41-23.6h81.9c15,0,33.5,10.6,41,23.6l40.9,71c7.6,13,7.6,34.3,0,47.3l-40.9,71c-7.5,13-26,23.6-41,23.6Z" style="fill:#464243;opacity:0.4215686272031494"/><path d="M219.5,358.3c-14.8,0-32.8-10.5-40.2-23.2l-40.1-69.6c-7.4-12.7-7.4-33.6,0-46.3l40.1-69.6c7.4-12.8,25.4-23.2,40.2-23.2h80.3c14.7,0,32.8,10.4,40.1,23.2l40.2,69.6c7.4,12.7,7.4,33.6,0,46.3l-40.2,69.6c-7.3,12.7-25.4,23.2-40.1,23.2Z" style="fill:#413e3f;opacity:0.4313725487576151"/><path d="M220.3,355.9c-14.4,0-32.2-10.2-39.4-22.7l-39.3-68.1c-7.2-12.5-7.2-33,0-45.5l39.3-68.1c7.2-12.5,25-22.8,39.4-22.8H299c14.4,0,32.1,10.3,39.3,22.8l39.4,68.1c7.2,12.5,7.2,33,0,45.5l-39.4,68.1c-7.2,12.5-24.9,22.7-39.3,22.7Z" style="fill:#3d393a;opacity:0.4411764703120808"/><path d="M221.1,353.6c-14.1,0-31.5-10-38.5-22.3L144,264.6c-7-12.2-7-32.3,0-44.5l38.6-66.8c7-12.2,24.4-22.2,38.5-22.2h77.1c14.1,0,31.4,10,38.5,22.2l38.5,66.8c7.1,12.2,7.1,32.3,0,44.5l-38.5,66.7c-7.1,12.3-24.4,22.3-38.5,22.3Z" style="fill:#393536;opacity:0.4509803918665465"/><path d="M221.9,351.2c-13.8,0-30.8-9.8-37.7-21.7l-37.7-65.4c-7-12-7-31.6,0-43.5l37.7-65.4c6.9-12,23.9-21.8,37.7-21.8h75.5c13.8,0,30.8,9.8,37.7,21.8l37.7,65.4c6.9,11.9,6.9,31.5,0,43.5l-37.7,65.4c-6.9,11.9-23.9,21.7-37.7,21.7Z" style="fill:#343131;opacity:0.46078431342101217"/><path d="M222.7,348.9c-13.5,0-30.1-9.6-36.9-21.3l-36.9-63.9c-6.8-11.8-6.8-30.9,0-42.7l36.9-63.9c6.8-11.7,23.4-21.3,36.9-21.3h73.8c13.6,0,30.2,9.6,37,21.3L370.4,221c6.7,11.8,6.7,30.9,0,42.7l-36.9,63.9c-6.8,11.7-23.4,21.3-37,21.3Z" style="fill:#302c2d;opacity:0.47058823497547786"/><path d="M223.5,346.6c-13.2,0-29.5-9.4-36.1-20.9l-36.1-62.5c-6.6-11.5-6.6-30.2,0-41.7L187.4,159c6.6-11.5,22.9-20.9,36.1-20.9h72.2c13.3,0,29.5,9.4,36.1,20.9l36.1,62.5c6.7,11.5,6.7,30.2,0,41.7l-36.1,62.5c-6.6,11.5-22.8,20.9-36.1,20.9Z" style="fill:#2c2829;opacity:0.48039215652994355"/><path d="M224.3,344.2c-12.9,0-28.8-9.2-35.3-20.4l-35.2-61.1c-6.5-11.2-6.5-29.5,0-40.7L189,160.8c6.5-11.2,22.4-20.3,35.3-20.3h70.6c13,0,28.8,9.1,35.3,20.3L365.5,222c6.5,11.2,6.5,29.5,0,40.7l-35.3,61.1c-6.5,11.2-22.3,20.4-35.3,20.4Z" style="fill:#272324;opacity:0.49019607808440924"/><path d="M225.2,341.9c-12.7,0-28.2-9-34.5-19.9l-34.5-59.8c-6.3-10.9-6.3-28.8,0-39.8l34.5-59.7c6.3-10.9,21.8-19.9,34.5-19.9h68.9c12.7,0,28.2,9,34.5,19.9l34.5,59.7c6.3,11,6.3,28.9,0,39.8L328.6,322c-6.3,10.9-21.8,19.9-34.5,19.9Z" style="fill:#231f20;opacity:0.5"/></g><path d="M161.2,358.3c-20.2,0-45.1-14.3-55.2-31.8L50.9,230.9c-10.2-17.5-10.2-46.2,0-63.7L106,71.7c10.1-17.6,35-31.9,55.2-31.9H271.5c20.2,0,45.1,14.3,55.2,31.9l55.2,95.5c10.1,17.5,10.1,46.2,0,63.7l-55.2,95.6c-10.1,17.5-35,31.8-55.2,31.8Z" style="fill:#c9e3e2"/><g style="mix-blend-mode:multiply"><path d="M397.5,401.6c-12.6,21.9-43.6,39.8-68.9,39.8H190.7c-25.3,0-56.3-17.9-69-39.8L52.8,282.2c-12.7-21.9-12.7-57.8,0-79.7L121.7,83.1c12.7-21.9,43.7-39.8,69-39.8H328.6c25.3,0,56.3,17.9,68.9,39.8l69,119.4c12.7,21.9,12.7,57.8,0,79.7ZM259.6-38.9C104.3-38.9-21.6,87-21.6,242.3S104.3,523.6,259.6,523.6,540.9,397.7,540.9,242.3,415-38.9,259.6-38.9Z" style="fill:#fff;opacity:0"/><path d="M396.7,400.7c-12.6,21.9-43.7,39.9-69,39.9H189.8c-25.3,0-56.3-18-68.9-39.9l-69-119.4c-12.6-21.9-12.6-57.7,0-79.6l69-119.5c12.6-21.9,43.6-39.8,68.9-39.8H327.7c25.3,0,56.4,17.9,69,39.8l69,119.5c12.6,21.9,12.6,57.7,0,79.6ZM258.8-39.8c-155.4,0-281.3,126-281.3,281.3S103.4,522.8,258.8,522.8s281.3-126,281.3-281.3S414.1-39.8,258.8-39.8Z" style="fill:#fbfbfb;opacity:0.009803921915590525"/><path d="M395.9,399.9c-12.7,21.9-43.7,39.8-69,39.8H189c-25.3,0-56.3-17.9-69-39.8L51.1,280.5c-12.7-21.9-12.7-57.8,0-79.7L120,81.4c12.7-21.9,43.7-39.8,69-39.8H326.9c25.3,0,56.3,17.9,69,39.8l68.9,119.4c12.7,21.9,12.7,57.8,0,79.7ZM257.9-40.6C102.6-40.6-23.3,85.3-23.3,240.6S102.6,521.9,257.9,521.9,539.2,396,539.2,240.6,413.3-40.6,257.9-40.6Z" style="fill:#f6f6f6;opacity:0.01960784347005621"/><path d="M395,399.1c-12.6,21.8-43.7,39.8-69,39.8H188.1c-25.3,0-56.3-18-68.9-39.8l-69-119.5c-12.6-21.9-12.6-57.7,0-79.6l69-119.5c12.6-21.9,43.6-39.8,68.9-39.8H326c25.3,0,56.4,17.9,69,39.8L464,200c12.6,21.9,12.6,57.7,0,79.6ZM257.1-41.5c-155.3,0-281.3,126-281.3,281.3s126,281.3,281.3,281.3,281.3-126,281.3-281.3S412.4-41.5,257.1-41.5Z" style="fill:#f2f2f2;opacity:0.02941176502452189"/><path d="M394.2,398.2c-12.7,21.9-43.7,39.8-69,39.8H187.3c-25.3,0-56.3-17.9-69-39.8L49.4,278.8c-12.7-21.9-12.7-57.8,0-79.7L118.3,79.7c12.7-21.9,43.7-39.8,69-39.8H325.2c25.3,0,56.3,17.9,69,39.8l68.9,119.4c12.7,21.9,12.7,57.8,0,79.7ZM256.2-42.3C100.9-42.3-25,83.6-25,239S100.9,520.2,256.2,520.2,537.5,394.3,537.5,239,411.6-42.3,256.2-42.3Z" style="fill:#eeedee;opacity:0.03921568657898757"/><path d="M393.3,397.4c-12.6,21.9-43.7,39.8-69,39.8H186.4c-25.3,0-56.3-17.9-68.9-39.8l-69-119.5c-12.6-21.9-12.6-57.7,0-79.6l69-119.5C130.1,56.9,161.1,39,186.4,39H324.3c25.3,0,56.4,17.9,69,39.8l69,119.5c12.6,21.9,12.6,57.7,0,79.6ZM255.4-43.2c-155.3,0-281.3,126-281.3,281.3s126,281.3,281.3,281.3,281.3-126,281.3-281.3S410.7-43.2,255.4-43.2Z" style="fill:#e9e9e9;opacity:0.049019608133453255"/><path d="M392.5,396.5c-12.7,21.9-43.7,39.8-69,39.8H185.6c-25.3,0-56.3-17.9-69-39.8L47.7,277.1c-12.7-21.9-12.7-57.8,0-79.7L116.6,78c12.7-21.9,43.7-39.8,69-39.8H323.5c25.3,0,56.3,17.9,69,39.8l68.9,119.4c12.7,21.9,12.7,57.8,0,79.7ZM254.5-44C99.2-44-26.7,81.9-26.7,237.3S99.2,518.5,254.5,518.5,535.8,392.6,535.8,237.3,409.9-44,254.5-44Z" style="fill:#e5e5e5;opacity:0.058823529687918936"/><path d="M391.6,395.7c-12.6,21.9-43.7,39.8-68.9,39.8h-138c-25.2,0-56.3-17.9-68.9-39.8l-69-119.5c-12.6-21.9-12.6-57.7,0-79.6l69-119.5c12.6-21.8,43.7-39.8,68.9-39.8h138c25.2,0,56.3,18,68.9,39.8l69,119.5c12.6,21.9,12.6,57.7,0,79.6ZM253.7-44.9C98.4-44.9-27.6,81.1-27.6,236.4s126,281.3,281.3,281.3S535,391.7,535,236.4,409-44.9,253.7-44.9Z" style="fill:#e1e0e0;opacity:0.06862745124238462"/><path d="M390.8,394.8c-12.7,21.9-43.7,39.8-69,39.8H183.9c-25.3,0-56.3-17.9-69-39.8L46,275.4c-12.7-21.9-12.7-57.8,0-79.7L114.9,76.3c12.7-21.9,43.7-39.8,69-39.8H321.8c25.3,0,56.3,17.9,69,39.8l68.9,119.4c12.7,21.9,12.7,57.8,0,79.7ZM252.8-45.7C97.5-45.7-28.4,80.2-28.4,235.6S97.5,516.8,252.8,516.8,534.1,390.9,534.1,235.6,408.2-45.7,252.8-45.7Z" style="fill:#dcdcdc;opacity:0.07843137279685031"/><path d="M389.9,394c-12.6,21.9-43.7,39.8-68.9,39.8H183c-25.2,0-56.3-17.9-68.9-39.8l-69-119.5c-12.6-21.9-12.6-57.7,0-79.6l69-119.4c12.6-21.9,43.7-39.9,68.9-39.9H321c25.2,0,56.3,18,68.9,39.9l69,119.4c12.6,21.9,12.6,57.7,0,79.6ZM252-46.6C96.7-46.6-29.3,79.4-29.3,234.7S96.7,516,252,516,533.3,390,533.3,234.7,407.3-46.6,252-46.6Z" style="fill:#d8d7d8;opacity:0.088235294351316"/><path d="M389.1,393.1c-12.7,21.9-43.7,39.8-69,39.8H182.2c-25.3,0-56.3-17.9-69-39.8L44.3,273.7c-12.7-21.9-12.7-57.8,0-79.7L113.2,74.6c12.7-21.9,43.7-39.8,69-39.8H320.1c25.3,0,56.3,17.9,69,39.8L458,194c12.7,21.9,12.7,57.8,0,79.7ZM251.1-47.4C95.8-47.4-30.1,78.5-30.1,233.9S95.8,515.1,251.1,515.1,532.4,389.2,532.4,233.9,406.5-47.4,251.1-47.4Z" style="fill:#d4d3d3;opacity:0.09803921590578168"/><path d="M388.2,392.3c-12.6,21.9-43.7,39.8-68.9,39.8h-138c-25.2,0-56.3-17.9-68.9-39.8l-69-119.5c-12.6-21.9-12.6-57.7,0-79.6l69-119.4c12.6-21.9,43.7-39.9,68.9-39.9h138c25.2,0,56.3,18,68.9,39.9l69,119.4c12.6,21.9,12.6,57.7,0,79.6ZM250.3-48.3C95-48.3-31,77.7-31,233S95,514.3,250.3,514.3,531.6,388.4,531.6,233,405.6-48.3,250.3-48.3Z" style="fill:#d0cfcf;opacity:0.10784313746024737"/><path d="M387.4,391.4c-12.7,21.9-43.7,39.8-69,39.8H180.5c-25.3,0-56.3-17.9-69-39.8L42.6,272c-12.7-21.9-12.7-57.8,0-79.7L111.5,72.9c12.7-21.9,43.7-39.8,69-39.8H318.4c25.3,0,56.3,17.9,69,39.8l68.9,119.4c12.7,21.9,12.7,57.8,0,79.7ZM249.5-49.1C94.1-49.1-31.8,76.8-31.8,232.2S94.1,513.4,249.5,513.4,530.7,387.5,530.7,232.2,404.8-49.1,249.5-49.1Z" style="fill:#cbcacb;opacity:0.11764705901471306"/><path d="M386.5,390.6c-12.6,21.9-43.7,39.8-68.9,39.8h-138c-25.2,0-56.3-17.9-68.9-39.8l-69-119.5c-12.6-21.9-12.6-57.7,0-79.6l69-119.4c12.6-21.9,43.7-39.9,68.9-39.9h138c25.2,0,56.3,18,68.9,39.9l69,119.4c12.6,21.9,12.6,57.7,0,79.6ZM248.6-50C93.3-50-32.7,76-32.7,231.3s126,281.3,281.3,281.3S529.9,386.7,529.9,231.3,403.9-50,248.6-50Z" style="fill:#c7c6c6;opacity:0.12745098056917875"/><path d="M385.7,389.7c-12.7,21.9-43.7,39.8-69,39.8H178.8c-25.3,0-56.3-17.9-69-39.8L40.9,270.3c-12.7-21.9-12.7-57.8,0-79.7L109.8,71.2c12.7-21.9,43.7-39.8,69-39.8H316.7c25.3,0,56.3,17.9,69,39.8l68.9,119.4c12.7,21.9,12.7,57.8,0,79.7ZM247.8-50.8C92.4-50.8-33.5,75.1-33.5,230.5S92.4,511.7,247.8,511.7,529,385.8,529,230.5,403.1-50.8,247.8-50.8Z" style="fill:#c3c2c2;opacity:0.13725490212364444"/><path d="M384.8,388.9c-12.6,21.9-43.6,39.8-68.9,39.8h-138c-25.2,0-56.3-17.9-68.9-39.8L40,269.4c-12.6-21.9-12.6-57.7,0-79.6L109,70.4c12.6-21.9,43.7-39.9,68.9-39.9h138c25.3,0,56.3,18,68.9,39.9l69,119.4c12.6,21.9,12.6,57.7,0,79.6ZM246.9-51.7C91.6-51.7-34.4,74.3-34.4,229.6s126,281.3,281.3,281.3S528.2,385,528.2,229.6,402.3-51.7,246.9-51.7Z" style="fill:#bebdbd;opacity:0.14705882367811013"/><path d="M384,388c-12.7,21.9-43.7,39.8-69,39.8H177.1c-25.3,0-56.3-17.9-69-39.8L39.2,268.6c-12.7-21.9-12.7-57.8,0-79.7L108.1,69.5c12.7-21.9,43.7-39.8,69-39.8H315c25.3,0,56.3,17.9,69,39.8l68.9,119.4c12.7,21.9,12.7,57.8,0,79.7ZM246.1-52.5C90.7-52.5-35.2,73.4-35.2,228.8S90.7,510,246.1,510,527.3,384.1,527.3,228.8,401.4-52.5,246.1-52.5Z" style="fill:#bab9b9;opacity:0.15686274523257582"/><path d="M383.1,387.2c-12.6,21.9-43.6,39.8-68.9,39.8h-138c-25.2,0-56.3-17.9-68.9-39.8l-69-119.5c-12.6-21.9-12.6-57.7,0-79.6l69-119.4c12.6-21.9,43.7-39.9,68.9-39.9h138c25.3,0,56.3,18,68.9,39.9l69,119.4c12.6,21.9,12.6,57.7,0,79.6ZM245.2-53.4C89.9-53.4-36.1,72.6-36.1,227.9s126,281.3,281.3,281.3S526.5,383.3,526.5,227.9,400.6-53.4,245.2-53.4Z" style="fill:#b6b4b5;opacity:0.1666666667870415"/><path d="M382.3,386.3c-12.7,21.9-43.7,39.8-69,39.8H175.4c-25.3,0-56.3-17.9-69-39.8L37.5,266.9c-12.7-21.9-12.7-57.7,0-79.6L106.4,67.8c12.7-21.9,43.7-39.8,69-39.8H313.3c25.3,0,56.3,17.9,69,39.8l68.9,119.5c12.7,21.9,12.7,57.7,0,79.6ZM244.4-54.2C89-54.2-36.9,71.7-36.9,227.1S89,508.3,244.4,508.3,525.6,382.4,525.6,227.1,399.7-54.2,244.4-54.2Z" style="fill:#b1b0b0;opacity:0.1764705883415072"/><path d="M381.4,385.5c-12.6,21.9-43.6,39.8-68.9,39.8h-138c-25.2,0-56.3-17.9-68.9-39.8L36.6,266c-12.6-21.9-12.6-57.7,0-79.6L105.6,67c12.6-21.9,43.7-39.8,68.9-39.8h138c25.3,0,56.3,17.9,68.9,39.8l69,119.4c12.6,21.9,12.6,57.7,0,79.6ZM243.5-55.1C88.2-55.1-37.8,70.9-37.8,226.2s126,281.3,281.3,281.3S524.8,381.6,524.8,226.2,398.9-55.1,243.5-55.1Z" style="fill:#adacac;opacity:0.18627450989597288"/><path d="M380.6,384.6c-12.7,21.9-43.7,39.8-69,39.8H173.7c-25.3,0-56.3-17.9-69-39.8L35.8,265.2c-12.7-21.9-12.7-57.7,0-79.6L104.7,66.1c12.7-21.9,43.7-39.8,69-39.8H311.6c25.3,0,56.3,17.9,69,39.8l68.9,119.5c12.7,21.9,12.7,57.7,0,79.6ZM242.7-55.9C87.3-55.9-38.6,70-38.6,225.4S87.3,506.6,242.7,506.6,523.9,380.7,523.9,225.4,398-55.9,242.7-55.9Z" style="fill:#a9a7a8;opacity:0.19607843145043857"/><path d="M379.7,383.8c-12.6,21.9-43.6,39.8-68.9,39.8H172.9c-25.3,0-56.4-17.9-69-39.8l-69-119.5c-12.6-21.9-12.6-57.7,0-79.6l69-119.4c12.6-21.9,43.7-39.8,69-39.8H310.8c25.3,0,56.3,17.9,68.9,39.8l69,119.4c12.6,21.9,12.6,57.7,0,79.6ZM241.8-56.7C86.5-56.7-39.5,69.2-39.5,224.5s126,281.3,281.3,281.3S523.1,379.9,523.1,224.5,397.2-56.7,241.8-56.7Z" style="fill:#a4a3a3;opacity:0.20588235300490426"/><path d="M378.9,382.9c-12.7,21.9-43.7,39.8-69,39.8H172c-25.3,0-56.3-17.9-69-39.8L34.1,263.5c-12.7-21.9-12.7-57.7,0-79.6L103,64.4c12.7-21.9,43.7-39.8,69-39.8H309.9c25.3,0,56.3,17.9,69,39.8l68.9,119.5c12.7,21.9,12.7,57.7,0,79.6ZM241-57.6C85.6-57.6-40.3,68.3-40.3,223.7S85.6,504.9,241,504.9,522.2,379,522.2,223.7,396.3-57.6,241-57.6Z" style="fill:#a09e9f;opacity:0.21568627455936995"/><path d="M378,382.1c-12.6,21.9-43.6,39.8-68.9,39.8H171.2c-25.3,0-56.4-17.9-69-39.8l-69-119.5c-12.6-21.9-12.6-57.7,0-79.6l69-119.4c12.6-21.9,43.7-39.8,69-39.8H309.1c25.3,0,56.3,17.9,68.9,39.8L447,183c12.6,21.9,12.6,57.7,0,79.6ZM240.1-58.4C84.8-58.4-41.1,67.5-41.1,222.8S84.8,504.1,240.1,504.1,521.4,378.2,521.4,222.8,395.5-58.4,240.1-58.4Z" style="fill:#9c9a9a;opacity:0.22549019611383564"/><path d="M377.2,381.2c-12.7,21.9-43.7,39.8-69,39.8H170.3c-25.3,0-56.3-17.9-69-39.8L32.4,261.8c-12.7-21.9-12.7-57.7,0-79.6L101.3,62.7c12.7-21.9,43.7-39.8,69-39.8H308.2c25.3,0,56.3,17.9,69,39.8l69,119.5c12.6,21.9,12.6,57.7,0,79.6ZM239.3-59.3C83.9-59.3-42,66.6-42,222S83.9,503.2,239.3,503.2,520.5,377.3,520.5,222,394.6-59.3,239.3-59.3Z" style="fill:#979696;opacity:0.23529411766830133"/><path d="M376.3,380.4c-12.6,21.9-43.6,39.8-68.9,39.8H169.5c-25.3,0-56.4-17.9-69-39.8l-69-119.5c-12.6-21.8-12.6-57.7,0-79.6l69-119.4c12.6-21.9,43.7-39.8,69-39.8H307.4c25.3,0,56.3,17.9,68.9,39.8l69,119.4c12.6,21.9,12.6,57.8,0,79.6ZM238.4-60.1C83.1-60.1-42.8,65.8-42.8,221.1S83.1,502.4,238.4,502.4,519.7,376.5,519.7,221.1,393.8-60.1,238.4-60.1Z" style="fill:#939192;opacity:0.24509803922276702"/><path d="M375.5,379.5c-12.6,21.9-43.7,39.9-69,39.9H168.6c-25.3,0-56.3-18-68.9-39.9l-69-119.4c-12.6-21.9-12.6-57.7,0-79.6L99.7,61c12.6-21.9,43.6-39.8,68.9-39.8H306.5c25.3,0,56.4,17.9,69,39.8l69,119.5c12.6,21.9,12.6,57.7,0,79.6ZM237.6-61C82.2-61-43.7,64.9-43.7,220.3S82.2,501.6,237.6,501.6s281.2-126,281.2-281.3S392.9-61,237.6-61Z" style="fill:#8f8d8d;opacity:0.2549019607772327"/><path d="M374.6,378.7c-12.6,21.9-43.6,39.8-68.9,39.8H167.8c-25.3,0-56.4-17.9-69-39.8l-69-119.4c-12.6-21.9-12.6-57.8,0-79.7l69-119.4c12.6-21.9,43.7-39.8,69-39.8H305.7c25.3,0,56.3,17.9,68.9,39.8l69,119.4c12.6,21.9,12.6,57.8,0,79.7ZM236.7-61.8C81.4-61.8-44.5,64.1-44.5,219.4S81.4,500.7,236.7,500.7,518,374.8,518,219.4,392.1-61.8,236.7-61.8Z" style="fill:#8b8889;opacity:0.2647058823316984"/><path d="M373.8,377.8c-12.6,21.9-43.7,39.9-69,39.9H166.9c-25.3,0-56.3-18-68.9-39.9L29,258.4c-12.6-21.9-12.6-57.7,0-79.6L98,59.3c12.6-21.9,43.6-39.8,68.9-39.8H304.8c25.3,0,56.4,17.9,69,39.8l69,119.5c12.6,21.9,12.6,57.7,0,79.6ZM235.9-62.7C80.5-62.7-45.4,63.2-45.4,218.6S80.5,499.9,235.9,499.9s281.2-126,281.2-281.3S391.2-62.7,235.9-62.7Z" style="fill:#868485;opacity:0.2745098038861641"/><path d="M372.9,377c-12.6,21.9-43.6,39.8-68.9,39.8H166.1c-25.3,0-56.3-17.9-69-39.8l-69-119.4c-12.6-21.9-12.6-57.8,0-79.7l69-119.4c12.7-21.9,43.7-39.8,69-39.8H304c25.3,0,56.3,17.9,68.9,39.8l69,119.4c12.7,21.9,12.7,57.8,0,79.7ZM235-63.5C79.7-63.5-46.2,62.4-46.2,217.7S79.7,499,235,499,516.3,373.1,516.3,217.7,390.4-63.5,235-63.5Z" style="fill:#828080;opacity:0.28431372544062977"/><path d="M372.1,376.1c-12.6,21.9-43.7,39.9-69,39.9H165.2c-25.3,0-56.3-18-68.9-39.9l-69-119.4c-12.6-21.9-12.6-57.7,0-79.6l69-119.5c12.6-21.9,43.6-39.8,68.9-39.8H303.1c25.3,0,56.4,17.9,69,39.8l69,119.5c12.6,21.9,12.6,57.7,0,79.6ZM234.2-64.4C78.8-64.4-47.1,61.5-47.1,216.9S78.8,498.2,234.2,498.2s281.2-126,281.2-281.3S389.5-64.4,234.2-64.4Z" style="fill:#7e7b7c;opacity:0.29411764699509546"/><path d="M371.2,375.3c-12.6,21.9-43.6,39.8-68.9,39.8H164.4c-25.3,0-56.3-17.9-69-39.8L26.5,255.9c-12.7-21.9-12.7-57.8,0-79.7L95.4,56.8c12.7-21.9,43.7-39.8,69-39.8H302.3c25.3,0,56.3,17.9,68.9,39.8l69,119.4c12.7,21.9,12.7,57.8,0,79.7ZM233.3-65.2C78-65.2-47.9,60.7-47.9,216S78,497.3,233.3,497.3,514.6,371.4,514.6,216,388.7-65.2,233.3-65.2Z" style="fill:#797777;opacity:0.30392156854956115"/><path d="M370.4,374.4c-12.6,21.9-43.7,39.9-69,39.9H163.5c-25.3,0-56.3-18-68.9-39.9L25.6,255c-12.6-21.9-12.6-57.7,0-79.6l69-119.5c12.6-21.9,43.6-39.8,68.9-39.8H301.4c25.3,0,56.4,17.9,69,39.8l69,119.5c12.6,21.9,12.6,57.7,0,79.6ZM232.5-66.1C77.1-66.1-48.8,59.8-48.8,215.2S77.1,496.5,232.5,496.5s281.3-126,281.3-281.3S387.8-66.1,232.5-66.1Z" style="fill:#757273;opacity:0.31372549010402684"/><path d="M369.5,373.6c-12.6,21.9-43.6,39.8-68.9,39.8H162.7c-25.3,0-56.3-17.9-69-39.8L24.8,254.2c-12.7-21.9-12.7-57.8,0-79.7L93.7,55.1c12.7-21.9,43.7-39.8,69-39.8H300.6c25.3,0,56.3,17.9,68.9,39.8l69,119.4c12.7,21.9,12.7,57.8,0,79.7ZM231.6-66.9C76.3-66.9-49.6,59-49.6,214.3S76.3,495.6,231.6,495.6,512.9,369.7,512.9,214.3,387-66.9,231.6-66.9Z" style="fill:#716e6f;opacity:0.3235294116584925"/><path d="M368.7,372.7c-12.6,21.9-43.7,39.9-69,39.9H161.8c-25.3,0-56.3-18-68.9-39.9l-69-119.4c-12.6-21.9-12.6-57.7,0-79.6l69-119.5c12.6-21.9,43.6-39.8,68.9-39.8H299.7c25.3,0,56.4,17.9,69,39.8l69,119.5c12.6,21.9,12.6,57.7,0,79.6ZM230.8-67.8C75.4-67.8-50.5,58.2-50.5,213.5S75.4,494.8,230.8,494.8s281.3-126,281.3-281.3S386.1-67.8,230.8-67.8Z" style="fill:#6c6a6a;opacity:0.3333333332129582"/><path d="M367.9,371.9c-12.7,21.9-43.7,39.8-69,39.8H161c-25.3,0-56.3-17.9-69-39.8L23.1,252.5c-12.7-21.9-12.7-57.8,0-79.7L92,53.4c12.7-21.9,43.7-39.8,69-39.8H298.9c25.3,0,56.3,17.9,69,39.8l68.9,119.4c12.7,21.9,12.7,57.8,0,79.7ZM229.9-68.6C74.6-68.6-51.3,57.3-51.3,212.6S74.6,493.9,229.9,493.9,511.2,368,511.2,212.6,385.3-68.6,229.9-68.6Z" style="fill:#686566;opacity:0.3431372547674239"/><path d="M367,371.1c-12.6,21.9-43.7,39.8-69,39.8H160.1c-25.3,0-56.3-17.9-68.9-39.8l-69-119.5c-12.6-21.9-12.6-57.7,0-79.6l69-119.5c12.6-21.9,43.6-39.8,68.9-39.8H298c25.3,0,56.4,17.9,69,39.8L436,172c12.6,21.9,12.6,57.7,0,79.6ZM229.1-69.5C73.7-69.5-52.2,56.5-52.2,211.8S73.7,493.1,229.1,493.1s281.3-126,281.3-281.3S384.4-69.5,229.1-69.5Z" style="fill:#646162;opacity:0.3529411763218896"/><path d="M366.2,370.2c-12.7,21.9-43.7,39.8-69,39.8H159.3c-25.3,0-56.3-17.9-69-39.8L21.4,250.8c-12.7-21.9-12.7-57.8,0-79.7L90.3,51.7c12.7-21.9,43.7-39.8,69-39.8H297.2c25.3,0,56.3,17.9,69,39.8l68.9,119.4c12.7,21.9,12.7,57.8,0,79.7ZM228.2-70.3C72.9-70.3-53,55.6-53,210.9S72.9,492.2,228.2,492.2,509.5,366.3,509.5,210.9,383.6-70.3,228.2-70.3Z" style="fill:#5f5c5d;opacity:0.3627450978763553"/><path d="M365.3,369.4c-12.6,21.9-43.7,39.8-68.9,39.8h-138c-25.3,0-56.3-17.9-68.9-39.8l-69-119.5c-12.6-21.9-12.6-57.7,0-79.6l69-119.5C102.1,28.9,133.1,11,158.4,11h138c25.2,0,56.3,17.9,68.9,39.8l69,119.5c12.6,21.9,12.6,57.7,0,79.6ZM227.4-71.2C72.1-71.2-53.9,54.8-53.9,210.1s126,281.3,281.3,281.3,281.3-126,281.3-281.3S382.7-71.2,227.4-71.2Z" style="fill:#5b5859;opacity:0.37254901943082097"/><path d="M364.5,368.5c-12.7,21.9-43.7,39.8-69,39.8H157.6c-25.3,0-56.3-17.9-69-39.8L19.7,249.1C7,227.2,7,191.3,19.7,169.4L88.6,50c12.7-21.9,43.7-39.8,69-39.8H295.5c25.3,0,56.3,17.9,69,39.8l68.9,119.4c12.7,21.9,12.7,57.8,0,79.7ZM226.5-72C71.2-72-54.7,53.9-54.7,209.3S71.2,490.5,226.5,490.5,507.8,364.6,507.8,209.3,381.9-72,226.5-72Z" style="fill:#575454;opacity:0.38235294098528666"/><path d="M363.6,367.7c-12.6,21.9-43.7,39.8-68.9,39.8h-138c-25.2,0-56.3-17.9-68.9-39.8l-69-119.5c-12.6-21.9-12.6-57.7,0-79.6l69-119.5c12.6-21.9,43.7-39.8,68.9-39.8h138c25.2,0,56.3,17.9,68.9,39.8l69,119.5c12.6,21.9,12.6,57.7,0,79.6ZM225.7-72.9C70.4-72.9-55.6,53.1-55.6,208.4s126,281.3,281.3,281.3S507,363.7,507,208.4,381-72.9,225.7-72.9Z" style="fill:#524f50;opacity:0.39215686253975235"/><path d="M362.8,366.8c-12.7,21.9-43.7,39.8-69,39.8H155.9c-25.3,0-56.3-17.9-69-39.8L18,247.4c-12.7-21.9-12.7-57.8,0-79.7L86.9,48.3c12.7-21.9,43.7-39.8,69-39.8H293.8c25.3,0,56.3,17.9,69,39.8l68.9,119.4c12.7,21.9,12.7,57.8,0,79.7ZM224.8-73.7C69.5-73.7-56.4,52.2-56.4,207.6S69.5,488.8,224.8,488.8,506.1,362.9,506.1,207.6,380.2-73.7,224.8-73.7Z" style="fill:#4e4b4c;opacity:0.40196078409421804"/><path d="M361.9,366c-12.6,21.9-43.7,39.8-68.9,39.8H155c-25.2,0-56.3-17.9-68.9-39.8l-69-119.5c-12.6-21.9-12.6-57.7,0-79.6l69-119.4C98.7,25.6,129.8,7.6,155,7.6H293c25.2,0,56.3,18,68.9,39.9l69,119.4c12.6,21.9,12.6,57.7,0,79.6ZM224-74.6C68.7-74.6-57.3,51.4-57.3,206.7S68.7,488,224,488,505.3,362,505.3,206.7,379.3-74.6,224-74.6Z" style="fill:#4a4747;opacity:0.4117647056486837"/><path d="M361.1,365.1c-12.7,21.9-43.7,39.8-69,39.8H154.2c-25.3,0-56.3-17.9-69-39.8L16.3,245.7c-12.7-21.9-12.7-57.8,0-79.7L85.2,46.6c12.7-21.9,43.7-39.8,69-39.8H292.1c25.3,0,56.3,17.9,69,39.8L430,166c12.7,21.9,12.7,57.8,0,79.7ZM223.2-75.4C67.8-75.4-58.1,50.5-58.1,205.9S67.8,487.1,223.2,487.1,504.4,361.2,504.4,205.9,378.5-75.4,223.2-75.4Z" style="fill:#464243;opacity:0.4215686272031494"/><path d="M360.2,364.3c-12.6,21.9-43.7,39.8-68.9,39.8h-138c-25.2,0-56.3-17.9-68.9-39.8l-69-119.5c-12.6-21.9-12.6-57.7,0-79.6l69-119.4C97,23.9,128.1,5.9,153.3,5.9h138c25.2,0,56.3,18,68.9,39.9l69,119.4c12.6,21.9,12.6,57.7,0,79.6ZM222.3-76.3C67-76.3-59,49.7-59,205S67,486.3,222.3,486.3,503.6,360.4,503.6,205,377.6-76.3,222.3-76.3Z" style="fill:#413e3f;opacity:0.4313725487576151"/><path d="M359.4,363.4c-12.7,21.9-43.7,39.8-69,39.8H152.5c-25.3,0-56.3-17.9-69-39.8L14.6,244c-12.7-21.9-12.7-57.8,0-79.7L83.5,44.9C96.2,23,127.2,5.1,152.5,5.1H290.4c25.3,0,56.3,17.9,69,39.8l68.9,119.4c12.7,21.9,12.7,57.8,0,79.7ZM221.5-77.1C66.1-77.1-59.8,48.8-59.8,204.2S66.1,485.4,221.5,485.4,502.7,359.5,502.7,204.2,376.8-77.1,221.5-77.1Z" style="fill:#3d393a;opacity:0.4411764703120808"/><path d="M358.5,362.6c-12.6,21.9-43.7,39.8-68.9,39.8h-138c-25.2,0-56.3-17.9-68.9-39.8l-69-119.5c-12.6-21.9-12.6-57.7,0-79.6l69-119.4C95.3,22.2,126.4,4.2,151.6,4.2h138c25.2,0,56.3,18,68.9,39.9l69,119.4c12.6,21.9,12.6,57.7,0,79.6ZM220.6-78C65.3-78-60.7,48-60.7,203.3s126,281.3,281.3,281.3S501.9,358.7,501.9,203.3,375.9-78,220.6-78Z" style="fill:#393536;opacity:0.4509803918665465"/><path d="M357.7,361.7c-12.7,21.9-43.7,39.8-69,39.8H150.8c-25.3,0-56.3-17.9-69-39.8L12.9,242.3C.2,220.4.2,184.5,12.9,162.6L81.8,43.2c12.7-21.9,43.7-39.8,69-39.8H288.7c25.3,0,56.3,17.9,69,39.8l68.9,119.4c12.7,21.9,12.7,57.8,0,79.7ZM219.8-78.8C64.4-78.8-61.5,47.1-61.5,202.5S64.4,483.7,219.8,483.7,501,357.8,501,202.5,375.1-78.8,219.8-78.8Z" style="fill:#343131;opacity:0.46078431342101217"/><path d="M356.8,360.9c-12.6,21.9-43.6,39.8-68.9,39.8h-138c-25.2,0-56.3-17.9-68.9-39.8L12,241.4C-.6,219.5-.6,183.7,12,161.8L81,42.4C93.6,20.5,124.7,2.5,149.9,2.5h138c25.3,0,56.3,18,68.9,39.9l69,119.4c12.6,21.9,12.6,57.7,0,79.6ZM218.9-79.7C63.6-79.7-62.4,46.3-62.4,201.6s126,281.3,281.3,281.3S500.2,357,500.2,201.6,374.3-79.7,218.9-79.7Z" style="fill:#302c2d;opacity:0.47058823497547786"/><path d="M356,360c-12.7,21.9-43.7,39.8-69,39.8H149.1c-25.3,0-56.3-17.9-69-39.8L11.2,240.6c-12.7-21.9-12.7-57.8,0-79.7L80.1,41.5c12.7-21.9,43.7-39.8,69-39.8H287c25.3,0,56.3,17.9,69,39.8l68.9,119.4c12.7,21.9,12.7,57.8,0,79.7ZM218.1-80.5C62.7-80.5-63.2,45.4-63.2,200.8S62.7,482,218.1,482,499.3,356.1,499.3,200.8,373.4-80.5,218.1-80.5Z" style="fill:#2c2829;opacity:0.48039215652994355"/><path d="M355.1,359.2c-12.6,21.9-43.6,39.8-68.9,39.8h-138c-25.2,0-56.3-17.9-68.9-39.8l-69-119.5c-12.6-21.9-12.6-57.7,0-79.6l69-119.4C91.9,18.8,123,.8,148.2.8h138c25.3,0,56.3,18,68.9,39.9l69,119.4c12.6,21.9,12.6,57.7,0,79.6ZM217.2-81.4C61.9-81.4-64.1,44.6-64.1,199.9s126,281.3,281.3,281.3S498.5,355.3,498.5,199.9,372.6-81.4,217.2-81.4Z" style="fill:#272324;opacity:0.49019607808440924"/><path d="M354.3,358.3c-12.7,21.9-43.7,39.8-69,39.8H147.4c-25.3,0-56.3-17.9-69-39.8L9.5,238.9c-12.7-21.9-12.7-57.8,0-79.7L78.4,39.8C91.1,17.9,122.1,0,147.4,0H285.3c25.3,0,56.3,17.9,69,39.8l68.9,119.4c12.7,21.9,12.7,57.8,0,79.7ZM216.4-82.2C61-82.2-64.9,43.7-64.9,199.1S61,480.3,216.4,480.3,497.6,354.4,497.6,199.1,371.7-82.2,216.4-82.2Z" style="fill:#231f20;opacity:0.5"/></g><path d="M216.4-82.2C61-82.2-64.9,43.7-64.9,199.1S61,480.3,216.4,480.3,497.6,354.4,497.6,199.1,371.7-82.2,216.4-82.2ZM354.3,358.3c-12.7,21.9-43.7,39.8-69,39.8H147.4c-25.3,0-56.3-17.9-69-39.8L9.5,238.9c-12.7-21.9-12.7-57.8,0-79.7L78.4,39.8C91.1,17.9,122.1,0,147.4,0H285.3c25.3,0,56.3,17.9,69,39.8l68.9,119.4c12.7,21.9,12.7,57.8,0,79.7Z" style="fill:#fff"/></g><path d="M276.1,194.6h-9.4a4.2,4.2,0,0,0-4.2,4.2V208a4.1,4.1,0,0,0,4.2,4.1h9.4a4.1,4.1,0,0,0,4.2-4.1v-9.2A4.2,4.2,0,0,0,276.1,194.6Zm-1,12.3h-7.4v-7.1h7.4Z" style="fill:#56595c"/><path d="M276.1,220.8h-9.4a4.2,4.2,0,0,0-4.2,4.2v9.1a4.2,4.2,0,0,0,4.2,4.2h9.4a4.2,4.2,0,0,0,4.2-4.2V225A4.2,4.2,0,0,0,276.1,220.8Zm-1,12.3h-7.4V226h7.4Z" style="fill:#56595c"/><path d="M276.1,246.9h-9.4a4.2,4.2,0,0,0-4.2,4.2v9.1a4.2,4.2,0,0,0,4.2,4.2h9.4a4.2,4.2,0,0,0,4.2-4.2v-9.1A4.2,4.2,0,0,0,276.1,246.9Zm-1,12.3h-7.4v-7.1h7.4Z" style="fill:#56595c"/><path d="M193.6,150.9a4.2,4.2,0,0,0-4.2,4.2v89.8a4.2,4.2,0,0,0,4.2,4.2h6.5a4.2,4.2,0,0,0,4.2-4.2V155.1a4.2,4.2,0,0,0-4.2-4.2Zm5.5,93h-4.4V156.1h4.4Z" style="fill:#56595c"/><path d="M213.4,150.9a4.2,4.2,0,0,0-4.2,4.2v89.8a4.2,4.2,0,0,0,4.2,4.2h6.5a4.2,4.2,0,0,0,4.2-4.2V155.1a4.2,4.2,0,0,0-4.2-4.2Zm5.5,93h-4.5V156.1h4.5Z" style="fill:#56595c"/><path d="M233.2,150.9a4.2,4.2,0,0,0-4.2,4.2v89.8a4.2,4.2,0,0,0,4.2,4.2h6.5a4.2,4.2,0,0,0,4.2-4.2V155.1a4.2,4.2,0,0,0-4.2-4.2Zm5.5,93h-4.5V156.1h4.5Z" style="fill:#56595c"/><path d="M286,181.2H254.6V166.5a2.6,2.6,0,0,0-2.6-2.6,2.6,2.6,0,0,0-2.6,2.6v93.3H184V141a.9.9,0,0,1,.8-.9h63.7a.9.9,0,0,1,.9.9v13.4A2.6,2.6,0,0,0,252,157a2.6,2.6,0,0,0,2.6-2.6V141a6.1,6.1,0,0,0-6.1-6.1h-7.9V124.8a6.2,6.2,0,0,0-6.1-6.1H219.3V101.9a2.6,2.6,0,0,0-2.6-2.6,2.5,2.5,0,0,0-2.6,2.6v16.8H198.9a6.1,6.1,0,0,0-6.1,6.1v10.1h-8a6.1,6.1,0,0,0-6,6.1v17.8H146.7a6.1,6.1,0,0,0-6.1,6.1V182a2.6,2.6,0,0,0,2.6,2.6,2.6,2.6,0,0,0,2.6-2.6V164.9a.9.9,0,0,1,.9-.9h32.1v5.8H160.7a8.1,8.1,0,1,0,0,16.2h18.1v7.2H160.7a8.1,8.1,0,1,0,0,16.2h18.1v7.1H160.7a8.1,8.1,0,1,0,0,16.2h18.1v7.2H160.7a8.1,8.1,0,1,0,0,16.1h18.1v3.8h-2.1a6.9,6.9,0,0,0-6.8,6.8v5.1H146.7a.9.9,0,0,1-.9-.9V194.1a2.6,2.6,0,0,0-2.6-2.6,2.6,2.6,0,0,0-2.6,2.6v76.7a6.1,6.1,0,0,0,6.1,6.1H286a6.1,6.1,0,0,0,6.1-6.1V187.3a6.1,6.1,0,0,0-6.1-6.1Zm-88-56.4a.9.9,0,0,1,.9-.9h35.6a.9.9,0,0,1,.9.9v10.1H198Zm-37.3,56a2.9,2.9,0,1,1,0-5.8h18.1v5.8Zm0,23.4a2.9,2.9,0,1,1,0-5.8h18.1v5.8Zm0,23.3a2.9,2.9,0,1,1,0-5.8h18.1v5.8Zm0,23.3a2.9,2.9,0,1,1,0-5.7h18.1v5.7Zm14.4,15.8a1.6,1.6,0,0,1,1.6-1.6h79.9a1.6,1.6,0,0,1,1.6,1.6v5.1H175.1Zm111.8,4.2a.9.9,0,0,1-.9.9H263.4v-5.1a6.8,6.8,0,0,0-6.8-6.8h-2V186.4H286a.9.9,0,0,1,.9.9Z" style="fill:#56595c"/></g><g id="_2" data-name="2"><g style="clip-path:url(#clip-path-2)"><g style="mix-blend-mode:multiply"><path d="M851.3,374.3c-12.7,21.9-43.7,39.8-68.9,39.8H644.6c-25.3,0-56.3-17.9-68.9-39.8L506.8,255c-12.7-21.9-12.7-57.7,0-79.6L575.7,56.1c12.6-21.9,43.6-39.8,68.9-39.8H782.4c25.2,0,56.2,17.9,68.9,39.8l68.9,119.3c12.6,21.9,12.6,57.7,0,79.6ZM713.5-65.9C558.3-65.9,432.4,60,432.4,215.2s125.9,281,281.1,281,281-125.8,281-281S868.7-65.9,713.5-65.9Z" style="fill:#757273;opacity:0.31372549010402684"/><path d="M850.4,373.5c-12.6,21.8-43.6,39.7-68.9,39.7H643.7c-25.2,0-56.3-17.9-68.9-39.7L505.9,254.1c-12.6-21.9-12.6-57.7,0-79.6L574.8,55.2c12.6-21.9,43.7-39.8,68.9-39.8H781.5c25.3,0,56.3,17.9,68.9,39.8l68.9,119.3c12.7,21.9,12.7,57.7,0,79.6ZM712.6-66.7c-155.2,0-281,125.8-281,281s125.8,281.1,281,281.1S993.7,369.5,993.7,214.3,867.8-66.7,712.6-66.7Z" style="fill:#716e6f;opacity:0.3235294116584925"/><path d="M849.6,372.6c-12.7,21.9-43.7,39.8-68.9,39.8H642.9c-25.3,0-56.3-17.9-68.9-39.8L505.1,253.3c-12.7-21.9-12.7-57.7,0-79.6L574,54.4c12.6-21.9,43.6-39.8,68.9-39.8H780.7c25.2,0,56.2,17.9,68.9,39.8l68.9,119.3c12.6,21.9,12.6,57.7,0,79.6ZM711.8-67.6c-155.2,0-281.1,125.9-281.1,281.1s125.9,281,281.1,281,281-125.8,281-281S867-67.6,711.8-67.6Z" style="fill:#6c6a6a;opacity:0.3333333332129582"/><path d="M848.7,371.8c-12.6,21.8-43.6,39.7-68.9,39.7H642c-25.2,0-56.2-17.9-68.9-39.7L504.2,252.4c-12.6-21.9-12.6-57.7,0-79.6L573.1,53.5c12.7-21.9,43.7-39.8,68.9-39.8H779.8c25.3,0,56.3,17.9,68.9,39.8l68.9,119.3c12.7,21.9,12.7,57.7,0,79.6ZM710.9-68.4c-155.2,0-281,125.8-281,281s125.8,281.1,281,281.1S992,367.8,992,212.6,866.1-68.4,710.9-68.4Z" style="fill:#686566;opacity:0.3431372547674239"/><path d="M847.9,370.9c-12.6,21.9-43.7,39.8-68.9,39.8H641.2c-25.3,0-56.3-17.9-68.9-39.8L503.4,251.6c-12.7-21.9-12.7-57.7,0-79.6L572.3,52.7c12.6-21.9,43.6-39.8,68.9-39.8H779c25.2,0,56.3,17.9,68.9,39.8L916.8,172c12.6,21.9,12.6,57.7,0,79.6ZM710.1-69.3C554.9-69.3,429,56.6,429,211.8s125.9,281,281.1,281,281-125.8,281-281S865.3-69.3,710.1-69.3Z" style="fill:#646162;opacity:0.3529411763218896"/><path d="M847,370.1c-12.6,21.8-43.6,39.7-68.9,39.7H640.3c-25.2,0-56.2-17.9-68.9-39.7L502.5,250.7c-12.6-21.9-12.6-57.7,0-79.5L571.4,51.8C584.1,29.9,615.1,12,640.3,12H778.1c25.3,0,56.3,17.9,68.9,39.8l68.9,119.4c12.7,21.8,12.7,57.6,0,79.5ZM709.2-70.1c-155.2,0-281,125.8-281,281S554,492,709.2,492,990.3,366.2,990.3,210.9,864.4-70.1,709.2-70.1Z" style="fill:#5f5c5d;opacity:0.3627450978763553"/><path d="M846.2,369.2c-12.6,21.9-43.7,39.8-68.9,39.8H639.5c-25.3,0-56.3-17.9-68.9-39.8L501.7,249.9c-12.7-21.9-12.7-57.7,0-79.6L570.6,51c12.6-21.9,43.6-39.8,68.9-39.8H777.3c25.2,0,56.3,17.9,68.9,39.8l68.9,119.3c12.6,21.9,12.6,57.7,0,79.6ZM708.4-71C553.2-71,427.3,54.9,427.3,210.1s125.9,281,281.1,281,281-125.8,281-281S863.6-71,708.4-71Z" style="fill:#5b5859;opacity:0.37254901943082097"/><path d="M845.3,368.4c-12.6,21.8-43.6,39.8-68.9,39.8H638.6c-25.2,0-56.2-18-68.9-39.8L500.8,249c-12.6-21.9-12.6-57.7,0-79.5L569.7,50.1c12.7-21.9,43.7-39.8,68.9-39.8H776.4c25.3,0,56.3,17.9,68.9,39.8l68.9,119.4c12.7,21.8,12.7,57.6,0,79.5ZM707.5-71.8c-155.2,0-281,125.8-281,281s125.8,281.1,281,281.1S988.6,364.5,988.6,209.2,862.8-71.8,707.5-71.8Z" style="fill:#575454;opacity:0.38235294098528666"/><path d="M844.5,367.5c-12.6,21.9-43.6,39.8-68.9,39.8H637.8c-25.3,0-56.3-17.9-68.9-39.8L500,248.2c-12.7-21.9-12.7-57.7,0-79.6L568.9,49.3c12.6-21.9,43.6-39.8,68.9-39.8H775.6c25.3,0,56.3,17.9,68.9,39.8l68.9,119.3c12.6,21.9,12.6,57.7,0,79.6ZM706.7-72.6c-155.2,0-281.1,125.8-281.1,281s125.9,281,281.1,281,281-125.8,281-281S861.9-72.6,706.7-72.6Z" style="fill:#524f50;opacity:0.39215686253975235"/><path d="M843.6,366.7c-12.6,21.9-43.6,39.8-68.9,39.8H636.9c-25.2,0-56.2-17.9-68.9-39.8L499.1,247.3c-12.6-21.8-12.6-57.7,0-79.5L568,48.4c12.7-21.9,43.7-39.8,68.9-39.8H774.7c25.3,0,56.3,17.9,68.9,39.8l68.9,119.4c12.7,21.8,12.7,57.7,0,79.5ZM705.8-73.5c-155.2,0-281,125.8-281,281s125.8,281.1,281,281.1S986.9,362.8,986.9,207.5,861.1-73.5,705.8-73.5Z" style="fill:#4e4b4c;opacity:0.40196078409421804"/><path d="M842.8,365.8c-12.6,21.9-43.6,39.8-68.9,39.8H636.1c-25.3,0-56.3-17.9-68.9-39.8L498.3,246.5c-12.7-21.9-12.7-57.7,0-79.6L567.2,47.6c12.6-21.9,43.6-39.8,68.9-39.8H773.9c25.3,0,56.3,17.9,68.9,39.8l68.9,119.3c12.6,21.9,12.6,57.7,0,79.6ZM705-74.3c-155.2,0-281,125.8-281,281s125.8,281,281,281,281-125.8,281-281S860.2-74.3,705-74.3Z" style="fill:#4a4747;opacity:0.4117647056486837"/><path d="M841.9,365c-12.6,21.9-43.6,39.8-68.9,39.8H635.2c-25.2,0-56.2-17.9-68.9-39.8L497.4,245.6c-12.6-21.8-12.6-57.7,0-79.5L566.3,46.7C579,24.8,610,6.9,635.2,6.9H773c25.3,0,56.3,17.9,68.9,39.8l69,119.4c12.6,21.8,12.6,57.7,0,79.5ZM704.1-75.2c-155.2,0-281,125.8-281,281.1s125.8,281,281,281,281.1-125.8,281.1-281S859.4-75.2,704.1-75.2Z" style="fill:#464243;opacity:0.4215686272031494"/><path d="M841.1,364.1c-12.6,21.9-43.6,39.8-68.9,39.8H634.4c-25.3,0-56.3-17.9-68.9-39.8L496.6,244.8c-12.6-21.9-12.6-57.7,0-79.6L565.5,45.9C578.1,24,609.1,6.1,634.4,6.1H772.2c25.3,0,56.3,17.9,68.9,39.8L910,165.2c12.6,21.9,12.6,57.7,0,79.6ZM703.3-76c-155.2,0-281,125.8-281,281s125.8,281,281,281,281-125.8,281-281S858.5-76,703.3-76Z" style="fill:#413e3f;opacity:0.4313725487576151"/><path d="M840.3,363.3c-12.7,21.9-43.7,39.8-68.9,39.8H633.5c-25.2,0-56.2-17.9-68.9-39.8L495.7,243.9c-12.6-21.8-12.6-57.6,0-79.5L564.6,45c12.7-21.8,43.7-39.8,68.9-39.8H771.4c25.2,0,56.2,18,68.9,39.8l68.9,119.4c12.6,21.9,12.6,57.7,0,79.5ZM702.5-76.9c-155.3,0-281.1,125.8-281.1,281.1s125.8,281,281.1,281,281-125.8,281-281S857.7-76.9,702.5-76.9Z" style="fill:#3d393a;opacity:0.4411764703120808"/><path d="M839.4,362.4c-12.6,21.9-43.6,39.8-68.9,39.8H632.7c-25.3,0-56.3-17.9-68.9-39.8L494.9,243.1c-12.6-21.9-12.6-57.7,0-79.6L563.8,44.2c12.6-21.9,43.6-39.8,68.9-39.8H770.5c25.3,0,56.3,17.9,68.9,39.8l68.9,119.3c12.6,21.9,12.6,57.7,0,79.6ZM701.6-77.7c-155.2,0-281,125.8-281,281s125.8,281,281,281,281-125.8,281-281S856.8-77.7,701.6-77.7Z" style="fill:#393536;opacity:0.4509803918665465"/><path d="M838.6,361.6c-12.7,21.9-43.7,39.8-68.9,39.8H631.8c-25.2,0-56.2-17.9-68.9-39.8L494,242.2c-12.6-21.8-12.6-57.6,0-79.5L562.9,43.3c12.7-21.8,43.7-39.7,68.9-39.7H769.7c25.2,0,56.2,17.9,68.9,39.7l68.9,119.4c12.6,21.9,12.6,57.7,0,79.5ZM700.8-78.6c-155.3,0-281.1,125.8-281.1,281.1s125.8,281,281.1,281,281-125.8,281-281S856-78.6,700.8-78.6Z" style="fill:#343131;opacity:0.46078431342101217"/><path d="M837.7,360.7c-12.6,21.9-43.6,39.8-68.9,39.8H631c-25.3,0-56.3-17.9-68.9-39.8L493.2,241.4c-12.6-21.9-12.6-57.7,0-79.6L562.1,42.5C574.7,20.6,605.7,2.7,631,2.7H768.8c25.3,0,56.3,17.9,68.9,39.8l68.9,119.3c12.6,21.9,12.6,57.7,0,79.6ZM699.9-79.4c-155.2,0-281,125.8-281,281s125.8,281.1,281,281.1,281-125.9,281-281.1S855.1-79.4,699.9-79.4Z" style="fill:#302c2d;opacity:0.47058823497547786"/><path d="M836.9,359.9c-12.7,21.9-43.7,39.8-68.9,39.8H630.2c-25.3,0-56.3-17.9-69-39.8L492.3,240.6c-12.6-21.9-12.6-57.7,0-79.6L561.2,41.6c12.7-21.8,43.7-39.7,69-39.7H768c25.2,0,56.2,17.9,68.9,39.7L905.8,161c12.6,21.9,12.6,57.7,0,79.6ZM699.1-80.3C543.8-80.3,418,45.6,418,200.8s125.8,281,281.1,281,281-125.8,281-281S854.3-80.3,699.1-80.3Z" style="fill:#2c2829;opacity:0.48039215652994355"/><path d="M836,359c-12.6,21.9-43.6,39.8-68.9,39.8H629.3c-25.3,0-56.3-17.9-68.9-39.8L491.5,239.7c-12.6-21.9-12.6-57.7,0-79.6L560.4,40.8C573,18.9,604,1,629.3,1H767.1c25.3,0,56.3,17.9,68.9,39.8l68.9,119.3c12.7,21.9,12.7,57.7,0,79.6ZM698.2-81.1c-155.2,0-281,125.8-281,281S543,481,698.2,481s281-125.9,281-281.1S853.4-81.1,698.2-81.1Z" style="fill:#272324;opacity:0.49019607808440924"/><path d="M835.2,358.2c-12.7,21.9-43.7,39.8-68.9,39.8H628.5c-25.3,0-56.3-17.9-68.9-39.8L490.7,238.9c-12.7-21.9-12.7-57.7,0-79.6L559.6,39.9C572.2,18.1,603.2.2,628.5.2H766.3c25.2,0,56.2,17.9,68.9,39.7l68.9,119.4c12.6,21.9,12.6,57.7,0,79.6ZM697.4-82C542.1-82,416.3,43.9,416.3,199.1s125.8,281,281.1,281,281-125.8,281-281S852.6-82,697.4-82Z" style="fill:#231f20;opacity:0.5"/></g><path d="M697.4-82C542.1-82,416.3,43.9,416.3,199.1s125.8,281,281.1,281,281-125.8,281-281S852.6-82,697.4-82ZM835.2,358.2c-12.7,21.9-43.7,39.8-68.9,39.8H628.5c-25.3,0-56.3-17.9-68.9-39.8L490.7,238.9c-12.7-21.9-12.7-57.7,0-79.6L559.6,39.9C572.2,18.1,603.2.2,628.5.2H766.3c25.2,0,56.2,17.9,68.9,39.7l68.9,119.4c12.6,21.9,12.6,57.7,0,79.6Z" style="fill:#fff"/></g></g></g></svg>