<svg xmlns="http://www.w3.org/2000/svg" xmlns:xlink="http://www.w3.org/1999/xlink" viewBox="0 0 432.7 398.1"><defs><clipPath id="clip-path"><path d="M-338.8,398.8c-25.4,0-56.5-18-69.2-39.9L-477.2,239c-12.7-21.9-12.7-57.9,0-79.9L-408,39.3c12.7-22,43.8-40,69.2-40h138.4c25.3,0,56.5,18,69.2,40L-62,159.1c12.6,22,12.6,58,0,79.9l-69.2,119.9c-12.7,21.9-43.9,39.9-69.2,39.9Z" style="fill:none"/></clipPath><clipPath id="clip-path-2"><path d="M148.2,397.3c-25.2,0-56.1-17.8-68.7-39.6l-68.7-119c-12.6-21.8-12.6-57.5,0-79.3l68.7-119C92.1,18.6,123,.8,148.2.8H285.5c25.2,0,56.1,17.8,68.7,39.6l68.7,119c12.6,21.8,12.6,57.5,0,79.3l-68.7,119c-12.6,21.8-43.5,39.6-68.7,39.6Z" style="fill:none"/></clipPath></defs><g style="isolation:isolate"><g id="_3" data-name="3"><g style="clip-path:url(#clip-path)"><g style="mix-blend-mode:multiply"><path d="M-302.3,462.2c-27.9,0-62.2-19.8-76.2-43.9l-76.1-131.9c-13.9-24.1-13.9-63.7,0-87.9l76.1-131.8c14-24.2,48.3-43.9,76.2-43.9h152.2c27.9,0,62.2,19.7,76.1,43.9L2.1,198.5c14,24.2,14,63.8,0,87.9L-74,418.3c-13.9,24.1-48.2,43.9-76.1,43.9Z" style="fill:#fff;opacity:0"/><path d="M-301.5,459.9c-27.6,0-61.5-19.6-75.3-43.5L-452.1,286c-13.8-23.9-13.8-63.1,0-87l75.3-130.4c13.8-23.9,47.7-43.5,75.3-43.5h150.6c27.6,0,61.5,19.6,75.3,43.5L-.3,199c13.8,23.9,13.8,63.1,0,87L-75.6,416.4c-13.8,23.9-47.7,43.5-75.3,43.5Z" style="fill:#fbfbfb;opacity:0.009803921915590525"/><path d="M-300.7,457.5c-27.3,0-60.8-19.3-74.5-43l-74.5-129c-13.6-23.7-13.6-62.4,0-86l74.5-129c13.7-23.7,47.2-43,74.5-43h149c27.3,0,60.8,19.3,74.5,43l74.5,129c13.6,23.6,13.6,62.3,0,86l-74.5,129c-13.7,23.7-47.2,43-74.5,43Z" style="fill:#f6f6f6;opacity:0.01960784347005621"/><path d="M-299.9,455.2c-27,0-60.2-19.2-73.7-42.6L-447.2,285c-13.5-23.4-13.5-61.6,0-85l73.6-127.7c13.5-23.4,46.7-42.5,73.7-42.5h147.4c27,0,60.1,19.1,73.6,42.5L-5.2,200c13.5,23.4,13.5,61.6,0,85L-78.9,412.6c-13.5,23.4-46.6,42.6-73.6,42.6Z" style="fill:#f2f2f2;opacity:0.02941176502452189"/><path d="M-299.1,452.8c-26.7,0-59.5-18.9-72.8-42l-72.9-126.2c-13.4-23.2-13.4-61,0-84.2l72.9-126.2c13.3-23.1,46.1-42,72.8-42h145.7c26.8,0,59.5,18.9,72.9,42L-7.6,200.4c13.3,23.2,13.3,61,0,84.2L-80.5,410.8c-13.4,23.1-46.1,42-72.9,42Z" style="fill:#eeedee;opacity:0.03921568657898757"/></g><g style="mix-blend-mode:multiply"><path d="M-87.8,402.3c-12.7,22-43.8,39.9-69.2,39.9H-295.4c-25.4,0-56.5-17.9-69.2-39.9l-69.2-119.9c-12.7-21.9-12.7-57.9,0-79.9l69.2-119.8c12.7-22,43.8-40,69.2-40H-157c25.4,0,56.5,18,69.2,40l69.2,119.8c12.7,22,12.7,58,0,79.9ZM-226.2-39.8c-155.9,0-282.3,126.4-282.3,282.3s126.4,282.2,282.3,282.2S56,398.4,56,242.5-70.3-39.8-226.2-39.8Z" style="fill:#fff;opacity:0"/><path d="M-88.7,401.4c-12.7,22-43.8,40-69.2,40H-296.3c-25.3,0-56.5-18-69.2-40l-69.2-119.8c-12.6-22-12.6-57.9,0-79.9l69.2-119.9c12.7-21.9,43.9-39.9,69.2-39.9h138.4c25.4,0,56.5,18,69.2,39.9l69.2,119.9c12.7,22,12.7,57.9,0,79.9Zm-138.4-442c-155.8,0-282.2,126.4-282.2,282.2s126.4,282.3,282.2,282.3S55.2,397.5,55.2,241.6-71.2-40.6-227.1-40.6Z" style="fill:#fbfbfb;opacity:0.009803921915590525"/><path d="M-89.5,400.6c-12.7,22-43.9,39.9-69.2,39.9H-297.1c-25.4,0-56.5-17.9-69.2-39.9l-69.2-119.9c-12.7-21.9-12.7-57.9,0-79.9L-366.3,81c12.7-22,43.8-40,69.2-40h138.4c25.3,0,56.5,18,69.2,40l69.2,119.8c12.7,22,12.7,58,0,79.9ZM-227.9-41.5c-155.9,0-282.3,126.4-282.3,282.3S-383.8,523-227.9,523,54.3,396.7,54.3,240.8-72-41.5-227.9-41.5Z" style="fill:#f6f6f6;opacity:0.01960784347005621"/><path d="M-90.4,399.7c-12.7,22-43.8,40-69.2,40H-298c-25.3,0-56.5-18-69.2-40l-69.2-119.8c-12.6-22-12.6-57.9,0-79.9l69.2-119.9c12.7-21.9,43.9-39.9,69.2-39.9h138.4c25.4,0,56.5,18,69.2,39.9L-21.2,200c12.7,22,12.7,57.9,0,79.9Zm-138.4-442C-384.6-42.3-511,84.1-511,239.9s126.4,282.3,282.2,282.3S53.5,395.8,53.5,239.9-72.9-42.3-228.8-42.3Z" style="fill:#f2f2f2;opacity:0.02941176502452189"/><path d="M-91.2,398.9c-12.7,22-43.9,39.9-69.2,39.9H-298.8c-25.4,0-56.5-17.9-69.2-39.9L-437.2,279c-12.7-21.9-12.7-57.9,0-79.9L-368,79.3c12.7-22,43.8-40,69.2-40h138.4c25.3,0,56.5,18,69.2,40L-22,199.1c12.7,22,12.7,58,0,79.9ZM-229.6-43.2c-155.9,0-282.3,126.4-282.3,282.3s126.4,282.2,282.3,282.2S52.6,395,52.6,239.1-73.7-43.2-229.6-43.2Z" style="fill:#eeedee;opacity:0.03921568657898757"/><path d="M-92.1,398c-12.7,22-43.8,40-69.2,40H-299.7c-25.3,0-56.5-18-69.2-40l-69.2-119.8c-12.7-22-12.7-57.9,0-79.9l69.2-119.9c12.7-21.9,43.9-39.9,69.2-39.9h138.4c25.4,0,56.5,18,69.2,39.9l69.2,119.9c12.7,22,12.7,57.9,0,79.9ZM-230.5-44C-386.3-44-512.7,82.4-512.7,238.2s126.4,282.3,282.2,282.3S51.8,394.1,51.8,238.2-74.6-44-230.5-44Z" style="fill:#e9e9e9;opacity:0.049019608133453255"/><path d="M-92.9,397.2c-12.7,22-43.9,39.9-69.2,39.9H-300.5c-25.4,0-56.5-17.9-69.2-39.9l-69.2-119.9c-12.7-21.9-12.7-57.9,0-79.9l69.2-119.8c12.7-22,43.8-40,69.2-40h138.4c25.3,0,56.5,18,69.2,40l69.2,119.8c12.7,22,12.7,58,0,79.9ZM-231.3-44.9c-155.9,0-282.3,126.4-282.3,282.3s126.4,282.2,282.3,282.2S50.9,393.3,50.9,237.4-75.4-44.9-231.3-44.9Z" style="fill:#e5e5e5;opacity:0.058823529687918936"/><path d="M-93.8,396.3c-12.7,22-43.8,40-69.2,40H-301.4c-25.3,0-56.5-18-69.2-40l-69.2-119.8c-12.7-22-12.7-57.9,0-79.9l69.2-119.9c12.7-21.9,43.9-39.9,69.2-39.9H-163c25.4,0,56.5,18,69.2,39.9l69.2,119.9c12.7,22,12.7,57.9,0,79.9Zm-138.4-442c-155.9,0-282.2,126.4-282.2,282.2s126.3,282.3,282.2,282.3S50.1,392.4,50.1,236.5-76.3-45.7-232.2-45.7Z" style="fill:#e1e0e0;opacity:0.06862745124238462"/><path d="M-94.6,395.5c-12.7,22-43.9,39.9-69.2,39.9H-302.2c-25.4,0-56.5-17.9-69.2-39.9l-69.2-119.9c-12.7-21.9-12.7-57.9,0-79.9l69.2-119.8c12.7-22,43.8-40,69.2-40h138.4c25.3,0,56.5,18,69.2,40l69.2,119.8c12.7,22,12.7,58,0,79.9ZM-233-46.6c-155.9,0-282.3,126.4-282.3,282.3S-388.9,517.9-233,517.9,49.2,391.6,49.2,235.7-77.1-46.6-233-46.6Z" style="fill:#dcdcdc;opacity:0.07843137279685031"/><path d="M-95.5,394.6c-12.7,22-43.8,40-69.2,40H-303.1c-25.3,0-56.5-18-69.2-40l-69.2-119.8c-12.7-22-12.7-58,0-79.9L-372.3,75c12.7-21.9,43.9-39.9,69.2-39.9h138.4c25.4,0,56.5,18,69.2,39.9l69.2,119.9c12.7,21.9,12.7,57.9,0,79.9Zm-138.4-442C-389.8-47.4-516.1,79-516.1,234.8s126.3,282.3,282.2,282.3S48.4,390.7,48.4,234.8-78-47.4-233.9-47.4Z" style="fill:#d8d7d8;opacity:0.088235294351316"/><path d="M-96.3,393.8c-12.7,22-43.9,39.9-69.2,39.9H-303.9c-25.4,0-56.5-17.9-69.2-39.9l-69.2-119.9C-455,252-455,216-442.3,194l69.2-119.8c12.7-22,43.8-40,69.2-40h138.4c25.3,0,56.5,18,69.2,40L-27.1,194c12.6,22,12.6,58,0,79.9ZM-234.7-48.3C-390.6-48.3-517,78.1-517,234s126.4,282.2,282.3,282.2S47.5,389.9,47.5,234-78.9-48.3-234.7-48.3Z" style="fill:#d4d3d3;opacity:0.09803921590578168"/><path d="M-97.2,392.9c-12.7,22-43.8,40-69.2,40H-304.8c-25.3,0-56.5-18-69.2-40l-69.2-119.8c-12.7-22-12.7-58,0-79.9L-374,73.3c12.7-21.9,43.9-39.9,69.2-39.9h138.4c25.4,0,56.5,18,69.2,39.9L-28,193.2c12.7,21.9,12.7,57.9,0,79.9Zm-138.4-442c-155.9,0-282.2,126.3-282.2,282.2s126.3,282.3,282.2,282.3S46.7,389,46.7,233.1-79.7-49.1-235.6-49.1Z" style="fill:#d0cfcf;opacity:0.10784313746024737"/><path d="M-98,392.1c-12.7,22-43.9,39.9-69.2,39.9H-305.6c-25.4,0-56.5-17.9-69.2-39.9L-444,272.2c-12.7-21.9-12.7-57.9,0-79.9l69.2-119.8c12.7-22,43.8-40,69.2-40h138.4c25.3,0,56.5,18,69.2,40l69.2,119.8c12.6,22,12.6,58,0,79.9ZM-236.4-50C-392.3-50-518.7,76.4-518.7,232.3s126.4,282.2,282.3,282.2S45.8,388.2,45.8,232.3-80.6-50-236.4-50Z" style="fill:#cbcacb;opacity:0.11764705901471306"/><path d="M-98.9,391.2c-12.7,22-43.8,40-69.2,40H-306.5c-25.4,0-56.5-18-69.2-40l-69.2-119.8c-12.7-22-12.7-58,0-79.9l69.2-119.9c12.7-22,43.8-39.9,69.2-39.9h138.4c25.4,0,56.5,17.9,69.2,39.9l69.2,119.9c12.7,21.9,12.7,57.9,0,79.9Zm-138.4-442c-155.9,0-282.2,126.3-282.2,282.2s126.3,282.3,282.2,282.3S45,387.3,45,231.4-81.4-50.8-237.3-50.8Z" style="fill:#c7c6c6;opacity:0.12745098056917875"/><path d="M-99.7,390.4c-12.7,21.9-43.9,39.9-69.2,39.9H-307.3c-25.4,0-56.5-18-69.2-39.9l-69.2-119.9c-12.7-21.9-12.7-57.9,0-79.9l69.2-119.8c12.7-22,43.8-40,69.2-40h138.4c25.3,0,56.5,18,69.2,40l69.2,119.8c12.6,22,12.6,58,0,79.9ZM-238.1-51.7C-394-51.7-520.4,74.7-520.4,230.6S-394,512.8-238.1,512.8,44.1,386.4,44.1,230.6-82.3-51.7-238.1-51.7Z" style="fill:#c3c2c2;opacity:0.13725490212364444"/><path d="M-100.6,389.5c-12.7,22-43.8,40-69.2,40H-308.2c-25.4,0-56.5-18-69.2-40l-69.2-119.8c-12.7-22-12.7-58,0-79.9l69.2-119.9c12.7-22,43.8-39.9,69.2-39.9h138.4c25.4,0,56.5,17.9,69.2,39.9l69.2,119.9c12.7,21.9,12.7,57.9,0,79.9ZM-239-52.5c-155.9,0-282.2,126.3-282.2,282.2S-394.9,512-239,512,43.3,385.6,43.3,229.7-83.1-52.5-239-52.5Z" style="fill:#bebdbd;opacity:0.14705882367811013"/><path d="M-101.4,388.7c-12.7,21.9-43.9,39.9-69.2,39.9H-309c-25.4,0-56.5-18-69.2-39.9l-69.2-119.9c-12.7-21.9-12.7-57.9,0-79.9l69.2-119.8c12.7-22,43.8-40,69.2-40h138.4c25.3,0,56.5,18,69.2,40l69.2,119.8c12.6,22,12.6,58,0,79.9ZM-239.8-53.4C-395.7-53.4-522.1,73-522.1,228.9s126.4,282.2,282.3,282.2S42.4,384.7,42.4,228.9-84-53.4-239.8-53.4Z" style="fill:#bab9b9;opacity:0.15686274523257582"/><path d="M-102.3,387.8c-12.7,22-43.8,40-69.2,40H-309.9c-25.4,0-56.5-18-69.2-40L-448.3,268c-12.7-22-12.7-58,0-79.9l69.2-119.9c12.7-22,43.8-39.9,69.2-39.9h138.4c25.4,0,56.5,17.9,69.2,39.9l69.2,119.9c12.7,21.9,12.7,57.9,0,79.9Zm-138.4-442C-396.6-54.2-522.9,72.1-522.9,228s126.3,282.3,282.2,282.3S41.5,383.9,41.5,228-84.8-54.2-240.7-54.2Z" style="fill:#b6b4b5;opacity:0.1666666667870415"/><path d="M-103.2,387c-12.6,21.9-43.8,39.9-69.1,39.9H-310.7c-25.4,0-56.6-18-69.2-39.9l-69.2-119.9c-12.7-22-12.7-57.9,0-79.9l69.2-119.8c12.6-22,43.8-40,69.2-40h138.4c25.3,0,56.5,18,69.1,40l69.3,119.8c12.6,22,12.6,57.9,0,79.9ZM-241.5-55.1c-155.9,0-282.3,126.4-282.3,282.3s126.4,282.2,282.3,282.2S40.7,383,40.7,227.2-85.7-55.1-241.5-55.1Z" style="fill:#b1b0b0;opacity:0.1764705883415072"/><path d="M-104,386.1c-12.7,22-43.8,40-69.2,40H-311.6c-25.4,0-56.5-18-69.2-40L-450,266.3c-12.7-22-12.7-58,0-79.9l69.2-119.9c12.7-22,43.8-39.9,69.2-39.9h138.4c25.4,0,56.5,17.9,69.2,39.9l69.2,119.9c12.7,21.9,12.7,57.9,0,79.9Zm-138.4-442c-155.9,0-282.2,126.3-282.2,282.2s126.3,282.3,282.2,282.3S39.8,382.2,39.8,226.3-86.5-55.9-242.4-55.9Z" style="fill:#adacac;opacity:0.18627450989597288"/><path d="M-104.9,385.3c-12.6,21.9-43.8,39.9-69.1,39.9H-312.4c-25.4,0-56.6-18-69.2-39.9l-69.2-119.9c-12.7-22-12.7-57.9,0-79.9l69.2-119.8c12.6-22,43.8-40,69.2-40H-174c25.3,0,56.5,18,69.1,40l69.2,119.8c12.7,22,12.7,57.9,0,79.9ZM-243.2-56.8c-155.9,0-282.3,126.4-282.3,282.3s126.4,282.2,282.3,282.2S39,381.3,39,225.5-87.4-56.8-243.2-56.8Z" style="fill:#a9a7a8;opacity:0.19607843145043857"/><path d="M-105.7,384.4c-12.7,22-43.8,40-69.2,40H-313.3c-25.4,0-56.5-18-69.2-40l-69.2-119.8c-12.7-22-12.7-58,0-79.9l69.2-119.9c12.7-22,43.8-39.9,69.2-39.9h138.4c25.4,0,56.5,17.9,69.2,39.9l69.2,119.9c12.7,21.9,12.7,57.9,0,79.9Zm-138.4-442C-400-57.6-526.3,68.7-526.3,224.6S-400,506.8-244.1,506.8,38.1,380.5,38.1,224.6-88.2-57.6-244.1-57.6Z" style="fill:#a4a3a3;opacity:0.20588235300490426"/><path d="M-106.6,383.6c-12.6,21.9-43.8,39.9-69.2,39.9H-314.1c-25.4,0-56.6-18-69.2-39.9l-69.2-119.9c-12.7-22-12.7-57.9,0-79.9L-383.3,64c12.6-22,43.8-40,69.2-40h138.3c25.4,0,56.6,18,69.2,40l69.2,119.8c12.7,22,12.7,57.9,0,79.9ZM-244.9-58.5c-155.9,0-282.3,126.4-282.3,282.3S-400.8,506-244.9,506,37.3,379.6,37.3,223.8-89.1-58.5-244.9-58.5Z" style="fill:#a09e9f;opacity:0.21568627455936995"/><path d="M-107.4,382.7c-12.7,22-43.8,40-69.2,40H-315c-25.4,0-56.5-18-69.2-40l-69.2-119.8c-12.7-22-12.7-58,0-79.9l69.2-119.9c12.7-22,43.8-39.9,69.2-39.9h138.4c25.4,0,56.5,17.9,69.2,39.9L-38.2,183c12.7,21.9,12.7,57.9,0,79.9Zm-138.4-442C-401.7-59.3-528,67-528,222.9s126.3,282.2,282.2,282.2S36.4,378.8,36.4,222.9-89.9-59.3-245.8-59.3Z" style="fill:#9c9a9a;opacity:0.22549019611383564"/><path d="M-108.3,381.9c-12.6,21.9-43.8,39.9-69.2,39.9H-315.9c-25.3,0-56.5-18-69.1-39.9L-454.2,262c-12.7-22-12.7-57.9,0-79.9L-385,62.3c12.6-22,43.8-40,69.1-40h138.4c25.4,0,56.6,18,69.2,40l69.2,119.8c12.7,22,12.7,57.9,0,79.9ZM-246.6-60.2c-155.9,0-282.3,126.4-282.3,282.3s126.4,282.2,282.3,282.2S35.6,377.9,35.6,222.1-90.8-60.2-246.6-60.2Z" style="fill:#979696;opacity:0.23529411766830133"/><path d="M-109.1,381c-12.7,22-43.8,40-69.2,40H-316.7c-25.4,0-56.5-18-69.2-40l-69.2-119.8c-12.7-22-12.7-58,0-79.9l69.2-119.9c12.7-22,43.8-39.9,69.2-39.9h138.4c25.4,0,56.5,17.9,69.2,39.9l69.2,119.9c12.7,21.9,12.7,57.9,0,79.9ZM-247.5-61C-403.4-61-529.7,65.3-529.7,221.2s126.3,282.2,282.2,282.2S34.7,377.1,34.7,221.2-91.6-61-247.5-61Z" style="fill:#939192;opacity:0.24509803922276702"/><path d="M-110,380.2c-12.6,21.9-43.8,39.9-69.2,39.9H-317.6c-25.3,0-56.5-18-69.2-39.9l-69.1-119.9c-12.7-22-12.7-57.9,0-79.9l69.1-119.8c12.7-22,43.9-40,69.2-40h138.4c25.4,0,56.6,18,69.2,40l69.2,119.8c12.7,22,12.7,57.9,0,79.9ZM-248.4-61.9c-155.8,0-282.2,126.4-282.2,282.3s126.4,282.2,282.2,282.2S33.9,376.2,33.9,220.4-92.5-61.9-248.4-61.9Z" style="fill:#8f8d8d;opacity:0.2549019607772327"/><path d="M-110.8,379.3c-12.7,22-43.8,40-69.2,40H-318.4c-25.4,0-56.5-18-69.2-40l-69.2-119.8c-12.7-22-12.7-58,0-80l69.2-119.8c12.7-22,43.8-40,69.2-40H-180c25.4,0,56.5,18,69.2,40l69.2,119.8c12.7,22,12.7,58,0,80Zm-138.4-442c-155.9,0-282.2,126.3-282.2,282.2s126.3,282.2,282.2,282.2S33,375.4,33,219.5-93.3-62.7-249.2-62.7Z" style="fill:#8b8889;opacity:0.2647058823316984"/><path d="M-111.7,378.5c-12.6,21.9-43.8,39.9-69.2,39.9H-319.3c-25.3,0-56.5-18-69.2-39.9l-69.1-119.9c-12.7-22-12.7-57.9,0-79.9l69.1-119.9c12.7-21.9,43.9-39.9,69.2-39.9h138.4c25.4,0,56.6,18,69.2,39.9l69.2,119.9c12.7,22,12.7,57.9,0,79.9ZM-250.1-63.6c-155.8,0-282.2,126.4-282.2,282.3s126.4,282.2,282.2,282.2S32.2,374.5,32.2,218.7-94.2-63.6-250.1-63.6Z" style="fill:#868485;opacity:0.2745098038861641"/><path d="M-112.5,377.6c-12.7,22-43.8,40-69.2,40H-320.1c-25.4,0-56.5-18-69.2-40l-69.2-119.8c-12.7-22-12.7-58,0-80L-389.3,58c12.7-22,43.8-40,69.2-40h138.4c25.4,0,56.5,18,69.2,40l69.2,119.8c12.7,22,12.7,58,0,80Zm-138.4-442c-155.9,0-282.2,126.3-282.2,282.2S-406.8,500-250.9,500,31.3,373.7,31.3,217.8-95-64.4-250.9-64.4Z" style="fill:#828080;opacity:0.28431372544062977"/><path d="M-113.4,376.8c-12.6,21.9-43.8,39.9-69.2,39.9H-321c-25.3,0-56.5-18-69.2-39.9l-69.2-119.9c-12.6-22-12.6-57.9,0-79.9l69.2-119.9c12.7-21.9,43.9-39.9,69.2-39.9h138.4c25.4,0,56.6,18,69.2,39.9L-44.2,177c12.7,22,12.7,57.9,0,79.9ZM-251.8-65.3C-407.6-65.3-534,61.1-534,217s126.4,282.2,282.2,282.2S30.5,372.8,30.5,217-95.9-65.3-251.8-65.3Z" style="fill:#7e7b7c;opacity:0.29411764699509546"/><path d="M-114.2,375.9c-12.7,22-43.8,40-69.2,40H-321.8c-25.4,0-56.5-18-69.2-40l-69.2-119.8c-12.7-22-12.7-58,0-80L-391,56.3c12.7-22,43.8-40,69.2-40h138.4c25.4,0,56.5,18,69.2,40L-45,176.1c12.7,22,12.7,58,0,80Zm-138.4-442c-155.9,0-282.2,126.3-282.2,282.2s126.3,282.2,282.2,282.2S29.6,372,29.6,216.1-96.7-66.1-252.6-66.1Z" style="fill:#797777;opacity:0.30392156854956115"/><path d="M-115.1,375c-12.7,22-43.8,40-69.2,40H-322.7c-25.3,0-56.5-18-69.2-40l-69.2-119.8c-12.6-22-12.6-57.9,0-79.9l69.2-119.9c12.7-21.9,43.9-39.9,69.2-39.9h138.4c25.4,0,56.5,18,69.2,39.9l69.2,119.9c12.7,22,12.7,57.9,0,79.9ZM-253.5-67C-409.3-67-535.7,59.4-535.7,215.2s126.4,282.3,282.2,282.3S28.8,371.1,28.8,215.2-97.6-67-253.5-67Z" style="fill:#757273;opacity:0.31372549010402684"/><path d="M-115.9,374.2c-12.7,22-43.8,40-69.2,40H-323.5c-25.4,0-56.5-18-69.2-40l-69.2-119.8c-12.7-22-12.7-58,0-80l69.2-119.8c12.7-22,43.8-40,69.2-40h138.4c25.4,0,56.5,18,69.2,40l69.2,119.8c12.7,22,12.7,58,0,80Zm-138.4-442c-155.9,0-282.3,126.3-282.3,282.2s126.4,282.2,282.3,282.2S27.9,370.3,27.9,214.4-98.4-67.8-254.3-67.8Z" style="fill:#716e6f;opacity:0.3235294116584925"/><path d="M-116.8,373.3c-12.7,22-43.8,40-69.2,40H-324.4c-25.3,0-56.5-18-69.2-40l-69.2-119.8c-12.6-22-12.6-57.9,0-79.9l69.2-119.9c12.7-21.9,43.9-39.9,69.2-39.9H-186c25.4,0,56.5,18,69.2,39.9l69.2,119.9c12.7,22,12.7,57.9,0,79.9Zm-138.4-442C-411-68.7-537.4,57.7-537.4,213.5S-411,495.8-255.2,495.8,27.1,369.4,27.1,213.5-99.3-68.7-255.2-68.7Z" style="fill:#6c6a6a;opacity:0.3333333332129582"/><path d="M-117.6,372.5c-12.7,22-43.8,39.9-69.2,39.9H-325.2c-25.4,0-56.5-17.9-69.2-39.9l-69.2-119.9c-12.7-21.9-12.7-57.9,0-79.9l69.2-119.8c12.7-22,43.8-40,69.2-40h138.4c25.4,0,56.5,18,69.2,40l69.2,119.8c12.7,22,12.7,58,0,79.9ZM-256-69.5c-155.9,0-282.3,126.3-282.3,282.2S-411.9,494.9-256,494.9,26.2,368.6,26.2,212.7-100.1-69.5-256-69.5Z" style="fill:#686566;opacity:0.3431372547674239"/><path d="M-118.5,371.6c-12.7,22-43.8,40-69.2,40H-326.1c-25.3,0-56.5-18-69.2-40l-69.2-119.8c-12.6-22-12.6-57.9,0-79.9L-395.3,52c12.7-21.9,43.9-39.9,69.2-39.9h138.4c25.4,0,56.5,18,69.2,39.9l69.2,119.9c12.7,22,12.7,57.9,0,79.9Zm-138.4-442C-412.7-70.4-539.1,56-539.1,211.8s126.4,282.3,282.2,282.3S25.4,367.7,25.4,211.8-101-70.4-256.9-70.4Z" style="fill:#646162;opacity:0.3529411763218896"/><path d="M-119.3,370.8c-12.7,22-43.9,39.9-69.2,39.9H-326.9c-25.4,0-56.5-17.9-69.2-39.9l-69.2-119.9C-478,229-478,193-465.3,171l69.2-119.8c12.7-22,43.8-40,69.2-40h138.4c25.3,0,56.5,18,69.2,40L-50.1,171c12.7,22,12.7,58,0,79.9ZM-257.7-71.3C-413.6-71.3-540,55.1-540,211s126.4,282.2,282.3,282.2S24.5,366.9,24.5,211-101.8-71.3-257.7-71.3Z" style="fill:#5f5c5d;opacity:0.3627450978763553"/><path d="M-120.2,369.9c-12.7,22-43.8,40-69.2,40H-327.8c-25.3,0-56.5-18-69.2-40l-69.2-119.8c-12.6-22-12.6-57.9,0-79.9L-397,50.3c12.7-21.9,43.9-39.9,69.2-39.9h138.4c25.4,0,56.5,18,69.2,39.9L-51,170.2c12.7,22,12.7,57.9,0,79.9Zm-138.4-442c-155.8,0-282.2,126.4-282.2,282.2s126.4,282.3,282.2,282.3S23.7,366,23.7,210.1-102.7-72.1-258.6-72.1Z" style="fill:#5b5859;opacity:0.37254901943082097"/><path d="M-121,369.1c-12.7,22-43.9,39.9-69.2,39.9H-328.6c-25.4,0-56.5-17.9-69.2-39.9L-467,249.2c-12.7-21.9-12.7-57.9,0-79.9l69.2-119.8c12.7-22,43.8-40,69.2-40h138.4c25.3,0,56.5,18,69.2,40l69.2,119.8c12.7,22,12.7,58,0,79.9ZM-259.4-73C-415.3-73-541.7,53.4-541.7,209.3s126.4,282.2,282.3,282.2S22.8,365.2,22.8,209.3-103.5-73-259.4-73Z" style="fill:#575454;opacity:0.38235294098528666"/><path d="M-121.9,368.2c-12.7,22-43.8,40-69.2,40H-329.5c-25.3,0-56.5-18-69.2-40l-69.2-119.8c-12.7-22-12.7-57.9,0-79.9l69.2-119.9C-386,26.7-354.8,8.7-329.5,8.7h138.4c25.4,0,56.5,18,69.2,39.9l69.2,119.9c12.7,22,12.7,57.9,0,79.9Zm-138.4-442c-155.8,0-282.2,126.4-282.2,282.2s126.4,282.3,282.2,282.3S22,364.3,22,208.4-104.4-73.8-260.3-73.8Z" style="fill:#524f50;opacity:0.39215686253975235"/><path d="M-122.7,367.4c-12.7,22-43.9,39.9-69.2,39.9H-330.3c-25.4,0-56.5-17.9-69.2-39.9l-69.2-119.9c-12.7-21.9-12.7-57.9,0-79.9l69.2-119.8c12.7-22,43.8-40,69.2-40h138.4c25.3,0,56.5,18,69.2,40l69.2,119.8c12.7,22,12.7,58,0,79.9ZM-261.1-74.7C-417-74.7-543.4,51.7-543.4,207.6S-417,489.8-261.1,489.8,21.1,363.5,21.1,207.6-105.2-74.7-261.1-74.7Z" style="fill:#4e4b4c;opacity:0.40196078409421804"/><path d="M-123.6,366.5c-12.7,22-43.8,40-69.2,40H-331.2c-25.3,0-56.5-18-69.2-40l-69.2-119.8c-12.7-22-12.7-57.9,0-79.9l69.2-119.9C-387.7,25-356.5,7-331.2,7h138.4c25.4,0,56.5,18,69.2,39.9l69.2,119.9c12.7,22,12.7,57.9,0,79.9ZM-262-75.5c-155.9,0-282.2,126.4-282.2,282.2S-417.9,489-262,489,20.3,362.6,20.3,206.7-106.1-75.5-262-75.5Z" style="fill:#4a4747;opacity:0.4117647056486837"/><path d="M-124.4,365.7c-12.7,22-43.9,39.9-69.2,39.9H-332c-25.4,0-56.5-17.9-69.2-39.9l-69.2-119.9c-12.7-21.9-12.7-57.9,0-79.9l69.2-119.8c12.7-22,43.8-40,69.2-40h138.4c25.3,0,56.5,18,69.2,40l69.2,119.8c12.7,22,12.7,58,0,79.9ZM-262.8-76.4C-418.7-76.4-545.1,50-545.1,205.9s126.4,282.2,282.3,282.2S19.4,361.8,19.4,205.9-106.9-76.4-262.8-76.4Z" style="fill:#464243;opacity:0.4215686272031494"/><path d="M-125.3,364.8c-12.7,22-43.8,40-69.2,40H-332.9c-25.3,0-56.5-18-69.2-40L-471.3,245c-12.7-22-12.7-58,0-79.9l69.2-119.9c12.7-21.9,43.9-39.9,69.2-39.9h138.4c25.4,0,56.5,18,69.2,39.9l69.2,119.9c12.7,21.9,12.7,57.9,0,79.9Zm-138.4-442C-419.6-77.2-545.9,49.2-545.9,205s126.3,282.3,282.2,282.3S18.6,360.9,18.6,205-107.8-77.2-263.7-77.2Z" style="fill:#413e3f;opacity:0.4313725487576151"/><path d="M-126.1,364c-12.7,22-43.9,39.9-69.2,39.9H-333.7c-25.4,0-56.5-17.9-69.2-39.9l-69.2-119.9c-12.7-21.9-12.7-57.9,0-79.9l69.2-119.8c12.7-22,43.8-40,69.2-40h138.4c25.3,0,56.5,18,69.2,40l69.2,119.8c12.6,22,12.6,58,0,79.9ZM-264.5-78.1c-155.9,0-282.3,126.4-282.3,282.3s126.4,282.2,282.3,282.2S17.7,360.1,17.7,204.2-108.7-78.1-264.5-78.1Z" style="fill:#3d393a;opacity:0.4411764703120808"/><path d="M-127,363.1c-12.7,22-43.8,40-69.2,40H-334.6c-25.3,0-56.5-18-69.2-40L-473,243.3c-12.7-22-12.7-58,0-79.9l69.2-119.9c12.7-22,43.9-39.9,69.2-39.9h138.4c25.4,0,56.5,17.9,69.2,39.9l69.2,119.9c12.7,21.9,12.7,57.9,0,79.9Zm-138.4-442c-155.9,0-282.2,126.4-282.2,282.2s126.3,282.3,282.2,282.3S16.9,359.2,16.9,203.3-109.5-78.9-265.4-78.9Z" style="fill:#393536;opacity:0.4509803918665465"/><path d="M-127.8,362.3c-12.7,22-43.9,39.9-69.2,39.9H-335.4c-25.4,0-56.5-17.9-69.2-39.9l-69.2-119.9c-12.7-21.9-12.7-57.9,0-79.9l69.2-119.8c12.7-22,43.8-40,69.2-40H-197c25.3,0,56.5,18,69.2,40l69.2,119.8c12.6,22,12.6,58,0,79.9ZM-266.2-79.8c-155.9,0-282.3,126.4-282.3,282.3s126.4,282.2,282.3,282.2S16,358.4,16,202.5-110.4-79.8-266.2-79.8Z" style="fill:#343131;opacity:0.46078431342101217"/><path d="M-128.7,361.4c-12.7,22-43.8,40-69.2,40H-336.3c-25.4,0-56.5-18-69.2-40l-69.2-119.8c-12.7-22-12.7-58,0-79.9l69.2-119.9c12.7-22,43.8-39.9,69.2-39.9h138.4c25.4,0,56.5,17.9,69.2,39.9l69.2,119.9c12.7,21.9,12.7,57.9,0,79.9Zm-138.4-442C-423-80.6-549.3,45.7-549.3,201.6S-423,483.9-267.1,483.9,15.2,357.5,15.2,201.6-111.2-80.6-267.1-80.6Z" style="fill:#302c2d;opacity:0.47058823497547786"/><path d="M-129.5,360.6c-12.7,22-43.9,39.9-69.2,39.9H-337.1c-25.4,0-56.5-17.9-69.2-39.9l-69.2-119.9c-12.7-21.9-12.7-57.9,0-79.9L-406.3,41c12.7-22,43.8-40,69.2-40h138.4c25.3,0,56.5,18,69.2,40l69.2,119.8c12.6,22,12.6,58,0,79.9ZM-267.9-81.5c-155.9,0-282.3,126.4-282.3,282.3S-423.8,483-267.9,483,14.3,356.7,14.3,200.8-112.1-81.5-267.9-81.5Z" style="fill:#2c2829;opacity:0.48039215652994355"/><path d="M-130.4,359.7c-12.7,22-43.8,40-69.2,40H-338c-25.4,0-56.5-18-69.2-40l-69.2-119.8c-12.7-22-12.7-58,0-79.9l69.2-119.9C-394.5,18.1-363.4.2-338,.2h138.4c25.4,0,56.5,17.9,69.2,39.9L-61.2,160c12.7,21.9,12.7,57.9,0,79.9Zm-138.4-442C-424.7-82.3-551,44-551,199.9s126.3,282.3,282.2,282.3S13.5,355.8,13.5,199.9-112.9-82.3-268.8-82.3Z" style="fill:#272324;opacity:0.49019607808440924"/><path d="M-131.2,358.9c-12.7,21.9-43.9,39.9-69.2,39.9H-338.8c-25.4,0-56.5-18-69.2-39.9L-477.2,239c-12.7-21.9-12.7-57.9,0-79.9L-408,39.3c12.7-22,43.8-40,69.2-40h138.4c25.3,0,56.5,18,69.2,40L-62,159.1c12.6,22,12.6,58,0,79.9ZM-269.6-83.2c-155.9,0-282.3,126.4-282.3,282.3s126.4,282.2,282.3,282.2S12.6,354.9,12.6,199.1-113.8-83.2-269.6-83.2Z" style="fill:#231f20;opacity:0.5"/></g><path d="M-269.6-83.2c-155.9,0-282.3,126.4-282.3,282.3s126.4,282.2,282.3,282.2S12.6,354.9,12.6,199.1-113.8-83.2-269.6-83.2Zm138.4,442.1c-12.7,21.9-43.9,39.9-69.2,39.9H-338.8c-25.4,0-56.5-18-69.2-39.9L-477.2,239c-12.7-21.9-12.7-57.9,0-79.9L-408,39.3c12.7-22,43.8-40,69.2-40h138.4c25.3,0,56.5,18,69.2,40L-62,159.1c12.6,22,12.6,58,0,79.9Z" style="fill:#fff"/></g></g><g id="_4" data-name="4"><g style="clip-path:url(#clip-path-2)"><circle cx="216.9" cy="199.1" r="258.6" transform="translate(-77.2 211.6) rotate(-45)" style="fill:#5cb75b"/><g style="mix-blend-mode:multiply"><path d="M184.4,460.3c-27.7,0-61.7-19.7-75.6-43.6L33.3,285.8c-13.9-24-13.9-63.3,0-87.3L108.8,67.7c13.9-24,47.9-43.6,75.6-43.6H335.5c27.7,0,61.7,19.6,75.6,43.6l75.5,130.8c13.9,24,13.9,63.3,0,87.3L411.1,416.7c-13.9,23.9-47.9,43.6-75.6,43.6Z" style="fill:#fff;opacity:0"/><path d="M185.2,457.9c-27.4,0-61-19.4-74.7-43.1L35.7,285.3C22,261.6,22,222.8,35.7,199L110.5,69.6c13.7-23.8,47.3-43.2,74.7-43.2H334.7c27.4,0,61,19.4,74.7,43.2L484.2,199c13.7,23.8,13.7,62.6,0,86.3L409.4,414.8c-13.7,23.7-47.3,43.1-74.7,43.1Z" style="fill:#fbfbfb;opacity:0.009803921915590525"/><path d="M186,455.6c-27.1,0-60.4-19.2-73.9-42.7l-74-128c-13.5-23.5-13.5-61.9,0-85.4l74-128.1c13.5-23.5,46.8-42.7,73.9-42.7H333.9c27.1,0,60.4,19.2,73.9,42.7l74,128.1c13.5,23.5,13.5,61.9,0,85.4l-74,128c-13.5,23.5-46.8,42.7-73.9,42.7Z" style="fill:#f6f6f6;opacity:0.01960784347005621"/><path d="M186.8,453.3c-26.8,0-59.7-19-73.1-42.2L40.6,284.4c-13.4-23.2-13.4-61.2,0-84.5L113.7,73.3c13.4-23.2,46.3-42.2,73.1-42.2H333.1c26.8,0,59.7,19,73.1,42.2l73.1,126.6c13.5,23.3,13.5,61.3,0,84.5L406.2,411.1c-13.4,23.2-46.3,42.2-73.1,42.2Z" style="fill:#f2f2f2;opacity:0.02941176502452189"/><path d="M187.6,450.9c-26.5,0-59-18.7-72.3-41.7L43,283.9c-13.3-22.9-13.3-60.5,0-83.5L115.3,75.2c13.3-23,45.8-41.8,72.3-41.8H332.3c26.5,0,59,18.8,72.3,41.8l72.3,125.2c13.3,23,13.3,60.6,0,83.5L404.6,409.2c-13.3,23-45.8,41.7-72.3,41.7Z" style="fill:#eeedee;opacity:0.03921568657898757"/><path d="M188.4,448.6c-26.2,0-58.4-18.6-71.5-41.3L45.4,283.5c-13.1-22.7-13.1-59.9,0-82.6L116.9,77c13.1-22.7,45.3-41.3,71.5-41.3H331.5c26.2,0,58.4,18.6,71.5,41.3l71.5,123.9c13.1,22.7,13.1,59.9,0,82.6L403,407.3c-13.1,22.7-45.3,41.3-71.5,41.3Z" style="fill:#e9e9e9;opacity:0.049019608133453255"/><path d="M189.2,446.3c-25.9,0-57.7-18.4-70.7-40.8L47.8,283c-12.9-22.5-12.9-59.2,0-81.7L118.5,78.9c13-22.5,44.8-40.8,70.7-40.8H330.7c25.9,0,57.7,18.3,70.7,40.8l70.7,122.4c12.9,22.5,12.9,59.2,0,81.7L401.4,405.5c-13,22.4-44.8,40.8-70.7,40.8Z" style="fill:#e5e5e5;opacity:0.058823529687918936"/><path d="M190.1,443.9c-25.7,0-57.1-18.1-69.9-40.3L50.3,282.5c-12.8-22.2-12.8-58.5,0-80.7l69.9-121c12.8-22.2,44.2-40.4,69.9-40.4H329.9c25.6,0,57,18.2,69.8,40.4l69.9,121c12.9,22.2,12.9,58.5,0,80.7L399.7,403.6c-12.8,22.2-44.2,40.3-69.8,40.3Z" style="fill:#e1e0e0;opacity:0.06862745124238462"/><path d="M190.9,441.6c-25.4,0-56.5-17.9-69.1-39.9L52.7,282.1c-12.7-22-12.7-57.9,0-79.8L121.8,82.6c12.6-21.9,43.7-39.9,69.1-39.9H329c25.4,0,56.5,18,69.1,39.9l69.1,119.7c12.7,21.9,12.7,57.8,0,79.8L398.1,401.7c-12.6,22-43.7,39.9-69.1,39.9Z" style="fill:#dcdcdc;opacity:0.07843137279685031"/><path d="M191.7,439.3c-25.1,0-55.8-17.8-68.3-39.4L55.1,281.6c-12.5-21.7-12.5-57.2,0-78.9L123.4,84.5c12.5-21.7,43.2-39.4,68.3-39.4H328.2c25.1,0,55.8,17.7,68.3,39.4l68.3,118.2c12.5,21.7,12.5,57.2,0,78.9L396.5,399.9c-12.5,21.6-43.2,39.4-68.3,39.4Z" style="fill:#d8d7d8;opacity:0.088235294351316"/><path d="M192.5,436.9c-24.8,0-55.1-17.5-67.5-38.9L57.5,281.1c-12.3-21.4-12.3-56.5,0-77.9L125,86.3c12.4-21.4,42.7-38.9,67.5-38.9H327.4c24.8,0,55.1,17.5,67.5,38.9l67.5,116.9c12.3,21.4,12.3,56.5,0,77.9L394.9,398c-12.4,21.4-42.7,38.9-67.5,38.9Z" style="fill:#d4d3d3;opacity:0.09803921590578168"/><path d="M193.3,434.6c-24.4,0-54.4-17.3-66.7-38.5L60,280.7c-12.3-21.2-12.3-55.8,0-77L126.6,88.2c12.3-21.2,42.3-38.5,66.7-38.5H326.6c24.5,0,54.5,17.3,66.7,38.5L460,203.7c12.2,21.2,12.2,55.8,0,77L393.3,396.1c-12.2,21.2-42.2,38.5-66.7,38.5Z" style="fill:#d0cfcf;opacity:0.10784313746024737"/><path d="M194.1,432.3c-24.1,0-53.8-17.1-65.9-38L62.4,280.2c-12.1-20.9-12.1-55.1,0-76.1l65.8-114c12.1-20.9,41.8-38,65.9-38H325.8c24.2,0,53.8,17.1,65.9,38l65.8,114c12.1,21,12.1,55.2,0,76.1L391.7,394.3c-12.1,20.9-41.7,38-65.9,38Z" style="fill:#cbcacb;opacity:0.11764705901471306"/><path d="M194.9,429.9c-23.8,0-53.1-16.9-65-37.5L64.8,279.7c-11.9-20.6-11.9-54.4,0-75.1L129.9,91.9c11.9-20.6,41.2-37.5,65-37.5H325c23.8,0,53.1,16.9,65,37.5l65.1,112.7c11.9,20.7,11.9,54.5,0,75.1L390,392.4c-11.9,20.6-41.2,37.5-65,37.5Z" style="fill:#c7c6c6;opacity:0.12745098056917875"/><path d="M195.7,427.6c-23.5,0-52.4-16.7-64.2-37.1L67.2,279.3c-11.7-20.4-11.7-53.8,0-74.2L131.5,93.8c11.8-20.4,40.7-37.1,64.2-37.1H324.2c23.5,0,52.5,16.7,64.2,37.1l64.3,111.3c11.8,20.4,11.8,53.8,0,74.2L388.4,390.5c-11.7,20.4-40.7,37.1-64.2,37.1Z" style="fill:#c3c2c2;opacity:0.13725490212364444"/><path d="M196.5,425.3c-23.2,0-51.8-16.5-63.4-36.6L69.7,278.8c-11.7-20.1-11.7-53.1,0-73.3L133.1,95.7c11.6-20.2,40.2-36.6,63.4-36.6H323.4c23.2,0,51.8,16.4,63.4,36.6l63.5,109.8c11.6,20.2,11.6,53.2,0,73.3L386.8,388.7c-11.6,20.1-40.2,36.6-63.4,36.6Z" style="fill:#bebdbd;opacity:0.14705882367811013"/><path d="M197.3,422.9c-22.9,0-51.1-16.2-62.6-36.1L72.1,278.3c-11.5-19.9-11.5-52.4,0-72.3L134.7,97.5c11.5-19.8,39.7-36.1,62.6-36.1H322.6c22.9,0,51.1,16.3,62.6,36.1L447.8,206c11.5,19.9,11.5,52.4,0,72.3L385.2,386.8c-11.5,19.9-39.7,36.1-62.6,36.1Z" style="fill:#bab9b9;opacity:0.15686274523257582"/><path d="M198.1,420.6c-22.6,0-50.4-16-61.8-35.7l-61.8-107c-11.3-19.7-11.3-51.8,0-71.4L136.3,99.4c11.4-19.6,39.2-35.7,61.8-35.7H321.8c22.6,0,50.5,16.1,61.8,35.7l61.8,107.1c11.3,19.6,11.3,51.7,0,71.4l-61.8,107c-11.3,19.7-39.2,35.7-61.8,35.7Z" style="fill:#b6b4b5;opacity:0.1666666667870415"/><path d="M198.9,418.3c-22.3,0-49.8-15.9-61-35.2l-61-105.7c-11.2-19.4-11.2-51.1,0-70.5l61-105.6c11.2-19.4,38.7-35.2,61-35.2H321c22.3,0,49.8,15.8,61,35.2l61,105.6c11.2,19.4,11.2,51.1,0,70.5L382,383.1c-11.2,19.3-38.7,35.2-61,35.2Z" style="fill:#b1b0b0;opacity:0.1764705883415072"/><path d="M199.8,416c-22.1,0-49.2-15.7-60.2-34.8L79.4,276.9c-11.1-19.1-11.1-50.4,0-69.5l60.2-104.3c11-19.1,38.1-34.7,60.2-34.7H320.2c22,0,49.1,15.6,60.2,34.7l60.2,104.3c11,19.1,11,50.4,0,69.5L380.4,381.2c-11.1,19.1-38.2,34.8-60.2,34.8Z" style="fill:#adacac;opacity:0.18627450989597288"/><path d="M200.6,413.6c-21.8,0-48.5-15.4-59.4-34.3L81.8,276.5c-10.9-18.9-10.9-49.8,0-68.6L141.2,105c10.9-18.9,37.6-34.3,59.4-34.3H319.3c21.8,0,48.6,15.4,59.4,34.3l59.4,102.9c10.9,18.8,10.9,49.7,0,68.6L378.7,379.3c-10.8,18.9-37.6,34.3-59.4,34.3Z" style="fill:#a9a7a8;opacity:0.19607843145043857"/><path d="M201.4,411.3c-21.5,0-47.9-15.2-58.6-33.8L84.2,276c-10.7-18.6-10.7-49,0-67.7l58.6-101.4C153.5,88.3,179.9,73,201.4,73H318.5c21.5,0,47.9,15.3,58.6,33.9l58.6,101.4c10.7,18.7,10.7,49.1,0,67.7L377.1,377.5c-10.7,18.6-37.1,33.8-58.6,33.8Z" style="fill:#a4a3a3;opacity:0.20588235300490426"/><path d="M202.2,409c-21.2,0-47.2-15.1-57.8-33.4L86.6,275.5c-10.6-18.3-10.6-48.3,0-66.7l57.8-100.1C155,90.4,181,75.4,202.2,75.4H317.7c21.2,0,47.2,15,57.8,33.3l57.8,100.1c10.6,18.4,10.6,48.4,0,66.7L375.5,375.6c-10.6,18.3-36.6,33.4-57.8,33.4Z" style="fill:#a09e9f;opacity:0.21568627455936995"/><path d="M203,406.6c-20.9,0-46.5-14.8-57-32.9L89.1,275.1c-10.5-18.1-10.5-47.7,0-65.8L146,110.6c10.5-18.1,36.1-32.9,57-32.9H316.9c20.9,0,46.6,14.8,57,32.9l57,98.7c10.4,18.1,10.4,47.7,0,65.8l-57,98.6c-10.4,18.1-36.1,32.9-57,32.9Z" style="fill:#9c9a9a;opacity:0.22549019611383564"/><path d="M203.8,404.3c-20.6,0-45.9-14.6-56.2-32.4L91.5,274.6c-10.3-17.8-10.3-47,0-64.9l56.1-97.2C157.9,94.6,183.2,80,203.8,80H316.1c20.6,0,45.9,14.6,56.2,32.5l56.1,97.2c10.3,17.9,10.3,47.1,0,64.9l-56.1,97.3c-10.3,17.8-35.6,32.4-56.2,32.4Z" style="fill:#979696;opacity:0.23529411766830133"/><path d="M204.6,402c-20.3,0-45.2-14.4-55.4-32L93.9,274.1c-10.1-17.5-10.1-46.3,0-63.9l55.3-95.9c10.2-17.5,35.1-31.9,55.4-31.9H315.3c20.3,0,45.2,14.4,55.4,31.9L426,210.2c10.2,17.6,10.2,46.4,0,63.9L370.7,370c-10.2,17.6-35.1,32-55.4,32Z" style="fill:#939192;opacity:0.24509803922276702"/><path d="M205.4,399.6c-20,0-44.5-14.1-54.5-31.5L96.3,273.7c-10-17.4-10-45.7,0-63l54.6-94.5c10-17.3,34.5-31.5,54.5-31.5H314.5c20,0,44.5,14.2,54.5,31.5l54.6,94.5c10,17.3,10,45.6,0,63L369,368.1c-10,17.4-34.5,31.5-54.5,31.5Z" style="fill:#8f8d8d;opacity:0.2549019607772327"/><path d="M206.2,397.3c-19.7,0-43.9-14-53.7-31L98.7,273.2c-9.8-17.1-9.8-45,0-62.1l53.8-93c9.8-17.1,34-31.1,53.7-31.1H313.7c19.7,0,43.9,14,53.7,31.1l53.8,93c9.8,17.1,9.8,45,0,62.1l-53.8,93.1c-9.8,17-34,31-53.7,31Z" style="fill:#8b8889;opacity:0.2647058823316984"/><path d="M207,395c-19.4,0-43.2-13.8-52.9-30.6l-52.9-91.7c-9.7-16.8-9.7-44.3,0-61.1l52.9-91.7c9.7-16.8,33.5-30.5,52.9-30.5H312.9c19.4,0,43.2,13.7,52.9,30.5l52.9,91.7c9.7,16.8,9.7,44.3,0,61.1l-52.9,91.7c-9.7,16.8-33.5,30.6-52.9,30.6Z" style="fill:#868485;opacity:0.2745098038861641"/><path d="M207.8,392.6c-19.1,0-42.5-13.5-52.1-30.1l-52.1-90.2c-9.6-16.6-9.6-43.7,0-60.2l52.1-90.3c9.6-16.6,33-30.1,52.1-30.1H312.1c19.1,0,42.5,13.5,52.1,30.1l52.1,90.3c9.6,16.5,9.6,43.6,0,60.2l-52.1,90.2c-9.6,16.6-33,30.1-52.1,30.1Z" style="fill:#828080;opacity:0.28431372544062977"/><path d="M208.6,390.3c-18.8,0-41.9-13.3-51.3-29.6L106,271.8c-9.4-16.3-9.4-43,0-59.3l51.3-88.8c9.4-16.3,32.5-29.7,51.3-29.7H311.3c18.8,0,41.9,13.4,51.3,29.7l51.3,88.8c9.4,16.3,9.4,43,0,59.3l-51.3,88.9c-9.4,16.3-32.5,29.6-51.3,29.6Z" style="fill:#7e7b7c;opacity:0.29411764699509546"/><path d="M209.5,388c-18.6,0-41.3-13.2-50.6-29.2l-50.5-87.5c-9.2-16-9.2-42.2,0-58.3l50.5-87.5c9.3-16,32-29.1,50.6-29.1h101c18.5,0,41.2,13.1,50.5,29.1L411.5,213c9.2,16.1,9.2,42.3,0,58.3L361,358.8c-9.3,16-32,29.2-50.5,29.2Z" style="fill:#797777;opacity:0.30392156854956115"/><path d="M210.3,385.6c-18.3,0-40.6-12.9-49.7-28.7l-49.7-86c-9.1-15.8-9.1-41.6,0-57.4l49.7-86.1c9.1-15.8,31.4-28.7,49.7-28.7h99.3c18.3,0,40.6,12.9,49.7,28.7L409,213.5c9.2,15.8,9.2,41.6,0,57.4l-49.7,86c-9.1,15.8-31.4,28.7-49.7,28.7Z" style="fill:#757273;opacity:0.31372549010402684"/><path d="M211.1,383.3c-18,0-40-12.7-48.9-28.2l-48.9-84.7c-9-15.5-9-40.9,0-56.5l48.9-84.6c8.9-15.6,30.9-28.3,48.9-28.3h97.7c18,0,40,12.7,48.9,28.3l48.9,84.6c9,15.6,9,41,0,56.5l-48.9,84.7c-8.9,15.5-30.9,28.2-48.9,28.2Z" style="fill:#716e6f;opacity:0.3235294116584925"/><path d="M211.9,381c-17.7,0-39.3-12.5-48.1-27.8l-48.1-83.3c-8.8-15.2-8.8-40.2,0-55.5l48.1-83.3c8.8-15.2,30.4-27.7,48.1-27.7H308c17.7,0,39.3,12.5,48.1,27.7l48.1,83.3c8.8,15.3,8.8,40.3,0,55.5l-48.1,83.3C347.3,368.5,325.7,381,308,381Z" style="fill:#6c6a6a;opacity:0.3333333332129582"/><path d="M212.7,378.6c-17.3,0-38.6-12.3-47.3-27.3l-47.3-81.8c-8.6-15-8.6-39.6,0-54.6L165.4,133c8.7-15,30-27.3,47.3-27.3h94.5c17.4,0,38.6,12.3,47.3,27.3l47.3,81.9c8.6,15,8.6,39.6,0,54.6l-47.3,81.8c-8.7,15-29.9,27.3-47.3,27.3Z" style="fill:#686566;opacity:0.3431372547674239"/><path d="M213.5,376.3c-17,0-38-12.1-46.5-26.8L120.6,269c-8.6-14.8-8.6-38.9,0-53.7L167,134.9c8.5-14.8,29.5-26.9,46.5-26.9h92.9c17.1,0,38,12.1,46.5,26.9l46.4,80.4c8.6,14.8,8.6,38.9,0,53.7l-46.4,80.5c-8.5,14.7-29.4,26.8-46.5,26.8Z" style="fill:#646162;opacity:0.3529411763218896"/><path d="M214.3,374c-16.7,0-37.3-11.9-45.7-26.4L123,268.5c-8.4-14.5-8.4-38.2,0-52.7l45.6-79.1c8.4-14.5,29-26.3,45.7-26.3h91.3c16.7,0,37.3,11.8,45.7,26.3l45.6,79.1c8.4,14.5,8.4,38.2,0,52.7l-45.6,79.1c-8.4,14.5-29,26.4-45.7,26.4Z" style="fill:#5f5c5d;opacity:0.3627450978763553"/><path d="M215.1,371.6c-16.4,0-36.6-11.6-44.8-25.9l-44.9-77.6c-8.2-14.3-8.2-37.6,0-51.8l44.9-77.7c8.2-14.2,28.4-25.9,44.8-25.9h89.7c16.4,0,36.6,11.7,44.8,25.9l44.9,77.7c8.2,14.2,8.2,37.5,0,51.8l-44.9,77.6c-8.2,14.3-28.4,25.9-44.8,25.9Z" style="fill:#5b5859;opacity:0.37254901943082097"/><path d="M215.9,369.3c-16.1,0-35.9-11.4-44-25.4l-44.1-76.3c-8-14-8-36.9,0-50.9l44.1-76.2c8.1-14,27.9-25.5,44-25.5H304c16.1,0,36,11.5,44,25.5l44.1,76.2c8,14,8,36.9,0,50.9L348,343.9c-8,14-27.9,25.4-44,25.4Z" style="fill:#575454;opacity:0.38235294098528666"/><path d="M216.7,367c-15.8,0-35.3-11.3-43.2-25l-43.2-74.9c-8-13.7-8-36.2,0-49.9l43.2-74.9c7.9-13.7,27.4-24.9,43.2-24.9h86.5c15.8,0,35.3,11.2,43.2,24.9l43.3,74.9c7.9,13.7,7.9,36.2,0,49.9L346.4,342c-7.9,13.7-27.4,25-43.2,25Z" style="fill:#524f50;opacity:0.39215686253975235"/><path d="M217.5,364.6c-15.5,0-34.6-11-42.4-24.5l-42.4-73.4c-7.8-13.5-7.8-35.5,0-49l42.4-73.5c7.8-13.5,26.9-24.5,42.4-24.5h84.9c15.5,0,34.6,11,42.4,24.5l42.4,73.5c7.8,13.5,7.8,35.5,0,49l-42.4,73.4c-7.8,13.5-26.9,24.5-42.4,24.5Z" style="fill:#4e4b4c;opacity:0.40196078409421804"/><path d="M218.3,362.3c-15.2,0-33.9-10.8-41.6-24l-41.6-72.1c-7.6-13.2-7.6-34.8,0-48.1l41.6-72c7.7-13.3,26.4-24.1,41.6-24.1h83.3c15.2,0,34,10.8,41.6,24.1l41.6,72c7.6,13.3,7.6,34.9,0,48.1l-41.6,72.1c-7.6,13.2-26.4,24-41.6,24Z" style="fill:#4a4747;opacity:0.4117647056486837"/><path d="M219.1,360c-14.9,0-33.3-10.6-40.8-23.6l-40.8-70.7c-7.4-12.9-7.4-34.1,0-47.1l40.8-70.7c7.5-12.9,25.9-23.5,40.8-23.5h81.7c14.9,0,33.3,10.6,40.8,23.5l40.8,70.7c7.5,13,7.5,34.2,0,47.1l-40.8,70.7c-7.5,13-25.9,23.6-40.8,23.6Z" style="fill:#464243;opacity:0.4215686272031494"/><path d="M220,357.6c-14.7,0-32.7-10.4-40-23.1l-40-69.2c-7.4-12.7-7.4-33.5,0-46.2l40-69.3c7.3-12.7,25.3-23.1,40-23.1h80c14.6,0,32.6,10.4,39.9,23.1L380,219.1c7.3,12.7,7.3,33.5,0,46.2l-40.1,69.2c-7.3,12.7-25.3,23.1-39.9,23.1Z" style="fill:#413e3f;opacity:0.4313725487576151"/><path d="M220.8,355.3c-14.4,0-32-10.2-39.2-22.6l-39.2-67.9c-7.2-12.4-7.2-32.8,0-45.3l39.2-67.8c7.2-12.5,24.8-22.7,39.2-22.7h78.3c14.4,0,32.1,10.2,39.2,22.7l39.2,67.8c7.2,12.5,7.2,32.9,0,45.3l-39.2,67.9c-7.1,12.4-24.8,22.6-39.2,22.6Z" style="fill:#3d393a;opacity:0.4411764703120808"/><path d="M221.6,353c-14.1,0-31.4-10-38.4-22.2l-38.4-66.5c-7-12.2-7-32.1,0-44.3l38.4-66.5c7-12.2,24.3-22.1,38.4-22.1h76.7c14.1,0,31.4,9.9,38.4,22.1L375.1,220c7,12.2,7,32.1,0,44.3l-38.4,66.5c-7,12.2-24.3,22.2-38.4,22.2Z" style="fill:#393536;opacity:0.4509803918665465"/><path d="M222.4,350.6c-13.8,0-30.7-9.7-37.6-21.7l-37.6-65c-6.9-12-6.9-31.5,0-43.4l37.6-65.1c6.9-11.9,23.8-21.7,37.6-21.7h75.1c13.8,0,30.7,9.8,37.6,21.7l37.6,65.1c6.9,11.9,6.9,31.4,0,43.4l-37.6,65c-6.9,12-23.8,21.7-37.6,21.7Z" style="fill:#343131;opacity:0.46078431342101217"/><path d="M223.2,348.3c-13.5,0-30-9.6-36.8-21.2l-36.7-63.7c-6.8-11.7-6.8-30.8,0-42.5l36.7-63.6c6.8-11.7,23.3-21.3,36.8-21.3h73.5c13.5,0,30,9.6,36.8,21.3l36.8,63.6c6.7,11.7,6.7,30.8,0,42.5l-36.8,63.7c-6.8,11.6-23.3,21.2-36.8,21.2Z" style="fill:#302c2d;opacity:0.47058823497547786"/><path d="M224,346c-13.2,0-29.4-9.4-36-20.8l-35.9-62.3c-6.6-11.4-6.6-30.1,0-41.5L188,159.1c6.6-11.4,22.8-20.7,36-20.7h71.9c13.2,0,29.4,9.3,36,20.7l35.9,62.3c6.6,11.4,6.6,30.1,0,41.5l-35.9,62.3c-6.6,11.4-22.8,20.8-36,20.8Z" style="fill:#2c2829;opacity:0.48039215652994355"/><path d="M224.8,343.6c-12.9,0-28.7-9.1-35.1-20.3l-35.2-60.8c-6.4-11.2-6.4-29.5,0-40.6L189.7,161c6.4-11.2,22.2-20.3,35.1-20.3h70.3c12.9,0,28.7,9.1,35.1,20.3l35.2,60.9c6.4,11.1,6.4,29.4,0,40.6l-35.2,60.8c-6.4,11.2-22.2,20.3-35.1,20.3Z" style="fill:#272324;opacity:0.49019607808440924"/><path d="M225.6,341.3c-12.6,0-28-8.9-34.3-19.8L156.9,262c-6.3-10.9-6.3-28.7,0-39.7l34.4-59.4c6.3-11,21.7-19.9,34.3-19.9h68.7c12.6,0,28,8.9,34.3,19.9L363,222.3c6.3,11,6.3,28.8,0,39.7l-34.4,59.5c-6.3,10.9-21.7,19.8-34.3,19.8Z" style="fill:#231f20;opacity:0.5"/></g><path d="M161.9,357.7c-20.1,0-44.9-14.3-54.9-31.7L52,230.8c-10.1-17.5-10.1-46,0-63.5l55-95.1c10-17.5,34.8-31.8,54.9-31.8H271.8c20.1,0,44.9,14.3,54.9,31.8l55,95.1c10.1,17.5,10.1,46,0,63.5l-55,95.2c-10,17.4-34.8,31.7-54.9,31.7Z" style="fill:#c9e3e2"/><g style="mix-blend-mode:multiply"><path d="M397.3,400.8c-12.6,21.8-43.5,39.6-68.7,39.6H191.3c-25.2,0-56.1-17.8-68.7-39.6l-68.7-119c-12.6-21.8-12.6-57.5,0-79.3l68.7-119c12.6-21.8,43.5-39.6,68.7-39.6H328.6c25.2,0,56.1,17.8,68.7,39.6l68.7,119c12.6,21.8,12.6,57.5,0,79.3ZM260-38C105.2-38-20.2,87.4-20.2,242.2S105.2,522.3,260,522.3,540.1,396.9,540.1,242.2,414.7-38,260-38Z" style="fill:#fff;opacity:0"/><path d="M396.5,399.9c-12.6,21.9-43.5,39.7-68.7,39.7H190.4c-25.2,0-56.1-17.8-68.7-39.7L53.1,281c-12.6-21.8-12.6-57.5,0-79.3l68.6-119C134.3,60.9,165.2,43,190.4,43H327.8c25.2,0,56.1,17.9,68.7,39.7l68.7,119c12.6,21.8,12.6,57.5,0,79.3ZM259.1-38.8C104.4-38.8-21,86.6-21,241.3S104.4,521.5,259.1,521.5,539.3,396,539.3,241.3,413.8-38.8,259.1-38.8Z" style="fill:#fbfbfb;opacity:0.009803921915590525"/><path d="M395.6,399.1c-12.6,21.8-43.5,39.7-68.6,39.7H189.6c-25.2,0-56.1-17.9-68.7-39.7l-68.7-119c-12.6-21.8-12.6-57.5,0-79.3L120.9,81.9c12.6-21.8,43.5-39.7,68.7-39.7H327c25.1,0,56,17.9,68.6,39.7l68.7,118.9c12.6,21.8,12.6,57.5,0,79.3ZM258.3-39.7C103.5-39.7-21.9,85.8-21.9,240.5S103.5,520.6,258.3,520.6,538.4,395.2,538.4,240.5,413-39.7,258.3-39.7Z" style="fill:#f6f6f6;opacity:0.01960784347005621"/><path d="M394.8,398.3c-12.6,21.8-43.5,39.6-68.7,39.6H188.7c-25.1,0-56.1-17.8-68.7-39.6l-68.6-119c-12.6-21.8-12.6-57.5,0-79.3L120,81c12.6-21.8,43.6-39.6,68.7-39.6H326.1c25.2,0,56.1,17.8,68.7,39.6l68.7,119c12.6,21.8,12.6,57.5,0,79.3ZM257.4-40.5C102.7-40.5-22.7,84.9-22.7,239.6S102.7,519.8,257.4,519.8,537.6,394.4,537.6,239.6,412.1-40.5,257.4-40.5Z" style="fill:#f2f2f2;opacity:0.02941176502452189"/><path d="M393.9,397.4c-12.5,21.8-43.5,39.7-68.6,39.7H187.9c-25.2,0-56.1-17.9-68.7-39.7l-68.7-119c-12.6-21.8-12.6-57.5,0-79.3L119.2,80.2c12.6-21.8,43.5-39.7,68.7-39.7H325.3c25.1,0,56.1,17.9,68.6,39.7l68.7,118.9c12.6,21.8,12.6,57.5,0,79.3ZM256.6-41.4C101.9-41.4-23.6,84.1-23.6,238.8S101.9,518.9,256.6,518.9,536.7,393.5,536.7,238.8,411.3-41.4,256.6-41.4Z" style="fill:#eeedee;opacity:0.03921568657898757"/><path d="M393.1,396.6c-12.6,21.8-43.5,39.6-68.7,39.6H187c-25.1,0-56-17.8-68.6-39.6l-68.7-119c-12.6-21.8-12.6-57.5,0-79.3l68.7-119C131,57.5,161.9,39.7,187,39.7H324.4c25.2,0,56.1,17.8,68.7,39.6l68.7,119c12.6,21.8,12.6,57.5,0,79.3ZM255.7-42.2C101-42.2-24.4,83.2-24.4,237.9S101,518.1,255.7,518.1,535.9,392.7,535.9,237.9,410.5-42.2,255.7-42.2Z" style="fill:#e9e9e9;opacity:0.049019608133453255"/><path d="M392.3,395.7c-12.6,21.8-43.5,39.7-68.7,39.7H186.2c-25.2,0-56.1-17.9-68.7-39.7L48.8,276.8c-12.6-21.9-12.6-57.5,0-79.4L117.5,78.5c12.6-21.8,43.5-39.7,68.7-39.7H323.6c25.2,0,56.1,17.9,68.7,39.7l68.6,118.9c12.6,21.9,12.6,57.5,0,79.4ZM254.9-43.1C100.2-43.1-25.3,82.4-25.3,237.1S100.2,517.2,254.9,517.2,535,391.8,535,237.1,409.6-43.1,254.9-43.1Z" style="fill:#e5e5e5;opacity:0.058823529687918936"/><path d="M391.4,394.9c-12.6,21.8-43.5,39.6-68.7,39.6H185.4c-25.2,0-56.1-17.8-68.7-39.6L48,275.9c-12.6-21.8-12.6-57.5,0-79.3l68.7-119C129.3,55.8,160.2,38,185.4,38H322.7c25.2,0,56.1,17.8,68.7,39.6l68.7,119c12.6,21.8,12.6,57.5,0,79.3ZM254-43.9C99.3-43.9-26.1,81.5-26.1,236.3S99.3,516.4,254,516.4,534.2,391,534.2,236.3,408.8-43.9,254-43.9Z" style="fill:#e1e0e0;opacity:0.06862745124238462"/><path d="M390.6,394c-12.6,21.8-43.5,39.7-68.7,39.7H184.5c-25.2,0-56.1-17.9-68.7-39.7L47.1,275.1c-12.6-21.8-12.6-57.5,0-79.3l68.7-119c12.6-21.8,43.5-39.7,68.7-39.7H321.9c25.2,0,56.1,17.9,68.7,39.7l68.7,119c12.5,21.8,12.5,57.5,0,79.3ZM253.2-44.7C98.5-44.7-27,80.7-27,235.4S98.5,515.6,253.2,515.6,533.3,390.1,533.3,235.4,407.9-44.7,253.2-44.7Z" style="fill:#dcdcdc;opacity:0.07843137279685031"/><path d="M389.7,393.2c-12.6,21.8-43.5,39.6-68.7,39.6H183.7c-25.2,0-56.1-17.8-68.7-39.6l-68.7-119c-12.6-21.8-12.6-57.5,0-79.3L115,75.9c12.6-21.8,43.5-39.6,68.7-39.6H321c25.2,0,56.1,17.8,68.7,39.6l68.7,119c12.6,21.8,12.6,57.5,0,79.3ZM252.4-45.6C97.6-45.6-27.8,79.8-27.8,234.6S97.6,514.7,252.4,514.7,532.5,389.3,532.5,234.6,407.1-45.6,252.4-45.6Z" style="fill:#d8d7d8;opacity:0.088235294351316"/><path d="M388.9,392.3c-12.6,21.8-43.5,39.7-68.7,39.7H182.8c-25.2,0-56.1-17.9-68.7-39.7L45.5,273.4c-12.6-21.8-12.6-57.5,0-79.3l68.6-119c12.6-21.8,43.5-39.7,68.7-39.7H320.2c25.2,0,56.1,17.9,68.7,39.7l68.7,119c12.6,21.8,12.6,57.5,0,79.3ZM251.5-46.4C96.8-46.4-28.6,79-28.6,233.7S96.8,513.9,251.5,513.9,531.7,388.4,531.7,233.7,406.2-46.4,251.5-46.4Z" style="fill:#d4d3d3;opacity:0.09803921590578168"/><path d="M388,391.5c-12.6,21.8-43.5,39.7-68.7,39.7H182c-25.2,0-56.1-17.9-68.7-39.7l-68.7-119C32,250.7,32,215,44.6,193.2L113.3,74.3c12.6-21.9,43.5-39.7,68.7-39.7H319.3c25.2,0,56.1,17.8,68.7,39.7l68.7,118.9c12.6,21.8,12.6,57.5,0,79.3ZM250.7-47.3C95.9-47.3-29.5,78.2-29.5,232.9S95.9,513,250.7,513,530.8,387.6,530.8,232.9,405.4-47.3,250.7-47.3Z" style="fill:#d0cfcf;opacity:0.10784313746024737"/><path d="M387.2,390.6c-12.6,21.9-43.5,39.7-68.7,39.7H181.1c-25.2,0-56.1-17.8-68.7-39.7L43.8,271.7c-12.6-21.8-12.6-57.5,0-79.3l68.6-119c12.6-21.8,43.5-39.6,68.7-39.6H318.5c25.2,0,56.1,17.8,68.7,39.6l68.7,119c12.6,21.8,12.6,57.5,0,79.3ZM249.8-48.1C95.1-48.1-30.3,77.3-30.3,232S95.1,512.2,249.8,512.2,530,386.8,530,232,404.5-48.1,249.8-48.1Z" style="fill:#cbcacb;opacity:0.11764705901471306"/><path d="M386.3,389.8c-12.6,21.8-43.5,39.7-68.6,39.7H180.3c-25.2,0-56.1-17.9-68.7-39.7l-68.7-119c-12.6-21.8-12.6-57.5,0-79.3L111.6,72.6c12.6-21.8,43.5-39.7,68.7-39.7H317.7c25.1,0,56,17.9,68.6,39.7L455,191.5c12.6,21.8,12.6,57.5,0,79.3ZM249-49C94.3-49-31.2,76.5-31.2,231.2S94.3,511.3,249,511.3,529.1,385.9,529.1,231.2,403.7-49,249-49Z" style="fill:#c7c6c6;opacity:0.12745098056917875"/><path d="M385.5,389c-12.6,21.8-43.5,39.6-68.7,39.6H179.4c-25.1,0-56.1-17.8-68.6-39.6L42.1,270c-12.6-21.8-12.6-57.5,0-79.3l68.7-119c12.5-21.8,43.5-39.6,68.6-39.6H316.8c25.2,0,56.1,17.8,68.7,39.6l68.7,119c12.6,21.8,12.6,57.5,0,79.3ZM248.1-49.8C93.4-49.8-32,75.6-32,230.3S93.4,510.5,248.1,510.5,528.3,385.1,528.3,230.3,402.9-49.8,248.1-49.8Z" style="fill:#c3c2c2;opacity:0.13725490212364444"/><path d="M384.6,388.1c-12.5,21.8-43.5,39.7-68.6,39.7H178.6c-25.2,0-56.1-17.9-68.7-39.7L41.2,269.2c-12.6-21.9-12.6-57.6,0-79.4L109.9,70.9c12.6-21.8,43.5-39.7,68.7-39.7H316c25.1,0,56.1,17.9,68.6,39.7l68.7,118.9c12.6,21.8,12.6,57.5,0,79.4ZM247.3-50.7C92.6-50.7-32.9,74.8-32.9,229.5S92.6,509.6,247.3,509.6,527.4,384.2,527.4,229.5,402-50.7,247.3-50.7Z" style="fill:#bebdbd;opacity:0.14705882367811013"/><path d="M383.8,387.3c-12.6,21.8-43.5,39.6-68.7,39.6H177.7c-25.1,0-56-17.8-68.6-39.6l-68.7-119c-12.6-21.8-12.6-57.5,0-79.3L109.1,70c12.6-21.8,43.5-39.6,68.6-39.6H315.1c25.2,0,56.1,17.8,68.7,39.6l68.7,119c12.6,21.8,12.6,57.5,0,79.3ZM246.4-51.5C91.7-51.5-33.7,73.9-33.7,228.7S91.7,508.8,246.4,508.8,526.6,383.4,526.6,228.7,401.2-51.5,246.4-51.5Z" style="fill:#bab9b9;opacity:0.15686274523257582"/><path d="M383,386.4c-12.6,21.8-43.5,39.7-68.7,39.7H176.9c-25.2,0-56.1-17.9-68.7-39.7L39.5,267.5c-12.6-21.8-12.6-57.5,0-79.4L108.2,69.2c12.6-21.8,43.5-39.7,68.7-39.7H314.3c25.2,0,56.1,17.9,68.7,39.7l68.6,118.9c12.6,21.9,12.6,57.6,0,79.4ZM245.6-52.4C90.9-52.4-34.6,73.1-34.6,227.8S90.9,508,245.6,508,525.7,382.5,525.7,227.8,400.3-52.4,245.6-52.4Z" style="fill:#b6b4b5;opacity:0.1666666667870415"/><path d="M382.1,385.6c-12.6,21.8-43.5,39.6-68.7,39.6H176.1c-25.2,0-56.1-17.8-68.7-39.6l-68.7-119c-12.6-21.8-12.6-57.5,0-79.3l68.7-119c12.6-21.8,43.5-39.6,68.7-39.6H313.4c25.2,0,56.1,17.8,68.7,39.6l68.7,119c12.6,21.8,12.6,57.5,0,79.3ZM244.7-53.2C90-53.2-35.4,72.2-35.4,227S90,507.1,244.7,507.1,524.9,381.7,524.9,227,399.5-53.2,244.7-53.2Z" style="fill:#b1b0b0;opacity:0.1764705883415072"/><path d="M381.3,384.7c-12.6,21.8-43.5,39.7-68.7,39.7H175.2c-25.2,0-56.1-17.9-68.7-39.7L37.8,265.8c-12.5-21.8-12.5-57.5,0-79.3l68.7-119c12.6-21.8,43.5-39.7,68.7-39.7H312.6c25.2,0,56.1,17.9,68.7,39.7l68.7,119c12.5,21.8,12.5,57.5,0,79.3ZM243.9-54C89.2-54-36.2,71.4-36.2,226.1S89.2,506.3,243.9,506.3,524.1,380.8,524.1,226.1,398.6-54,243.9-54Z" style="fill:#adacac;opacity:0.18627450989597288"/><path d="M380.4,383.9c-12.6,21.8-43.5,39.6-68.7,39.6H174.4c-25.2,0-56.1-17.8-68.7-39.6L37,264.9c-12.6-21.8-12.6-57.5,0-79.3l68.7-119C118.3,44.8,149.2,27,174.4,27H311.7c25.2,0,56.1,17.8,68.7,39.6l68.7,119c12.6,21.8,12.6,57.5,0,79.3ZM243.1-54.9C88.3-54.9-37.1,70.5-37.1,225.3S88.3,505.4,243.1,505.4,523.2,380,523.2,225.3,397.8-54.9,243.1-54.9Z" style="fill:#a9a7a8;opacity:0.19607843145043857"/><path d="M379.6,383c-12.6,21.9-43.5,39.7-68.7,39.7H173.5c-25.2,0-56.1-17.8-68.7-39.7L36.2,264.1c-12.6-21.8-12.6-57.5,0-79.3l68.6-119c12.6-21.8,43.5-39.7,68.7-39.7H310.9c25.2,0,56.1,17.9,68.7,39.7l68.7,119c12.6,21.8,12.6,57.5,0,79.3ZM242.2-55.7C87.5-55.7-37.9,69.7-37.9,224.4S87.5,504.6,242.2,504.6,522.4,379.1,522.4,224.4,396.9-55.7,242.2-55.7Z" style="fill:#a4a3a3;opacity:0.20588235300490426"/><path d="M378.7,382.2c-12.6,21.8-43.5,39.7-68.7,39.7H172.7c-25.2,0-56.1-17.9-68.7-39.7l-68.7-119c-12.6-21.8-12.6-57.5,0-79.3L104,65c12.6-21.9,43.5-39.7,68.7-39.7H310c25.2,0,56.1,17.8,68.7,39.7l68.7,118.9c12.6,21.8,12.6,57.5,0,79.3ZM241.4-56.6C86.6-56.6-38.8,68.9-38.8,223.6S86.6,503.7,241.4,503.7,521.5,378.3,521.5,223.6,396.1-56.6,241.4-56.6Z" style="fill:#a09e9f;opacity:0.21568627455936995"/><path d="M377.9,381.4c-12.6,21.8-43.5,39.6-68.7,39.6H171.8c-25.1,0-56.1-17.8-68.7-39.6l-68.6-119c-12.6-21.8-12.6-57.5,0-79.3l68.6-119c12.6-21.8,43.6-39.6,68.7-39.6H309.2c25.2,0,56.1,17.8,68.7,39.6l68.7,119c12.6,21.8,12.6,57.5,0,79.3ZM240.5-57.4C85.8-57.4-39.6,68-39.6,222.7S85.8,502.9,240.5,502.9,520.7,377.5,520.7,222.7,395.2-57.4,240.5-57.4Z" style="fill:#9c9a9a;opacity:0.22549019611383564"/><path d="M377,380.5c-12.5,21.8-43.5,39.7-68.6,39.7H171c-25.2,0-56.1-17.9-68.7-39.7l-68.7-119C21,239.7,21,204,33.6,182.2L102.3,63.3c12.6-21.8,43.5-39.7,68.7-39.7H308.4c25.1,0,56.1,17.9,68.6,39.7l68.7,118.9c12.6,21.8,12.6,57.5,0,79.3ZM239.7-58.3C85-58.3-40.5,67.2-40.5,221.9S85,502,239.7,502,519.8,376.6,519.8,221.9,394.4-58.3,239.7-58.3Z" style="fill:#979696;opacity:0.23529411766830133"/><path d="M376.2,379.7c-12.6,21.8-43.5,39.6-68.7,39.6H170.1c-25.1,0-56-17.8-68.6-39.6l-68.7-119c-12.6-21.8-12.6-57.5,0-79.3l68.7-119c12.6-21.8,43.5-39.6,68.6-39.6H307.5c25.2,0,56.1,17.8,68.7,39.6l68.7,119c12.6,21.8,12.6,57.5,0,79.3ZM238.8-59.1C84.1-59.1-41.3,66.3-41.3,221S84.1,501.2,238.8,501.2,519,375.8,519,221,393.6-59.1,238.8-59.1Z" style="fill:#939192;opacity:0.24509803922276702"/><path d="M375.4,378.8c-12.6,21.8-43.5,39.7-68.7,39.7H169.3c-25.2,0-56.1-17.9-68.7-39.7L31.9,259.9c-12.6-21.9-12.6-57.5,0-79.4L100.6,61.6c12.6-21.8,43.5-39.7,68.7-39.7H306.7c25.2,0,56.1,17.9,68.7,39.7L444,180.5c12.6,21.9,12.6,57.5,0,79.4ZM238-60C83.3-60-42.2,65.5-42.2,220.2S83.3,500.3,238,500.3,518.1,374.9,518.1,220.2,392.7-60,238-60Z" style="fill:#8f8d8d;opacity:0.2549019607772327"/><path d="M374.5,378c-12.6,21.8-43.5,39.6-68.7,39.6H168.5c-25.2,0-56.1-17.8-68.7-39.6L31.1,259c-12.6-21.8-12.6-57.5,0-79.3l68.7-119c12.6-21.8,43.5-39.6,68.7-39.6H305.8c25.2,0,56.1,17.8,68.7,39.6l68.7,119c12.6,21.8,12.6,57.5,0,79.3ZM237.1-60.8C82.4-60.8-43,64.6-43,219.4S82.4,499.5,237.1,499.5,517.3,374.1,517.3,219.4,391.9-60.8,237.1-60.8Z" style="fill:#8b8889;opacity:0.2647058823316984"/><path d="M373.7,377.1c-12.6,21.8-43.5,39.7-68.7,39.7H167.6c-25.2,0-56.1-17.9-68.7-39.7L30.2,258.2c-12.6-21.8-12.6-57.5,0-79.4L98.9,59.9c12.6-21.8,43.5-39.7,68.7-39.7H305c25.2,0,56.1,17.9,68.7,39.7l68.7,118.9c12.5,21.9,12.5,57.6,0,79.4ZM236.3-61.6C81.6-61.6-43.9,63.8-43.9,218.5S81.6,498.7,236.3,498.7,516.4,373.2,516.4,218.5,391-61.6,236.3-61.6Z" style="fill:#868485;opacity:0.2745098038861641"/><path d="M372.8,376.3c-12.6,21.8-43.5,39.6-68.7,39.6H166.8c-25.2,0-56.1-17.8-68.7-39.6l-68.7-119c-12.6-21.8-12.6-57.5,0-79.3L98.1,59c12.6-21.8,43.5-39.6,68.7-39.6H304.1c25.2,0,56.1,17.8,68.7,39.6l68.7,119c12.6,21.8,12.6,57.5,0,79.3ZM235.5-62.5C80.7-62.5-44.7,62.9-44.7,217.7S80.7,497.8,235.5,497.8,515.6,372.4,515.6,217.7,390.2-62.5,235.5-62.5Z" style="fill:#828080;opacity:0.28431372544062977"/><path d="M372,375.4c-12.6,21.8-43.5,39.7-68.7,39.7H165.9c-25.2,0-56.1-17.9-68.7-39.7L28.5,256.5C16,234.7,16,199,28.5,177.2l68.7-119c12.6-21.8,43.5-39.7,68.7-39.7H303.3c25.2,0,56.1,17.9,68.7,39.7l68.7,119c12.6,21.8,12.6,57.5,0,79.3ZM234.6-63.3C79.9-63.3-45.5,62.1-45.5,216.8S79.9,497,234.6,497,514.8,371.5,514.8,216.8,389.3-63.3,234.6-63.3Z" style="fill:#7e7b7c;opacity:0.29411764699509546"/><path d="M371.1,374.6c-12.6,21.8-43.5,39.6-68.7,39.6H165.1c-25.2,0-56.1-17.8-68.7-39.6l-68.7-119c-12.6-21.8-12.6-57.5,0-79.3L96.4,57.4c12.6-21.9,43.5-39.7,68.7-39.7H302.4c25.2,0,56.1,17.8,68.7,39.7l68.7,118.9c12.6,21.8,12.6,57.5,0,79.3ZM233.8-64.2C79-64.2-46.4,61.2-46.4,216S79,496.1,233.8,496.1,513.9,370.7,513.9,216,388.5-64.2,233.8-64.2Z" style="fill:#797777;opacity:0.30392156854956115"/><path d="M370.3,373.7c-12.6,21.9-43.5,39.7-68.7,39.7H164.2c-25.2,0-56.1-17.8-68.7-39.7L26.9,254.8c-12.6-21.8-12.6-57.5,0-79.3l68.6-119c12.6-21.8,43.5-39.7,68.7-39.7H301.6c25.2,0,56.1,17.9,68.7,39.7l68.7,119c12.6,21.8,12.6,57.5,0,79.3ZM232.9-65C78.2-65-47.2,60.4-47.2,215.1S78.2,495.3,232.9,495.3,513.1,369.9,513.1,215.1,387.6-65,232.9-65Z" style="fill:#757273;opacity:0.31372549010402684"/><path d="M369.4,372.9c-12.6,21.8-43.5,39.7-68.6,39.7H163.4c-25.2,0-56.1-17.9-68.7-39.7L26,253.9c-12.6-21.8-12.6-57.5,0-79.3L94.7,55.7C107.3,33.9,138.2,16,163.4,16H300.8c25.1,0,56,17.9,68.6,39.7l68.7,118.9c12.6,21.8,12.6,57.5,0,79.3ZM232.1-65.9C77.3-65.9-48.1,59.6-48.1,214.3S77.3,494.4,232.1,494.4,512.2,369,512.2,214.3,386.8-65.9,232.1-65.9Z" style="fill:#716e6f;opacity:0.3235294116584925"/><path d="M368.6,372.1c-12.6,21.8-43.5,39.6-68.7,39.6H162.5c-25.1,0-56.1-17.8-68.6-39.6l-68.7-119c-12.6-21.8-12.6-57.5,0-79.3l68.7-119c12.5-21.8,43.5-39.6,68.6-39.6H299.9c25.2,0,56.1,17.8,68.7,39.6l68.7,119c12.6,21.8,12.6,57.5,0,79.3ZM231.2-66.7C76.5-66.7-48.9,58.7-48.9,213.4S76.5,493.6,231.2,493.6,511.4,368.2,511.4,213.4,385.9-66.7,231.2-66.7Z" style="fill:#6c6a6a;opacity:0.3333333332129582"/><path d="M367.7,371.2c-12.5,21.8-43.5,39.7-68.6,39.7H161.7c-25.2,0-56.1-17.9-68.7-39.7L24.3,252.3c-12.6-21.9-12.6-57.6,0-79.4L93,54c12.6-21.8,43.5-39.7,68.7-39.7H299.1c25.1,0,56.1,17.9,68.6,39.7l68.7,118.9c12.6,21.8,12.6,57.5,0,79.4ZM230.4-67.6C75.7-67.6-49.8,57.9-49.8,212.6S75.7,492.7,230.4,492.7,510.5,367.3,510.5,212.6,385.1-67.6,230.4-67.6Z" style="fill:#686566;opacity:0.3431372547674239"/><path d="M366.9,370.4c-12.6,21.8-43.5,39.6-68.7,39.6H160.8c-25.1,0-56-17.8-68.6-39.6l-68.7-119c-12.6-21.8-12.6-57.5,0-79.3l68.7-119c12.6-21.8,43.5-39.6,68.6-39.6H298.2c25.2,0,56.1,17.8,68.7,39.6l68.7,119c12.6,21.8,12.6,57.5,0,79.3ZM229.5-68.4C74.8-68.4-50.6,57-50.6,211.7S74.8,491.9,229.5,491.9,509.7,366.5,509.7,211.7,384.3-68.4,229.5-68.4Z" style="fill:#646162;opacity:0.3529411763218896"/><path d="M366.1,369.5c-12.6,21.8-43.5,39.7-68.7,39.7H160c-25.2,0-56.1-17.9-68.7-39.7L22.6,250.6c-12.6-21.8-12.6-57.5,0-79.4L91.3,52.3c12.6-21.8,43.5-39.7,68.7-39.7H297.4c25.2,0,56.1,17.9,68.7,39.7l68.6,118.9c12.6,21.9,12.6,57.6,0,79.4ZM228.7-69.3C74-69.3-51.5,56.2-51.5,210.9S74,491,228.7,491,508.8,365.6,508.8,210.9,383.4-69.3,228.7-69.3Z" style="fill:#5f5c5d;opacity:0.3627450978763553"/><path d="M365.2,368.7c-12.6,21.8-43.5,39.6-68.7,39.6H159.2c-25.2,0-56.1-17.8-68.7-39.6l-68.7-119c-12.6-21.8-12.6-57.5,0-79.3l68.7-119c12.6-21.8,43.5-39.6,68.7-39.6H296.5c25.2,0,56.1,17.8,68.7,39.6l68.7,119c12.6,21.8,12.6,57.5,0,79.3ZM227.8-70.1C73.1-70.1-52.3,55.3-52.3,210.1S73.1,490.2,227.8,490.2,508,364.8,508,210.1,382.6-70.1,227.8-70.1Z" style="fill:#5b5859;opacity:0.37254901943082097"/><path d="M364.4,367.8c-12.6,21.8-43.5,39.7-68.7,39.7H158.3c-25.2,0-56.1-17.9-68.7-39.7L20.9,248.9c-12.5-21.8-12.5-57.5,0-79.4L89.6,50.6c12.6-21.8,43.5-39.7,68.7-39.7H295.7c25.2,0,56.1,17.9,68.7,39.7l68.7,118.9c12.5,21.9,12.5,57.6,0,79.4ZM227-70.9C72.3-70.9-53.1,54.5-53.1,209.2S72.3,489.4,227,489.4,507.1,363.9,507.1,209.2,381.7-70.9,227-70.9Z" style="fill:#575454;opacity:0.38235294098528666"/><path d="M363.5,367c-12.6,21.8-43.5,39.6-68.7,39.6H157.5c-25.2,0-56.1-17.8-68.7-39.6L20.1,248c-12.6-21.8-12.6-57.5,0-79.3l68.7-119c12.6-21.8,43.5-39.6,68.7-39.6H294.8c25.2,0,56.1,17.8,68.7,39.6l68.7,119c12.6,21.8,12.6,57.5,0,79.3ZM226.2-71.8C71.4-71.8-54,53.6-54,208.4S71.4,488.5,226.2,488.5,506.3,363.1,506.3,208.4,380.9-71.8,226.2-71.8Z" style="fill:#524f50;opacity:0.39215686253975235"/><path d="M362.7,366.1c-12.6,21.9-43.5,39.7-68.7,39.7H156.6c-25.2,0-56.1-17.8-68.7-39.7L19.3,247.2c-12.6-21.8-12.6-57.5,0-79.3l68.6-119c12.6-21.8,43.5-39.7,68.7-39.7H294c25.2,0,56.1,17.9,68.7,39.7l68.7,119c12.6,21.8,12.6,57.5,0,79.3ZM225.3-72.6C70.6-72.6-54.8,52.8-54.8,207.5S70.6,487.7,225.3,487.7,505.5,362.2,505.5,207.5,380-72.6,225.3-72.6Z" style="fill:#4e4b4c;opacity:0.40196078409421804"/><path d="M361.8,365.3c-12.6,21.8-43.5,39.7-68.7,39.7H155.8c-25.2,0-56.1-17.9-68.7-39.7l-68.7-119c-12.6-21.8-12.6-57.5,0-79.3L87.1,48.1C99.7,26.2,130.6,8.4,155.8,8.4H293.1c25.2,0,56.1,17.8,68.7,39.7L430.5,167c12.6,21.8,12.6,57.5,0,79.3ZM224.5-73.5C69.7-73.5-55.7,52-55.7,206.7S69.7,486.8,224.5,486.8,504.6,361.4,504.6,206.7,379.2-73.5,224.5-73.5Z" style="fill:#4a4747;opacity:0.4117647056486837"/><path d="M361,364.4c-12.6,21.9-43.5,39.7-68.7,39.7H154.9c-25.1,0-56.1-17.8-68.7-39.7L17.6,245.5C5,223.7,5,188,17.6,166.2l68.6-119C98.8,25.4,129.8,7.6,154.9,7.6H292.3c25.2,0,56.1,17.8,68.7,39.6l68.7,119c12.6,21.8,12.6,57.5,0,79.3ZM223.6-74.3C68.9-74.3-56.5,51.1-56.5,205.8S68.9,486,223.6,486,503.8,360.6,503.8,205.8,378.3-74.3,223.6-74.3Z" style="fill:#464243;opacity:0.4215686272031494"/><path d="M360.1,363.6c-12.5,21.8-43.5,39.7-68.6,39.7H154.1c-25.2,0-56.1-17.9-68.7-39.7l-68.7-119c-12.6-21.8-12.6-57.5,0-79.3L85.4,46.4C98,24.6,128.9,6.7,154.1,6.7H291.5c25.1,0,56.1,17.9,68.6,39.7l68.7,118.9c12.6,21.8,12.6,57.5,0,79.3ZM222.8-75.2C68.1-75.2-57.4,50.3-57.4,205S68.1,485.1,222.8,485.1,502.9,359.7,502.9,205,377.5-75.2,222.8-75.2Z" style="fill:#413e3f;opacity:0.4313725487576151"/><path d="M359.3,362.8c-12.6,21.8-43.5,39.6-68.7,39.6H153.2c-25.1,0-56-17.8-68.6-39.6l-68.7-119c-12.6-21.8-12.6-57.5,0-79.3l68.7-119C97.2,23.7,128.1,5.9,153.2,5.9H290.6c25.2,0,56.1,17.8,68.7,39.6l68.7,119c12.6,21.8,12.6,57.5,0,79.3ZM221.9-76C67.2-76-58.2,49.4-58.2,204.1S67.2,484.3,221.9,484.3,502.1,358.9,502.1,204.1,376.7-76,221.9-76Z" style="fill:#3d393a;opacity:0.4411764703120808"/><path d="M358.4,361.9c-12.5,21.8-43.4,39.7-68.6,39.7H152.4c-25.2,0-56.1-17.9-68.7-39.7L15,243c-12.6-21.9-12.6-57.6,0-79.4L83.7,44.7C96.3,22.9,127.2,5,152.4,5H289.8c25.2,0,56.1,17.9,68.6,39.7l68.7,118.9c12.6,21.8,12.6,57.5,0,79.4ZM221.1-76.9C66.4-76.9-59.1,48.6-59.1,203.3S66.4,483.4,221.1,483.4,501.2,358,501.2,203.3,375.8-76.9,221.1-76.9Z" style="fill:#393536;opacity:0.4509803918665465"/><path d="M357.6,361.1c-12.6,21.8-43.5,39.6-68.7,39.6H151.5c-25.1,0-56-17.8-68.6-39.6l-68.7-119c-12.6-21.8-12.6-57.5,0-79.3l68.7-119C95.5,22,126.4,4.2,151.5,4.2H288.9c25.2,0,56.1,17.8,68.7,39.6l68.7,119c12.6,21.8,12.6,57.5,0,79.3ZM220.2-77.7C65.5-77.7-59.9,47.7-59.9,202.5S65.5,482.6,220.2,482.6,500.4,357.2,500.4,202.5,375-77.7,220.2-77.7Z" style="fill:#343131;opacity:0.46078431342101217"/><path d="M356.8,360.2c-12.6,21.8-43.5,39.7-68.7,39.7H150.7c-25.2,0-56.1-17.9-68.7-39.7L13.3,241.3C.7,219.5.7,183.8,13.3,161.9L82,43C94.6,21.2,125.5,3.3,150.7,3.3H288.1c25.2,0,56.1,17.9,68.7,39.7l68.6,118.9c12.6,21.9,12.6,57.6,0,79.4ZM219.4-78.5C64.7-78.5-60.8,46.9-60.8,201.6S64.7,481.8,219.4,481.8,499.5,356.3,499.5,201.6,374.1-78.5,219.4-78.5Z" style="fill:#302c2d;opacity:0.47058823497547786"/><path d="M355.9,359.4c-12.6,21.8-43.5,39.6-68.7,39.6H149.9c-25.2,0-56.1-17.8-68.7-39.6l-68.7-119c-12.6-21.8-12.6-57.5,0-79.3l68.7-119C93.8,20.3,124.7,2.5,149.9,2.5H287.2c25.2,0,56.1,17.8,68.7,39.6l68.7,119c12.6,21.8,12.6,57.5,0,79.3ZM218.5-79.4C63.8-79.4-61.6,46-61.6,200.8S63.8,480.9,218.5,480.9,498.7,355.5,498.7,200.8,373.3-79.4,218.5-79.4Z" style="fill:#2c2829;opacity:0.48039215652994355"/><path d="M355.1,358.5c-12.6,21.8-43.5,39.7-68.7,39.7H149c-25.2,0-56.1-17.9-68.7-39.7L11.6,239.6c-12.5-21.8-12.5-57.5,0-79.3l68.7-119C92.9,19.5,123.8,1.6,149,1.6H286.4c25.2,0,56.1,17.9,68.7,39.7l68.7,119c12.6,21.8,12.6,57.5,0,79.3ZM217.7-80.2C63-80.2-62.4,45.2-62.4,199.9S63,480.1,217.7,480.1,497.9,354.6,497.9,199.9,372.4-80.2,217.7-80.2Z" style="fill:#272324;opacity:0.49019607808440924"/><path d="M354.2,357.7c-12.6,21.8-43.5,39.6-68.7,39.6H148.2c-25.2,0-56.1-17.8-68.7-39.6l-68.7-119c-12.6-21.8-12.6-57.5,0-79.3l68.7-119C92.1,18.6,123,.8,148.2.8H285.5c25.2,0,56.1,17.8,68.7,39.6l68.7,119c12.6,21.8,12.6,57.5,0,79.3ZM216.9-81.1C62.1-81.1-63.3,44.3-63.3,199.1S62.1,479.2,216.9,479.2,497,353.8,497,199.1,371.6-81.1,216.9-81.1Z" style="fill:#231f20;opacity:0.5"/></g><path d="M216.9-81.1C62.1-81.1-63.3,44.3-63.3,199.1S62.1,479.2,216.9,479.2,497,353.8,497,199.1,371.6-81.1,216.9-81.1ZM354.2,357.7c-12.6,21.8-43.5,39.6-68.7,39.6H148.2c-25.2,0-56.1-17.8-68.7-39.6l-68.7-119c-12.6-21.8-12.6-57.5,0-79.3l68.7-119C92.1,18.6,123,.8,148.2.8H285.5c25.2,0,56.1,17.8,68.7,39.6l68.7,119c12.6,21.8,12.6,57.5,0,79.3Z" style="fill:#fff"/></g><path d="M171.6,213.6l.7-.5a2.1,2.1,0,0,0,.8-1.7v-1.6a23.7,23.7,0,0,0,8.4,1.6,23.9,23.9,0,0,0,8.6-1.6v1.6a2.5,2.5,0,0,0,2.5,2.4h3.1v1a14,14,0,0,1-9.8,13.4,2.5,2.5,0,0,0-1.5,3.1,2.4,2.4,0,0,0,2.3,1.6h.7a18.8,18.8,0,0,0,13.1-18v-1h11.8a11.1,11.1,0,0,1,8.1,3.4,11.5,11.5,0,0,1,3.4,8.2v32.2H139.3V244.3a2.4,2.4,0,0,0-4.8,0v13.4a4.8,4.8,0,0,0,4.7,4.8H294.5a4.8,4.8,0,0,0,4.7-4.8V225.4A16.2,16.2,0,0,0,283,209H265.6v-1.7A24.7,24.7,0,0,0,276.2,189a9.7,9.7,0,0,0,8.9-9.6,9.8,9.8,0,0,0-3.1-7.2l.2-5.4a30.1,30.1,0,1,0-60.1,0l.2,5.5a9.6,9.6,0,0,0-3.1,7.1,9.8,9.8,0,0,0,8.9,9.6,24.6,24.6,0,0,0,10.7,18.3V209H195v-1.7A24.7,24.7,0,0,0,205.6,189a9.7,9.7,0,0,0,8.9-9.6,9.5,9.5,0,0,0-2.9-6.9l1-12.6a10.8,10.8,0,0,0-2.9-8.2,11.9,11.9,0,0,0-5.1-3.2l1.4-7.2a4.6,4.6,0,0,0-1-3.9,4.7,4.7,0,0,0-3.7-1.7H173.8a14.8,14.8,0,0,0-14.7,12.7,11.3,11.3,0,0,0-5.8,3.3,10.7,10.7,0,0,0-2.8,8.2l1,12.6a9.6,9.6,0,0,0,6,16.5,24.5,24.5,0,0,0,8.2,16.4,9.1,9.1,0,0,0-4.3-1h-7.5a10.4,10.4,0,0,0-9.2,5.8,16.2,16.2,0,0,0-10.2,15.1V234a2.4,2.4,0,0,0,4.8,0v-8.7a11.4,11.4,0,0,1,4.4-9v4.5a5.1,5.1,0,0,0,5.1,5.1h17.5a18.9,18.9,0,0,0,9.3,6.9h.8a2.6,2.6,0,0,0,2.3-1.7,2.4,2.4,0,0,0-1.6-3,14.4,14.4,0,0,1-6.4-4.5,4.8,4.8,0,0,0,.9-2.9Zm34.1-29.5v-9.5a4.8,4.8,0,0,1,0,9.5Zm-50.4-24.6a5.7,5.7,0,0,1,1.6-4.6,6,6,0,0,1,4.4-1.9,2.4,2.4,0,0,0,2.4-2.4,10.1,10.1,0,0,1,10.1-10.1h27.4l-1.8,9.6a2.1,2.1,0,0,0,.5,2,2.1,2.1,0,0,0,1.8.9,6.4,6.4,0,0,1,4.5,1.9,6.5,6.5,0,0,1,1.6,4.6l-.8,10.4-1.4-.2a25.5,25.5,0,0,0-1.3-6.1,2.4,2.4,0,0,0-2.3-1.9c-7.9-.3-22.6-1.9-31.2-9.8a2.6,2.6,0,0,0-3-.2,24.4,24.4,0,0,0-10.3,18l-1.4.2Zm-1.9,19.9a4.9,4.9,0,0,1,4-4.8v9.5A4.9,4.9,0,0,1,153.4,179.4Zm-4.9,41.4v-6.2a5.5,5.5,0,0,1,5.4-5.4h7.5a5.4,5.4,0,0,1,4.8,3.1,6.5,6.5,0,0,1,.6,2.3v6.2l-.3.3H148.8A.5.5,0,0,1,148.5,220.8ZM162.2,187V171.8a19.9,19.9,0,0,1,6.9-15c5.3,4.2,14.8,8.8,31,9.6a19.6,19.6,0,0,1,.8,5.4V187a19.4,19.4,0,1,1-38.7,0Zm114.1-2.9v-9.5a4.8,4.8,0,0,1,0,9.5Zm-49.4-17.5a25.2,25.2,0,0,1,7.1-18.4,25.2,25.2,0,0,1,36.3,0,25.2,25.2,0,0,1,7.1,18.4l-.2,3.2h-1a24.1,24.1,0,0,0-48.1,0l-1,.2Zm-2.8,12.8a4.9,4.9,0,0,1,3.9-4.8v9.5a4.8,4.8,0,0,1-3.9-4.7Zm8.8,7.6V171.8a19.3,19.3,0,1,1,38.6,0V187a19.3,19.3,0,1,1-38.6,0Zm8.4,26.8h0a2.3,2.3,0,0,0,1.7-.7,2.4,2.4,0,0,0,.7-1.7v-1.6a23.8,23.8,0,0,0,8.5,1.6,24.8,24.8,0,0,0,8.6-1.6v1.6a2.4,2.4,0,0,0,2.4,2.4h3.1v1a14.1,14.1,0,0,1-28.2,0v-1Zm53.1,43.8H228.6V225.4a16.6,16.6,0,0,0-4.7-11.6h9.4v1a18.9,18.9,0,0,0,37.8,0v-1H283a11.4,11.4,0,0,1,8.1,3.4,11.8,11.8,0,0,1,3.3,8.2Z" style="fill:#56595c"/></g></g></svg>